<?xml version="1.0" encoding="utf-8"?>
<svg xmlns="http://www.w3.org/2000/svg" xmlns:xlink="http://www.w3.org/1999/xlink" width="600" height="400" viewBox="0 0 2400 1600">
<defs>
  <clipPath id="clip420">
    <rect x="0" y="0" width="2400" height="1600"/>
  </clipPath>
</defs>
<path clip-path="url(#clip420)" d="
M0 1600 L2400 1600 L2400 0 L0 0  Z
  " fill="#ffffff" fill-rule="evenodd" fill-opacity="1"/>
<defs>
  <clipPath id="clip421">
    <rect x="480" y="0" width="1681" height="1600"/>
  </clipPath>
</defs>
<path clip-path="url(#clip420)" d="
M219.38 1423.18 L2352.76 1423.18 L2352.76 47.2441 L219.38 47.2441  Z
  " fill="#ffffff" fill-rule="evenodd" fill-opacity="1"/>
<defs>
  <clipPath id="clip422">
    <rect x="219" y="47" width="2134" height="1377"/>
  </clipPath>
</defs>
<polyline clip-path="url(#clip422)" style="stroke:#000000; stroke-linecap:round; stroke-linejoin:round; stroke-width:2; stroke-opacity:0.1; fill:none" points="
  336.72,1423.18 336.72,47.2441 
  "/>
<polyline clip-path="url(#clip422)" style="stroke:#000000; stroke-linecap:round; stroke-linejoin:round; stroke-width:2; stroke-opacity:0.1; fill:none" points="
  930.062,1423.18 930.062,47.2441 
  "/>
<polyline clip-path="url(#clip422)" style="stroke:#000000; stroke-linecap:round; stroke-linejoin:round; stroke-width:2; stroke-opacity:0.1; fill:none" points="
  1523.41,1423.18 1523.41,47.2441 
  "/>
<polyline clip-path="url(#clip422)" style="stroke:#000000; stroke-linecap:round; stroke-linejoin:round; stroke-width:2; stroke-opacity:0.1; fill:none" points="
  2116.75,1423.18 2116.75,47.2441 
  "/>
<polyline clip-path="url(#clip420)" style="stroke:#000000; stroke-linecap:round; stroke-linejoin:round; stroke-width:4; stroke-opacity:1; fill:none" points="
  219.38,1423.18 2352.76,1423.18 
  "/>
<polyline clip-path="url(#clip420)" style="stroke:#000000; stroke-linecap:round; stroke-linejoin:round; stroke-width:4; stroke-opacity:1; fill:none" points="
  336.72,1423.18 336.72,1404.28 
  "/>
<polyline clip-path="url(#clip420)" style="stroke:#000000; stroke-linecap:round; stroke-linejoin:round; stroke-width:4; stroke-opacity:1; fill:none" points="
  930.062,1423.18 930.062,1404.28 
  "/>
<polyline clip-path="url(#clip420)" style="stroke:#000000; stroke-linecap:round; stroke-linejoin:round; stroke-width:4; stroke-opacity:1; fill:none" points="
  1523.41,1423.18 1523.41,1404.28 
  "/>
<polyline clip-path="url(#clip420)" style="stroke:#000000; stroke-linecap:round; stroke-linejoin:round; stroke-width:4; stroke-opacity:1; fill:none" points="
  2116.75,1423.18 2116.75,1404.28 
  "/>
<path clip-path="url(#clip420)" d="M314.104 1454.1 Q310.493 1454.1 308.664 1457.66 Q306.859 1461.2 306.859 1468.33 Q306.859 1475.44 308.664 1479.01 Q310.493 1482.55 314.104 1482.55 Q317.738 1482.55 319.544 1479.01 Q321.372 1475.44 321.372 1468.33 Q321.372 1461.2 319.544 1457.66 Q317.738 1454.1 314.104 1454.1 M314.104 1450.39 Q319.914 1450.39 322.97 1455 Q326.048 1459.58 326.048 1468.33 Q326.048 1477.06 322.97 1481.67 Q319.914 1486.25 314.104 1486.25 Q308.294 1486.25 305.215 1481.67 Q302.16 1477.06 302.16 1468.33 Q302.16 1459.58 305.215 1455 Q308.294 1450.39 314.104 1450.39 Z" fill="#000000" fill-rule="evenodd" fill-opacity="1" /><path clip-path="url(#clip420)" d="M334.266 1479.7 L339.15 1479.7 L339.15 1485.58 L334.266 1485.58 L334.266 1479.7 Z" fill="#000000" fill-rule="evenodd" fill-opacity="1" /><path clip-path="url(#clip420)" d="M359.335 1454.1 Q355.724 1454.1 353.895 1457.66 Q352.09 1461.2 352.09 1468.33 Q352.09 1475.44 353.895 1479.01 Q355.724 1482.55 359.335 1482.55 Q362.969 1482.55 364.775 1479.01 Q366.604 1475.44 366.604 1468.33 Q366.604 1461.2 364.775 1457.66 Q362.969 1454.1 359.335 1454.1 M359.335 1450.39 Q365.145 1450.39 368.201 1455 Q371.28 1459.58 371.28 1468.33 Q371.28 1477.06 368.201 1481.67 Q365.145 1486.25 359.335 1486.25 Q353.525 1486.25 350.446 1481.67 Q347.391 1477.06 347.391 1468.33 Q347.391 1459.58 350.446 1455 Q353.525 1450.39 359.335 1450.39 Z" fill="#000000" fill-rule="evenodd" fill-opacity="1" /><path clip-path="url(#clip420)" d="M907.944 1454.1 Q904.333 1454.1 902.505 1457.66 Q900.699 1461.2 900.699 1468.33 Q900.699 1475.44 902.505 1479.01 Q904.333 1482.55 907.944 1482.55 Q911.579 1482.55 913.384 1479.01 Q915.213 1475.44 915.213 1468.33 Q915.213 1461.2 913.384 1457.66 Q911.579 1454.1 907.944 1454.1 M907.944 1450.39 Q913.755 1450.39 916.81 1455 Q919.889 1459.58 919.889 1468.33 Q919.889 1477.06 916.81 1481.67 Q913.755 1486.25 907.944 1486.25 Q902.134 1486.25 899.056 1481.67 Q896 1477.06 896 1468.33 Q896 1459.58 899.056 1455 Q902.134 1450.39 907.944 1450.39 Z" fill="#000000" fill-rule="evenodd" fill-opacity="1" /><path clip-path="url(#clip420)" d="M928.106 1479.7 L932.991 1479.7 L932.991 1485.58 L928.106 1485.58 L928.106 1479.7 Z" fill="#000000" fill-rule="evenodd" fill-opacity="1" /><path clip-path="url(#clip420)" d="M943.222 1451.02 L961.578 1451.02 L961.578 1454.96 L947.504 1454.96 L947.504 1463.43 Q948.523 1463.08 949.541 1462.92 Q950.56 1462.73 951.578 1462.73 Q957.365 1462.73 960.745 1465.9 Q964.125 1469.08 964.125 1474.49 Q964.125 1480.07 960.652 1483.17 Q957.18 1486.25 950.861 1486.25 Q948.685 1486.25 946.416 1485.88 Q944.171 1485.51 941.764 1484.77 L941.764 1480.07 Q943.847 1481.2 946.069 1481.76 Q948.291 1482.32 950.768 1482.32 Q954.773 1482.32 957.111 1480.21 Q959.449 1478.1 959.449 1474.49 Q959.449 1470.88 957.111 1468.77 Q954.773 1466.67 950.768 1466.67 Q948.893 1466.67 947.018 1467.08 Q945.166 1467.5 943.222 1468.38 L943.222 1451.02 Z" fill="#000000" fill-rule="evenodd" fill-opacity="1" /><path clip-path="url(#clip420)" d="M1490.56 1481.64 L1498.2 1481.64 L1498.2 1455.28 L1489.89 1456.95 L1489.89 1452.69 L1498.15 1451.02 L1502.83 1451.02 L1502.83 1481.64 L1510.47 1481.64 L1510.47 1485.58 L1490.56 1485.58 L1490.56 1481.64 Z" fill="#000000" fill-rule="evenodd" fill-opacity="1" /><path clip-path="url(#clip420)" d="M1519.91 1479.7 L1524.79 1479.7 L1524.79 1485.58 L1519.91 1485.58 L1519.91 1479.7 Z" fill="#000000" fill-rule="evenodd" fill-opacity="1" /><path clip-path="url(#clip420)" d="M1544.98 1454.1 Q1541.37 1454.1 1539.54 1457.66 Q1537.73 1461.2 1537.73 1468.33 Q1537.73 1475.44 1539.54 1479.01 Q1541.37 1482.55 1544.98 1482.55 Q1548.61 1482.55 1550.42 1479.01 Q1552.25 1475.44 1552.25 1468.33 Q1552.25 1461.2 1550.42 1457.66 Q1548.61 1454.1 1544.98 1454.1 M1544.98 1450.39 Q1550.79 1450.39 1553.84 1455 Q1556.92 1459.58 1556.92 1468.33 Q1556.92 1477.06 1553.84 1481.67 Q1550.79 1486.25 1544.98 1486.25 Q1539.17 1486.25 1536.09 1481.67 Q1533.03 1477.06 1533.03 1468.33 Q1533.03 1459.58 1536.09 1455 Q1539.17 1450.39 1544.98 1450.39 Z" fill="#000000" fill-rule="evenodd" fill-opacity="1" /><path clip-path="url(#clip420)" d="M2084.4 1481.64 L2092.04 1481.64 L2092.04 1455.28 L2083.73 1456.95 L2083.73 1452.69 L2091.99 1451.02 L2096.67 1451.02 L2096.67 1481.64 L2104.31 1481.64 L2104.31 1485.58 L2084.4 1485.58 L2084.4 1481.64 Z" fill="#000000" fill-rule="evenodd" fill-opacity="1" /><path clip-path="url(#clip420)" d="M2113.75 1479.7 L2118.63 1479.7 L2118.63 1485.58 L2113.75 1485.58 L2113.75 1479.7 Z" fill="#000000" fill-rule="evenodd" fill-opacity="1" /><path clip-path="url(#clip420)" d="M2128.87 1451.02 L2147.22 1451.02 L2147.22 1454.96 L2133.15 1454.96 L2133.15 1463.43 Q2134.17 1463.08 2135.19 1462.92 Q2136.2 1462.73 2137.22 1462.73 Q2143.01 1462.73 2146.39 1465.9 Q2149.77 1469.08 2149.77 1474.49 Q2149.77 1480.07 2146.3 1483.17 Q2142.82 1486.25 2136.5 1486.25 Q2134.33 1486.25 2132.06 1485.88 Q2129.81 1485.51 2127.41 1484.77 L2127.41 1480.07 Q2129.49 1481.2 2131.71 1481.76 Q2133.94 1482.32 2136.41 1482.32 Q2140.42 1482.32 2142.75 1480.21 Q2145.09 1478.1 2145.09 1474.49 Q2145.09 1470.88 2142.75 1468.77 Q2140.42 1466.67 2136.41 1466.67 Q2134.54 1466.67 2132.66 1467.08 Q2130.81 1467.5 2128.87 1468.38 L2128.87 1451.02 Z" fill="#000000" fill-rule="evenodd" fill-opacity="1" /><path clip-path="url(#clip420)" d="M1170.05 1524.88 Q1163.05 1524.88 1158.91 1530.1 Q1154.81 1535.32 1154.81 1544.33 Q1154.81 1553.31 1158.91 1558.53 Q1163.05 1563.75 1170.05 1563.75 Q1177.06 1563.75 1181.13 1558.53 Q1185.24 1553.31 1185.24 1544.33 Q1185.24 1535.32 1181.13 1530.1 Q1177.06 1524.88 1170.05 1524.88 M1179.06 1567.18 L1187.53 1576.45 L1179.76 1576.45 L1172.73 1568.84 Q1171.68 1568.9 1171.1 1568.94 Q1170.56 1568.97 1170.05 1568.97 Q1160.03 1568.97 1154.01 1562.28 Q1148.03 1555.57 1148.03 1544.33 Q1148.03 1533.06 1154.01 1526.38 Q1160.03 1519.66 1170.05 1519.66 Q1180.05 1519.66 1186.03 1526.38 Q1192.01 1533.06 1192.01 1544.33 Q1192.01 1552.61 1188.67 1558.5 Q1185.36 1564.38 1179.06 1567.18 Z" fill="#000000" fill-rule="evenodd" fill-opacity="1" /><path clip-path="url(#clip420)" d="M1201.21 1553.98 L1201.21 1532.4 L1207.07 1532.4 L1207.07 1553.75 Q1207.07 1558.81 1209.04 1561.36 Q1211.02 1563.87 1214.96 1563.87 Q1219.71 1563.87 1222.44 1560.85 Q1225.21 1557.83 1225.21 1552.61 L1225.21 1532.4 L1231.07 1532.4 L1231.07 1568.04 L1225.21 1568.04 L1225.21 1562.57 Q1223.08 1565.82 1220.25 1567.41 Q1217.45 1568.97 1213.72 1568.97 Q1207.58 1568.97 1204.4 1565.15 Q1201.21 1561.33 1201.21 1553.98 M1215.95 1531.54 L1215.95 1531.54 Z" fill="#000000" fill-rule="evenodd" fill-opacity="1" /><path clip-path="url(#clip420)" d="M1259.33 1550.12 Q1252.23 1550.12 1249.5 1551.75 Q1246.76 1553.37 1246.76 1557.29 Q1246.76 1560.4 1248.8 1562.25 Q1250.87 1564.07 1254.4 1564.07 Q1259.27 1564.07 1262.2 1560.63 Q1265.16 1557.16 1265.16 1551.43 L1265.16 1550.12 L1259.33 1550.12 M1271.01 1547.71 L1271.01 1568.04 L1265.16 1568.04 L1265.16 1562.63 Q1263.15 1565.88 1260.16 1567.44 Q1257.17 1568.97 1252.84 1568.97 Q1247.36 1568.97 1244.12 1565.91 Q1240.9 1562.82 1240.9 1557.67 Q1240.9 1551.65 1244.91 1548.6 Q1248.96 1545.54 1256.94 1545.54 L1265.16 1545.54 L1265.16 1544.97 Q1265.16 1540.93 1262.48 1538.73 Q1259.84 1536.5 1255.04 1536.5 Q1251.98 1536.5 1249.08 1537.23 Q1246.19 1537.97 1243.51 1539.43 L1243.51 1534.02 Q1246.73 1532.78 1249.75 1532.17 Q1252.78 1531.54 1255.64 1531.54 Q1263.37 1531.54 1267.19 1535.55 Q1271.01 1539.56 1271.01 1547.71 Z" fill="#000000" fill-rule="evenodd" fill-opacity="1" /><path clip-path="url(#clip420)" d="M1312.71 1546.53 L1312.71 1568.04 L1306.85 1568.04 L1306.85 1546.72 Q1306.85 1541.66 1304.88 1539.14 Q1302.91 1536.63 1298.96 1536.63 Q1294.22 1536.63 1291.48 1539.65 Q1288.74 1542.68 1288.74 1547.9 L1288.74 1568.04 L1282.85 1568.04 L1282.85 1532.4 L1288.74 1532.4 L1288.74 1537.93 Q1290.84 1534.72 1293.68 1533.13 Q1296.54 1531.54 1300.26 1531.54 Q1306.41 1531.54 1309.56 1535.36 Q1312.71 1539.14 1312.71 1546.53 Z" fill="#000000" fill-rule="evenodd" fill-opacity="1" /><path clip-path="url(#clip420)" d="M1330.18 1522.27 L1330.18 1532.4 L1342.25 1532.4 L1342.25 1536.95 L1330.18 1536.95 L1330.18 1556.3 Q1330.18 1560.66 1331.36 1561.9 Q1332.57 1563.14 1336.23 1563.14 L1342.25 1563.14 L1342.25 1568.04 L1336.23 1568.04 Q1329.45 1568.04 1326.87 1565.53 Q1324.29 1562.98 1324.29 1556.3 L1324.29 1536.95 L1320 1536.95 L1320 1532.4 L1324.29 1532.4 L1324.29 1522.27 L1330.18 1522.27 Z" fill="#000000" fill-rule="evenodd" fill-opacity="1" /><path clip-path="url(#clip420)" d="M1349.95 1532.4 L1355.8 1532.4 L1355.8 1568.04 L1349.95 1568.04 L1349.95 1532.4 M1349.95 1518.52 L1355.8 1518.52 L1355.8 1525.93 L1349.95 1525.93 L1349.95 1518.52 Z" fill="#000000" fill-rule="evenodd" fill-opacity="1" /><path clip-path="url(#clip420)" d="M1373.85 1522.27 L1373.85 1532.4 L1385.91 1532.4 L1385.91 1536.95 L1373.85 1536.95 L1373.85 1556.3 Q1373.85 1560.66 1375.03 1561.9 Q1376.24 1563.14 1379.9 1563.14 L1385.91 1563.14 L1385.91 1568.04 L1379.9 1568.04 Q1373.12 1568.04 1370.54 1565.53 Q1367.96 1562.98 1367.96 1556.3 L1367.96 1536.95 L1363.67 1536.95 L1363.67 1532.4 L1367.96 1532.4 L1367.96 1522.27 L1373.85 1522.27 Z" fill="#000000" fill-rule="evenodd" fill-opacity="1" /><path clip-path="url(#clip420)" d="M1408.45 1571.35 Q1405.97 1577.72 1403.61 1579.66 Q1401.26 1581.6 1397.31 1581.6 L1392.63 1581.6 L1392.63 1576.7 L1396.07 1576.7 Q1398.49 1576.7 1399.82 1575.56 Q1401.16 1574.41 1402.78 1570.14 L1403.83 1567.47 L1389.42 1532.4 L1395.62 1532.4 L1406.76 1560.28 L1417.9 1532.4 L1424.11 1532.4 L1408.45 1571.35 Z" fill="#000000" fill-rule="evenodd" fill-opacity="1" /><polyline clip-path="url(#clip422)" style="stroke:#000000; stroke-linecap:round; stroke-linejoin:round; stroke-width:2; stroke-opacity:0.1; fill:none" points="
  219.38,1384.24 2352.76,1384.24 
  "/>
<polyline clip-path="url(#clip422)" style="stroke:#000000; stroke-linecap:round; stroke-linejoin:round; stroke-width:2; stroke-opacity:0.1; fill:none" points="
  219.38,1125.15 2352.76,1125.15 
  "/>
<polyline clip-path="url(#clip422)" style="stroke:#000000; stroke-linecap:round; stroke-linejoin:round; stroke-width:2; stroke-opacity:0.1; fill:none" points="
  219.38,866.054 2352.76,866.054 
  "/>
<polyline clip-path="url(#clip422)" style="stroke:#000000; stroke-linecap:round; stroke-linejoin:round; stroke-width:2; stroke-opacity:0.1; fill:none" points="
  219.38,606.961 2352.76,606.961 
  "/>
<polyline clip-path="url(#clip422)" style="stroke:#000000; stroke-linecap:round; stroke-linejoin:round; stroke-width:2; stroke-opacity:0.1; fill:none" points="
  219.38,347.869 2352.76,347.869 
  "/>
<polyline clip-path="url(#clip422)" style="stroke:#000000; stroke-linecap:round; stroke-linejoin:round; stroke-width:2; stroke-opacity:0.1; fill:none" points="
  219.38,88.7766 2352.76,88.7766 
  "/>
<polyline clip-path="url(#clip420)" style="stroke:#000000; stroke-linecap:round; stroke-linejoin:round; stroke-width:4; stroke-opacity:1; fill:none" points="
  219.38,1423.18 219.38,47.2441 
  "/>
<polyline clip-path="url(#clip420)" style="stroke:#000000; stroke-linecap:round; stroke-linejoin:round; stroke-width:4; stroke-opacity:1; fill:none" points="
  219.38,1384.24 238.278,1384.24 
  "/>
<polyline clip-path="url(#clip420)" style="stroke:#000000; stroke-linecap:round; stroke-linejoin:round; stroke-width:4; stroke-opacity:1; fill:none" points="
  219.38,1125.15 238.278,1125.15 
  "/>
<polyline clip-path="url(#clip420)" style="stroke:#000000; stroke-linecap:round; stroke-linejoin:round; stroke-width:4; stroke-opacity:1; fill:none" points="
  219.38,866.054 238.278,866.054 
  "/>
<polyline clip-path="url(#clip420)" style="stroke:#000000; stroke-linecap:round; stroke-linejoin:round; stroke-width:4; stroke-opacity:1; fill:none" points="
  219.38,606.961 238.278,606.961 
  "/>
<polyline clip-path="url(#clip420)" style="stroke:#000000; stroke-linecap:round; stroke-linejoin:round; stroke-width:4; stroke-opacity:1; fill:none" points="
  219.38,347.869 238.278,347.869 
  "/>
<polyline clip-path="url(#clip420)" style="stroke:#000000; stroke-linecap:round; stroke-linejoin:round; stroke-width:4; stroke-opacity:1; fill:none" points="
  219.38,88.7766 238.278,88.7766 
  "/>
<path clip-path="url(#clip420)" d="M126.205 1370.04 Q122.593 1370.04 120.765 1373.6 Q118.959 1377.14 118.959 1384.27 Q118.959 1391.38 120.765 1394.94 Q122.593 1398.49 126.205 1398.49 Q129.839 1398.49 131.644 1394.94 Q133.473 1391.38 133.473 1384.27 Q133.473 1377.14 131.644 1373.6 Q129.839 1370.04 126.205 1370.04 M126.205 1366.33 Q132.015 1366.33 135.07 1370.94 Q138.149 1375.52 138.149 1384.27 Q138.149 1393 135.07 1397.61 Q132.015 1402.19 126.205 1402.19 Q120.394 1402.19 117.316 1397.61 Q114.26 1393 114.26 1384.27 Q114.26 1375.52 117.316 1370.94 Q120.394 1366.33 126.205 1366.33 Z" fill="#000000" fill-rule="evenodd" fill-opacity="1" /><path clip-path="url(#clip420)" d="M146.366 1395.64 L151.251 1395.64 L151.251 1401.52 L146.366 1401.52 L146.366 1395.64 Z" fill="#000000" fill-rule="evenodd" fill-opacity="1" /><path clip-path="url(#clip420)" d="M171.436 1370.04 Q167.825 1370.04 165.996 1373.6 Q164.19 1377.14 164.19 1384.27 Q164.19 1391.38 165.996 1394.94 Q167.825 1398.49 171.436 1398.49 Q175.07 1398.49 176.876 1394.94 Q178.704 1391.38 178.704 1384.27 Q178.704 1377.14 176.876 1373.6 Q175.07 1370.04 171.436 1370.04 M171.436 1366.33 Q177.246 1366.33 180.301 1370.94 Q183.38 1375.52 183.38 1384.27 Q183.38 1393 180.301 1397.61 Q177.246 1402.19 171.436 1402.19 Q165.626 1402.19 162.547 1397.61 Q159.491 1393 159.491 1384.27 Q159.491 1375.52 162.547 1370.94 Q165.626 1366.33 171.436 1366.33 Z" fill="#000000" fill-rule="evenodd" fill-opacity="1" /><path clip-path="url(#clip420)" d="M127.2 1110.94 Q123.589 1110.94 121.76 1114.51 Q119.955 1118.05 119.955 1125.18 Q119.955 1132.29 121.76 1135.85 Q123.589 1139.39 127.2 1139.39 Q130.834 1139.39 132.64 1135.85 Q134.468 1132.29 134.468 1125.18 Q134.468 1118.05 132.64 1114.51 Q130.834 1110.94 127.2 1110.94 M127.2 1107.24 Q133.01 1107.24 136.066 1111.85 Q139.144 1116.43 139.144 1125.18 Q139.144 1133.91 136.066 1138.51 Q133.01 1143.1 127.2 1143.1 Q121.39 1143.1 118.311 1138.51 Q115.256 1133.91 115.256 1125.18 Q115.256 1116.43 118.311 1111.85 Q121.39 1107.24 127.2 1107.24 Z" fill="#000000" fill-rule="evenodd" fill-opacity="1" /><path clip-path="url(#clip420)" d="M147.362 1136.55 L152.246 1136.55 L152.246 1142.43 L147.362 1142.43 L147.362 1136.55 Z" fill="#000000" fill-rule="evenodd" fill-opacity="1" /><path clip-path="url(#clip420)" d="M162.477 1107.87 L180.834 1107.87 L180.834 1111.8 L166.76 1111.8 L166.76 1120.27 Q167.778 1119.93 168.797 1119.76 Q169.815 1119.58 170.834 1119.58 Q176.621 1119.58 180.001 1122.75 Q183.38 1125.92 183.38 1131.34 Q183.38 1136.92 179.908 1140.02 Q176.436 1143.1 170.116 1143.1 Q167.94 1143.1 165.672 1142.73 Q163.427 1142.36 161.019 1141.62 L161.019 1136.92 Q163.102 1138.05 165.325 1138.61 Q167.547 1139.16 170.024 1139.16 Q174.028 1139.16 176.366 1137.06 Q178.704 1134.95 178.704 1131.34 Q178.704 1127.73 176.366 1125.62 Q174.028 1123.51 170.024 1123.51 Q168.149 1123.51 166.274 1123.93 Q164.422 1124.35 162.477 1125.23 L162.477 1107.87 Z" fill="#000000" fill-rule="evenodd" fill-opacity="1" /><path clip-path="url(#clip420)" d="M117.015 879.398 L124.654 879.398 L124.654 853.033 L116.343 854.699 L116.343 850.44 L124.607 848.774 L129.283 848.774 L129.283 879.398 L136.922 879.398 L136.922 883.334 L117.015 883.334 L117.015 879.398 Z" fill="#000000" fill-rule="evenodd" fill-opacity="1" /><path clip-path="url(#clip420)" d="M146.366 877.454 L151.251 877.454 L151.251 883.334 L146.366 883.334 L146.366 877.454 Z" fill="#000000" fill-rule="evenodd" fill-opacity="1" /><path clip-path="url(#clip420)" d="M171.436 851.852 Q167.825 851.852 165.996 855.417 Q164.19 858.959 164.19 866.088 Q164.19 873.195 165.996 876.76 Q167.825 880.301 171.436 880.301 Q175.07 880.301 176.876 876.76 Q178.704 873.195 178.704 866.088 Q178.704 858.959 176.876 855.417 Q175.07 851.852 171.436 851.852 M171.436 848.149 Q177.246 848.149 180.301 852.755 Q183.38 857.338 183.38 866.088 Q183.38 874.815 180.301 879.422 Q177.246 884.005 171.436 884.005 Q165.626 884.005 162.547 879.422 Q159.491 874.815 159.491 866.088 Q159.491 857.338 162.547 852.755 Q165.626 848.149 171.436 848.149 Z" fill="#000000" fill-rule="evenodd" fill-opacity="1" /><path clip-path="url(#clip420)" d="M118.01 620.306 L125.649 620.306 L125.649 593.94 L117.339 595.607 L117.339 591.348 L125.603 589.681 L130.279 589.681 L130.279 620.306 L137.917 620.306 L137.917 624.241 L118.01 624.241 L118.01 620.306 Z" fill="#000000" fill-rule="evenodd" fill-opacity="1" /><path clip-path="url(#clip420)" d="M147.362 618.362 L152.246 618.362 L152.246 624.241 L147.362 624.241 L147.362 618.362 Z" fill="#000000" fill-rule="evenodd" fill-opacity="1" /><path clip-path="url(#clip420)" d="M162.477 589.681 L180.834 589.681 L180.834 593.616 L166.76 593.616 L166.76 602.089 Q167.778 601.741 168.797 601.579 Q169.815 601.394 170.834 601.394 Q176.621 601.394 180.001 604.565 Q183.38 607.737 183.38 613.153 Q183.38 618.732 179.908 621.834 Q176.436 624.913 170.116 624.913 Q167.94 624.913 165.672 624.542 Q163.427 624.172 161.019 623.431 L161.019 618.732 Q163.102 619.866 165.325 620.422 Q167.547 620.977 170.024 620.977 Q174.028 620.977 176.366 618.871 Q178.704 616.764 178.704 613.153 Q178.704 609.542 176.366 607.436 Q174.028 605.329 170.024 605.329 Q168.149 605.329 166.274 605.746 Q164.422 606.163 162.477 607.042 L162.477 589.681 Z" fill="#000000" fill-rule="evenodd" fill-opacity="1" /><path clip-path="url(#clip420)" d="M120.232 361.214 L136.552 361.214 L136.552 365.149 L114.607 365.149 L114.607 361.214 Q117.269 358.459 121.853 353.83 Q126.459 349.177 127.64 347.834 Q129.885 345.311 130.765 343.575 Q131.667 341.816 131.667 340.126 Q131.667 337.371 129.723 335.635 Q127.802 333.899 124.7 333.899 Q122.501 333.899 120.047 334.663 Q117.617 335.427 114.839 336.978 L114.839 332.256 Q117.663 331.121 120.117 330.543 Q122.57 329.964 124.607 329.964 Q129.978 329.964 133.172 332.649 Q136.367 335.334 136.367 339.825 Q136.367 341.955 135.556 343.876 Q134.769 345.774 132.663 348.367 Q132.084 349.038 128.982 352.255 Q125.88 355.45 120.232 361.214 Z" fill="#000000" fill-rule="evenodd" fill-opacity="1" /><path clip-path="url(#clip420)" d="M146.366 359.269 L151.251 359.269 L151.251 365.149 L146.366 365.149 L146.366 359.269 Z" fill="#000000" fill-rule="evenodd" fill-opacity="1" /><path clip-path="url(#clip420)" d="M171.436 333.668 Q167.825 333.668 165.996 337.232 Q164.19 340.774 164.19 347.904 Q164.19 355.01 165.996 358.575 Q167.825 362.117 171.436 362.117 Q175.07 362.117 176.876 358.575 Q178.704 355.01 178.704 347.904 Q178.704 340.774 176.876 337.232 Q175.07 333.668 171.436 333.668 M171.436 329.964 Q177.246 329.964 180.301 334.57 Q183.38 339.154 183.38 347.904 Q183.38 356.63 180.301 361.237 Q177.246 365.82 171.436 365.82 Q165.626 365.82 162.547 361.237 Q159.491 356.63 159.491 347.904 Q159.491 339.154 162.547 334.57 Q165.626 329.964 171.436 329.964 Z" fill="#000000" fill-rule="evenodd" fill-opacity="1" /><path clip-path="url(#clip420)" d="M121.228 102.121 L137.547 102.121 L137.547 106.057 L115.603 106.057 L115.603 102.121 Q118.265 99.3668 122.848 94.7372 Q127.455 90.0845 128.635 88.7419 Q130.88 86.2187 131.76 84.4826 Q132.663 82.7234 132.663 81.0336 Q132.663 78.279 130.718 76.5429 Q128.797 74.8068 125.695 74.8068 Q123.496 74.8068 121.043 75.5706 Q118.612 76.3345 115.834 77.8855 L115.834 73.1633 Q118.658 72.029 121.112 71.4503 Q123.566 70.8716 125.603 70.8716 Q130.973 70.8716 134.167 73.5568 Q137.362 76.2419 137.362 80.7327 Q137.362 82.8623 136.552 84.7836 Q135.765 86.6817 133.658 89.2743 Q133.08 89.9456 129.978 93.1631 Q126.876 96.3576 121.228 102.121 Z" fill="#000000" fill-rule="evenodd" fill-opacity="1" /><path clip-path="url(#clip420)" d="M147.362 100.177 L152.246 100.177 L152.246 106.057 L147.362 106.057 L147.362 100.177 Z" fill="#000000" fill-rule="evenodd" fill-opacity="1" /><path clip-path="url(#clip420)" d="M162.477 71.4966 L180.834 71.4966 L180.834 75.4318 L166.76 75.4318 L166.76 83.9039 Q167.778 83.5567 168.797 83.3947 Q169.815 83.2095 170.834 83.2095 Q176.621 83.2095 180.001 86.3808 Q183.38 89.5521 183.38 94.9687 Q183.38 100.547 179.908 103.649 Q176.436 106.728 170.116 106.728 Q167.94 106.728 165.672 106.358 Q163.427 105.987 161.019 105.246 L161.019 100.547 Q163.102 101.682 165.325 102.237 Q167.547 102.793 170.024 102.793 Q174.028 102.793 176.366 100.686 Q178.704 98.5798 178.704 94.9687 Q178.704 91.3576 176.366 89.2511 Q174.028 87.1447 170.024 87.1447 Q168.149 87.1447 166.274 87.5613 Q164.422 87.978 162.477 88.8576 L162.477 71.4966 Z" fill="#000000" fill-rule="evenodd" fill-opacity="1" /><path clip-path="url(#clip420)" d="M21.7677 896.901 L39.6235 896.901 L39.6235 888.816 Q39.6235 884.329 37.3 881.878 Q34.9765 879.427 30.6797 879.427 Q26.4147 879.427 24.0912 881.878 Q21.7677 884.329 21.7677 888.816 L21.7677 896.901 M16.4842 903.33 L16.4842 888.816 Q16.4842 880.828 20.1126 876.753 Q23.7092 872.648 30.6797 872.648 Q37.7138 872.648 41.3104 876.753 Q44.907 880.828 44.907 888.816 L44.907 896.901 L64.0042 896.901 L64.0042 903.33 L16.4842 903.33 Z" fill="#000000" fill-rule="evenodd" fill-opacity="1" /><path clip-path="url(#clip420)" d="M33.8307 844.766 Q33.2578 845.752 33.0032 846.93 Q32.7167 848.076 32.7167 849.476 Q32.7167 854.442 35.9632 857.115 Q39.1779 859.757 45.2253 859.757 L64.0042 859.757 L64.0042 865.645 L28.3562 865.645 L28.3562 859.757 L33.8944 859.757 Q30.6479 857.911 29.0883 854.951 Q27.4968 851.991 27.4968 847.758 Q27.4968 847.153 27.5923 846.421 Q27.656 845.689 27.8151 844.798 L33.8307 844.766 Z" fill="#000000" fill-rule="evenodd" fill-opacity="1" /><path clip-path="url(#clip420)" d="M32.4621 826.242 Q32.4621 830.952 36.1542 833.689 Q39.8145 836.427 46.212 836.427 Q52.6095 836.427 56.3017 833.721 Q59.9619 830.984 59.9619 826.242 Q59.9619 821.563 56.2698 818.826 Q52.5777 816.088 46.212 816.088 Q39.8781 816.088 36.186 818.826 Q32.4621 821.563 32.4621 826.242 M27.4968 826.242 Q27.4968 818.603 32.4621 814.242 Q37.4273 809.882 46.212 809.882 Q54.9649 809.882 59.9619 814.242 Q64.9272 818.603 64.9272 826.242 Q64.9272 833.912 59.9619 838.273 Q54.9649 842.601 46.212 842.601 Q37.4273 842.601 32.4621 838.273 Q27.4968 833.912 27.4968 826.242 Z" fill="#000000" fill-rule="evenodd" fill-opacity="1" /><path clip-path="url(#clip420)" d="M46.212 774.584 Q39.7508 774.584 36.0905 777.257 Q32.3984 779.899 32.3984 784.546 Q32.3984 789.193 36.0905 791.867 Q39.7508 794.509 46.212 794.509 Q52.6732 794.509 56.3653 791.867 Q60.0256 789.193 60.0256 784.546 Q60.0256 779.899 56.3653 777.257 Q52.6732 774.584 46.212 774.584 M33.7671 794.509 Q30.5842 792.662 29.0564 789.862 Q27.4968 787.029 27.4968 783.114 Q27.4968 776.621 32.6531 772.579 Q37.8093 768.505 46.212 768.505 Q54.6147 768.505 59.771 772.579 Q64.9272 776.621 64.9272 783.114 Q64.9272 787.029 63.3994 789.862 Q61.8398 792.662 58.657 794.509 L64.0042 794.509 L64.0042 800.397 L14.479 800.397 L14.479 794.509 L33.7671 794.509 Z" fill="#000000" fill-rule="evenodd" fill-opacity="1" /><path clip-path="url(#clip420)" d="M46.0847 742.596 Q46.0847 749.694 47.7079 752.431 Q49.3312 755.168 53.2461 755.168 Q56.3653 755.168 58.2114 753.131 Q60.0256 751.063 60.0256 747.53 Q60.0256 742.66 56.5881 739.732 Q53.1188 736.772 47.3897 736.772 L46.0847 736.772 L46.0847 742.596 M43.6657 730.915 L64.0042 730.915 L64.0042 736.772 L58.5933 736.772 Q61.8398 738.777 63.3994 741.769 Q64.9272 744.761 64.9272 749.089 Q64.9272 754.564 61.8716 757.81 Q58.7843 761.025 53.6281 761.025 Q47.6125 761.025 44.5569 757.015 Q41.5014 752.972 41.5014 744.983 L41.5014 736.772 L40.9285 736.772 Q36.8862 736.772 34.6901 739.445 Q32.4621 742.087 32.4621 746.893 Q32.4621 749.949 33.1941 752.845 Q33.9262 755.741 35.3903 758.415 L29.9795 758.415 Q28.7381 755.2 28.1334 752.177 Q27.4968 749.153 27.4968 746.288 Q27.4968 738.554 31.5072 734.735 Q35.5176 730.915 43.6657 730.915 Z" fill="#000000" fill-rule="evenodd" fill-opacity="1" /><path clip-path="url(#clip420)" d="M46.212 693.262 Q39.7508 693.262 36.0905 695.936 Q32.3984 698.577 32.3984 703.224 Q32.3984 707.871 36.0905 710.545 Q39.7508 713.187 46.212 713.187 Q52.6732 713.187 56.3653 710.545 Q60.0256 707.871 60.0256 703.224 Q60.0256 698.577 56.3653 695.936 Q52.6732 693.262 46.212 693.262 M33.7671 713.187 Q30.5842 711.341 29.0564 708.54 Q27.4968 705.707 27.4968 701.792 Q27.4968 695.299 32.6531 691.257 Q37.8093 687.183 46.212 687.183 Q54.6147 687.183 59.771 691.257 Q64.9272 695.299 64.9272 701.792 Q64.9272 705.707 63.3994 708.54 Q61.8398 711.341 58.657 713.187 L64.0042 713.187 L64.0042 719.075 L14.479 719.075 L14.479 713.187 L33.7671 713.187 Z" fill="#000000" fill-rule="evenodd" fill-opacity="1" /><path clip-path="url(#clip420)" d="M28.3562 677.475 L28.3562 671.619 L64.0042 671.619 L64.0042 677.475 L28.3562 677.475 M14.479 677.475 L14.479 671.619 L21.895 671.619 L21.895 677.475 L14.479 677.475 Z" fill="#000000" fill-rule="evenodd" fill-opacity="1" /><path clip-path="url(#clip420)" d="M14.479 659.365 L14.479 653.508 L64.0042 653.508 L64.0042 659.365 L14.479 659.365 Z" fill="#000000" fill-rule="evenodd" fill-opacity="1" /><path clip-path="url(#clip420)" d="M28.3562 641.254 L28.3562 635.398 L64.0042 635.398 L64.0042 641.254 L28.3562 641.254 M14.479 641.254 L14.479 635.398 L21.895 635.398 L21.895 641.254 L14.479 641.254 Z" fill="#000000" fill-rule="evenodd" fill-opacity="1" /><path clip-path="url(#clip420)" d="M18.2347 617.351 L28.3562 617.351 L28.3562 605.288 L32.9077 605.288 L32.9077 617.351 L52.2594 617.351 Q56.6199 617.351 57.8613 616.173 Q59.1026 614.964 59.1026 611.303 L59.1026 605.288 L64.0042 605.288 L64.0042 611.303 Q64.0042 618.083 61.4897 620.661 Q58.9434 623.239 52.2594 623.239 L32.9077 623.239 L32.9077 627.536 L28.3562 627.536 L28.3562 623.239 L18.2347 623.239 L18.2347 617.351 Z" fill="#000000" fill-rule="evenodd" fill-opacity="1" /><path clip-path="url(#clip420)" d="M67.3143 582.753 Q73.68 585.236 75.6216 587.591 Q77.5631 589.947 77.5631 593.893 L77.5631 598.572 L72.6615 598.572 L72.6615 595.135 Q72.6615 592.716 71.5157 591.379 Q70.3699 590.042 66.1048 588.419 L63.4312 587.368 L28.3562 601.787 L28.3562 595.58 L56.238 584.44 L28.3562 573.3 L28.3562 567.094 L67.3143 582.753 Z" fill="#000000" fill-rule="evenodd" fill-opacity="1" /><path clip-path="url(#clip422)" d="
M336.72 86.1857 L336.72 1384.24 L574.057 1384.24 L574.057 86.1857 L336.72 86.1857 L336.72 86.1857  Z
  " fill="#000000" fill-rule="evenodd" fill-opacity="1"/>
<polyline clip-path="url(#clip422)" style="stroke:#000000; stroke-linecap:round; stroke-linejoin:round; stroke-width:4; stroke-opacity:1; fill:none" points="
  336.72,86.1857 336.72,1384.24 574.057,1384.24 574.057,86.1857 336.72,86.1857 
  "/>
<path clip-path="url(#clip422)" d="
M574.057 1384.24 L574.057 1384.24 L811.394 1384.24 L811.394 1384.24 L574.057 1384.24 L574.057 1384.24  Z
  " fill="#000000" fill-rule="evenodd" fill-opacity="1"/>
<polyline clip-path="url(#clip422)" style="stroke:#000000; stroke-linecap:round; stroke-linejoin:round; stroke-width:4; stroke-opacity:1; fill:none" points="
  574.057,1384.24 574.057,1384.24 811.394,1384.24 574.057,1384.24 
  "/>
<path clip-path="url(#clip422)" d="
M811.394 1358.33 L811.394 1384.24 L1048.73 1384.24 L1048.73 1358.33 L811.394 1358.33 L811.394 1358.33  Z
  " fill="#000000" fill-rule="evenodd" fill-opacity="1"/>
<polyline clip-path="url(#clip422)" style="stroke:#000000; stroke-linecap:round; stroke-linejoin:round; stroke-width:4; stroke-opacity:1; fill:none" points="
  811.394,1358.33 811.394,1384.24 1048.73,1384.24 1048.73,1358.33 811.394,1358.33 
  "/>
<path clip-path="url(#clip422)" d="
M1048.73 1189.92 L1048.73 1384.24 L1286.07 1384.24 L1286.07 1189.92 L1048.73 1189.92 L1048.73 1189.92  Z
  " fill="#000000" fill-rule="evenodd" fill-opacity="1"/>
<polyline clip-path="url(#clip422)" style="stroke:#000000; stroke-linecap:round; stroke-linejoin:round; stroke-width:4; stroke-opacity:1; fill:none" points="
  1048.73,1189.92 1048.73,1384.24 1286.07,1384.24 1286.07,1189.92 1048.73,1189.92 
  "/>
<path clip-path="url(#clip422)" d="
M1286.07 790.917 L1286.07 1384.24 L1523.41 1384.24 L1523.41 790.917 L1286.07 790.917 L1286.07 790.917  Z
  " fill="#000000" fill-rule="evenodd" fill-opacity="1"/>
<polyline clip-path="url(#clip422)" style="stroke:#000000; stroke-linecap:round; stroke-linejoin:round; stroke-width:4; stroke-opacity:1; fill:none" points="
  1286.07,790.917 1286.07,1384.24 1523.41,1384.24 1523.41,790.917 1286.07,790.917 
  "/>
<path clip-path="url(#clip422)" d="
M1523.41 956.736 L1523.41 1384.24 L1760.74 1384.24 L1760.74 956.736 L1523.41 956.736 L1523.41 956.736  Z
  " fill="#000000" fill-rule="evenodd" fill-opacity="1"/>
<polyline clip-path="url(#clip422)" style="stroke:#000000; stroke-linecap:round; stroke-linejoin:round; stroke-width:4; stroke-opacity:1; fill:none" points="
  1523.41,956.736 1523.41,1384.24 1760.74,1384.24 1760.74,956.736 1523.41,956.736 
  "/>
<path clip-path="url(#clip422)" d="
M1760.74 1337.6 L1760.74 1384.24 L1998.08 1384.24 L1998.08 1337.6 L1760.74 1337.6 L1760.74 1337.6  Z
  " fill="#000000" fill-rule="evenodd" fill-opacity="1"/>
<polyline clip-path="url(#clip422)" style="stroke:#000000; stroke-linecap:round; stroke-linejoin:round; stroke-width:4; stroke-opacity:1; fill:none" points="
  1760.74,1337.6 1760.74,1384.24 1998.08,1384.24 1998.08,1337.6 1760.74,1337.6 
  "/>
<path clip-path="url(#clip422)" d="
M1998.08 1379.06 L1998.08 1384.24 L2235.42 1384.24 L2235.42 1379.06 L1998.08 1379.06 L1998.08 1379.06  Z
  " fill="#000000" fill-rule="evenodd" fill-opacity="1"/>
<polyline clip-path="url(#clip422)" style="stroke:#000000; stroke-linecap:round; stroke-linejoin:round; stroke-width:4; stroke-opacity:1; fill:none" points="
  1998.08,1379.06 1998.08,1384.24 2235.42,1384.24 2235.42,1379.06 1998.08,1379.06 
  "/>
<circle clip-path="url(#clip422)" style="fill:#000000; stroke:none; fill-opacity:0" cx="455.388" cy="86.1857" r="2"/>
<circle clip-path="url(#clip422)" style="fill:#000000; stroke:none; fill-opacity:0" cx="692.725" cy="1384.24" r="2"/>
<circle clip-path="url(#clip422)" style="fill:#000000; stroke:none; fill-opacity:0" cx="930.062" cy="1358.33" r="2"/>
<circle clip-path="url(#clip422)" style="fill:#000000; stroke:none; fill-opacity:0" cx="1167.4" cy="1189.92" r="2"/>
<circle clip-path="url(#clip422)" style="fill:#000000; stroke:none; fill-opacity:0" cx="1404.74" cy="790.917" r="2"/>
<circle clip-path="url(#clip422)" style="fill:#000000; stroke:none; fill-opacity:0" cx="1642.07" cy="956.736" r="2"/>
<circle clip-path="url(#clip422)" style="fill:#000000; stroke:none; fill-opacity:0" cx="1879.41" cy="1337.6" r="2"/>
<circle clip-path="url(#clip422)" style="fill:#000000; stroke:none; fill-opacity:0" cx="2116.75" cy="1379.06" r="2"/>
<path clip-path="url(#clip420)" d="
M1985.37 196.789 L2281.64 196.789 L2281.64 93.1086 L1985.37 93.1086  Z
  " fill="#ffffff" fill-rule="evenodd" fill-opacity="1"/>
<polyline clip-path="url(#clip420)" style="stroke:#000000; stroke-linecap:round; stroke-linejoin:round; stroke-width:4; stroke-opacity:1; fill:none" points="
  1985.37,196.789 2281.64,196.789 2281.64,93.1086 1985.37,93.1086 1985.37,196.789 
  "/>
<path clip-path="url(#clip420)" d="
M2009.07 165.685 L2151.3 165.685 L2151.3 124.213 L2009.07 124.213 L2009.07 165.685  Z
  " fill="#000000" fill-rule="evenodd" fill-opacity="1"/>
<polyline clip-path="url(#clip420)" style="stroke:#000000; stroke-linecap:round; stroke-linejoin:round; stroke-width:4; stroke-opacity:1; fill:none" points="
  2009.07,165.685 2151.3,165.685 2151.3,124.213 2009.07,124.213 2009.07,165.685 
  "/>
<path clip-path="url(#clip420)" d="M2188.4 149.196 Q2183.24 149.196 2181.25 150.377 Q2179.26 151.557 2179.26 154.405 Q2179.26 156.673 2180.74 158.016 Q2182.25 159.335 2184.81 159.335 Q2188.36 159.335 2190.49 156.835 Q2192.64 154.312 2192.64 150.145 L2192.64 149.196 L2188.4 149.196 M2196.9 147.437 L2196.9 162.229 L2192.64 162.229 L2192.64 158.293 Q2191.18 160.655 2189 161.789 Q2186.83 162.9 2183.68 162.9 Q2179.7 162.9 2177.34 160.678 Q2175 158.432 2175 154.682 Q2175 150.307 2177.92 148.085 Q2180.86 145.863 2186.67 145.863 L2192.64 145.863 L2192.64 145.446 Q2192.64 142.507 2190.69 140.909 Q2188.77 139.289 2185.28 139.289 Q2183.06 139.289 2180.95 139.821 Q2178.84 140.354 2176.9 141.419 L2176.9 137.483 Q2179.24 136.581 2181.43 136.141 Q2183.63 135.678 2185.72 135.678 Q2191.34 135.678 2194.12 138.594 Q2196.9 141.511 2196.9 147.437 Z" fill="#000000" fill-rule="evenodd" fill-opacity="1" /><path clip-path="url(#clip420)" d="M2222.73 148.965 Q2222.73 144.335 2220.81 141.789 Q2218.91 139.243 2215.46 139.243 Q2212.04 139.243 2210.12 141.789 Q2208.22 144.335 2208.22 148.965 Q2208.22 153.571 2210.12 156.118 Q2212.04 158.664 2215.46 158.664 Q2218.91 158.664 2220.81 156.118 Q2222.73 153.571 2222.73 148.965 M2226.99 159.011 Q2226.99 165.631 2224.05 168.849 Q2221.11 172.09 2215.05 172.09 Q2212.8 172.09 2210.81 171.742 Q2208.82 171.418 2206.94 170.724 L2206.94 166.58 Q2208.82 167.599 2210.65 168.085 Q2212.48 168.571 2214.37 168.571 Q2218.56 168.571 2220.65 166.372 Q2222.73 164.196 2222.73 159.775 L2222.73 157.668 Q2221.41 159.96 2219.35 161.094 Q2217.29 162.229 2214.42 162.229 Q2209.65 162.229 2206.74 158.594 Q2203.82 154.96 2203.82 148.965 Q2203.82 142.946 2206.74 139.312 Q2209.65 135.678 2214.42 135.678 Q2217.29 135.678 2219.35 136.812 Q2221.41 137.946 2222.73 140.238 L2222.73 136.303 L2226.99 136.303 L2226.99 159.011 Z" fill="#000000" fill-rule="evenodd" fill-opacity="1" /><path clip-path="url(#clip420)" d="M2257.94 148.201 L2257.94 150.284 L2238.36 150.284 Q2238.63 154.682 2240.99 156.997 Q2243.38 159.289 2247.62 159.289 Q2250.07 159.289 2252.36 158.687 Q2254.68 158.085 2256.94 156.881 L2256.94 160.909 Q2254.65 161.881 2252.24 162.391 Q2249.84 162.9 2247.36 162.9 Q2241.16 162.9 2237.52 159.289 Q2233.91 155.678 2233.91 149.52 Q2233.91 143.155 2237.34 139.428 Q2240.79 135.678 2246.62 135.678 Q2251.85 135.678 2254.88 139.057 Q2257.94 142.414 2257.94 148.201 M2253.68 146.951 Q2253.63 143.456 2251.71 141.372 Q2249.81 139.289 2246.67 139.289 Q2243.1 139.289 2240.95 141.303 Q2238.82 143.317 2238.49 146.974 L2253.68 146.951 Z" fill="#000000" fill-rule="evenodd" fill-opacity="1" /></svg>
