<?xml version="1.0" encoding="utf-8"?>
<svg xmlns="http://www.w3.org/2000/svg" xmlns:xlink="http://www.w3.org/1999/xlink" width="672" height="480" viewBox="0 0 2688 1920">
<defs>
  <clipPath id="clip950">
    <rect x="0" y="0" width="2688" height="1920"/>
  </clipPath>
</defs>
<path clip-path="url(#clip950)" d="
M0 1920 L2688 1920 L2688 0 L0 0  Z
  " fill="#ffffff" fill-rule="evenodd" fill-opacity="1"/>
<defs>
  <clipPath id="clip951">
    <rect x="537" y="0" width="1883" height="1883"/>
  </clipPath>
</defs>
<path clip-path="url(#clip950)" d="
M225.654 1734.12 L2640.76 1734.12 L2640.76 47.2441 L225.654 47.2441  Z
  " fill="#ffffff" fill-rule="evenodd" fill-opacity="1"/>
<defs>
  <clipPath id="clip952">
    <rect x="225" y="47" width="2416" height="1688"/>
  </clipPath>
</defs>
<polyline clip-path="url(#clip952)" style="stroke:#000000; stroke-linecap:round; stroke-linejoin:round; stroke-width:2; stroke-opacity:0.1; fill:none" points="
  358.489,1734.12 358.489,47.2441 
  "/>
<polyline clip-path="url(#clip952)" style="stroke:#000000; stroke-linecap:round; stroke-linejoin:round; stroke-width:2; stroke-opacity:0.1; fill:none" points="
  1030.19,1734.12 1030.19,47.2441 
  "/>
<polyline clip-path="url(#clip952)" style="stroke:#000000; stroke-linecap:round; stroke-linejoin:round; stroke-width:2; stroke-opacity:0.1; fill:none" points="
  1701.88,1734.12 1701.88,47.2441 
  "/>
<polyline clip-path="url(#clip952)" style="stroke:#000000; stroke-linecap:round; stroke-linejoin:round; stroke-width:2; stroke-opacity:0.1; fill:none" points="
  2373.58,1734.12 2373.58,47.2441 
  "/>
<polyline clip-path="url(#clip950)" style="stroke:#000000; stroke-linecap:round; stroke-linejoin:round; stroke-width:4; stroke-opacity:1; fill:none" points="
  225.654,1734.12 2640.76,1734.12 
  "/>
<polyline clip-path="url(#clip950)" style="stroke:#000000; stroke-linecap:round; stroke-linejoin:round; stroke-width:4; stroke-opacity:1; fill:none" points="
  358.489,1734.12 358.489,1715.22 
  "/>
<polyline clip-path="url(#clip950)" style="stroke:#000000; stroke-linecap:round; stroke-linejoin:round; stroke-width:4; stroke-opacity:1; fill:none" points="
  1030.19,1734.12 1030.19,1715.22 
  "/>
<polyline clip-path="url(#clip950)" style="stroke:#000000; stroke-linecap:round; stroke-linejoin:round; stroke-width:4; stroke-opacity:1; fill:none" points="
  1701.88,1734.12 1701.88,1715.22 
  "/>
<polyline clip-path="url(#clip950)" style="stroke:#000000; stroke-linecap:round; stroke-linejoin:round; stroke-width:4; stroke-opacity:1; fill:none" points="
  2373.58,1734.12 2373.58,1715.22 
  "/>
<path clip-path="url(#clip950)" d="M335.874 1767.34 Q332.263 1767.34 330.434 1770.9 Q328.628 1774.45 328.628 1781.58 Q328.628 1788.68 330.434 1792.25 Q332.263 1795.79 335.874 1795.79 Q339.508 1795.79 341.313 1792.25 Q343.142 1788.68 343.142 1781.58 Q343.142 1774.45 341.313 1770.9 Q339.508 1767.34 335.874 1767.34 M335.874 1763.64 Q341.684 1763.64 344.739 1768.24 Q347.818 1772.83 347.818 1781.58 Q347.818 1790.3 344.739 1794.91 Q341.684 1799.49 335.874 1799.49 Q330.064 1799.49 326.985 1794.91 Q323.929 1790.3 323.929 1781.58 Q323.929 1772.83 326.985 1768.24 Q330.064 1763.64 335.874 1763.64 Z" fill="#000000" fill-rule="evenodd" fill-opacity="1" /><path clip-path="url(#clip950)" d="M356.036 1792.94 L360.92 1792.94 L360.92 1798.82 L356.036 1798.82 L356.036 1792.94 Z" fill="#000000" fill-rule="evenodd" fill-opacity="1" /><path clip-path="url(#clip950)" d="M381.105 1767.34 Q377.494 1767.34 375.665 1770.9 Q373.86 1774.45 373.86 1781.58 Q373.86 1788.68 375.665 1792.25 Q377.494 1795.79 381.105 1795.79 Q384.739 1795.79 386.545 1792.25 Q388.373 1788.68 388.373 1781.58 Q388.373 1774.45 386.545 1770.9 Q384.739 1767.34 381.105 1767.34 M381.105 1763.64 Q386.915 1763.64 389.971 1768.24 Q393.049 1772.83 393.049 1781.58 Q393.049 1790.3 389.971 1794.91 Q386.915 1799.49 381.105 1799.49 Q375.295 1799.49 372.216 1794.91 Q369.161 1790.3 369.161 1781.58 Q369.161 1772.83 372.216 1768.24 Q375.295 1763.64 381.105 1763.64 Z" fill="#000000" fill-rule="evenodd" fill-opacity="1" /><path clip-path="url(#clip950)" d="M1008.07 1767.34 Q1004.46 1767.34 1002.63 1770.9 Q1000.82 1774.45 1000.82 1781.58 Q1000.82 1788.68 1002.63 1792.25 Q1004.46 1795.79 1008.07 1795.79 Q1011.7 1795.79 1013.51 1792.25 Q1015.34 1788.68 1015.34 1781.58 Q1015.34 1774.45 1013.51 1770.9 Q1011.7 1767.34 1008.07 1767.34 M1008.07 1763.64 Q1013.88 1763.64 1016.93 1768.24 Q1020.01 1772.83 1020.01 1781.58 Q1020.01 1790.3 1016.93 1794.91 Q1013.88 1799.49 1008.07 1799.49 Q1002.26 1799.49 999.18 1794.91 Q996.124 1790.3 996.124 1781.58 Q996.124 1772.83 999.18 1768.24 Q1002.26 1763.64 1008.07 1763.64 Z" fill="#000000" fill-rule="evenodd" fill-opacity="1" /><path clip-path="url(#clip950)" d="M1028.23 1792.94 L1033.11 1792.94 L1033.11 1798.82 L1028.23 1798.82 L1028.23 1792.94 Z" fill="#000000" fill-rule="evenodd" fill-opacity="1" /><path clip-path="url(#clip950)" d="M1043.35 1764.26 L1061.7 1764.26 L1061.7 1768.2 L1047.63 1768.2 L1047.63 1776.67 Q1048.65 1776.32 1049.67 1776.16 Q1050.68 1775.97 1051.7 1775.97 Q1057.49 1775.97 1060.87 1779.15 Q1064.25 1782.32 1064.25 1787.73 Q1064.25 1793.31 1060.78 1796.41 Q1057.3 1799.49 1050.99 1799.49 Q1048.81 1799.49 1046.54 1799.12 Q1044.3 1798.75 1041.89 1798.01 L1041.89 1793.31 Q1043.97 1794.45 1046.19 1795 Q1048.42 1795.56 1050.89 1795.56 Q1054.9 1795.56 1057.24 1793.45 Q1059.57 1791.34 1059.57 1787.73 Q1059.57 1784.12 1057.24 1782.02 Q1054.9 1779.91 1050.89 1779.91 Q1049.02 1779.91 1047.14 1780.33 Q1045.29 1780.74 1043.35 1781.62 L1043.35 1764.26 Z" fill="#000000" fill-rule="evenodd" fill-opacity="1" /><path clip-path="url(#clip950)" d="M1669.04 1794.89 L1676.68 1794.89 L1676.68 1768.52 L1668.37 1770.19 L1668.37 1765.93 L1676.63 1764.26 L1681.31 1764.26 L1681.31 1794.89 L1688.94 1794.89 L1688.94 1798.82 L1669.04 1798.82 L1669.04 1794.89 Z" fill="#000000" fill-rule="evenodd" fill-opacity="1" /><path clip-path="url(#clip950)" d="M1698.39 1792.94 L1703.27 1792.94 L1703.27 1798.82 L1698.39 1798.82 L1698.39 1792.94 Z" fill="#000000" fill-rule="evenodd" fill-opacity="1" /><path clip-path="url(#clip950)" d="M1723.46 1767.34 Q1719.85 1767.34 1718.02 1770.9 Q1716.21 1774.45 1716.21 1781.58 Q1716.21 1788.68 1718.02 1792.25 Q1719.85 1795.79 1723.46 1795.79 Q1727.09 1795.79 1728.9 1792.25 Q1730.73 1788.68 1730.73 1781.58 Q1730.73 1774.45 1728.9 1770.9 Q1727.09 1767.34 1723.46 1767.34 M1723.46 1763.64 Q1729.27 1763.64 1732.32 1768.24 Q1735.4 1772.83 1735.4 1781.58 Q1735.4 1790.3 1732.32 1794.91 Q1729.27 1799.49 1723.46 1799.49 Q1717.65 1799.49 1714.57 1794.91 Q1711.51 1790.3 1711.51 1781.58 Q1711.51 1772.83 1714.57 1768.24 Q1717.65 1763.64 1723.46 1763.64 Z" fill="#000000" fill-rule="evenodd" fill-opacity="1" /><path clip-path="url(#clip950)" d="M2341.23 1794.89 L2348.87 1794.89 L2348.87 1768.52 L2340.56 1770.19 L2340.56 1765.93 L2348.82 1764.26 L2353.5 1764.26 L2353.5 1794.89 L2361.14 1794.89 L2361.14 1798.82 L2341.23 1798.82 L2341.23 1794.89 Z" fill="#000000" fill-rule="evenodd" fill-opacity="1" /><path clip-path="url(#clip950)" d="M2370.58 1792.94 L2375.47 1792.94 L2375.47 1798.82 L2370.58 1798.82 L2370.58 1792.94 Z" fill="#000000" fill-rule="evenodd" fill-opacity="1" /><path clip-path="url(#clip950)" d="M2385.7 1764.26 L2404.06 1764.26 L2404.06 1768.2 L2389.98 1768.2 L2389.98 1776.67 Q2391 1776.32 2392.02 1776.16 Q2393.04 1775.97 2394.06 1775.97 Q2399.84 1775.97 2403.22 1779.15 Q2406.6 1782.32 2406.6 1787.73 Q2406.6 1793.31 2403.13 1796.41 Q2399.66 1799.49 2393.34 1799.49 Q2391.16 1799.49 2388.89 1799.12 Q2386.65 1798.75 2384.24 1798.01 L2384.24 1793.31 Q2386.32 1794.45 2388.55 1795 Q2390.77 1795.56 2393.25 1795.56 Q2397.25 1795.56 2399.59 1793.45 Q2401.93 1791.34 2401.93 1787.73 Q2401.93 1784.12 2399.59 1782.02 Q2397.25 1779.91 2393.25 1779.91 Q2391.37 1779.91 2389.5 1780.33 Q2387.64 1780.74 2385.7 1781.62 L2385.7 1764.26 Z" fill="#000000" fill-rule="evenodd" fill-opacity="1" /><path clip-path="url(#clip950)" d="M1317.19 1840.14 Q1310.19 1840.14 1306.05 1845.36 Q1301.94 1850.58 1301.94 1859.59 Q1301.94 1868.56 1306.05 1873.78 Q1310.19 1879 1317.19 1879 Q1324.19 1879 1328.27 1873.78 Q1332.37 1868.56 1332.37 1859.59 Q1332.37 1850.58 1328.27 1845.36 Q1324.19 1840.14 1317.19 1840.14 M1326.2 1882.44 L1334.66 1891.7 L1326.9 1891.7 L1319.86 1884.1 Q1318.81 1884.16 1318.24 1884.19 Q1317.7 1884.22 1317.19 1884.22 Q1307.16 1884.22 1301.15 1877.54 Q1295.16 1870.82 1295.16 1859.59 Q1295.16 1848.32 1301.15 1841.64 Q1307.16 1834.92 1317.19 1834.92 Q1327.18 1834.92 1333.17 1841.64 Q1339.15 1848.32 1339.15 1859.59 Q1339.15 1867.86 1335.81 1873.75 Q1332.5 1879.64 1326.2 1882.44 Z" fill="#000000" fill-rule="evenodd" fill-opacity="1" /><path clip-path="url(#clip950)" d="M1348.35 1869.23 L1348.35 1847.65 L1354.21 1847.65 L1354.21 1869.01 Q1354.21 1874.07 1356.18 1876.62 Q1358.15 1879.13 1362.1 1879.13 Q1366.84 1879.13 1369.58 1876.11 Q1372.35 1873.08 1372.35 1867.86 L1372.35 1847.65 L1378.21 1847.65 L1378.21 1883.3 L1372.35 1883.3 L1372.35 1877.83 Q1370.22 1881.07 1367.38 1882.66 Q1364.58 1884.22 1360.86 1884.22 Q1354.72 1884.22 1351.53 1880.4 Q1348.35 1876.59 1348.35 1869.23 M1363.09 1846.79 L1363.09 1846.79 Z" fill="#000000" fill-rule="evenodd" fill-opacity="1" /><path clip-path="url(#clip950)" d="M1406.47 1865.38 Q1399.37 1865.38 1396.63 1867 Q1393.9 1868.63 1393.9 1872.54 Q1393.9 1875.66 1395.93 1877.51 Q1398 1879.32 1401.54 1879.32 Q1406.41 1879.32 1409.33 1875.88 Q1412.29 1872.42 1412.29 1866.69 L1412.29 1865.38 L1406.47 1865.38 M1418.15 1862.96 L1418.15 1883.3 L1412.29 1883.3 L1412.29 1877.89 Q1410.29 1881.14 1407.3 1882.7 Q1404.3 1884.22 1399.98 1884.22 Q1394.5 1884.22 1391.26 1881.17 Q1388.04 1878.08 1388.04 1872.92 Q1388.04 1866.91 1392.05 1863.85 Q1396.09 1860.8 1404.08 1860.8 L1412.29 1860.8 L1412.29 1860.23 Q1412.29 1856.18 1409.62 1853.99 Q1406.98 1851.76 1402.17 1851.76 Q1399.12 1851.76 1396.22 1852.49 Q1393.32 1853.22 1390.65 1854.69 L1390.65 1849.28 Q1393.87 1848.03 1396.89 1847.43 Q1399.91 1846.79 1402.78 1846.79 Q1410.51 1846.79 1414.33 1850.8 Q1418.15 1854.81 1418.15 1862.96 Z" fill="#000000" fill-rule="evenodd" fill-opacity="1" /><path clip-path="url(#clip950)" d="M1459.85 1861.78 L1459.85 1883.3 L1453.99 1883.3 L1453.99 1861.98 Q1453.99 1856.92 1452.02 1854.4 Q1450.04 1851.89 1446.1 1851.89 Q1441.35 1851.89 1438.62 1854.91 Q1435.88 1857.93 1435.88 1863.15 L1435.88 1883.3 L1429.99 1883.3 L1429.99 1847.65 L1435.88 1847.65 L1435.88 1853.19 Q1437.98 1849.98 1440.81 1848.39 Q1443.68 1846.79 1447.4 1846.79 Q1453.54 1846.79 1456.69 1850.61 Q1459.85 1854.4 1459.85 1861.78 Z" fill="#000000" fill-rule="evenodd" fill-opacity="1" /><path clip-path="url(#clip950)" d="M1477.32 1837.53 L1477.32 1847.65 L1489.38 1847.65 L1489.38 1852.2 L1477.32 1852.2 L1477.32 1871.56 Q1477.32 1875.92 1478.5 1877.16 Q1479.71 1878.4 1483.37 1878.4 L1489.38 1878.4 L1489.38 1883.3 L1483.37 1883.3 Q1476.59 1883.3 1474.01 1880.79 Q1471.43 1878.24 1471.43 1871.56 L1471.43 1852.2 L1467.13 1852.2 L1467.13 1847.65 L1471.43 1847.65 L1471.43 1837.53 L1477.32 1837.53 Z" fill="#000000" fill-rule="evenodd" fill-opacity="1" /><path clip-path="url(#clip950)" d="M1497.09 1847.65 L1502.94 1847.65 L1502.94 1883.3 L1497.09 1883.3 L1497.09 1847.65 M1497.09 1833.78 L1502.94 1833.78 L1502.94 1841.19 L1497.09 1841.19 L1497.09 1833.78 Z" fill="#000000" fill-rule="evenodd" fill-opacity="1" /><path clip-path="url(#clip950)" d="M1520.99 1837.53 L1520.99 1847.65 L1533.05 1847.65 L1533.05 1852.2 L1520.99 1852.2 L1520.99 1871.56 Q1520.99 1875.92 1522.17 1877.16 Q1523.38 1878.4 1527.04 1878.4 L1533.05 1878.4 L1533.05 1883.3 L1527.04 1883.3 Q1520.26 1883.3 1517.68 1880.79 Q1515.1 1878.24 1515.1 1871.56 L1515.1 1852.2 L1510.8 1852.2 L1510.8 1847.65 L1515.1 1847.65 L1515.1 1837.53 L1520.99 1837.53 Z" fill="#000000" fill-rule="evenodd" fill-opacity="1" /><path clip-path="url(#clip950)" d="M1555.59 1886.61 Q1553.1 1892.98 1550.75 1894.92 Q1548.39 1896.86 1544.45 1896.86 L1539.77 1896.86 L1539.77 1891.96 L1543.2 1891.96 Q1545.62 1891.96 1546.96 1890.81 Q1548.3 1889.67 1549.92 1885.4 L1550.97 1882.73 L1536.55 1847.65 L1542.76 1847.65 L1553.9 1875.53 L1565.04 1847.65 L1571.25 1847.65 L1555.59 1886.61 Z" fill="#000000" fill-rule="evenodd" fill-opacity="1" /><polyline clip-path="url(#clip952)" style="stroke:#000000; stroke-linecap:round; stroke-linejoin:round; stroke-width:2; stroke-opacity:0.1; fill:none" points="
  225.654,1686.38 2640.76,1686.38 
  "/>
<polyline clip-path="url(#clip952)" style="stroke:#000000; stroke-linecap:round; stroke-linejoin:round; stroke-width:2; stroke-opacity:0.1; fill:none" points="
  225.654,1368.73 2640.76,1368.73 
  "/>
<polyline clip-path="url(#clip952)" style="stroke:#000000; stroke-linecap:round; stroke-linejoin:round; stroke-width:2; stroke-opacity:0.1; fill:none" points="
  225.654,1051.09 2640.76,1051.09 
  "/>
<polyline clip-path="url(#clip952)" style="stroke:#000000; stroke-linecap:round; stroke-linejoin:round; stroke-width:2; stroke-opacity:0.1; fill:none" points="
  225.654,733.447 2640.76,733.447 
  "/>
<polyline clip-path="url(#clip952)" style="stroke:#000000; stroke-linecap:round; stroke-linejoin:round; stroke-width:2; stroke-opacity:0.1; fill:none" points="
  225.654,415.805 2640.76,415.805 
  "/>
<polyline clip-path="url(#clip952)" style="stroke:#000000; stroke-linecap:round; stroke-linejoin:round; stroke-width:2; stroke-opacity:0.1; fill:none" points="
  225.654,98.1622 2640.76,98.1622 
  "/>
<polyline clip-path="url(#clip950)" style="stroke:#000000; stroke-linecap:round; stroke-linejoin:round; stroke-width:4; stroke-opacity:1; fill:none" points="
  225.654,1734.12 225.654,47.2441 
  "/>
<polyline clip-path="url(#clip950)" style="stroke:#000000; stroke-linecap:round; stroke-linejoin:round; stroke-width:4; stroke-opacity:1; fill:none" points="
  225.654,1686.38 244.552,1686.38 
  "/>
<polyline clip-path="url(#clip950)" style="stroke:#000000; stroke-linecap:round; stroke-linejoin:round; stroke-width:4; stroke-opacity:1; fill:none" points="
  225.654,1368.73 244.552,1368.73 
  "/>
<polyline clip-path="url(#clip950)" style="stroke:#000000; stroke-linecap:round; stroke-linejoin:round; stroke-width:4; stroke-opacity:1; fill:none" points="
  225.654,1051.09 244.552,1051.09 
  "/>
<polyline clip-path="url(#clip950)" style="stroke:#000000; stroke-linecap:round; stroke-linejoin:round; stroke-width:4; stroke-opacity:1; fill:none" points="
  225.654,733.447 244.552,733.447 
  "/>
<polyline clip-path="url(#clip950)" style="stroke:#000000; stroke-linecap:round; stroke-linejoin:round; stroke-width:4; stroke-opacity:1; fill:none" points="
  225.654,415.805 244.552,415.805 
  "/>
<polyline clip-path="url(#clip950)" style="stroke:#000000; stroke-linecap:round; stroke-linejoin:round; stroke-width:4; stroke-opacity:1; fill:none" points="
  225.654,98.1622 244.552,98.1622 
  "/>
<path clip-path="url(#clip950)" d="M128.159 1672.17 Q124.548 1672.17 122.719 1675.74 Q120.913 1679.28 120.913 1686.41 Q120.913 1693.52 122.719 1697.08 Q124.548 1700.62 128.159 1700.62 Q131.793 1700.62 133.599 1697.08 Q135.427 1693.52 135.427 1686.41 Q135.427 1679.28 133.599 1675.74 Q131.793 1672.17 128.159 1672.17 M128.159 1668.47 Q133.969 1668.47 137.025 1673.08 Q140.103 1677.66 140.103 1686.41 Q140.103 1695.14 137.025 1699.74 Q133.969 1704.33 128.159 1704.33 Q122.349 1704.33 119.27 1699.74 Q116.214 1695.14 116.214 1686.41 Q116.214 1677.66 119.27 1673.08 Q122.349 1668.47 128.159 1668.47 Z" fill="#000000" fill-rule="evenodd" fill-opacity="1" /><path clip-path="url(#clip950)" d="M148.321 1697.78 L153.205 1697.78 L153.205 1703.66 L148.321 1703.66 L148.321 1697.78 Z" fill="#000000" fill-rule="evenodd" fill-opacity="1" /><path clip-path="url(#clip950)" d="M173.39 1672.17 Q169.779 1672.17 167.95 1675.74 Q166.145 1679.28 166.145 1686.41 Q166.145 1693.52 167.95 1697.08 Q169.779 1700.62 173.39 1700.62 Q177.024 1700.62 178.83 1697.08 Q180.659 1693.52 180.659 1686.41 Q180.659 1679.28 178.83 1675.74 Q177.024 1672.17 173.39 1672.17 M173.39 1668.47 Q179.2 1668.47 182.256 1673.08 Q185.334 1677.66 185.334 1686.41 Q185.334 1695.14 182.256 1699.74 Q179.2 1704.33 173.39 1704.33 Q167.58 1704.33 164.501 1699.74 Q161.446 1695.14 161.446 1686.41 Q161.446 1677.66 164.501 1673.08 Q167.58 1668.47 173.39 1668.47 Z" fill="#000000" fill-rule="evenodd" fill-opacity="1" /><path clip-path="url(#clip950)" d="M129.154 1354.53 Q125.543 1354.53 123.714 1358.1 Q121.909 1361.64 121.909 1368.77 Q121.909 1375.87 123.714 1379.44 Q125.543 1382.98 129.154 1382.98 Q132.788 1382.98 134.594 1379.44 Q136.423 1375.87 136.423 1368.77 Q136.423 1361.64 134.594 1358.1 Q132.788 1354.53 129.154 1354.53 M129.154 1350.83 Q134.964 1350.83 138.02 1355.43 Q141.099 1360.02 141.099 1368.77 Q141.099 1377.49 138.02 1382.1 Q134.964 1386.68 129.154 1386.68 Q123.344 1386.68 120.265 1382.1 Q117.21 1377.49 117.21 1368.77 Q117.21 1360.02 120.265 1355.43 Q123.344 1350.83 129.154 1350.83 Z" fill="#000000" fill-rule="evenodd" fill-opacity="1" /><path clip-path="url(#clip950)" d="M149.316 1380.13 L154.2 1380.13 L154.2 1386.01 L149.316 1386.01 L149.316 1380.13 Z" fill="#000000" fill-rule="evenodd" fill-opacity="1" /><path clip-path="url(#clip950)" d="M164.432 1351.45 L182.788 1351.45 L182.788 1355.39 L168.714 1355.39 L168.714 1363.86 Q169.733 1363.51 170.751 1363.35 Q171.77 1363.17 172.788 1363.17 Q178.575 1363.17 181.955 1366.34 Q185.334 1369.51 185.334 1374.92 Q185.334 1380.5 181.862 1383.61 Q178.39 1386.68 172.071 1386.68 Q169.895 1386.68 167.626 1386.31 Q165.381 1385.94 162.973 1385.2 L162.973 1380.5 Q165.057 1381.64 167.279 1382.19 Q169.501 1382.75 171.978 1382.75 Q175.983 1382.75 178.321 1380.64 Q180.659 1378.54 180.659 1374.92 Q180.659 1371.31 178.321 1369.21 Q175.983 1367.1 171.978 1367.1 Q170.103 1367.1 168.228 1367.52 Q166.376 1367.93 164.432 1368.81 L164.432 1351.45 Z" fill="#000000" fill-rule="evenodd" fill-opacity="1" /><path clip-path="url(#clip950)" d="M118.969 1064.43 L126.608 1064.43 L126.608 1038.07 L118.298 1039.74 L118.298 1035.48 L126.562 1033.81 L131.238 1033.81 L131.238 1064.43 L138.876 1064.43 L138.876 1068.37 L118.969 1068.37 L118.969 1064.43 Z" fill="#000000" fill-rule="evenodd" fill-opacity="1" /><path clip-path="url(#clip950)" d="M148.321 1062.49 L153.205 1062.49 L153.205 1068.37 L148.321 1068.37 L148.321 1062.49 Z" fill="#000000" fill-rule="evenodd" fill-opacity="1" /><path clip-path="url(#clip950)" d="M173.39 1036.89 Q169.779 1036.89 167.95 1040.45 Q166.145 1044 166.145 1051.12 Q166.145 1058.23 167.95 1061.8 Q169.779 1065.34 173.39 1065.34 Q177.024 1065.34 178.83 1061.8 Q180.659 1058.23 180.659 1051.12 Q180.659 1044 178.83 1040.45 Q177.024 1036.89 173.39 1036.89 M173.39 1033.19 Q179.2 1033.19 182.256 1037.79 Q185.334 1042.37 185.334 1051.12 Q185.334 1059.85 182.256 1064.46 Q179.2 1069.04 173.39 1069.04 Q167.58 1069.04 164.501 1064.46 Q161.446 1059.85 161.446 1051.12 Q161.446 1042.37 164.501 1037.79 Q167.58 1033.19 173.39 1033.19 Z" fill="#000000" fill-rule="evenodd" fill-opacity="1" /><path clip-path="url(#clip950)" d="M119.964 746.792 L127.603 746.792 L127.603 720.427 L119.293 722.093 L119.293 717.834 L127.557 716.167 L132.233 716.167 L132.233 746.792 L139.872 746.792 L139.872 750.727 L119.964 750.727 L119.964 746.792 Z" fill="#000000" fill-rule="evenodd" fill-opacity="1" /><path clip-path="url(#clip950)" d="M149.316 744.848 L154.2 744.848 L154.2 750.727 L149.316 750.727 L149.316 744.848 Z" fill="#000000" fill-rule="evenodd" fill-opacity="1" /><path clip-path="url(#clip950)" d="M164.432 716.167 L182.788 716.167 L182.788 720.103 L168.714 720.103 L168.714 728.575 Q169.733 728.228 170.751 728.066 Q171.77 727.88 172.788 727.88 Q178.575 727.88 181.955 731.052 Q185.334 734.223 185.334 739.64 Q185.334 745.218 181.862 748.32 Q178.39 751.399 172.071 751.399 Q169.895 751.399 167.626 751.028 Q165.381 750.658 162.973 749.917 L162.973 745.218 Q165.057 746.352 167.279 746.908 Q169.501 747.464 171.978 747.464 Q175.983 747.464 178.321 745.357 Q180.659 743.251 180.659 739.64 Q180.659 736.028 178.321 733.922 Q175.983 731.816 171.978 731.816 Q170.103 731.816 168.228 732.232 Q166.376 732.649 164.432 733.528 L164.432 716.167 Z" fill="#000000" fill-rule="evenodd" fill-opacity="1" /><path clip-path="url(#clip950)" d="M122.187 429.15 L138.506 429.15 L138.506 433.085 L116.562 433.085 L116.562 429.15 Q119.224 426.395 123.807 421.765 Q128.413 417.113 129.594 415.77 Q131.839 413.247 132.719 411.511 Q133.622 409.752 133.622 408.062 Q133.622 405.307 131.677 403.571 Q129.756 401.835 126.654 401.835 Q124.455 401.835 122.001 402.599 Q119.571 403.363 116.793 404.914 L116.793 400.191 Q119.617 399.057 122.071 398.479 Q124.525 397.9 126.562 397.9 Q131.932 397.9 135.126 400.585 Q138.321 403.27 138.321 407.761 Q138.321 409.891 137.511 411.812 Q136.724 413.71 134.617 416.303 Q134.038 416.974 130.937 420.191 Q127.835 423.386 122.187 429.15 Z" fill="#000000" fill-rule="evenodd" fill-opacity="1" /><path clip-path="url(#clip950)" d="M148.321 427.205 L153.205 427.205 L153.205 433.085 L148.321 433.085 L148.321 427.205 Z" fill="#000000" fill-rule="evenodd" fill-opacity="1" /><path clip-path="url(#clip950)" d="M173.39 401.604 Q169.779 401.604 167.95 405.168 Q166.145 408.71 166.145 415.84 Q166.145 422.946 167.95 426.511 Q169.779 430.052 173.39 430.052 Q177.024 430.052 178.83 426.511 Q180.659 422.946 180.659 415.84 Q180.659 408.71 178.83 405.168 Q177.024 401.604 173.39 401.604 M173.39 397.9 Q179.2 397.9 182.256 402.506 Q185.334 407.09 185.334 415.84 Q185.334 424.566 182.256 429.173 Q179.2 433.756 173.39 433.756 Q167.58 433.756 164.501 429.173 Q161.446 424.566 161.446 415.84 Q161.446 407.09 164.501 402.506 Q167.58 397.9 173.39 397.9 Z" fill="#000000" fill-rule="evenodd" fill-opacity="1" /><path clip-path="url(#clip950)" d="M123.182 111.507 L139.501 111.507 L139.501 115.442 L117.557 115.442 L117.557 111.507 Q120.219 108.752 124.802 104.123 Q129.409 99.4701 130.589 98.1275 Q132.835 95.6043 133.714 93.8682 Q134.617 92.109 134.617 90.4192 Q134.617 87.6646 132.673 85.9285 Q130.751 84.1924 127.65 84.1924 Q125.451 84.1924 122.997 84.9563 Q120.566 85.7201 117.789 87.2711 L117.789 82.5489 Q120.613 81.4146 123.066 80.8359 Q125.52 80.2572 127.557 80.2572 Q132.927 80.2572 136.122 82.9424 Q139.316 85.6276 139.316 90.1183 Q139.316 92.2479 138.506 94.1692 Q137.719 96.0673 135.612 98.6599 Q135.034 99.3312 131.932 102.549 Q128.83 105.743 123.182 111.507 Z" fill="#000000" fill-rule="evenodd" fill-opacity="1" /><path clip-path="url(#clip950)" d="M149.316 109.563 L154.2 109.563 L154.2 115.442 L149.316 115.442 L149.316 109.563 Z" fill="#000000" fill-rule="evenodd" fill-opacity="1" /><path clip-path="url(#clip950)" d="M164.432 80.8822 L182.788 80.8822 L182.788 84.8174 L168.714 84.8174 L168.714 93.2895 Q169.733 92.9423 170.751 92.7803 Q171.77 92.5951 172.788 92.5951 Q178.575 92.5951 181.955 95.7664 Q185.334 98.9377 185.334 104.354 Q185.334 109.933 181.862 113.035 Q178.39 116.113 172.071 116.113 Q169.895 116.113 167.626 115.743 Q165.381 115.373 162.973 114.632 L162.973 109.933 Q165.057 111.067 167.279 111.623 Q169.501 112.178 171.978 112.178 Q175.983 112.178 178.321 110.072 Q180.659 107.965 180.659 104.354 Q180.659 100.743 178.321 98.6367 Q175.983 96.5303 171.978 96.5303 Q170.103 96.5303 168.228 96.9469 Q166.376 97.3636 164.432 98.2432 L164.432 80.8822 Z" fill="#000000" fill-rule="evenodd" fill-opacity="1" /><path clip-path="url(#clip950)" d="M19.402 1052.37 L37.2578 1052.37 L37.2578 1044.29 Q37.2578 1039.8 34.9343 1037.35 Q32.6108 1034.9 28.314 1034.9 Q24.0489 1034.9 21.7255 1037.35 Q19.402 1039.8 19.402 1044.29 L19.402 1052.37 M14.1184 1058.8 L14.1184 1044.29 Q14.1184 1036.3 17.7469 1032.22 Q21.3435 1028.12 28.314 1028.12 Q35.3481 1028.12 38.9447 1032.22 Q42.5413 1036.3 42.5413 1044.29 L42.5413 1052.37 L61.6384 1052.37 L61.6384 1058.8 L14.1184 1058.8 Z" fill="#000000" fill-rule="evenodd" fill-opacity="1" /><path clip-path="url(#clip950)" d="M31.465 1000.23 Q30.8921 1001.22 30.6375 1002.4 Q30.351 1003.54 30.351 1004.94 Q30.351 1009.91 33.5975 1012.58 Q36.8122 1015.23 42.8596 1015.23 L61.6384 1015.23 L61.6384 1021.11 L25.9905 1021.11 L25.9905 1015.23 L31.5287 1015.23 Q28.2821 1013.38 26.7225 1010.42 Q25.1311 1007.46 25.1311 1003.23 Q25.1311 1002.62 25.2266 1001.89 Q25.2903 1001.16 25.4494 1000.27 L31.465 1000.23 Z" fill="#000000" fill-rule="evenodd" fill-opacity="1" /><path clip-path="url(#clip950)" d="M30.0964 981.71 Q30.0964 986.421 33.7885 989.158 Q37.4488 991.895 43.8463 991.895 Q50.2438 991.895 53.9359 989.19 Q57.5962 986.453 57.5962 981.71 Q57.5962 977.031 53.9041 974.294 Q50.212 971.557 43.8463 971.557 Q37.5124 971.557 33.8203 974.294 Q30.0964 977.031 30.0964 981.71 M25.1311 981.71 Q25.1311 974.071 30.0964 969.711 Q35.0616 965.35 43.8463 965.35 Q52.5991 965.35 57.5962 969.711 Q62.5615 974.071 62.5615 981.71 Q62.5615 989.381 57.5962 993.741 Q52.5991 998.07 43.8463 998.07 Q35.0616 998.07 30.0964 993.741 Q25.1311 989.381 25.1311 981.71 Z" fill="#000000" fill-rule="evenodd" fill-opacity="1" /><path clip-path="url(#clip950)" d="M43.8463 930.052 Q37.3851 930.052 33.7248 932.726 Q30.0327 935.368 30.0327 940.015 Q30.0327 944.662 33.7248 947.335 Q37.3851 949.977 43.8463 949.977 Q50.3075 949.977 53.9996 947.335 Q57.6599 944.662 57.6599 940.015 Q57.6599 935.368 53.9996 932.726 Q50.3075 930.052 43.8463 930.052 M31.4013 949.977 Q28.2185 948.131 26.6907 945.33 Q25.1311 942.497 25.1311 938.582 Q25.1311 932.089 30.2873 928.047 Q35.4436 923.973 43.8463 923.973 Q52.249 923.973 57.4052 928.047 Q62.5615 932.089 62.5615 938.582 Q62.5615 942.497 61.0337 945.33 Q59.4741 948.131 56.2912 949.977 L61.6384 949.977 L61.6384 955.865 L12.1132 955.865 L12.1132 949.977 L31.4013 949.977 Z" fill="#000000" fill-rule="evenodd" fill-opacity="1" /><path clip-path="url(#clip950)" d="M43.719 898.065 Q43.719 905.163 45.3422 907.9 Q46.9655 910.637 50.8804 910.637 Q53.9996 910.637 55.8457 908.6 Q57.6599 906.531 57.6599 902.998 Q57.6599 898.128 54.2224 895.2 Q50.7531 892.24 45.0239 892.24 L43.719 892.24 L43.719 898.065 M41.3 886.384 L61.6384 886.384 L61.6384 892.24 L56.2276 892.24 Q59.4741 894.245 61.0337 897.237 Q62.5615 900.229 62.5615 904.558 Q62.5615 910.032 59.5059 913.279 Q56.4186 916.493 51.2623 916.493 Q45.2467 916.493 42.1912 912.483 Q39.1357 908.441 39.1357 900.452 L39.1357 892.24 L38.5628 892.24 Q34.5205 892.24 32.3244 894.914 Q30.0964 897.556 30.0964 902.362 Q30.0964 905.417 30.8284 908.314 Q31.5605 911.21 33.0246 913.884 L27.6137 913.884 Q26.3724 910.669 25.7677 907.645 Q25.1311 904.621 25.1311 901.757 Q25.1311 894.023 29.1415 890.203 Q33.1519 886.384 41.3 886.384 Z" fill="#000000" fill-rule="evenodd" fill-opacity="1" /><path clip-path="url(#clip950)" d="M43.8463 848.731 Q37.3851 848.731 33.7248 851.404 Q30.0327 854.046 30.0327 858.693 Q30.0327 863.34 33.7248 866.013 Q37.3851 868.655 43.8463 868.655 Q50.3075 868.655 53.9996 866.013 Q57.6599 863.34 57.6599 858.693 Q57.6599 854.046 53.9996 851.404 Q50.3075 848.731 43.8463 848.731 M31.4013 868.655 Q28.2185 866.809 26.6907 864.008 Q25.1311 861.175 25.1311 857.261 Q25.1311 850.768 30.2873 846.725 Q35.4436 842.651 43.8463 842.651 Q52.249 842.651 57.4052 846.725 Q62.5615 850.768 62.5615 857.261 Q62.5615 861.175 61.0337 864.008 Q59.4741 866.809 56.2912 868.655 L61.6384 868.655 L61.6384 874.543 L12.1132 874.543 L12.1132 868.655 L31.4013 868.655 Z" fill="#000000" fill-rule="evenodd" fill-opacity="1" /><path clip-path="url(#clip950)" d="M25.9905 832.944 L25.9905 827.087 L61.6384 827.087 L61.6384 832.944 L25.9905 832.944 M12.1132 832.944 L12.1132 827.087 L19.5293 827.087 L19.5293 832.944 L12.1132 832.944 Z" fill="#000000" fill-rule="evenodd" fill-opacity="1" /><path clip-path="url(#clip950)" d="M12.1132 814.833 L12.1132 808.977 L61.6384 808.977 L61.6384 814.833 L12.1132 814.833 Z" fill="#000000" fill-rule="evenodd" fill-opacity="1" /><path clip-path="url(#clip950)" d="M25.9905 796.723 L25.9905 790.866 L61.6384 790.866 L61.6384 796.723 L25.9905 796.723 M12.1132 796.723 L12.1132 790.866 L19.5293 790.866 L19.5293 796.723 L12.1132 796.723 Z" fill="#000000" fill-rule="evenodd" fill-opacity="1" /><path clip-path="url(#clip950)" d="M15.869 772.819 L25.9905 772.819 L25.9905 760.756 L30.542 760.756 L30.542 772.819 L49.8937 772.819 Q54.2542 772.819 55.4955 771.642 Q56.7368 770.432 56.7368 766.772 L56.7368 760.756 L61.6384 760.756 L61.6384 766.772 Q61.6384 773.552 59.124 776.13 Q56.5777 778.708 49.8937 778.708 L30.542 778.708 L30.542 783.005 L25.9905 783.005 L25.9905 778.708 L15.869 778.708 L15.869 772.819 Z" fill="#000000" fill-rule="evenodd" fill-opacity="1" /><path clip-path="url(#clip950)" d="M64.9486 738.222 Q71.3143 740.704 73.2559 743.06 Q75.1974 745.415 75.1974 749.362 L75.1974 754.041 L70.2958 754.041 L70.2958 750.603 Q70.2958 748.184 69.15 746.847 Q68.0041 745.511 63.7391 743.887 L61.0655 742.837 L25.9905 757.255 L25.9905 751.049 L53.8723 739.909 L25.9905 728.769 L25.9905 722.562 L64.9486 738.222 Z" fill="#000000" fill-rule="evenodd" fill-opacity="1" /><path clip-path="url(#clip952)" d="
M358.489 94.9858 L358.489 1686.38 L627.168 1686.38 L627.168 94.9858 L358.489 94.9858 L358.489 94.9858  Z
  " fill="#000000" fill-rule="evenodd" fill-opacity="1"/>
<polyline clip-path="url(#clip952)" style="stroke:#000000; stroke-linecap:round; stroke-linejoin:round; stroke-width:4; stroke-opacity:1; fill:none" points="
  358.489,94.9858 358.489,1686.38 627.168,1686.38 627.168,94.9858 358.489,94.9858 
  "/>
<path clip-path="url(#clip952)" d="
M627.168 1686.38 L627.168 1686.38 L895.847 1686.38 L895.847 1686.38 L627.168 1686.38 L627.168 1686.38  Z
  " fill="#000000" fill-rule="evenodd" fill-opacity="1"/>
<polyline clip-path="url(#clip952)" style="stroke:#000000; stroke-linecap:round; stroke-linejoin:round; stroke-width:4; stroke-opacity:1; fill:none" points="
  627.168,1686.38 627.168,1686.38 895.847,1686.38 627.168,1686.38 
  "/>
<path clip-path="url(#clip952)" d="
M895.847 1654.61 L895.847 1686.38 L1164.53 1686.38 L1164.53 1654.61 L895.847 1654.61 L895.847 1654.61  Z
  " fill="#000000" fill-rule="evenodd" fill-opacity="1"/>
<polyline clip-path="url(#clip952)" style="stroke:#000000; stroke-linecap:round; stroke-linejoin:round; stroke-width:4; stroke-opacity:1; fill:none" points="
  895.847,1654.61 895.847,1686.38 1164.53,1686.38 1164.53,1654.61 895.847,1654.61 
  "/>
<path clip-path="url(#clip952)" d="
M1164.53 1448.14 L1164.53 1686.38 L1433.21 1686.38 L1433.21 1448.14 L1164.53 1448.14 L1164.53 1448.14  Z
  " fill="#000000" fill-rule="evenodd" fill-opacity="1"/>
<polyline clip-path="url(#clip952)" style="stroke:#000000; stroke-linecap:round; stroke-linejoin:round; stroke-width:4; stroke-opacity:1; fill:none" points="
  1164.53,1448.14 1164.53,1686.38 1433.21,1686.38 1433.21,1448.14 1164.53,1448.14 
  "/>
<path clip-path="url(#clip952)" d="
M1433.21 958.974 L1433.21 1686.38 L1701.88 1686.38 L1701.88 958.974 L1433.21 958.974 L1433.21 958.974  Z
  " fill="#000000" fill-rule="evenodd" fill-opacity="1"/>
<polyline clip-path="url(#clip952)" style="stroke:#000000; stroke-linecap:round; stroke-linejoin:round; stroke-width:4; stroke-opacity:1; fill:none" points="
  1433.21,958.974 1433.21,1686.38 1701.88,1686.38 1701.88,958.974 1433.21,958.974 
  "/>
<path clip-path="url(#clip952)" d="
M1701.88 1162.26 L1701.88 1686.38 L1970.56 1686.38 L1970.56 1162.26 L1701.88 1162.26 L1701.88 1162.26  Z
  " fill="#000000" fill-rule="evenodd" fill-opacity="1"/>
<polyline clip-path="url(#clip952)" style="stroke:#000000; stroke-linecap:round; stroke-linejoin:round; stroke-width:4; stroke-opacity:1; fill:none" points="
  1701.88,1162.26 1701.88,1686.38 1970.56,1686.38 1970.56,1162.26 1701.88,1162.26 
  "/>
<path clip-path="url(#clip952)" d="
M1970.56 1629.2 L1970.56 1686.38 L2239.24 1686.38 L2239.24 1629.2 L1970.56 1629.2 L1970.56 1629.2  Z
  " fill="#000000" fill-rule="evenodd" fill-opacity="1"/>
<polyline clip-path="url(#clip952)" style="stroke:#000000; stroke-linecap:round; stroke-linejoin:round; stroke-width:4; stroke-opacity:1; fill:none" points="
  1970.56,1629.2 1970.56,1686.38 2239.24,1686.38 2239.24,1629.2 1970.56,1629.2 
  "/>
<path clip-path="url(#clip952)" d="
M2239.24 1680.02 L2239.24 1686.38 L2507.92 1686.38 L2507.92 1680.02 L2239.24 1680.02 L2239.24 1680.02  Z
  " fill="#000000" fill-rule="evenodd" fill-opacity="1"/>
<polyline clip-path="url(#clip952)" style="stroke:#000000; stroke-linecap:round; stroke-linejoin:round; stroke-width:4; stroke-opacity:1; fill:none" points="
  2239.24,1680.02 2239.24,1686.38 2507.92,1686.38 2507.92,1680.02 2239.24,1680.02 
  "/>
<circle clip-path="url(#clip952)" style="fill:#000000; stroke:none; fill-opacity:0" cx="492.829" cy="94.9858" r="2"/>
<circle clip-path="url(#clip952)" style="fill:#000000; stroke:none; fill-opacity:0" cx="761.508" cy="1686.38" r="2"/>
<circle clip-path="url(#clip952)" style="fill:#000000; stroke:none; fill-opacity:0" cx="1030.19" cy="1654.61" r="2"/>
<circle clip-path="url(#clip952)" style="fill:#000000; stroke:none; fill-opacity:0" cx="1298.87" cy="1448.14" r="2"/>
<circle clip-path="url(#clip952)" style="fill:#000000; stroke:none; fill-opacity:0" cx="1567.54" cy="958.974" r="2"/>
<circle clip-path="url(#clip952)" style="fill:#000000; stroke:none; fill-opacity:0" cx="1836.22" cy="1162.26" r="2"/>
<circle clip-path="url(#clip952)" style="fill:#000000; stroke:none; fill-opacity:0" cx="2104.9" cy="1629.2" r="2"/>
<circle clip-path="url(#clip952)" style="fill:#000000; stroke:none; fill-opacity:0" cx="2373.58" cy="1680.02" r="2"/>
<path clip-path="url(#clip950)" d="
M2235.8 207.153 L2560.25 207.153 L2560.25 103.473 L2235.8 103.473  Z
  " fill="#ffffff" fill-rule="evenodd" fill-opacity="1"/>
<polyline clip-path="url(#clip950)" style="stroke:#000000; stroke-linecap:round; stroke-linejoin:round; stroke-width:4; stroke-opacity:1; fill:none" points="
  2235.8,207.153 2560.25,207.153 2560.25,103.473 2235.8,103.473 2235.8,207.153 
  "/>
<path clip-path="url(#clip950)" d="
M2262.64 176.049 L2423.64 176.049 L2423.64 134.577 L2262.64 134.577 L2262.64 176.049  Z
  " fill="#000000" fill-rule="evenodd" fill-opacity="1"/>
<polyline clip-path="url(#clip950)" style="stroke:#000000; stroke-linecap:round; stroke-linejoin:round; stroke-width:4; stroke-opacity:1; fill:none" points="
  2262.64,176.049 2423.64,176.049 2423.64,134.577 2262.64,134.577 2262.64,176.049 
  "/>
<path clip-path="url(#clip950)" d="M2463.88 159.561 Q2458.72 159.561 2456.73 160.741 Q2454.74 161.922 2454.74 164.769 Q2454.74 167.038 2456.22 168.38 Q2457.72 169.7 2460.29 169.7 Q2463.84 169.7 2465.96 167.2 Q2468.12 164.677 2468.12 160.51 L2468.12 159.561 L2463.88 159.561 M2472.38 157.802 L2472.38 172.593 L2468.12 172.593 L2468.12 168.658 Q2466.66 171.019 2464.48 172.153 Q2462.31 173.264 2459.16 173.264 Q2455.18 173.264 2452.82 171.042 Q2450.48 168.797 2450.48 165.047 Q2450.48 160.672 2453.4 158.45 Q2456.34 156.228 2462.15 156.228 L2468.12 156.228 L2468.12 155.811 Q2468.12 152.871 2466.17 151.274 Q2464.25 149.653 2460.76 149.653 Q2458.53 149.653 2456.43 150.186 Q2454.32 150.718 2452.38 151.783 L2452.38 147.848 Q2454.71 146.945 2456.91 146.505 Q2459.11 146.042 2461.2 146.042 Q2466.82 146.042 2469.6 148.959 Q2472.38 151.876 2472.38 157.802 Z" fill="#000000" fill-rule="evenodd" fill-opacity="1" /><path clip-path="url(#clip950)" d="M2498.21 159.329 Q2498.21 154.7 2496.29 152.153 Q2494.39 149.607 2490.94 149.607 Q2487.52 149.607 2485.59 152.153 Q2483.7 154.7 2483.7 159.329 Q2483.7 163.936 2485.59 166.482 Q2487.52 169.028 2490.94 169.028 Q2494.39 169.028 2496.29 166.482 Q2498.21 163.936 2498.21 159.329 M2502.47 169.376 Q2502.47 175.996 2499.53 179.214 Q2496.59 182.454 2490.52 182.454 Q2488.28 182.454 2486.29 182.107 Q2484.3 181.783 2482.42 181.089 L2482.42 176.945 Q2484.3 177.964 2486.13 178.45 Q2487.96 178.936 2489.85 178.936 Q2494.04 178.936 2496.13 176.737 Q2498.21 174.561 2498.21 170.14 L2498.21 168.033 Q2496.89 170.325 2494.83 171.459 Q2492.77 172.593 2489.9 172.593 Q2485.13 172.593 2482.21 168.959 Q2479.3 165.325 2479.3 159.329 Q2479.3 153.311 2482.21 149.677 Q2485.13 146.042 2489.9 146.042 Q2492.77 146.042 2494.83 147.177 Q2496.89 148.311 2498.21 150.603 L2498.21 146.667 L2502.47 146.667 L2502.47 169.376 Z" fill="#000000" fill-rule="evenodd" fill-opacity="1" /><path clip-path="url(#clip950)" d="M2533.42 158.565 L2533.42 160.649 L2513.83 160.649 Q2514.11 165.047 2516.47 167.362 Q2518.86 169.653 2523.09 169.653 Q2525.55 169.653 2527.84 169.052 Q2530.15 168.45 2532.42 167.246 L2532.42 171.274 Q2530.13 172.246 2527.72 172.755 Q2525.32 173.264 2522.84 173.264 Q2516.64 173.264 2513 169.653 Q2509.39 166.042 2509.39 159.885 Q2509.39 153.519 2512.82 149.792 Q2516.27 146.042 2522.1 146.042 Q2527.33 146.042 2530.36 149.422 Q2533.42 152.778 2533.42 158.565 M2529.16 157.315 Q2529.11 153.82 2527.19 151.737 Q2525.29 149.653 2522.14 149.653 Q2518.58 149.653 2516.43 151.667 Q2514.3 153.681 2513.97 157.339 L2529.16 157.315 Z" fill="#000000" fill-rule="evenodd" fill-opacity="1" /></svg>
