<?xml version="1.0" encoding="utf-8"?>
<svg xmlns="http://www.w3.org/2000/svg" xmlns:xlink="http://www.w3.org/1999/xlink" width="600" height="400" viewBox="0 0 2400 1600">
<defs>
  <clipPath id="clip900">
    <rect x="0" y="0" width="2400" height="1600"/>
  </clipPath>
</defs>
<path clip-path="url(#clip900)" d="
M0 1600 L2400 1600 L2400 0 L0 0  Z
  " fill="#ffffff" fill-rule="evenodd" fill-opacity="1"/>
<defs>
  <clipPath id="clip901">
    <rect x="480" y="0" width="1681" height="1600"/>
  </clipPath>
</defs>
<path clip-path="url(#clip900)" d="
M219.866 1423.18 L2352.76 1423.18 L2352.76 123.472 L219.866 123.472  Z
  " fill="#ffffff" fill-rule="evenodd" fill-opacity="1"/>
<defs>
  <clipPath id="clip902">
    <rect x="219" y="123" width="2134" height="1301"/>
  </clipPath>
</defs>
<polyline clip-path="url(#clip902)" style="stroke:#000000; stroke-linecap:round; stroke-linejoin:round; stroke-width:2; stroke-opacity:0.1; fill:none" points="
  435.013,1423.18 435.013,123.472 
  "/>
<polyline clip-path="url(#clip902)" style="stroke:#000000; stroke-linecap:round; stroke-linejoin:round; stroke-width:2; stroke-opacity:0.1; fill:none" points="
  744.576,1423.18 744.576,123.472 
  "/>
<polyline clip-path="url(#clip902)" style="stroke:#000000; stroke-linecap:round; stroke-linejoin:round; stroke-width:2; stroke-opacity:0.1; fill:none" points="
  1054.14,1423.18 1054.14,123.472 
  "/>
<polyline clip-path="url(#clip902)" style="stroke:#000000; stroke-linecap:round; stroke-linejoin:round; stroke-width:2; stroke-opacity:0.1; fill:none" points="
  1363.7,1423.18 1363.7,123.472 
  "/>
<polyline clip-path="url(#clip902)" style="stroke:#000000; stroke-linecap:round; stroke-linejoin:round; stroke-width:2; stroke-opacity:0.1; fill:none" points="
  1673.26,1423.18 1673.26,123.472 
  "/>
<polyline clip-path="url(#clip902)" style="stroke:#000000; stroke-linecap:round; stroke-linejoin:round; stroke-width:2; stroke-opacity:0.1; fill:none" points="
  1982.83,1423.18 1982.83,123.472 
  "/>
<polyline clip-path="url(#clip902)" style="stroke:#000000; stroke-linecap:round; stroke-linejoin:round; stroke-width:2; stroke-opacity:0.1; fill:none" points="
  2292.39,1423.18 2292.39,123.472 
  "/>
<polyline clip-path="url(#clip900)" style="stroke:#000000; stroke-linecap:round; stroke-linejoin:round; stroke-width:4; stroke-opacity:1; fill:none" points="
  219.866,1423.18 2352.76,1423.18 
  "/>
<polyline clip-path="url(#clip900)" style="stroke:#000000; stroke-linecap:round; stroke-linejoin:round; stroke-width:4; stroke-opacity:1; fill:none" points="
  435.013,1423.18 435.013,1404.28 
  "/>
<polyline clip-path="url(#clip900)" style="stroke:#000000; stroke-linecap:round; stroke-linejoin:round; stroke-width:4; stroke-opacity:1; fill:none" points="
  744.576,1423.18 744.576,1404.28 
  "/>
<polyline clip-path="url(#clip900)" style="stroke:#000000; stroke-linecap:round; stroke-linejoin:round; stroke-width:4; stroke-opacity:1; fill:none" points="
  1054.14,1423.18 1054.14,1404.28 
  "/>
<polyline clip-path="url(#clip900)" style="stroke:#000000; stroke-linecap:round; stroke-linejoin:round; stroke-width:4; stroke-opacity:1; fill:none" points="
  1363.7,1423.18 1363.7,1404.28 
  "/>
<polyline clip-path="url(#clip900)" style="stroke:#000000; stroke-linecap:round; stroke-linejoin:round; stroke-width:4; stroke-opacity:1; fill:none" points="
  1673.26,1423.18 1673.26,1404.28 
  "/>
<polyline clip-path="url(#clip900)" style="stroke:#000000; stroke-linecap:round; stroke-linejoin:round; stroke-width:4; stroke-opacity:1; fill:none" points="
  1982.83,1423.18 1982.83,1404.28 
  "/>
<polyline clip-path="url(#clip900)" style="stroke:#000000; stroke-linecap:round; stroke-linejoin:round; stroke-width:4; stroke-opacity:1; fill:none" points="
  2292.39,1423.18 2292.39,1404.28 
  "/>
<path clip-path="url(#clip900)" d="M404.955 1468.75 L434.631 1468.75 L434.631 1472.69 L404.955 1472.69 L404.955 1468.75 Z" fill="#000000" fill-rule="evenodd" fill-opacity="1" /><path clip-path="url(#clip900)" d="M448.751 1481.64 L465.07 1481.64 L465.07 1485.58 L443.126 1485.58 L443.126 1481.64 Q445.788 1478.89 450.371 1474.26 Q454.978 1469.61 456.158 1468.27 Q458.404 1465.74 459.283 1464.01 Q460.186 1462.25 460.186 1460.56 Q460.186 1457.8 458.242 1456.07 Q456.32 1454.33 453.219 1454.33 Q451.019 1454.33 448.566 1455.09 Q446.135 1455.86 443.357 1457.41 L443.357 1452.69 Q446.182 1451.55 448.635 1450.97 Q451.089 1450.39 453.126 1450.39 Q458.496 1450.39 461.691 1453.08 Q464.885 1455.77 464.885 1460.26 Q464.885 1462.39 464.075 1464.31 Q463.288 1466.2 461.181 1468.8 Q460.603 1469.47 457.501 1472.69 Q454.399 1475.88 448.751 1481.64 Z" fill="#000000" fill-rule="evenodd" fill-opacity="1" /><path clip-path="url(#clip900)" d="M744.576 1454.1 Q740.965 1454.1 739.136 1457.66 Q737.33 1461.2 737.33 1468.33 Q737.33 1475.44 739.136 1479.01 Q740.965 1482.55 744.576 1482.55 Q748.21 1482.55 750.015 1479.01 Q751.844 1475.44 751.844 1468.33 Q751.844 1461.2 750.015 1457.66 Q748.21 1454.1 744.576 1454.1 M744.576 1450.39 Q750.386 1450.39 753.441 1455 Q756.52 1459.58 756.52 1468.33 Q756.52 1477.06 753.441 1481.67 Q750.386 1486.25 744.576 1486.25 Q738.766 1486.25 735.687 1481.67 Q732.631 1477.06 732.631 1468.33 Q732.631 1459.58 735.687 1455 Q738.766 1450.39 744.576 1450.39 Z" fill="#000000" fill-rule="evenodd" fill-opacity="1" /><path clip-path="url(#clip900)" d="M1048.79 1481.64 L1065.11 1481.64 L1065.11 1485.58 L1043.17 1485.58 L1043.17 1481.64 Q1045.83 1478.89 1050.41 1474.26 Q1055.02 1469.61 1056.2 1468.27 Q1058.44 1465.74 1059.32 1464.01 Q1060.23 1462.25 1060.23 1460.56 Q1060.23 1457.8 1058.28 1456.07 Q1056.36 1454.33 1053.26 1454.33 Q1051.06 1454.33 1048.61 1455.09 Q1046.18 1455.86 1043.4 1457.41 L1043.4 1452.69 Q1046.22 1451.55 1048.68 1450.97 Q1051.13 1450.39 1053.17 1450.39 Q1058.54 1450.39 1061.73 1453.08 Q1064.93 1455.77 1064.93 1460.26 Q1064.93 1462.39 1064.12 1464.31 Q1063.33 1466.2 1061.22 1468.8 Q1060.64 1469.47 1057.54 1472.69 Q1054.44 1475.88 1048.79 1481.64 Z" fill="#000000" fill-rule="evenodd" fill-opacity="1" /><path clip-path="url(#clip900)" d="M1366.71 1455.09 L1354.91 1473.54 L1366.71 1473.54 L1366.71 1455.09 M1365.48 1451.02 L1371.36 1451.02 L1371.36 1473.54 L1376.29 1473.54 L1376.29 1477.43 L1371.36 1477.43 L1371.36 1485.58 L1366.71 1485.58 L1366.71 1477.43 L1351.11 1477.43 L1351.11 1472.92 L1365.48 1451.02 Z" fill="#000000" fill-rule="evenodd" fill-opacity="1" /><path clip-path="url(#clip900)" d="M1673.67 1466.44 Q1670.52 1466.44 1668.67 1468.59 Q1666.84 1470.74 1666.84 1474.49 Q1666.84 1478.22 1668.67 1480.39 Q1670.52 1482.55 1673.67 1482.55 Q1676.82 1482.55 1678.65 1480.39 Q1680.5 1478.22 1680.5 1474.49 Q1680.5 1470.74 1678.65 1468.59 Q1676.82 1466.44 1673.67 1466.44 M1682.95 1451.78 L1682.95 1456.04 Q1681.19 1455.21 1679.39 1454.77 Q1677.61 1454.33 1675.85 1454.33 Q1671.22 1454.33 1668.76 1457.45 Q1666.33 1460.58 1665.98 1466.9 Q1667.35 1464.89 1669.41 1463.82 Q1671.47 1462.73 1673.95 1462.73 Q1679.16 1462.73 1682.17 1465.9 Q1685.2 1469.05 1685.2 1474.49 Q1685.2 1479.82 1682.05 1483.03 Q1678.9 1486.25 1673.67 1486.25 Q1667.67 1486.25 1664.5 1481.67 Q1661.33 1477.06 1661.33 1468.33 Q1661.33 1460.14 1665.22 1455.28 Q1669.11 1450.39 1675.66 1450.39 Q1677.42 1450.39 1679.2 1450.74 Q1681.01 1451.09 1682.95 1451.78 Z" fill="#000000" fill-rule="evenodd" fill-opacity="1" /><path clip-path="url(#clip900)" d="M1982.83 1469.17 Q1979.49 1469.17 1977.57 1470.95 Q1975.68 1472.73 1975.68 1475.86 Q1975.68 1478.98 1977.57 1480.77 Q1979.49 1482.55 1982.83 1482.55 Q1986.16 1482.55 1988.08 1480.77 Q1990 1478.96 1990 1475.86 Q1990 1472.73 1988.08 1470.95 Q1986.18 1469.17 1982.83 1469.17 M1978.15 1467.18 Q1975.14 1466.44 1973.45 1464.38 Q1971.79 1462.32 1971.79 1459.35 Q1971.79 1455.21 1974.73 1452.8 Q1977.69 1450.39 1982.83 1450.39 Q1987.99 1450.39 1990.93 1452.8 Q1993.87 1455.21 1993.87 1459.35 Q1993.87 1462.32 1992.18 1464.38 Q1990.51 1466.44 1987.53 1467.18 Q1990.91 1467.96 1992.78 1470.26 Q1994.68 1472.55 1994.68 1475.86 Q1994.68 1480.88 1991.6 1483.57 Q1988.55 1486.25 1982.83 1486.25 Q1977.11 1486.25 1974.03 1483.57 Q1970.98 1480.88 1970.98 1475.86 Q1970.98 1472.55 1972.87 1470.26 Q1974.77 1467.96 1978.15 1467.18 M1976.44 1459.79 Q1976.44 1462.48 1978.11 1463.98 Q1979.8 1465.49 1982.83 1465.49 Q1985.84 1465.49 1987.53 1463.98 Q1989.24 1462.48 1989.24 1459.79 Q1989.24 1457.11 1987.53 1455.6 Q1985.84 1454.1 1982.83 1454.1 Q1979.8 1454.1 1978.11 1455.6 Q1976.44 1457.11 1976.44 1459.79 Z" fill="#000000" fill-rule="evenodd" fill-opacity="1" /><path clip-path="url(#clip900)" d="M2267.08 1481.64 L2274.72 1481.64 L2274.72 1455.28 L2266.41 1456.95 L2266.41 1452.69 L2274.67 1451.02 L2279.35 1451.02 L2279.35 1481.64 L2286.99 1481.64 L2286.99 1485.58 L2267.08 1485.58 L2267.08 1481.64 Z" fill="#000000" fill-rule="evenodd" fill-opacity="1" /><path clip-path="url(#clip900)" d="M2306.43 1454.1 Q2302.82 1454.1 2300.99 1457.66 Q2299.19 1461.2 2299.19 1468.33 Q2299.19 1475.44 2300.99 1479.01 Q2302.82 1482.55 2306.43 1482.55 Q2310.06 1482.55 2311.87 1479.01 Q2313.7 1475.44 2313.7 1468.33 Q2313.7 1461.2 2311.87 1457.66 Q2310.06 1454.1 2306.43 1454.1 M2306.43 1450.39 Q2312.24 1450.39 2315.3 1455 Q2318.37 1459.58 2318.37 1468.33 Q2318.37 1477.06 2315.3 1481.67 Q2312.24 1486.25 2306.43 1486.25 Q2300.62 1486.25 2297.54 1481.67 Q2294.49 1477.06 2294.49 1468.33 Q2294.49 1459.58 2297.54 1455 Q2300.62 1450.39 2306.43 1450.39 Z" fill="#000000" fill-rule="evenodd" fill-opacity="1" /><path clip-path="url(#clip900)" d="M1296.43 1545.45 L1276.16 1545.45 Q1276.64 1554.96 1278.83 1559 Q1281.57 1563.97 1286.31 1563.97 Q1291.09 1563.97 1293.73 1558.97 Q1296.05 1554.58 1296.43 1545.45 M1296.34 1540.03 Q1295.45 1531 1293.73 1527.81 Q1290.99 1522.78 1286.31 1522.78 Q1281.44 1522.78 1278.86 1527.75 Q1276.83 1531.76 1276.22 1540.03 L1296.34 1540.03 M1286.31 1518.01 Q1293.95 1518.01 1298.31 1524.76 Q1302.67 1531.47 1302.67 1543.38 Q1302.67 1555.25 1298.31 1562 Q1293.95 1568.78 1286.31 1568.78 Q1278.64 1568.78 1274.31 1562 Q1269.95 1555.25 1269.95 1543.38 Q1269.95 1531.47 1274.31 1524.76 Q1278.64 1518.01 1286.31 1518.01 Z" fill="#000000" fill-rule="evenodd" fill-opacity="1" /><polyline clip-path="url(#clip902)" style="stroke:#000000; stroke-linecap:round; stroke-linejoin:round; stroke-width:2; stroke-opacity:0.1; fill:none" points="
  219.866,1386.4 2352.76,1386.4 
  "/>
<polyline clip-path="url(#clip902)" style="stroke:#000000; stroke-linecap:round; stroke-linejoin:round; stroke-width:2; stroke-opacity:0.1; fill:none" points="
  219.866,1111.5 2352.76,1111.5 
  "/>
<polyline clip-path="url(#clip902)" style="stroke:#000000; stroke-linecap:round; stroke-linejoin:round; stroke-width:2; stroke-opacity:0.1; fill:none" points="
  219.866,836.596 2352.76,836.596 
  "/>
<polyline clip-path="url(#clip902)" style="stroke:#000000; stroke-linecap:round; stroke-linejoin:round; stroke-width:2; stroke-opacity:0.1; fill:none" points="
  219.866,561.696 2352.76,561.696 
  "/>
<polyline clip-path="url(#clip902)" style="stroke:#000000; stroke-linecap:round; stroke-linejoin:round; stroke-width:2; stroke-opacity:0.1; fill:none" points="
  219.866,286.796 2352.76,286.796 
  "/>
<polyline clip-path="url(#clip900)" style="stroke:#000000; stroke-linecap:round; stroke-linejoin:round; stroke-width:4; stroke-opacity:1; fill:none" points="
  219.866,1423.18 219.866,123.472 
  "/>
<polyline clip-path="url(#clip900)" style="stroke:#000000; stroke-linecap:round; stroke-linejoin:round; stroke-width:4; stroke-opacity:1; fill:none" points="
  219.866,1386.4 238.764,1386.4 
  "/>
<polyline clip-path="url(#clip900)" style="stroke:#000000; stroke-linecap:round; stroke-linejoin:round; stroke-width:4; stroke-opacity:1; fill:none" points="
  219.866,1111.5 238.764,1111.5 
  "/>
<polyline clip-path="url(#clip900)" style="stroke:#000000; stroke-linecap:round; stroke-linejoin:round; stroke-width:4; stroke-opacity:1; fill:none" points="
  219.866,836.596 238.764,836.596 
  "/>
<polyline clip-path="url(#clip900)" style="stroke:#000000; stroke-linecap:round; stroke-linejoin:round; stroke-width:4; stroke-opacity:1; fill:none" points="
  219.866,561.696 238.764,561.696 
  "/>
<polyline clip-path="url(#clip900)" style="stroke:#000000; stroke-linecap:round; stroke-linejoin:round; stroke-width:4; stroke-opacity:1; fill:none" points="
  219.866,286.796 238.764,286.796 
  "/>
<path clip-path="url(#clip900)" d="M126.691 1372.19 Q123.08 1372.19 121.251 1375.76 Q119.445 1379.3 119.445 1386.43 Q119.445 1393.54 121.251 1397.1 Q123.08 1400.64 126.691 1400.64 Q130.325 1400.64 132.13 1397.1 Q133.959 1393.54 133.959 1386.43 Q133.959 1379.3 132.13 1375.76 Q130.325 1372.19 126.691 1372.19 M126.691 1368.49 Q132.501 1368.49 135.556 1373.1 Q138.635 1377.68 138.635 1386.43 Q138.635 1395.16 135.556 1399.76 Q132.501 1404.35 126.691 1404.35 Q120.88 1404.35 117.802 1399.76 Q114.746 1395.16 114.746 1386.43 Q114.746 1377.68 117.802 1373.1 Q120.88 1368.49 126.691 1368.49 Z" fill="#000000" fill-rule="evenodd" fill-opacity="1" /><path clip-path="url(#clip900)" d="M146.853 1397.8 L151.737 1397.8 L151.737 1403.68 L146.853 1403.68 L146.853 1397.8 Z" fill="#000000" fill-rule="evenodd" fill-opacity="1" /><path clip-path="url(#clip900)" d="M171.922 1372.19 Q168.311 1372.19 166.482 1375.76 Q164.677 1379.3 164.677 1386.43 Q164.677 1393.54 166.482 1397.1 Q168.311 1400.64 171.922 1400.64 Q175.556 1400.64 177.362 1397.1 Q179.19 1393.54 179.19 1386.43 Q179.19 1379.3 177.362 1375.76 Q175.556 1372.19 171.922 1372.19 M171.922 1368.49 Q177.732 1368.49 180.788 1373.1 Q183.866 1377.68 183.866 1386.43 Q183.866 1395.16 180.788 1399.76 Q177.732 1404.35 171.922 1404.35 Q166.112 1404.35 163.033 1399.76 Q159.978 1395.16 159.978 1386.43 Q159.978 1377.68 163.033 1373.1 Q166.112 1368.49 171.922 1368.49 Z" fill="#000000" fill-rule="evenodd" fill-opacity="1" /><path clip-path="url(#clip900)" d="M128.288 1097.29 Q124.677 1097.29 122.848 1100.86 Q121.043 1104.4 121.043 1111.53 Q121.043 1118.64 122.848 1122.2 Q124.677 1125.74 128.288 1125.74 Q131.922 1125.74 133.728 1122.2 Q135.556 1118.64 135.556 1111.53 Q135.556 1104.4 133.728 1100.86 Q131.922 1097.29 128.288 1097.29 M128.288 1093.59 Q134.098 1093.59 137.154 1098.2 Q140.232 1102.78 140.232 1111.53 Q140.232 1120.26 137.154 1124.86 Q134.098 1129.45 128.288 1129.45 Q122.478 1129.45 119.399 1124.86 Q116.343 1120.26 116.343 1111.53 Q116.343 1102.78 119.399 1098.2 Q122.478 1093.59 128.288 1093.59 Z" fill="#000000" fill-rule="evenodd" fill-opacity="1" /><path clip-path="url(#clip900)" d="M148.45 1122.9 L153.334 1122.9 L153.334 1128.78 L148.45 1128.78 L148.45 1122.9 Z" fill="#000000" fill-rule="evenodd" fill-opacity="1" /><path clip-path="url(#clip900)" d="M167.547 1124.84 L183.866 1124.84 L183.866 1128.78 L161.922 1128.78 L161.922 1124.84 Q164.584 1122.09 169.167 1117.46 Q173.774 1112.8 174.954 1111.46 Q177.2 1108.94 178.079 1107.2 Q178.982 1105.44 178.982 1103.75 Q178.982 1101 177.038 1099.26 Q175.116 1097.53 172.014 1097.53 Q169.815 1097.53 167.362 1098.29 Q164.931 1099.05 162.153 1100.6 L162.153 1095.88 Q164.977 1094.75 167.431 1094.17 Q169.885 1093.59 171.922 1093.59 Q177.292 1093.59 180.487 1096.28 Q183.681 1098.96 183.681 1103.45 Q183.681 1105.58 182.871 1107.5 Q182.084 1109.4 179.977 1111.99 Q179.399 1112.66 176.297 1115.88 Q173.195 1119.08 167.547 1124.84 Z" fill="#000000" fill-rule="evenodd" fill-opacity="1" /><path clip-path="url(#clip900)" d="M126.205 822.394 Q122.593 822.394 120.765 825.959 Q118.959 829.501 118.959 836.63 Q118.959 843.737 120.765 847.302 Q122.593 850.843 126.205 850.843 Q129.839 850.843 131.644 847.302 Q133.473 843.737 133.473 836.63 Q133.473 829.501 131.644 825.959 Q129.839 822.394 126.205 822.394 M126.205 818.691 Q132.015 818.691 135.07 823.297 Q138.149 827.88 138.149 836.63 Q138.149 845.357 135.07 849.964 Q132.015 854.547 126.205 854.547 Q120.394 854.547 117.316 849.964 Q114.26 845.357 114.26 836.63 Q114.26 827.88 117.316 823.297 Q120.394 818.691 126.205 818.691 Z" fill="#000000" fill-rule="evenodd" fill-opacity="1" /><path clip-path="url(#clip900)" d="M146.366 847.996 L151.251 847.996 L151.251 853.876 L146.366 853.876 L146.366 847.996 Z" fill="#000000" fill-rule="evenodd" fill-opacity="1" /><path clip-path="url(#clip900)" d="M174.283 823.39 L162.477 841.839 L174.283 841.839 L174.283 823.39 M173.056 819.316 L178.936 819.316 L178.936 841.839 L183.866 841.839 L183.866 845.728 L178.936 845.728 L178.936 853.876 L174.283 853.876 L174.283 845.728 L158.681 845.728 L158.681 841.214 L173.056 819.316 Z" fill="#000000" fill-rule="evenodd" fill-opacity="1" /><path clip-path="url(#clip900)" d="M126.529 547.494 Q122.918 547.494 121.089 551.059 Q119.283 554.601 119.283 561.73 Q119.283 568.837 121.089 572.402 Q122.918 575.943 126.529 575.943 Q130.163 575.943 131.968 572.402 Q133.797 568.837 133.797 561.73 Q133.797 554.601 131.968 551.059 Q130.163 547.494 126.529 547.494 M126.529 543.791 Q132.339 543.791 135.394 548.397 Q138.473 552.98 138.473 561.73 Q138.473 570.457 135.394 575.064 Q132.339 579.647 126.529 579.647 Q120.718 579.647 117.64 575.064 Q114.584 570.457 114.584 561.73 Q114.584 552.98 117.64 548.397 Q120.718 543.791 126.529 543.791 Z" fill="#000000" fill-rule="evenodd" fill-opacity="1" /><path clip-path="url(#clip900)" d="M146.691 573.096 L151.575 573.096 L151.575 578.976 L146.691 578.976 L146.691 573.096 Z" fill="#000000" fill-rule="evenodd" fill-opacity="1" /><path clip-path="url(#clip900)" d="M172.339 559.832 Q169.19 559.832 167.339 561.985 Q165.51 564.138 165.51 567.888 Q165.51 571.615 167.339 573.79 Q169.19 575.943 172.339 575.943 Q175.487 575.943 177.315 573.79 Q179.167 571.615 179.167 567.888 Q179.167 564.138 177.315 561.985 Q175.487 559.832 172.339 559.832 M181.621 545.18 L181.621 549.439 Q179.862 548.605 178.056 548.166 Q176.274 547.726 174.514 547.726 Q169.885 547.726 167.431 550.851 Q165.001 553.976 164.653 560.295 Q166.019 558.281 168.079 557.216 Q170.139 556.129 172.616 556.129 Q177.825 556.129 180.834 559.3 Q183.866 562.448 183.866 567.888 Q183.866 573.212 180.718 576.429 Q177.57 579.647 172.339 579.647 Q166.343 579.647 163.172 575.064 Q160.001 570.457 160.001 561.73 Q160.001 553.536 163.89 548.675 Q167.778 543.791 174.329 543.791 Q176.089 543.791 177.871 544.138 Q179.676 544.485 181.621 545.18 Z" fill="#000000" fill-rule="evenodd" fill-opacity="1" /><path clip-path="url(#clip900)" d="M126.783 272.594 Q123.172 272.594 121.343 276.159 Q119.538 279.701 119.538 286.83 Q119.538 293.937 121.343 297.502 Q123.172 301.043 126.783 301.043 Q130.417 301.043 132.223 297.502 Q134.052 293.937 134.052 286.83 Q134.052 279.701 132.223 276.159 Q130.417 272.594 126.783 272.594 M126.783 268.891 Q132.593 268.891 135.649 273.497 Q138.728 278.08 138.728 286.83 Q138.728 295.557 135.649 300.164 Q132.593 304.747 126.783 304.747 Q120.973 304.747 117.894 300.164 Q114.839 295.557 114.839 286.83 Q114.839 278.08 117.894 273.497 Q120.973 268.891 126.783 268.891 Z" fill="#000000" fill-rule="evenodd" fill-opacity="1" /><path clip-path="url(#clip900)" d="M146.945 298.196 L151.829 298.196 L151.829 304.076 L146.945 304.076 L146.945 298.196 Z" fill="#000000" fill-rule="evenodd" fill-opacity="1" /><path clip-path="url(#clip900)" d="M172.014 287.664 Q168.681 287.664 166.76 289.446 Q164.862 291.228 164.862 294.353 Q164.862 297.478 166.76 299.261 Q168.681 301.043 172.014 301.043 Q175.348 301.043 177.269 299.261 Q179.19 297.455 179.19 294.353 Q179.19 291.228 177.269 289.446 Q175.371 287.664 172.014 287.664 M167.339 285.673 Q164.329 284.932 162.64 282.872 Q160.973 280.812 160.973 277.849 Q160.973 273.705 163.913 271.298 Q166.876 268.891 172.014 268.891 Q177.176 268.891 180.116 271.298 Q183.056 273.705 183.056 277.849 Q183.056 280.812 181.366 282.872 Q179.7 284.932 176.714 285.673 Q180.093 286.46 181.968 288.752 Q183.866 291.043 183.866 294.353 Q183.866 299.377 180.788 302.062 Q177.732 304.747 172.014 304.747 Q166.297 304.747 163.218 302.062 Q160.163 299.377 160.163 294.353 Q160.163 291.043 162.061 288.752 Q163.959 286.46 167.339 285.673 M165.626 278.289 Q165.626 280.974 167.292 282.479 Q168.982 283.983 172.014 283.983 Q175.024 283.983 176.714 282.479 Q178.426 280.974 178.426 278.289 Q178.426 275.604 176.714 274.099 Q175.024 272.594 172.014 272.594 Q168.982 272.594 167.292 274.099 Q165.626 275.604 165.626 278.289 Z" fill="#000000" fill-rule="evenodd" fill-opacity="1" /><path clip-path="url(#clip900)" d="M21.7677 856.192 L39.6235 856.192 L39.6235 848.107 Q39.6235 843.619 37.3 841.169 Q34.9765 838.718 30.6797 838.718 Q26.4147 838.718 24.0912 841.169 Q21.7677 843.619 21.7677 848.107 L21.7677 856.192 M16.4842 862.621 L16.4842 848.107 Q16.4842 840.118 20.1126 836.044 Q23.7092 831.938 30.6797 831.938 Q37.7138 831.938 41.3104 836.044 Q44.907 840.118 44.907 848.107 L44.907 856.192 L64.0042 856.192 L64.0042 862.621 L16.4842 862.621 Z" fill="#000000" fill-rule="evenodd" fill-opacity="1" /><path clip-path="url(#clip900)" d="M14.5426 809.499 Q21.8632 813.764 29.0246 815.833 Q36.186 817.902 43.5384 817.902 Q50.8908 817.902 58.1159 815.833 Q65.3091 813.732 72.5979 809.499 L72.5979 814.592 Q65.1182 819.366 57.8931 821.753 Q50.668 824.108 43.5384 824.108 Q36.4406 824.108 29.2474 821.753 Q22.0542 819.398 14.5426 814.592 L14.5426 809.499 Z" fill="#000000" fill-rule="evenodd" fill-opacity="1" /><path clip-path="url(#clip900)" d="M41.4059 774.201 L41.4059 794.476 Q50.9226 793.999 54.9649 791.802 Q59.9301 789.065 59.9301 784.323 Q59.9301 779.548 54.933 776.907 Q50.5407 774.583 41.4059 774.201 M35.995 774.297 Q26.9557 775.188 23.7729 776.907 Q18.744 779.644 18.744 784.323 Q18.744 789.193 23.7092 791.771 Q27.7196 793.808 35.995 794.412 L35.995 774.297 M13.9697 784.323 Q13.9697 776.684 20.7174 772.323 Q27.4332 767.963 39.337 767.963 Q51.2091 767.963 57.9567 772.323 Q64.7362 776.684 64.7362 784.323 Q64.7362 791.993 57.9567 796.322 Q51.2091 800.683 39.337 800.683 Q27.4332 800.683 20.7174 796.322 Q13.9697 791.993 13.9697 784.323 Z" fill="#000000" fill-rule="evenodd" fill-opacity="1" /><path clip-path="url(#clip900)" d="M14.1925 750.712 L79.3773 750.712 L79.3773 756.123 L14.1925 756.123 L14.1925 750.712 Z" fill="#000000" fill-rule="evenodd" fill-opacity="1" /><path clip-path="url(#clip900)" d="M67.3143 721.461 Q73.68 723.944 75.6216 726.299 Q77.5631 728.655 77.5631 732.601 L77.5631 737.28 L72.6615 737.28 L72.6615 733.843 Q72.6615 731.424 71.5157 730.087 Q70.3699 728.75 66.1048 727.127 L63.4312 726.077 L28.3562 740.495 L28.3562 734.288 L56.238 723.148 L28.3562 712.008 L28.3562 705.802 L67.3143 721.461 Z" fill="#000000" fill-rule="evenodd" fill-opacity="1" /><path clip-path="url(#clip900)" d="M14.5426 698.64 L14.5426 693.548 Q22.0542 688.773 29.2474 686.418 Q36.4406 684.031 43.5384 684.031 Q50.668 684.031 57.8931 686.418 Q65.1182 688.773 72.5979 693.548 L72.5979 698.64 Q65.3091 694.407 58.1159 692.338 Q50.8908 690.238 43.5384 690.238 Q36.186 690.238 29.0246 692.338 Q21.8632 694.407 14.5426 698.64 Z" fill="#000000" fill-rule="evenodd" fill-opacity="1" /><path clip-path="url(#clip900)" d="M649.934 18.8205 L649.934 41.5461 L660.224 41.5461 Q665.935 41.5461 669.055 38.5889 Q672.174 35.6318 672.174 30.163 Q672.174 24.7348 669.055 21.7777 Q665.935 18.8205 660.224 18.8205 L649.934 18.8205 M641.751 12.096 L660.224 12.096 Q670.391 12.096 675.577 16.714 Q680.802 21.2916 680.802 30.163 Q680.802 39.1155 675.577 43.6931 Q670.391 48.2706 660.224 48.2706 L649.934 48.2706 L649.934 72.576 L641.751 72.576 L641.751 12.096 Z" fill="#000000" fill-rule="evenodd" fill-opacity="1" /><path clip-path="url(#clip900)" d="M706.08 32.4315 Q700.084 32.4315 696.601 37.1306 Q693.117 41.7891 693.117 49.9314 Q693.117 58.0738 696.56 62.7728 Q700.044 67.4314 706.08 67.4314 Q712.035 67.4314 715.518 62.7323 Q719.002 58.0333 719.002 49.9314 Q719.002 41.8701 715.518 37.1711 Q712.035 32.4315 706.08 32.4315 M706.08 26.1121 Q715.802 26.1121 721.352 32.4315 Q726.901 38.7509 726.901 49.9314 Q726.901 61.0714 721.352 67.4314 Q715.802 73.7508 706.08 73.7508 Q696.317 73.7508 690.767 67.4314 Q685.258 61.0714 685.258 49.9314 Q685.258 38.7509 690.767 32.4315 Q696.317 26.1121 706.08 26.1121 Z" fill="#000000" fill-rule="evenodd" fill-opacity="1" /><path clip-path="url(#clip900)" d="M746.467 65.7705 L746.467 89.8329 L738.973 89.8329 L738.973 27.2059 L746.467 27.2059 L746.467 34.0924 Q748.817 30.0415 752.382 28.0971 Q755.987 26.1121 760.97 26.1121 Q769.233 26.1121 774.378 32.6746 Q779.563 39.2371 779.563 49.9314 Q779.563 60.6258 774.378 67.1883 Q769.233 73.7508 760.97 73.7508 Q755.987 73.7508 752.382 71.8063 Q748.817 69.8214 746.467 65.7705 M771.826 49.9314 Q771.826 41.7081 768.423 37.0496 Q765.061 32.3505 759.147 32.3505 Q753.232 32.3505 749.83 37.0496 Q746.467 41.7081 746.467 49.9314 Q746.467 58.1548 749.83 62.8538 Q753.232 67.5124 759.147 67.5124 Q765.061 67.5124 768.423 62.8538 Q771.826 58.1548 771.826 49.9314 Z" fill="#000000" fill-rule="evenodd" fill-opacity="1" /><path clip-path="url(#clip900)" d="M848.145 34.0924 L848.145 9.54393 L855.599 9.54393 L855.599 72.576 L848.145 72.576 L848.145 65.7705 Q845.796 69.8214 842.19 71.8063 Q838.625 73.7508 833.602 73.7508 Q825.379 73.7508 820.194 67.1883 Q815.049 60.6258 815.049 49.9314 Q815.049 39.2371 820.194 32.6746 Q825.379 26.1121 833.602 26.1121 Q838.625 26.1121 842.19 28.0971 Q845.796 30.0415 848.145 34.0924 M822.746 49.9314 Q822.746 58.1548 826.108 62.8538 Q829.511 67.5124 835.425 67.5124 Q841.34 67.5124 844.742 62.8538 Q848.145 58.1548 848.145 49.9314 Q848.145 41.7081 844.742 37.0496 Q841.34 32.3505 835.425 32.3505 Q829.511 32.3505 826.108 37.0496 Q822.746 41.7081 822.746 49.9314 Z" fill="#000000" fill-rule="evenodd" fill-opacity="1" /><path clip-path="url(#clip900)" d="M870.952 27.2059 L878.405 27.2059 L878.405 72.576 L870.952 72.576 L870.952 27.2059 M870.952 9.54393 L878.405 9.54393 L878.405 18.9825 L870.952 18.9825 L870.952 9.54393 Z" fill="#000000" fill-rule="evenodd" fill-opacity="1" /><path clip-path="url(#clip900)" d="M922.925 28.5427 L922.925 35.5912 Q919.765 33.9709 916.362 33.1607 Q912.959 32.3505 909.314 32.3505 Q903.764 32.3505 900.969 34.0519 Q898.214 35.7533 898.214 39.156 Q898.214 41.7486 900.199 43.2475 Q902.184 44.7058 908.179 46.0426 L910.732 46.6097 Q918.671 48.3111 921.993 51.4303 Q925.355 54.509 925.355 60.0587 Q925.355 66.3781 920.332 70.0644 Q915.35 73.7508 906.6 73.7508 Q902.954 73.7508 898.984 73.0216 Q895.055 72.3329 890.68 70.9151 L890.68 63.2184 Q894.811 65.3654 898.822 66.4591 Q902.832 67.5124 906.762 67.5124 Q912.028 67.5124 914.863 65.73 Q917.699 63.9071 917.699 60.6258 Q917.699 57.5877 915.633 55.9673 Q913.608 54.3469 906.681 52.8481 L904.088 52.2405 Q897.161 50.7821 894.082 47.7845 Q891.004 44.7463 891.004 39.4801 Q891.004 33.0797 895.541 29.5959 Q900.078 26.1121 908.422 26.1121 Q912.554 26.1121 916.2 26.7198 Q919.846 27.3274 922.925 28.5427 Z" fill="#000000" fill-rule="evenodd" fill-opacity="1" /><path clip-path="url(#clip900)" d="M944.597 14.324 L944.597 27.2059 L959.95 27.2059 L959.95 32.9987 L944.597 32.9987 L944.597 57.6282 Q944.597 63.1779 946.096 64.7578 Q947.635 66.3376 952.294 66.3376 L959.95 66.3376 L959.95 72.576 L952.294 72.576 Q943.665 72.576 940.384 69.3758 Q937.103 66.1351 937.103 57.6282 L937.103 32.9987 L931.634 32.9987 L931.634 27.2059 L937.103 27.2059 L937.103 14.324 L944.597 14.324 Z" fill="#000000" fill-rule="evenodd" fill-opacity="1" /><path clip-path="url(#clip900)" d="M970.806 62.2867 L979.354 62.2867 L979.354 72.576 L970.806 72.576 L970.806 62.2867 Z" fill="#000000" fill-rule="evenodd" fill-opacity="1" /><path clip-path="url(#clip900)" d="M1040.08 32.4315 Q1034.08 32.4315 1030.6 37.1306 Q1027.11 41.7891 1027.11 49.9314 Q1027.11 58.0738 1030.56 62.7728 Q1034.04 67.4314 1040.08 67.4314 Q1046.03 67.4314 1049.52 62.7323 Q1053 58.0333 1053 49.9314 Q1053 41.8701 1049.52 37.1711 Q1046.03 32.4315 1040.08 32.4315 M1040.08 26.1121 Q1049.8 26.1121 1055.35 32.4315 Q1060.9 38.7509 1060.9 49.9314 Q1060.9 61.0714 1055.35 67.4314 Q1049.8 73.7508 1040.08 73.7508 Q1030.31 73.7508 1024.76 67.4314 Q1019.26 61.0714 1019.26 49.9314 Q1019.26 38.7509 1024.76 32.4315 Q1030.31 26.1121 1040.08 26.1121 Z" fill="#000000" fill-rule="evenodd" fill-opacity="1" /><path clip-path="url(#clip900)" d="M1096.22 9.54393 L1096.22 15.7418 L1089.09 15.7418 Q1085.08 15.7418 1083.5 17.3622 Q1081.96 18.9825 1081.96 23.1955 L1081.96 27.2059 L1094.24 27.2059 L1094.24 32.9987 L1081.96 32.9987 L1081.96 72.576 L1074.47 72.576 L1074.47 32.9987 L1067.34 32.9987 L1067.34 27.2059 L1074.47 27.2059 L1074.47 24.0462 Q1074.47 16.471 1077.99 13.0277 Q1081.52 9.54393 1089.17 9.54393 L1096.22 9.54393 Z" fill="#000000" fill-rule="evenodd" fill-opacity="1" /><path clip-path="url(#clip900)" d="M1174.45 16.7545 L1174.45 25.383 Q1170.31 21.5346 1165.61 19.6307 Q1160.96 17.7268 1155.69 17.7268 Q1145.32 17.7268 1139.81 24.0867 Q1134.3 30.4061 1134.3 42.3968 Q1134.3 54.3469 1139.81 60.7069 Q1145.32 67.0263 1155.69 67.0263 Q1160.96 67.0263 1165.61 65.1223 Q1170.31 63.2184 1174.45 59.3701 L1174.45 67.9175 Q1170.15 70.8341 1165.33 72.2924 Q1160.55 73.7508 1155.2 73.7508 Q1141.47 73.7508 1133.57 65.3654 Q1125.67 56.9395 1125.67 42.3968 Q1125.67 27.8135 1133.57 19.4281 Q1141.47 11.0023 1155.2 11.0023 Q1160.63 11.0023 1165.41 12.4606 Q1170.23 13.8784 1174.45 16.7545 Z" fill="#000000" fill-rule="evenodd" fill-opacity="1" /><path clip-path="url(#clip900)" d="M1185.99 54.671 L1185.99 27.2059 L1193.44 27.2059 L1193.44 54.3874 Q1193.44 60.8284 1195.96 64.0691 Q1198.47 67.2693 1203.49 67.2693 Q1209.53 67.2693 1213.01 63.421 Q1216.53 59.5726 1216.53 52.9291 L1216.53 27.2059 L1223.99 27.2059 L1223.99 72.576 L1216.53 72.576 L1216.53 65.6084 Q1213.82 69.7404 1210.21 71.7658 Q1206.65 73.7508 1201.91 73.7508 Q1194.09 73.7508 1190.04 68.8897 Q1185.99 64.0286 1185.99 54.671 M1204.75 26.1121 L1204.75 26.1121 Z" fill="#000000" fill-rule="evenodd" fill-opacity="1" /><path clip-path="url(#clip900)" d="M1259.96 49.7694 Q1250.93 49.7694 1247.44 51.8354 Q1243.96 53.9013 1243.96 58.8839 Q1243.96 62.8538 1246.55 65.2034 Q1249.18 67.5124 1253.68 67.5124 Q1259.88 67.5124 1263.61 63.1374 Q1267.37 58.7219 1267.37 51.4303 L1267.37 49.7694 L1259.96 49.7694 M1274.83 46.6907 L1274.83 72.576 L1267.37 72.576 L1267.37 65.6895 Q1264.82 69.8214 1261.01 71.8063 Q1257.21 73.7508 1251.7 73.7508 Q1244.73 73.7508 1240.6 69.8619 Q1236.51 65.9325 1236.51 59.3701 Q1236.51 51.7138 1241.61 47.825 Q1246.75 43.9361 1256.92 43.9361 L1267.37 43.9361 L1267.37 43.2069 Q1267.37 38.0623 1263.97 35.2672 Q1260.61 32.4315 1254.49 32.4315 Q1250.6 32.4315 1246.92 33.3632 Q1243.23 34.295 1239.83 36.1584 L1239.83 29.2718 Q1243.92 27.692 1247.77 26.9223 Q1251.62 26.1121 1255.26 26.1121 Q1265.1 26.1121 1269.97 31.2163 Q1274.83 36.3204 1274.83 46.6907 Z" fill="#000000" fill-rule="evenodd" fill-opacity="1" /><path clip-path="url(#clip900)" d="M1322.83 28.9478 L1322.83 35.9153 Q1319.67 34.1734 1316.47 33.3227 Q1313.31 32.4315 1310.07 32.4315 Q1302.82 32.4315 1298.81 37.0496 Q1294.8 41.6271 1294.8 49.9314 Q1294.8 58.2358 1298.81 62.8538 Q1302.82 67.4314 1310.07 67.4314 Q1313.31 67.4314 1316.47 66.5807 Q1319.67 65.6895 1322.83 63.9476 L1322.83 70.8341 Q1319.71 72.2924 1316.35 73.0216 Q1313.03 73.7508 1309.26 73.7508 Q1299.01 73.7508 1292.97 67.3098 Q1286.94 60.8689 1286.94 49.9314 Q1286.94 38.832 1293.02 32.472 Q1299.13 26.1121 1309.75 26.1121 Q1313.19 26.1121 1316.47 26.8413 Q1319.75 27.5299 1322.83 28.9478 Z" fill="#000000" fill-rule="evenodd" fill-opacity="1" /><path clip-path="url(#clip900)" d="M1373.51 45.1919 L1373.51 72.576 L1366.05 72.576 L1366.05 45.4349 Q1366.05 38.994 1363.54 35.7938 Q1361.03 32.5936 1356.01 32.5936 Q1349.97 32.5936 1346.49 36.4419 Q1343 40.2903 1343 46.9338 L1343 72.576 L1335.51 72.576 L1335.51 9.54393 L1343 9.54393 L1343 34.2544 Q1345.68 30.163 1349.28 28.1376 Q1352.93 26.1121 1357.67 26.1121 Q1365.49 26.1121 1369.5 30.9732 Q1373.51 35.7938 1373.51 45.1919 Z" fill="#000000" fill-rule="evenodd" fill-opacity="1" /><path clip-path="url(#clip900)" d="M1407.25 76.7889 Q1404.09 84.8907 1401.09 87.3618 Q1398.1 89.8329 1393.07 89.8329 L1387.12 89.8329 L1387.12 83.5945 L1391.49 83.5945 Q1394.57 83.5945 1396.27 82.1361 Q1397.97 80.6778 1400.04 75.2496 L1401.38 71.8468 L1383.03 27.2059 L1390.93 27.2059 L1405.1 62.6918 L1419.28 27.2059 L1427.18 27.2059 L1407.25 76.7889 Z" fill="#000000" fill-rule="evenodd" fill-opacity="1" /><path clip-path="url(#clip900)" d="M1484.46 49.7694 Q1475.43 49.7694 1471.94 51.8354 Q1468.46 53.9013 1468.46 58.8839 Q1468.46 62.8538 1471.05 65.2034 Q1473.69 67.5124 1478.18 67.5124 Q1484.38 67.5124 1488.11 63.1374 Q1491.87 58.7219 1491.87 51.4303 L1491.87 49.7694 L1484.46 49.7694 M1499.33 46.6907 L1499.33 72.576 L1491.87 72.576 L1491.87 65.6895 Q1489.32 69.8214 1485.51 71.8063 Q1481.71 73.7508 1476.2 73.7508 Q1469.23 73.7508 1465.1 69.8619 Q1461.01 65.9325 1461.01 59.3701 Q1461.01 51.7138 1466.11 47.825 Q1471.26 43.9361 1481.42 43.9361 L1491.87 43.9361 L1491.87 43.2069 Q1491.87 38.0623 1488.47 35.2672 Q1485.11 32.4315 1478.99 32.4315 Q1475.1 32.4315 1471.42 33.3632 Q1467.73 34.295 1464.33 36.1584 L1464.33 29.2718 Q1468.42 27.692 1472.27 26.9223 Q1476.12 26.1121 1479.76 26.1121 Q1489.61 26.1121 1494.47 31.2163 Q1499.33 36.3204 1499.33 46.6907 Z" fill="#000000" fill-rule="evenodd" fill-opacity="1" /><path clip-path="url(#clip900)" d="M1552.39 45.1919 L1552.39 72.576 L1544.94 72.576 L1544.94 45.4349 Q1544.94 38.994 1542.43 35.7938 Q1539.92 32.5936 1534.89 32.5936 Q1528.86 32.5936 1525.38 36.4419 Q1521.89 40.2903 1521.89 46.9338 L1521.89 72.576 L1514.4 72.576 L1514.4 27.2059 L1521.89 27.2059 L1521.89 34.2544 Q1524.57 30.163 1528.17 28.1376 Q1531.82 26.1121 1536.56 26.1121 Q1544.37 26.1121 1548.38 30.9732 Q1552.39 35.7938 1552.39 45.1919 Z" fill="#000000" fill-rule="evenodd" fill-opacity="1" /><path clip-path="url(#clip900)" d="M1597.12 34.0924 L1597.12 9.54393 L1604.57 9.54393 L1604.57 72.576 L1597.12 72.576 L1597.12 65.7705 Q1594.77 69.8214 1591.16 71.8063 Q1587.6 73.7508 1582.57 73.7508 Q1574.35 73.7508 1569.17 67.1883 Q1564.02 60.6258 1564.02 49.9314 Q1564.02 39.2371 1569.17 32.6746 Q1574.35 26.1121 1582.57 26.1121 Q1587.6 26.1121 1591.16 28.0971 Q1594.77 30.0415 1597.12 34.0924 M1571.72 49.9314 Q1571.72 58.1548 1575.08 62.8538 Q1578.48 67.5124 1584.4 67.5124 Q1590.31 67.5124 1593.71 62.8538 Q1597.12 58.1548 1597.12 49.9314 Q1597.12 41.7081 1593.71 37.0496 Q1590.31 32.3505 1584.4 32.3505 Q1578.48 32.3505 1575.08 37.0496 Q1571.72 41.7081 1571.72 49.9314 Z" fill="#000000" fill-rule="evenodd" fill-opacity="1" /><path clip-path="url(#clip900)" d="M1646.62 12.096 L1657.64 12.096 L1684.45 62.6918 L1684.45 12.096 L1692.39 12.096 L1692.39 72.576 L1681.38 72.576 L1654.56 21.9802 L1654.56 72.576 L1646.62 72.576 L1646.62 12.096 Z" fill="#000000" fill-rule="evenodd" fill-opacity="1" /><path clip-path="url(#clip900)" d="M1725.94 32.4315 Q1719.94 32.4315 1716.46 37.1306 Q1712.97 41.7891 1712.97 49.9314 Q1712.97 58.0738 1716.42 62.7728 Q1719.9 67.4314 1725.94 67.4314 Q1731.89 67.4314 1735.37 62.7323 Q1738.86 58.0333 1738.86 49.9314 Q1738.86 41.8701 1735.37 37.1711 Q1731.89 32.4315 1725.94 32.4315 M1725.94 26.1121 Q1735.66 26.1121 1741.21 32.4315 Q1746.76 38.7509 1746.76 49.9314 Q1746.76 61.0714 1741.21 67.4314 Q1735.66 73.7508 1725.94 73.7508 Q1716.17 73.7508 1710.62 67.4314 Q1705.11 61.0714 1705.11 49.9314 Q1705.11 38.7509 1710.62 32.4315 Q1716.17 26.1121 1725.94 26.1121 Z" fill="#000000" fill-rule="evenodd" fill-opacity="1" /><path clip-path="url(#clip900)" d="M1785.4 34.1734 Q1784.15 33.4443 1782.65 33.1202 Q1781.19 32.7556 1779.41 32.7556 Q1773.09 32.7556 1769.69 36.8875 Q1766.32 40.9789 1766.32 48.6757 L1766.32 72.576 L1758.83 72.576 L1758.83 27.2059 L1766.32 27.2059 L1766.32 34.2544 Q1768.67 30.1225 1772.44 28.1376 Q1776.21 26.1121 1781.59 26.1121 Q1782.36 26.1121 1783.3 26.2337 Q1784.23 26.3147 1785.36 26.5172 L1785.4 34.1734 Z" fill="#000000" fill-rule="evenodd" fill-opacity="1" /><path clip-path="url(#clip900)" d="M1827.09 35.9153 Q1829.88 30.8922 1833.77 28.5022 Q1837.66 26.1121 1842.93 26.1121 Q1850.01 26.1121 1853.86 31.0947 Q1857.71 36.0368 1857.71 45.1919 L1857.71 72.576 L1850.22 72.576 L1850.22 45.4349 Q1850.22 38.913 1847.91 35.7533 Q1845.6 32.5936 1840.86 32.5936 Q1835.07 32.5936 1831.7 36.4419 Q1828.34 40.2903 1828.34 46.9338 L1828.34 72.576 L1820.85 72.576 L1820.85 45.4349 Q1820.85 38.8725 1818.54 35.7533 Q1816.23 32.5936 1811.41 32.5936 Q1805.7 32.5936 1802.34 36.4824 Q1798.97 40.3308 1798.97 46.9338 L1798.97 72.576 L1791.48 72.576 L1791.48 27.2059 L1798.97 27.2059 L1798.97 34.2544 Q1801.53 30.082 1805.09 28.0971 Q1808.65 26.1121 1813.56 26.1121 Q1818.5 26.1121 1821.94 28.6237 Q1825.43 31.1352 1827.09 35.9153 Z" fill="#000000" fill-rule="evenodd" fill-opacity="1" /><path clip-path="url(#clip900)" d="M1893.2 49.7694 Q1884.16 49.7694 1880.68 51.8354 Q1877.2 53.9013 1877.2 58.8839 Q1877.2 62.8538 1879.79 65.2034 Q1882.42 67.5124 1886.92 67.5124 Q1893.12 67.5124 1896.84 63.1374 Q1900.61 58.7219 1900.61 51.4303 L1900.61 49.7694 L1893.2 49.7694 M1908.06 46.6907 L1908.06 72.576 L1900.61 72.576 L1900.61 65.6895 Q1898.06 69.8214 1894.25 71.8063 Q1890.44 73.7508 1884.93 73.7508 Q1877.97 73.7508 1873.83 69.8619 Q1869.74 65.9325 1869.74 59.3701 Q1869.74 51.7138 1874.85 47.825 Q1879.99 43.9361 1890.16 43.9361 L1900.61 43.9361 L1900.61 43.2069 Q1900.61 38.0623 1897.21 35.2672 Q1893.85 32.4315 1887.73 32.4315 Q1883.84 32.4315 1880.15 33.3632 Q1876.47 34.295 1873.06 36.1584 L1873.06 29.2718 Q1877.16 27.692 1881 26.9223 Q1884.85 26.1121 1888.5 26.1121 Q1898.34 26.1121 1903.2 31.2163 Q1908.06 36.3204 1908.06 46.6907 Z" fill="#000000" fill-rule="evenodd" fill-opacity="1" /><path clip-path="url(#clip900)" d="M1923.42 9.54393 L1930.87 9.54393 L1930.87 72.576 L1923.42 72.576 L1923.42 9.54393 Z" fill="#000000" fill-rule="evenodd" fill-opacity="1" /><polyline clip-path="url(#clip902)" style="stroke:#009af9; stroke-linecap:round; stroke-linejoin:round; stroke-width:4; stroke-opacity:1; fill:none" points="
  280.231,1386.4 281.779,1386.4 283.327,1386.4 284.875,1386.4 286.422,1386.4 287.97,1386.4 289.518,1386.4 291.066,1386.4 292.614,1386.4 294.161,1386.4 
  295.709,1386.4 297.257,1386.4 298.805,1386.4 300.353,1386.4 301.9,1386.4 303.448,1386.4 304.996,1386.4 306.544,1386.4 308.092,1386.4 309.64,1386.4 
  311.187,1386.4 312.735,1386.4 314.283,1386.4 315.831,1386.4 317.379,1386.4 318.926,1386.4 320.474,1386.4 322.022,1386.4 323.57,1386.4 325.118,1386.4 
  326.666,1386.4 328.213,1386.4 329.761,1386.4 331.309,1386.4 332.857,1386.4 334.405,1386.4 335.952,1386.4 337.5,1386.4 339.048,1386.4 340.596,1386.4 
  342.144,1386.4 343.691,1386.4 345.239,1386.4 346.787,1386.4 348.335,1386.4 349.883,1386.4 351.431,1386.4 352.978,1386.4 354.526,1386.4 356.074,1386.4 
  357.622,1386.4 359.17,1386.4 360.717,1386.4 362.265,1386.4 363.813,1386.4 365.361,1386.4 366.909,1386.4 368.457,1386.4 370.004,1386.4 371.552,1386.4 
  373.1,1386.4 374.648,1386.4 376.196,1386.4 377.743,1386.4 379.291,1386.4 380.839,1386.4 382.387,1386.4 383.935,1386.4 385.483,1386.4 387.03,1386.4 
  388.578,1386.4 390.126,1386.4 391.674,1386.4 393.222,1386.4 394.769,1386.4 396.317,1386.4 397.865,1386.4 399.413,1386.4 400.961,1386.4 402.508,1386.4 
  404.056,1386.4 405.604,1386.4 407.152,1386.4 408.7,1386.4 410.248,1386.4 411.795,1386.4 413.343,1386.4 414.891,1386.4 416.439,1386.4 417.987,1386.4 
  419.534,1386.4 421.082,1386.4 422.63,1386.4 424.178,1386.4 425.726,1386.4 427.274,1386.4 428.821,1386.4 430.369,1386.4 431.917,1386.4 433.465,1386.4 
  435.013,1386.4 436.56,1386.4 438.108,1386.4 439.656,1386.4 441.204,1386.4 442.752,1386.4 444.3,1386.4 445.847,1386.4 447.395,1386.4 448.943,1386.4 
  450.491,1386.4 452.039,1386.4 453.586,1386.4 455.134,1386.4 456.682,1386.4 458.23,1386.4 459.778,1386.4 461.325,1386.4 462.873,1386.4 464.421,1386.4 
  465.969,1386.4 467.517,1386.4 469.065,1386.4 470.612,1386.4 472.16,1386.4 473.708,1386.4 475.256,1386.4 476.804,1386.4 478.351,1386.4 479.899,1386.4 
  481.447,1386.4 482.995,1386.4 484.543,1386.4 486.091,1386.4 487.638,1386.4 489.186,1386.4 490.734,1386.4 492.282,1386.4 493.83,1386.4 495.377,1386.4 
  496.925,1386.4 498.473,1386.4 500.021,1386.4 501.569,1386.4 503.116,1386.4 504.664,1386.4 506.212,1386.4 507.76,1386.4 509.308,1386.4 510.856,1386.4 
  512.403,1386.4 513.951,1386.4 515.499,1386.4 517.047,1386.4 518.595,1386.4 520.142,1386.4 521.69,1386.4 523.238,1386.4 524.786,1386.4 526.334,1386.4 
  527.882,1386.4 529.429,1386.4 530.977,1386.4 532.525,1386.4 534.073,1386.4 535.621,1386.4 537.168,1386.4 538.716,1386.4 540.264,1386.4 541.812,1386.4 
  543.36,1386.4 544.908,1386.4 546.455,1386.4 548.003,1386.4 549.551,1386.4 551.099,1386.4 552.647,1386.4 554.194,1386.4 555.742,1386.4 557.29,1386.4 
  558.838,1386.4 560.386,1386.4 561.933,1386.4 563.481,1386.4 565.029,1386.4 566.577,1386.4 568.125,1386.4 569.673,1386.4 571.22,1386.4 572.768,1386.4 
  574.316,1386.4 575.864,1386.4 577.412,1386.4 578.959,1386.4 580.507,1386.4 582.055,1386.4 583.603,1386.4 585.151,1386.4 586.699,1386.4 588.246,1386.4 
  589.794,1386.4 591.342,1386.4 592.89,1386.4 594.438,1386.4 595.985,1386.4 597.533,1386.4 599.081,1386.4 600.629,1386.4 602.177,1386.4 603.724,1386.4 
  605.272,1386.4 606.82,1386.4 608.368,1386.4 609.916,1386.4 611.464,1386.4 613.011,1386.4 614.559,1386.4 616.107,1386.4 617.655,1386.4 619.203,1386.4 
  620.75,1386.4 622.298,1386.4 623.846,1386.4 625.394,1386.4 626.942,1386.4 628.49,1386.4 630.037,1386.4 631.585,1386.4 633.133,1386.4 634.681,1386.4 
  636.229,1386.4 637.776,1386.4 639.324,1386.4 640.872,1386.4 642.42,1386.4 643.968,1386.4 645.516,1386.4 647.063,1386.4 648.611,1386.4 650.159,1386.4 
  651.707,1386.4 653.255,1386.4 654.802,1386.4 656.35,1386.4 657.898,1386.4 659.446,1386.4 660.994,1386.4 662.541,1386.4 664.089,1386.4 665.637,1386.4 
  667.185,1386.4 668.733,1386.4 670.281,1386.4 671.828,1386.4 673.376,1386.4 674.924,1386.4 676.472,1386.4 678.02,1386.4 679.567,1386.4 681.115,1386.4 
  682.663,1386.4 684.211,1386.4 685.759,1386.4 687.307,1386.4 688.854,1386.4 690.402,1386.4 691.95,1386.4 693.498,1386.4 695.046,1386.4 696.593,1386.4 
  698.141,1386.4 699.689,1386.4 701.237,1386.4 702.785,1386.4 704.332,1386.4 705.88,1386.4 707.428,1386.4 708.976,1386.4 710.524,1386.4 712.072,1386.4 
  713.619,1386.4 715.167,1386.4 716.715,1386.4 718.263,1386.4 719.811,1386.4 721.358,1386.4 722.906,1386.4 724.454,1386.4 726.002,1386.4 727.55,1386.4 
  729.098,1386.39 730.645,1386.39 732.193,1386.39 733.741,1386.38 735.289,1386.37 736.837,1386.36 738.384,1386.34 739.932,1386.32 741.48,1386.29 743.028,1386.27 
  744.576,1386.25 746.124,1386.23 747.671,1386.22 749.219,1386.22 750.767,1386.22 752.315,1386.23 753.863,1386.23 755.41,1386.23 756.958,1386.21 758.506,1386.19 
  760.054,1386.15 761.602,1386.1 763.149,1386.04 764.697,1385.98 766.245,1385.92 767.793,1385.87 769.341,1385.84 770.889,1385.81 772.436,1385.81 773.984,1385.82 
  775.532,1385.85 777.08,1385.88 778.628,1385.92 780.175,1385.94 781.723,1385.94 783.271,1385.92 784.819,1385.88 786.367,1385.82 787.915,1385.75 789.462,1385.67 
  791.01,1385.6 792.558,1385.53 794.106,1385.47 795.654,1385.4 797.201,1385.34 798.749,1385.28 800.297,1385.25 801.845,1385.23 803.393,1385.23 804.94,1385.22 
  806.488,1385.18 808.036,1385.08 809.584,1384.93 811.132,1384.7 812.68,1384.4 814.227,1384.04 815.775,1383.63 817.323,1383.18 818.871,1382.68 820.419,1382.13 
  821.966,1381.55 823.514,1380.94 825.062,1380.31 826.61,1379.66 828.158,1379 829.706,1378.34 831.253,1377.68 832.801,1377.06 834.349,1376.5 835.897,1376 
  837.445,1375.57 838.992,1375.17 840.54,1374.75 842.088,1374.27 843.636,1373.67 845.184,1372.92 846.732,1372.02 848.279,1370.99 849.827,1369.92 851.375,1368.85 
  852.923,1367.86 854.471,1366.95 856.018,1366.1 857.566,1365.24 859.114,1364.31 860.662,1363.26 862.21,1362.03 863.757,1360.61 865.305,1358.99 866.853,1357.19 
  868.401,1355.21 869.949,1353.08 871.497,1350.81 873.044,1348.4 874.592,1345.86 876.14,1343.16 877.688,1340.32 879.236,1337.35 880.783,1334.27 882.331,1331.08 
  883.879,1327.78 885.427,1324.34 886.975,1320.79 888.523,1317.16 890.07,1313.52 891.618,1309.87 893.166,1306.19 894.714,1302.34 896.262,1298.2 897.809,1293.67 
  899.357,1288.73 900.905,1283.45 902.453,1277.93 904.001,1272.23 905.548,1266.34 907.096,1260.19 908.644,1253.72 910.192,1246.9 911.74,1239.79 913.288,1232.44 
  914.835,1224.91 916.383,1217.17 917.931,1209.13 919.479,1200.65 921.027,1191.6 922.574,1181.94 924.122,1171.68 925.67,1160.96 927.218,1150.01 928.766,1139.06 
  930.314,1128.34 931.861,1118.01 933.409,1108.12 934.957,1098.64 936.505,1089.41 938.053,1080.2 939.6,1070.7 941.148,1060.59 942.696,1049.63 944.244,1037.72 
  945.792,1024.9 947.34,1011.36 948.887,997.411 950.435,983.398 951.983,969.58 953.531,956.067 955.079,942.785 956.626,929.523 958.174,916.026 959.722,902.09 
  961.27,887.636 962.818,872.732 964.365,857.582 965.913,842.467 967.461,827.665 969.009,813.347 970.557,799.489 972.105,785.854 973.652,772.059 975.2,757.715 
  976.748,742.565 978.296,726.546 979.844,709.77 981.391,692.431 982.939,674.724 984.487,656.806 986.035,638.787 987.583,620.748 989.131,602.749 990.678,584.824 
  992.226,566.975 993.774,549.161 995.322,531.329 996.87,513.495 998.417,495.843 999.965,478.79 1001.51,462.925 1003.06,448.825 1004.61,436.815 1006.16,426.798 
  1007.7,418.242 1009.25,410.334 1010.8,402.202 1012.35,393.107 1013.9,382.529 1015.44,370.16 1016.99,355.886 1018.54,339.802 1020.09,322.257 1021.63,303.896 
  1023.18,285.613 1024.73,268.414 1026.28,253.214 1027.83,240.61 1029.37,230.722 1030.92,223.169 1032.47,217.227 1034.02,212.105 1035.56,207.236 1037.11,202.428 
  1038.66,197.788 1040.21,193.49 1041.76,189.542 1043.3,185.72 1044.85,181.698 1046.4,177.283 1047.95,172.592 1049.5,168.069 1051.04,164.337 1052.59,161.987 
  1054.14,161.389 1055.69,162.586 1057.23,165.29 1058.78,168.983 1060.33,173.097 1061.88,177.224 1063.43,181.285 1064.97,185.556 1066.52,190.503 1068.07,196.509 
  1069.62,203.608 1071.16,211.417 1072.71,219.296 1074.26,226.664 1075.81,233.277 1077.36,239.337 1078.9,245.385 1080.45,252.062 1082,259.876 1083.55,269.048 
  1085.1,279.5 1086.64,290.934 1088.19,302.964 1089.74,315.251 1091.29,327.574 1092.83,339.854 1094.38,352.12 1095.93,364.466 1097.48,377.013 1099.03,389.889 
  1100.57,403.225 1102.12,417.159 1103.67,431.828 1105.22,447.329 1106.76,463.631 1108.31,480.501 1109.86,497.482 1111.41,514 1112.96,529.572 1114.5,544.049 
  1116.05,557.74 1117.6,571.352 1119.15,585.738 1120.69,601.562 1122.24,619.052 1123.79,637.93 1125.34,657.55 1126.89,677.155 1128.43,696.139 1129.98,714.199 
  1131.53,731.347 1133.08,747.805 1134.63,763.854 1136.17,779.713 1137.72,795.476 1139.27,811.123 1140.82,826.55 1142.36,841.594 1143.91,856.05 1145.46,869.692 
  1147.01,882.33 1148.56,893.904 1150.1,904.584 1151.65,914.813 1153.2,925.247 1154.75,936.575 1156.29,949.302 1157.84,963.574 1159.39,979.132 1160.94,995.397 
  1162.49,1011.66 1164.03,1027.28 1165.58,1041.85 1167.13,1055.28 1168.68,1067.68 1170.22,1079.26 1171.77,1090.22 1173.32,1100.62 1174.87,1110.44 1176.42,1119.66 
  1177.96,1128.38 1179.51,1136.81 1181.06,1145.27 1182.61,1154.08 1184.16,1163.42 1185.7,1173.31 1187.25,1183.57 1188.8,1193.94 1190.35,1204.12 1191.89,1213.89 
  1193.44,1223.09 1194.99,1231.63 1196.54,1239.45 1198.09,1246.5 1199.63,1252.77 1201.18,1258.27 1202.73,1263.07 1204.28,1267.27 1205.82,1271.01 1207.37,1274.52 
  1208.92,1278.05 1210.47,1281.87 1212.02,1286.18 1213.56,1291.06 1215.11,1296.4 1216.66,1301.94 1218.21,1307.38 1219.76,1312.45 1221.3,1317 1222.85,1320.99 
  1224.4,1324.49 1225.95,1327.59 1227.49,1330.37 1229.04,1332.95 1230.59,1335.42 1232.14,1337.9 1233.69,1340.44 1235.23,1343.04 1236.78,1345.65 1238.33,1348.15 
  1239.88,1350.49 1241.42,1352.64 1242.97,1354.65 1244.52,1356.59 1246.07,1358.52 1247.62,1360.43 1249.16,1362.3 1250.71,1364.07 1252.26,1365.66 1253.81,1367.08 
  1255.35,1368.32 1256.9,1369.46 1258.45,1370.56 1260,1371.69 1261.55,1372.9 1263.09,1374.18 1264.64,1375.5 1266.19,1376.79 1267.74,1377.98 1269.29,1379 
  1270.83,1379.83 1272.38,1380.44 1273.93,1380.86 1275.48,1381.14 1277.02,1381.34 1278.57,1381.54 1280.12,1381.78 1281.67,1382.08 1283.22,1382.43 1284.76,1382.79 
  1286.31,1383.16 1287.86,1383.49 1289.41,1383.78 1290.95,1384.01 1292.5,1384.19 1294.05,1384.31 1295.6,1384.4 1297.15,1384.46 1298.69,1384.51 1300.24,1384.55 
  1301.79,1384.61 1303.34,1384.67 1304.88,1384.74 1306.43,1384.82 1307.98,1384.9 1309.53,1384.99 1311.08,1385.09 1312.62,1385.2 1314.17,1385.33 1315.72,1385.46 
  1317.27,1385.6 1318.82,1385.71 1320.36,1385.79 1321.91,1385.83 1323.46,1385.83 1325.01,1385.8 1326.55,1385.77 1328.1,1385.74 1329.65,1385.74 1331.2,1385.76 
  1332.75,1385.82 1334.29,1385.89 1335.84,1385.98 1337.39,1386.07 1338.94,1386.16 1340.48,1386.23 1342.03,1386.29 1343.58,1386.33 1345.13,1386.36 1346.68,1386.38 
  1348.22,1386.39 1349.77,1386.39 1351.32,1386.39 1352.87,1386.4 1354.41,1386.4 1355.96,1386.4 1357.51,1386.4 1359.06,1386.4 1360.61,1386.4 1362.15,1386.4 
  1363.7,1386.4 
  "/>
<polyline clip-path="url(#clip902)" style="stroke:#e26f46; stroke-linecap:round; stroke-linejoin:round; stroke-width:4; stroke-opacity:1; fill:none" points="
  280.231,1386.38 281.779,1386.39 283.327,1386.39 284.875,1386.39 286.422,1386.39 287.97,1386.39 289.518,1386.39 291.066,1386.39 292.614,1386.39 294.161,1386.39 
  295.709,1386.39 297.257,1386.39 298.805,1386.38 300.353,1386.38 301.9,1386.37 303.448,1386.36 304.996,1386.34 306.544,1386.32 308.092,1386.3 309.64,1386.28 
  311.187,1386.25 312.735,1386.23 314.283,1386.21 315.831,1386.2 317.379,1386.19 318.926,1386.2 320.474,1386.21 322.022,1386.22 323.57,1386.24 325.118,1386.25 
  326.666,1386.26 328.213,1386.27 329.761,1386.27 331.309,1386.27 332.857,1386.27 334.405,1386.26 335.952,1386.25 337.5,1386.24 339.048,1386.23 340.596,1386.22 
  342.144,1386.2 343.691,1386.19 345.239,1386.18 346.787,1386.18 348.335,1386.17 349.883,1386.17 351.431,1386.17 352.978,1386.17 354.526,1386.16 356.074,1386.15 
  357.622,1386.14 359.17,1386.13 360.717,1386.11 362.265,1386.09 363.813,1386.07 365.361,1386.04 366.909,1386 368.457,1385.97 370.004,1385.92 371.552,1385.88 
  373.1,1385.84 374.648,1385.79 376.196,1385.75 377.743,1385.69 379.291,1385.63 380.839,1385.56 382.387,1385.48 383.935,1385.41 385.483,1385.33 387.03,1385.26 
  388.578,1385.2 390.126,1385.16 391.674,1385.14 393.222,1385.13 394.769,1385.14 396.317,1385.16 397.865,1385.19 399.413,1385.22 400.961,1385.24 402.508,1385.25 
  404.056,1385.23 405.604,1385.18 407.152,1385.11 408.7,1385.01 410.248,1384.89 411.795,1384.75 413.343,1384.6 414.891,1384.46 416.439,1384.33 417.987,1384.22 
  419.534,1384.12 421.082,1384.04 422.63,1383.96 424.178,1383.89 425.726,1383.8 427.274,1383.69 428.821,1383.55 430.369,1383.4 431.917,1383.23 433.465,1383.05 
  435.013,1382.88 436.56,1382.73 438.108,1382.59 439.656,1382.46 441.204,1382.33 442.752,1382.19 444.3,1382.04 445.847,1381.88 447.395,1381.69 448.943,1381.48 
  450.491,1381.27 452.039,1381.04 453.586,1380.81 455.134,1380.56 456.682,1380.29 458.23,1379.99 459.778,1379.63 461.325,1379.21 462.873,1378.72 464.421,1378.15 
  465.969,1377.5 467.517,1376.79 469.065,1376.03 470.612,1375.22 472.16,1374.41 473.708,1373.59 475.256,1372.81 476.804,1372.07 478.351,1371.41 479.899,1370.83 
  481.447,1370.34 482.995,1369.93 484.543,1369.59 486.091,1369.29 487.638,1369 489.186,1368.7 490.734,1368.35 492.282,1367.94 493.83,1367.46 495.377,1366.91 
  496.925,1366.3 498.473,1365.64 500.021,1364.94 501.569,1364.21 503.116,1363.45 504.664,1362.63 506.212,1361.74 507.76,1360.76 509.308,1359.67 510.856,1358.46 
  512.403,1357.12 513.951,1355.66 515.499,1354.1 517.047,1352.44 518.595,1350.72 520.142,1348.96 521.69,1347.2 523.238,1345.46 524.786,1343.74 526.334,1342.05 
  527.882,1340.38 529.429,1338.7 530.977,1336.98 532.525,1335.21 534.073,1333.35 535.621,1331.4 537.168,1329.34 538.716,1327.16 540.264,1324.86 541.812,1322.44 
  543.36,1319.9 544.908,1317.26 546.455,1314.54 548.003,1311.78 549.551,1308.99 551.099,1306.19 552.647,1303.39 554.194,1300.55 555.742,1297.62 557.29,1294.55 
  558.838,1291.28 560.386,1287.78 561.933,1284.05 563.481,1280.09 565.029,1275.98 566.577,1271.74 568.125,1267.44 569.673,1263.1 571.22,1258.73 572.768,1254.31 
  574.316,1249.82 575.864,1245.21 577.412,1240.48 578.959,1235.61 580.507,1230.63 582.055,1225.57 583.603,1220.5 585.151,1215.47 586.699,1210.52 588.246,1205.67 
  589.794,1200.92 591.342,1196.21 592.89,1191.46 594.438,1186.59 595.985,1181.52 597.533,1176.16 599.081,1170.46 600.629,1164.4 602.177,1157.98 603.724,1151.21 
  605.272,1144.13 606.82,1136.83 608.368,1129.4 609.916,1121.94 611.464,1114.56 613.011,1107.32 614.559,1100.27 616.107,1093.39 617.655,1086.61 619.203,1079.85 
  620.75,1073 622.298,1065.99 623.846,1058.78 625.394,1051.36 626.942,1043.78 628.49,1036.09 630.037,1028.36 631.585,1020.62 633.133,1012.88 634.681,1005.09 
  636.229,997.182 637.776,989.036 639.324,980.535 640.872,971.579 642.42,962.105 643.968,952.109 645.516,941.659 647.063,930.887 648.611,919.978 650.159,909.139 
  651.707,898.565 653.255,888.406 654.802,878.736 656.35,869.547 657.898,860.754 659.446,852.216 660.994,843.775 662.541,835.29 664.089,826.659 665.637,817.834 
  667.185,808.812 668.733,799.623 670.281,790.306 671.828,780.9 673.376,771.429 674.924,761.909 676.472,752.35 678.02,742.764 679.567,733.168 681.115,723.593 
  682.663,714.077 684.211,704.665 685.759,695.394 687.307,686.282 688.854,677.322 690.402,668.473 691.95,659.68 693.498,650.887 695.046,642.073 696.593,633.266 
  698.141,624.562 699.689,616.103 701.237,608.057 702.785,600.563 704.332,593.696 705.88,587.431 707.428,581.639 708.976,576.108 710.524,570.586 712.072,564.843 
  713.619,558.724 715.167,552.188 716.715,545.312 718.263,538.276 719.811,531.318 721.358,524.678 722.906,518.552 724.454,513.053 726.002,508.2 727.55,503.923 
  729.098,500.091 730.645,496.548 732.193,493.145 733.741,489.77 735.289,486.367 736.837,482.933 738.384,479.51 739.932,476.165 741.48,472.971 743.028,469.992 
  744.576,467.272 746.124,464.844 747.671,462.74 749.219,461.008 750.767,459.711 752.315,458.93 753.863,458.743 755.41,459.212 756.958,460.364 758.506,462.186 
  760.054,464.619 761.602,467.572 763.149,470.923 764.697,474.534 766.245,478.263 767.793,481.978 769.341,485.582 770.889,489.023 772.436,492.309 773.984,495.497 
  775.532,498.673 777.08,501.92 778.628,505.293 780.175,508.807 781.723,512.449 783.271,516.203 784.819,520.083 786.367,524.159 787.915,528.556 789.462,533.435 
  791.01,538.953 792.558,545.221 794.106,552.266 795.654,560.009 797.201,568.273 798.749,576.807 800.297,585.339 801.845,593.62 803.393,601.478 804.94,608.836 
  806.488,615.713 808.036,622.2 809.584,628.424 811.132,634.512 812.68,640.569 814.227,646.681 815.775,652.916 817.323,659.343 818.871,666.029 820.419,673.039 
  821.966,680.414 823.514,688.162 825.062,696.252 826.61,704.625 828.158,713.212 829.706,721.959 831.253,730.843 832.801,739.874 834.349,749.091 835.897,758.541 
  837.445,768.26 838.992,778.259 840.54,788.516 842.088,798.976 843.636,809.56 845.184,820.179 846.732,830.743 848.279,841.174 849.827,851.403 851.375,861.377 
  852.923,871.057 854.471,880.425 856.018,889.483 857.566,898.262 859.114,906.813 860.662,915.207 862.21,923.513 863.757,931.783 865.305,940.043 866.853,948.288 
  868.401,956.498 869.949,964.656 871.497,972.766 873.044,980.864 874.592,989.013 876.14,997.279 877.688,1005.71 879.236,1014.3 880.783,1023.01 882.331,1031.76 
  883.879,1040.43 885.427,1048.91 886.975,1057.12 888.523,1065 890.07,1072.55 891.618,1079.79 893.166,1086.76 894.714,1093.53 896.262,1100.17 897.809,1106.73 
  899.357,1113.28 900.905,1119.87 902.453,1126.53 904.001,1133.28 905.548,1140.15 907.096,1147.1 908.644,1154.11 910.192,1161.09 911.74,1167.98 913.288,1174.67 
  914.835,1181.07 916.383,1187.14 917.931,1192.86 919.479,1198.24 921.027,1203.33 922.574,1208.2 924.122,1212.93 925.67,1217.56 927.218,1222.13 928.766,1226.67 
  930.314,1231.17 931.861,1235.59 933.409,1239.92 934.957,1244.11 936.505,1248.14 938.053,1252.01 939.6,1255.73 941.148,1259.34 942.696,1262.86 944.244,1266.34 
  945.792,1269.8 947.34,1273.23 948.887,1276.63 950.435,1279.95 951.983,1283.18 953.531,1286.26 955.079,1289.2 956.626,1291.99 958.174,1294.66 959.722,1297.26 
  961.27,1299.82 962.818,1302.41 964.365,1305.06 965.913,1307.79 967.461,1310.63 969.009,1313.55 970.557,1316.56 972.105,1319.62 973.652,1322.68 975.2,1325.72 
  976.748,1328.7 978.296,1331.56 979.844,1334.29 981.391,1336.86 982.939,1339.27 984.487,1341.51 986.035,1343.59 987.583,1345.51 989.131,1347.27 990.678,1348.88 
  992.226,1350.36 993.774,1351.72 995.322,1352.99 996.87,1354.18 998.417,1355.33 999.965,1356.45 1001.51,1357.57 1003.06,1358.69 1004.61,1359.8 1006.16,1360.91 
  1007.7,1361.99 1009.25,1363.02 1010.8,1364.01 1012.35,1364.94 1013.9,1365.8 1015.44,1366.59 1016.99,1367.32 1018.54,1367.99 1020.09,1368.59 1021.63,1369.13 
  1023.18,1369.61 1024.73,1370.04 1026.28,1370.41 1027.83,1370.75 1029.37,1371.08 1030.92,1371.4 1032.47,1371.75 1034.02,1372.13 1035.56,1372.56 1037.11,1373.03 
  1038.66,1373.55 1040.21,1374.1 1041.76,1374.68 1043.3,1375.28 1044.85,1375.89 1046.4,1376.49 1047.95,1377.07 1049.5,1377.63 1051.04,1378.17 1052.59,1378.67 
  1054.14,1379.13 1055.69,1379.57 1057.23,1379.98 1058.78,1380.37 1060.33,1380.74 1061.88,1381.1 1063.43,1381.43 1064.97,1381.74 1066.52,1382 1068.07,1382.21 
  1069.62,1382.36 1071.16,1382.45 1072.71,1382.49 1074.26,1382.48 1075.81,1382.45 1077.36,1382.41 1078.9,1382.37 1080.45,1382.37 1082,1382.39 1083.55,1382.46 
  1085.1,1382.56 1086.64,1382.68 1088.19,1382.8 1089.74,1382.93 1091.29,1383.06 1092.83,1383.17 1094.38,1383.29 1095.93,1383.43 1097.48,1383.58 1099.03,1383.75 
  1100.57,1383.95 1102.12,1384.16 1103.67,1384.37 1105.22,1384.57 1106.76,1384.75 1108.31,1384.9 1109.86,1385.03 1111.41,1385.12 1112.96,1385.2 1114.5,1385.26 
  1116.05,1385.32 1117.6,1385.38 1119.15,1385.43 1120.69,1385.48 1122.24,1385.53 1123.79,1385.57 1125.34,1385.59 1126.89,1385.6 1128.43,1385.6 1129.98,1385.59 
  1131.53,1385.57 1133.08,1385.56 1134.63,1385.56 1136.17,1385.58 1137.72,1385.61 1139.27,1385.65 1140.82,1385.7 1142.36,1385.75 1143.91,1385.79 1145.46,1385.83 
  1147.01,1385.85 1148.56,1385.87 1150.1,1385.88 1151.65,1385.89 1153.2,1385.9 1154.75,1385.92 1156.29,1385.94 1157.84,1385.98 1159.39,1386.01 1160.94,1386.05 
  1162.49,1386.09 1164.03,1386.13 1165.58,1386.16 1167.13,1386.19 1168.68,1386.21 1170.22,1386.23 1171.77,1386.24 1173.32,1386.24 1174.87,1386.24 1176.42,1386.23 
  1177.96,1386.22 1179.51,1386.2 1181.06,1386.18 1182.61,1386.16 1184.16,1386.13 1185.7,1386.11 1187.25,1386.09 1188.8,1386.08 1190.35,1386.07 1191.89,1386.08 
  1193.44,1386.09 1194.99,1386.1 1196.54,1386.12 1198.09,1386.14 1199.63,1386.17 1201.18,1386.19 1202.73,1386.21 1204.28,1386.23 1205.82,1386.25 1207.37,1386.27 
  1208.92,1386.28 1210.47,1386.3 1212.02,1386.31 1213.56,1386.32 1215.11,1386.33 1216.66,1386.34 1218.21,1386.34 1219.76,1386.34 1221.3,1386.35 1222.85,1386.35 
  1224.4,1386.35 1225.95,1386.36 1227.49,1386.36 1229.04,1386.37 1230.59,1386.37 1232.14,1386.38 1233.69,1386.38 1235.23,1386.39 1236.78,1386.39 1238.33,1386.39 
  1239.88,1386.39 1241.42,1386.39 1242.97,1386.4 1244.52,1386.4 1246.07,1386.4 1247.62,1386.4 1249.16,1386.4 1250.71,1386.4 1252.26,1386.4 1253.81,1386.4 
  1255.35,1386.4 1256.9,1386.4 1258.45,1386.4 1260,1386.4 1261.55,1386.4 1263.09,1386.4 1264.64,1386.4 1266.19,1386.4 1267.74,1386.4 1269.29,1386.4 
  1270.83,1386.4 1272.38,1386.4 1273.93,1386.4 1275.48,1386.4 1277.02,1386.4 1278.57,1386.4 1280.12,1386.4 1281.67,1386.4 1283.22,1386.4 1284.76,1386.4 
  1286.31,1386.4 1287.86,1386.4 1289.41,1386.4 1290.95,1386.4 1292.5,1386.4 1294.05,1386.39 1295.6,1386.39 1297.15,1386.39 1298.69,1386.39 1300.24,1386.38 
  1301.79,1386.38 1303.34,1386.37 1304.88,1386.36 1306.43,1386.35 1307.98,1386.34 1309.53,1386.33 1311.08,1386.32 1312.62,1386.31 1314.17,1386.31 1315.72,1386.31 
  1317.27,1386.32 1318.82,1386.33 1320.36,1386.34 1321.91,1386.35 1323.46,1386.37 1325.01,1386.37 1326.55,1386.38 1328.1,1386.39 1329.65,1386.39 1331.2,1386.39 
  1332.75,1386.39 1334.29,1386.39 1335.84,1386.4 1337.39,1386.4 1338.94,1386.4 1340.48,1386.4 1342.03,1386.4 1343.58,1386.4 1345.13,1386.4 1346.68,1386.4 
  1348.22,1386.4 1349.77,1386.4 1351.32,1386.4 1352.87,1386.4 1354.41,1386.4 1355.96,1386.4 1357.51,1386.4 1359.06,1386.4 1360.61,1386.4 1362.15,1386.4 
  1363.7,1386.4 
  "/>
<polyline clip-path="url(#clip902)" style="stroke:#3da44d; stroke-linecap:round; stroke-linejoin:round; stroke-width:4; stroke-opacity:1; fill:none" points="
  280.231,1386.4 281.779,1386.4 283.327,1386.4 284.875,1386.4 286.422,1386.4 287.97,1386.4 289.518,1386.4 291.066,1386.4 292.614,1386.4 294.161,1386.4 
  295.709,1386.4 297.257,1386.4 298.805,1386.4 300.353,1386.4 301.9,1386.4 303.448,1386.4 304.996,1386.4 306.544,1386.4 308.092,1386.4 309.64,1386.4 
  311.187,1386.4 312.735,1386.4 314.283,1386.4 315.831,1386.4 317.379,1386.4 318.926,1386.4 320.474,1386.4 322.022,1386.4 323.57,1386.4 325.118,1386.4 
  326.666,1386.4 328.213,1386.4 329.761,1386.4 331.309,1386.4 332.857,1386.4 334.405,1386.4 335.952,1386.4 337.5,1386.4 339.048,1386.4 340.596,1386.4 
  342.144,1386.4 343.691,1386.4 345.239,1386.4 346.787,1386.4 348.335,1386.4 349.883,1386.4 351.431,1386.4 352.978,1386.4 354.526,1386.4 356.074,1386.4 
  357.622,1386.4 359.17,1386.4 360.717,1386.4 362.265,1386.4 363.813,1386.4 365.361,1386.4 366.909,1386.4 368.457,1386.4 370.004,1386.4 371.552,1386.4 
  373.1,1386.4 374.648,1386.4 376.196,1386.4 377.743,1386.4 379.291,1386.4 380.839,1386.4 382.387,1386.4 383.935,1386.4 385.483,1386.4 387.03,1386.4 
  388.578,1386.4 390.126,1386.4 391.674,1386.4 393.222,1386.4 394.769,1386.4 396.317,1386.4 397.865,1386.4 399.413,1386.4 400.961,1386.4 402.508,1386.4 
  404.056,1386.4 405.604,1386.4 407.152,1386.4 408.7,1386.4 410.248,1386.4 411.795,1386.4 413.343,1386.4 414.891,1386.4 416.439,1386.4 417.987,1386.4 
  419.534,1386.4 421.082,1386.4 422.63,1386.4 424.178,1386.4 425.726,1386.4 427.274,1386.4 428.821,1386.4 430.369,1386.4 431.917,1386.4 433.465,1386.4 
  435.013,1386.4 436.56,1386.4 438.108,1386.4 439.656,1386.4 441.204,1386.4 442.752,1386.4 444.3,1386.4 445.847,1386.4 447.395,1386.4 448.943,1386.4 
  450.491,1386.4 452.039,1386.4 453.586,1386.4 455.134,1386.4 456.682,1386.4 458.23,1386.4 459.778,1386.4 461.325,1386.4 462.873,1386.4 464.421,1386.4 
  465.969,1386.4 467.517,1386.4 469.065,1386.4 470.612,1386.4 472.16,1386.4 473.708,1386.4 475.256,1386.4 476.804,1386.4 478.351,1386.4 479.899,1386.4 
  481.447,1386.4 482.995,1386.4 484.543,1386.4 486.091,1386.4 487.638,1386.4 489.186,1386.4 490.734,1386.4 492.282,1386.4 493.83,1386.4 495.377,1386.4 
  496.925,1386.4 498.473,1386.4 500.021,1386.4 501.569,1386.4 503.116,1386.4 504.664,1386.4 506.212,1386.4 507.76,1386.4 509.308,1386.4 510.856,1386.4 
  512.403,1386.4 513.951,1386.4 515.499,1386.4 517.047,1386.4 518.595,1386.4 520.142,1386.4 521.69,1386.4 523.238,1386.4 524.786,1386.4 526.334,1386.4 
  527.882,1386.4 529.429,1386.4 530.977,1386.4 532.525,1386.4 534.073,1386.4 535.621,1386.4 537.168,1386.4 538.716,1386.4 540.264,1386.4 541.812,1386.4 
  543.36,1386.4 544.908,1386.4 546.455,1386.4 548.003,1386.4 549.551,1386.4 551.099,1386.4 552.647,1386.4 554.194,1386.4 555.742,1386.4 557.29,1386.4 
  558.838,1386.4 560.386,1386.4 561.933,1386.4 563.481,1386.4 565.029,1386.4 566.577,1386.4 568.125,1386.4 569.673,1386.4 571.22,1386.4 572.768,1386.4 
  574.316,1386.4 575.864,1386.4 577.412,1386.4 578.959,1386.4 580.507,1386.4 582.055,1386.4 583.603,1386.4 585.151,1386.4 586.699,1386.4 588.246,1386.4 
  589.794,1386.4 591.342,1386.4 592.89,1386.4 594.438,1386.4 595.985,1386.4 597.533,1386.4 599.081,1386.4 600.629,1386.4 602.177,1386.4 603.724,1386.4 
  605.272,1386.4 606.82,1386.4 608.368,1386.4 609.916,1386.4 611.464,1386.4 613.011,1386.4 614.559,1386.4 616.107,1386.4 617.655,1386.4 619.203,1386.4 
  620.75,1386.4 622.298,1386.4 623.846,1386.4 625.394,1386.4 626.942,1386.4 628.49,1386.4 630.037,1386.4 631.585,1386.4 633.133,1386.4 634.681,1386.4 
  636.229,1386.4 637.776,1386.4 639.324,1386.4 640.872,1386.4 642.42,1386.4 643.968,1386.4 645.516,1386.4 647.063,1386.4 648.611,1386.4 650.159,1386.4 
  651.707,1386.4 653.255,1386.4 654.802,1386.4 656.35,1386.4 657.898,1386.4 659.446,1386.4 660.994,1386.4 662.541,1386.4 664.089,1386.4 665.637,1386.4 
  667.185,1386.4 668.733,1386.4 670.281,1386.4 671.828,1386.4 673.376,1386.4 674.924,1386.4 676.472,1386.4 678.02,1386.4 679.567,1386.4 681.115,1386.4 
  682.663,1386.39 684.211,1386.39 685.759,1386.39 687.307,1386.39 688.854,1386.39 690.402,1386.39 691.95,1386.39 693.498,1386.39 695.046,1386.39 696.593,1386.39 
  698.141,1386.39 699.689,1386.39 701.237,1386.39 702.785,1386.39 704.332,1386.39 705.88,1386.39 707.428,1386.39 708.976,1386.39 710.524,1386.39 712.072,1386.39 
  713.619,1386.39 715.167,1386.39 716.715,1386.39 718.263,1386.39 719.811,1386.39 721.358,1386.38 722.906,1386.38 724.454,1386.38 726.002,1386.38 727.55,1386.38 
  729.098,1386.38 730.645,1386.37 732.193,1386.37 733.741,1386.37 735.289,1386.37 736.837,1386.36 738.384,1386.36 739.932,1386.35 741.48,1386.35 743.028,1386.35 
  744.576,1386.34 746.124,1386.33 747.671,1386.33 749.219,1386.32 750.767,1386.31 752.315,1386.3 753.863,1386.3 755.41,1386.28 756.958,1386.27 758.506,1386.26 
  760.054,1386.25 761.602,1386.23 763.149,1386.22 764.697,1386.2 766.245,1386.18 767.793,1386.16 769.341,1386.14 770.889,1386.11 772.436,1386.09 773.984,1386.06 
  775.532,1386.02 777.08,1385.99 778.628,1385.95 780.175,1385.91 781.723,1385.86 783.271,1385.82 784.819,1385.76 786.367,1385.71 787.915,1385.64 789.462,1385.58 
  791.01,1385.5 792.558,1385.42 794.106,1385.34 795.654,1385.25 797.201,1385.15 798.749,1385.04 800.297,1384.92 801.845,1384.8 803.393,1384.66 804.94,1384.52 
  806.488,1384.36 808.036,1384.19 809.584,1384.01 811.132,1383.81 812.68,1383.6 814.227,1383.38 815.775,1383.13 817.323,1382.87 818.871,1382.59 820.419,1382.29 
  821.966,1381.97 823.514,1381.63 825.062,1381.26 826.61,1380.87 828.158,1380.45 829.706,1380 831.253,1379.52 832.801,1379.01 834.349,1378.47 835.897,1377.88 
  837.445,1377.27 838.992,1376.61 840.54,1375.9 842.088,1375.16 843.636,1374.36 845.184,1373.52 846.732,1372.62 848.279,1371.67 849.827,1370.66 851.375,1369.6 
  852.923,1368.46 854.471,1367.26 856.018,1365.99 857.566,1364.65 859.114,1363.23 860.662,1361.73 862.21,1360.15 863.757,1358.47 865.305,1356.71 866.853,1354.85 
  868.401,1352.89 869.949,1350.83 871.497,1348.66 873.044,1346.38 874.592,1343.98 876.14,1341.45 877.688,1338.81 879.236,1336.03 880.783,1333.11 882.331,1330.06 
  883.879,1326.86 885.427,1323.51 886.975,1320 888.523,1316.33 890.07,1312.5 891.618,1308.5 893.166,1304.32 894.714,1299.96 896.262,1295.42 897.809,1290.68 
  899.357,1285.75 900.905,1280.61 902.453,1275.27 904.001,1269.72 905.548,1263.96 907.096,1257.97 908.644,1251.75 910.192,1245.31 911.74,1238.63 913.288,1231.71 
  914.835,1224.55 916.383,1217.15 917.931,1209.49 919.479,1201.58 921.027,1193.41 922.574,1184.98 924.122,1176.29 925.67,1167.33 927.218,1158.1 928.766,1148.61 
  930.314,1138.84 931.861,1128.8 933.409,1118.49 934.957,1107.91 936.505,1097.05 938.053,1085.92 939.6,1074.51 941.148,1062.84 942.696,1050.89 944.244,1038.68 
  945.792,1026.21 947.34,1013.47 948.887,1000.48 950.435,987.23 951.983,973.735 953.531,959.997 955.079,946.021 956.626,931.815 958.174,917.385 959.722,902.739 
  961.27,887.885 962.818,872.831 964.365,857.587 965.913,842.164 967.461,826.57 969.009,810.817 970.557,794.917 972.105,778.881 973.652,762.723 975.2,746.455 
  976.748,730.091 978.296,713.644 979.844,697.131 981.391,680.565 982.939,663.962 984.487,647.338 986.035,630.71 987.583,614.094 989.131,597.507 990.678,580.966 
  992.226,564.49 993.774,548.096 995.322,531.802 996.87,515.627 998.417,499.59 999.965,483.709 1001.51,468.002 1003.06,452.49 1004.61,437.19 1006.16,422.121 
  1007.7,407.304 1009.25,392.755 1010.8,378.494 1012.35,364.54 1013.9,350.91 1015.44,337.623 1016.99,324.697 1018.54,312.148 1020.09,299.995 1021.63,288.253 
  1023.18,276.939 1024.73,266.069 1026.28,255.658 1027.83,245.72 1029.37,236.271 1030.92,227.323 1032.47,218.889 1034.02,210.982 1035.56,203.612 1037.11,196.792 
  1038.66,190.53 1040.21,184.836 1041.76,179.718 1043.3,175.185 1044.85,171.242 1046.4,167.896 1047.95,165.151 1049.5,163.012 1051.04,161.482 1052.59,160.563 
  1054.14,160.256 1055.69,160.563 1057.23,161.482 1058.78,163.012 1060.33,165.151 1061.88,167.896 1063.43,171.242 1064.97,175.185 1066.52,179.718 1068.07,184.836 
  1069.62,190.53 1071.16,196.792 1072.71,203.612 1074.26,210.982 1075.81,218.889 1077.36,227.323 1078.9,236.271 1080.45,245.72 1082,255.658 1083.55,266.069 
  1085.1,276.939 1086.64,288.253 1088.19,299.995 1089.74,312.148 1091.29,324.697 1092.83,337.623 1094.38,350.91 1095.93,364.54 1097.48,378.494 1099.03,392.755 
  1100.57,407.304 1102.12,422.121 1103.67,437.19 1105.22,452.49 1106.76,468.002 1108.31,483.709 1109.86,499.59 1111.41,515.627 1112.96,531.802 1114.5,548.096 
  1116.05,564.49 1117.6,580.966 1119.15,597.507 1120.69,614.094 1122.24,630.71 1123.79,647.338 1125.34,663.962 1126.89,680.565 1128.43,697.131 1129.98,713.644 
  1131.53,730.091 1133.08,746.455 1134.63,762.723 1136.17,778.881 1137.72,794.917 1139.27,810.817 1140.82,826.57 1142.36,842.164 1143.91,857.587 1145.46,872.831 
  1147.01,887.885 1148.56,902.739 1150.1,917.385 1151.65,931.815 1153.2,946.021 1154.75,959.997 1156.29,973.735 1157.84,987.23 1159.39,1000.48 1160.94,1013.47 
  1162.49,1026.21 1164.03,1038.68 1165.58,1050.89 1167.13,1062.84 1168.68,1074.51 1170.22,1085.92 1171.77,1097.05 1173.32,1107.91 1174.87,1118.49 1176.42,1128.8 
  1177.96,1138.84 1179.51,1148.61 1181.06,1158.1 1182.61,1167.33 1184.16,1176.29 1185.7,1184.98 1187.25,1193.41 1188.8,1201.58 1190.35,1209.49 1191.89,1217.15 
  1193.44,1224.55 1194.99,1231.71 1196.54,1238.63 1198.09,1245.31 1199.63,1251.75 1201.18,1257.97 1202.73,1263.96 1204.28,1269.72 1205.82,1275.27 1207.37,1280.61 
  1208.92,1285.75 1210.47,1290.68 1212.02,1295.42 1213.56,1299.96 1215.11,1304.32 1216.66,1308.5 1218.21,1312.5 1219.76,1316.33 1221.3,1320 1222.85,1323.51 
  1224.4,1326.86 1225.95,1330.06 1227.49,1333.11 1229.04,1336.03 1230.59,1338.81 1232.14,1341.45 1233.69,1343.98 1235.23,1346.38 1236.78,1348.66 1238.33,1350.83 
  1239.88,1352.89 1241.42,1354.85 1242.97,1356.71 1244.52,1358.47 1246.07,1360.15 1247.62,1361.73 1249.16,1363.23 1250.71,1364.65 1252.26,1365.99 1253.81,1367.26 
  1255.35,1368.46 1256.9,1369.6 1258.45,1370.66 1260,1371.67 1261.55,1372.62 1263.09,1373.52 1264.64,1374.36 1266.19,1375.16 1267.74,1375.9 1269.29,1376.61 
  1270.83,1377.27 1272.38,1377.88 1273.93,1378.47 1275.48,1379.01 1277.02,1379.52 1278.57,1380 1280.12,1380.45 1281.67,1380.87 1283.22,1381.26 1284.76,1381.63 
  1286.31,1381.97 1287.86,1382.29 1289.41,1382.59 1290.95,1382.87 1292.5,1383.13 1294.05,1383.38 1295.6,1383.6 1297.15,1383.81 1298.69,1384.01 1300.24,1384.19 
  1301.79,1384.36 1303.34,1384.52 1304.88,1384.66 1306.43,1384.8 1307.98,1384.92 1309.53,1385.04 1311.08,1385.15 1312.62,1385.25 1314.17,1385.34 1315.72,1385.42 
  1317.27,1385.5 1318.82,1385.58 1320.36,1385.64 1321.91,1385.71 1323.46,1385.76 1325.01,1385.82 1326.55,1385.86 1328.1,1385.91 1329.65,1385.95 1331.2,1385.99 
  1332.75,1386.02 1334.29,1386.06 1335.84,1386.09 1337.39,1386.11 1338.94,1386.14 1340.48,1386.16 1342.03,1386.18 1343.58,1386.2 1345.13,1386.22 1346.68,1386.23 
  1348.22,1386.25 1349.77,1386.26 1351.32,1386.27 1352.87,1386.28 1354.41,1386.3 1355.96,1386.3 1357.51,1386.31 1359.06,1386.32 1360.61,1386.33 1362.15,1386.33 
  1363.7,1386.34 
  "/>
<circle clip-path="url(#clip902)" cx="589.794" cy="1386.4" r="14.4" fill="#c271d2" fill-rule="evenodd" fill-opacity="1" stroke="#000000" stroke-opacity="1" stroke-width="3.2"/>
<circle clip-path="url(#clip902)" cx="744.576" cy="1386.4" r="14.4" fill="#c271d2" fill-rule="evenodd" fill-opacity="1" stroke="#000000" stroke-opacity="1" stroke-width="3.2"/>
<circle clip-path="url(#clip902)" cx="899.357" cy="1386.4" r="14.4" fill="#c271d2" fill-rule="evenodd" fill-opacity="1" stroke="#000000" stroke-opacity="1" stroke-width="3.2"/>
<circle clip-path="url(#clip902)" cx="2292.39" cy="1386.4" r="14.4" fill="#c271d2" fill-rule="evenodd" fill-opacity="1" stroke="#000000" stroke-opacity="1" stroke-width="3.2"/>
<path clip-path="url(#clip900)" d="
M1614.37 425.996 L2281.66 425.996 L2281.66 166.796 L1614.37 166.796  Z
  " fill="#ffffff" fill-rule="evenodd" fill-opacity="1"/>
<polyline clip-path="url(#clip900)" style="stroke:#000000; stroke-linecap:round; stroke-linejoin:round; stroke-width:4; stroke-opacity:1; fill:none" points="
  1614.37,425.996 2281.66,425.996 2281.66,166.796 1614.37,166.796 1614.37,425.996 
  "/>
<polyline clip-path="url(#clip900)" style="stroke:#009af9; stroke-linecap:round; stroke-linejoin:round; stroke-width:4; stroke-opacity:1; fill:none" points="
  1638.07,218.636 1780.26,218.636 
  "/>
<path clip-path="url(#clip900)" d="M1803.96 201.356 L1810.25 201.356 L1825.58 230.268 L1825.58 201.356 L1830.12 201.356 L1830.12 235.916 L1823.82 235.916 L1808.5 207.004 L1808.5 235.916 L1803.96 235.916 L1803.96 201.356 Z" fill="#000000" fill-rule="evenodd" fill-opacity="1" /><path clip-path="url(#clip900)" d="M1849.28 212.976 Q1845.86 212.976 1843.87 215.661 Q1841.88 218.323 1841.88 222.976 Q1841.88 227.629 1843.84 230.314 Q1845.83 232.976 1849.28 232.976 Q1852.69 232.976 1854.68 230.291 Q1856.67 227.606 1856.67 222.976 Q1856.67 218.37 1854.68 215.684 Q1852.69 212.976 1849.28 212.976 M1849.28 209.365 Q1854.84 209.365 1858.01 212.976 Q1861.18 216.587 1861.18 222.976 Q1861.18 229.342 1858.01 232.976 Q1854.84 236.587 1849.28 236.587 Q1843.7 236.587 1840.53 232.976 Q1837.38 229.342 1837.38 222.976 Q1837.38 216.587 1840.53 212.976 Q1843.7 209.365 1849.28 209.365 Z" fill="#000000" fill-rule="evenodd" fill-opacity="1" /><path clip-path="url(#clip900)" d="M1883.26 213.971 Q1882.55 213.555 1881.69 213.37 Q1880.86 213.161 1879.84 213.161 Q1876.23 213.161 1874.28 215.522 Q1872.36 217.86 1872.36 222.258 L1872.36 235.916 L1868.08 235.916 L1868.08 209.99 L1872.36 209.99 L1872.36 214.018 Q1873.7 211.657 1875.86 210.522 Q1878.01 209.365 1881.09 209.365 Q1881.53 209.365 1882.06 209.434 Q1882.59 209.481 1883.24 209.596 L1883.26 213.971 Z" fill="#000000" fill-rule="evenodd" fill-opacity="1" /><path clip-path="url(#clip900)" d="M1907.08 214.967 Q1908.68 212.096 1910.9 210.731 Q1913.12 209.365 1916.13 209.365 Q1920.18 209.365 1922.38 212.212 Q1924.58 215.036 1924.58 220.268 L1924.58 235.916 L1920.3 235.916 L1920.3 220.407 Q1920.3 216.68 1918.98 214.874 Q1917.66 213.069 1914.95 213.069 Q1911.64 213.069 1909.72 215.268 Q1907.8 217.467 1907.8 221.263 L1907.8 235.916 L1903.52 235.916 L1903.52 220.407 Q1903.52 216.657 1902.2 214.874 Q1900.88 213.069 1898.12 213.069 Q1894.86 213.069 1892.94 215.291 Q1891.02 217.49 1891.02 221.263 L1891.02 235.916 L1886.74 235.916 L1886.74 209.99 L1891.02 209.99 L1891.02 214.018 Q1892.48 211.633 1894.51 210.499 Q1896.55 209.365 1899.35 209.365 Q1902.18 209.365 1904.14 210.8 Q1906.13 212.235 1907.08 214.967 Z" fill="#000000" fill-rule="evenodd" fill-opacity="1" /><path clip-path="url(#clip900)" d="M1944.86 222.883 Q1939.7 222.883 1937.71 224.064 Q1935.72 225.244 1935.72 228.092 Q1935.72 230.36 1937.2 231.703 Q1938.7 233.022 1941.27 233.022 Q1944.81 233.022 1946.94 230.522 Q1949.1 227.999 1949.1 223.832 L1949.1 222.883 L1944.86 222.883 M1953.36 221.124 L1953.36 235.916 L1949.1 235.916 L1949.1 231.981 Q1947.64 234.342 1945.46 235.476 Q1943.29 236.587 1940.14 236.587 Q1936.16 236.587 1933.8 234.365 Q1931.46 232.119 1931.46 228.369 Q1931.46 223.994 1934.37 221.772 Q1937.31 219.55 1943.12 219.55 L1949.1 219.55 L1949.1 219.133 Q1949.1 216.194 1947.15 214.596 Q1945.23 212.976 1941.74 212.976 Q1939.51 212.976 1937.41 213.508 Q1935.3 214.041 1933.36 215.106 L1933.36 211.17 Q1935.69 210.268 1937.89 209.828 Q1940.09 209.365 1942.18 209.365 Q1947.8 209.365 1950.58 212.282 Q1953.36 215.198 1953.36 221.124 Z" fill="#000000" fill-rule="evenodd" fill-opacity="1" /><path clip-path="url(#clip900)" d="M1962.13 199.897 L1966.39 199.897 L1966.39 235.916 L1962.13 235.916 L1962.13 199.897 Z" fill="#000000" fill-rule="evenodd" fill-opacity="1" /><polyline clip-path="url(#clip900)" style="stroke:#e26f46; stroke-linecap:round; stroke-linejoin:round; stroke-width:4; stroke-opacity:1; fill:none" points="
  1638.07,270.476 1780.26,270.476 
  "/>
<path clip-path="url(#clip900)" d="M1831.83 255.858 L1831.83 260.788 Q1829.47 258.589 1826.78 257.501 Q1824.12 256.413 1821.11 256.413 Q1815.19 256.413 1812.04 260.048 Q1808.89 263.659 1808.89 270.51 Q1808.89 277.339 1812.04 280.973 Q1815.19 284.584 1821.11 284.584 Q1824.12 284.584 1826.78 283.496 Q1829.47 282.409 1831.83 280.209 L1831.83 285.094 Q1829.38 286.76 1826.62 287.594 Q1823.89 288.427 1820.83 288.427 Q1812.99 288.427 1808.47 283.635 Q1803.96 278.821 1803.96 270.51 Q1803.96 262.177 1808.47 257.386 Q1812.99 252.571 1820.83 252.571 Q1823.94 252.571 1826.67 253.404 Q1829.42 254.214 1831.83 255.858 Z" fill="#000000" fill-rule="evenodd" fill-opacity="1" /><path clip-path="url(#clip900)" d="M1850.65 274.723 Q1845.49 274.723 1843.5 275.904 Q1841.5 277.084 1841.5 279.932 Q1841.5 282.2 1842.99 283.543 Q1844.49 284.862 1847.06 284.862 Q1850.6 284.862 1852.73 282.362 Q1854.88 279.839 1854.88 275.672 L1854.88 274.723 L1850.65 274.723 M1859.14 272.964 L1859.14 287.756 L1854.88 287.756 L1854.88 283.821 Q1853.43 286.182 1851.25 287.316 Q1849.07 288.427 1845.93 288.427 Q1841.94 288.427 1839.58 286.205 Q1837.25 283.959 1837.25 280.209 Q1837.25 275.834 1840.16 273.612 Q1843.1 271.39 1848.91 271.39 L1854.88 271.39 L1854.88 270.973 Q1854.88 268.034 1852.94 266.436 Q1851.02 264.816 1847.52 264.816 Q1845.3 264.816 1843.19 265.348 Q1841.09 265.881 1839.14 266.946 L1839.14 263.01 Q1841.48 262.108 1843.68 261.668 Q1845.88 261.205 1847.96 261.205 Q1853.59 261.205 1856.37 264.122 Q1859.14 267.038 1859.14 272.964 Z" fill="#000000" fill-rule="evenodd" fill-opacity="1" /><path clip-path="url(#clip900)" d="M1867.48 277.524 L1867.48 261.83 L1871.74 261.83 L1871.74 277.362 Q1871.74 281.043 1873.17 282.895 Q1874.61 284.723 1877.48 284.723 Q1880.93 284.723 1882.92 282.524 Q1884.93 280.325 1884.93 276.529 L1884.93 261.83 L1889.19 261.83 L1889.19 287.756 L1884.93 287.756 L1884.93 283.774 Q1883.38 286.135 1881.32 287.293 Q1879.28 288.427 1876.57 288.427 Q1872.11 288.427 1869.79 285.649 Q1867.48 282.871 1867.48 277.524 M1878.19 261.205 L1878.19 261.205 Z" fill="#000000" fill-rule="evenodd" fill-opacity="1" /><path clip-path="url(#clip900)" d="M1916.62 262.825 L1916.62 266.807 Q1914.81 265.811 1912.99 265.325 Q1911.18 264.816 1909.33 264.816 Q1905.18 264.816 1902.89 267.455 Q1900.6 270.071 1900.6 274.816 Q1900.6 279.561 1902.89 282.2 Q1905.18 284.816 1909.33 284.816 Q1911.18 284.816 1912.99 284.33 Q1914.81 283.821 1916.62 282.825 L1916.62 286.76 Q1914.84 287.594 1912.92 288.01 Q1911.02 288.427 1908.87 288.427 Q1903.01 288.427 1899.56 284.746 Q1896.11 281.066 1896.11 274.816 Q1896.11 268.473 1899.58 264.839 Q1903.08 261.205 1909.14 261.205 Q1911.11 261.205 1912.99 261.622 Q1914.86 262.015 1916.62 262.825 Z" fill="#000000" fill-rule="evenodd" fill-opacity="1" /><path clip-path="url(#clip900)" d="M1945.58 272.108 L1945.58 287.756 L1941.32 287.756 L1941.32 272.247 Q1941.32 268.566 1939.88 266.737 Q1938.45 264.909 1935.58 264.909 Q1932.13 264.909 1930.14 267.108 Q1928.15 269.307 1928.15 273.103 L1928.15 287.756 L1923.87 287.756 L1923.87 251.737 L1928.15 251.737 L1928.15 265.858 Q1929.68 263.52 1931.74 262.362 Q1933.82 261.205 1936.53 261.205 Q1940.99 261.205 1943.29 263.983 Q1945.58 266.737 1945.58 272.108 Z" fill="#000000" fill-rule="evenodd" fill-opacity="1" /><path clip-path="url(#clip900)" d="M1964.86 290.163 Q1963.05 294.793 1961.34 296.205 Q1959.63 297.617 1956.76 297.617 L1953.36 297.617 L1953.36 294.052 L1955.86 294.052 Q1957.62 294.052 1958.59 293.219 Q1959.56 292.385 1960.74 289.283 L1961.5 287.339 L1951.02 261.83 L1955.53 261.83 L1963.63 282.108 L1971.74 261.83 L1976.25 261.83 L1964.86 290.163 Z" fill="#000000" fill-rule="evenodd" fill-opacity="1" /><polyline clip-path="url(#clip900)" style="stroke:#3da44d; stroke-linecap:round; stroke-linejoin:round; stroke-width:4; stroke-opacity:1; fill:none" points="
  1638.07,322.316 1780.26,322.316 
  "/>
<path clip-path="url(#clip900)" d="M1803.96 305.036 L1825.81 305.036 L1825.81 308.971 L1808.63 308.971 L1808.63 319.202 L1825.09 319.202 L1825.09 323.137 L1808.63 323.137 L1808.63 335.661 L1826.23 335.661 L1826.23 339.596 L1803.96 339.596 L1803.96 305.036 Z" fill="#000000" fill-rule="evenodd" fill-opacity="1" /><path clip-path="url(#clip900)" d="M1855.28 313.67 L1845.9 326.286 L1855.76 339.596 L1850.74 339.596 L1843.19 329.411 L1835.65 339.596 L1830.63 339.596 L1840.69 326.031 L1831.48 313.67 L1836.5 313.67 L1843.38 322.906 L1850.25 313.67 L1855.28 313.67 Z" fill="#000000" fill-rule="evenodd" fill-opacity="1" /><path clip-path="url(#clip900)" d="M1873.56 326.563 Q1868.4 326.563 1866.41 327.744 Q1864.42 328.924 1864.42 331.772 Q1864.42 334.04 1865.9 335.383 Q1867.41 336.702 1869.98 336.702 Q1873.52 336.702 1875.65 334.202 Q1877.8 331.679 1877.8 327.512 L1877.8 326.563 L1873.56 326.563 M1882.06 324.804 L1882.06 339.596 L1877.8 339.596 L1877.8 335.661 Q1876.34 338.022 1874.17 339.156 Q1871.99 340.267 1868.84 340.267 Q1864.86 340.267 1862.5 338.045 Q1860.16 335.799 1860.16 332.049 Q1860.16 327.674 1863.08 325.452 Q1866.02 323.23 1871.83 323.23 L1877.8 323.23 L1877.8 322.813 Q1877.8 319.874 1875.86 318.276 Q1873.94 316.656 1870.44 316.656 Q1868.22 316.656 1866.11 317.188 Q1864 317.721 1862.06 318.786 L1862.06 314.85 Q1864.4 313.948 1866.6 313.508 Q1868.8 313.045 1870.88 313.045 Q1876.5 313.045 1879.28 315.962 Q1882.06 318.878 1882.06 324.804 Z" fill="#000000" fill-rule="evenodd" fill-opacity="1" /><path clip-path="url(#clip900)" d="M1909.49 314.665 L1909.49 318.647 Q1907.68 317.651 1905.86 317.165 Q1904.05 316.656 1902.2 316.656 Q1898.06 316.656 1895.76 319.295 Q1893.47 321.911 1893.47 326.656 Q1893.47 331.401 1895.76 334.04 Q1898.06 336.656 1902.2 336.656 Q1904.05 336.656 1905.86 336.17 Q1907.68 335.661 1909.49 334.665 L1909.49 338.6 Q1907.71 339.434 1905.79 339.85 Q1903.89 340.267 1901.74 340.267 Q1895.88 340.267 1892.43 336.586 Q1888.98 332.906 1888.98 326.656 Q1888.98 320.313 1892.45 316.679 Q1895.95 313.045 1902.01 313.045 Q1903.98 313.045 1905.86 313.462 Q1907.73 313.855 1909.49 314.665 Z" fill="#000000" fill-rule="evenodd" fill-opacity="1" /><path clip-path="url(#clip900)" d="M1921.11 306.309 L1921.11 313.67 L1929.88 313.67 L1929.88 316.98 L1921.11 316.98 L1921.11 331.054 Q1921.11 334.225 1921.97 335.128 Q1922.85 336.031 1925.51 336.031 L1929.88 336.031 L1929.88 339.596 L1925.51 339.596 Q1920.58 339.596 1918.7 337.767 Q1916.83 335.915 1916.83 331.054 L1916.83 316.98 L1913.7 316.98 L1913.7 313.67 L1916.83 313.67 L1916.83 306.309 L1921.11 306.309 Z" fill="#000000" fill-rule="evenodd" fill-opacity="1" /><path clip-path="url(#clip900)" d="M1955.42 308.878 L1955.42 321.864 L1961.3 321.864 Q1964.56 321.864 1966.34 320.175 Q1968.12 318.485 1968.12 315.36 Q1968.12 312.258 1966.34 310.568 Q1964.56 308.878 1961.3 308.878 L1955.42 308.878 M1950.74 305.036 L1961.3 305.036 Q1967.11 305.036 1970.07 307.675 Q1973.05 310.29 1973.05 315.36 Q1973.05 320.475 1970.07 323.091 Q1967.11 325.707 1961.3 325.707 L1955.42 325.707 L1955.42 339.596 L1950.74 339.596 L1950.74 305.036 Z" fill="#000000" fill-rule="evenodd" fill-opacity="1" /><path clip-path="url(#clip900)" d="M1984 308.878 L1984 335.753 L1989.65 335.753 Q1996.8 335.753 2000.11 332.512 Q2003.45 329.272 2003.45 322.281 Q2003.45 315.337 2000.11 312.119 Q1996.8 308.878 1989.65 308.878 L1984 308.878 M1979.33 305.036 L1988.93 305.036 Q1998.98 305.036 2003.68 309.226 Q2008.38 313.392 2008.38 322.281 Q2008.38 331.216 2003.66 335.406 Q1998.93 339.596 1988.93 339.596 L1979.33 339.596 L1979.33 305.036 Z" fill="#000000" fill-rule="evenodd" fill-opacity="1" /><path clip-path="url(#clip900)" d="M2015.83 305.036 L2035.69 305.036 L2035.69 308.971 L2020.51 308.971 L2020.51 319.156 L2034.21 319.156 L2034.21 323.091 L2020.51 323.091 L2020.51 339.596 L2015.83 339.596 L2015.83 305.036 Z" fill="#000000" fill-rule="evenodd" fill-opacity="1" /><path clip-path="url(#clip900)" d="M2068.22 303.624 Q2065.11 308.948 2063.61 314.156 Q2062.11 319.364 2062.11 324.712 Q2062.11 330.059 2063.61 335.313 Q2065.14 340.545 2068.22 345.846 L2064.51 345.846 Q2061.04 340.406 2059.3 335.151 Q2057.59 329.897 2057.59 324.712 Q2057.59 319.55 2059.3 314.318 Q2061.02 309.087 2064.51 303.624 L2068.22 303.624 Z" fill="#000000" fill-rule="evenodd" fill-opacity="1" /><path clip-path="url(#clip900)" d="M2076.67 305.036 L2082.96 305.036 L2098.29 333.948 L2098.29 305.036 L2102.82 305.036 L2102.82 339.596 L2096.53 339.596 L2081.2 310.684 L2081.2 339.596 L2076.67 339.596 L2076.67 305.036 Z" fill="#000000" fill-rule="evenodd" fill-opacity="1" /><path clip-path="url(#clip900)" d="M2121.99 316.656 Q2118.56 316.656 2116.57 319.341 Q2114.58 322.003 2114.58 326.656 Q2114.58 331.309 2116.55 333.994 Q2118.54 336.656 2121.99 336.656 Q2125.39 336.656 2127.38 333.971 Q2129.37 331.286 2129.37 326.656 Q2129.37 322.05 2127.38 319.364 Q2125.39 316.656 2121.99 316.656 M2121.99 313.045 Q2127.54 313.045 2130.72 316.656 Q2133.89 320.267 2133.89 326.656 Q2133.89 333.022 2130.72 336.656 Q2127.54 340.267 2121.99 340.267 Q2116.41 340.267 2113.24 336.656 Q2110.09 333.022 2110.09 326.656 Q2110.09 320.267 2113.24 316.656 Q2116.41 313.045 2121.99 313.045 Z" fill="#000000" fill-rule="evenodd" fill-opacity="1" /><path clip-path="url(#clip900)" d="M2155.97 317.651 Q2155.25 317.235 2154.4 317.05 Q2153.56 316.841 2152.54 316.841 Q2148.93 316.841 2146.99 319.202 Q2145.07 321.54 2145.07 325.938 L2145.07 339.596 L2140.79 339.596 L2140.79 313.67 L2145.07 313.67 L2145.07 317.698 Q2146.41 315.337 2148.56 314.202 Q2150.72 313.045 2153.79 313.045 Q2154.23 313.045 2154.77 313.114 Q2155.3 313.161 2155.95 313.276 L2155.97 317.651 Z" fill="#000000" fill-rule="evenodd" fill-opacity="1" /><path clip-path="url(#clip900)" d="M2179.79 318.647 Q2181.39 315.776 2183.61 314.411 Q2185.83 313.045 2188.84 313.045 Q2192.89 313.045 2195.09 315.892 Q2197.29 318.716 2197.29 323.948 L2197.29 339.596 L2193.01 339.596 L2193.01 324.087 Q2193.01 320.36 2191.69 318.554 Q2190.37 316.749 2187.66 316.749 Q2184.35 316.749 2182.43 318.948 Q2180.51 321.147 2180.51 324.943 L2180.51 339.596 L2176.23 339.596 L2176.23 324.087 Q2176.23 320.337 2174.91 318.554 Q2173.59 316.749 2170.83 316.749 Q2167.57 316.749 2165.65 318.971 Q2163.73 321.17 2163.73 324.943 L2163.73 339.596 L2159.44 339.596 L2159.44 313.67 L2163.73 313.67 L2163.73 317.698 Q2165.18 315.313 2167.22 314.179 Q2169.26 313.045 2172.06 313.045 Q2174.88 313.045 2176.85 314.48 Q2178.84 315.915 2179.79 318.647 Z" fill="#000000" fill-rule="evenodd" fill-opacity="1" /><path clip-path="url(#clip900)" d="M2217.57 326.563 Q2212.41 326.563 2210.41 327.744 Q2208.42 328.924 2208.42 331.772 Q2208.42 334.04 2209.91 335.383 Q2211.41 336.702 2213.98 336.702 Q2217.52 336.702 2219.65 334.202 Q2221.8 331.679 2221.8 327.512 L2221.8 326.563 L2217.57 326.563 M2226.06 324.804 L2226.06 339.596 L2221.8 339.596 L2221.8 335.661 Q2220.35 338.022 2218.17 339.156 Q2215.99 340.267 2212.85 340.267 Q2208.86 340.267 2206.5 338.045 Q2204.16 335.799 2204.16 332.049 Q2204.16 327.674 2207.08 325.452 Q2210.02 323.23 2215.83 323.23 L2221.8 323.23 L2221.8 322.813 Q2221.8 319.874 2219.86 318.276 Q2217.94 316.656 2214.44 316.656 Q2212.22 316.656 2210.11 317.188 Q2208.01 317.721 2206.06 318.786 L2206.06 314.85 Q2208.4 313.948 2210.6 313.508 Q2212.8 313.045 2214.88 313.045 Q2220.51 313.045 2223.29 315.962 Q2226.06 318.878 2226.06 324.804 Z" fill="#000000" fill-rule="evenodd" fill-opacity="1" /><path clip-path="url(#clip900)" d="M2234.84 303.577 L2239.1 303.577 L2239.1 339.596 L2234.84 339.596 L2234.84 303.577 Z" fill="#000000" fill-rule="evenodd" fill-opacity="1" /><path clip-path="url(#clip900)" d="M2247.34 303.624 L2251.04 303.624 Q2254.51 309.087 2256.22 314.318 Q2257.96 319.55 2257.96 324.712 Q2257.96 329.897 2256.22 335.151 Q2254.51 340.406 2251.04 345.846 L2247.34 345.846 Q2250.41 340.545 2251.92 335.313 Q2253.45 330.059 2253.45 324.712 Q2253.45 319.364 2251.92 314.156 Q2250.41 308.948 2247.34 303.624 Z" fill="#000000" fill-rule="evenodd" fill-opacity="1" /><circle clip-path="url(#clip900)" cx="1709.16" cy="374.156" r="23.04" fill="#c271d2" fill-rule="evenodd" fill-opacity="1" stroke="#000000" stroke-opacity="1" stroke-width="5.12"/>
<path clip-path="url(#clip900)" d="M1822.87 369.445 L1822.87 355.417 L1827.13 355.417 L1827.13 391.436 L1822.87 391.436 L1822.87 387.547 Q1821.53 389.862 1819.47 390.996 Q1817.43 392.107 1814.56 392.107 Q1809.86 392.107 1806.9 388.357 Q1803.96 384.607 1803.96 378.496 Q1803.96 372.385 1806.9 368.635 Q1809.86 364.885 1814.56 364.885 Q1817.43 364.885 1819.47 366.019 Q1821.53 367.13 1822.87 369.445 M1808.36 378.496 Q1808.36 383.195 1810.28 385.88 Q1812.22 388.542 1815.6 388.542 Q1818.98 388.542 1820.93 385.88 Q1822.87 383.195 1822.87 378.496 Q1822.87 373.797 1820.93 371.135 Q1818.98 368.45 1815.6 368.45 Q1812.22 368.45 1810.28 371.135 Q1808.36 373.797 1808.36 378.496 Z" fill="#000000" fill-rule="evenodd" fill-opacity="1" /><path clip-path="url(#clip900)" d="M1847.69 378.403 Q1842.52 378.403 1840.53 379.584 Q1838.54 380.764 1838.54 383.612 Q1838.54 385.88 1840.02 387.223 Q1841.53 388.542 1844.1 388.542 Q1847.64 388.542 1849.77 386.042 Q1851.92 383.519 1851.92 379.352 L1851.92 378.403 L1847.69 378.403 M1856.18 376.644 L1856.18 391.436 L1851.92 391.436 L1851.92 387.501 Q1850.46 389.862 1848.29 390.996 Q1846.11 392.107 1842.96 392.107 Q1838.98 392.107 1836.62 389.885 Q1834.28 387.639 1834.28 383.889 Q1834.28 379.514 1837.2 377.292 Q1840.14 375.07 1845.95 375.07 L1851.92 375.07 L1851.92 374.653 Q1851.92 371.714 1849.98 370.116 Q1848.06 368.496 1844.56 368.496 Q1842.34 368.496 1840.23 369.028 Q1838.13 369.561 1836.18 370.626 L1836.18 366.69 Q1838.52 365.788 1840.72 365.348 Q1842.92 364.885 1845 364.885 Q1850.63 364.885 1853.4 367.802 Q1856.18 370.718 1856.18 376.644 Z" fill="#000000" fill-rule="evenodd" fill-opacity="1" /><path clip-path="url(#clip900)" d="M1869.17 358.149 L1869.17 365.51 L1877.94 365.51 L1877.94 368.82 L1869.17 368.82 L1869.17 382.894 Q1869.17 386.065 1870.02 386.968 Q1870.9 387.871 1873.56 387.871 L1877.94 387.871 L1877.94 391.436 L1873.56 391.436 Q1868.63 391.436 1866.76 389.607 Q1864.88 387.755 1864.88 382.894 L1864.88 368.82 L1861.76 368.82 L1861.76 365.51 L1864.88 365.51 L1864.88 358.149 L1869.17 358.149 Z" fill="#000000" fill-rule="evenodd" fill-opacity="1" /><path clip-path="url(#clip900)" d="M1895.32 378.403 Q1890.16 378.403 1888.17 379.584 Q1886.18 380.764 1886.18 383.612 Q1886.18 385.88 1887.66 387.223 Q1889.17 388.542 1891.74 388.542 Q1895.28 388.542 1897.41 386.042 Q1899.56 383.519 1899.56 379.352 L1899.56 378.403 L1895.32 378.403 M1903.82 376.644 L1903.82 391.436 L1899.56 391.436 L1899.56 387.501 Q1898.1 389.862 1895.93 390.996 Q1893.75 392.107 1890.6 392.107 Q1886.62 392.107 1884.26 389.885 Q1881.92 387.639 1881.92 383.889 Q1881.92 379.514 1884.84 377.292 Q1887.78 375.07 1893.59 375.07 L1899.56 375.07 L1899.56 374.653 Q1899.56 371.714 1897.62 370.116 Q1895.69 368.496 1892.2 368.496 Q1889.98 368.496 1887.87 369.028 Q1885.76 369.561 1883.82 370.626 L1883.82 366.69 Q1886.16 365.788 1888.36 365.348 Q1890.56 364.885 1892.64 364.885 Q1898.26 364.885 1901.04 367.802 Q1903.82 370.718 1903.82 376.644 Z" fill="#000000" fill-rule="evenodd" fill-opacity="1" /></svg>
