<?xml version="1.0" encoding="utf-8"?>
<svg xmlns="http://www.w3.org/2000/svg" xmlns:xlink="http://www.w3.org/1999/xlink" width="672" height="480" viewBox="0 0 2688 1920">
<defs>
  <clipPath id="clip620">
    <rect x="0" y="0" width="2688" height="1920"/>
  </clipPath>
</defs>
<path clip-path="url(#clip620)" d="
M0 1920 L2688 1920 L2688 0 L0 0  Z
  " fill="#ffffff" fill-rule="evenodd" fill-opacity="1"/>
<defs>
  <clipPath id="clip621">
    <rect x="537" y="0" width="1883" height="1883"/>
  </clipPath>
</defs>
<path clip-path="url(#clip620)" d="
M159.478 1800.78 L2640.76 1800.78 L2640.76 47.2441 L159.478 47.2441  Z
  " fill="#ffffff" fill-rule="evenodd" fill-opacity="1"/>
<defs>
  <clipPath id="clip622">
    <rect x="159" y="47" width="2482" height="1755"/>
  </clipPath>
</defs>
<polyline clip-path="url(#clip622)" style="stroke:#000000; stroke-linecap:round; stroke-linejoin:round; stroke-width:2; stroke-opacity:0.1; fill:none" points="
  409.767,1800.78 409.767,47.2441 
  "/>
<polyline clip-path="url(#clip622)" style="stroke:#000000; stroke-linecap:round; stroke-linejoin:round; stroke-width:2; stroke-opacity:0.1; fill:none" points="
  769.894,1800.78 769.894,47.2441 
  "/>
<polyline clip-path="url(#clip622)" style="stroke:#000000; stroke-linecap:round; stroke-linejoin:round; stroke-width:2; stroke-opacity:0.1; fill:none" points="
  1130.02,1800.78 1130.02,47.2441 
  "/>
<polyline clip-path="url(#clip622)" style="stroke:#000000; stroke-linecap:round; stroke-linejoin:round; stroke-width:2; stroke-opacity:0.1; fill:none" points="
  1490.15,1800.78 1490.15,47.2441 
  "/>
<polyline clip-path="url(#clip622)" style="stroke:#000000; stroke-linecap:round; stroke-linejoin:round; stroke-width:2; stroke-opacity:0.1; fill:none" points="
  1850.28,1800.78 1850.28,47.2441 
  "/>
<polyline clip-path="url(#clip622)" style="stroke:#000000; stroke-linecap:round; stroke-linejoin:round; stroke-width:2; stroke-opacity:0.1; fill:none" points="
  2210.4,1800.78 2210.4,47.2441 
  "/>
<polyline clip-path="url(#clip622)" style="stroke:#000000; stroke-linecap:round; stroke-linejoin:round; stroke-width:2; stroke-opacity:0.1; fill:none" points="
  2570.53,1800.78 2570.53,47.2441 
  "/>
<polyline clip-path="url(#clip620)" style="stroke:#000000; stroke-linecap:round; stroke-linejoin:round; stroke-width:4; stroke-opacity:1; fill:none" points="
  159.478,1800.78 2640.76,1800.78 
  "/>
<polyline clip-path="url(#clip620)" style="stroke:#000000; stroke-linecap:round; stroke-linejoin:round; stroke-width:4; stroke-opacity:1; fill:none" points="
  409.767,1800.78 409.767,1781.88 
  "/>
<polyline clip-path="url(#clip620)" style="stroke:#000000; stroke-linecap:round; stroke-linejoin:round; stroke-width:4; stroke-opacity:1; fill:none" points="
  769.894,1800.78 769.894,1781.88 
  "/>
<polyline clip-path="url(#clip620)" style="stroke:#000000; stroke-linecap:round; stroke-linejoin:round; stroke-width:4; stroke-opacity:1; fill:none" points="
  1130.02,1800.78 1130.02,1781.88 
  "/>
<polyline clip-path="url(#clip620)" style="stroke:#000000; stroke-linecap:round; stroke-linejoin:round; stroke-width:4; stroke-opacity:1; fill:none" points="
  1490.15,1800.78 1490.15,1781.88 
  "/>
<polyline clip-path="url(#clip620)" style="stroke:#000000; stroke-linecap:round; stroke-linejoin:round; stroke-width:4; stroke-opacity:1; fill:none" points="
  1850.28,1800.78 1850.28,1781.88 
  "/>
<polyline clip-path="url(#clip620)" style="stroke:#000000; stroke-linecap:round; stroke-linejoin:round; stroke-width:4; stroke-opacity:1; fill:none" points="
  2210.4,1800.78 2210.4,1781.88 
  "/>
<polyline clip-path="url(#clip620)" style="stroke:#000000; stroke-linecap:round; stroke-linejoin:round; stroke-width:4; stroke-opacity:1; fill:none" points="
  2570.53,1800.78 2570.53,1781.88 
  "/>
<path clip-path="url(#clip620)" d="M379.709 1848.65 L409.385 1848.65 L409.385 1852.59 L379.709 1852.59 L379.709 1848.65 Z" fill="#000000" fill-rule="evenodd" fill-opacity="1" /><path clip-path="url(#clip620)" d="M423.505 1861.55 L439.824 1861.55 L439.824 1865.48 L417.88 1865.48 L417.88 1861.55 Q420.542 1858.79 425.125 1854.16 Q429.732 1849.51 430.912 1848.17 Q433.158 1845.65 434.037 1843.91 Q434.94 1842.15 434.94 1840.46 Q434.94 1837.71 432.996 1835.97 Q431.075 1834.23 427.973 1834.23 Q425.774 1834.23 423.32 1835 Q420.889 1835.76 418.112 1837.31 L418.112 1832.59 Q420.936 1831.46 423.389 1830.88 Q425.843 1830.3 427.88 1830.3 Q433.25 1830.3 436.445 1832.98 Q439.639 1835.67 439.639 1840.16 Q439.639 1842.29 438.829 1844.21 Q438.042 1846.11 435.936 1848.7 Q435.357 1849.37 432.255 1852.59 Q429.153 1855.78 423.505 1861.55 Z" fill="#000000" fill-rule="evenodd" fill-opacity="1" /><path clip-path="url(#clip620)" d="M769.894 1834 Q766.283 1834 764.454 1837.57 Q762.649 1841.11 762.649 1848.24 Q762.649 1855.34 764.454 1858.91 Q766.283 1862.45 769.894 1862.45 Q773.528 1862.45 775.334 1858.91 Q777.163 1855.34 777.163 1848.24 Q777.163 1841.11 775.334 1837.57 Q773.528 1834 769.894 1834 M769.894 1830.3 Q775.704 1830.3 778.76 1834.9 Q781.839 1839.49 781.839 1848.24 Q781.839 1856.96 778.76 1861.57 Q775.704 1866.15 769.894 1866.15 Q764.084 1866.15 761.005 1861.57 Q757.95 1856.96 757.95 1848.24 Q757.95 1839.49 761.005 1834.9 Q764.084 1830.3 769.894 1830.3 Z" fill="#000000" fill-rule="evenodd" fill-opacity="1" /><path clip-path="url(#clip620)" d="M1124.67 1861.55 L1140.99 1861.55 L1140.99 1865.48 L1119.05 1865.48 L1119.05 1861.55 Q1121.71 1858.79 1126.29 1854.16 Q1130.9 1849.51 1132.08 1848.17 Q1134.33 1845.65 1135.21 1843.91 Q1136.11 1842.15 1136.11 1840.46 Q1136.11 1837.71 1134.17 1835.97 Q1132.24 1834.23 1129.14 1834.23 Q1126.94 1834.23 1124.49 1835 Q1122.06 1835.76 1119.28 1837.31 L1119.28 1832.59 Q1122.1 1831.46 1124.56 1830.88 Q1127.01 1830.3 1129.05 1830.3 Q1134.42 1830.3 1137.61 1832.98 Q1140.81 1835.67 1140.81 1840.16 Q1140.81 1842.29 1140 1844.21 Q1139.21 1846.11 1137.1 1848.7 Q1136.53 1849.37 1133.42 1852.59 Q1130.32 1855.78 1124.67 1861.55 Z" fill="#000000" fill-rule="evenodd" fill-opacity="1" /><path clip-path="url(#clip620)" d="M1493.16 1835 L1481.35 1853.45 L1493.16 1853.45 L1493.16 1835 M1491.93 1830.92 L1497.81 1830.92 L1497.81 1853.45 L1502.74 1853.45 L1502.74 1857.34 L1497.81 1857.34 L1497.81 1865.48 L1493.16 1865.48 L1493.16 1857.34 L1477.56 1857.34 L1477.56 1852.82 L1491.93 1830.92 Z" fill="#000000" fill-rule="evenodd" fill-opacity="1" /><path clip-path="url(#clip620)" d="M1850.68 1846.34 Q1847.53 1846.34 1845.68 1848.49 Q1843.85 1850.65 1843.85 1854.4 Q1843.85 1858.12 1845.68 1860.3 Q1847.53 1862.45 1850.68 1862.45 Q1853.83 1862.45 1855.66 1860.3 Q1857.51 1858.12 1857.51 1854.4 Q1857.51 1850.65 1855.66 1848.49 Q1853.83 1846.34 1850.68 1846.34 M1859.96 1831.69 L1859.96 1835.95 Q1858.2 1835.11 1856.4 1834.67 Q1854.62 1834.23 1852.86 1834.23 Q1848.23 1834.23 1845.77 1837.36 Q1843.34 1840.48 1843 1846.8 Q1844.36 1844.79 1846.42 1843.72 Q1848.48 1842.64 1850.96 1842.64 Q1856.17 1842.64 1859.18 1845.81 Q1862.21 1848.96 1862.21 1854.4 Q1862.21 1859.72 1859.06 1862.94 Q1855.91 1866.15 1850.68 1866.15 Q1844.69 1866.15 1841.51 1861.57 Q1838.34 1856.96 1838.34 1848.24 Q1838.34 1840.04 1842.23 1835.18 Q1846.12 1830.3 1852.67 1830.3 Q1854.43 1830.3 1856.21 1830.65 Q1858.02 1830.99 1859.96 1831.69 Z" fill="#000000" fill-rule="evenodd" fill-opacity="1" /><path clip-path="url(#clip620)" d="M2210.4 1849.07 Q2207.07 1849.07 2205.15 1850.85 Q2203.25 1852.64 2203.25 1855.76 Q2203.25 1858.89 2205.15 1860.67 Q2207.07 1862.45 2210.4 1862.45 Q2213.74 1862.45 2215.66 1860.67 Q2217.58 1858.86 2217.58 1855.76 Q2217.58 1852.64 2215.66 1850.85 Q2213.76 1849.07 2210.4 1849.07 M2205.73 1847.08 Q2202.72 1846.34 2201.03 1844.28 Q2199.36 1842.22 2199.36 1839.26 Q2199.36 1835.11 2202.3 1832.71 Q2205.26 1830.3 2210.4 1830.3 Q2215.57 1830.3 2218.51 1832.71 Q2221.45 1835.11 2221.45 1839.26 Q2221.45 1842.22 2219.76 1844.28 Q2218.09 1846.34 2215.1 1847.08 Q2218.48 1847.87 2220.36 1850.16 Q2222.26 1852.45 2222.26 1855.76 Q2222.26 1860.78 2219.18 1863.47 Q2216.12 1866.15 2210.4 1866.15 Q2204.69 1866.15 2201.61 1863.47 Q2198.55 1860.78 2198.55 1855.76 Q2198.55 1852.45 2200.45 1850.16 Q2202.35 1847.87 2205.73 1847.08 M2204.01 1839.7 Q2204.01 1842.38 2205.68 1843.89 Q2207.37 1845.39 2210.4 1845.39 Q2213.41 1845.39 2215.1 1843.89 Q2216.82 1842.38 2216.82 1839.7 Q2216.82 1837.01 2215.1 1835.51 Q2213.41 1834 2210.4 1834 Q2207.37 1834 2205.68 1835.51 Q2204.01 1837.01 2204.01 1839.7 Z" fill="#000000" fill-rule="evenodd" fill-opacity="1" /><path clip-path="url(#clip620)" d="M2545.22 1861.55 L2552.86 1861.55 L2552.86 1835.18 L2544.55 1836.85 L2544.55 1832.59 L2552.81 1830.92 L2557.49 1830.92 L2557.49 1861.55 L2565.13 1861.55 L2565.13 1865.48 L2545.22 1865.48 L2545.22 1861.55 Z" fill="#000000" fill-rule="evenodd" fill-opacity="1" /><path clip-path="url(#clip620)" d="M2584.57 1834 Q2580.96 1834 2579.13 1837.57 Q2577.33 1841.11 2577.33 1848.24 Q2577.33 1855.34 2579.13 1858.91 Q2580.96 1862.45 2584.57 1862.45 Q2588.2 1862.45 2590.01 1858.91 Q2591.84 1855.34 2591.84 1848.24 Q2591.84 1841.11 2590.01 1837.57 Q2588.2 1834 2584.57 1834 M2584.57 1830.3 Q2590.38 1830.3 2593.44 1834.9 Q2596.51 1839.49 2596.51 1848.24 Q2596.51 1856.96 2593.44 1861.57 Q2590.38 1866.15 2584.57 1866.15 Q2578.76 1866.15 2575.68 1861.57 Q2572.63 1856.96 2572.63 1848.24 Q2572.63 1839.49 2575.68 1834.9 Q2578.76 1830.3 2584.57 1830.3 Z" fill="#000000" fill-rule="evenodd" fill-opacity="1" /><polyline clip-path="url(#clip622)" style="stroke:#000000; stroke-linecap:round; stroke-linejoin:round; stroke-width:2; stroke-opacity:0.1; fill:none" points="
  159.478,1751.15 2640.76,1751.15 
  "/>
<polyline clip-path="url(#clip622)" style="stroke:#000000; stroke-linecap:round; stroke-linejoin:round; stroke-width:2; stroke-opacity:0.1; fill:none" points="
  159.478,1380.45 2640.76,1380.45 
  "/>
<polyline clip-path="url(#clip622)" style="stroke:#000000; stroke-linecap:round; stroke-linejoin:round; stroke-width:2; stroke-opacity:0.1; fill:none" points="
  159.478,1009.74 2640.76,1009.74 
  "/>
<polyline clip-path="url(#clip622)" style="stroke:#000000; stroke-linecap:round; stroke-linejoin:round; stroke-width:2; stroke-opacity:0.1; fill:none" points="
  159.478,639.041 2640.76,639.041 
  "/>
<polyline clip-path="url(#clip622)" style="stroke:#000000; stroke-linecap:round; stroke-linejoin:round; stroke-width:2; stroke-opacity:0.1; fill:none" points="
  159.478,268.337 2640.76,268.337 
  "/>
<polyline clip-path="url(#clip620)" style="stroke:#000000; stroke-linecap:round; stroke-linejoin:round; stroke-width:4; stroke-opacity:1; fill:none" points="
  159.478,1800.78 159.478,47.2441 
  "/>
<polyline clip-path="url(#clip620)" style="stroke:#000000; stroke-linecap:round; stroke-linejoin:round; stroke-width:4; stroke-opacity:1; fill:none" points="
  159.478,1751.15 178.376,1751.15 
  "/>
<polyline clip-path="url(#clip620)" style="stroke:#000000; stroke-linecap:round; stroke-linejoin:round; stroke-width:4; stroke-opacity:1; fill:none" points="
  159.478,1380.45 178.376,1380.45 
  "/>
<polyline clip-path="url(#clip620)" style="stroke:#000000; stroke-linecap:round; stroke-linejoin:round; stroke-width:4; stroke-opacity:1; fill:none" points="
  159.478,1009.74 178.376,1009.74 
  "/>
<polyline clip-path="url(#clip620)" style="stroke:#000000; stroke-linecap:round; stroke-linejoin:round; stroke-width:4; stroke-opacity:1; fill:none" points="
  159.478,639.041 178.376,639.041 
  "/>
<polyline clip-path="url(#clip620)" style="stroke:#000000; stroke-linecap:round; stroke-linejoin:round; stroke-width:4; stroke-opacity:1; fill:none" points="
  159.478,268.337 178.376,268.337 
  "/>
<path clip-path="url(#clip620)" d="M61.9826 1736.95 Q58.3715 1736.95 56.5428 1740.51 Q54.7373 1744.06 54.7373 1751.19 Q54.7373 1758.29 56.5428 1761.86 Q58.3715 1765.4 61.9826 1765.4 Q65.6169 1765.4 67.4224 1761.86 Q69.2511 1758.29 69.2511 1751.19 Q69.2511 1744.06 67.4224 1740.51 Q65.6169 1736.95 61.9826 1736.95 M61.9826 1733.25 Q67.7928 1733.25 70.8483 1737.85 Q73.927 1742.44 73.927 1751.19 Q73.927 1759.91 70.8483 1764.52 Q67.7928 1769.1 61.9826 1769.1 Q56.1725 1769.1 53.0938 1764.52 Q50.0382 1759.91 50.0382 1751.19 Q50.0382 1742.44 53.0938 1737.85 Q56.1725 1733.25 61.9826 1733.25 Z" fill="#000000" fill-rule="evenodd" fill-opacity="1" /><path clip-path="url(#clip620)" d="M82.1445 1762.55 L87.0288 1762.55 L87.0288 1768.43 L82.1445 1768.43 L82.1445 1762.55 Z" fill="#000000" fill-rule="evenodd" fill-opacity="1" /><path clip-path="url(#clip620)" d="M107.214 1736.95 Q103.603 1736.95 101.774 1740.51 Q99.9685 1744.06 99.9685 1751.19 Q99.9685 1758.29 101.774 1761.86 Q103.603 1765.4 107.214 1765.4 Q110.848 1765.4 112.654 1761.86 Q114.482 1758.29 114.482 1751.19 Q114.482 1744.06 112.654 1740.51 Q110.848 1736.95 107.214 1736.95 M107.214 1733.25 Q113.024 1733.25 116.08 1737.85 Q119.158 1742.44 119.158 1751.19 Q119.158 1759.91 116.08 1764.52 Q113.024 1769.1 107.214 1769.1 Q101.404 1769.1 98.325 1764.52 Q95.2695 1759.91 95.2695 1751.19 Q95.2695 1742.44 98.325 1737.85 Q101.404 1733.25 107.214 1733.25 Z" fill="#000000" fill-rule="evenodd" fill-opacity="1" /><path clip-path="url(#clip620)" d="M63.5798 1366.25 Q59.9687 1366.25 58.14 1369.81 Q56.3345 1373.35 56.3345 1380.48 Q56.3345 1387.59 58.14 1391.15 Q59.9687 1394.7 63.5798 1394.7 Q67.2141 1394.7 69.0196 1391.15 Q70.8483 1387.59 70.8483 1380.48 Q70.8483 1373.35 69.0196 1369.81 Q67.2141 1366.25 63.5798 1366.25 M63.5798 1362.54 Q69.39 1362.54 72.4455 1367.15 Q75.5242 1371.73 75.5242 1380.48 Q75.5242 1389.21 72.4455 1393.82 Q69.39 1398.4 63.5798 1398.4 Q57.7697 1398.4 54.691 1393.82 Q51.6354 1389.21 51.6354 1380.48 Q51.6354 1371.73 54.691 1367.15 Q57.7697 1362.54 63.5798 1362.54 Z" fill="#000000" fill-rule="evenodd" fill-opacity="1" /><path clip-path="url(#clip620)" d="M83.7418 1391.85 L88.626 1391.85 L88.626 1397.73 L83.7418 1397.73 L83.7418 1391.85 Z" fill="#000000" fill-rule="evenodd" fill-opacity="1" /><path clip-path="url(#clip620)" d="M102.839 1393.79 L119.158 1393.79 L119.158 1397.73 L97.2139 1397.73 L97.2139 1393.79 Q99.8759 1391.04 104.459 1386.41 Q109.066 1381.76 110.246 1380.41 Q112.492 1377.89 113.371 1376.15 Q114.274 1374.39 114.274 1372.7 Q114.274 1369.95 112.33 1368.21 Q110.408 1366.48 107.306 1366.48 Q105.107 1366.48 102.654 1367.24 Q100.223 1368.01 97.4454 1369.56 L97.4454 1364.83 Q100.269 1363.7 102.723 1363.12 Q105.177 1362.54 107.214 1362.54 Q112.584 1362.54 115.779 1365.23 Q118.973 1367.91 118.973 1372.4 Q118.973 1374.53 118.163 1376.45 Q117.376 1378.35 115.269 1380.95 Q114.691 1381.62 111.589 1384.83 Q108.487 1388.03 102.839 1393.79 Z" fill="#000000" fill-rule="evenodd" fill-opacity="1" /><path clip-path="url(#clip620)" d="M61.4965 995.543 Q57.8854 995.543 56.0567 999.108 Q54.2512 1002.65 54.2512 1009.78 Q54.2512 1016.89 56.0567 1020.45 Q57.8854 1023.99 61.4965 1023.99 Q65.1307 1023.99 66.9363 1020.45 Q68.765 1016.89 68.765 1009.78 Q68.765 1002.65 66.9363 999.108 Q65.1307 995.543 61.4965 995.543 M61.4965 991.839 Q67.3067 991.839 70.3622 996.446 Q73.4409 1001.03 73.4409 1009.78 Q73.4409 1018.51 70.3622 1023.11 Q67.3067 1027.7 61.4965 1027.7 Q55.6864 1027.7 52.6077 1023.11 Q49.5521 1018.51 49.5521 1009.78 Q49.5521 1001.03 52.6077 996.446 Q55.6864 991.839 61.4965 991.839 Z" fill="#000000" fill-rule="evenodd" fill-opacity="1" /><path clip-path="url(#clip620)" d="M81.6584 1021.14 L86.5427 1021.14 L86.5427 1027.02 L81.6584 1027.02 L81.6584 1021.14 Z" fill="#000000" fill-rule="evenodd" fill-opacity="1" /><path clip-path="url(#clip620)" d="M109.575 996.538 L97.7695 1014.99 L109.575 1014.99 L109.575 996.538 M108.348 992.464 L114.228 992.464 L114.228 1014.99 L119.158 1014.99 L119.158 1018.88 L114.228 1018.88 L114.228 1027.02 L109.575 1027.02 L109.575 1018.88 L93.9732 1018.88 L93.9732 1014.36 L108.348 992.464 Z" fill="#000000" fill-rule="evenodd" fill-opacity="1" /><path clip-path="url(#clip620)" d="M61.8206 624.839 Q58.2095 624.839 56.3808 628.404 Q54.5752 631.946 54.5752 639.075 Q54.5752 646.182 56.3808 649.747 Q58.2095 653.288 61.8206 653.288 Q65.4548 653.288 67.2604 649.747 Q69.0891 646.182 69.0891 639.075 Q69.0891 631.946 67.2604 628.404 Q65.4548 624.839 61.8206 624.839 M61.8206 621.136 Q67.6307 621.136 70.6863 625.742 Q73.765 630.325 73.765 639.075 Q73.765 647.802 70.6863 652.409 Q67.6307 656.992 61.8206 656.992 Q56.0104 656.992 52.9317 652.409 Q49.8762 647.802 49.8762 639.075 Q49.8762 630.325 52.9317 625.742 Q56.0104 621.136 61.8206 621.136 Z" fill="#000000" fill-rule="evenodd" fill-opacity="1" /><path clip-path="url(#clip620)" d="M81.9825 650.441 L86.8667 650.441 L86.8667 656.321 L81.9825 656.321 L81.9825 650.441 Z" fill="#000000" fill-rule="evenodd" fill-opacity="1" /><path clip-path="url(#clip620)" d="M107.631 637.177 Q104.482 637.177 102.631 639.33 Q100.802 641.483 100.802 645.233 Q100.802 648.96 102.631 651.135 Q104.482 653.288 107.631 653.288 Q110.779 653.288 112.607 651.135 Q114.459 648.96 114.459 645.233 Q114.459 641.483 112.607 639.33 Q110.779 637.177 107.631 637.177 M116.913 622.524 L116.913 626.784 Q115.154 625.95 113.348 625.511 Q111.566 625.071 109.806 625.071 Q105.177 625.071 102.723 628.196 Q100.293 631.321 99.9454 637.64 Q101.311 635.626 103.371 634.561 Q105.431 633.473 107.908 633.473 Q113.117 633.473 116.126 636.645 Q119.158 639.793 119.158 645.233 Q119.158 650.557 116.01 653.774 Q112.862 656.992 107.631 656.992 Q101.635 656.992 98.4639 652.409 Q95.2926 647.802 95.2926 639.075 Q95.2926 630.881 99.1815 626.02 Q103.07 621.136 109.621 621.136 Q111.38 621.136 113.163 621.483 Q114.968 621.83 116.913 622.524 Z" fill="#000000" fill-rule="evenodd" fill-opacity="1" /><path clip-path="url(#clip620)" d="M62.0752 254.136 Q58.4641 254.136 56.6354 257.701 Q54.8299 261.242 54.8299 268.372 Q54.8299 275.478 56.6354 279.043 Q58.4641 282.585 62.0752 282.585 Q65.7094 282.585 67.515 279.043 Q69.3437 275.478 69.3437 268.372 Q69.3437 261.242 67.515 257.701 Q65.7094 254.136 62.0752 254.136 M62.0752 250.432 Q67.8854 250.432 70.9409 255.039 Q74.0196 259.622 74.0196 268.372 Q74.0196 277.099 70.9409 281.705 Q67.8854 286.288 62.0752 286.288 Q56.2651 286.288 53.1864 281.705 Q50.1308 277.099 50.1308 268.372 Q50.1308 259.622 53.1864 255.039 Q56.2651 250.432 62.0752 250.432 Z" fill="#000000" fill-rule="evenodd" fill-opacity="1" /><path clip-path="url(#clip620)" d="M82.2371 279.738 L87.1214 279.738 L87.1214 285.617 L82.2371 285.617 L82.2371 279.738 Z" fill="#000000" fill-rule="evenodd" fill-opacity="1" /><path clip-path="url(#clip620)" d="M107.306 269.205 Q103.973 269.205 102.052 270.988 Q100.154 272.77 100.154 275.895 Q100.154 279.02 102.052 280.802 Q103.973 282.585 107.306 282.585 Q110.64 282.585 112.561 280.802 Q114.482 278.997 114.482 275.895 Q114.482 272.77 112.561 270.988 Q110.663 269.205 107.306 269.205 M102.631 267.214 Q99.6213 266.474 97.9315 264.414 Q96.2648 262.353 96.2648 259.39 Q96.2648 255.247 99.2046 252.84 Q102.168 250.432 107.306 250.432 Q112.468 250.432 115.408 252.84 Q118.348 255.247 118.348 259.39 Q118.348 262.353 116.658 264.414 Q114.992 266.474 112.005 267.214 Q115.385 268.001 117.26 270.293 Q119.158 272.585 119.158 275.895 Q119.158 280.918 116.08 283.603 Q113.024 286.288 107.306 286.288 Q101.589 286.288 98.5102 283.603 Q95.4547 280.918 95.4547 275.895 Q95.4547 272.585 97.3528 270.293 Q99.2509 268.001 102.631 267.214 M100.918 259.83 Q100.918 262.515 102.584 264.02 Q104.274 265.525 107.306 265.525 Q110.316 265.525 112.005 264.02 Q113.718 262.515 113.718 259.83 Q113.718 257.145 112.005 255.64 Q110.316 254.136 107.306 254.136 Q104.274 254.136 102.584 255.64 Q100.918 257.145 100.918 259.83 Z" fill="#000000" fill-rule="evenodd" fill-opacity="1" /><polyline clip-path="url(#clip622)" style="stroke:#009af9; stroke-linecap:round; stroke-linejoin:round; stroke-width:4; stroke-opacity:1; fill:none" points="
  229.703,1751.15 231.504,1751.15 233.304,1751.15 235.105,1751.15 236.906,1751.15 238.706,1751.15 240.507,1751.15 242.308,1751.15 244.108,1751.15 245.909,1751.15 
  247.709,1751.15 249.51,1751.15 251.311,1751.15 253.111,1751.15 254.912,1751.15 256.713,1751.15 258.513,1751.15 260.314,1751.15 262.115,1751.15 263.915,1751.15 
  265.716,1751.15 267.516,1751.15 269.317,1751.15 271.118,1751.15 272.918,1751.15 274.719,1751.15 276.52,1751.15 278.32,1751.15 280.121,1751.15 281.922,1751.15 
  283.722,1751.15 285.523,1751.15 287.323,1751.15 289.124,1751.15 290.925,1751.15 292.725,1751.15 294.526,1751.15 296.327,1751.15 298.127,1751.15 299.928,1751.15 
  301.729,1751.15 303.529,1751.15 305.33,1751.15 307.13,1751.15 308.931,1751.15 310.732,1751.15 312.532,1751.15 314.333,1751.15 316.134,1751.15 317.934,1751.15 
  319.735,1751.15 321.536,1751.15 323.336,1751.15 325.137,1751.15 326.937,1751.15 328.738,1751.15 330.539,1751.15 332.339,1751.15 334.14,1751.15 335.941,1751.15 
  337.741,1751.15 339.542,1751.15 341.343,1751.15 343.143,1751.15 344.944,1751.15 346.744,1751.15 348.545,1751.15 350.346,1751.15 352.146,1751.15 353.947,1751.15 
  355.748,1751.15 357.548,1751.15 359.349,1751.15 361.15,1751.15 362.95,1751.15 364.751,1751.15 366.551,1751.15 368.352,1751.15 370.153,1751.15 371.953,1751.15 
  373.754,1751.15 375.555,1751.15 377.355,1751.15 379.156,1751.15 380.957,1751.15 382.757,1751.15 384.558,1751.15 386.358,1751.15 388.159,1751.15 389.96,1751.15 
  391.76,1751.15 393.561,1751.15 395.362,1751.15 397.162,1751.15 398.963,1751.15 400.764,1751.15 402.564,1751.15 404.365,1751.15 406.165,1751.15 407.966,1751.15 
  409.767,1751.15 411.567,1751.15 413.368,1751.15 415.169,1751.15 416.969,1751.15 418.77,1751.15 420.571,1751.15 422.371,1751.15 424.172,1751.15 425.972,1751.15 
  427.773,1751.15 429.574,1751.15 431.374,1751.15 433.175,1751.15 434.976,1751.15 436.776,1751.15 438.577,1751.15 440.378,1751.15 442.178,1751.15 443.979,1751.15 
  445.78,1751.15 447.58,1751.15 449.381,1751.15 451.181,1751.15 452.982,1751.15 454.783,1751.15 456.583,1751.15 458.384,1751.15 460.185,1751.15 461.985,1751.15 
  463.786,1751.15 465.587,1751.15 467.387,1751.15 469.188,1751.15 470.988,1751.15 472.789,1751.15 474.59,1751.15 476.39,1751.15 478.191,1751.15 479.992,1751.15 
  481.792,1751.15 483.593,1751.15 485.394,1751.15 487.194,1751.15 488.995,1751.15 490.795,1751.15 492.596,1751.15 494.397,1751.15 496.197,1751.15 497.998,1751.15 
  499.799,1751.15 501.599,1751.15 503.4,1751.15 505.201,1751.15 507.001,1751.15 508.802,1751.15 510.602,1751.15 512.403,1751.15 514.204,1751.15 516.004,1751.15 
  517.805,1751.15 519.606,1751.15 521.406,1751.15 523.207,1751.15 525.008,1751.15 526.808,1751.15 528.609,1751.15 530.409,1751.15 532.21,1751.15 534.011,1751.15 
  535.811,1751.15 537.612,1751.15 539.413,1751.15 541.213,1751.15 543.014,1751.15 544.815,1751.15 546.615,1751.15 548.416,1751.15 550.216,1751.15 552.017,1751.15 
  553.818,1751.15 555.618,1751.15 557.419,1751.15 559.22,1751.15 561.02,1751.15 562.821,1751.15 564.622,1751.15 566.422,1751.15 568.223,1751.15 570.023,1751.15 
  571.824,1751.15 573.625,1751.15 575.425,1751.15 577.226,1751.15 579.027,1751.15 580.827,1751.15 582.628,1751.15 584.429,1751.15 586.229,1751.15 588.03,1751.15 
  589.83,1751.15 591.631,1751.15 593.432,1751.15 595.232,1751.15 597.033,1751.15 598.834,1751.15 600.634,1751.15 602.435,1751.15 604.236,1751.15 606.036,1751.15 
  607.837,1751.15 609.637,1751.15 611.438,1751.15 613.239,1751.15 615.039,1751.15 616.84,1751.15 618.641,1751.15 620.441,1751.15 622.242,1751.15 624.043,1751.15 
  625.843,1751.15 627.644,1751.15 629.444,1751.15 631.245,1751.15 633.046,1751.15 634.846,1751.15 636.647,1751.15 638.448,1751.15 640.248,1751.15 642.049,1751.15 
  643.85,1751.15 645.65,1751.15 647.451,1751.15 649.251,1751.15 651.052,1751.15 652.853,1751.15 654.653,1751.15 656.454,1751.15 658.255,1751.15 660.055,1751.15 
  661.856,1751.15 663.657,1751.15 665.457,1751.15 667.258,1751.15 669.058,1751.15 670.859,1751.15 672.66,1751.15 674.46,1751.15 676.261,1751.15 678.062,1751.15 
  679.862,1751.15 681.663,1751.15 683.464,1751.15 685.264,1751.15 687.065,1751.15 688.865,1751.15 690.666,1751.15 692.467,1751.15 694.267,1751.15 696.068,1751.15 
  697.869,1751.15 699.669,1751.15 701.47,1751.15 703.271,1751.15 705.071,1751.15 706.872,1751.15 708.672,1751.15 710.473,1751.15 712.274,1751.15 714.074,1751.15 
  715.875,1751.15 717.676,1751.15 719.476,1751.15 721.277,1751.15 723.078,1751.14 724.878,1751.13 726.679,1751.11 728.48,1751.08 730.28,1751.04 732.081,1750.99 
  733.881,1750.93 735.682,1750.87 737.483,1750.8 739.283,1750.73 741.084,1750.65 742.885,1750.56 744.685,1750.45 746.486,1750.34 748.287,1750.25 750.087,1750.19 
  751.888,1750.19 753.688,1750.25 755.489,1750.34 757.29,1750.46 759.09,1750.56 760.891,1750.62 762.692,1750.63 764.492,1750.59 766.293,1750.53 768.094,1750.47 
  769.894,1750.46 771.695,1750.48 773.495,1750.53 775.296,1750.6 777.097,1750.66 778.897,1750.69 780.698,1750.69 782.499,1750.67 784.299,1750.63 786.1,1750.59 
  787.901,1750.55 789.701,1750.52 791.502,1750.5 793.302,1750.49 795.103,1750.5 796.904,1750.55 798.704,1750.61 800.505,1750.68 802.306,1750.74 804.106,1750.75 
  805.907,1750.69 807.708,1750.54 809.508,1750.33 811.309,1750.05 813.109,1749.76 814.91,1749.49 816.711,1749.27 818.511,1749.14 820.312,1749.09 822.113,1749.13 
  823.913,1749.23 825.714,1749.36 827.515,1749.48 829.315,1749.54 831.116,1749.5 832.916,1749.35 834.717,1749.1 836.518,1748.75 838.318,1748.37 840.119,1747.99 
  841.92,1747.65 843.72,1747.37 845.521,1747.15 847.322,1746.97 849.122,1746.8 850.923,1746.61 852.723,1746.35 854.524,1745.99 856.325,1745.53 858.125,1744.95 
  859.926,1744.27 861.727,1743.52 863.527,1742.75 865.328,1742 867.129,1741.32 868.929,1740.74 870.73,1740.26 872.53,1739.84 874.331,1739.46 876.132,1739.04 
  877.932,1738.54 879.733,1737.93 881.534,1737.19 883.334,1736.32 885.135,1735.32 886.936,1734.18 888.736,1732.92 890.537,1731.55 892.337,1730.15 894.138,1728.75 
  895.939,1727.4 897.739,1726.11 899.54,1724.83 901.341,1723.5 903.141,1722.02 904.942,1720.25 906.743,1718.12 908.543,1715.54 910.344,1712.53 912.144,1709.15 
  913.945,1705.55 915.746,1701.89 917.546,1698.33 919.347,1694.94 921.148,1691.68 922.948,1688.45 924.749,1685.12 926.55,1681.6 928.35,1677.82 930.151,1673.75 
  931.951,1669.33 933.752,1664.51 935.553,1659.26 937.353,1653.64 939.154,1647.83 940.955,1642.09 942.755,1636.67 944.556,1631.69 946.357,1627.1 948.157,1622.63 
  949.958,1617.96 951.758,1612.76 953.559,1606.87 955.36,1600.29 957.16,1593.18 958.961,1585.75 960.762,1578.15 962.562,1570.45 964.363,1562.56 966.164,1554.33 
  967.964,1545.56 969.765,1536.05 971.565,1525.67 973.366,1514.39 975.167,1502.28 976.967,1489.52 978.768,1476.35 980.569,1462.98 982.369,1449.59 984.17,1436.25 
  985.971,1422.93 987.771,1409.49 989.572,1395.69 991.372,1381.21 993.173,1365.74 994.974,1349.03 996.774,1330.98 998.575,1311.7 1000.38,1291.54 1002.18,1271.1 
  1003.98,1251.06 1005.78,1231.94 1007.58,1213.88 1009.38,1196.58 1011.18,1179.49 1012.98,1162.09 1014.78,1144.15 1016.58,1125.78 1018.38,1107.21 1020.18,1088.61 
  1021.98,1069.94 1023.78,1050.94 1025.58,1031.38 1027.39,1011.16 1029.19,990.356 1030.99,969.125 1032.79,947.552 1034.59,925.575 1036.39,903.005 1038.19,879.666 
  1039.99,855.557 1041.79,830.944 1043.59,806.313 1045.39,782.174 1047.19,758.824 1048.99,736.189 1050.79,713.877 1052.59,691.412 1054.39,668.526 1056.2,645.358 
  1058,622.418 1059.8,600.363 1061.6,579.686 1063.4,560.483 1065.2,542.399 1067,524.769 1068.8,506.869 1070.6,488.163 1072.4,468.444 1074.2,447.826 
  1076,426.633 1077.8,405.265 1079.6,384.121 1081.4,363.565 1083.2,343.892 1085.01,325.24 1086.81,307.465 1088.61,290.106 1090.41,272.522 1092.21,254.22 
  1094.01,235.216 1095.81,216.219 1097.61,198.474 1099.41,183.346 1101.21,171.833 1103.01,164.269 1104.81,160.307 1106.61,159.1 1108.41,159.533 1110.21,160.396 
  1112.02,160.522 1113.82,158.968 1115.62,155.227 1117.42,149.38 1119.22,142.061 1121.02,134.226 1122.82,126.786 1124.62,120.32 1126.42,114.973 1128.22,110.581 
  1130.02,106.892 1131.82,103.737 1133.62,101.078 1135.42,98.9598 1137.22,97.4885 1139.02,96.8724 1140.83,97.5016 1142.63,99.9553 1144.43,104.87 1146.23,112.695 
  1148.03,123.46 1149.83,136.689 1151.63,151.506 1153.43,166.921 1155.23,182.15 1157.03,196.844 1158.83,211.123 1160.63,225.369 1162.43,239.897 1164.23,254.668 
  1166.03,269.243 1167.83,283.042 1169.64,295.777 1171.44,307.768 1173.24,319.928 1175.04,333.383 1176.84,348.955 1178.64,366.815 1180.44,386.487 1182.24,407.189 
  1184.04,428.28 1185.84,449.551 1187.64,471.238 1189.44,493.756 1191.24,517.353 1193.04,541.86 1194.84,566.692 1196.65,591.083 1198.45,614.426 1200.25,636.542 
  1202.05,657.75 1203.85,678.721 1205.65,700.191 1207.45,722.676 1209.25,746.296 1211.05,770.77 1212.85,795.516 1214.65,819.8 1216.45,842.863 1218.25,864.077 
  1220.05,883.153 1221.85,900.369 1223.65,916.653 1225.46,933.405 1227.26,952.036 1229.06,973.424 1230.86,997.556 1232.66,1023.53 1234.46,1049.9 1236.26,1075.19 
  1238.06,1098.33 1239.86,1118.94 1241.66,1137.26 1243.46,1154.03 1245.26,1170.11 1247.06,1186.22 1248.86,1202.73 1250.66,1219.69 1252.46,1236.9 1254.27,1254.13 
  1256.07,1271.21 1257.87,1288.12 1259.67,1304.85 1261.47,1321.43 1263.27,1337.76 1265.07,1353.68 1266.87,1368.99 1268.67,1383.58 1270.47,1397.41 1272.27,1410.59 
  1274.07,1423.22 1275.87,1435.4 1277.67,1447.15 1279.47,1458.51 1281.28,1469.51 1283.08,1480.27 1284.88,1490.89 1286.68,1501.47 1288.48,1512.04 1290.28,1522.51 
  1292.08,1532.74 1293.88,1542.57 1295.68,1551.86 1297.48,1560.57 1299.28,1568.77 1301.08,1576.64 1302.88,1584.4 1304.68,1592.26 1306.48,1600.29 1308.28,1608.4 
  1310.09,1616.38 1311.89,1623.93 1313.69,1630.79 1315.49,1636.81 1317.29,1642.03 1319.09,1646.6 1320.89,1650.75 1322.69,1654.7 1324.49,1658.6 1326.29,1662.47 
  1328.09,1666.28 1329.89,1669.93 1331.69,1673.37 1333.49,1676.63 1335.29,1679.83 1337.09,1683.16 1338.9,1686.77 1340.7,1690.74 1342.5,1695.01 1344.3,1699.39 
  1346.1,1703.63 1347.9,1707.49 1349.7,1710.81 1351.5,1713.55 1353.3,1715.8 1355.1,1717.69 1356.9,1719.42 1358.7,1721.15 1360.5,1722.94 1362.3,1724.8 
  1364.1,1726.6 1365.9,1728.23 1367.71,1729.57 1369.51,1730.56 1371.31,1731.24 1373.11,1731.72 1374.91,1732.14 1376.71,1732.64 1378.51,1733.34 1380.31,1734.3 
  1382.11,1735.5 1383.91,1736.89 1385.71,1738.37 1387.51,1739.82 1389.31,1741.14 1391.11,1742.28 1392.91,1743.23 1394.72,1744.02 1396.52,1744.7 1398.32,1745.33 
  1400.12,1745.95 1401.92,1746.58 1403.72,1747.2 1405.52,1747.8 1407.32,1748.34 1409.12,1748.78 1410.92,1749.1 1412.72,1749.28 1414.52,1749.34 1416.32,1749.3 
  1418.12,1749.21 1419.92,1749.12 1421.72,1749.08 1423.53,1749.12 1425.33,1749.23 1427.13,1749.41 1428.93,1749.64 1430.73,1749.89 1432.53,1750.14 1434.33,1750.37 
  1436.13,1750.55 1437.93,1750.68 1439.73,1750.76 1441.53,1750.78 1443.33,1750.75 1445.13,1750.67 1446.93,1750.55 1448.73,1750.41 1450.53,1750.26 1452.34,1750.14 
  1454.14,1750.08 1455.94,1750.09 1457.74,1750.17 1459.54,1750.31 1461.34,1750.48 1463.14,1750.64 1464.94,1750.79 1466.74,1750.9 1468.54,1750.98 1470.34,1751.02 
  1472.14,1751.05 1473.94,1751.04 1475.74,1751.01 1477.54,1750.95 1479.35,1750.87 1481.15,1750.77 1482.95,1750.67 1484.75,1750.59 1486.55,1750.54 1488.35,1750.53 
  1490.15,1750.57 
  "/>
<polyline clip-path="url(#clip622)" style="stroke:#e26f46; stroke-linecap:round; stroke-linejoin:round; stroke-width:4; stroke-opacity:1; fill:none" points="
  229.703,1751.13 231.504,1751.12 233.304,1751.11 235.105,1751.09 236.906,1751.07 238.706,1751.04 240.507,1751.02 242.308,1750.99 244.108,1750.97 245.909,1750.95 
  247.709,1750.94 249.51,1750.94 251.311,1750.94 253.111,1750.94 254.912,1750.95 256.713,1750.96 258.513,1750.96 260.314,1750.94 262.115,1750.92 263.915,1750.9 
  265.716,1750.86 267.516,1750.82 269.317,1750.79 271.118,1750.76 272.918,1750.75 274.719,1750.75 276.52,1750.77 278.32,1750.8 280.121,1750.83 281.922,1750.88 
  283.722,1750.93 285.523,1750.97 287.323,1751.01 289.124,1751.03 290.925,1751.04 292.725,1751.04 294.526,1751.03 296.327,1751 298.127,1750.96 299.928,1750.91 
  301.729,1750.85 303.529,1750.79 305.33,1750.73 307.13,1750.68 308.931,1750.64 310.732,1750.61 312.532,1750.61 314.333,1750.61 316.134,1750.62 317.934,1750.63 
  319.735,1750.64 321.536,1750.63 323.336,1750.61 325.137,1750.58 326.937,1750.54 328.738,1750.49 330.539,1750.43 332.339,1750.39 334.14,1750.34 335.941,1750.31 
  337.741,1750.28 339.542,1750.27 341.343,1750.26 343.143,1750.26 344.944,1750.27 346.744,1750.28 348.545,1750.3 350.346,1750.33 352.146,1750.35 353.947,1750.38 
  355.748,1750.39 357.548,1750.4 359.349,1750.38 361.15,1750.33 362.95,1750.26 364.751,1750.15 366.551,1750.02 368.352,1749.86 370.153,1749.68 371.953,1749.5 
  373.754,1749.31 375.555,1749.13 377.355,1748.95 379.156,1748.78 380.957,1748.61 382.757,1748.44 384.558,1748.26 386.358,1748.09 388.159,1747.91 389.96,1747.72 
  391.76,1747.51 393.561,1747.29 395.362,1747.06 397.162,1746.8 398.963,1746.54 400.764,1746.27 402.564,1746 404.365,1745.74 406.165,1745.49 407.966,1745.27 
  409.767,1745.07 411.567,1744.91 413.368,1744.79 415.169,1744.7 416.969,1744.64 418.77,1744.59 420.571,1744.55 422.371,1744.48 424.172,1744.36 425.972,1744.17 
  427.773,1743.9 429.574,1743.52 431.374,1743.06 433.175,1742.51 434.976,1741.91 436.776,1741.26 438.577,1740.6 440.378,1739.93 442.178,1739.27 443.979,1738.62 
  445.78,1738 447.58,1737.4 449.381,1736.84 451.181,1736.3 452.982,1735.77 454.783,1735.24 456.583,1734.69 458.384,1734.09 460.185,1733.43 461.985,1732.69 
  463.786,1731.89 465.587,1731.04 467.387,1730.18 469.188,1729.32 470.988,1728.47 472.789,1727.63 474.59,1726.8 476.39,1725.97 478.191,1725.14 479.992,1724.31 
  481.792,1723.48 483.593,1722.64 485.394,1721.76 487.194,1720.82 488.995,1719.77 490.795,1718.58 492.596,1717.22 494.397,1715.69 496.197,1713.98 497.998,1712.13 
  499.799,1710.16 501.599,1708.12 503.4,1706.04 505.201,1703.96 507.001,1701.9 508.802,1699.88 510.602,1697.89 512.403,1695.92 514.204,1693.94 516.004,1691.89 
  517.805,1689.74 519.606,1687.42 521.406,1684.93 523.207,1682.24 525.008,1679.39 526.808,1676.41 528.609,1673.35 530.409,1670.27 532.21,1667.22 534.011,1664.22 
  535.811,1661.27 537.612,1658.37 539.413,1655.46 541.213,1652.47 543.014,1649.31 544.815,1645.88 546.615,1642.11 548.416,1637.96 550.216,1633.41 552.017,1628.46 
  553.818,1623.17 555.618,1617.58 557.419,1611.74 559.22,1605.72 561.02,1599.56 562.821,1593.32 564.622,1587.05 566.422,1580.83 568.223,1574.71 570.023,1568.77 
  571.824,1563.06 573.625,1557.62 575.425,1552.44 577.226,1547.49 579.027,1542.69 580.827,1537.95 582.628,1533.13 584.429,1528.11 586.229,1522.79 588.03,1517.07 
  589.83,1510.9 591.631,1504.24 593.432,1497.11 595.232,1489.52 597.033,1481.51 598.834,1473.11 600.634,1464.35 602.435,1455.24 604.236,1445.77 606.036,1435.91 
  607.837,1425.66 609.637,1415.03 611.438,1404.07 613.239,1392.84 615.039,1381.46 616.84,1370.04 618.641,1358.69 620.441,1347.48 622.242,1336.46 624.043,1325.69 
  625.843,1315.18 627.644,1304.99 629.444,1295.16 631.245,1285.74 633.046,1276.73 634.846,1268.1 636.647,1259.73 638.448,1251.45 640.248,1243 642.049,1234.16 
  643.85,1224.71 645.65,1214.52 647.451,1203.58 649.251,1191.95 651.052,1179.77 652.853,1167.23 654.653,1154.48 656.454,1141.65 658.255,1128.85 660.055,1116.14 
  661.856,1103.57 663.657,1091.18 665.457,1078.99 667.258,1067 669.058,1055.14 670.859,1043.34 672.66,1031.51 674.46,1019.58 676.261,1007.54 678.062,995.473 
  679.862,983.507 681.663,971.799 683.464,960.459 685.264,949.506 687.065,938.84 688.865,928.248 690.666,917.451 692.467,906.16 694.267,894.132 696.068,881.208 
  697.869,867.334 699.669,852.562 701.47,837.052 703.271,821.057 705.071,804.904 706.872,788.965 708.672,773.603 710.473,759.119 712.274,745.706 714.074,733.431 
  715.875,722.247 717.676,712.029 719.476,702.628 721.277,693.897 723.078,685.705 724.878,677.922 726.679,670.4 728.48,662.963 730.28,655.418 732.081,647.592 
  733.881,639.372 735.682,630.726 737.483,621.711 739.283,612.441 741.084,603.051 742.885,593.661 744.685,584.357 746.486,575.191 748.287,566.205 750.087,557.452 
  751.888,549.016 753.688,541.019 755.489,533.61 757.29,526.951 759.09,521.188 760.891,516.438 762.692,512.773 764.492,510.211 766.293,508.706 768.094,508.146 
  769.894,508.35 771.695,509.09 773.495,510.117 775.296,511.207 777.097,512.199 778.897,513.025 780.698,513.705 782.499,514.336 784.299,515.055 786.1,516.009 
  787.901,517.335 789.701,519.149 791.502,521.544 793.302,524.588 795.103,528.308 796.904,532.671 798.704,537.565 800.505,542.785 802.306,548.044 804.106,553.011 
  805.907,557.365 807.708,560.87 809.508,563.443 811.309,565.202 813.109,566.464 814.91,567.717 816.711,569.531 818.511,572.462 820.312,576.949 822.113,583.235 
  823.913,591.333 825.714,601.031 827.515,611.94 829.315,623.57 831.116,635.412 832.916,647.019 834.717,658.067 836.518,668.393 838.318,677.996 840.119,687.013 
  841.92,695.667 843.72,704.216 845.521,712.892 847.322,721.877 849.122,731.286 850.923,741.175 852.723,751.559 854.524,762.421 856.325,773.724 858.125,785.409 
  859.926,797.397 861.727,809.599 863.527,821.933 865.328,834.344 867.129,846.814 868.929,859.367 870.73,872.046 872.53,884.884 874.331,897.87 876.132,910.935 
  877.932,923.956 879.733,936.785 881.534,949.3 883.334,961.449 885.135,973.281 886.936,984.938 888.736,996.628 890.537,1008.56 892.337,1020.89 894.138,1033.68 
  895.939,1046.84 897.739,1060.19 899.54,1073.47 901.341,1086.39 903.141,1098.71 904.942,1110.26 906.743,1121.01 908.543,1131.03 910.344,1140.52 912.144,1149.73 
  913.945,1158.97 915.746,1168.53 917.546,1178.61 919.347,1189.35 921.148,1200.75 922.948,1212.72 924.749,1225.09 926.55,1237.66 928.35,1250.22 930.151,1262.62 
  931.951,1274.78 933.752,1286.66 935.553,1298.32 937.353,1309.81 939.154,1321.19 940.955,1332.5 942.755,1343.72 944.556,1354.82 946.357,1365.74 948.157,1376.41 
  949.958,1386.78 951.758,1396.86 953.559,1406.66 955.36,1416.2 957.16,1425.51 958.961,1434.6 960.762,1443.46 962.562,1452.05 964.363,1460.32 966.164,1468.24 
  967.964,1475.83 969.765,1483.13 971.565,1490.22 973.366,1497.2 975.167,1504.17 976.967,1511.17 978.768,1518.24 980.569,1525.34 982.369,1532.41 984.17,1539.36 
  985.971,1546.11 987.771,1552.61 989.572,1558.84 991.372,1564.79 993.173,1570.49 994.974,1575.99 996.774,1581.33 998.575,1586.54 1000.38,1591.65 1002.18,1596.67 
  1003.98,1601.6 1005.78,1606.45 1007.58,1611.2 1009.38,1615.83 1011.18,1620.33 1012.98,1624.69 1014.78,1628.9 1016.58,1632.97 1018.38,1636.92 1020.18,1640.78 
  1021.98,1644.57 1023.78,1648.29 1025.58,1651.94 1027.39,1655.49 1029.19,1658.92 1030.99,1662.18 1032.79,1665.29 1034.59,1668.23 1036.39,1671.05 1038.19,1673.79 
  1039.99,1676.49 1041.79,1679.2 1043.59,1681.91 1045.39,1684.62 1047.19,1687.28 1048.99,1689.83 1050.79,1692.21 1052.59,1694.39 1054.39,1696.33 1056.2,1698.06 
  1058,1699.62 1059.8,1701.06 1061.6,1702.45 1063.4,1703.84 1065.2,1705.26 1067,1706.73 1068.8,1708.24 1070.6,1709.77 1072.4,1711.27 1074.2,1712.73 
  1076,1714.11 1077.8,1715.42 1079.6,1716.64 1081.4,1717.8 1083.2,1718.9 1085.01,1719.98 1086.81,1721.05 1088.61,1722.14 1090.41,1723.27 1092.21,1724.46 
  1094.01,1725.71 1095.81,1727.01 1097.61,1728.34 1099.41,1729.66 1101.21,1730.93 1103.01,1732.11 1104.81,1733.15 1106.61,1734.04 1108.41,1734.77 1110.21,1735.34 
  1112.02,1735.78 1113.82,1736.14 1115.62,1736.46 1117.42,1736.78 1119.22,1737.13 1121.02,1737.54 1122.82,1738.03 1124.62,1738.59 1126.42,1739.22 1128.22,1739.9 
  1130.02,1740.6 1131.82,1741.3 1133.62,1741.97 1135.42,1742.59 1137.22,1743.14 1139.02,1743.61 1140.83,1743.98 1142.63,1744.25 1144.43,1744.41 1146.23,1744.47 
  1148.03,1744.43 1149.83,1744.33 1151.63,1744.19 1153.43,1744.05 1155.23,1743.93 1157.03,1743.88 1158.83,1743.9 1160.63,1744.02 1162.43,1744.23 1164.23,1744.53 
  1166.03,1744.89 1167.83,1745.31 1169.64,1745.76 1171.44,1746.22 1173.24,1746.65 1175.04,1747.05 1176.84,1747.41 1178.64,1747.73 1180.44,1748 1182.24,1748.25 
  1184.04,1748.48 1185.84,1748.7 1187.64,1748.92 1189.44,1749.12 1191.24,1749.32 1193.04,1749.51 1194.84,1749.67 1196.65,1749.82 1198.45,1749.94 1200.25,1750.04 
  1202.05,1750.11 1203.85,1750.17 1205.65,1750.2 1207.45,1750.22 1209.25,1750.22 1211.05,1750.22 1212.85,1750.2 1214.65,1750.19 1216.45,1750.18 1218.25,1750.18 
  1220.05,1750.19 1221.85,1750.21 1223.65,1750.24 1225.46,1750.27 1227.26,1750.31 1229.06,1750.35 1230.86,1750.38 1232.66,1750.42 1234.46,1750.46 1236.26,1750.5 
  1238.06,1750.55 1239.86,1750.6 1241.66,1750.65 1243.46,1750.71 1245.26,1750.76 1247.06,1750.8 1248.86,1750.83 1250.66,1750.86 1252.46,1750.88 1254.27,1750.9 
  1256.07,1750.92 1257.87,1750.93 1259.67,1750.95 1261.47,1750.96 1263.27,1750.98 1265.07,1751 1266.87,1751.02 1268.67,1751.04 1270.47,1751.07 1272.27,1751.09 
  1274.07,1751.1 1275.87,1751.12 1277.67,1751.13 1279.47,1751.14 1281.28,1751.14 1283.08,1751.15 1284.88,1751.15 1286.68,1751.15 1288.48,1751.15 1290.28,1751.15 
  1292.08,1751.15 1293.88,1751.15 1295.68,1751.15 1297.48,1751.15 1299.28,1751.15 1301.08,1751.15 1302.88,1751.15 1304.68,1751.15 1306.48,1751.15 1308.28,1751.15 
  1310.09,1751.15 1311.89,1751.15 1313.69,1751.15 1315.49,1751.15 1317.29,1751.15 1319.09,1751.15 1320.89,1751.15 1322.69,1751.15 1324.49,1751.15 1326.29,1751.15 
  1328.09,1751.15 1329.89,1751.15 1331.69,1751.15 1333.49,1751.15 1335.29,1751.15 1337.09,1751.15 1338.9,1751.15 1340.7,1751.15 1342.5,1751.15 1344.3,1751.15 
  1346.1,1751.15 1347.9,1751.15 1349.7,1751.15 1351.5,1751.15 1353.3,1751.15 1355.1,1751.15 1356.9,1751.15 1358.7,1751.15 1360.5,1751.15 1362.3,1751.15 
  1364.1,1751.15 1365.9,1751.15 1367.71,1751.15 1369.51,1751.15 1371.31,1751.15 1373.11,1751.15 1374.91,1751.15 1376.71,1751.15 1378.51,1751.15 1380.31,1751.15 
  1382.11,1751.15 1383.91,1751.15 1385.71,1751.15 1387.51,1751.15 1389.31,1751.15 1391.11,1751.15 1392.91,1751.15 1394.72,1751.15 1396.52,1751.15 1398.32,1751.15 
  1400.12,1751.15 1401.92,1751.15 1403.72,1751.15 1405.52,1751.15 1407.32,1751.15 1409.12,1751.15 1410.92,1751.15 1412.72,1751.15 1414.52,1751.15 1416.32,1751.15 
  1418.12,1751.15 1419.92,1751.15 1421.72,1751.15 1423.53,1751.15 1425.33,1751.15 1427.13,1751.15 1428.93,1751.15 1430.73,1751.15 1432.53,1751.15 1434.33,1751.15 
  1436.13,1751.15 1437.93,1751.15 1439.73,1751.15 1441.53,1751.15 1443.33,1751.15 1445.13,1751.15 1446.93,1751.15 1448.73,1751.15 1450.53,1751.15 1452.34,1751.15 
  1454.14,1751.15 1455.94,1751.15 1457.74,1751.15 1459.54,1751.15 1461.34,1751.15 1463.14,1751.15 1464.94,1751.15 1466.74,1751.15 1468.54,1751.15 1470.34,1751.15 
  1472.14,1751.15 1473.94,1751.15 1475.74,1751.15 1477.54,1751.15 1479.35,1751.15 1481.15,1751.15 1482.95,1751.15 1484.75,1751.15 1486.55,1751.15 1488.35,1751.15 
  1490.15,1751.15 
  "/>
<polyline clip-path="url(#clip622)" style="stroke:#3da44d; stroke-linecap:round; stroke-linejoin:round; stroke-width:4; stroke-opacity:1; fill:none" points="
  229.703,1751.15 231.504,1751.15 233.304,1751.15 235.105,1751.15 236.906,1751.15 238.706,1751.15 240.507,1751.15 242.308,1751.15 244.108,1751.15 245.909,1751.15 
  247.709,1751.15 249.51,1751.15 251.311,1751.15 253.111,1751.15 254.912,1751.15 256.713,1751.15 258.513,1751.15 260.314,1751.15 262.115,1751.15 263.915,1751.15 
  265.716,1751.15 267.516,1751.15 269.317,1751.15 271.118,1751.15 272.918,1751.15 274.719,1751.15 276.52,1751.15 278.32,1751.15 280.121,1751.15 281.922,1751.15 
  283.722,1751.15 285.523,1751.15 287.323,1751.15 289.124,1751.15 290.925,1751.15 292.725,1751.15 294.526,1751.15 296.327,1751.15 298.127,1751.15 299.928,1751.15 
  301.729,1751.15 303.529,1751.15 305.33,1751.15 307.13,1751.15 308.931,1751.15 310.732,1751.15 312.532,1751.15 314.333,1751.15 316.134,1751.15 317.934,1751.15 
  319.735,1751.15 321.536,1751.15 323.336,1751.15 325.137,1751.15 326.937,1751.15 328.738,1751.15 330.539,1751.15 332.339,1751.15 334.14,1751.15 335.941,1751.15 
  337.741,1751.15 339.542,1751.15 341.343,1751.15 343.143,1751.15 344.944,1751.15 346.744,1751.15 348.545,1751.15 350.346,1751.15 352.146,1751.15 353.947,1751.15 
  355.748,1751.15 357.548,1751.15 359.349,1751.15 361.15,1751.15 362.95,1751.15 364.751,1751.15 366.551,1751.15 368.352,1751.15 370.153,1751.15 371.953,1751.15 
  373.754,1751.15 375.555,1751.15 377.355,1751.15 379.156,1751.15 380.957,1751.15 382.757,1751.15 384.558,1751.15 386.358,1751.15 388.159,1751.15 389.96,1751.15 
  391.76,1751.15 393.561,1751.15 395.362,1751.15 397.162,1751.15 398.963,1751.15 400.764,1751.15 402.564,1751.15 404.365,1751.15 406.165,1751.15 407.966,1751.15 
  409.767,1751.15 411.567,1751.15 413.368,1751.15 415.169,1751.15 416.969,1751.15 418.77,1751.15 420.571,1751.15 422.371,1751.15 424.172,1751.15 425.972,1751.15 
  427.773,1751.15 429.574,1751.15 431.374,1751.15 433.175,1751.15 434.976,1751.15 436.776,1751.15 438.577,1751.15 440.378,1751.15 442.178,1751.15 443.979,1751.15 
  445.78,1751.15 447.58,1751.15 449.381,1751.15 451.181,1751.15 452.982,1751.15 454.783,1751.15 456.583,1751.15 458.384,1751.15 460.185,1751.15 461.985,1751.15 
  463.786,1751.15 465.587,1751.15 467.387,1751.15 469.188,1751.15 470.988,1751.15 472.789,1751.15 474.59,1751.15 476.39,1751.15 478.191,1751.15 479.992,1751.15 
  481.792,1751.15 483.593,1751.15 485.394,1751.15 487.194,1751.15 488.995,1751.15 490.795,1751.15 492.596,1751.15 494.397,1751.15 496.197,1751.15 497.998,1751.15 
  499.799,1751.15 501.599,1751.15 503.4,1751.15 505.201,1751.15 507.001,1751.15 508.802,1751.15 510.602,1751.15 512.403,1751.15 514.204,1751.15 516.004,1751.15 
  517.805,1751.15 519.606,1751.15 521.406,1751.15 523.207,1751.15 525.008,1751.15 526.808,1751.15 528.609,1751.15 530.409,1751.15 532.21,1751.15 534.011,1751.15 
  535.811,1751.15 537.612,1751.15 539.413,1751.15 541.213,1751.15 543.014,1751.15 544.815,1751.15 546.615,1751.15 548.416,1751.15 550.216,1751.15 552.017,1751.15 
  553.818,1751.15 555.618,1751.15 557.419,1751.15 559.22,1751.15 561.02,1751.15 562.821,1751.15 564.622,1751.15 566.422,1751.15 568.223,1751.15 570.023,1751.15 
  571.824,1751.15 573.625,1751.15 575.425,1751.15 577.226,1751.15 579.027,1751.15 580.827,1751.15 582.628,1751.15 584.429,1751.15 586.229,1751.15 588.03,1751.15 
  589.83,1751.15 591.631,1751.15 593.432,1751.15 595.232,1751.15 597.033,1751.15 598.834,1751.15 600.634,1751.15 602.435,1751.15 604.236,1751.15 606.036,1751.15 
  607.837,1751.15 609.637,1751.15 611.438,1751.15 613.239,1751.15 615.039,1751.15 616.84,1751.15 618.641,1751.15 620.441,1751.15 622.242,1751.15 624.043,1751.15 
  625.843,1751.15 627.644,1751.15 629.444,1751.15 631.245,1751.15 633.046,1751.15 634.846,1751.15 636.647,1751.15 638.448,1751.15 640.248,1751.15 642.049,1751.15 
  643.85,1751.15 645.65,1751.15 647.451,1751.15 649.251,1751.15 651.052,1751.15 652.853,1751.15 654.653,1751.15 656.454,1751.15 658.255,1751.15 660.055,1751.15 
  661.856,1751.15 663.657,1751.15 665.457,1751.15 667.258,1751.15 669.058,1751.15 670.859,1751.15 672.66,1751.15 674.46,1751.15 676.261,1751.15 678.062,1751.15 
  679.862,1751.15 681.663,1751.15 683.464,1751.15 685.264,1751.15 687.065,1751.15 688.865,1751.15 690.666,1751.15 692.467,1751.15 694.267,1751.15 696.068,1751.15 
  697.869,1751.15 699.669,1751.15 701.47,1751.15 703.271,1751.15 705.071,1751.15 706.872,1751.15 708.672,1751.15 710.473,1751.15 712.274,1751.15 714.074,1751.15 
  715.875,1751.15 717.676,1751.15 719.476,1751.15 721.277,1751.15 723.078,1751.15 724.878,1751.15 726.679,1751.15 728.48,1751.14 730.28,1751.14 732.081,1751.14 
  733.881,1751.14 735.682,1751.14 737.483,1751.14 739.283,1751.14 741.084,1751.14 742.885,1751.14 744.685,1751.13 746.486,1751.13 748.287,1751.13 750.087,1751.13 
  751.888,1751.12 753.688,1751.12 755.489,1751.12 757.29,1751.11 759.09,1751.11 760.891,1751.11 762.692,1751.1 764.492,1751.1 766.293,1751.09 768.094,1751.08 
  769.894,1751.08 771.695,1751.07 773.495,1751.06 775.296,1751.05 777.097,1751.04 778.897,1751.03 780.698,1751.02 782.499,1751 784.299,1750.99 786.1,1750.97 
  787.901,1750.95 789.701,1750.93 791.502,1750.91 793.302,1750.89 795.103,1750.86 796.904,1750.83 798.704,1750.8 800.505,1750.77 802.306,1750.73 804.106,1750.69 
  805.907,1750.65 807.708,1750.6 809.508,1750.55 811.309,1750.49 813.109,1750.43 814.91,1750.37 816.711,1750.3 818.511,1750.22 820.312,1750.14 822.113,1750.05 
  823.913,1749.95 825.714,1749.84 827.515,1749.73 829.315,1749.6 831.116,1749.47 832.916,1749.32 834.717,1749.16 836.518,1748.99 838.318,1748.81 840.119,1748.62 
  841.92,1748.4 843.72,1748.18 845.521,1747.93 847.322,1747.67 849.122,1747.38 850.923,1747.08 852.723,1746.75 854.524,1746.4 856.325,1746.02 858.125,1745.62 
  859.926,1745.19 861.727,1744.72 863.527,1744.23 865.328,1743.7 867.129,1743.13 868.929,1742.53 870.73,1741.88 872.53,1741.19 874.331,1740.46 876.132,1739.67 
  877.932,1738.84 879.733,1737.95 881.534,1737 883.334,1736 885.135,1734.92 886.936,1733.79 888.736,1732.58 890.537,1731.3 892.337,1729.94 894.138,1728.5 
  895.939,1726.97 897.739,1725.35 899.54,1723.64 901.341,1721.83 903.141,1719.91 904.942,1717.89 906.743,1715.75 908.543,1713.5 910.344,1711.12 912.144,1708.61 
  913.945,1705.97 915.746,1703.19 917.546,1700.26 919.347,1697.18 921.148,1693.95 922.948,1690.55 924.749,1686.98 926.55,1683.23 928.35,1679.3 930.151,1675.18 
  931.951,1670.86 933.752,1666.34 935.553,1661.62 937.353,1656.67 939.154,1651.51 940.955,1646.11 942.755,1640.47 944.556,1634.6 946.357,1628.47 948.157,1622.08 
  949.958,1615.43 951.758,1608.5 953.559,1601.3 955.36,1593.82 957.16,1586.04 958.961,1577.96 960.762,1569.58 962.562,1560.89 964.363,1551.89 966.164,1542.56 
  967.964,1532.91 969.765,1522.92 971.565,1512.59 973.366,1501.92 975.167,1490.91 976.967,1479.54 978.768,1467.82 980.569,1455.74 982.369,1443.3 984.17,1430.49 
  985.971,1417.32 987.771,1403.79 989.572,1389.88 991.372,1375.61 993.173,1360.97 994.974,1345.96 996.774,1330.58 998.575,1314.83 1000.38,1298.73 1002.18,1282.26 
  1003.98,1265.44 1005.78,1248.26 1007.58,1230.74 1009.38,1212.88 1011.18,1194.68 1012.98,1176.15 1014.78,1157.3 1016.58,1138.15 1018.38,1118.69 1020.18,1098.94 
  1021.98,1078.91 1023.78,1058.61 1025.58,1038.05 1027.39,1017.25 1029.19,996.224 1030.99,974.982 1032.79,953.54 1034.59,931.916 1036.39,910.126 1038.19,888.189 
  1039.99,866.122 1041.79,843.944 1043.59,821.675 1045.39,799.336 1047.19,776.947 1048.99,754.53 1050.79,732.106 1052.59,709.699 1054.39,687.332 1056.2,665.027 
  1058,642.809 1059.8,620.701 1061.6,598.729 1063.4,576.918 1065.2,555.291 1067,533.875 1068.8,512.695 1070.6,491.776 1072.4,471.144 1074.2,450.824 
  1076,430.842 1077.8,411.223 1079.6,391.993 1081.4,373.175 1083.2,354.796 1085.01,336.878 1086.81,319.447 1088.61,302.525 1090.41,286.136 1092.21,270.302 
  1094.01,255.045 1095.81,240.387 1097.61,226.348 1099.41,212.947 1101.21,200.204 1103.01,188.138 1104.81,176.765 1106.61,166.102 1108.41,156.164 1110.21,146.967 
  1112.02,138.522 1113.82,130.844 1115.62,123.943 1117.42,117.83 1119.22,112.513 1121.02,108 1122.82,104.299 1124.62,101.415 1126.42,99.3512 1128.22,98.1118 
  1130.02,97.6985 1131.82,98.1118 1133.62,99.3512 1135.42,101.415 1137.22,104.299 1139.02,108 1140.83,112.513 1142.63,117.83 1144.43,123.943 1146.23,130.844 
  1148.03,138.522 1149.83,146.967 1151.63,156.164 1153.43,166.102 1155.23,176.765 1157.03,188.138 1158.83,200.204 1160.63,212.947 1162.43,226.348 1164.23,240.387 
  1166.03,255.045 1167.83,270.302 1169.64,286.136 1171.44,302.525 1173.24,319.447 1175.04,336.878 1176.84,354.796 1178.64,373.175 1180.44,391.993 1182.24,411.223 
  1184.04,430.842 1185.84,450.824 1187.64,471.144 1189.44,491.776 1191.24,512.695 1193.04,533.875 1194.84,555.291 1196.65,576.918 1198.45,598.729 1200.25,620.701 
  1202.05,642.809 1203.85,665.027 1205.65,687.332 1207.45,709.699 1209.25,732.106 1211.05,754.53 1212.85,776.947 1214.65,799.336 1216.45,821.675 1218.25,843.944 
  1220.05,866.122 1221.85,888.189 1223.65,910.126 1225.46,931.916 1227.26,953.54 1229.06,974.982 1230.86,996.224 1232.66,1017.25 1234.46,1038.05 1236.26,1058.61 
  1238.06,1078.91 1239.86,1098.94 1241.66,1118.69 1243.46,1138.15 1245.26,1157.3 1247.06,1176.15 1248.86,1194.68 1250.66,1212.88 1252.46,1230.74 1254.27,1248.26 
  1256.07,1265.44 1257.87,1282.26 1259.67,1298.73 1261.47,1314.83 1263.27,1330.58 1265.07,1345.96 1266.87,1360.97 1268.67,1375.61 1270.47,1389.88 1272.27,1403.79 
  1274.07,1417.32 1275.87,1430.49 1277.67,1443.3 1279.47,1455.74 1281.28,1467.82 1283.08,1479.54 1284.88,1490.91 1286.68,1501.92 1288.48,1512.59 1290.28,1522.92 
  1292.08,1532.91 1293.88,1542.56 1295.68,1551.89 1297.48,1560.89 1299.28,1569.58 1301.08,1577.96 1302.88,1586.04 1304.68,1593.82 1306.48,1601.3 1308.28,1608.5 
  1310.09,1615.43 1311.89,1622.08 1313.69,1628.47 1315.49,1634.6 1317.29,1640.47 1319.09,1646.11 1320.89,1651.51 1322.69,1656.67 1324.49,1661.62 1326.29,1666.34 
  1328.09,1670.86 1329.89,1675.18 1331.69,1679.3 1333.49,1683.23 1335.29,1686.98 1337.09,1690.55 1338.9,1693.95 1340.7,1697.18 1342.5,1700.26 1344.3,1703.19 
  1346.1,1705.97 1347.9,1708.61 1349.7,1711.12 1351.5,1713.5 1353.3,1715.75 1355.1,1717.89 1356.9,1719.91 1358.7,1721.83 1360.5,1723.64 1362.3,1725.35 
  1364.1,1726.97 1365.9,1728.5 1367.71,1729.94 1369.51,1731.3 1371.31,1732.58 1373.11,1733.79 1374.91,1734.92 1376.71,1736 1378.51,1737 1380.31,1737.95 
  1382.11,1738.84 1383.91,1739.67 1385.71,1740.46 1387.51,1741.19 1389.31,1741.88 1391.11,1742.53 1392.91,1743.13 1394.72,1743.7 1396.52,1744.23 1398.32,1744.72 
  1400.12,1745.19 1401.92,1745.62 1403.72,1746.02 1405.52,1746.4 1407.32,1746.75 1409.12,1747.08 1410.92,1747.38 1412.72,1747.67 1414.52,1747.93 1416.32,1748.18 
  1418.12,1748.4 1419.92,1748.62 1421.72,1748.81 1423.53,1748.99 1425.33,1749.16 1427.13,1749.32 1428.93,1749.47 1430.73,1749.6 1432.53,1749.73 1434.33,1749.84 
  1436.13,1749.95 1437.93,1750.05 1439.73,1750.14 1441.53,1750.22 1443.33,1750.3 1445.13,1750.37 1446.93,1750.43 1448.73,1750.49 1450.53,1750.55 1452.34,1750.6 
  1454.14,1750.65 1455.94,1750.69 1457.74,1750.73 1459.54,1750.77 1461.34,1750.8 1463.14,1750.83 1464.94,1750.86 1466.74,1750.89 1468.54,1750.91 1470.34,1750.93 
  1472.14,1750.95 1473.94,1750.97 1475.74,1750.99 1477.54,1751 1479.35,1751.02 1481.15,1751.03 1482.95,1751.04 1484.75,1751.05 1486.55,1751.06 1488.35,1751.07 
  1490.15,1751.08 
  "/>
<circle clip-path="url(#clip622)" cx="589.83" cy="1751.15" r="14.4" fill="#c271d2" fill-rule="evenodd" fill-opacity="1" stroke="#000000" stroke-opacity="1" stroke-width="3.84"/>
<circle clip-path="url(#clip622)" cx="769.894" cy="1751.15" r="14.4" fill="#c271d2" fill-rule="evenodd" fill-opacity="1" stroke="#000000" stroke-opacity="1" stroke-width="3.84"/>
<circle clip-path="url(#clip622)" cx="949.958" cy="1751.15" r="14.4" fill="#c271d2" fill-rule="evenodd" fill-opacity="1" stroke="#000000" stroke-opacity="1" stroke-width="3.84"/>
<circle clip-path="url(#clip622)" cx="2570.53" cy="1751.15" r="14.4" fill="#c271d2" fill-rule="evenodd" fill-opacity="1" stroke="#000000" stroke-opacity="1" stroke-width="3.84"/>
<path clip-path="url(#clip620)" d="
M1855.92 364.895 L2558.05 364.895 L2558.05 105.695 L1855.92 105.695  Z
  " fill="#ffffff" fill-rule="evenodd" fill-opacity="1"/>
<polyline clip-path="url(#clip620)" style="stroke:#000000; stroke-linecap:round; stroke-linejoin:round; stroke-width:4; stroke-opacity:1; fill:none" points="
  1855.92,364.895 2558.05,364.895 2558.05,105.695 1855.92,105.695 1855.92,364.895 
  "/>
<polyline clip-path="url(#clip620)" style="stroke:#009af9; stroke-linecap:round; stroke-linejoin:round; stroke-width:4; stroke-opacity:1; fill:none" points="
  1883.49,157.535 2048.9,157.535 
  "/>
<path clip-path="url(#clip620)" d="M2076.47 140.255 L2082.77 140.255 L2098.09 169.167 L2098.09 140.255 L2102.63 140.255 L2102.63 174.815 L2096.34 174.815 L2081.01 145.903 L2081.01 174.815 L2076.47 174.815 L2076.47 140.255 Z" fill="#000000" fill-rule="evenodd" fill-opacity="1" /><path clip-path="url(#clip620)" d="M2121.8 151.876 Q2118.37 151.876 2116.38 154.561 Q2114.39 157.223 2114.39 161.876 Q2114.39 166.528 2116.36 169.213 Q2118.35 171.875 2121.8 171.875 Q2125.2 171.875 2127.19 169.19 Q2129.18 166.505 2129.18 161.876 Q2129.18 157.269 2127.19 154.584 Q2125.2 151.876 2121.8 151.876 M2121.8 148.264 Q2127.35 148.264 2130.53 151.876 Q2133.7 155.487 2133.7 161.876 Q2133.7 168.241 2130.53 171.875 Q2127.35 175.487 2121.8 175.487 Q2116.22 175.487 2113.05 171.875 Q2109.9 168.241 2109.9 161.876 Q2109.9 155.487 2113.05 151.876 Q2116.22 148.264 2121.8 148.264 Z" fill="#000000" fill-rule="evenodd" fill-opacity="1" /><path clip-path="url(#clip620)" d="M2155.78 152.871 Q2155.06 152.454 2154.21 152.269 Q2153.37 152.061 2152.35 152.061 Q2148.74 152.061 2146.8 154.422 Q2144.88 156.76 2144.88 161.158 L2144.88 174.815 L2140.59 174.815 L2140.59 148.889 L2144.88 148.889 L2144.88 152.917 Q2146.22 150.556 2148.37 149.422 Q2150.53 148.264 2153.6 148.264 Q2154.04 148.264 2154.58 148.334 Q2155.11 148.38 2155.76 148.496 L2155.78 152.871 Z" fill="#000000" fill-rule="evenodd" fill-opacity="1" /><path clip-path="url(#clip620)" d="M2179.6 153.866 Q2181.2 150.996 2183.42 149.63 Q2185.64 148.264 2188.65 148.264 Q2192.7 148.264 2194.9 151.112 Q2197.1 153.936 2197.1 159.167 L2197.1 174.815 L2192.82 174.815 L2192.82 159.306 Q2192.82 155.579 2191.5 153.774 Q2190.18 151.968 2187.47 151.968 Q2184.16 151.968 2182.24 154.167 Q2180.32 156.366 2180.32 160.163 L2180.32 174.815 L2176.03 174.815 L2176.03 159.306 Q2176.03 155.556 2174.71 153.774 Q2173.4 151.968 2170.64 151.968 Q2167.38 151.968 2165.46 154.19 Q2163.53 156.389 2163.53 160.163 L2163.53 174.815 L2159.25 174.815 L2159.25 148.889 L2163.53 148.889 L2163.53 152.917 Q2164.99 150.533 2167.03 149.399 Q2169.07 148.264 2171.87 148.264 Q2174.69 148.264 2176.66 149.7 Q2178.65 151.135 2179.6 153.866 Z" fill="#000000" fill-rule="evenodd" fill-opacity="1" /><path clip-path="url(#clip620)" d="M2217.38 161.783 Q2212.21 161.783 2210.22 162.963 Q2208.23 164.144 2208.23 166.991 Q2208.23 169.26 2209.71 170.602 Q2211.22 171.922 2213.79 171.922 Q2217.33 171.922 2219.46 169.422 Q2221.61 166.899 2221.61 162.732 L2221.61 161.783 L2217.38 161.783 M2225.87 160.024 L2225.87 174.815 L2221.61 174.815 L2221.61 170.88 Q2220.15 173.241 2217.98 174.375 Q2215.8 175.487 2212.65 175.487 Q2208.67 175.487 2206.31 173.264 Q2203.97 171.019 2203.97 167.269 Q2203.97 162.894 2206.89 160.672 Q2209.83 158.45 2215.64 158.45 L2221.61 158.45 L2221.61 158.033 Q2221.61 155.093 2219.67 153.496 Q2217.75 151.876 2214.25 151.876 Q2212.03 151.876 2209.92 152.408 Q2207.82 152.94 2205.87 154.005 L2205.87 150.07 Q2208.21 149.167 2210.41 148.727 Q2212.61 148.264 2214.69 148.264 Q2220.32 148.264 2223.09 151.181 Q2225.87 154.098 2225.87 160.024 Z" fill="#000000" fill-rule="evenodd" fill-opacity="1" /><path clip-path="url(#clip620)" d="M2234.65 138.797 L2238.9 138.797 L2238.9 174.815 L2234.65 174.815 L2234.65 138.797 Z" fill="#000000" fill-rule="evenodd" fill-opacity="1" /><polyline clip-path="url(#clip620)" style="stroke:#e26f46; stroke-linecap:round; stroke-linejoin:round; stroke-width:4; stroke-opacity:1; fill:none" points="
  1883.49,209.375 2048.9,209.375 
  "/>
<path clip-path="url(#clip620)" d="M2104.34 194.757 L2104.34 199.688 Q2101.98 197.489 2099.3 196.401 Q2096.64 195.313 2093.63 195.313 Q2087.7 195.313 2084.55 198.947 Q2081.41 202.558 2081.41 209.41 Q2081.41 216.239 2084.55 219.873 Q2087.7 223.484 2093.63 223.484 Q2096.64 223.484 2099.3 222.396 Q2101.98 221.308 2104.34 219.109 L2104.34 223.993 Q2101.89 225.66 2099.14 226.493 Q2096.41 227.327 2093.35 227.327 Q2085.5 227.327 2080.99 222.535 Q2076.47 217.72 2076.47 209.41 Q2076.47 201.077 2080.99 196.285 Q2085.5 191.47 2093.35 191.47 Q2096.45 191.47 2099.18 192.304 Q2101.94 193.114 2104.34 194.757 Z" fill="#000000" fill-rule="evenodd" fill-opacity="1" /><path clip-path="url(#clip620)" d="M2123.16 213.623 Q2118 213.623 2116.01 214.803 Q2114.02 215.984 2114.02 218.831 Q2114.02 221.1 2115.5 222.442 Q2117.01 223.762 2119.58 223.762 Q2123.12 223.762 2125.25 221.262 Q2127.4 218.739 2127.4 214.572 L2127.4 213.623 L2123.16 213.623 M2131.66 211.864 L2131.66 226.655 L2127.4 226.655 L2127.4 222.72 Q2125.94 225.081 2123.77 226.215 Q2121.59 227.327 2118.44 227.327 Q2114.46 227.327 2112.1 225.104 Q2109.76 222.859 2109.76 219.109 Q2109.76 214.734 2112.68 212.512 Q2115.62 210.29 2121.43 210.29 L2127.4 210.29 L2127.4 209.873 Q2127.4 206.933 2125.46 205.336 Q2123.53 203.716 2120.04 203.716 Q2117.82 203.716 2115.71 204.248 Q2113.6 204.78 2111.66 205.845 L2111.66 201.91 Q2114 201.007 2116.2 200.567 Q2118.4 200.104 2120.48 200.104 Q2126.1 200.104 2128.88 203.021 Q2131.66 205.938 2131.66 211.864 Z" fill="#000000" fill-rule="evenodd" fill-opacity="1" /><path clip-path="url(#clip620)" d="M2139.99 216.424 L2139.99 200.729 L2144.25 200.729 L2144.25 216.262 Q2144.25 219.942 2145.69 221.794 Q2147.12 223.623 2149.99 223.623 Q2153.44 223.623 2155.43 221.424 Q2157.45 219.225 2157.45 215.428 L2157.45 200.729 L2161.71 200.729 L2161.71 226.655 L2157.45 226.655 L2157.45 222.674 Q2155.9 225.035 2153.84 226.192 Q2151.8 227.327 2149.09 227.327 Q2144.62 227.327 2142.31 224.549 Q2139.99 221.771 2139.99 216.424 M2150.71 200.104 L2150.71 200.104 Z" fill="#000000" fill-rule="evenodd" fill-opacity="1" /><path clip-path="url(#clip620)" d="M2189.14 201.725 L2189.14 205.706 Q2187.33 204.711 2185.5 204.225 Q2183.7 203.716 2181.84 203.716 Q2177.7 203.716 2175.41 206.354 Q2173.12 208.97 2173.12 213.716 Q2173.12 218.461 2175.41 221.1 Q2177.7 223.715 2181.84 223.715 Q2183.7 223.715 2185.5 223.229 Q2187.33 222.72 2189.14 221.725 L2189.14 225.66 Q2187.35 226.493 2185.43 226.91 Q2183.53 227.327 2181.38 227.327 Q2175.53 227.327 2172.08 223.646 Q2168.63 219.965 2168.63 213.716 Q2168.63 207.373 2172.1 203.739 Q2175.59 200.104 2181.66 200.104 Q2183.63 200.104 2185.5 200.521 Q2187.38 200.915 2189.14 201.725 Z" fill="#000000" fill-rule="evenodd" fill-opacity="1" /><path clip-path="url(#clip620)" d="M2218.09 211.007 L2218.09 226.655 L2213.84 226.655 L2213.84 211.146 Q2213.84 207.466 2212.4 205.637 Q2210.96 203.808 2208.09 203.808 Q2204.65 203.808 2202.65 206.007 Q2200.66 208.206 2200.66 212.003 L2200.66 226.655 L2196.38 226.655 L2196.38 190.637 L2200.66 190.637 L2200.66 204.757 Q2202.19 202.419 2204.25 201.262 Q2206.34 200.104 2209.04 200.104 Q2213.51 200.104 2215.8 202.882 Q2218.09 205.637 2218.09 211.007 Z" fill="#000000" fill-rule="evenodd" fill-opacity="1" /><path clip-path="url(#clip620)" d="M2237.38 229.063 Q2235.57 233.692 2233.86 235.104 Q2232.15 236.516 2229.27 236.516 L2225.87 236.516 L2225.87 232.952 L2228.37 232.952 Q2230.13 232.952 2231.1 232.118 Q2232.08 231.285 2233.26 228.183 L2234.02 226.239 L2223.53 200.729 L2228.05 200.729 L2236.15 221.007 L2244.25 200.729 L2248.77 200.729 L2237.38 229.063 Z" fill="#000000" fill-rule="evenodd" fill-opacity="1" /><polyline clip-path="url(#clip620)" style="stroke:#3da44d; stroke-linecap:round; stroke-linejoin:round; stroke-width:4; stroke-opacity:1; fill:none" points="
  1883.49,261.215 2048.9,261.215 
  "/>
<path clip-path="url(#clip620)" d="M2076.47 243.935 L2098.33 243.935 L2098.33 247.87 L2081.15 247.87 L2081.15 258.102 L2097.61 258.102 L2097.61 262.037 L2081.15 262.037 L2081.15 274.56 L2098.74 274.56 L2098.74 278.495 L2076.47 278.495 L2076.47 243.935 Z" fill="#000000" fill-rule="evenodd" fill-opacity="1" /><path clip-path="url(#clip620)" d="M2127.79 252.569 L2118.42 265.185 L2128.28 278.495 L2123.26 278.495 L2115.71 268.31 L2108.16 278.495 L2103.14 278.495 L2113.21 264.931 L2104 252.569 L2109.02 252.569 L2115.9 261.806 L2122.77 252.569 L2127.79 252.569 Z" fill="#000000" fill-rule="evenodd" fill-opacity="1" /><path clip-path="url(#clip620)" d="M2146.08 265.463 Q2140.92 265.463 2138.93 266.643 Q2136.94 267.824 2136.94 270.671 Q2136.94 272.94 2138.42 274.282 Q2139.92 275.602 2142.49 275.602 Q2146.03 275.602 2148.16 273.102 Q2150.32 270.579 2150.32 266.412 L2150.32 265.463 L2146.08 265.463 M2154.58 263.704 L2154.58 278.495 L2150.32 278.495 L2150.32 274.56 Q2148.86 276.921 2146.68 278.055 Q2144.51 279.167 2141.36 279.167 Q2137.38 279.167 2135.02 276.944 Q2132.68 274.699 2132.68 270.949 Q2132.68 266.574 2135.59 264.352 Q2138.53 262.13 2144.34 262.13 L2150.32 262.13 L2150.32 261.713 Q2150.32 258.773 2148.37 257.176 Q2146.45 255.556 2142.96 255.556 Q2140.73 255.556 2138.63 256.088 Q2136.52 256.62 2134.58 257.685 L2134.58 253.75 Q2136.91 252.847 2139.11 252.407 Q2141.31 251.944 2143.4 251.944 Q2149.02 251.944 2151.8 254.861 Q2154.58 257.778 2154.58 263.704 Z" fill="#000000" fill-rule="evenodd" fill-opacity="1" /><path clip-path="url(#clip620)" d="M2182.01 253.565 L2182.01 257.546 Q2180.2 256.551 2178.37 256.065 Q2176.57 255.556 2174.71 255.556 Q2170.57 255.556 2168.28 258.194 Q2165.99 260.81 2165.99 265.556 Q2165.99 270.301 2168.28 272.94 Q2170.57 275.555 2174.71 275.555 Q2176.57 275.555 2178.37 275.069 Q2180.2 274.56 2182.01 273.565 L2182.01 277.5 Q2180.22 278.333 2178.3 278.75 Q2176.4 279.167 2174.25 279.167 Q2168.4 279.167 2164.95 275.486 Q2161.5 271.805 2161.5 265.556 Q2161.5 259.213 2164.97 255.579 Q2168.46 251.944 2174.53 251.944 Q2176.5 251.944 2178.37 252.361 Q2180.25 252.755 2182.01 253.565 Z" fill="#000000" fill-rule="evenodd" fill-opacity="1" /><path clip-path="url(#clip620)" d="M2193.63 245.208 L2193.63 252.569 L2202.4 252.569 L2202.4 255.88 L2193.63 255.88 L2193.63 269.954 Q2193.63 273.125 2194.48 274.028 Q2195.36 274.93 2198.02 274.93 L2202.4 274.93 L2202.4 278.495 L2198.02 278.495 Q2193.09 278.495 2191.22 276.667 Q2189.34 274.815 2189.34 269.954 L2189.34 255.88 L2186.22 255.88 L2186.22 252.569 L2189.34 252.569 L2189.34 245.208 L2193.63 245.208 Z" fill="#000000" fill-rule="evenodd" fill-opacity="1" /><path clip-path="url(#clip620)" d="M2227.93 247.778 L2227.93 260.764 L2233.81 260.764 Q2237.08 260.764 2238.86 259.074 Q2240.64 257.384 2240.64 254.259 Q2240.64 251.157 2238.86 249.468 Q2237.08 247.778 2233.81 247.778 L2227.93 247.778 M2223.26 243.935 L2233.81 243.935 Q2239.62 243.935 2242.58 246.574 Q2245.57 249.19 2245.57 254.259 Q2245.57 259.375 2242.58 261.991 Q2239.62 264.606 2233.81 264.606 L2227.93 264.606 L2227.93 278.495 L2223.26 278.495 L2223.26 243.935 Z" fill="#000000" fill-rule="evenodd" fill-opacity="1" /><path clip-path="url(#clip620)" d="M2256.52 247.778 L2256.52 274.653 L2262.17 274.653 Q2269.32 274.653 2272.63 271.412 Q2275.96 268.171 2275.96 261.181 Q2275.96 254.236 2272.63 251.019 Q2269.32 247.778 2262.17 247.778 L2256.52 247.778 M2251.84 243.935 L2261.45 243.935 Q2271.5 243.935 2276.2 248.125 Q2280.89 252.292 2280.89 261.181 Q2280.89 270.116 2276.17 274.305 Q2271.45 278.495 2261.45 278.495 L2251.84 278.495 L2251.84 243.935 Z" fill="#000000" fill-rule="evenodd" fill-opacity="1" /><path clip-path="url(#clip620)" d="M2288.35 243.935 L2308.21 243.935 L2308.21 247.87 L2293.02 247.87 L2293.02 258.056 L2306.73 258.056 L2306.73 261.991 L2293.02 261.991 L2293.02 278.495 L2288.35 278.495 L2288.35 243.935 Z" fill="#000000" fill-rule="evenodd" fill-opacity="1" /><path clip-path="url(#clip620)" d="M2340.73 242.523 Q2337.63 247.847 2336.13 253.056 Q2334.62 258.264 2334.62 263.611 Q2334.62 268.958 2336.13 274.213 Q2337.65 279.444 2340.73 284.745 L2337.03 284.745 Q2333.56 279.305 2331.82 274.051 Q2330.11 268.796 2330.11 263.611 Q2330.11 258.449 2331.82 253.218 Q2333.53 247.986 2337.03 242.523 L2340.73 242.523 Z" fill="#000000" fill-rule="evenodd" fill-opacity="1" /><path clip-path="url(#clip620)" d="M2349.18 243.935 L2355.48 243.935 L2370.8 272.847 L2370.8 243.935 L2375.34 243.935 L2375.34 278.495 L2369.04 278.495 L2353.72 249.583 L2353.72 278.495 L2349.18 278.495 L2349.18 243.935 Z" fill="#000000" fill-rule="evenodd" fill-opacity="1" /><path clip-path="url(#clip620)" d="M2394.51 255.556 Q2391.08 255.556 2389.09 258.241 Q2387.1 260.903 2387.1 265.556 Q2387.1 270.208 2389.07 272.893 Q2391.06 275.555 2394.51 275.555 Q2397.91 275.555 2399.9 272.87 Q2401.89 270.185 2401.89 265.556 Q2401.89 260.949 2399.9 258.264 Q2397.91 255.556 2394.51 255.556 M2394.51 251.944 Q2400.06 251.944 2403.23 255.556 Q2406.4 259.167 2406.4 265.556 Q2406.4 271.921 2403.23 275.555 Q2400.06 279.167 2394.51 279.167 Q2388.93 279.167 2385.76 275.555 Q2382.61 271.921 2382.61 265.556 Q2382.61 259.167 2385.76 255.556 Q2388.93 251.944 2394.51 251.944 Z" fill="#000000" fill-rule="evenodd" fill-opacity="1" /><path clip-path="url(#clip620)" d="M2428.49 256.551 Q2427.77 256.134 2426.91 255.949 Q2426.08 255.741 2425.06 255.741 Q2421.45 255.741 2419.51 258.102 Q2417.58 260.44 2417.58 264.838 L2417.58 278.495 L2413.3 278.495 L2413.3 252.569 L2417.58 252.569 L2417.58 256.597 Q2418.93 254.236 2421.08 253.102 Q2423.23 251.944 2426.31 251.944 Q2426.75 251.944 2427.28 252.014 Q2427.82 252.06 2428.46 252.176 L2428.49 256.551 Z" fill="#000000" fill-rule="evenodd" fill-opacity="1" /><path clip-path="url(#clip620)" d="M2452.31 257.546 Q2453.9 254.676 2456.13 253.31 Q2458.35 251.944 2461.36 251.944 Q2465.41 251.944 2467.61 254.792 Q2469.81 257.616 2469.81 262.847 L2469.81 278.495 L2465.52 278.495 L2465.52 262.986 Q2465.52 259.259 2464.2 257.454 Q2462.88 255.648 2460.18 255.648 Q2456.87 255.648 2454.94 257.847 Q2453.02 260.046 2453.02 263.843 L2453.02 278.495 L2448.74 278.495 L2448.74 262.986 Q2448.74 259.236 2447.42 257.454 Q2446.1 255.648 2443.35 255.648 Q2440.08 255.648 2438.16 257.87 Q2436.24 260.069 2436.24 263.843 L2436.24 278.495 L2431.96 278.495 L2431.96 252.569 L2436.24 252.569 L2436.24 256.597 Q2437.7 254.213 2439.74 253.079 Q2441.77 251.944 2444.57 251.944 Q2447.4 251.944 2449.37 253.38 Q2451.36 254.815 2452.31 257.546 Z" fill="#000000" fill-rule="evenodd" fill-opacity="1" /><path clip-path="url(#clip620)" d="M2490.08 265.463 Q2484.92 265.463 2482.93 266.643 Q2480.94 267.824 2480.94 270.671 Q2480.94 272.94 2482.42 274.282 Q2483.93 275.602 2486.5 275.602 Q2490.04 275.602 2492.17 273.102 Q2494.32 270.579 2494.32 266.412 L2494.32 265.463 L2490.08 265.463 M2498.58 263.704 L2498.58 278.495 L2494.32 278.495 L2494.32 274.56 Q2492.86 276.921 2490.69 278.055 Q2488.51 279.167 2485.36 279.167 Q2481.38 279.167 2479.02 276.944 Q2476.68 274.699 2476.68 270.949 Q2476.68 266.574 2479.6 264.352 Q2482.54 262.13 2488.35 262.13 L2494.32 262.13 L2494.32 261.713 Q2494.32 258.773 2492.38 257.176 Q2490.45 255.556 2486.96 255.556 Q2484.74 255.556 2482.63 256.088 Q2480.52 256.62 2478.58 257.685 L2478.58 253.75 Q2480.92 252.847 2483.12 252.407 Q2485.32 251.944 2487.4 251.944 Q2493.02 251.944 2495.8 254.861 Q2498.58 257.778 2498.58 263.704 Z" fill="#000000" fill-rule="evenodd" fill-opacity="1" /><path clip-path="url(#clip620)" d="M2507.35 242.477 L2511.61 242.477 L2511.61 278.495 L2507.35 278.495 L2507.35 242.477 Z" fill="#000000" fill-rule="evenodd" fill-opacity="1" /><path clip-path="url(#clip620)" d="M2519.85 242.523 L2523.56 242.523 Q2527.03 247.986 2528.74 253.218 Q2530.48 258.449 2530.48 263.611 Q2530.48 268.796 2528.74 274.051 Q2527.03 279.305 2523.56 284.745 L2519.85 284.745 Q2522.93 279.444 2524.44 274.213 Q2525.96 268.958 2525.96 263.611 Q2525.96 258.264 2524.44 253.056 Q2522.93 247.847 2519.85 242.523 Z" fill="#000000" fill-rule="evenodd" fill-opacity="1" /><circle clip-path="url(#clip620)" cx="1966.2" cy="313.055" r="23.04" fill="#c271d2" fill-rule="evenodd" fill-opacity="1" stroke="#000000" stroke-opacity="1" stroke-width="6.144"/>
<path clip-path="url(#clip620)" d="M2090.32 332.743 Q2088.51 337.372 2086.8 338.784 Q2085.09 340.196 2082.22 340.196 L2078.81 340.196 L2078.81 336.632 L2081.31 336.632 Q2083.07 336.632 2084.04 335.798 Q2085.02 334.965 2086.2 331.863 L2086.96 329.919 L2076.47 304.409 L2080.99 304.409 L2089.09 324.687 L2097.19 304.409 L2101.71 304.409 L2090.32 332.743 Z" fill="#000000" fill-rule="evenodd" fill-opacity="1" /><path clip-path="url(#clip620)" d="M2121.03 299.849 L2109.23 318.298 L2121.03 318.298 L2121.03 299.849 M2119.81 295.775 L2125.69 295.775 L2125.69 318.298 L2130.62 318.298 L2130.62 322.187 L2125.69 322.187 L2125.69 330.335 L2121.03 330.335 L2121.03 322.187 L2105.43 322.187 L2105.43 317.673 L2119.81 295.775 Z" fill="#000000" fill-rule="evenodd" fill-opacity="1" /></svg>
