<?xml version="1.0" encoding="utf-8"?>
<svg xmlns="http://www.w3.org/2000/svg" xmlns:xlink="http://www.w3.org/1999/xlink" width="600" height="400" viewBox="0 0 2400 1600">
<defs>
  <clipPath id="clip150">
    <rect x="0" y="0" width="2400" height="1600"/>
  </clipPath>
</defs>
<path clip-path="url(#clip150)" d="
M0 1600 L2400 1600 L2400 0 L0 0  Z
  " fill="#ffffff" fill-rule="evenodd" fill-opacity="1"/>
<defs>
  <clipPath id="clip151">
    <rect x="480" y="0" width="1681" height="1600"/>
  </clipPath>
</defs>
<path clip-path="url(#clip150)" d="
M202.227 1423.18 L2352.76 1423.18 L2352.76 47.2441 L202.227 47.2441  Z
  " fill="#ffffff" fill-rule="evenodd" fill-opacity="1"/>
<defs>
  <clipPath id="clip152">
    <rect x="202" y="47" width="2152" height="1377"/>
  </clipPath>
</defs>
<polyline clip-path="url(#clip152)" style="stroke:#000000; stroke-linecap:round; stroke-linejoin:round; stroke-width:2; stroke-opacity:0.1; fill:none" points="
  204.971,1423.18 204.971,47.2441 
  "/>
<polyline clip-path="url(#clip152)" style="stroke:#000000; stroke-linecap:round; stroke-linejoin:round; stroke-width:2; stroke-opacity:0.1; fill:none" points="
  642.863,1423.18 642.863,47.2441 
  "/>
<polyline clip-path="url(#clip152)" style="stroke:#000000; stroke-linecap:round; stroke-linejoin:round; stroke-width:2; stroke-opacity:0.1; fill:none" points="
  1080.76,1423.18 1080.76,47.2441 
  "/>
<polyline clip-path="url(#clip152)" style="stroke:#000000; stroke-linecap:round; stroke-linejoin:round; stroke-width:2; stroke-opacity:0.1; fill:none" points="
  1518.65,1423.18 1518.65,47.2441 
  "/>
<polyline clip-path="url(#clip152)" style="stroke:#000000; stroke-linecap:round; stroke-linejoin:round; stroke-width:2; stroke-opacity:0.1; fill:none" points="
  1956.54,1423.18 1956.54,47.2441 
  "/>
<polyline clip-path="url(#clip150)" style="stroke:#000000; stroke-linecap:round; stroke-linejoin:round; stroke-width:4; stroke-opacity:1; fill:none" points="
  202.227,1423.18 2352.76,1423.18 
  "/>
<polyline clip-path="url(#clip150)" style="stroke:#000000; stroke-linecap:round; stroke-linejoin:round; stroke-width:4; stroke-opacity:1; fill:none" points="
  204.971,1423.18 204.971,1404.28 
  "/>
<polyline clip-path="url(#clip150)" style="stroke:#000000; stroke-linecap:round; stroke-linejoin:round; stroke-width:4; stroke-opacity:1; fill:none" points="
  642.863,1423.18 642.863,1404.28 
  "/>
<polyline clip-path="url(#clip150)" style="stroke:#000000; stroke-linecap:round; stroke-linejoin:round; stroke-width:4; stroke-opacity:1; fill:none" points="
  1080.76,1423.18 1080.76,1404.28 
  "/>
<polyline clip-path="url(#clip150)" style="stroke:#000000; stroke-linecap:round; stroke-linejoin:round; stroke-width:4; stroke-opacity:1; fill:none" points="
  1518.65,1423.18 1518.65,1404.28 
  "/>
<polyline clip-path="url(#clip150)" style="stroke:#000000; stroke-linecap:round; stroke-linejoin:round; stroke-width:4; stroke-opacity:1; fill:none" points="
  1956.54,1423.18 1956.54,1404.28 
  "/>
<path clip-path="url(#clip150)" d="M205.376 1466.44 Q202.228 1466.44 200.376 1468.59 Q198.548 1470.74 198.548 1474.49 Q198.548 1478.22 200.376 1480.39 Q202.228 1482.55 205.376 1482.55 Q208.524 1482.55 210.353 1480.39 Q212.205 1478.22 212.205 1474.49 Q212.205 1470.74 210.353 1468.59 Q208.524 1466.44 205.376 1466.44 M214.659 1451.78 L214.659 1456.04 Q212.899 1455.21 211.094 1454.77 Q209.312 1454.33 207.552 1454.33 Q202.923 1454.33 200.469 1457.45 Q198.038 1460.58 197.691 1466.9 Q199.057 1464.89 201.117 1463.82 Q203.177 1462.73 205.654 1462.73 Q210.862 1462.73 213.872 1465.9 Q216.904 1469.05 216.904 1474.49 Q216.904 1479.82 213.756 1483.03 Q210.608 1486.25 205.376 1486.25 Q199.381 1486.25 196.21 1481.67 Q193.038 1477.06 193.038 1468.33 Q193.038 1460.14 196.927 1455.28 Q200.816 1450.39 207.367 1450.39 Q209.126 1450.39 210.909 1450.74 Q212.714 1451.09 214.659 1451.78 Z" fill="#000000" fill-rule="evenodd" fill-opacity="1" /><path clip-path="url(#clip150)" d="M631.752 1451.02 L653.974 1451.02 L653.974 1453.01 L641.428 1485.58 L636.544 1485.58 L648.349 1454.96 L631.752 1454.96 L631.752 1451.02 Z" fill="#000000" fill-rule="evenodd" fill-opacity="1" /><path clip-path="url(#clip150)" d="M1080.76 1469.17 Q1077.42 1469.17 1075.5 1470.95 Q1073.6 1472.73 1073.6 1475.86 Q1073.6 1478.98 1075.5 1480.77 Q1077.42 1482.55 1080.76 1482.55 Q1084.09 1482.55 1086.01 1480.77 Q1087.93 1478.96 1087.93 1475.86 Q1087.93 1472.73 1086.01 1470.95 Q1084.11 1469.17 1080.76 1469.17 M1076.08 1467.18 Q1073.07 1466.44 1071.38 1464.38 Q1069.71 1462.32 1069.71 1459.35 Q1069.71 1455.21 1072.65 1452.8 Q1075.62 1450.39 1080.76 1450.39 Q1085.92 1450.39 1088.86 1452.8 Q1091.8 1455.21 1091.8 1459.35 Q1091.8 1462.32 1090.11 1464.38 Q1088.44 1466.44 1085.45 1467.18 Q1088.83 1467.96 1090.71 1470.26 Q1092.61 1472.55 1092.61 1475.86 Q1092.61 1480.88 1089.53 1483.57 Q1086.47 1486.25 1080.76 1486.25 Q1075.04 1486.25 1071.96 1483.57 Q1068.9 1480.88 1068.9 1475.86 Q1068.9 1472.55 1070.8 1470.26 Q1072.7 1467.96 1076.08 1467.18 M1074.37 1459.79 Q1074.37 1462.48 1076.03 1463.98 Q1077.72 1465.49 1080.76 1465.49 Q1083.76 1465.49 1085.45 1463.98 Q1087.17 1462.48 1087.17 1459.79 Q1087.17 1457.11 1085.45 1455.6 Q1083.76 1454.1 1080.76 1454.1 Q1077.72 1454.1 1076.03 1455.6 Q1074.37 1457.11 1074.37 1459.79 Z" fill="#000000" fill-rule="evenodd" fill-opacity="1" /><path clip-path="url(#clip150)" d="M1508.95 1484.86 L1508.95 1480.6 Q1510.71 1481.44 1512.51 1481.88 Q1514.32 1482.32 1516.05 1482.32 Q1520.68 1482.32 1523.12 1479.21 Q1525.57 1476.09 1525.92 1469.75 Q1524.57 1471.74 1522.51 1472.8 Q1520.45 1473.87 1517.95 1473.87 Q1512.77 1473.87 1509.74 1470.74 Q1506.73 1467.59 1506.73 1462.15 Q1506.73 1456.83 1509.87 1453.61 Q1513.02 1450.39 1518.25 1450.39 Q1524.25 1450.39 1527.4 1455 Q1530.57 1459.58 1530.57 1468.33 Q1530.57 1476.51 1526.68 1481.39 Q1522.81 1486.25 1516.26 1486.25 Q1514.5 1486.25 1512.7 1485.9 Q1510.89 1485.56 1508.95 1484.86 M1518.25 1470.21 Q1521.4 1470.21 1523.23 1468.06 Q1525.08 1465.9 1525.08 1462.15 Q1525.08 1458.43 1523.23 1456.27 Q1521.4 1454.1 1518.25 1454.1 Q1515.11 1454.1 1513.25 1456.27 Q1511.43 1458.43 1511.43 1462.15 Q1511.43 1465.9 1513.25 1468.06 Q1515.11 1470.21 1518.25 1470.21 Z" fill="#000000" fill-rule="evenodd" fill-opacity="1" /><path clip-path="url(#clip150)" d="M1931.23 1481.64 L1938.87 1481.64 L1938.87 1455.28 L1930.56 1456.95 L1930.56 1452.69 L1938.82 1451.02 L1943.5 1451.02 L1943.5 1481.64 L1951.13 1481.64 L1951.13 1485.58 L1931.23 1485.58 L1931.23 1481.64 Z" fill="#000000" fill-rule="evenodd" fill-opacity="1" /><path clip-path="url(#clip150)" d="M1970.58 1454.1 Q1966.97 1454.1 1965.14 1457.66 Q1963.33 1461.2 1963.33 1468.33 Q1963.33 1475.44 1965.14 1479.01 Q1966.97 1482.55 1970.58 1482.55 Q1974.21 1482.55 1976.02 1479.01 Q1977.85 1475.44 1977.85 1468.33 Q1977.85 1461.2 1976.02 1457.66 Q1974.21 1454.1 1970.58 1454.1 M1970.58 1450.39 Q1976.39 1450.39 1979.44 1455 Q1982.52 1459.58 1982.52 1468.33 Q1982.52 1477.06 1979.44 1481.67 Q1976.39 1486.25 1970.58 1486.25 Q1964.77 1486.25 1961.69 1481.67 Q1958.63 1477.06 1958.63 1468.33 Q1958.63 1459.58 1961.69 1455 Q1964.77 1450.39 1970.58 1450.39 Z" fill="#000000" fill-rule="evenodd" fill-opacity="1" /><path clip-path="url(#clip150)" d="M1045.56 1522.08 L1045.56 1528.35 Q1041.9 1526.6 1038.65 1525.74 Q1035.4 1524.88 1032.38 1524.88 Q1027.13 1524.88 1024.26 1526.92 Q1021.43 1528.96 1021.43 1532.71 Q1021.43 1535.87 1023.31 1537.49 Q1025.22 1539.08 1030.5 1540.07 L1034.39 1540.86 Q1041.58 1542.23 1044.98 1545.7 Q1048.42 1549.14 1048.42 1554.93 Q1048.42 1561.84 1043.77 1565.4 Q1039.16 1568.97 1030.22 1568.97 Q1026.84 1568.97 1023.02 1568.2 Q1019.23 1567.44 1015.16 1565.94 L1015.16 1559.32 Q1019.08 1561.52 1022.83 1562.63 Q1026.59 1563.75 1030.22 1563.75 Q1035.72 1563.75 1038.71 1561.58 Q1041.71 1559.42 1041.71 1555.41 Q1041.71 1551.91 1039.54 1549.93 Q1037.41 1547.96 1032.51 1546.97 L1028.59 1546.21 Q1021.4 1544.78 1018.18 1541.72 Q1014.97 1538.67 1014.97 1533.22 Q1014.97 1526.92 1019.39 1523.29 Q1023.85 1519.66 1031.65 1519.66 Q1034.99 1519.66 1038.46 1520.27 Q1041.93 1520.87 1045.56 1522.08 Z" fill="#000000" fill-rule="evenodd" fill-opacity="1" /><path clip-path="url(#clip150)" d="M1074.39 1550.12 Q1067.3 1550.12 1064.56 1551.75 Q1061.82 1553.37 1061.82 1557.29 Q1061.82 1560.4 1063.86 1562.25 Q1065.93 1564.07 1069.46 1564.07 Q1074.33 1564.07 1077.26 1560.63 Q1080.22 1557.16 1080.22 1551.43 L1080.22 1550.12 L1074.39 1550.12 M1086.07 1547.71 L1086.07 1568.04 L1080.22 1568.04 L1080.22 1562.63 Q1078.21 1565.88 1075.22 1567.44 Q1072.23 1568.97 1067.9 1568.97 Q1062.43 1568.97 1059.18 1565.91 Q1055.97 1562.82 1055.97 1557.67 Q1055.97 1551.65 1059.98 1548.6 Q1064.02 1545.54 1072.01 1545.54 L1080.22 1545.54 L1080.22 1544.97 Q1080.22 1540.93 1077.54 1538.73 Q1074.9 1536.5 1070.1 1536.5 Q1067.04 1536.5 1064.15 1537.23 Q1061.25 1537.97 1058.58 1539.43 L1058.58 1534.02 Q1061.79 1532.78 1064.81 1532.17 Q1067.84 1531.54 1070.7 1531.54 Q1078.44 1531.54 1082.26 1535.55 Q1086.07 1539.56 1086.07 1547.71 Z" fill="#000000" fill-rule="evenodd" fill-opacity="1" /><path clip-path="url(#clip150)" d="M1125.89 1539.24 Q1128.09 1535.29 1131.14 1533.41 Q1134.2 1531.54 1138.34 1531.54 Q1143.91 1531.54 1146.93 1535.45 Q1149.95 1539.33 1149.95 1546.53 L1149.95 1568.04 L1144.07 1568.04 L1144.07 1546.72 Q1144.07 1541.59 1142.25 1539.11 Q1140.44 1536.63 1136.71 1536.63 Q1132.16 1536.63 1129.52 1539.65 Q1126.88 1542.68 1126.88 1547.9 L1126.88 1568.04 L1120.99 1568.04 L1120.99 1546.72 Q1120.99 1541.56 1119.18 1539.11 Q1117.36 1536.63 1113.57 1536.63 Q1109.09 1536.63 1106.45 1539.68 Q1103.8 1542.71 1103.8 1547.9 L1103.8 1568.04 L1097.92 1568.04 L1097.92 1532.4 L1103.8 1532.4 L1103.8 1537.93 Q1105.81 1534.66 1108.61 1533.1 Q1111.41 1531.54 1115.26 1531.54 Q1119.14 1531.54 1121.85 1533.51 Q1124.59 1535.48 1125.89 1539.24 Z" fill="#000000" fill-rule="evenodd" fill-opacity="1" /><path clip-path="url(#clip150)" d="M1167.3 1562.7 L1167.3 1581.6 L1161.41 1581.6 L1161.41 1532.4 L1167.3 1532.4 L1167.3 1537.81 Q1169.15 1534.62 1171.95 1533.1 Q1174.78 1531.54 1178.7 1531.54 Q1185.19 1531.54 1189.23 1536.69 Q1193.31 1541.85 1193.31 1550.25 Q1193.31 1558.65 1189.23 1563.81 Q1185.19 1568.97 1178.7 1568.97 Q1174.78 1568.97 1171.95 1567.44 Q1169.15 1565.88 1167.3 1562.7 M1187.23 1550.25 Q1187.23 1543.79 1184.55 1540.13 Q1181.91 1536.44 1177.26 1536.44 Q1172.62 1536.44 1169.94 1540.13 Q1167.3 1543.79 1167.3 1550.25 Q1167.3 1556.71 1169.94 1560.4 Q1172.62 1564.07 1177.26 1564.07 Q1181.91 1564.07 1184.55 1560.4 Q1187.23 1556.71 1187.23 1550.25 Z" fill="#000000" fill-rule="evenodd" fill-opacity="1" /><path clip-path="url(#clip150)" d="M1203.01 1518.52 L1208.87 1518.52 L1208.87 1568.04 L1203.01 1568.04 L1203.01 1518.52 Z" fill="#000000" fill-rule="evenodd" fill-opacity="1" /><path clip-path="url(#clip150)" d="M1251.62 1548.76 L1251.62 1551.62 L1224.69 1551.62 Q1225.07 1557.67 1228.32 1560.85 Q1231.59 1564 1237.42 1564 Q1240.79 1564 1243.94 1563.17 Q1247.13 1562.35 1250.25 1560.69 L1250.25 1566.23 Q1247.1 1567.57 1243.79 1568.27 Q1240.48 1568.97 1237.07 1568.97 Q1228.54 1568.97 1223.54 1564 Q1218.58 1559.04 1218.58 1550.57 Q1218.58 1541.82 1223.29 1536.69 Q1228.03 1531.54 1236.05 1531.54 Q1243.24 1531.54 1247.41 1536.18 Q1251.62 1540.8 1251.62 1548.76 M1245.76 1547.04 Q1245.69 1542.23 1243.05 1539.37 Q1240.44 1536.5 1236.11 1536.5 Q1231.21 1536.5 1228.25 1539.27 Q1225.32 1542.04 1224.88 1547.07 L1245.76 1547.04 Z" fill="#000000" fill-rule="evenodd" fill-opacity="1" /><path clip-path="url(#clip150)" d="M1298.08 1526.86 L1289.36 1550.51 L1306.84 1550.51 L1298.08 1526.86 M1294.46 1520.52 L1301.75 1520.52 L1319.86 1568.04 L1313.17 1568.04 L1308.84 1555.85 L1287.42 1555.85 L1283.09 1568.04 L1276.31 1568.04 L1294.46 1520.52 Z" fill="#000000" fill-rule="evenodd" fill-opacity="1" /><path clip-path="url(#clip150)" d="M1318.52 1532.4 L1324.73 1532.4 L1335.87 1562.31 L1347.01 1532.4 L1353.21 1532.4 L1339.84 1568.04 L1331.89 1568.04 L1318.52 1532.4 Z" fill="#000000" fill-rule="evenodd" fill-opacity="1" /><path clip-path="url(#clip150)" d="M1391.79 1548.76 L1391.79 1551.62 L1364.86 1551.62 Q1365.24 1557.67 1368.49 1560.85 Q1371.77 1564 1377.59 1564 Q1380.97 1564 1384.12 1563.17 Q1387.3 1562.35 1390.42 1560.69 L1390.42 1566.23 Q1387.27 1567.57 1383.96 1568.27 Q1380.65 1568.97 1377.24 1568.97 Q1368.71 1568.97 1363.72 1564 Q1358.75 1559.04 1358.75 1550.57 Q1358.75 1541.82 1363.46 1536.69 Q1368.2 1531.54 1376.22 1531.54 Q1383.42 1531.54 1387.59 1536.18 Q1391.79 1540.8 1391.79 1548.76 M1385.93 1547.04 Q1385.87 1542.23 1383.23 1539.37 Q1380.62 1536.5 1376.29 1536.5 Q1371.39 1536.5 1368.43 1539.27 Q1365.5 1542.04 1365.05 1547.07 L1385.93 1547.04 Z" fill="#000000" fill-rule="evenodd" fill-opacity="1" /><path clip-path="url(#clip150)" d="M1422.06 1537.87 Q1421.07 1537.3 1419.89 1537.04 Q1418.75 1536.76 1417.35 1536.76 Q1412.38 1536.76 1409.71 1540 Q1407.07 1543.22 1407.07 1549.27 L1407.07 1568.04 L1401.18 1568.04 L1401.18 1532.4 L1407.07 1532.4 L1407.07 1537.93 Q1408.91 1534.69 1411.87 1533.13 Q1414.83 1531.54 1419.07 1531.54 Q1419.67 1531.54 1420.4 1531.63 Q1421.13 1531.7 1422.03 1531.85 L1422.06 1537.87 Z" fill="#000000" fill-rule="evenodd" fill-opacity="1" /><path clip-path="url(#clip150)" d="M1444.4 1550.12 Q1437.3 1550.12 1434.57 1551.75 Q1431.83 1553.37 1431.83 1557.29 Q1431.83 1560.4 1433.87 1562.25 Q1435.93 1564.07 1439.47 1564.07 Q1444.34 1564.07 1447.27 1560.63 Q1450.23 1557.16 1450.23 1551.43 L1450.23 1550.12 L1444.4 1550.12 M1456.08 1547.71 L1456.08 1568.04 L1450.23 1568.04 L1450.23 1562.63 Q1448.22 1565.88 1445.23 1567.44 Q1442.24 1568.97 1437.91 1568.97 Q1432.43 1568.97 1429.19 1565.91 Q1425.97 1562.82 1425.97 1557.67 Q1425.97 1551.65 1429.98 1548.6 Q1434.02 1545.54 1442.01 1545.54 L1450.23 1545.54 L1450.23 1544.97 Q1450.23 1540.93 1447.55 1538.73 Q1444.91 1536.5 1440.1 1536.5 Q1437.05 1536.5 1434.15 1537.23 Q1431.26 1537.97 1428.58 1539.43 L1428.58 1534.02 Q1431.8 1532.78 1434.82 1532.17 Q1437.84 1531.54 1440.71 1531.54 Q1448.44 1531.54 1452.26 1535.55 Q1456.08 1539.56 1456.08 1547.71 Z" fill="#000000" fill-rule="evenodd" fill-opacity="1" /><path clip-path="url(#clip150)" d="M1491.6 1549.81 Q1491.6 1543.44 1488.96 1539.94 Q1486.35 1536.44 1481.61 1536.44 Q1476.9 1536.44 1474.26 1539.94 Q1471.65 1543.44 1471.65 1549.81 Q1471.65 1556.14 1474.26 1559.64 Q1476.9 1563.14 1481.61 1563.14 Q1486.35 1563.14 1488.96 1559.64 Q1491.6 1556.14 1491.6 1549.81 M1497.46 1563.62 Q1497.46 1572.72 1493.42 1577.15 Q1489.37 1581.6 1481.04 1581.6 Q1477.95 1581.6 1475.21 1581.13 Q1472.47 1580.68 1469.9 1579.72 L1469.9 1574.03 Q1472.47 1575.43 1474.99 1576.1 Q1477.5 1576.76 1480.11 1576.76 Q1485.87 1576.76 1488.74 1573.74 Q1491.6 1570.75 1491.6 1564.67 L1491.6 1561.77 Q1489.79 1564.92 1486.96 1566.48 Q1484.12 1568.04 1480.18 1568.04 Q1473.62 1568.04 1469.61 1563.05 Q1465.6 1558.05 1465.6 1549.81 Q1465.6 1541.53 1469.61 1536.53 Q1473.62 1531.54 1480.18 1531.54 Q1484.12 1531.54 1486.96 1533.1 Q1489.79 1534.66 1491.6 1537.81 L1491.6 1532.4 L1497.46 1532.4 L1497.46 1563.62 Z" fill="#000000" fill-rule="evenodd" fill-opacity="1" /><path clip-path="url(#clip150)" d="M1540.01 1548.76 L1540.01 1551.62 L1513.09 1551.62 Q1513.47 1557.67 1516.71 1560.85 Q1519.99 1564 1525.82 1564 Q1529.19 1564 1532.34 1563.17 Q1535.53 1562.35 1538.64 1560.69 L1538.64 1566.23 Q1535.49 1567.57 1532.18 1568.27 Q1528.87 1568.97 1525.47 1568.97 Q1516.94 1568.97 1511.94 1564 Q1506.98 1559.04 1506.98 1550.57 Q1506.98 1541.82 1511.69 1536.69 Q1516.43 1531.54 1524.45 1531.54 Q1531.64 1531.54 1535.81 1536.18 Q1540.01 1540.8 1540.01 1548.76 M1534.16 1547.04 Q1534.09 1542.23 1531.45 1539.37 Q1528.84 1536.5 1524.51 1536.5 Q1519.61 1536.5 1516.65 1539.27 Q1513.72 1542.04 1513.28 1547.07 L1534.16 1547.04 Z" fill="#000000" fill-rule="evenodd" fill-opacity="1" /><polyline clip-path="url(#clip152)" style="stroke:#000000; stroke-linecap:round; stroke-linejoin:round; stroke-width:2; stroke-opacity:0.1; fill:none" points="
  202.227,1166.12 2352.76,1166.12 
  "/>
<polyline clip-path="url(#clip152)" style="stroke:#000000; stroke-linecap:round; stroke-linejoin:round; stroke-width:2; stroke-opacity:0.1; fill:none" points="
  202.227,844.775 2352.76,844.775 
  "/>
<polyline clip-path="url(#clip152)" style="stroke:#000000; stroke-linecap:round; stroke-linejoin:round; stroke-width:2; stroke-opacity:0.1; fill:none" points="
  202.227,523.432 2352.76,523.432 
  "/>
<polyline clip-path="url(#clip152)" style="stroke:#000000; stroke-linecap:round; stroke-linejoin:round; stroke-width:2; stroke-opacity:0.1; fill:none" points="
  202.227,202.089 2352.76,202.089 
  "/>
<polyline clip-path="url(#clip150)" style="stroke:#000000; stroke-linecap:round; stroke-linejoin:round; stroke-width:4; stroke-opacity:1; fill:none" points="
  202.227,1423.18 202.227,47.2441 
  "/>
<polyline clip-path="url(#clip150)" style="stroke:#000000; stroke-linecap:round; stroke-linejoin:round; stroke-width:4; stroke-opacity:1; fill:none" points="
  202.227,1166.12 221.125,1166.12 
  "/>
<polyline clip-path="url(#clip150)" style="stroke:#000000; stroke-linecap:round; stroke-linejoin:round; stroke-width:4; stroke-opacity:1; fill:none" points="
  202.227,844.775 221.125,844.775 
  "/>
<polyline clip-path="url(#clip150)" style="stroke:#000000; stroke-linecap:round; stroke-linejoin:round; stroke-width:4; stroke-opacity:1; fill:none" points="
  202.227,523.432 221.125,523.432 
  "/>
<polyline clip-path="url(#clip150)" style="stroke:#000000; stroke-linecap:round; stroke-linejoin:round; stroke-width:4; stroke-opacity:1; fill:none" points="
  202.227,202.089 221.125,202.089 
  "/>
<path clip-path="url(#clip150)" d="M144.005 1148.84 L166.227 1148.84 L166.227 1150.83 L153.681 1183.4 L148.797 1183.4 L160.603 1152.77 L144.005 1152.77 L144.005 1148.84 Z" fill="#000000" fill-rule="evenodd" fill-opacity="1" /><path clip-path="url(#clip150)" d="M154.376 845.643 Q151.042 845.643 149.121 847.425 Q147.223 849.208 147.223 852.333 Q147.223 855.458 149.121 857.24 Q151.042 859.023 154.376 859.023 Q157.709 859.023 159.63 857.24 Q161.552 855.435 161.552 852.333 Q161.552 849.208 159.63 847.425 Q157.732 845.643 154.376 845.643 M149.7 843.652 Q146.691 842.912 145.001 840.851 Q143.334 838.791 143.334 835.828 Q143.334 831.685 146.274 829.277 Q149.237 826.87 154.376 826.87 Q159.538 826.87 162.477 829.277 Q165.417 831.685 165.417 835.828 Q165.417 838.791 163.727 840.851 Q162.061 842.912 159.075 843.652 Q162.454 844.439 164.329 846.731 Q166.227 849.023 166.227 852.333 Q166.227 857.356 163.149 860.041 Q160.093 862.726 154.376 862.726 Q148.658 862.726 145.579 860.041 Q142.524 857.356 142.524 852.333 Q142.524 849.023 144.422 846.731 Q146.32 844.439 149.7 843.652 M147.987 836.268 Q147.987 838.953 149.653 840.458 Q151.343 841.962 154.376 841.962 Q157.385 841.962 159.075 840.458 Q160.788 838.953 160.788 836.268 Q160.788 833.583 159.075 832.078 Q157.385 830.574 154.376 830.574 Q151.343 830.574 149.653 832.078 Q147.987 833.583 147.987 836.268 Z" fill="#000000" fill-rule="evenodd" fill-opacity="1" /><path clip-path="url(#clip150)" d="M144.607 539.995 L144.607 535.735 Q146.366 536.569 148.172 537.008 Q149.978 537.448 151.714 537.448 Q156.343 537.448 158.774 534.346 Q161.227 531.221 161.575 524.879 Q160.232 526.87 158.172 527.934 Q156.112 528.999 153.612 528.999 Q148.427 528.999 145.394 525.874 Q142.385 522.726 142.385 517.286 Q142.385 511.962 145.533 508.745 Q148.681 505.527 153.913 505.527 Q159.908 505.527 163.056 510.134 Q166.227 514.717 166.227 523.467 Q166.227 531.638 162.339 536.522 Q158.473 541.383 151.922 541.383 Q150.163 541.383 148.357 541.036 Q146.552 540.689 144.607 539.995 M153.913 525.342 Q157.061 525.342 158.89 523.189 Q160.741 521.036 160.741 517.286 Q160.741 513.559 158.89 511.407 Q157.061 509.231 153.913 509.231 Q150.765 509.231 148.913 511.407 Q147.084 513.559 147.084 517.286 Q147.084 521.036 148.913 523.189 Q150.765 525.342 153.913 525.342 Z" fill="#000000" fill-rule="evenodd" fill-opacity="1" /><path clip-path="url(#clip150)" d="M114.931 215.434 L122.57 215.434 L122.57 189.069 L114.26 190.735 L114.26 186.476 L122.524 184.809 L127.2 184.809 L127.2 215.434 L134.839 215.434 L134.839 219.369 L114.931 219.369 L114.931 215.434 Z" fill="#000000" fill-rule="evenodd" fill-opacity="1" /><path clip-path="url(#clip150)" d="M154.283 187.888 Q150.672 187.888 148.843 191.453 Q147.038 194.994 147.038 202.124 Q147.038 209.23 148.843 212.795 Q150.672 216.337 154.283 216.337 Q157.917 216.337 159.723 212.795 Q161.552 209.23 161.552 202.124 Q161.552 194.994 159.723 191.453 Q157.917 187.888 154.283 187.888 M154.283 184.184 Q160.093 184.184 163.149 188.791 Q166.227 193.374 166.227 202.124 Q166.227 210.851 163.149 215.457 Q160.093 220.041 154.283 220.041 Q148.473 220.041 145.394 215.457 Q142.339 210.851 142.339 202.124 Q142.339 193.374 145.394 188.791 Q148.473 184.184 154.283 184.184 Z" fill="#000000" fill-rule="evenodd" fill-opacity="1" /><path clip-path="url(#clip150)" d="M21.7677 1070.94 L39.6235 1070.94 L39.6235 1062.85 Q39.6235 1058.37 37.3 1055.92 Q34.9765 1053.47 30.6797 1053.47 Q26.4147 1053.47 24.0912 1055.92 Q21.7677 1058.37 21.7677 1062.85 L21.7677 1070.94 M16.4842 1077.37 L16.4842 1062.85 Q16.4842 1054.87 20.1126 1050.79 Q23.7092 1046.69 30.6797 1046.69 Q37.7138 1046.69 41.3104 1050.79 Q44.907 1054.87 44.907 1062.85 L44.907 1070.94 L64.0042 1070.94 L64.0042 1077.37 L16.4842 1077.37 Z" fill="#000000" fill-rule="evenodd" fill-opacity="1" /><path clip-path="url(#clip150)" d="M32.4621 1026.82 Q32.4621 1031.54 36.1542 1034.27 Q39.8145 1037.01 46.212 1037.01 Q52.6095 1037.01 56.3017 1034.3 Q59.9619 1031.57 59.9619 1026.82 Q59.9619 1022.15 56.2698 1019.41 Q52.5777 1016.67 46.212 1016.67 Q39.8781 1016.67 36.186 1019.41 Q32.4621 1022.15 32.4621 1026.82 M27.4968 1026.82 Q27.4968 1019.19 32.4621 1014.83 Q37.4273 1010.47 46.212 1010.47 Q54.9649 1010.47 59.9619 1014.83 Q64.9272 1019.19 64.9272 1026.82 Q64.9272 1034.5 59.9619 1038.86 Q54.9649 1043.18 46.212 1043.18 Q37.4273 1043.18 32.4621 1038.86 Q27.4968 1034.5 27.4968 1026.82 Z" fill="#000000" fill-rule="evenodd" fill-opacity="1" /><path clip-path="url(#clip150)" d="M29.4065 978.032 L34.9447 978.032 Q33.6716 980.514 33.035 983.188 Q32.3984 985.862 32.3984 988.726 Q32.3984 993.087 33.7352 995.283 Q35.072 997.447 37.7456 997.447 Q39.7826 997.447 40.9603 995.888 Q42.1061 994.328 43.1565 989.617 L43.6021 987.612 Q44.9389 981.374 47.3897 978.764 Q49.8086 976.122 54.1691 976.122 Q59.1344 976.122 62.0308 980.069 Q64.9272 983.984 64.9272 990.859 Q64.9272 993.723 64.3543 996.843 Q63.8132 999.93 62.6992 1003.37 L56.6518 1003.37 Q58.3387 1000.12 59.198 996.97 Q60.0256 993.819 60.0256 990.731 Q60.0256 986.594 58.6251 984.366 Q57.1929 982.138 54.6147 982.138 Q52.2276 982.138 50.9545 983.761 Q49.6813 985.352 48.5037 990.795 L48.0262 992.832 Q46.8804 998.275 44.5251 1000.69 Q42.138 1003.11 38.0002 1003.11 Q32.9713 1003.11 30.2341 999.548 Q27.4968 995.983 27.4968 989.426 Q27.4968 986.18 27.9743 983.315 Q28.4517 980.451 29.4065 978.032 Z" fill="#000000" fill-rule="evenodd" fill-opacity="1" /><path clip-path="url(#clip150)" d="M18.2347 961.004 L28.3562 961.004 L28.3562 948.941 L32.9077 948.941 L32.9077 961.004 L52.2594 961.004 Q56.6199 961.004 57.8613 959.826 Q59.1026 958.616 59.1026 954.956 L59.1026 948.941 L64.0042 948.941 L64.0042 954.956 Q64.0042 961.736 61.4897 964.314 Q58.9434 966.892 52.2594 966.892 L32.9077 966.892 L32.9077 971.189 L28.3562 971.189 L28.3562 966.892 L18.2347 966.892 L18.2347 961.004 Z" fill="#000000" fill-rule="evenodd" fill-opacity="1" /><path clip-path="url(#clip150)" d="M44.7161 910.746 L47.5806 910.746 L47.5806 937.673 Q53.6281 937.291 56.8109 934.045 Q59.9619 930.766 59.9619 924.942 Q59.9619 921.568 59.1344 918.417 Q58.3069 915.234 56.6518 912.115 L62.1899 912.115 Q63.5267 915.266 64.227 918.576 Q64.9272 921.886 64.9272 925.292 Q64.9272 933.822 59.9619 938.819 Q54.9967 943.784 46.5303 943.784 Q37.7774 943.784 32.6531 939.074 Q27.4968 934.331 27.4968 926.31 Q27.4968 919.117 32.1438 914.948 Q36.7589 910.746 44.7161 910.746 M42.9973 916.603 Q38.1912 916.666 35.3266 919.308 Q32.4621 921.918 32.4621 926.247 Q32.4621 931.148 35.2312 934.108 Q38.0002 937.037 43.0292 937.482 L42.9973 916.603 Z" fill="#000000" fill-rule="evenodd" fill-opacity="1" /><path clip-path="url(#clip150)" d="M33.8307 880.477 Q33.2578 881.464 33.0032 882.642 Q32.7167 883.788 32.7167 885.188 Q32.7167 890.153 35.9632 892.827 Q39.1779 895.469 45.2253 895.469 L64.0042 895.469 L64.0042 901.357 L28.3562 901.357 L28.3562 895.469 L33.8944 895.469 Q30.6479 893.623 29.0883 890.663 Q27.4968 887.702 27.4968 883.469 Q27.4968 882.865 27.5923 882.132 Q27.656 881.4 27.8151 880.509 L33.8307 880.477 Z" fill="#000000" fill-rule="evenodd" fill-opacity="1" /><path clip-path="url(#clip150)" d="M28.3562 874.334 L28.3562 868.478 L64.0042 868.478 L64.0042 874.334 L28.3562 874.334 M14.479 874.334 L14.479 868.478 L21.895 868.478 L21.895 874.334 L14.479 874.334 Z" fill="#000000" fill-rule="evenodd" fill-opacity="1" /><path clip-path="url(#clip150)" d="M32.4621 842.41 Q32.4621 847.121 36.1542 849.858 Q39.8145 852.596 46.212 852.596 Q52.6095 852.596 56.3017 849.89 Q59.9619 847.153 59.9619 842.41 Q59.9619 837.732 56.2698 834.994 Q52.5777 832.257 46.212 832.257 Q39.8781 832.257 36.186 834.994 Q32.4621 837.732 32.4621 842.41 M27.4968 842.41 Q27.4968 834.772 32.4621 830.411 Q37.4273 826.051 46.212 826.051 Q54.9649 826.051 59.9619 830.411 Q64.9272 834.772 64.9272 842.41 Q64.9272 850.081 59.9619 854.442 Q54.9649 858.77 46.212 858.77 Q37.4273 858.77 32.4621 854.442 Q27.4968 850.081 27.4968 842.41 Z" fill="#000000" fill-rule="evenodd" fill-opacity="1" /><path clip-path="url(#clip150)" d="M33.8307 795.686 Q33.2578 796.673 33.0032 797.851 Q32.7167 798.996 32.7167 800.397 Q32.7167 805.362 35.9632 808.036 Q39.1779 810.677 45.2253 810.677 L64.0042 810.677 L64.0042 816.566 L28.3562 816.566 L28.3562 810.677 L33.8944 810.677 Q30.6479 808.831 29.0883 805.871 Q27.4968 802.911 27.4968 798.678 Q27.4968 798.073 27.5923 797.341 Q27.656 796.609 27.8151 795.718 L33.8307 795.686 Z" fill="#000000" fill-rule="evenodd" fill-opacity="1" /><path clip-path="url(#clip150)" d="M16.4842 768.568 L16.4842 738.522 L21.895 738.522 L21.895 762.139 L35.9632 762.139 L35.9632 739.509 L41.3741 739.509 L41.3741 762.139 L58.5933 762.139 L58.5933 737.949 L64.0042 737.949 L64.0042 768.568 L16.4842 768.568 Z" fill="#000000" fill-rule="evenodd" fill-opacity="1" /><path clip-path="url(#clip150)" d="M28.3562 698.004 L45.7028 710.895 L64.0042 697.336 L64.0042 704.243 L49.9996 714.619 L64.0042 724.995 L64.0042 731.902 L45.3526 718.056 L28.3562 730.724 L28.3562 723.817 L41.0558 714.364 L28.3562 704.911 L28.3562 698.004 Z" fill="#000000" fill-rule="evenodd" fill-opacity="1" /><path clip-path="url(#clip150)" d="M58.657 683.395 L77.5631 683.395 L77.5631 689.283 L28.3562 689.283 L28.3562 683.395 L33.7671 683.395 Q30.5842 681.549 29.0564 678.748 Q27.4968 675.915 27.4968 672.001 Q27.4968 665.507 32.6531 661.465 Q37.8093 657.391 46.212 657.391 Q54.6147 657.391 59.771 661.465 Q64.9272 665.507 64.9272 672.001 Q64.9272 675.915 63.3994 678.748 Q61.8398 681.549 58.657 683.395 M46.212 663.47 Q39.7508 663.47 36.0905 666.144 Q32.3984 668.786 32.3984 673.433 Q32.3984 678.08 36.0905 680.753 Q39.7508 683.395 46.212 683.395 Q52.6732 683.395 56.3653 680.753 Q60.0256 678.08 60.0256 673.433 Q60.0256 668.786 56.3653 666.144 Q52.6732 663.47 46.212 663.47 Z" fill="#000000" fill-rule="evenodd" fill-opacity="1" /><path clip-path="url(#clip150)" d="M44.7161 617.192 L47.5806 617.192 L47.5806 644.119 Q53.6281 643.737 56.8109 640.49 Q59.9619 637.212 59.9619 631.387 Q59.9619 628.013 59.1344 624.862 Q58.3069 621.68 56.6518 618.56 L62.1899 618.56 Q63.5267 621.711 64.227 625.022 Q64.9272 628.332 64.9272 631.737 Q64.9272 640.267 59.9619 645.265 Q54.9967 650.23 46.5303 650.23 Q37.7774 650.23 32.6531 645.519 Q27.4968 640.777 27.4968 632.756 Q27.4968 625.563 32.1438 621.393 Q36.7589 617.192 44.7161 617.192 M42.9973 623.048 Q38.1912 623.112 35.3266 625.754 Q32.4621 628.364 32.4621 632.692 Q32.4621 637.594 35.2312 640.554 Q38.0002 643.482 43.0292 643.928 L42.9973 623.048 Z" fill="#000000" fill-rule="evenodd" fill-opacity="1" /><path clip-path="url(#clip150)" d="M29.7248 581.926 L35.1993 581.926 Q33.8307 584.408 33.1623 586.923 Q32.4621 589.405 32.4621 591.952 Q32.4621 597.649 36.0905 600.8 Q39.6872 603.951 46.212 603.951 Q52.7369 603.951 56.3653 600.8 Q59.9619 597.649 59.9619 591.952 Q59.9619 589.405 59.2935 586.923 Q58.5933 584.408 57.2247 581.926 L62.6355 581.926 Q63.7814 584.377 64.3543 587.018 Q64.9272 589.628 64.9272 592.588 Q64.9272 600.641 59.8664 605.383 Q54.8057 610.126 46.212 610.126 Q37.491 610.126 32.4939 605.352 Q27.4968 600.545 27.4968 592.206 Q27.4968 589.501 28.0697 586.923 Q28.6108 584.345 29.7248 581.926 Z" fill="#000000" fill-rule="evenodd" fill-opacity="1" /><path clip-path="url(#clip150)" d="M18.2347 565.948 L28.3562 565.948 L28.3562 553.885 L32.9077 553.885 L32.9077 565.948 L52.2594 565.948 Q56.6199 565.948 57.8613 564.77 Q59.1026 563.561 59.1026 559.9 L59.1026 553.885 L64.0042 553.885 L64.0042 559.9 Q64.0042 566.68 61.4897 569.258 Q58.9434 571.836 52.2594 571.836 L32.9077 571.836 L32.9077 576.133 L28.3562 576.133 L28.3562 571.836 L18.2347 571.836 L18.2347 565.948 Z" fill="#000000" fill-rule="evenodd" fill-opacity="1" /><path clip-path="url(#clip150)" d="M46.0847 529.982 Q46.0847 537.079 47.7079 539.817 Q49.3312 542.554 53.2461 542.554 Q56.3653 542.554 58.2114 540.517 Q60.0256 538.448 60.0256 534.915 Q60.0256 530.045 56.5881 527.117 Q53.1188 524.157 47.3897 524.157 L46.0847 524.157 L46.0847 529.982 M43.6657 518.301 L64.0042 518.301 L64.0042 524.157 L58.5933 524.157 Q61.8398 526.162 63.3994 529.154 Q64.9272 532.146 64.9272 536.475 Q64.9272 541.949 61.8716 545.196 Q58.7843 548.41 53.6281 548.41 Q47.6125 548.41 44.5569 544.4 Q41.5014 540.358 41.5014 532.369 L41.5014 524.157 L40.9285 524.157 Q36.8862 524.157 34.6901 526.831 Q32.4621 529.472 32.4621 534.278 Q32.4621 537.334 33.1941 540.23 Q33.9262 543.127 35.3903 545.8 L29.9795 545.8 Q28.7381 542.586 28.1334 539.562 Q27.4968 536.538 27.4968 533.674 Q27.4968 525.939 31.5072 522.12 Q35.5176 518.301 43.6657 518.301 Z" fill="#000000" fill-rule="evenodd" fill-opacity="1" /><path clip-path="url(#clip150)" d="M18.2347 500.445 L28.3562 500.445 L28.3562 488.382 L32.9077 488.382 L32.9077 500.445 L52.2594 500.445 Q56.6199 500.445 57.8613 499.267 Q59.1026 498.058 59.1026 494.397 L59.1026 488.382 L64.0042 488.382 L64.0042 494.397 Q64.0042 501.177 61.4897 503.755 Q58.9434 506.333 52.2594 506.333 L32.9077 506.333 L32.9077 510.63 L28.3562 510.63 L28.3562 506.333 L18.2347 506.333 L18.2347 500.445 Z" fill="#000000" fill-rule="evenodd" fill-opacity="1" /><path clip-path="url(#clip150)" d="M28.3562 480.679 L28.3562 474.823 L64.0042 474.823 L64.0042 480.679 L28.3562 480.679 M14.479 480.679 L14.479 474.823 L21.895 474.823 L21.895 480.679 L14.479 480.679 Z" fill="#000000" fill-rule="evenodd" fill-opacity="1" /><path clip-path="url(#clip150)" d="M32.4621 448.755 Q32.4621 453.466 36.1542 456.203 Q39.8145 458.94 46.212 458.94 Q52.6095 458.94 56.3017 456.235 Q59.9619 453.498 59.9619 448.755 Q59.9619 444.076 56.2698 441.339 Q52.5777 438.602 46.212 438.602 Q39.8781 438.602 36.186 441.339 Q32.4621 444.076 32.4621 448.755 M27.4968 448.755 Q27.4968 441.116 32.4621 436.756 Q37.4273 432.395 46.212 432.395 Q54.9649 432.395 59.9619 436.756 Q64.9272 441.116 64.9272 448.755 Q64.9272 456.426 59.9619 460.786 Q54.9649 465.115 46.212 465.115 Q37.4273 465.115 32.4621 460.786 Q27.4968 456.426 27.4968 448.755 Z" fill="#000000" fill-rule="evenodd" fill-opacity="1" /><path clip-path="url(#clip150)" d="M42.4881 393.055 L64.0042 393.055 L64.0042 398.912 L42.679 398.912 Q37.6183 398.912 35.1038 400.885 Q32.5894 402.858 32.5894 406.805 Q32.5894 411.548 35.6131 414.285 Q38.6368 417.022 43.8567 417.022 L64.0042 417.022 L64.0042 422.91 L28.3562 422.91 L28.3562 417.022 L33.8944 417.022 Q30.6797 414.921 29.0883 412.089 Q27.4968 409.224 27.4968 405.5 Q27.4968 399.357 31.3163 396.206 Q35.1038 393.055 42.4881 393.055 Z" fill="#000000" fill-rule="evenodd" fill-opacity="1" /><circle clip-path="url(#clip152)" cx="1721.83" cy="450.913" r="14.4" fill="#009af9" fill-rule="evenodd" fill-opacity="1" stroke="#000000" stroke-opacity="1" stroke-width="3.2"/>
<circle clip-path="url(#clip152)" cx="657.523" cy="1134.08" r="14.4" fill="#009af9" fill-rule="evenodd" fill-opacity="1" stroke="#000000" stroke-opacity="1" stroke-width="3.2"/>
<circle clip-path="url(#clip152)" cx="1060.17" cy="880.788" r="14.4" fill="#009af9" fill-rule="evenodd" fill-opacity="1" stroke="#000000" stroke-opacity="1" stroke-width="3.2"/>
<circle clip-path="url(#clip152)" cx="306.599" cy="1361.78" r="14.4" fill="#009af9" fill-rule="evenodd" fill-opacity="1" stroke="#000000" stroke-opacity="1" stroke-width="3.2"/>
<circle clip-path="url(#clip152)" cx="2291.89" cy="86.1857" r="14.4" fill="#009af9" fill-rule="evenodd" fill-opacity="1" stroke="#000000" stroke-opacity="1" stroke-width="3.2"/>
<circle clip-path="url(#clip152)" cx="294.739" cy="1370.77" r="14.4" fill="#009af9" fill-rule="evenodd" fill-opacity="1" stroke="#000000" stroke-opacity="1" stroke-width="3.2"/>
<circle clip-path="url(#clip152)" cx="263.091" cy="1384.24" r="14.4" fill="#009af9" fill-rule="evenodd" fill-opacity="1" stroke="#000000" stroke-opacity="1" stroke-width="3.2"/>
<circle clip-path="url(#clip152)" cx="809.7" cy="1034.88" r="14.4" fill="#009af9" fill-rule="evenodd" fill-opacity="1" stroke="#000000" stroke-opacity="1" stroke-width="3.2"/>
<polyline clip-path="url(#clip152)" style="stroke:#e26f46; stroke-linecap:round; stroke-linejoin:round; stroke-width:4; stroke-opacity:1; fill:none" points="
  -1948.3,998.932 4503.28,998.932 
  "/>
<polyline clip-path="url(#clip152)" style="stroke:#3da44d; stroke-linecap:round; stroke-linejoin:round; stroke-width:4; stroke-opacity:1; fill:none" points="
  -1948.3,943.981 4503.28,943.981 
  "/>
<path clip-path="url(#clip150)" d="
M1474.35 300.469 L2281.07 300.469 L2281.07 93.1086 L1474.35 93.1086  Z
  " fill="#ffffff" fill-rule="evenodd" fill-opacity="1"/>
<polyline clip-path="url(#clip150)" style="stroke:#000000; stroke-linecap:round; stroke-linejoin:round; stroke-width:4; stroke-opacity:1; fill:none" points="
  1474.35,300.469 2281.07,300.469 2281.07,93.1086 1474.35,93.1086 1474.35,300.469 
  "/>
<circle clip-path="url(#clip150)" cx="1569.93" cy="144.949" r="23.04" fill="#009af9" fill-rule="evenodd" fill-opacity="1" stroke="#000000" stroke-opacity="1" stroke-width="5.12"/>
<path clip-path="url(#clip150)" d="M1679.35 164.636 Q1677.54 169.266 1675.83 170.678 Q1674.12 172.09 1671.25 172.09 L1667.85 172.09 L1667.85 168.525 L1670.35 168.525 Q1672.1 168.525 1673.08 167.692 Q1674.05 166.858 1675.23 163.756 L1675.99 161.812 L1665.51 136.303 L1670.02 136.303 L1678.12 156.581 L1686.22 136.303 L1690.74 136.303 L1679.35 164.636 Z" fill="#000000" fill-rule="evenodd" fill-opacity="1" /><path clip-path="url(#clip150)" d="M1698.03 158.293 L1705.67 158.293 L1705.67 131.928 L1697.36 133.595 L1697.36 129.335 L1705.62 127.669 L1710.3 127.669 L1710.3 158.293 L1717.94 158.293 L1717.94 162.229 L1698.03 162.229 L1698.03 158.293 Z" fill="#000000" fill-rule="evenodd" fill-opacity="1" /><polyline clip-path="url(#clip150)" style="stroke:#e26f46; stroke-linecap:round; stroke-linejoin:round; stroke-width:4; stroke-opacity:1; fill:none" points="
  1498.24,196.789 1641.61,196.789 
  "/>
<path clip-path="url(#clip150)" d="M1669.79 210.18 L1669.79 223.93 L1665.51 223.93 L1665.51 188.143 L1669.79 188.143 L1669.79 192.078 Q1671.13 189.763 1673.17 188.652 Q1675.23 187.518 1678.08 187.518 Q1682.8 187.518 1685.74 191.268 Q1688.7 195.018 1688.7 201.129 Q1688.7 207.24 1685.74 210.99 Q1682.8 214.74 1678.08 214.74 Q1675.23 214.74 1673.17 213.629 Q1671.13 212.495 1669.79 210.18 M1684.28 201.129 Q1684.28 196.43 1682.34 193.768 Q1680.41 191.083 1677.04 191.083 Q1673.66 191.083 1671.71 193.768 Q1669.79 196.43 1669.79 201.129 Q1669.79 205.828 1671.71 208.513 Q1673.66 211.175 1677.04 211.175 Q1680.41 211.175 1682.34 208.513 Q1684.28 205.828 1684.28 201.129 Z" fill="#000000" fill-rule="evenodd" fill-opacity="1" /><path clip-path="url(#clip150)" d="M1705.81 191.129 Q1702.38 191.129 1700.39 193.814 Q1698.4 196.476 1698.4 201.129 Q1698.4 205.782 1700.37 208.467 Q1702.36 211.129 1705.81 211.129 Q1709.21 211.129 1711.2 208.444 Q1713.19 205.758 1713.19 201.129 Q1713.19 196.522 1711.2 193.837 Q1709.21 191.129 1705.81 191.129 M1705.81 187.518 Q1711.36 187.518 1714.53 191.129 Q1717.71 194.74 1717.71 201.129 Q1717.71 207.495 1714.53 211.129 Q1711.36 214.74 1705.81 214.74 Q1700.23 214.74 1697.06 211.129 Q1693.91 207.495 1693.91 201.129 Q1693.91 194.74 1697.06 191.129 Q1700.23 187.518 1705.81 187.518 Z" fill="#000000" fill-rule="evenodd" fill-opacity="1" /><path clip-path="url(#clip150)" d="M1741.29 188.907 L1741.29 192.934 Q1739.49 192.009 1737.54 191.546 Q1735.6 191.083 1733.52 191.083 Q1730.34 191.083 1728.75 192.055 Q1727.17 193.027 1727.17 194.971 Q1727.17 196.453 1728.31 197.309 Q1729.44 198.143 1732.87 198.907 L1734.33 199.231 Q1738.86 200.203 1740.76 201.985 Q1742.68 203.745 1742.68 206.916 Q1742.68 210.527 1739.81 212.633 Q1736.97 214.74 1731.97 214.74 Q1729.88 214.74 1727.61 214.323 Q1725.37 213.93 1722.87 213.12 L1722.87 208.721 Q1725.23 209.948 1727.52 210.573 Q1729.81 211.175 1732.06 211.175 Q1735.07 211.175 1736.69 210.157 Q1738.31 209.115 1738.31 207.24 Q1738.31 205.504 1737.13 204.578 Q1735.97 203.652 1732.01 202.796 L1730.53 202.448 Q1726.57 201.615 1724.81 199.902 Q1723.05 198.166 1723.05 195.157 Q1723.05 191.499 1725.65 189.509 Q1728.24 187.518 1733.01 187.518 Q1735.37 187.518 1737.45 187.865 Q1739.53 188.212 1741.29 188.907 Z" fill="#000000" fill-rule="evenodd" fill-opacity="1" /><path clip-path="url(#clip150)" d="M1753.68 180.782 L1753.68 188.143 L1762.45 188.143 L1762.45 191.453 L1753.68 191.453 L1753.68 205.527 Q1753.68 208.698 1754.53 209.601 Q1755.41 210.504 1758.08 210.504 L1762.45 210.504 L1762.45 214.069 L1758.08 214.069 Q1753.15 214.069 1751.27 212.24 Q1749.4 210.388 1749.4 205.527 L1749.4 191.453 L1746.27 191.453 L1746.27 188.143 L1749.4 188.143 L1749.4 180.782 L1753.68 180.782 Z" fill="#000000" fill-rule="evenodd" fill-opacity="1" /><path clip-path="url(#clip150)" d="M1790.23 200.041 L1790.23 202.124 L1770.65 202.124 Q1770.92 206.522 1773.28 208.837 Q1775.67 211.129 1779.9 211.129 Q1782.36 211.129 1784.65 210.527 Q1786.97 209.925 1789.23 208.721 L1789.23 212.749 Q1786.94 213.721 1784.53 214.231 Q1782.13 214.74 1779.65 214.74 Q1773.45 214.74 1769.81 211.129 Q1766.2 207.518 1766.2 201.36 Q1766.2 194.995 1769.63 191.268 Q1773.08 187.518 1778.91 187.518 Q1784.14 187.518 1787.17 190.897 Q1790.23 194.254 1790.23 200.041 M1785.97 198.791 Q1785.92 195.296 1784 193.212 Q1782.1 191.129 1778.96 191.129 Q1775.39 191.129 1773.24 193.143 Q1771.11 195.157 1770.78 198.814 L1785.97 198.791 Z" fill="#000000" fill-rule="evenodd" fill-opacity="1" /><path clip-path="url(#clip150)" d="M1812.24 192.124 Q1811.53 191.708 1810.67 191.522 Q1809.84 191.314 1808.82 191.314 Q1805.21 191.314 1803.26 193.675 Q1801.34 196.013 1801.34 200.411 L1801.34 214.069 L1797.06 214.069 L1797.06 188.143 L1801.34 188.143 L1801.34 192.171 Q1802.68 189.809 1804.84 188.675 Q1806.99 187.518 1810.07 187.518 Q1810.51 187.518 1811.04 187.587 Q1811.57 187.634 1812.22 187.749 L1812.24 192.124 Z" fill="#000000" fill-rule="evenodd" fill-opacity="1" /><path clip-path="url(#clip150)" d="M1816.71 188.143 L1820.97 188.143 L1820.97 214.069 L1816.71 214.069 L1816.71 188.143 M1816.71 178.05 L1820.97 178.05 L1820.97 183.444 L1816.71 183.444 L1816.71 178.05 Z" fill="#000000" fill-rule="evenodd" fill-opacity="1" /><path clip-path="url(#clip150)" d="M1839.93 191.129 Q1836.5 191.129 1834.51 193.814 Q1832.52 196.476 1832.52 201.129 Q1832.52 205.782 1834.49 208.467 Q1836.48 211.129 1839.93 211.129 Q1843.33 211.129 1845.32 208.444 Q1847.31 205.758 1847.31 201.129 Q1847.31 196.522 1845.32 193.837 Q1843.33 191.129 1839.93 191.129 M1839.93 187.518 Q1845.48 187.518 1848.65 191.129 Q1851.83 194.74 1851.83 201.129 Q1851.83 207.495 1848.65 211.129 Q1845.48 214.74 1839.93 214.74 Q1834.35 214.74 1831.18 211.129 Q1828.03 207.495 1828.03 201.129 Q1828.03 194.74 1831.18 191.129 Q1834.35 187.518 1839.93 187.518 Z" fill="#000000" fill-rule="evenodd" fill-opacity="1" /><path clip-path="url(#clip150)" d="M1873.91 192.124 Q1873.19 191.708 1872.33 191.522 Q1871.5 191.314 1870.48 191.314 Q1866.87 191.314 1864.93 193.675 Q1863.01 196.013 1863.01 200.411 L1863.01 214.069 L1858.72 214.069 L1858.72 188.143 L1863.01 188.143 L1863.01 192.171 Q1864.35 189.809 1866.5 188.675 Q1868.65 187.518 1871.73 187.518 Q1872.17 187.518 1872.71 187.587 Q1873.24 187.634 1873.89 187.749 L1873.91 192.124 Z" fill="#000000" fill-rule="evenodd" fill-opacity="1" /><path clip-path="url(#clip150)" d="M1913.63 193.12 Q1915.23 190.249 1917.45 188.884 Q1919.67 187.518 1922.68 187.518 Q1926.73 187.518 1928.93 190.365 Q1931.13 193.189 1931.13 198.421 L1931.13 214.069 L1926.85 214.069 L1926.85 198.559 Q1926.85 194.833 1925.53 193.027 Q1924.21 191.222 1921.5 191.222 Q1918.19 191.222 1916.27 193.421 Q1914.35 195.62 1914.35 199.416 L1914.35 214.069 L1910.07 214.069 L1910.07 198.559 Q1910.07 194.809 1908.75 193.027 Q1907.43 191.222 1904.67 191.222 Q1901.41 191.222 1899.49 193.444 Q1897.57 195.643 1897.57 199.416 L1897.57 214.069 L1893.28 214.069 L1893.28 188.143 L1897.57 188.143 L1897.57 192.171 Q1899.02 189.786 1901.06 188.652 Q1903.1 187.518 1905.9 187.518 Q1908.72 187.518 1910.69 188.953 Q1912.68 190.388 1913.63 193.12 Z" fill="#000000" fill-rule="evenodd" fill-opacity="1" /><path clip-path="url(#clip150)" d="M1961.8 200.041 L1961.8 202.124 L1942.22 202.124 Q1942.5 206.522 1944.86 208.837 Q1947.24 211.129 1951.48 211.129 Q1953.93 211.129 1956.22 210.527 Q1958.54 209.925 1960.81 208.721 L1960.81 212.749 Q1958.52 213.721 1956.11 214.231 Q1953.7 214.74 1951.22 214.74 Q1945.02 214.74 1941.39 211.129 Q1937.77 207.518 1937.77 201.36 Q1937.77 194.995 1941.2 191.268 Q1944.65 187.518 1950.48 187.518 Q1955.71 187.518 1958.75 190.897 Q1961.8 194.254 1961.8 200.041 M1957.54 198.791 Q1957.5 195.296 1955.58 193.212 Q1953.68 191.129 1950.53 191.129 Q1946.96 191.129 1944.81 193.143 Q1942.68 195.157 1942.36 198.814 L1957.54 198.791 Z" fill="#000000" fill-rule="evenodd" fill-opacity="1" /><path clip-path="url(#clip150)" d="M1980.58 201.036 Q1975.41 201.036 1973.42 202.217 Q1971.43 203.397 1971.43 206.245 Q1971.43 208.513 1972.91 209.856 Q1974.42 211.175 1976.99 211.175 Q1980.53 211.175 1982.66 208.675 Q1984.81 206.152 1984.81 201.985 L1984.81 201.036 L1980.58 201.036 M1989.07 199.277 L1989.07 214.069 L1984.81 214.069 L1984.81 210.133 Q1983.35 212.495 1981.18 213.629 Q1979 214.74 1975.85 214.74 Q1971.87 214.74 1969.51 212.518 Q1967.17 210.272 1967.17 206.522 Q1967.17 202.147 1970.09 199.925 Q1973.03 197.703 1978.84 197.703 L1984.81 197.703 L1984.81 197.286 Q1984.81 194.347 1982.87 192.749 Q1980.95 191.129 1977.45 191.129 Q1975.23 191.129 1973.12 191.661 Q1971.01 192.194 1969.07 193.259 L1969.07 189.323 Q1971.41 188.421 1973.61 187.981 Q1975.81 187.518 1977.89 187.518 Q1983.51 187.518 1986.29 190.434 Q1989.07 193.351 1989.07 199.277 Z" fill="#000000" fill-rule="evenodd" fill-opacity="1" /><path clip-path="url(#clip150)" d="M2019.39 198.421 L2019.39 214.069 L2015.14 214.069 L2015.14 198.559 Q2015.14 194.879 2013.7 193.05 Q2012.26 191.222 2009.39 191.222 Q2005.95 191.222 2003.95 193.421 Q2001.96 195.62 2001.96 199.416 L2001.96 214.069 L1997.68 214.069 L1997.68 188.143 L2001.96 188.143 L2001.96 192.171 Q2003.49 189.833 2005.55 188.675 Q2007.64 187.518 2010.34 187.518 Q2014.81 187.518 2017.1 190.296 Q2019.39 193.05 2019.39 198.421 Z" fill="#000000" fill-rule="evenodd" fill-opacity="1" /><path clip-path="url(#clip150)" d="M2053.19 178.097 Q2050.09 183.421 2048.58 188.629 Q2047.08 193.837 2047.08 199.184 Q2047.08 204.532 2048.58 209.786 Q2050.11 215.018 2053.19 220.319 L2049.49 220.319 Q2046.01 214.879 2044.28 209.624 Q2042.57 204.37 2042.57 199.184 Q2042.57 194.022 2044.28 188.791 Q2045.99 183.56 2049.49 178.097 L2053.19 178.097 Z" fill="#000000" fill-rule="evenodd" fill-opacity="1" /><path clip-path="url(#clip150)" d="M2061.01 223.93 L2061.01 188.143 L2065.27 188.143 L2065.27 204.254 Q2065.27 207.61 2066.87 209.323 Q2068.47 211.036 2071.59 211.036 Q2075.02 211.036 2076.73 209.092 Q2078.47 207.147 2078.47 203.258 L2078.47 188.143 L2082.73 188.143 L2082.73 208.096 Q2082.73 209.485 2083.12 210.157 Q2083.54 210.805 2084.39 210.805 Q2084.6 210.805 2084.97 210.689 Q2085.34 210.55 2085.99 210.272 L2085.99 213.698 Q2085.04 214.231 2084.19 214.485 Q2083.35 214.74 2082.54 214.74 Q2080.94 214.74 2080 213.837 Q2079.05 212.934 2078.7 211.083 Q2077.54 212.911 2075.85 213.837 Q2074.19 214.74 2071.92 214.74 Q2069.56 214.74 2067.89 213.837 Q2066.25 212.934 2065.27 211.129 L2065.27 223.93 L2061.01 223.93 Z" fill="#000000" fill-rule="evenodd" fill-opacity="1" /><path clip-path="url(#clip150)" d="M2113.17 198.421 L2113.17 214.069 L2108.91 214.069 L2108.91 198.559 Q2108.91 194.879 2107.47 193.05 Q2106.04 191.222 2103.17 191.222 Q2099.72 191.222 2097.73 193.421 Q2095.74 195.62 2095.74 199.416 L2095.74 214.069 L2091.45 214.069 L2091.45 188.143 L2095.74 188.143 L2095.74 192.171 Q2097.26 189.833 2099.32 188.675 Q2101.41 187.518 2104.12 187.518 Q2108.58 187.518 2110.88 190.296 Q2113.17 193.05 2113.17 198.421 Z" fill="#000000" fill-rule="evenodd" fill-opacity="1" /><path clip-path="url(#clip150)" d="M2120.99 178.097 L2124.69 178.097 Q2128.17 183.56 2129.88 188.791 Q2131.62 194.022 2131.62 199.184 Q2131.62 204.37 2129.88 209.624 Q2128.17 214.879 2124.69 220.319 L2120.99 220.319 Q2124.07 215.018 2125.57 209.786 Q2127.1 204.532 2127.1 199.184 Q2127.1 193.837 2125.57 188.629 Q2124.07 183.421 2120.99 178.097 Z" fill="#000000" fill-rule="evenodd" fill-opacity="1" /><polyline clip-path="url(#clip150)" style="stroke:#3da44d; stroke-linecap:round; stroke-linejoin:round; stroke-width:4; stroke-opacity:1; fill:none" points="
  1498.24,248.629 1641.61,248.629 
  "/>
<path clip-path="url(#clip150)" d="M1670.18 235.191 L1670.18 248.177 L1676.06 248.177 Q1679.33 248.177 1681.11 246.487 Q1682.89 244.798 1682.89 241.673 Q1682.89 238.571 1681.11 236.881 Q1679.33 235.191 1676.06 235.191 L1670.18 235.191 M1665.51 231.349 L1676.06 231.349 Q1681.87 231.349 1684.84 233.987 Q1687.82 236.603 1687.82 241.673 Q1687.82 246.788 1684.84 249.404 Q1681.87 252.02 1676.06 252.02 L1670.18 252.02 L1670.18 265.909 L1665.51 265.909 L1665.51 231.349 Z" fill="#000000" fill-rule="evenodd" fill-opacity="1" /><path clip-path="url(#clip150)" d="M1702.27 242.969 Q1698.84 242.969 1696.85 245.654 Q1694.86 248.316 1694.86 252.969 Q1694.86 257.622 1696.83 260.307 Q1698.82 262.969 1702.27 262.969 Q1705.67 262.969 1707.66 260.284 Q1709.65 257.598 1709.65 252.969 Q1709.65 248.362 1707.66 245.677 Q1705.67 242.969 1702.27 242.969 M1702.27 239.358 Q1707.82 239.358 1710.99 242.969 Q1714.16 246.58 1714.16 252.969 Q1714.16 259.335 1710.99 262.969 Q1707.82 266.58 1702.27 266.58 Q1696.69 266.58 1693.52 262.969 Q1690.37 259.335 1690.37 252.969 Q1690.37 246.58 1693.52 242.969 Q1696.69 239.358 1702.27 239.358 Z" fill="#000000" fill-rule="evenodd" fill-opacity="1" /><path clip-path="url(#clip150)" d="M1731.27 242.969 Q1727.84 242.969 1725.85 245.654 Q1723.86 248.316 1723.86 252.969 Q1723.86 257.622 1725.83 260.307 Q1727.82 262.969 1731.27 262.969 Q1734.67 262.969 1736.66 260.284 Q1738.66 257.598 1738.66 252.969 Q1738.66 248.362 1736.66 245.677 Q1734.67 242.969 1731.27 242.969 M1731.27 239.358 Q1736.83 239.358 1740 242.969 Q1743.17 246.58 1743.17 252.969 Q1743.17 259.335 1740 262.969 Q1736.83 266.58 1731.27 266.58 Q1725.69 266.58 1722.52 262.969 Q1719.37 259.335 1719.37 252.969 Q1719.37 246.58 1722.52 242.969 Q1725.69 239.358 1731.27 239.358 Z" fill="#000000" fill-rule="evenodd" fill-opacity="1" /><path clip-path="url(#clip150)" d="M1750.23 229.89 L1754.49 229.89 L1754.49 265.909 L1750.23 265.909 L1750.23 229.89 Z" fill="#000000" fill-rule="evenodd" fill-opacity="1" /><path clip-path="url(#clip150)" d="M1785.58 251.881 L1785.58 253.964 L1765.99 253.964 Q1766.27 258.362 1768.63 260.677 Q1771.02 262.969 1775.25 262.969 Q1777.71 262.969 1780 262.367 Q1782.31 261.765 1784.58 260.561 L1784.58 264.589 Q1782.29 265.561 1779.88 266.071 Q1777.47 266.58 1775 266.58 Q1768.79 266.58 1765.16 262.969 Q1761.55 259.358 1761.55 253.2 Q1761.55 246.835 1764.97 243.108 Q1768.42 239.358 1774.26 239.358 Q1779.49 239.358 1782.52 242.737 Q1785.58 246.094 1785.58 251.881 M1781.32 250.631 Q1781.27 247.136 1779.35 245.052 Q1777.45 242.969 1774.3 242.969 Q1770.74 242.969 1768.59 244.983 Q1766.46 246.997 1766.13 250.654 L1781.32 250.631 Z" fill="#000000" fill-rule="evenodd" fill-opacity="1" /><path clip-path="url(#clip150)" d="M1809.63 243.918 L1809.63 229.89 L1813.89 229.89 L1813.89 265.909 L1809.63 265.909 L1809.63 262.02 Q1808.28 264.335 1806.22 265.469 Q1804.19 266.58 1801.32 266.58 Q1796.62 266.58 1793.65 262.83 Q1790.72 259.08 1790.72 252.969 Q1790.72 246.858 1793.65 243.108 Q1796.62 239.358 1801.32 239.358 Q1804.19 239.358 1806.22 240.492 Q1808.28 241.603 1809.63 243.918 M1795.11 252.969 Q1795.11 257.668 1797.03 260.353 Q1798.98 263.015 1802.36 263.015 Q1805.74 263.015 1807.68 260.353 Q1809.63 257.668 1809.63 252.969 Q1809.63 248.27 1807.68 245.608 Q1805.74 242.923 1802.36 242.923 Q1798.98 242.923 1797.03 245.608 Q1795.11 248.27 1795.11 252.969 Z" fill="#000000" fill-rule="evenodd" fill-opacity="1" /><path clip-path="url(#clip150)" d="M1854.26 240.747 L1854.26 244.774 Q1852.45 243.849 1850.51 243.386 Q1848.56 242.923 1846.48 242.923 Q1843.31 242.923 1841.71 243.895 Q1840.14 244.867 1840.14 246.811 Q1840.14 248.293 1841.27 249.149 Q1842.4 249.983 1845.83 250.747 L1847.29 251.071 Q1851.83 252.043 1853.72 253.825 Q1855.65 255.585 1855.65 258.756 Q1855.65 262.367 1852.77 264.473 Q1849.93 266.58 1844.93 266.58 Q1842.84 266.58 1840.58 266.163 Q1838.33 265.77 1835.83 264.96 L1835.83 260.561 Q1838.19 261.788 1840.48 262.413 Q1842.77 263.015 1845.02 263.015 Q1848.03 263.015 1849.65 261.997 Q1851.27 260.955 1851.27 259.08 Q1851.27 257.344 1850.09 256.418 Q1848.93 255.492 1844.97 254.636 L1843.49 254.288 Q1839.53 253.455 1837.77 251.742 Q1836.02 250.006 1836.02 246.997 Q1836.02 243.339 1838.61 241.349 Q1841.2 239.358 1845.97 239.358 Q1848.33 239.358 1850.41 239.705 Q1852.5 240.052 1854.26 240.747 Z" fill="#000000" fill-rule="evenodd" fill-opacity="1" /><path clip-path="url(#clip150)" d="M1874.21 252.876 Q1869.05 252.876 1867.06 254.057 Q1865.07 255.237 1865.07 258.085 Q1865.07 260.353 1866.55 261.696 Q1868.05 263.015 1870.62 263.015 Q1874.16 263.015 1876.29 260.515 Q1878.45 257.992 1878.45 253.825 L1878.45 252.876 L1874.21 252.876 M1882.71 251.117 L1882.71 265.909 L1878.45 265.909 L1878.45 261.973 Q1876.99 264.335 1874.81 265.469 Q1872.64 266.58 1869.49 266.58 Q1865.51 266.58 1863.15 264.358 Q1860.81 262.112 1860.81 258.362 Q1860.81 253.987 1863.72 251.765 Q1866.66 249.543 1872.47 249.543 L1878.45 249.543 L1878.45 249.126 Q1878.45 246.187 1876.5 244.589 Q1874.58 242.969 1871.08 242.969 Q1868.86 242.969 1866.76 243.501 Q1864.65 244.034 1862.71 245.099 L1862.71 241.163 Q1865.04 240.261 1867.24 239.821 Q1869.44 239.358 1871.52 239.358 Q1877.15 239.358 1879.93 242.274 Q1882.71 245.191 1882.71 251.117 Z" fill="#000000" fill-rule="evenodd" fill-opacity="1" /><path clip-path="url(#clip150)" d="M1911.66 244.96 Q1913.26 242.089 1915.48 240.724 Q1917.71 239.358 1920.71 239.358 Q1924.77 239.358 1926.96 242.205 Q1929.16 245.029 1929.16 250.261 L1929.16 265.909 L1924.88 265.909 L1924.88 250.399 Q1924.88 246.673 1923.56 244.867 Q1922.24 243.062 1919.53 243.062 Q1916.22 243.062 1914.3 245.261 Q1912.38 247.46 1912.38 251.256 L1912.38 265.909 L1908.1 265.909 L1908.1 250.399 Q1908.1 246.649 1906.78 244.867 Q1905.46 243.062 1902.71 243.062 Q1899.44 243.062 1897.52 245.284 Q1895.6 247.483 1895.6 251.256 L1895.6 265.909 L1891.32 265.909 L1891.32 239.983 L1895.6 239.983 L1895.6 244.011 Q1897.06 241.626 1899.09 240.492 Q1901.13 239.358 1903.93 239.358 Q1906.76 239.358 1908.72 240.793 Q1910.71 242.228 1911.66 244.96 Z" fill="#000000" fill-rule="evenodd" fill-opacity="1" /><path clip-path="url(#clip150)" d="M1941.78 262.02 L1941.78 275.77 L1937.5 275.77 L1937.5 239.983 L1941.78 239.983 L1941.78 243.918 Q1943.12 241.603 1945.16 240.492 Q1947.22 239.358 1950.07 239.358 Q1954.79 239.358 1957.73 243.108 Q1960.69 246.858 1960.69 252.969 Q1960.69 259.08 1957.73 262.83 Q1954.79 266.58 1950.07 266.58 Q1947.22 266.58 1945.16 265.469 Q1943.12 264.335 1941.78 262.02 M1956.27 252.969 Q1956.27 248.27 1954.33 245.608 Q1952.4 242.923 1949.02 242.923 Q1945.64 242.923 1943.7 245.608 Q1941.78 248.27 1941.78 252.969 Q1941.78 257.668 1943.7 260.353 Q1945.64 263.015 1949.02 263.015 Q1952.4 263.015 1954.33 260.353 Q1956.27 257.668 1956.27 252.969 Z" fill="#000000" fill-rule="evenodd" fill-opacity="1" /><path clip-path="url(#clip150)" d="M1967.75 229.89 L1972.01 229.89 L1972.01 265.909 L1967.75 265.909 L1967.75 229.89 Z" fill="#000000" fill-rule="evenodd" fill-opacity="1" /><path clip-path="url(#clip150)" d="M2003.1 251.881 L2003.1 253.964 L1983.51 253.964 Q1983.79 258.362 1986.15 260.677 Q1988.54 262.969 1992.77 262.969 Q1995.23 262.969 1997.52 262.367 Q1999.83 261.765 2002.1 260.561 L2002.1 264.589 Q1999.81 265.561 1997.4 266.071 Q1995 266.58 1992.52 266.58 Q1986.32 266.58 1982.68 262.969 Q1979.07 259.358 1979.07 253.2 Q1979.07 246.835 1982.5 243.108 Q1985.95 239.358 1991.78 239.358 Q1997.01 239.358 2000.04 242.737 Q2003.1 246.094 2003.1 251.881 M1998.84 250.631 Q1998.79 247.136 1996.87 245.052 Q1994.97 242.969 1991.83 242.969 Q1988.26 242.969 1986.11 244.983 Q1983.98 246.997 1983.65 250.654 L1998.84 250.631 Z" fill="#000000" fill-rule="evenodd" fill-opacity="1" /><path clip-path="url(#clip150)" d="M2045.34 244.96 Q2046.94 242.089 2049.16 240.724 Q2051.38 239.358 2054.39 239.358 Q2058.45 239.358 2060.64 242.205 Q2062.84 245.029 2062.84 250.261 L2062.84 265.909 L2058.56 265.909 L2058.56 250.399 Q2058.56 246.673 2057.24 244.867 Q2055.92 243.062 2053.21 243.062 Q2049.9 243.062 2047.98 245.261 Q2046.06 247.46 2046.06 251.256 L2046.06 265.909 L2041.78 265.909 L2041.78 250.399 Q2041.78 246.649 2040.46 244.867 Q2039.14 243.062 2036.39 243.062 Q2033.12 243.062 2031.2 245.284 Q2029.28 247.483 2029.28 251.256 L2029.28 265.909 L2025 265.909 L2025 239.983 L2029.28 239.983 L2029.28 244.011 Q2030.74 241.626 2032.77 240.492 Q2034.81 239.358 2037.61 239.358 Q2040.44 239.358 2042.4 240.793 Q2044.39 242.228 2045.34 244.96 Z" fill="#000000" fill-rule="evenodd" fill-opacity="1" /><path clip-path="url(#clip150)" d="M2093.51 251.881 L2093.51 253.964 L2073.93 253.964 Q2074.21 258.362 2076.57 260.677 Q2078.95 262.969 2083.19 262.969 Q2085.64 262.969 2087.94 262.367 Q2090.25 261.765 2092.52 260.561 L2092.52 264.589 Q2090.23 265.561 2087.82 266.071 Q2085.41 266.58 2082.94 266.58 Q2076.73 266.58 2073.1 262.969 Q2069.49 259.358 2069.49 253.2 Q2069.49 246.835 2072.91 243.108 Q2076.36 239.358 2082.19 239.358 Q2087.43 239.358 2090.46 242.737 Q2093.51 246.094 2093.51 251.881 M2089.26 250.631 Q2089.21 247.136 2087.29 245.052 Q2085.39 242.969 2082.24 242.969 Q2078.68 242.969 2076.52 244.983 Q2074.39 246.997 2074.07 250.654 L2089.26 250.631 Z" fill="#000000" fill-rule="evenodd" fill-opacity="1" /><path clip-path="url(#clip150)" d="M2112.29 252.876 Q2107.13 252.876 2105.13 254.057 Q2103.14 255.237 2103.14 258.085 Q2103.14 260.353 2104.63 261.696 Q2106.13 263.015 2108.7 263.015 Q2112.24 263.015 2114.37 260.515 Q2116.52 257.992 2116.52 253.825 L2116.52 252.876 L2112.29 252.876 M2120.78 251.117 L2120.78 265.909 L2116.52 265.909 L2116.52 261.973 Q2115.07 264.335 2112.89 265.469 Q2110.71 266.58 2107.57 266.58 Q2103.58 266.58 2101.22 264.358 Q2098.88 262.112 2098.88 258.362 Q2098.88 253.987 2101.8 251.765 Q2104.74 249.543 2110.55 249.543 L2116.52 249.543 L2116.52 249.126 Q2116.52 246.187 2114.58 244.589 Q2112.66 242.969 2109.16 242.969 Q2106.94 242.969 2104.83 243.501 Q2102.73 244.034 2100.78 245.099 L2100.78 241.163 Q2103.12 240.261 2105.32 239.821 Q2107.52 239.358 2109.6 239.358 Q2115.23 239.358 2118 242.274 Q2120.78 245.191 2120.78 251.117 Z" fill="#000000" fill-rule="evenodd" fill-opacity="1" /><path clip-path="url(#clip150)" d="M2151.11 250.261 L2151.11 265.909 L2146.85 265.909 L2146.85 250.399 Q2146.85 246.719 2145.41 244.89 Q2143.98 243.062 2141.11 243.062 Q2137.66 243.062 2135.67 245.261 Q2133.68 247.46 2133.68 251.256 L2133.68 265.909 L2129.39 265.909 L2129.39 239.983 L2133.68 239.983 L2133.68 244.011 Q2135.2 241.673 2137.26 240.515 Q2139.35 239.358 2142.06 239.358 Q2146.52 239.358 2148.81 242.136 Q2151.11 244.89 2151.11 250.261 Z" fill="#000000" fill-rule="evenodd" fill-opacity="1" /><path clip-path="url(#clip150)" d="M2184.9 229.937 Q2181.8 235.261 2180.3 240.469 Q2178.79 245.677 2178.79 251.024 Q2178.79 256.372 2180.3 261.626 Q2181.82 266.858 2184.9 272.159 L2181.2 272.159 Q2177.73 266.719 2175.99 261.464 Q2174.28 256.21 2174.28 251.024 Q2174.28 245.862 2175.99 240.631 Q2177.7 235.4 2181.2 229.937 L2184.9 229.937 Z" fill="#000000" fill-rule="evenodd" fill-opacity="1" /><path clip-path="url(#clip150)" d="M2192.73 275.77 L2192.73 239.983 L2196.99 239.983 L2196.99 256.094 Q2196.99 259.45 2198.58 261.163 Q2200.18 262.876 2203.31 262.876 Q2206.73 262.876 2208.44 260.932 Q2210.18 258.987 2210.18 255.098 L2210.18 239.983 L2214.44 239.983 L2214.44 259.936 Q2214.44 261.325 2214.83 261.997 Q2215.25 262.645 2216.11 262.645 Q2216.31 262.645 2216.68 262.529 Q2217.06 262.39 2217.7 262.112 L2217.7 265.538 Q2216.75 266.071 2215.9 266.325 Q2215.06 266.58 2214.25 266.58 Q2212.66 266.58 2211.71 265.677 Q2210.76 264.774 2210.41 262.923 Q2209.25 264.751 2207.56 265.677 Q2205.9 266.58 2203.63 266.58 Q2201.27 266.58 2199.6 265.677 Q2197.96 264.774 2196.99 262.969 L2196.99 275.77 L2192.73 275.77 Z" fill="#000000" fill-rule="evenodd" fill-opacity="1" /><path clip-path="url(#clip150)" d="M2222.66 229.937 L2226.36 229.937 Q2229.83 235.4 2231.55 240.631 Q2233.28 245.862 2233.28 251.024 Q2233.28 256.21 2231.55 261.464 Q2229.83 266.719 2226.36 272.159 L2222.66 272.159 Q2225.74 266.858 2227.24 261.626 Q2228.77 256.372 2228.77 251.024 Q2228.77 245.677 2227.24 240.469 Q2225.74 235.261 2222.66 229.937 Z" fill="#000000" fill-rule="evenodd" fill-opacity="1" /></svg>
