<?xml version="1.0" encoding="utf-8"?>
<svg xmlns="http://www.w3.org/2000/svg" xmlns:xlink="http://www.w3.org/1999/xlink" width="600" height="400" viewBox="0 0 2400 1600">
<defs>
  <clipPath id="clip110">
    <rect x="0" y="0" width="2400" height="1600"/>
  </clipPath>
</defs>
<path clip-path="url(#clip110)" d="
M0 1600 L2400 1600 L2400 0 L0 0  Z
  " fill="#ffffff" fill-rule="evenodd" fill-opacity="1"/>
<defs>
  <clipPath id="clip111">
    <rect x="480" y="0" width="1681" height="1600"/>
  </clipPath>
</defs>
<path clip-path="url(#clip110)" d="
M175.445 1423.18 L2352.76 1423.18 L2352.76 47.2441 L175.445 47.2441  Z
  " fill="#ffffff" fill-rule="evenodd" fill-opacity="1"/>
<defs>
  <clipPath id="clip112">
    <rect x="175" y="47" width="2178" height="1377"/>
  </clipPath>
</defs>
<polyline clip-path="url(#clip112)" style="stroke:#000000; stroke-linecap:round; stroke-linejoin:round; stroke-width:2; stroke-opacity:0.1; fill:none" points="
  583.034,1423.18 583.034,47.2441 
  "/>
<polyline clip-path="url(#clip112)" style="stroke:#000000; stroke-linecap:round; stroke-linejoin:round; stroke-width:2; stroke-opacity:0.1; fill:none" points="
  991.872,1423.18 991.872,47.2441 
  "/>
<polyline clip-path="url(#clip112)" style="stroke:#000000; stroke-linecap:round; stroke-linejoin:round; stroke-width:2; stroke-opacity:0.1; fill:none" points="
  1400.71,1423.18 1400.71,47.2441 
  "/>
<polyline clip-path="url(#clip112)" style="stroke:#000000; stroke-linecap:round; stroke-linejoin:round; stroke-width:2; stroke-opacity:0.1; fill:none" points="
  1809.55,1423.18 1809.55,47.2441 
  "/>
<polyline clip-path="url(#clip112)" style="stroke:#000000; stroke-linecap:round; stroke-linejoin:round; stroke-width:2; stroke-opacity:0.1; fill:none" points="
  2218.39,1423.18 2218.39,47.2441 
  "/>
<polyline clip-path="url(#clip110)" style="stroke:#000000; stroke-linecap:round; stroke-linejoin:round; stroke-width:4; stroke-opacity:1; fill:none" points="
  175.445,1423.18 2352.76,1423.18 
  "/>
<polyline clip-path="url(#clip110)" style="stroke:#000000; stroke-linecap:round; stroke-linejoin:round; stroke-width:4; stroke-opacity:1; fill:none" points="
  583.034,1423.18 583.034,1404.28 
  "/>
<polyline clip-path="url(#clip110)" style="stroke:#000000; stroke-linecap:round; stroke-linejoin:round; stroke-width:4; stroke-opacity:1; fill:none" points="
  991.872,1423.18 991.872,1404.28 
  "/>
<polyline clip-path="url(#clip110)" style="stroke:#000000; stroke-linecap:round; stroke-linejoin:round; stroke-width:4; stroke-opacity:1; fill:none" points="
  1400.71,1423.18 1400.71,1404.28 
  "/>
<polyline clip-path="url(#clip110)" style="stroke:#000000; stroke-linecap:round; stroke-linejoin:round; stroke-width:4; stroke-opacity:1; fill:none" points="
  1809.55,1423.18 1809.55,1404.28 
  "/>
<polyline clip-path="url(#clip110)" style="stroke:#000000; stroke-linecap:round; stroke-linejoin:round; stroke-width:4; stroke-opacity:1; fill:none" points="
  2218.39,1423.18 2218.39,1404.28 
  "/>
<path clip-path="url(#clip110)" d="M560.419 1454.1 Q556.808 1454.1 554.979 1457.66 Q553.173 1461.2 553.173 1468.33 Q553.173 1475.44 554.979 1479.01 Q556.808 1482.55 560.419 1482.55 Q564.053 1482.55 565.858 1479.01 Q567.687 1475.44 567.687 1468.33 Q567.687 1461.2 565.858 1457.66 Q564.053 1454.1 560.419 1454.1 M560.419 1450.39 Q566.229 1450.39 569.284 1455 Q572.363 1459.58 572.363 1468.33 Q572.363 1477.06 569.284 1481.67 Q566.229 1486.25 560.419 1486.25 Q554.609 1486.25 551.53 1481.67 Q548.474 1477.06 548.474 1468.33 Q548.474 1459.58 551.53 1455 Q554.609 1450.39 560.419 1450.39 Z" fill="#000000" fill-rule="evenodd" fill-opacity="1" /><path clip-path="url(#clip110)" d="M580.581 1479.7 L585.465 1479.7 L585.465 1485.58 L580.581 1485.58 L580.581 1479.7 Z" fill="#000000" fill-rule="evenodd" fill-opacity="1" /><path clip-path="url(#clip110)" d="M605.65 1454.1 Q602.039 1454.1 600.21 1457.66 Q598.405 1461.2 598.405 1468.33 Q598.405 1475.44 600.21 1479.01 Q602.039 1482.55 605.65 1482.55 Q609.284 1482.55 611.09 1479.01 Q612.918 1475.44 612.918 1468.33 Q612.918 1461.2 611.09 1457.66 Q609.284 1454.1 605.65 1454.1 M605.65 1450.39 Q611.46 1450.39 614.516 1455 Q617.594 1459.58 617.594 1468.33 Q617.594 1477.06 614.516 1481.67 Q611.46 1486.25 605.65 1486.25 Q599.84 1486.25 596.761 1481.67 Q593.706 1477.06 593.706 1468.33 Q593.706 1459.58 596.761 1455 Q599.84 1450.39 605.65 1450.39 Z" fill="#000000" fill-rule="evenodd" fill-opacity="1" /><path clip-path="url(#clip110)" d="M969.581 1454.1 Q965.97 1454.1 964.141 1457.66 Q962.335 1461.2 962.335 1468.33 Q962.335 1475.44 964.141 1479.01 Q965.97 1482.55 969.581 1482.55 Q973.215 1482.55 975.02 1479.01 Q976.849 1475.44 976.849 1468.33 Q976.849 1461.2 975.02 1457.66 Q973.215 1454.1 969.581 1454.1 M969.581 1450.39 Q975.391 1450.39 978.446 1455 Q981.525 1459.58 981.525 1468.33 Q981.525 1477.06 978.446 1481.67 Q975.391 1486.25 969.581 1486.25 Q963.77 1486.25 960.692 1481.67 Q957.636 1477.06 957.636 1468.33 Q957.636 1459.58 960.692 1455 Q963.77 1450.39 969.581 1450.39 Z" fill="#000000" fill-rule="evenodd" fill-opacity="1" /><path clip-path="url(#clip110)" d="M989.743 1479.7 L994.627 1479.7 L994.627 1485.58 L989.743 1485.58 L989.743 1479.7 Z" fill="#000000" fill-rule="evenodd" fill-opacity="1" /><path clip-path="url(#clip110)" d="M1018.98 1466.95 Q1022.33 1467.66 1024.21 1469.93 Q1026.11 1472.2 1026.11 1475.53 Q1026.11 1480.65 1022.59 1483.45 Q1019.07 1486.25 1012.59 1486.25 Q1010.41 1486.25 1008.1 1485.81 Q1005.81 1485.39 1003.35 1484.54 L1003.35 1480.02 Q1005.3 1481.16 1007.61 1481.74 Q1009.93 1482.32 1012.45 1482.32 Q1016.85 1482.32 1019.14 1480.58 Q1021.46 1478.84 1021.46 1475.53 Q1021.46 1472.48 1019.3 1470.77 Q1017.17 1469.03 1013.35 1469.03 L1009.33 1469.03 L1009.33 1465.19 L1013.54 1465.19 Q1016.99 1465.19 1018.82 1463.82 Q1020.65 1462.43 1020.65 1459.84 Q1020.65 1457.18 1018.75 1455.77 Q1016.87 1454.33 1013.35 1454.33 Q1011.43 1454.33 1009.23 1454.75 Q1007.03 1455.16 1004.4 1456.04 L1004.4 1451.88 Q1007.06 1451.14 1009.37 1450.77 Q1011.71 1450.39 1013.77 1450.39 Q1019.09 1450.39 1022.2 1452.83 Q1025.3 1455.23 1025.3 1459.35 Q1025.3 1462.22 1023.65 1464.21 Q1022.01 1466.18 1018.98 1466.95 Z" fill="#000000" fill-rule="evenodd" fill-opacity="1" /><path clip-path="url(#clip110)" d="M1378.01 1454.1 Q1374.4 1454.1 1372.57 1457.66 Q1370.77 1461.2 1370.77 1468.33 Q1370.77 1475.44 1372.57 1479.01 Q1374.4 1482.55 1378.01 1482.55 Q1381.65 1482.55 1383.45 1479.01 Q1385.28 1475.44 1385.28 1468.33 Q1385.28 1461.2 1383.45 1457.66 Q1381.65 1454.1 1378.01 1454.1 M1378.01 1450.39 Q1383.82 1450.39 1386.88 1455 Q1389.96 1459.58 1389.96 1468.33 Q1389.96 1477.06 1386.88 1481.67 Q1383.82 1486.25 1378.01 1486.25 Q1372.2 1486.25 1369.12 1481.67 Q1366.07 1477.06 1366.07 1468.33 Q1366.07 1459.58 1369.12 1455 Q1372.2 1450.39 1378.01 1450.39 Z" fill="#000000" fill-rule="evenodd" fill-opacity="1" /><path clip-path="url(#clip110)" d="M1398.18 1479.7 L1403.06 1479.7 L1403.06 1485.58 L1398.18 1485.58 L1398.18 1479.7 Z" fill="#000000" fill-rule="evenodd" fill-opacity="1" /><path clip-path="url(#clip110)" d="M1423.82 1466.44 Q1420.68 1466.44 1418.82 1468.59 Q1416.99 1470.74 1416.99 1474.49 Q1416.99 1478.22 1418.82 1480.39 Q1420.68 1482.55 1423.82 1482.55 Q1426.97 1482.55 1428.8 1480.39 Q1430.65 1478.22 1430.65 1474.49 Q1430.65 1470.74 1428.8 1468.59 Q1426.97 1466.44 1423.82 1466.44 M1433.11 1451.78 L1433.11 1456.04 Q1431.35 1455.21 1429.54 1454.77 Q1427.76 1454.33 1426 1454.33 Q1421.37 1454.33 1418.92 1457.45 Q1416.49 1460.58 1416.14 1466.9 Q1417.5 1464.89 1419.56 1463.82 Q1421.62 1462.73 1424.1 1462.73 Q1429.31 1462.73 1432.32 1465.9 Q1435.35 1469.05 1435.35 1474.49 Q1435.35 1479.82 1432.2 1483.03 Q1429.05 1486.25 1423.82 1486.25 Q1417.83 1486.25 1414.66 1481.67 Q1411.49 1477.06 1411.49 1468.33 Q1411.49 1460.14 1415.37 1455.28 Q1419.26 1450.39 1425.81 1450.39 Q1427.57 1450.39 1429.36 1450.74 Q1431.16 1451.09 1433.11 1451.78 Z" fill="#000000" fill-rule="evenodd" fill-opacity="1" /><path clip-path="url(#clip110)" d="M1787.02 1454.1 Q1783.41 1454.1 1781.59 1457.66 Q1779.78 1461.2 1779.78 1468.33 Q1779.78 1475.44 1781.59 1479.01 Q1783.41 1482.55 1787.02 1482.55 Q1790.66 1482.55 1792.46 1479.01 Q1794.29 1475.44 1794.29 1468.33 Q1794.29 1461.2 1792.46 1457.66 Q1790.66 1454.1 1787.02 1454.1 M1787.02 1450.39 Q1792.84 1450.39 1795.89 1455 Q1798.97 1459.58 1798.97 1468.33 Q1798.97 1477.06 1795.89 1481.67 Q1792.84 1486.25 1787.02 1486.25 Q1781.21 1486.25 1778.14 1481.67 Q1775.08 1477.06 1775.08 1468.33 Q1775.08 1459.58 1778.14 1455 Q1781.21 1450.39 1787.02 1450.39 Z" fill="#000000" fill-rule="evenodd" fill-opacity="1" /><path clip-path="url(#clip110)" d="M1807.19 1479.7 L1812.07 1479.7 L1812.07 1485.58 L1807.19 1485.58 L1807.19 1479.7 Z" fill="#000000" fill-rule="evenodd" fill-opacity="1" /><path clip-path="url(#clip110)" d="M1822.4 1484.86 L1822.4 1480.6 Q1824.15 1481.44 1825.96 1481.88 Q1827.77 1482.32 1829.5 1482.32 Q1834.13 1482.32 1836.56 1479.21 Q1839.02 1476.09 1839.36 1469.75 Q1838.02 1471.74 1835.96 1472.8 Q1833.9 1473.87 1831.4 1473.87 Q1826.21 1473.87 1823.18 1470.74 Q1820.17 1467.59 1820.17 1462.15 Q1820.17 1456.83 1823.32 1453.61 Q1826.47 1450.39 1831.7 1450.39 Q1837.7 1450.39 1840.84 1455 Q1844.02 1459.58 1844.02 1468.33 Q1844.02 1476.51 1840.13 1481.39 Q1836.26 1486.25 1829.71 1486.25 Q1827.95 1486.25 1826.15 1485.9 Q1824.34 1485.56 1822.4 1484.86 M1831.7 1470.21 Q1834.85 1470.21 1836.68 1468.06 Q1838.53 1465.9 1838.53 1462.15 Q1838.53 1458.43 1836.68 1456.27 Q1834.85 1454.1 1831.7 1454.1 Q1828.55 1454.1 1826.7 1456.27 Q1824.87 1458.43 1824.87 1462.15 Q1824.87 1465.9 1826.7 1468.06 Q1828.55 1470.21 1831.7 1470.21 Z" fill="#000000" fill-rule="evenodd" fill-opacity="1" /><path clip-path="url(#clip110)" d="M2186.34 1481.64 L2193.98 1481.64 L2193.98 1455.28 L2185.67 1456.95 L2185.67 1452.69 L2193.93 1451.02 L2198.61 1451.02 L2198.61 1481.64 L2206.24 1481.64 L2206.24 1485.58 L2186.34 1485.58 L2186.34 1481.64 Z" fill="#000000" fill-rule="evenodd" fill-opacity="1" /><path clip-path="url(#clip110)" d="M2215.69 1479.7 L2220.57 1479.7 L2220.57 1485.58 L2215.69 1485.58 L2215.69 1479.7 Z" fill="#000000" fill-rule="evenodd" fill-opacity="1" /><path clip-path="url(#clip110)" d="M2234.79 1481.64 L2251.11 1481.64 L2251.11 1485.58 L2229.16 1485.58 L2229.16 1481.64 Q2231.82 1478.89 2236.41 1474.26 Q2241.01 1469.61 2242.19 1468.27 Q2244.44 1465.74 2245.32 1464.01 Q2246.22 1462.25 2246.22 1460.56 Q2246.22 1457.8 2244.28 1456.07 Q2242.36 1454.33 2239.25 1454.33 Q2237.05 1454.33 2234.6 1455.09 Q2232.17 1455.86 2229.39 1457.41 L2229.39 1452.69 Q2232.22 1451.55 2234.67 1450.97 Q2237.12 1450.39 2239.16 1450.39 Q2244.53 1450.39 2247.73 1453.08 Q2250.92 1455.77 2250.92 1460.26 Q2250.92 1462.39 2250.11 1464.31 Q2249.32 1466.2 2247.22 1468.8 Q2246.64 1469.47 2243.54 1472.69 Q2240.43 1475.88 2234.79 1481.64 Z" fill="#000000" fill-rule="evenodd" fill-opacity="1" /><path clip-path="url(#clip110)" d="M1268.13 1545.76 Q1270.2 1546.46 1272.14 1548.76 Q1274.11 1551.05 1276.08 1555.06 L1282.61 1568.04 L1275.7 1568.04 L1269.62 1555.85 Q1267.27 1551.08 1265.04 1549.52 Q1262.84 1547.96 1259.02 1547.96 L1252.02 1547.96 L1252.02 1568.04 L1245.59 1568.04 L1245.59 1520.52 L1260.11 1520.52 Q1268.25 1520.52 1272.26 1523.93 Q1276.27 1527.34 1276.27 1534.21 Q1276.27 1538.7 1274.17 1541.66 Q1272.11 1544.62 1268.13 1545.76 M1252.02 1525.81 L1252.02 1542.68 L1260.11 1542.68 Q1264.75 1542.68 1267.11 1540.54 Q1269.5 1538.38 1269.5 1534.21 Q1269.5 1530.04 1267.11 1527.94 Q1264.75 1525.81 1260.11 1525.81 L1252.02 1525.81 Z" fill="#000000" fill-rule="evenodd" fill-opacity="1" /><polyline clip-path="url(#clip112)" style="stroke:#000000; stroke-linecap:round; stroke-linejoin:round; stroke-width:2; stroke-opacity:0.1; fill:none" points="
  175.445,1384.24 2352.76,1384.24 
  "/>
<polyline clip-path="url(#clip112)" style="stroke:#000000; stroke-linecap:round; stroke-linejoin:round; stroke-width:2; stroke-opacity:0.1; fill:none" points="
  175.445,1098.61 2352.76,1098.61 
  "/>
<polyline clip-path="url(#clip112)" style="stroke:#000000; stroke-linecap:round; stroke-linejoin:round; stroke-width:2; stroke-opacity:0.1; fill:none" points="
  175.445,812.988 2352.76,812.988 
  "/>
<polyline clip-path="url(#clip112)" style="stroke:#000000; stroke-linecap:round; stroke-linejoin:round; stroke-width:2; stroke-opacity:0.1; fill:none" points="
  175.445,527.362 2352.76,527.362 
  "/>
<polyline clip-path="url(#clip112)" style="stroke:#000000; stroke-linecap:round; stroke-linejoin:round; stroke-width:2; stroke-opacity:0.1; fill:none" points="
  175.445,241.736 2352.76,241.736 
  "/>
<polyline clip-path="url(#clip110)" style="stroke:#000000; stroke-linecap:round; stroke-linejoin:round; stroke-width:4; stroke-opacity:1; fill:none" points="
  175.445,1423.18 175.445,47.2441 
  "/>
<polyline clip-path="url(#clip110)" style="stroke:#000000; stroke-linecap:round; stroke-linejoin:round; stroke-width:4; stroke-opacity:1; fill:none" points="
  175.445,1384.24 194.343,1384.24 
  "/>
<polyline clip-path="url(#clip110)" style="stroke:#000000; stroke-linecap:round; stroke-linejoin:round; stroke-width:4; stroke-opacity:1; fill:none" points="
  175.445,1098.61 194.343,1098.61 
  "/>
<polyline clip-path="url(#clip110)" style="stroke:#000000; stroke-linecap:round; stroke-linejoin:round; stroke-width:4; stroke-opacity:1; fill:none" points="
  175.445,812.988 194.343,812.988 
  "/>
<polyline clip-path="url(#clip110)" style="stroke:#000000; stroke-linecap:round; stroke-linejoin:round; stroke-width:4; stroke-opacity:1; fill:none" points="
  175.445,527.362 194.343,527.362 
  "/>
<polyline clip-path="url(#clip110)" style="stroke:#000000; stroke-linecap:round; stroke-linejoin:round; stroke-width:4; stroke-opacity:1; fill:none" points="
  175.445,241.736 194.343,241.736 
  "/>
<path clip-path="url(#clip110)" d="M127.501 1370.04 Q123.89 1370.04 122.061 1373.6 Q120.255 1377.14 120.255 1384.27 Q120.255 1391.38 122.061 1394.95 Q123.89 1398.49 127.501 1398.49 Q131.135 1398.49 132.941 1394.95 Q134.769 1391.38 134.769 1384.27 Q134.769 1377.14 132.941 1373.6 Q131.135 1370.04 127.501 1370.04 M127.501 1366.33 Q133.311 1366.33 136.367 1370.94 Q139.445 1375.52 139.445 1384.27 Q139.445 1393 136.367 1397.61 Q133.311 1402.19 127.501 1402.19 Q121.691 1402.19 118.612 1397.61 Q115.556 1393 115.556 1384.27 Q115.556 1375.52 118.612 1370.94 Q121.691 1366.33 127.501 1366.33 Z" fill="#000000" fill-rule="evenodd" fill-opacity="1" /><path clip-path="url(#clip110)" d="M119.538 1111.96 L127.177 1111.96 L127.177 1085.59 L118.867 1087.26 L118.867 1083 L127.13 1081.33 L131.806 1081.33 L131.806 1111.96 L139.445 1111.96 L139.445 1115.89 L119.538 1115.89 L119.538 1111.96 Z" fill="#000000" fill-rule="evenodd" fill-opacity="1" /><path clip-path="url(#clip110)" d="M123.126 826.333 L139.445 826.333 L139.445 830.268 L117.501 830.268 L117.501 826.333 Q120.163 823.578 124.746 818.948 Q129.353 814.296 130.533 812.953 Q132.779 810.43 133.658 808.694 Q134.561 806.935 134.561 805.245 Q134.561 802.49 132.617 800.754 Q130.695 799.018 127.593 799.018 Q125.394 799.018 122.941 799.782 Q120.51 800.546 117.732 802.097 L117.732 797.374 Q120.556 796.24 123.01 795.661 Q125.464 795.083 127.501 795.083 Q132.871 795.083 136.066 797.768 Q139.26 800.453 139.26 804.944 Q139.26 807.073 138.45 808.995 Q137.663 810.893 135.556 813.485 Q134.978 814.157 131.876 817.374 Q128.774 820.569 123.126 826.333 Z" fill="#000000" fill-rule="evenodd" fill-opacity="1" /><path clip-path="url(#clip110)" d="M132.316 526.008 Q135.672 526.726 137.547 528.994 Q139.445 531.263 139.445 534.596 Q139.445 539.712 135.927 542.512 Q132.408 545.313 125.927 545.313 Q123.751 545.313 121.436 544.874 Q119.144 544.457 116.691 543.6 L116.691 539.087 Q118.635 540.221 120.95 540.8 Q123.265 541.378 125.788 541.378 Q130.186 541.378 132.478 539.642 Q134.792 537.906 134.792 534.596 Q134.792 531.54 132.64 529.827 Q130.51 528.091 126.691 528.091 L122.663 528.091 L122.663 524.249 L126.876 524.249 Q130.325 524.249 132.154 522.883 Q133.982 521.494 133.982 518.902 Q133.982 516.239 132.084 514.827 Q130.209 513.392 126.691 513.392 Q124.769 513.392 122.57 513.809 Q120.371 514.226 117.732 515.105 L117.732 510.939 Q120.394 510.198 122.709 509.827 Q125.047 509.457 127.107 509.457 Q132.431 509.457 135.533 511.888 Q138.635 514.295 138.635 518.415 Q138.635 521.286 136.992 523.276 Q135.348 525.244 132.316 526.008 Z" fill="#000000" fill-rule="evenodd" fill-opacity="1" /><path clip-path="url(#clip110)" d="M129.862 228.53 L118.056 246.979 L129.862 246.979 L129.862 228.53 M128.635 224.456 L134.515 224.456 L134.515 246.979 L139.445 246.979 L139.445 250.868 L134.515 250.868 L134.515 259.016 L129.862 259.016 L129.862 250.868 L114.26 250.868 L114.26 246.354 L128.635 224.456 Z" fill="#000000" fill-rule="evenodd" fill-opacity="1" /><path clip-path="url(#clip110)" d="M33.7671 825.939 L14.479 825.939 L14.479 820.083 L64.0042 820.083 L64.0042 825.939 L58.657 825.939 Q61.8398 827.785 63.3994 830.618 Q64.9272 833.419 64.9272 837.366 Q64.9272 843.827 59.771 847.901 Q54.6147 851.943 46.212 851.943 Q37.8093 851.943 32.6531 847.901 Q27.4968 843.827 27.4968 837.366 Q27.4968 833.419 29.0564 830.618 Q30.5842 827.785 33.7671 825.939 M46.212 845.896 Q52.6732 845.896 56.3653 843.254 Q60.0256 840.58 60.0256 835.933 Q60.0256 831.286 56.3653 828.613 Q52.6732 825.939 46.212 825.939 Q39.7508 825.939 36.0905 828.613 Q32.3984 831.286 32.3984 835.933 Q32.3984 840.58 36.0905 843.254 Q39.7508 845.896 46.212 845.896 Z" fill="#000000" fill-rule="evenodd" fill-opacity="1" /><path clip-path="url(#clip110)" d="M44.7161 777.528 L47.5806 777.528 L47.5806 804.455 Q53.6281 804.073 56.8109 800.826 Q59.9619 797.548 59.9619 791.724 Q59.9619 788.35 59.1344 785.199 Q58.3069 782.016 56.6518 778.897 L62.1899 778.897 Q63.5267 782.048 64.227 785.358 Q64.9272 788.668 64.9272 792.074 Q64.9272 800.604 59.9619 805.601 Q54.9967 810.566 46.5303 810.566 Q37.7774 810.566 32.6531 805.855 Q27.4968 801.113 27.4968 793.092 Q27.4968 785.899 32.1438 781.729 Q36.7589 777.528 44.7161 777.528 M42.9973 783.384 Q38.1912 783.448 35.3266 786.09 Q32.4621 788.7 32.4621 793.028 Q32.4621 797.93 35.2312 800.89 Q38.0002 803.818 43.0292 804.264 L42.9973 783.384 Z" fill="#000000" fill-rule="evenodd" fill-opacity="1" /><path clip-path="url(#clip110)" d="M42.4881 738.283 L64.0042 738.283 L64.0042 744.14 L42.679 744.14 Q37.6183 744.14 35.1038 746.113 Q32.5894 748.087 32.5894 752.033 Q32.5894 756.776 35.6131 759.513 Q38.6368 762.25 43.8567 762.25 L64.0042 762.25 L64.0042 768.139 L28.3562 768.139 L28.3562 762.25 L33.8944 762.25 Q30.6797 760.15 29.0883 757.317 Q27.4968 754.452 27.4968 750.728 Q27.4968 744.585 31.3163 741.434 Q35.1038 738.283 42.4881 738.283 Z" fill="#000000" fill-rule="evenodd" fill-opacity="1" /><path clip-path="url(#clip110)" d="M29.4065 703.877 L34.9447 703.877 Q33.6716 706.359 33.035 709.033 Q32.3984 711.707 32.3984 714.571 Q32.3984 718.932 33.7352 721.128 Q35.072 723.292 37.7456 723.292 Q39.7826 723.292 40.9603 721.733 Q42.1061 720.173 43.1565 715.462 L43.6021 713.457 Q44.9389 707.219 47.3897 704.609 Q49.8086 701.967 54.1691 701.967 Q59.1344 701.967 62.0308 705.914 Q64.9272 709.829 64.9272 716.704 Q64.9272 719.568 64.3543 722.687 Q63.8132 725.775 62.6992 729.212 L56.6518 729.212 Q58.3387 725.966 59.198 722.815 Q60.0256 719.664 60.0256 716.576 Q60.0256 712.439 58.6251 710.211 Q57.1929 707.983 54.6147 707.983 Q52.2276 707.983 50.9545 709.606 Q49.6813 711.197 48.5037 716.64 L48.0262 718.677 Q46.8804 724.12 44.5251 726.539 Q42.138 728.958 38.0002 728.958 Q32.9713 728.958 30.2341 725.393 Q27.4968 721.828 27.4968 715.271 Q27.4968 712.025 27.9743 709.16 Q28.4517 706.296 29.4065 703.877 Z" fill="#000000" fill-rule="evenodd" fill-opacity="1" /><path clip-path="url(#clip110)" d="M28.3562 692.641 L28.3562 686.785 L64.0042 686.785 L64.0042 692.641 L28.3562 692.641 M14.479 692.641 L14.479 686.785 L21.895 686.785 L21.895 692.641 L14.479 692.641 Z" fill="#000000" fill-rule="evenodd" fill-opacity="1" /><path clip-path="url(#clip110)" d="M18.2347 668.738 L28.3562 668.738 L28.3562 656.675 L32.9077 656.675 L32.9077 668.738 L52.2594 668.738 Q56.6199 668.738 57.8613 667.56 Q59.1026 666.351 59.1026 662.691 L59.1026 656.675 L64.0042 656.675 L64.0042 662.691 Q64.0042 669.47 61.4897 672.048 Q58.9434 674.626 52.2594 674.626 L32.9077 674.626 L32.9077 678.923 L28.3562 678.923 L28.3562 674.626 L18.2347 674.626 L18.2347 668.738 Z" fill="#000000" fill-rule="evenodd" fill-opacity="1" /><path clip-path="url(#clip110)" d="M67.3143 634.14 Q73.68 636.623 75.6216 638.978 Q77.5631 641.334 77.5631 645.28 L77.5631 649.959 L72.6615 649.959 L72.6615 646.522 Q72.6615 644.103 71.5157 642.766 Q70.3699 641.429 66.1048 639.806 L63.4312 638.756 L28.3562 653.174 L28.3562 646.967 L56.238 635.827 L28.3562 624.687 L28.3562 618.481 L67.3143 634.14 Z" fill="#000000" fill-rule="evenodd" fill-opacity="1" /><polyline clip-path="url(#clip112)" style="stroke:#009af9; stroke-linecap:round; stroke-linejoin:round; stroke-width:4; stroke-opacity:1; fill:none" points="
  237.067,1384.22 247.389,1384.21 257.711,1384.2 268.033,1384.18 278.355,1384.14 288.677,1384.09 298.999,1384.02 309.321,1383.9 319.643,1383.74 329.965,1383.5 
  340.287,1383.17 350.609,1382.71 360.931,1382.07 371.252,1381.21 381.574,1380.06 391.896,1378.56 402.218,1376.6 412.54,1374.11 422.862,1370.96 433.184,1367.05 
  443.506,1362.27 453.828,1356.49 464.15,1349.61 474.472,1341.54 484.794,1332.2 495.116,1321.54 505.438,1309.55 515.76,1296.25 526.082,1281.7 536.404,1266.01 
  546.726,1249.32 557.047,1231.82 567.369,1213.7 577.691,1195.21 588.013,1176.58 598.335,1158.06 608.657,1139.88 618.979,1122.27 629.301,1105.41 639.623,1089.45 
  649.945,1074.54 660.267,1060.75 670.589,1048.13 680.911,1036.72 691.233,1026.51 701.555,1017.48 711.877,1009.59 722.199,1002.8 732.52,997.043 742.842,992.28 
  753.164,988.451 763.486,985.504 773.808,983.384 784.13,982.04 794.452,981.417 804.774,981.462 815.096,982.12 825.418,983.336 835.74,985.055 846.062,987.221 
  856.384,989.784 866.706,992.694 877.028,995.908 887.35,999.386 897.672,1003.09 907.994,1007 918.315,1011.07 928.637,1015.29 938.959,1019.63 949.281,1024.07 
  959.603,1028.58 969.925,1033.15 980.247,1037.73 990.569,1042.32 1000.89,1046.87 1011.21,1051.37 1021.53,1055.78 1031.86,1060.09 1042.18,1064.26 1052.5,1068.28 
  1062.82,1072.14 1073.14,1075.81 1083.47,1079.3 1093.79,1082.58 1104.11,1085.68 1114.43,1088.58 1124.75,1091.3 1135.08,1093.86 1145.4,1096.27 1155.72,1098.57 
  1166.04,1100.77 1176.36,1102.9 1186.69,1105 1197.01,1107.09 1207.33,1109.18 1217.65,1111.3 1227.97,1113.45 1238.3,1115.62 1248.62,1117.81 1258.94,1119.99 
  1269.26,1122.13 1279.58,1124.21 1289.91,1126.19 1300.23,1128.03 1310.55,1129.7 1320.87,1131.18 1331.19,1132.45 1341.52,1133.52 1351.84,1134.38 1362.16,1135.06 
  1372.48,1135.59 1382.8,1136.01 1393.12,1136.37 1403.45,1136.71 1413.77,1137.09 1424.09,1137.56 1434.41,1138.16 1444.73,1138.92 1455.06,1139.88 1465.38,1141.04 
  1475.7,1142.4 1486.02,1143.95 1496.34,1145.67 1506.67,1147.53 1516.99,1149.5 1527.31,1151.52 1537.63,1153.56 1547.95,1155.58 1558.28,1157.54 1568.6,1159.41 
  1578.92,1161.19 1589.24,1162.85 1599.56,1164.39 1609.89,1165.83 1620.21,1167.19 1630.53,1168.48 1640.85,1169.73 1651.17,1170.98 1661.5,1172.26 1671.82,1173.58 
  1682.14,1174.99 1692.46,1176.5 1702.78,1178.15 1713.11,1179.94 1723.43,1181.91 1733.75,1184.07 1744.07,1186.44 1754.39,1189.03 1764.71,1191.88 1775.04,1195.01 
  1785.36,1198.44 1795.68,1202.19 1806,1206.29 1816.32,1210.76 1826.65,1215.62 1836.97,1220.88 1847.29,1226.56 1857.61,1232.66 1867.93,1239.16 1878.26,1246.05 
  1888.58,1253.31 1898.9,1260.89 1909.22,1268.73 1919.54,1276.79 1929.87,1284.98 1940.19,1293.23 1950.51,1301.44 1960.83,1309.53 1971.15,1317.41 1981.48,1325 
  1991.8,1332.22 2002.12,1339 2012.44,1345.29 2022.76,1351.05 2033.09,1356.26 2043.41,1360.91 2053.73,1365.01 2064.05,1368.56 2074.37,1371.61 2084.7,1374.18 
  2095.02,1376.32 2105.34,1378.09 2115.66,1379.52 2125.98,1380.66 2136.3,1381.56 2146.63,1382.26 2156.95,1382.79 2167.27,1383.2 2177.59,1383.5 2187.91,1383.72 
  2198.24,1383.88 2208.56,1383.99 2218.88,1384.07 2229.2,1384.13 2239.52,1384.17 2249.85,1384.19 2260.17,1384.21 2270.49,1384.22 2280.81,1384.22 2291.13,1384.22 
  
  "/>
<polyline clip-path="url(#clip112)" style="stroke:#e26f46; stroke-linecap:round; stroke-linejoin:round; stroke-width:4; stroke-opacity:1; fill:none" points="
  521.323,1384.24 528.473,1384.24 535.623,1384.23 542.774,1384.22 549.924,1384.2 557.075,1384.14 564.225,1384.05 571.375,1383.89 578.526,1383.66 585.676,1383.37 
  592.826,1383.06 599.977,1382.76 607.127,1382.56 614.278,1382.47 621.428,1382.47 628.578,1382.41 635.729,1382.08 642.879,1381.1 650.03,1378.93 657.18,1374.85 
  664.33,1367.94 671.481,1357.15 678.631,1341.4 685.782,1319.74 692.932,1291.51 700.082,1256.41 707.233,1214.59 714.383,1166.55 721.533,1113.12 728.684,1055.24 
  735.834,993.812 742.985,929.36 750.135,861.91 757.285,791.064 764.436,716.399 771.586,638.054 778.737,557.196 785.887,476.127 793.037,397.94 800.188,325.887 
  807.338,262.682 814.489,209.983 821.639,168.186 828.789,136.571 835.94,113.766 843.09,98.3421 850.24,89.2881 857.391,86.1857 864.541,89.0337 871.692,97.8546 
  878.842,112.264 885.992,131.185 893.143,152.869 900.293,175.323 907.444,197.063 914.594,217.832 921.744,238.836 928.895,262.225 936.045,290.044 943.196,323.205 
  950.346,361.018 957.496,401.489 964.647,442.15 971.797,481.019 978.947,517.248 986.098,551.236 993.248,584.174 1000.4,617.293 1007.55,651.225 1014.7,685.803 
  1021.85,720.355 1029,754.207 1036.15,787.047 1043.3,818.95 1050.45,850.129 1057.6,880.617 1064.75,910.069 1071.9,937.754 1079.05,962.746 1086.2,984.282 
  1093.35,1002.17 1100.5,1017 1107.65,1030.05 1114.8,1042.69 1121.96,1055.75 1129.11,1069.22 1136.26,1082.39 1143.41,1094.48 1150.56,1105.24 1157.71,1115.14 
  1164.86,1125.1 1172.01,1135.95 1179.16,1148.03 1186.31,1161.02 1193.46,1174.19 1200.61,1186.76 1207.76,1198.2 1214.91,1208.33 1222.06,1217.21 1229.21,1225.05 
  1236.36,1232.03 1243.51,1238.3 1250.66,1244.01 1257.81,1249.27 1264.96,1254.23 1272.11,1259.06 1279.26,1264.02 1286.41,1269.49 1293.56,1275.91 1300.71,1283.63 
  1307.87,1292.64 1315.02,1302.51 1322.17,1312.44 1329.32,1321.5 1336.47,1328.97 1343.62,1334.49 1350.77,1338.15 1357.92,1340.36 1365.07,1341.65 1372.22,1342.51 
  1379.37,1343.28 1386.52,1344.17 1393.67,1345.3 1400.82,1346.72 1407.97,1348.46 1415.12,1350.54 1422.27,1352.89 1429.42,1355.38 1436.57,1357.79 1443.72,1359.89 
  1450.87,1361.53 1458.02,1362.68 1465.17,1363.48 1472.32,1364.18 1479.47,1365.02 1486.63,1366.16 1493.78,1367.57 1500.93,1369.08 1508.08,1370.46 1515.23,1371.53 
  1522.38,1372.26 1529.53,1372.78 1536.68,1373.28 1543.83,1373.93 1550.98,1374.78 1558.13,1375.71 1565.28,1376.52 1572.43,1377.02 1579.58,1377.1 1586.73,1376.8 
  1593.88,1376.28 1601.03,1375.76 1608.18,1375.44 1615.33,1375.43 1622.48,1375.74 1629.63,1376.31 1636.78,1377.04 1643.93,1377.86 1651.08,1378.72 1658.23,1379.59 
  1665.38,1380.42 1672.54,1381.15 1679.69,1381.72 1686.84,1382.09 1693.99,1382.28 1701.14,1382.33 1708.29,1382.35 1715.44,1382.42 1722.59,1382.59 1729.74,1382.85 
  1736.89,1383.18 1744.04,1383.5 1751.19,1383.77 1758.34,1383.97 1765.49,1384.1 1772.64,1384.17 1779.79,1384.2 1786.94,1384.2 1794.09,1384.17 1801.24,1384.11 
  1808.39,1383.99 1815.54,1383.8 1822.69,1383.54 1829.84,1383.24 1836.99,1382.92 1844.14,1382.68 1851.29,1382.55 1858.45,1382.59 1865.6,1382.77 1872.75,1383.06 
  1879.9,1383.37 1887.05,1383.66 1894.2,1383.89 1901.35,1384.05 1908.5,1384.14 1915.65,1384.2 1922.8,1384.22 1929.95,1384.23 1937.1,1384.24 1944.25,1384.24 
  
  "/>
<path clip-path="url(#clip110)" d="
M1782.19 248.629 L2280.18 248.629 L2280.18 93.1086 L1782.19 93.1086  Z
  " fill="#ffffff" fill-rule="evenodd" fill-opacity="1"/>
<polyline clip-path="url(#clip110)" style="stroke:#000000; stroke-linecap:round; stroke-linejoin:round; stroke-width:4; stroke-opacity:1; fill:none" points="
  1782.19,248.629 2280.18,248.629 2280.18,93.1086 1782.19,93.1086 1782.19,248.629 
  "/>
<polyline clip-path="url(#clip110)" style="stroke:#009af9; stroke-linecap:round; stroke-linejoin:round; stroke-width:4; stroke-opacity:1; fill:none" points="
  1806.38,144.949 1951.54,144.949 
  "/>
<path clip-path="url(#clip110)" d="M1992.12 146.025 Q1993.62 146.534 1995.04 148.201 Q1996.47 149.868 1997.91 152.784 L2002.65 162.229 L1997.63 162.229 L1993.21 153.363 Q1991.49 149.891 1989.87 148.756 Q1988.28 147.622 1985.5 147.622 L1980.41 147.622 L1980.41 162.229 L1975.73 162.229 L1975.73 127.669 L1986.29 127.669 Q1992.21 127.669 1995.13 130.145 Q1998.05 132.622 1998.05 137.622 Q1998.05 140.886 1996.52 143.039 Q1995.01 145.192 1992.12 146.025 M1980.41 131.511 L1980.41 143.78 L1986.29 143.78 Q1989.67 143.78 1991.38 142.229 Q1993.11 140.655 1993.11 137.622 Q1993.11 134.59 1991.38 133.062 Q1989.67 131.511 1986.29 131.511 L1980.41 131.511 Z" fill="#000000" fill-rule="evenodd" fill-opacity="1" /><path clip-path="url(#clip110)" d="M2028.42 131.511 L2028.42 144.497 L2034.3 144.497 Q2037.56 144.497 2039.34 142.807 Q2041.12 141.118 2041.12 137.993 Q2041.12 134.891 2039.34 133.201 Q2037.56 131.511 2034.3 131.511 L2028.42 131.511 M2023.74 127.669 L2034.3 127.669 Q2040.11 127.669 2043.07 130.307 Q2046.05 132.923 2046.05 137.993 Q2046.05 143.108 2043.07 145.724 Q2040.11 148.34 2034.3 148.34 L2028.42 148.34 L2028.42 162.229 L2023.74 162.229 L2023.74 127.669 Z" fill="#000000" fill-rule="evenodd" fill-opacity="1" /><path clip-path="url(#clip110)" d="M2066.33 140.284 Q2065.61 139.868 2064.76 139.682 Q2063.92 139.474 2062.91 139.474 Q2059.3 139.474 2057.35 141.835 Q2055.43 144.173 2055.43 148.571 L2055.43 162.229 L2051.15 162.229 L2051.15 136.303 L2055.43 136.303 L2055.43 140.331 Q2056.77 137.969 2058.92 136.835 Q2061.08 135.678 2064.16 135.678 Q2064.6 135.678 2065.13 135.747 Q2065.66 135.794 2066.31 135.909 L2066.33 140.284 Z" fill="#000000" fill-rule="evenodd" fill-opacity="1" /><path clip-path="url(#clip110)" d="M2070.8 136.303 L2075.06 136.303 L2075.06 162.229 L2070.8 162.229 L2070.8 136.303 M2070.8 126.21 L2075.06 126.21 L2075.06 131.604 L2070.8 131.604 L2070.8 126.21 Z" fill="#000000" fill-rule="evenodd" fill-opacity="1" /><path clip-path="url(#clip110)" d="M2094.02 139.289 Q2090.59 139.289 2088.6 141.974 Q2086.61 144.636 2086.61 149.289 Q2086.61 153.942 2088.58 156.627 Q2090.57 159.289 2094.02 159.289 Q2097.42 159.289 2099.41 156.604 Q2101.4 153.918 2101.4 149.289 Q2101.4 144.682 2099.41 141.997 Q2097.42 139.289 2094.02 139.289 M2094.02 135.678 Q2099.57 135.678 2102.74 139.289 Q2105.92 142.9 2105.92 149.289 Q2105.92 155.655 2102.74 159.289 Q2099.57 162.9 2094.02 162.9 Q2088.44 162.9 2085.27 159.289 Q2082.12 155.655 2082.12 149.289 Q2082.12 142.9 2085.27 139.289 Q2088.44 135.678 2094.02 135.678 Z" fill="#000000" fill-rule="evenodd" fill-opacity="1" /><path clip-path="url(#clip110)" d="M2128 140.284 Q2127.28 139.868 2126.42 139.682 Q2125.59 139.474 2124.57 139.474 Q2120.96 139.474 2119.02 141.835 Q2117.1 144.173 2117.1 148.571 L2117.1 162.229 L2112.81 162.229 L2112.81 136.303 L2117.1 136.303 L2117.1 140.331 Q2118.44 137.969 2120.59 136.835 Q2122.74 135.678 2125.82 135.678 Q2126.26 135.678 2126.79 135.747 Q2127.33 135.794 2127.98 135.909 L2128 140.284 Z" fill="#000000" fill-rule="evenodd" fill-opacity="1" /><polyline clip-path="url(#clip110)" style="stroke:#e26f46; stroke-linecap:round; stroke-linejoin:round; stroke-width:4; stroke-opacity:1; fill:none" points="
  1806.38,196.789 1951.54,196.789 
  "/>
<path clip-path="url(#clip110)" d="M1992.12 197.865 Q1993.62 198.374 1995.04 200.041 Q1996.47 201.708 1997.91 204.624 L2002.65 214.069 L1997.63 214.069 L1993.21 205.203 Q1991.49 201.731 1989.87 200.596 Q1988.28 199.462 1985.5 199.462 L1980.41 199.462 L1980.41 214.069 L1975.73 214.069 L1975.73 179.509 L1986.29 179.509 Q1992.21 179.509 1995.13 181.985 Q1998.05 184.462 1998.05 189.462 Q1998.05 192.726 1996.52 194.879 Q1995.01 197.032 1992.12 197.865 M1980.41 183.351 L1980.41 195.62 L1986.29 195.62 Q1989.67 195.62 1991.38 194.069 Q1993.11 192.495 1993.11 189.462 Q1993.11 186.43 1991.38 184.902 Q1989.67 183.351 1986.29 183.351 L1980.41 183.351 Z" fill="#000000" fill-rule="evenodd" fill-opacity="1" /><path clip-path="url(#clip110)" d="M2027.67 210.18 L2027.67 223.93 L2023.39 223.93 L2023.39 188.143 L2027.67 188.143 L2027.67 192.078 Q2029.02 189.763 2031.05 188.652 Q2033.11 187.518 2035.96 187.518 Q2040.68 187.518 2043.62 191.268 Q2046.59 195.018 2046.59 201.129 Q2046.59 207.24 2043.62 210.99 Q2040.68 214.74 2035.96 214.74 Q2033.11 214.74 2031.05 213.629 Q2029.02 212.495 2027.67 210.18 M2042.17 201.129 Q2042.17 196.43 2040.22 193.768 Q2038.3 191.083 2034.92 191.083 Q2031.54 191.083 2029.6 193.768 Q2027.67 196.43 2027.67 201.129 Q2027.67 205.828 2029.6 208.513 Q2031.54 211.175 2034.92 211.175 Q2038.3 211.175 2040.22 208.513 Q2042.17 205.828 2042.17 201.129 Z" fill="#000000" fill-rule="evenodd" fill-opacity="1" /><path clip-path="url(#clip110)" d="M2063.69 191.129 Q2060.27 191.129 2058.28 193.814 Q2056.29 196.476 2056.29 201.129 Q2056.29 205.782 2058.25 208.467 Q2060.24 211.129 2063.69 211.129 Q2067.1 211.129 2069.09 208.444 Q2071.08 205.758 2071.08 201.129 Q2071.08 196.522 2069.09 193.837 Q2067.1 191.129 2063.69 191.129 M2063.69 187.518 Q2069.25 187.518 2072.42 191.129 Q2075.59 194.74 2075.59 201.129 Q2075.59 207.495 2072.42 211.129 Q2069.25 214.74 2063.69 214.74 Q2058.11 214.74 2054.94 211.129 Q2051.8 207.495 2051.8 201.129 Q2051.8 194.74 2054.94 191.129 Q2058.11 187.518 2063.69 187.518 Z" fill="#000000" fill-rule="evenodd" fill-opacity="1" /><path clip-path="url(#clip110)" d="M2099.18 188.907 L2099.18 192.934 Q2097.37 192.009 2095.43 191.546 Q2093.48 191.083 2091.4 191.083 Q2088.23 191.083 2086.63 192.055 Q2085.06 193.027 2085.06 194.971 Q2085.06 196.453 2086.19 197.309 Q2087.33 198.143 2090.75 198.907 L2092.21 199.231 Q2096.75 200.203 2098.65 201.985 Q2100.57 203.745 2100.57 206.916 Q2100.57 210.527 2097.7 212.633 Q2094.85 214.74 2089.85 214.74 Q2087.77 214.74 2085.5 214.323 Q2083.25 213.93 2080.75 213.12 L2080.75 208.721 Q2083.11 209.948 2085.41 210.573 Q2087.7 211.175 2089.94 211.175 Q2092.95 211.175 2094.57 210.157 Q2096.19 209.115 2096.19 207.24 Q2096.19 205.504 2095.01 204.578 Q2093.86 203.652 2089.9 202.796 L2088.42 202.448 Q2084.46 201.615 2082.7 199.902 Q2080.94 198.166 2080.94 195.157 Q2080.94 191.499 2083.53 189.509 Q2086.12 187.518 2090.89 187.518 Q2093.25 187.518 2095.34 187.865 Q2097.42 188.212 2099.18 188.907 Z" fill="#000000" fill-rule="evenodd" fill-opacity="1" /><path clip-path="url(#clip110)" d="M2111.56 180.782 L2111.56 188.143 L2120.34 188.143 L2120.34 191.453 L2111.56 191.453 L2111.56 205.527 Q2111.56 208.698 2112.42 209.601 Q2113.3 210.504 2115.96 210.504 L2120.34 210.504 L2120.34 214.069 L2115.96 214.069 Q2111.03 214.069 2109.16 212.24 Q2107.28 210.388 2107.28 205.527 L2107.28 191.453 L2104.16 191.453 L2104.16 188.143 L2107.28 188.143 L2107.28 180.782 L2111.56 180.782 Z" fill="#000000" fill-rule="evenodd" fill-opacity="1" /><path clip-path="url(#clip110)" d="M2148.11 200.041 L2148.11 202.124 L2128.53 202.124 Q2128.81 206.522 2131.17 208.837 Q2133.55 211.129 2137.79 211.129 Q2140.24 211.129 2142.54 210.527 Q2144.85 209.925 2147.12 208.721 L2147.12 212.749 Q2144.83 213.721 2142.42 214.231 Q2140.01 214.74 2137.54 214.74 Q2131.33 214.74 2127.7 211.129 Q2124.09 207.518 2124.09 201.36 Q2124.09 194.995 2127.51 191.268 Q2130.96 187.518 2136.79 187.518 Q2142.03 187.518 2145.06 190.897 Q2148.11 194.254 2148.11 200.041 M2143.85 198.791 Q2143.81 195.296 2141.89 193.212 Q2139.99 191.129 2136.84 191.129 Q2133.28 191.129 2131.12 193.143 Q2128.99 195.157 2128.67 198.814 L2143.85 198.791 Z" fill="#000000" fill-rule="evenodd" fill-opacity="1" /><path clip-path="url(#clip110)" d="M2170.13 192.124 Q2169.41 191.708 2168.55 191.522 Q2167.72 191.314 2166.7 191.314 Q2163.09 191.314 2161.15 193.675 Q2159.23 196.013 2159.23 200.411 L2159.23 214.069 L2154.94 214.069 L2154.94 188.143 L2159.23 188.143 L2159.23 192.171 Q2160.57 189.809 2162.72 188.675 Q2164.87 187.518 2167.95 187.518 Q2168.39 187.518 2168.92 187.587 Q2169.46 187.634 2170.1 187.749 L2170.13 192.124 Z" fill="#000000" fill-rule="evenodd" fill-opacity="1" /><path clip-path="url(#clip110)" d="M2174.6 188.143 L2178.85 188.143 L2178.85 214.069 L2174.6 214.069 L2174.6 188.143 M2174.6 178.05 L2178.85 178.05 L2178.85 183.444 L2174.6 183.444 L2174.6 178.05 Z" fill="#000000" fill-rule="evenodd" fill-opacity="1" /><path clip-path="url(#clip110)" d="M2197.81 191.129 Q2194.39 191.129 2192.4 193.814 Q2190.41 196.476 2190.41 201.129 Q2190.41 205.782 2192.37 208.467 Q2194.36 211.129 2197.81 211.129 Q2201.22 211.129 2203.21 208.444 Q2205.2 205.758 2205.2 201.129 Q2205.2 196.522 2203.21 193.837 Q2201.22 191.129 2197.81 191.129 M2197.81 187.518 Q2203.37 187.518 2206.54 191.129 Q2209.71 194.74 2209.71 201.129 Q2209.71 207.495 2206.54 211.129 Q2203.37 214.74 2197.81 214.74 Q2192.23 214.74 2189.06 211.129 Q2185.91 207.495 2185.91 201.129 Q2185.91 194.74 2189.06 191.129 Q2192.23 187.518 2197.81 187.518 Z" fill="#000000" fill-rule="evenodd" fill-opacity="1" /><path clip-path="url(#clip110)" d="M2231.79 192.124 Q2231.08 191.708 2230.22 191.522 Q2229.39 191.314 2228.37 191.314 Q2224.76 191.314 2222.81 193.675 Q2220.89 196.013 2220.89 200.411 L2220.89 214.069 L2216.61 214.069 L2216.61 188.143 L2220.89 188.143 L2220.89 192.171 Q2222.23 189.809 2224.39 188.675 Q2226.54 187.518 2229.62 187.518 Q2230.06 187.518 2230.59 187.587 Q2231.12 187.634 2231.77 187.749 L2231.79 192.124 Z" fill="#000000" fill-rule="evenodd" fill-opacity="1" /></svg>
