<?xml version="1.0" encoding="utf-8"?>
<svg xmlns="http://www.w3.org/2000/svg" xmlns:xlink="http://www.w3.org/1999/xlink" width="672" height="480" viewBox="0 0 2688 1920">
<defs>
  <clipPath id="clip230">
    <rect x="0" y="0" width="2688" height="1920"/>
  </clipPath>
</defs>
<path clip-path="url(#clip230)" d="
M0 1920 L2688 1920 L2688 0 L0 0  Z
  " fill="#ffffff" fill-rule="evenodd" fill-opacity="1"/>
<defs>
  <clipPath id="clip231">
    <rect x="537" y="0" width="1883" height="1883"/>
  </clipPath>
</defs>
<path clip-path="url(#clip230)" d="
M189.154 840.779 L1296.76 840.779 L1296.76 47.2441 L189.154 47.2441  Z
  " fill="#ffffff" fill-rule="evenodd" fill-opacity="1"/>
<defs>
  <clipPath id="clip232">
    <rect x="189" y="47" width="1109" height="795"/>
  </clipPath>
</defs>
<polyline clip-path="url(#clip232)" style="stroke:#000000; stroke-linecap:round; stroke-linejoin:round; stroke-width:2; stroke-opacity:0.1; fill:none" points="
  265.317,840.779 265.317,47.2441 
  "/>
<polyline clip-path="url(#clip232)" style="stroke:#000000; stroke-linecap:round; stroke-linejoin:round; stroke-width:2; stroke-opacity:0.1; fill:none" points="
  546.281,840.779 546.281,47.2441 
  "/>
<polyline clip-path="url(#clip232)" style="stroke:#000000; stroke-linecap:round; stroke-linejoin:round; stroke-width:2; stroke-opacity:0.1; fill:none" points="
  827.244,840.779 827.244,47.2441 
  "/>
<polyline clip-path="url(#clip232)" style="stroke:#000000; stroke-linecap:round; stroke-linejoin:round; stroke-width:2; stroke-opacity:0.1; fill:none" points="
  1108.21,840.779 1108.21,47.2441 
  "/>
<polyline clip-path="url(#clip230)" style="stroke:#000000; stroke-linecap:round; stroke-linejoin:round; stroke-width:4; stroke-opacity:1; fill:none" points="
  189.154,840.779 1296.76,840.779 
  "/>
<polyline clip-path="url(#clip230)" style="stroke:#000000; stroke-linecap:round; stroke-linejoin:round; stroke-width:4; stroke-opacity:1; fill:none" points="
  265.317,840.779 265.317,821.882 
  "/>
<polyline clip-path="url(#clip230)" style="stroke:#000000; stroke-linecap:round; stroke-linejoin:round; stroke-width:4; stroke-opacity:1; fill:none" points="
  546.281,840.779 546.281,821.882 
  "/>
<polyline clip-path="url(#clip230)" style="stroke:#000000; stroke-linecap:round; stroke-linejoin:round; stroke-width:4; stroke-opacity:1; fill:none" points="
  827.244,840.779 827.244,821.882 
  "/>
<polyline clip-path="url(#clip230)" style="stroke:#000000; stroke-linecap:round; stroke-linejoin:round; stroke-width:4; stroke-opacity:1; fill:none" points="
  1108.21,840.779 1108.21,821.882 
  "/>
<path clip-path="url(#clip230)" d="M219.38 888.655 L249.056 888.655 L249.056 892.59 L219.38 892.59 L219.38 888.655 Z" fill="#000000" fill-rule="evenodd" fill-opacity="1" /><path clip-path="url(#clip230)" d="M259.958 901.548 L267.597 901.548 L267.597 875.183 L259.287 876.849 L259.287 872.59 L267.551 870.923 L272.227 870.923 L272.227 901.548 L279.866 901.548 L279.866 905.483 L259.958 905.483 L259.958 901.548 Z" fill="#000000" fill-rule="evenodd" fill-opacity="1" /><path clip-path="url(#clip230)" d="M299.31 874.002 Q295.699 874.002 293.87 877.567 Q292.065 881.108 292.065 888.238 Q292.065 895.344 293.87 898.909 Q295.699 902.451 299.31 902.451 Q302.944 902.451 304.75 898.909 Q306.579 895.344 306.579 888.238 Q306.579 881.108 304.75 877.567 Q302.944 874.002 299.31 874.002 M299.31 870.298 Q305.12 870.298 308.176 874.905 Q311.254 879.488 311.254 888.238 Q311.254 896.965 308.176 901.571 Q305.12 906.155 299.31 906.155 Q293.5 906.155 290.421 901.571 Q287.366 896.965 287.366 888.238 Q287.366 879.488 290.421 874.905 Q293.5 870.298 299.31 870.298 Z" fill="#000000" fill-rule="evenodd" fill-opacity="1" /><path clip-path="url(#clip230)" d="M546.281 874.002 Q542.669 874.002 540.841 877.567 Q539.035 881.108 539.035 888.238 Q539.035 895.344 540.841 898.909 Q542.669 902.451 546.281 902.451 Q549.915 902.451 551.72 898.909 Q553.549 895.344 553.549 888.238 Q553.549 881.108 551.72 877.567 Q549.915 874.002 546.281 874.002 M546.281 870.298 Q552.091 870.298 555.146 874.905 Q558.225 879.488 558.225 888.238 Q558.225 896.965 555.146 901.571 Q552.091 906.155 546.281 906.155 Q540.47 906.155 537.392 901.571 Q534.336 896.965 534.336 888.238 Q534.336 879.488 537.392 874.905 Q540.47 870.298 546.281 870.298 Z" fill="#000000" fill-rule="evenodd" fill-opacity="1" /><path clip-path="url(#clip230)" d="M801.932 901.548 L809.57 901.548 L809.57 875.183 L801.26 876.849 L801.26 872.59 L809.524 870.923 L814.2 870.923 L814.2 901.548 L821.839 901.548 L821.839 905.483 L801.932 905.483 L801.932 901.548 Z" fill="#000000" fill-rule="evenodd" fill-opacity="1" /><path clip-path="url(#clip230)" d="M841.283 874.002 Q837.672 874.002 835.843 877.567 Q834.038 881.108 834.038 888.238 Q834.038 895.344 835.843 898.909 Q837.672 902.451 841.283 902.451 Q844.917 902.451 846.723 898.909 Q848.552 895.344 848.552 888.238 Q848.552 881.108 846.723 877.567 Q844.917 874.002 841.283 874.002 M841.283 870.298 Q847.093 870.298 850.149 874.905 Q853.228 879.488 853.228 888.238 Q853.228 896.965 850.149 901.571 Q847.093 906.155 841.283 906.155 Q835.473 906.155 832.394 901.571 Q829.339 896.965 829.339 888.238 Q829.339 879.488 832.394 874.905 Q835.473 870.298 841.283 870.298 Z" fill="#000000" fill-rule="evenodd" fill-opacity="1" /><path clip-path="url(#clip230)" d="M1086.98 901.548 L1103.3 901.548 L1103.3 905.483 L1081.36 905.483 L1081.36 901.548 Q1084.02 898.794 1088.6 894.164 Q1093.21 889.511 1094.39 888.169 Q1096.63 885.645 1097.51 883.909 Q1098.42 882.15 1098.42 880.46 Q1098.42 877.706 1096.47 875.97 Q1094.55 874.233 1091.45 874.233 Q1089.25 874.233 1086.8 874.997 Q1084.36 875.761 1081.59 877.312 L1081.59 872.59 Q1084.41 871.456 1086.86 870.877 Q1089.32 870.298 1091.36 870.298 Q1096.73 870.298 1099.92 872.983 Q1103.11 875.669 1103.11 880.159 Q1103.11 882.289 1102.3 884.21 Q1101.52 886.108 1099.41 888.701 Q1098.83 889.372 1095.73 892.59 Q1092.63 895.784 1086.98 901.548 Z" fill="#000000" fill-rule="evenodd" fill-opacity="1" /><path clip-path="url(#clip230)" d="M1123.11 874.002 Q1119.5 874.002 1117.67 877.567 Q1115.87 881.108 1115.87 888.238 Q1115.87 895.344 1117.67 898.909 Q1119.5 902.451 1123.11 902.451 Q1126.75 902.451 1128.55 898.909 Q1130.38 895.344 1130.38 888.238 Q1130.38 881.108 1128.55 877.567 Q1126.75 874.002 1123.11 874.002 M1123.11 870.298 Q1128.92 870.298 1131.98 874.905 Q1135.06 879.488 1135.06 888.238 Q1135.06 896.965 1131.98 901.571 Q1128.92 906.155 1123.11 906.155 Q1117.3 906.155 1114.23 901.571 Q1111.17 896.965 1111.17 888.238 Q1111.17 879.488 1114.23 874.905 Q1117.3 870.298 1123.11 870.298 Z" fill="#000000" fill-rule="evenodd" fill-opacity="1" /><polyline clip-path="url(#clip232)" style="stroke:#000000; stroke-linecap:round; stroke-linejoin:round; stroke-width:2; stroke-opacity:0.1; fill:none" points="
  189.154,818.321 1296.76,818.321 
  "/>
<polyline clip-path="url(#clip232)" style="stroke:#000000; stroke-linecap:round; stroke-linejoin:round; stroke-width:2; stroke-opacity:0.1; fill:none" points="
  189.154,701.226 1296.76,701.226 
  "/>
<polyline clip-path="url(#clip232)" style="stroke:#000000; stroke-linecap:round; stroke-linejoin:round; stroke-width:2; stroke-opacity:0.1; fill:none" points="
  189.154,584.131 1296.76,584.131 
  "/>
<polyline clip-path="url(#clip232)" style="stroke:#000000; stroke-linecap:round; stroke-linejoin:round; stroke-width:2; stroke-opacity:0.1; fill:none" points="
  189.154,467.036 1296.76,467.036 
  "/>
<polyline clip-path="url(#clip232)" style="stroke:#000000; stroke-linecap:round; stroke-linejoin:round; stroke-width:2; stroke-opacity:0.1; fill:none" points="
  189.154,349.941 1296.76,349.941 
  "/>
<polyline clip-path="url(#clip232)" style="stroke:#000000; stroke-linecap:round; stroke-linejoin:round; stroke-width:2; stroke-opacity:0.1; fill:none" points="
  189.154,232.847 1296.76,232.847 
  "/>
<polyline clip-path="url(#clip232)" style="stroke:#000000; stroke-linecap:round; stroke-linejoin:round; stroke-width:2; stroke-opacity:0.1; fill:none" points="
  189.154,115.752 1296.76,115.752 
  "/>
<polyline clip-path="url(#clip230)" style="stroke:#000000; stroke-linecap:round; stroke-linejoin:round; stroke-width:4; stroke-opacity:1; fill:none" points="
  189.154,840.779 189.154,47.2441 
  "/>
<polyline clip-path="url(#clip230)" style="stroke:#000000; stroke-linecap:round; stroke-linejoin:round; stroke-width:4; stroke-opacity:1; fill:none" points="
  189.154,818.321 208.052,818.321 
  "/>
<polyline clip-path="url(#clip230)" style="stroke:#000000; stroke-linecap:round; stroke-linejoin:round; stroke-width:4; stroke-opacity:1; fill:none" points="
  189.154,701.226 208.052,701.226 
  "/>
<polyline clip-path="url(#clip230)" style="stroke:#000000; stroke-linecap:round; stroke-linejoin:round; stroke-width:4; stroke-opacity:1; fill:none" points="
  189.154,584.131 208.052,584.131 
  "/>
<polyline clip-path="url(#clip230)" style="stroke:#000000; stroke-linecap:round; stroke-linejoin:round; stroke-width:4; stroke-opacity:1; fill:none" points="
  189.154,467.036 208.052,467.036 
  "/>
<polyline clip-path="url(#clip230)" style="stroke:#000000; stroke-linecap:round; stroke-linejoin:round; stroke-width:4; stroke-opacity:1; fill:none" points="
  189.154,349.941 208.052,349.941 
  "/>
<polyline clip-path="url(#clip230)" style="stroke:#000000; stroke-linecap:round; stroke-linejoin:round; stroke-width:4; stroke-opacity:1; fill:none" points="
  189.154,232.847 208.052,232.847 
  "/>
<polyline clip-path="url(#clip230)" style="stroke:#000000; stroke-linecap:round; stroke-linejoin:round; stroke-width:4; stroke-opacity:1; fill:none" points="
  189.154,115.752 208.052,115.752 
  "/>
<path clip-path="url(#clip230)" d="M91.6584 804.119 Q88.0473 804.119 86.2186 807.684 Q84.4131 811.226 84.4131 818.355 Q84.4131 825.462 86.2186 829.027 Q88.0473 832.568 91.6584 832.568 Q95.2926 832.568 97.0982 829.027 Q98.9269 825.462 98.9269 818.355 Q98.9269 811.226 97.0982 807.684 Q95.2926 804.119 91.6584 804.119 M91.6584 800.416 Q97.4685 800.416 100.524 805.022 Q103.603 809.606 103.603 818.355 Q103.603 827.082 100.524 831.689 Q97.4685 836.272 91.6584 836.272 Q85.8482 836.272 82.7695 831.689 Q79.714 827.082 79.714 818.355 Q79.714 809.606 82.7695 805.022 Q85.8482 800.416 91.6584 800.416 Z" fill="#000000" fill-rule="evenodd" fill-opacity="1" /><path clip-path="url(#clip230)" d="M111.82 829.721 L116.705 829.721 L116.705 835.601 L111.82 835.601 L111.82 829.721 Z" fill="#000000" fill-rule="evenodd" fill-opacity="1" /><path clip-path="url(#clip230)" d="M136.89 804.119 Q133.279 804.119 131.45 807.684 Q129.644 811.226 129.644 818.355 Q129.644 825.462 131.45 829.027 Q133.279 832.568 136.89 832.568 Q140.524 832.568 142.329 829.027 Q144.158 825.462 144.158 818.355 Q144.158 811.226 142.329 807.684 Q140.524 804.119 136.89 804.119 M136.89 800.416 Q142.7 800.416 145.755 805.022 Q148.834 809.606 148.834 818.355 Q148.834 827.082 145.755 831.689 Q142.7 836.272 136.89 836.272 Q131.079 836.272 128.001 831.689 Q124.945 827.082 124.945 818.355 Q124.945 809.606 128.001 805.022 Q131.079 800.416 136.89 800.416 Z" fill="#000000" fill-rule="evenodd" fill-opacity="1" /><path clip-path="url(#clip230)" d="M92.8852 687.025 Q89.2741 687.025 87.4454 690.589 Q85.6399 694.131 85.6399 701.261 Q85.6399 708.367 87.4454 711.932 Q89.2741 715.474 92.8852 715.474 Q96.5195 715.474 98.325 711.932 Q100.154 708.367 100.154 701.261 Q100.154 694.131 98.325 690.589 Q96.5195 687.025 92.8852 687.025 M92.8852 683.321 Q98.6954 683.321 101.751 687.927 Q104.83 692.511 104.83 701.261 Q104.83 709.987 101.751 714.594 Q98.6954 719.177 92.8852 719.177 Q87.0751 719.177 83.9964 714.594 Q80.9408 709.987 80.9408 701.261 Q80.9408 692.511 83.9964 687.927 Q87.0751 683.321 92.8852 683.321 Z" fill="#000000" fill-rule="evenodd" fill-opacity="1" /><path clip-path="url(#clip230)" d="M113.047 712.626 L117.931 712.626 L117.931 718.506 L113.047 718.506 L113.047 712.626 Z" fill="#000000" fill-rule="evenodd" fill-opacity="1" /><path clip-path="url(#clip230)" d="M128.927 714.571 L136.566 714.571 L136.566 688.205 L128.255 689.872 L128.255 685.613 L136.519 683.946 L141.195 683.946 L141.195 714.571 L148.834 714.571 L148.834 718.506 L128.927 718.506 L128.927 714.571 Z" fill="#000000" fill-rule="evenodd" fill-opacity="1" /><path clip-path="url(#clip230)" d="M93.2556 569.93 Q89.6445 569.93 87.8158 573.495 Q86.0103 577.036 86.0103 584.166 Q86.0103 591.272 87.8158 594.837 Q89.6445 598.379 93.2556 598.379 Q96.8898 598.379 98.6954 594.837 Q100.524 591.272 100.524 584.166 Q100.524 577.036 98.6954 573.495 Q96.8898 569.93 93.2556 569.93 M93.2556 566.226 Q99.0657 566.226 102.121 570.833 Q105.2 575.416 105.2 584.166 Q105.2 592.893 102.121 597.499 Q99.0657 602.082 93.2556 602.082 Q87.4454 602.082 84.3668 597.499 Q81.3112 592.893 81.3112 584.166 Q81.3112 575.416 84.3668 570.833 Q87.4454 566.226 93.2556 566.226 Z" fill="#000000" fill-rule="evenodd" fill-opacity="1" /><path clip-path="url(#clip230)" d="M113.418 595.532 L118.302 595.532 L118.302 601.411 L113.418 601.411 L113.418 595.532 Z" fill="#000000" fill-rule="evenodd" fill-opacity="1" /><path clip-path="url(#clip230)" d="M132.515 597.476 L148.834 597.476 L148.834 601.411 L126.89 601.411 L126.89 597.476 Q129.552 594.721 134.135 590.092 Q138.741 585.439 139.922 584.096 Q142.167 581.573 143.047 579.837 Q143.95 578.078 143.95 576.388 Q143.95 573.633 142.005 571.897 Q140.084 570.161 136.982 570.161 Q134.783 570.161 132.329 570.925 Q129.899 571.689 127.121 573.24 L127.121 568.518 Q129.945 567.384 132.399 566.805 Q134.853 566.226 136.89 566.226 Q142.26 566.226 145.454 568.911 Q148.649 571.596 148.649 576.087 Q148.649 578.217 147.839 580.138 Q147.052 582.036 144.945 584.629 Q144.366 585.3 141.265 588.518 Q138.163 591.712 132.515 597.476 Z" fill="#000000" fill-rule="evenodd" fill-opacity="1" /><path clip-path="url(#clip230)" d="M92.3065 452.835 Q88.6954 452.835 86.8667 456.4 Q85.0612 459.941 85.0612 467.071 Q85.0612 474.177 86.8667 477.742 Q88.6954 481.284 92.3065 481.284 Q95.9408 481.284 97.7463 477.742 Q99.575 474.177 99.575 467.071 Q99.575 459.941 97.7463 456.4 Q95.9408 452.835 92.3065 452.835 M92.3065 449.131 Q98.1167 449.131 101.172 453.738 Q104.251 458.321 104.251 467.071 Q104.251 475.798 101.172 480.404 Q98.1167 484.988 92.3065 484.988 Q86.4964 484.988 83.4177 480.404 Q80.3621 475.798 80.3621 467.071 Q80.3621 458.321 83.4177 453.738 Q86.4964 449.131 92.3065 449.131 Z" fill="#000000" fill-rule="evenodd" fill-opacity="1" /><path clip-path="url(#clip230)" d="M112.468 478.437 L117.353 478.437 L117.353 484.316 L112.468 484.316 L112.468 478.437 Z" fill="#000000" fill-rule="evenodd" fill-opacity="1" /><path clip-path="url(#clip230)" d="M141.704 465.682 Q145.061 466.4 146.936 468.668 Q148.834 470.937 148.834 474.27 Q148.834 479.386 145.316 482.187 Q141.797 484.988 135.316 484.988 Q133.14 484.988 130.825 484.548 Q128.533 484.131 126.079 483.275 L126.079 478.761 Q128.024 479.895 130.339 480.474 Q132.654 481.052 135.177 481.052 Q139.575 481.052 141.866 479.316 Q144.181 477.58 144.181 474.27 Q144.181 471.215 142.028 469.502 Q139.899 467.765 136.079 467.765 L132.052 467.765 L132.052 463.923 L136.265 463.923 Q139.714 463.923 141.542 462.557 Q143.371 461.168 143.371 458.576 Q143.371 455.914 141.473 454.502 Q139.598 453.066 136.079 453.066 Q134.158 453.066 131.959 453.483 Q129.76 453.9 127.121 454.779 L127.121 450.613 Q129.783 449.872 132.098 449.502 Q134.436 449.131 136.496 449.131 Q141.82 449.131 144.922 451.562 Q148.024 453.969 148.024 458.09 Q148.024 460.96 146.38 462.951 Q144.737 464.918 141.704 465.682 Z" fill="#000000" fill-rule="evenodd" fill-opacity="1" /><path clip-path="url(#clip230)" d="M91.1723 335.74 Q87.5612 335.74 85.7325 339.305 Q83.9269 342.847 83.9269 349.976 Q83.9269 357.083 85.7325 360.647 Q87.5612 364.189 91.1723 364.189 Q94.8065 364.189 96.6121 360.647 Q98.4408 357.083 98.4408 349.976 Q98.4408 342.847 96.6121 339.305 Q94.8065 335.74 91.1723 335.74 M91.1723 332.036 Q96.9824 332.036 100.038 336.643 Q103.117 341.226 103.117 349.976 Q103.117 358.703 100.038 363.309 Q96.9824 367.893 91.1723 367.893 Q85.3621 367.893 82.2834 363.309 Q79.2279 358.703 79.2279 349.976 Q79.2279 341.226 82.2834 336.643 Q85.3621 332.036 91.1723 332.036 Z" fill="#000000" fill-rule="evenodd" fill-opacity="1" /><path clip-path="url(#clip230)" d="M111.334 361.342 L116.218 361.342 L116.218 367.221 L111.334 367.221 L111.334 361.342 Z" fill="#000000" fill-rule="evenodd" fill-opacity="1" /><path clip-path="url(#clip230)" d="M139.251 336.736 L127.445 355.185 L139.251 355.185 L139.251 336.736 M138.024 332.661 L143.903 332.661 L143.903 355.185 L148.834 355.185 L148.834 359.073 L143.903 359.073 L143.903 367.221 L139.251 367.221 L139.251 359.073 L123.649 359.073 L123.649 354.56 L138.024 332.661 Z" fill="#000000" fill-rule="evenodd" fill-opacity="1" /><path clip-path="url(#clip230)" d="M92.6537 218.645 Q89.0427 218.645 87.214 222.21 Q85.4084 225.752 85.4084 232.881 Q85.4084 239.988 87.214 243.553 Q89.0427 247.094 92.6537 247.094 Q96.288 247.094 98.0935 243.553 Q99.9222 239.988 99.9222 232.881 Q99.9222 225.752 98.0935 222.21 Q96.288 218.645 92.6537 218.645 M92.6537 214.942 Q98.4639 214.942 101.519 219.548 Q104.598 224.131 104.598 232.881 Q104.598 241.608 101.519 246.215 Q98.4639 250.798 92.6537 250.798 Q86.8436 250.798 83.7649 246.215 Q80.7094 241.608 80.7094 232.881 Q80.7094 224.131 83.7649 219.548 Q86.8436 214.942 92.6537 214.942 Z" fill="#000000" fill-rule="evenodd" fill-opacity="1" /><path clip-path="url(#clip230)" d="M112.816 244.247 L117.7 244.247 L117.7 250.127 L112.816 250.127 L112.816 244.247 Z" fill="#000000" fill-rule="evenodd" fill-opacity="1" /><path clip-path="url(#clip230)" d="M127.931 215.567 L146.288 215.567 L146.288 219.502 L132.214 219.502 L132.214 227.974 Q133.232 227.627 134.251 227.465 Q135.269 227.28 136.288 227.28 Q142.075 227.28 145.454 230.451 Q148.834 233.622 148.834 239.039 Q148.834 244.617 145.362 247.719 Q141.89 250.798 135.57 250.798 Q133.394 250.798 131.126 250.428 Q128.88 250.057 126.473 249.316 L126.473 244.617 Q128.556 245.752 130.779 246.307 Q133.001 246.863 135.478 246.863 Q139.482 246.863 141.82 244.756 Q144.158 242.65 144.158 239.039 Q144.158 235.428 141.82 233.321 Q139.482 231.215 135.478 231.215 Q133.603 231.215 131.728 231.631 Q129.876 232.048 127.931 232.928 L127.931 215.567 Z" fill="#000000" fill-rule="evenodd" fill-opacity="1" /><path clip-path="url(#clip230)" d="M91.4963 101.551 Q87.8853 101.551 86.0566 105.115 Q84.251 108.657 84.251 115.787 Q84.251 122.893 86.0566 126.458 Q87.8853 129.999 91.4963 129.999 Q95.1306 129.999 96.9361 126.458 Q98.7648 122.893 98.7648 115.787 Q98.7648 108.657 96.9361 105.115 Q95.1306 101.551 91.4963 101.551 M91.4963 97.8469 Q97.3065 97.8469 100.362 102.453 Q103.441 107.037 103.441 115.787 Q103.441 124.513 100.362 129.12 Q97.3065 133.703 91.4963 133.703 Q85.6862 133.703 82.6075 129.12 Q79.552 124.513 79.552 115.787 Q79.552 107.037 82.6075 102.453 Q85.6862 97.8469 91.4963 97.8469 Z" fill="#000000" fill-rule="evenodd" fill-opacity="1" /><path clip-path="url(#clip230)" d="M111.658 127.152 L116.543 127.152 L116.543 133.032 L111.658 133.032 L111.658 127.152 Z" fill="#000000" fill-rule="evenodd" fill-opacity="1" /><path clip-path="url(#clip230)" d="M137.306 113.888 Q134.158 113.888 132.306 116.041 Q130.478 118.194 130.478 121.944 Q130.478 125.671 132.306 127.847 Q134.158 129.999 137.306 129.999 Q140.454 129.999 142.283 127.847 Q144.135 125.671 144.135 121.944 Q144.135 118.194 142.283 116.041 Q140.454 113.888 137.306 113.888 M146.589 99.2357 L146.589 103.495 Q144.829 102.662 143.024 102.222 Q141.241 101.782 139.482 101.782 Q134.853 101.782 132.399 104.907 Q129.968 108.032 129.621 114.351 Q130.987 112.338 133.047 111.273 Q135.107 110.185 137.584 110.185 Q142.792 110.185 145.802 113.356 Q148.834 116.504 148.834 121.944 Q148.834 127.268 145.686 130.486 Q142.538 133.703 137.306 133.703 Q131.311 133.703 128.14 129.12 Q124.968 124.513 124.968 115.787 Q124.968 107.592 128.857 102.731 Q132.746 97.8469 139.297 97.8469 Q141.056 97.8469 142.839 98.1941 Q144.644 98.5413 146.589 99.2357 Z" fill="#000000" fill-rule="evenodd" fill-opacity="1" /><polyline clip-path="url(#clip232)" style="stroke:#009af9; stroke-linecap:round; stroke-linejoin:round; stroke-width:4; stroke-opacity:1; fill:none" points="
  496.769,818.32 498.485,818.317 500.2,818.304 501.915,818.257 503.631,818.137 505.346,817.911 507.062,817.617 508.777,817.388 510.492,817.366 512.208,817.568 
  513.923,817.864 515.638,818.108 517.354,818.244 519.069,818.296 520.784,818.299 522.5,818.254 524.215,818.131 525.931,817.901 527.646,817.607 529.361,817.383 
  531.077,817.371 532.792,817.578 534.507,817.874 536.223,818.114 537.938,818.247 539.654,818.301 541.369,818.317 543.084,818.32 544.8,818.321 546.515,818.321 
  548.23,818.321 549.946,818.321 551.661,818.32 553.377,818.314 555.092,818.291 556.807,818.217 558.523,818.045 560.238,817.763 561.953,817.464 563.669,817.321 
  565.384,817.433 567.1,817.721 568.815,818.012 570.53,818.199 572.246,818.284 573.961,818.312 575.676,818.319 577.392,818.32 579.107,818.318 580.822,818.305 
  582.538,818.262 584.253,818.144 585.969,817.906 587.684,817.548 589.399,817.147 591.115,816.812 592.83,816.586 594.545,816.418 596.261,816.228 597.976,816.026 
  599.692,815.952 601.407,816.118 603.122,816.406 604.838,816.534 606.553,816.361 608.268,816.036 609.984,815.828 611.699,815.873 613.415,816.095 615.13,816.311 
  616.845,816.397 618.561,816.384 620.276,816.398 621.991,816.506 623.707,816.667 625.422,816.825 627.138,817.011 628.853,817.247 630.568,817.398 632.284,817.203 
  633.999,816.522 635.714,815.532 637.43,814.628 639.145,814.068 640.86,813.811 642.576,813.7 644.291,813.596 646.007,813.301 647.722,812.621 649.437,811.639 
  651.153,810.77 652.868,810.381 654.583,810.416 656.299,810.52 658.014,810.438 659.73,810.107 661.445,809.574 663.16,809.027 664.876,808.7 666.591,808.587 
  668.306,808.415 670.022,807.997 671.737,807.426 673.453,806.808 675.168,805.874 676.883,804.113 678.599,801.501 680.314,798.948 682.029,797.64 683.745,797.768 
  685.46,798.158 687.176,797.441 688.891,795.442 690.606,793.09 692.322,791.109 694.037,789.287 695.752,786.999 697.468,783.904 699.183,779.951 700.898,775.217 
  702.614,770.002 704.329,764.759 706.045,759.621 707.76,754.191 709.475,748.202 711.191,742.198 712.906,737.076 714.621,733.136 716.337,729.927 718.052,726.629 
  719.768,722.412 721.483,716.854 723.198,710.012 724.914,701.913 726.629,692.35 728.344,681.125 730.06,667.725 731.775,650.768 733.491,629.018 735.206,603.576 
  736.921,578.181 738.637,556.262 740.352,537.712 742.067,518.978 743.783,496.135 745.498,467.374 747.213,432.672 748.929,392.425 750.644,347.766 752.36,301.754 
  754.075,258.678 755.79,221.633 757.506,191.301 759.221,166.782 760.936,146.198 762.652,126.49 764.367,105.174 766.083,84.0163 767.798,69.7191 769.513,69.7026 
  771.229,87.2629 772.944,120.171 774.659,162.819 776.375,209.847 778.09,259.013 779.806,311.717 781.521,370.565 783.236,435.432 784.952,501.611 786.667,562.242 
  788.382,612.857 790.098,653.517 791.813,686.663 793.529,713.827 795.244,735.155 796.959,751.336 798.675,764.491 800.39,776.746 802.105,788.484 803.821,798.427 
  805.536,805.305 807.251,809.125 808.967,810.982 810.682,812.063 812.398,812.977 814.113,813.81 815.828,814.546 817.544,815.27 819.259,816.02 820.974,816.646 
  822.69,817.002 824.405,817.161 826.121,817.331 827.836,817.605 829.551,817.909 831.267,818.137 832.982,818.257 834.697,818.304 836.413,818.317 838.128,818.32 
  
  "/>
<polyline clip-path="url(#clip232)" style="stroke:#e26f46; stroke-linecap:round; stroke-linejoin:round; stroke-width:4; stroke-opacity:1; fill:none" points="
  220.501,818.228 223.903,818.219 227.304,818.21 258.756,818.075 290.207,817.802 309.108,817.527 328.009,817.13 343.989,816.665 359.97,816.048 368.65,815.636 
  377.329,815.162 386.009,814.618 394.689,813.996 402.691,813.349 410.692,812.622 418.694,811.811 426.696,810.908 435.275,809.832 443.854,808.635 452.433,807.311 
  461.012,805.852 470.951,803.986 480.891,801.922 490.83,799.655 500.77,797.181 509.603,794.807 518.436,792.27 527.269,789.573 536.102,786.722 543.847,784.101 
  551.593,781.376 559.339,778.555 567.085,775.648 583.975,769.074 600.865,762.303 617.855,755.475 634.845,748.838 639.541,747.067 644.238,745.333 648.934,743.64 
  653.63,741.993 658.326,740.396 663.023,738.856 667.719,737.375 672.415,735.959 676.883,734.675 681.352,733.457 685.82,732.309 690.289,731.233 694.757,730.233 
  699.225,729.311 703.694,728.471 708.162,727.715 712.808,727.019 717.454,726.419 722.1,725.916 726.746,725.512 731.392,725.209 736.038,725.006 740.684,724.905 
  745.33,724.906 749.241,724.986 753.152,725.138 757.063,725.363 760.974,725.658 764.885,726.024 768.796,726.46 772.707,726.965 776.618,727.537 781.393,728.325 
  786.168,729.21 790.943,730.188 795.718,731.255 800.493,732.409 805.267,733.646 810.042,734.961 814.817,736.351 823.565,739.074 832.314,742.004 836.688,743.537 
  841.062,745.11 845.436,746.72 849.81,748.362 865.969,754.645 882.128,761.126 898.497,767.706 914.866,774.133 924.038,777.613 933.211,780.979 942.383,784.212 
  951.555,787.298 959.867,789.956 968.179,792.478 976.49,794.858 984.802,797.093 994.318,799.473 1003.83,801.663 1013.35,803.665 1022.87,805.486 1031.68,807.016 
  1040.49,808.403 1049.3,809.654 1058.11,810.777 1066.8,811.766 1075.49,812.648 1084.17,813.43 1092.86,814.12 1101.29,814.71 1109.73,815.228 1118.16,815.682 
  1126.6,816.077 1143.89,816.729 1161.18,817.209 1180.13,817.584 1199.07,817.841 1226.59,818.071 1254.12,818.196 1259.76,818.213 1265.41,818.228 
  "/>
<path clip-path="url(#clip230)" d="
M1083.62 229.215 L1259.84 229.215 L1259.84 73.6953 L1083.62 73.6953  Z
  " fill="#ffffff" fill-rule="evenodd" fill-opacity="1"/>
<polyline clip-path="url(#clip230)" style="stroke:#000000; stroke-linecap:round; stroke-linejoin:round; stroke-width:4; stroke-opacity:1; fill:none" points="
  1083.62,229.215 1259.84,229.215 1259.84,73.6953 1083.62,73.6953 1083.62,229.215 
  "/>
<polyline clip-path="url(#clip230)" style="stroke:#009af9; stroke-linecap:round; stroke-linejoin:round; stroke-width:4; stroke-opacity:1; fill:none" points="
  1095.93,125.535 1169.77,125.535 
  "/>
<path clip-path="url(#clip230)" d="M1182.07 152.676 L1182.07 116.889 L1186.33 116.889 L1186.33 133.001 Q1186.33 136.357 1187.93 138.07 Q1189.53 139.783 1192.65 139.783 Q1196.08 139.783 1197.79 137.838 Q1199.53 135.894 1199.53 132.005 L1199.53 116.889 L1203.79 116.889 L1203.79 136.843 Q1203.79 138.232 1204.18 138.903 Q1204.6 139.551 1205.45 139.551 Q1205.66 139.551 1206.03 139.436 Q1206.4 139.297 1207.05 139.019 L1207.05 142.445 Q1206.1 142.977 1205.25 143.232 Q1204.41 143.487 1203.6 143.487 Q1202.01 143.487 1201.06 142.584 Q1200.11 141.681 1199.76 139.829 Q1198.6 141.658 1196.91 142.584 Q1195.25 143.487 1192.98 143.487 Q1190.62 143.487 1188.95 142.584 Q1187.31 141.681 1186.33 139.875 L1186.33 152.676 L1182.07 152.676 Z" fill="#000000" fill-rule="evenodd" fill-opacity="1" /><path clip-path="url(#clip230)" d="M1224.6 134.042 L1224.6 142.815 L1221.91 142.815 L1221.91 134.135 Q1221.91 132.075 1221.01 131.056 Q1220.11 130.014 1218.3 130.014 Q1216.13 130.014 1214.88 131.264 Q1213.63 132.491 1213.63 134.621 L1213.63 142.815 L1210.92 142.815 L1210.92 128.301 L1213.63 128.301 L1213.63 130.547 Q1214.57 129.251 1215.87 128.602 Q1217.19 127.954 1218.9 127.954 Q1221.7 127.954 1223.14 129.505 Q1224.6 131.056 1224.6 134.042 Z" fill="#000000" fill-rule="evenodd" fill-opacity="1" /><polyline clip-path="url(#clip230)" style="stroke:#e26f46; stroke-linecap:round; stroke-linejoin:round; stroke-width:4; stroke-opacity:1; fill:none" points="
  1095.93,177.375 1169.77,177.375 
  "/>
<path clip-path="url(#clip230)" d="M1182.07 204.516 L1182.07 168.729 L1186.33 168.729 L1186.33 184.841 Q1186.33 188.197 1187.93 189.91 Q1189.53 191.623 1192.65 191.623 Q1196.08 191.623 1197.79 189.678 Q1199.53 187.734 1199.53 183.845 L1199.53 168.729 L1203.79 168.729 L1203.79 188.683 Q1203.79 190.072 1204.18 190.743 Q1204.6 191.391 1205.45 191.391 Q1205.66 191.391 1206.03 191.276 Q1206.4 191.137 1207.05 190.859 L1207.05 194.285 Q1206.1 194.817 1205.25 195.072 Q1204.41 195.327 1203.6 195.327 Q1202.01 195.327 1201.06 194.424 Q1200.11 193.521 1199.76 191.669 Q1198.6 193.498 1196.91 194.424 Q1195.25 195.327 1192.98 195.327 Q1190.62 195.327 1188.95 194.424 Q1187.31 193.521 1186.33 191.715 L1186.33 204.516 L1182.07 204.516 Z" fill="#000000" fill-rule="evenodd" fill-opacity="1" /><path clip-path="url(#clip230)" d="M1223.28 163.174 Q1219.67 163.174 1217.84 166.739 Q1216.03 170.28 1216.03 177.41 Q1216.03 184.516 1217.84 188.081 Q1219.67 191.623 1223.28 191.623 Q1226.91 191.623 1228.72 188.081 Q1230.55 184.516 1230.55 177.41 Q1230.55 170.28 1228.72 166.739 Q1226.91 163.174 1223.28 163.174 M1223.28 159.47 Q1229.09 159.47 1232.14 164.077 Q1235.22 168.66 1235.22 177.41 Q1235.22 186.137 1232.14 190.743 Q1229.09 195.327 1223.28 195.327 Q1217.47 195.327 1214.39 190.743 Q1211.33 186.137 1211.33 177.41 Q1211.33 168.66 1214.39 164.077 Q1217.47 159.47 1223.28 159.47 Z" fill="#000000" fill-rule="evenodd" fill-opacity="1" /><path clip-path="url(#clip230)" d="
M1533.15 840.779 L2640.76 840.779 L2640.76 47.2441 L1533.15 47.2441  Z
  " fill="#ffffff" fill-rule="evenodd" fill-opacity="1"/>
<defs>
  <clipPath id="clip233">
    <rect x="1533" y="47" width="1109" height="795"/>
  </clipPath>
</defs>
<polyline clip-path="url(#clip233)" style="stroke:#000000; stroke-linecap:round; stroke-linejoin:round; stroke-width:2; stroke-opacity:0.1; fill:none" points="
  1533.15,840.779 1533.15,47.2441 
  "/>
<polyline clip-path="url(#clip233)" style="stroke:#000000; stroke-linecap:round; stroke-linejoin:round; stroke-width:2; stroke-opacity:0.1; fill:none" points="
  1902.35,840.779 1902.35,47.2441 
  "/>
<polyline clip-path="url(#clip233)" style="stroke:#000000; stroke-linecap:round; stroke-linejoin:round; stroke-width:2; stroke-opacity:0.1; fill:none" points="
  2271.56,840.779 2271.56,47.2441 
  "/>
<polyline clip-path="url(#clip233)" style="stroke:#000000; stroke-linecap:round; stroke-linejoin:round; stroke-width:2; stroke-opacity:0.1; fill:none" points="
  2640.76,840.779 2640.76,47.2441 
  "/>
<polyline clip-path="url(#clip230)" style="stroke:#000000; stroke-linecap:round; stroke-linejoin:round; stroke-width:4; stroke-opacity:1; fill:none" points="
  1533.15,840.779 2640.76,840.779 
  "/>
<polyline clip-path="url(#clip230)" style="stroke:#000000; stroke-linecap:round; stroke-linejoin:round; stroke-width:4; stroke-opacity:1; fill:none" points="
  1533.15,840.779 1533.15,821.882 
  "/>
<polyline clip-path="url(#clip230)" style="stroke:#000000; stroke-linecap:round; stroke-linejoin:round; stroke-width:4; stroke-opacity:1; fill:none" points="
  1902.35,840.779 1902.35,821.882 
  "/>
<polyline clip-path="url(#clip230)" style="stroke:#000000; stroke-linecap:round; stroke-linejoin:round; stroke-width:4; stroke-opacity:1; fill:none" points="
  2271.56,840.779 2271.56,821.882 
  "/>
<polyline clip-path="url(#clip230)" style="stroke:#000000; stroke-linecap:round; stroke-linejoin:round; stroke-width:4; stroke-opacity:1; fill:none" points="
  2640.76,840.779 2640.76,821.882 
  "/>
<path clip-path="url(#clip230)" d="M1533.15 874.002 Q1529.54 874.002 1527.71 877.567 Q1525.91 881.108 1525.91 888.238 Q1525.91 895.344 1527.71 898.909 Q1529.54 902.451 1533.15 902.451 Q1536.79 902.451 1538.59 898.909 Q1540.42 895.344 1540.42 888.238 Q1540.42 881.108 1538.59 877.567 Q1536.79 874.002 1533.15 874.002 M1533.15 870.298 Q1538.96 870.298 1542.02 874.905 Q1545.1 879.488 1545.1 888.238 Q1545.1 896.965 1542.02 901.571 Q1538.96 906.155 1533.15 906.155 Q1527.34 906.155 1524.27 901.571 Q1521.21 896.965 1521.21 888.238 Q1521.21 879.488 1524.27 874.905 Q1527.34 870.298 1533.15 870.298 Z" fill="#000000" fill-rule="evenodd" fill-opacity="1" /><path clip-path="url(#clip230)" d="M1877.04 901.548 L1884.68 901.548 L1884.68 875.183 L1876.37 876.849 L1876.37 872.59 L1884.63 870.923 L1889.31 870.923 L1889.31 901.548 L1896.95 901.548 L1896.95 905.483 L1877.04 905.483 L1877.04 901.548 Z" fill="#000000" fill-rule="evenodd" fill-opacity="1" /><path clip-path="url(#clip230)" d="M1916.39 874.002 Q1912.78 874.002 1910.95 877.567 Q1909.15 881.108 1909.15 888.238 Q1909.15 895.344 1910.95 898.909 Q1912.78 902.451 1916.39 902.451 Q1920.03 902.451 1921.83 898.909 Q1923.66 895.344 1923.66 888.238 Q1923.66 881.108 1921.83 877.567 Q1920.03 874.002 1916.39 874.002 M1916.39 870.298 Q1922.2 870.298 1925.26 874.905 Q1928.34 879.488 1928.34 888.238 Q1928.34 896.965 1925.26 901.571 Q1922.2 906.155 1916.39 906.155 Q1910.58 906.155 1907.51 901.571 Q1904.45 896.965 1904.45 888.238 Q1904.45 879.488 1907.51 874.905 Q1910.58 870.298 1916.39 870.298 Z" fill="#000000" fill-rule="evenodd" fill-opacity="1" /><path clip-path="url(#clip230)" d="M2250.33 901.548 L2266.65 901.548 L2266.65 905.483 L2244.7 905.483 L2244.7 901.548 Q2247.37 898.794 2251.95 894.164 Q2256.56 889.511 2257.74 888.169 Q2259.98 885.645 2260.86 883.909 Q2261.76 882.15 2261.76 880.46 Q2261.76 877.706 2259.82 875.97 Q2257.9 874.233 2254.8 874.233 Q2252.6 874.233 2250.14 874.997 Q2247.71 875.761 2244.94 877.312 L2244.94 872.59 Q2247.76 871.456 2250.21 870.877 Q2252.67 870.298 2254.7 870.298 Q2260.07 870.298 2263.27 872.983 Q2266.46 875.669 2266.46 880.159 Q2266.46 882.289 2265.65 884.21 Q2264.87 886.108 2262.76 888.701 Q2262.18 889.372 2259.08 892.59 Q2255.98 895.784 2250.33 901.548 Z" fill="#000000" fill-rule="evenodd" fill-opacity="1" /><path clip-path="url(#clip230)" d="M2286.46 874.002 Q2282.85 874.002 2281.02 877.567 Q2279.22 881.108 2279.22 888.238 Q2279.22 895.344 2281.02 898.909 Q2282.85 902.451 2286.46 902.451 Q2290.1 902.451 2291.9 898.909 Q2293.73 895.344 2293.73 888.238 Q2293.73 881.108 2291.9 877.567 Q2290.1 874.002 2286.46 874.002 M2286.46 870.298 Q2292.27 870.298 2295.33 874.905 Q2298.41 879.488 2298.41 888.238 Q2298.41 896.965 2295.33 901.571 Q2292.27 906.155 2286.46 906.155 Q2280.65 906.155 2277.57 901.571 Q2274.52 896.965 2274.52 888.238 Q2274.52 879.488 2277.57 874.905 Q2280.65 870.298 2286.46 870.298 Z" fill="#000000" fill-rule="evenodd" fill-opacity="1" /><path clip-path="url(#clip230)" d="M2629.6 886.849 Q2632.96 887.567 2634.83 889.835 Q2636.73 892.104 2636.73 895.437 Q2636.73 900.553 2633.21 903.354 Q2629.69 906.155 2623.21 906.155 Q2621.03 906.155 2618.72 905.715 Q2616.43 905.298 2613.97 904.442 L2613.97 899.928 Q2615.92 901.062 2618.23 901.641 Q2620.55 902.219 2623.07 902.219 Q2627.47 902.219 2629.76 900.483 Q2632.08 898.747 2632.08 895.437 Q2632.08 892.382 2629.92 890.669 Q2627.79 888.932 2623.97 888.932 L2619.95 888.932 L2619.95 885.09 L2624.16 885.09 Q2627.61 885.09 2629.44 883.724 Q2631.27 882.335 2631.27 879.743 Q2631.27 877.081 2629.37 875.669 Q2627.49 874.233 2623.97 874.233 Q2622.05 874.233 2619.85 874.65 Q2617.65 875.067 2615.02 875.946 L2615.02 871.78 Q2617.68 871.039 2619.99 870.669 Q2622.33 870.298 2624.39 870.298 Q2629.71 870.298 2632.82 872.729 Q2635.92 875.136 2635.92 879.257 Q2635.92 882.127 2634.27 884.118 Q2632.63 886.085 2629.6 886.849 Z" fill="#000000" fill-rule="evenodd" fill-opacity="1" /><path clip-path="url(#clip230)" d="M2655.59 874.002 Q2651.98 874.002 2650.15 877.567 Q2648.35 881.108 2648.35 888.238 Q2648.35 895.344 2650.15 898.909 Q2651.98 902.451 2655.59 902.451 Q2659.23 902.451 2661.03 898.909 Q2662.86 895.344 2662.86 888.238 Q2662.86 881.108 2661.03 877.567 Q2659.23 874.002 2655.59 874.002 M2655.59 870.298 Q2661.4 870.298 2664.46 874.905 Q2667.54 879.488 2667.54 888.238 Q2667.54 896.965 2664.46 901.571 Q2661.4 906.155 2655.59 906.155 Q2649.78 906.155 2646.7 901.571 Q2643.65 896.965 2643.65 888.238 Q2643.65 879.488 2646.7 874.905 Q2649.78 870.298 2655.59 870.298 Z" fill="#000000" fill-rule="evenodd" fill-opacity="1" /><polyline clip-path="url(#clip233)" style="stroke:#000000; stroke-linecap:round; stroke-linejoin:round; stroke-width:2; stroke-opacity:0.1; fill:none" points="
  1533.15,818.321 2640.76,818.321 
  "/>
<polyline clip-path="url(#clip233)" style="stroke:#000000; stroke-linecap:round; stroke-linejoin:round; stroke-width:2; stroke-opacity:0.1; fill:none" points="
  1533.15,664.176 2640.76,664.176 
  "/>
<polyline clip-path="url(#clip233)" style="stroke:#000000; stroke-linecap:round; stroke-linejoin:round; stroke-width:2; stroke-opacity:0.1; fill:none" points="
  1533.15,510.03 2640.76,510.03 
  "/>
<polyline clip-path="url(#clip233)" style="stroke:#000000; stroke-linecap:round; stroke-linejoin:round; stroke-width:2; stroke-opacity:0.1; fill:none" points="
  1533.15,355.885 2640.76,355.885 
  "/>
<polyline clip-path="url(#clip233)" style="stroke:#000000; stroke-linecap:round; stroke-linejoin:round; stroke-width:2; stroke-opacity:0.1; fill:none" points="
  1533.15,201.74 2640.76,201.74 
  "/>
<polyline clip-path="url(#clip233)" style="stroke:#000000; stroke-linecap:round; stroke-linejoin:round; stroke-width:2; stroke-opacity:0.1; fill:none" points="
  1533.15,47.5951 2640.76,47.5951 
  "/>
<polyline clip-path="url(#clip230)" style="stroke:#000000; stroke-linecap:round; stroke-linejoin:round; stroke-width:4; stroke-opacity:1; fill:none" points="
  1533.15,840.779 1533.15,47.2441 
  "/>
<polyline clip-path="url(#clip230)" style="stroke:#000000; stroke-linecap:round; stroke-linejoin:round; stroke-width:4; stroke-opacity:1; fill:none" points="
  1533.15,818.321 1552.05,818.321 
  "/>
<polyline clip-path="url(#clip230)" style="stroke:#000000; stroke-linecap:round; stroke-linejoin:round; stroke-width:4; stroke-opacity:1; fill:none" points="
  1533.15,664.176 1552.05,664.176 
  "/>
<polyline clip-path="url(#clip230)" style="stroke:#000000; stroke-linecap:round; stroke-linejoin:round; stroke-width:4; stroke-opacity:1; fill:none" points="
  1533.15,510.03 1552.05,510.03 
  "/>
<polyline clip-path="url(#clip230)" style="stroke:#000000; stroke-linecap:round; stroke-linejoin:round; stroke-width:4; stroke-opacity:1; fill:none" points="
  1533.15,355.885 1552.05,355.885 
  "/>
<polyline clip-path="url(#clip230)" style="stroke:#000000; stroke-linecap:round; stroke-linejoin:round; stroke-width:4; stroke-opacity:1; fill:none" points="
  1533.15,201.74 1552.05,201.74 
  "/>
<polyline clip-path="url(#clip230)" style="stroke:#000000; stroke-linecap:round; stroke-linejoin:round; stroke-width:4; stroke-opacity:1; fill:none" points="
  1533.15,47.5951 1552.05,47.5951 
  "/>
<path clip-path="url(#clip230)" d="M1405.5 804.119 Q1401.89 804.119 1400.06 807.684 Q1398.25 811.226 1398.25 818.355 Q1398.25 825.462 1400.06 829.027 Q1401.89 832.568 1405.5 832.568 Q1409.13 832.568 1410.94 829.027 Q1412.76 825.462 1412.76 818.355 Q1412.76 811.226 1410.94 807.684 Q1409.13 804.119 1405.5 804.119 M1405.5 800.416 Q1411.31 800.416 1414.36 805.022 Q1417.44 809.606 1417.44 818.355 Q1417.44 827.082 1414.36 831.689 Q1411.31 836.272 1405.5 836.272 Q1399.69 836.272 1396.61 831.689 Q1393.55 827.082 1393.55 818.355 Q1393.55 809.606 1396.61 805.022 Q1399.69 800.416 1405.5 800.416 Z" fill="#000000" fill-rule="evenodd" fill-opacity="1" /><path clip-path="url(#clip230)" d="M1425.66 829.721 L1430.54 829.721 L1430.54 835.601 L1425.66 835.601 L1425.66 829.721 Z" fill="#000000" fill-rule="evenodd" fill-opacity="1" /><path clip-path="url(#clip230)" d="M1450.73 804.119 Q1447.12 804.119 1445.29 807.684 Q1443.48 811.226 1443.48 818.355 Q1443.48 825.462 1445.29 829.027 Q1447.12 832.568 1450.73 832.568 Q1454.36 832.568 1456.17 829.027 Q1458 825.462 1458 818.355 Q1458 811.226 1456.17 807.684 Q1454.36 804.119 1450.73 804.119 M1450.73 800.416 Q1456.54 800.416 1459.59 805.022 Q1462.67 809.606 1462.67 818.355 Q1462.67 827.082 1459.59 831.689 Q1456.54 836.272 1450.73 836.272 Q1444.92 836.272 1441.84 831.689 Q1438.78 827.082 1438.78 818.355 Q1438.78 809.606 1441.84 805.022 Q1444.92 800.416 1450.73 800.416 Z" fill="#000000" fill-rule="evenodd" fill-opacity="1" /><path clip-path="url(#clip230)" d="M1480.89 804.119 Q1477.28 804.119 1475.45 807.684 Q1473.64 811.226 1473.64 818.355 Q1473.64 825.462 1475.45 829.027 Q1477.28 832.568 1480.89 832.568 Q1484.52 832.568 1486.33 829.027 Q1488.16 825.462 1488.16 818.355 Q1488.16 811.226 1486.33 807.684 Q1484.52 804.119 1480.89 804.119 M1480.89 800.416 Q1486.7 800.416 1489.76 805.022 Q1492.83 809.606 1492.83 818.355 Q1492.83 827.082 1489.76 831.689 Q1486.7 836.272 1480.89 836.272 Q1475.08 836.272 1472 831.689 Q1468.95 827.082 1468.95 818.355 Q1468.95 809.606 1472 805.022 Q1475.08 800.416 1480.89 800.416 Z" fill="#000000" fill-rule="evenodd" fill-opacity="1" /><path clip-path="url(#clip230)" d="M1406.49 649.974 Q1402.88 649.974 1401.05 653.539 Q1399.25 657.081 1399.25 664.21 Q1399.25 671.317 1401.05 674.882 Q1402.88 678.423 1406.49 678.423 Q1410.13 678.423 1411.93 674.882 Q1413.76 671.317 1413.76 664.21 Q1413.76 657.081 1411.93 653.539 Q1410.13 649.974 1406.49 649.974 M1406.49 646.271 Q1412.3 646.271 1415.36 650.877 Q1418.44 655.46 1418.44 664.21 Q1418.44 672.937 1415.36 677.544 Q1412.3 682.127 1406.49 682.127 Q1400.68 682.127 1397.6 677.544 Q1394.55 672.937 1394.55 664.21 Q1394.55 655.46 1397.6 650.877 Q1400.68 646.271 1406.49 646.271 Z" fill="#000000" fill-rule="evenodd" fill-opacity="1" /><path clip-path="url(#clip230)" d="M1426.65 675.576 L1431.54 675.576 L1431.54 681.456 L1426.65 681.456 L1426.65 675.576 Z" fill="#000000" fill-rule="evenodd" fill-opacity="1" /><path clip-path="url(#clip230)" d="M1451.72 649.974 Q1448.11 649.974 1446.28 653.539 Q1444.48 657.081 1444.48 664.21 Q1444.48 671.317 1446.28 674.882 Q1448.11 678.423 1451.72 678.423 Q1455.36 678.423 1457.16 674.882 Q1458.99 671.317 1458.99 664.21 Q1458.99 657.081 1457.16 653.539 Q1455.36 649.974 1451.72 649.974 M1451.72 646.271 Q1457.53 646.271 1460.59 650.877 Q1463.67 655.46 1463.67 664.21 Q1463.67 672.937 1460.59 677.544 Q1457.53 682.127 1451.72 682.127 Q1445.91 682.127 1442.83 677.544 Q1439.78 672.937 1439.78 664.21 Q1439.78 655.46 1442.83 650.877 Q1445.91 646.271 1451.72 646.271 Z" fill="#000000" fill-rule="evenodd" fill-opacity="1" /><path clip-path="url(#clip230)" d="M1471.93 646.896 L1490.29 646.896 L1490.29 650.831 L1476.21 650.831 L1476.21 659.303 Q1477.23 658.956 1478.25 658.794 Q1479.27 658.609 1480.29 658.609 Q1486.07 658.609 1489.45 661.78 Q1492.83 664.951 1492.83 670.368 Q1492.83 675.946 1489.36 679.048 Q1485.89 682.127 1479.57 682.127 Q1477.39 682.127 1475.13 681.757 Q1472.88 681.386 1470.47 680.645 L1470.47 675.946 Q1472.56 677.081 1474.78 677.636 Q1477 678.192 1479.48 678.192 Q1483.48 678.192 1485.82 676.085 Q1488.16 673.979 1488.16 670.368 Q1488.16 666.757 1485.82 664.65 Q1483.48 662.544 1479.48 662.544 Q1477.6 662.544 1475.73 662.96 Q1473.88 663.377 1471.93 664.257 L1471.93 646.896 Z" fill="#000000" fill-rule="evenodd" fill-opacity="1" /><path clip-path="url(#clip230)" d="M1405.5 495.829 Q1401.89 495.829 1400.06 499.394 Q1398.25 502.936 1398.25 510.065 Q1398.25 517.172 1400.06 520.736 Q1401.89 524.278 1405.5 524.278 Q1409.13 524.278 1410.94 520.736 Q1412.76 517.172 1412.76 510.065 Q1412.76 502.936 1410.94 499.394 Q1409.13 495.829 1405.5 495.829 M1405.5 492.125 Q1411.31 492.125 1414.36 496.732 Q1417.44 501.315 1417.44 510.065 Q1417.44 518.792 1414.36 523.398 Q1411.31 527.982 1405.5 527.982 Q1399.69 527.982 1396.61 523.398 Q1393.55 518.792 1393.55 510.065 Q1393.55 501.315 1396.61 496.732 Q1399.69 492.125 1405.5 492.125 Z" fill="#000000" fill-rule="evenodd" fill-opacity="1" /><path clip-path="url(#clip230)" d="M1425.66 521.431 L1430.54 521.431 L1430.54 527.31 L1425.66 527.31 L1425.66 521.431 Z" fill="#000000" fill-rule="evenodd" fill-opacity="1" /><path clip-path="url(#clip230)" d="M1441.54 523.375 L1449.18 523.375 L1449.18 497.01 L1440.87 498.676 L1440.87 494.417 L1449.13 492.75 L1453.81 492.75 L1453.81 523.375 L1461.45 523.375 L1461.45 527.31 L1441.54 527.31 L1441.54 523.375 Z" fill="#000000" fill-rule="evenodd" fill-opacity="1" /><path clip-path="url(#clip230)" d="M1480.89 495.829 Q1477.28 495.829 1475.45 499.394 Q1473.64 502.936 1473.64 510.065 Q1473.64 517.172 1475.45 520.736 Q1477.28 524.278 1480.89 524.278 Q1484.52 524.278 1486.33 520.736 Q1488.16 517.172 1488.16 510.065 Q1488.16 502.936 1486.33 499.394 Q1484.52 495.829 1480.89 495.829 M1480.89 492.125 Q1486.7 492.125 1489.76 496.732 Q1492.83 501.315 1492.83 510.065 Q1492.83 518.792 1489.76 523.398 Q1486.7 527.982 1480.89 527.982 Q1475.08 527.982 1472 523.398 Q1468.95 518.792 1468.95 510.065 Q1468.95 501.315 1472 496.732 Q1475.08 492.125 1480.89 492.125 Z" fill="#000000" fill-rule="evenodd" fill-opacity="1" /><path clip-path="url(#clip230)" d="M1406.49 341.684 Q1402.88 341.684 1401.05 345.249 Q1399.25 348.79 1399.25 355.92 Q1399.25 363.027 1401.05 366.591 Q1402.88 370.133 1406.49 370.133 Q1410.13 370.133 1411.93 366.591 Q1413.76 363.027 1413.76 355.92 Q1413.76 348.79 1411.93 345.249 Q1410.13 341.684 1406.49 341.684 M1406.49 337.98 Q1412.3 337.98 1415.36 342.587 Q1418.44 347.17 1418.44 355.92 Q1418.44 364.647 1415.36 369.253 Q1412.3 373.837 1406.49 373.837 Q1400.68 373.837 1397.6 369.253 Q1394.55 364.647 1394.55 355.92 Q1394.55 347.17 1397.6 342.587 Q1400.68 337.98 1406.49 337.98 Z" fill="#000000" fill-rule="evenodd" fill-opacity="1" /><path clip-path="url(#clip230)" d="M1426.65 367.286 L1431.54 367.286 L1431.54 373.165 L1426.65 373.165 L1426.65 367.286 Z" fill="#000000" fill-rule="evenodd" fill-opacity="1" /><path clip-path="url(#clip230)" d="M1442.53 369.23 L1450.17 369.23 L1450.17 342.865 L1441.86 344.531 L1441.86 340.272 L1450.13 338.605 L1454.8 338.605 L1454.8 369.23 L1462.44 369.23 L1462.44 373.165 L1442.53 373.165 L1442.53 369.23 Z" fill="#000000" fill-rule="evenodd" fill-opacity="1" /><path clip-path="url(#clip230)" d="M1471.93 338.605 L1490.29 338.605 L1490.29 342.541 L1476.21 342.541 L1476.21 351.013 Q1477.23 350.665 1478.25 350.503 Q1479.27 350.318 1480.29 350.318 Q1486.07 350.318 1489.45 353.49 Q1492.83 356.661 1492.83 362.077 Q1492.83 367.656 1489.36 370.758 Q1485.89 373.837 1479.57 373.837 Q1477.39 373.837 1475.13 373.466 Q1472.88 373.096 1470.47 372.355 L1470.47 367.656 Q1472.56 368.79 1474.78 369.346 Q1477 369.901 1479.48 369.901 Q1483.48 369.901 1485.82 367.795 Q1488.16 365.689 1488.16 362.077 Q1488.16 358.466 1485.82 356.36 Q1483.48 354.253 1479.48 354.253 Q1477.6 354.253 1475.73 354.67 Q1473.88 355.087 1471.93 355.966 L1471.93 338.605 Z" fill="#000000" fill-rule="evenodd" fill-opacity="1" /><path clip-path="url(#clip230)" d="M1405.5 187.539 Q1401.89 187.539 1400.06 191.104 Q1398.25 194.645 1398.25 201.775 Q1398.25 208.881 1400.06 212.446 Q1401.89 215.988 1405.5 215.988 Q1409.13 215.988 1410.94 212.446 Q1412.76 208.881 1412.76 201.775 Q1412.76 194.645 1410.94 191.104 Q1409.13 187.539 1405.5 187.539 M1405.5 183.835 Q1411.31 183.835 1414.36 188.442 Q1417.44 193.025 1417.44 201.775 Q1417.44 210.502 1414.36 215.108 Q1411.31 219.692 1405.5 219.692 Q1399.69 219.692 1396.61 215.108 Q1393.55 210.502 1393.55 201.775 Q1393.55 193.025 1396.61 188.442 Q1399.69 183.835 1405.5 183.835 Z" fill="#000000" fill-rule="evenodd" fill-opacity="1" /><path clip-path="url(#clip230)" d="M1425.66 213.141 L1430.54 213.141 L1430.54 219.02 L1425.66 219.02 L1425.66 213.141 Z" fill="#000000" fill-rule="evenodd" fill-opacity="1" /><path clip-path="url(#clip230)" d="M1444.76 215.085 L1461.07 215.085 L1461.07 219.02 L1439.13 219.02 L1439.13 215.085 Q1441.79 212.33 1446.38 207.701 Q1450.98 203.048 1452.16 201.706 Q1454.41 199.182 1455.29 197.446 Q1456.19 195.687 1456.19 193.997 Q1456.19 191.243 1454.25 189.507 Q1452.32 187.77 1449.22 187.77 Q1447.02 187.77 1444.57 188.534 Q1442.14 189.298 1439.36 190.849 L1439.36 186.127 Q1442.19 184.993 1444.64 184.414 Q1447.09 183.835 1449.13 183.835 Q1454.5 183.835 1457.7 186.52 Q1460.89 189.206 1460.89 193.696 Q1460.89 195.826 1460.08 197.747 Q1459.29 199.645 1457.19 202.238 Q1456.61 202.909 1453.51 206.127 Q1450.4 209.321 1444.76 215.085 Z" fill="#000000" fill-rule="evenodd" fill-opacity="1" /><path clip-path="url(#clip230)" d="M1480.89 187.539 Q1477.28 187.539 1475.45 191.104 Q1473.64 194.645 1473.64 201.775 Q1473.64 208.881 1475.45 212.446 Q1477.28 215.988 1480.89 215.988 Q1484.52 215.988 1486.33 212.446 Q1488.16 208.881 1488.16 201.775 Q1488.16 194.645 1486.33 191.104 Q1484.52 187.539 1480.89 187.539 M1480.89 183.835 Q1486.7 183.835 1489.76 188.442 Q1492.83 193.025 1492.83 201.775 Q1492.83 210.502 1489.76 215.108 Q1486.7 219.692 1480.89 219.692 Q1475.08 219.692 1472 215.108 Q1468.95 210.502 1468.95 201.775 Q1468.95 193.025 1472 188.442 Q1475.08 183.835 1480.89 183.835 Z" fill="#000000" fill-rule="evenodd" fill-opacity="1" /><path clip-path="url(#clip230)" d="M1406.49 33.3938 Q1402.88 33.3938 1401.05 36.9586 Q1399.25 40.5002 1399.25 47.6298 Q1399.25 54.7363 1401.05 58.3011 Q1402.88 61.8427 1406.49 61.8427 Q1410.13 61.8427 1411.93 58.3011 Q1413.76 54.7363 1413.76 47.6298 Q1413.76 40.5002 1411.93 36.9586 Q1410.13 33.3938 1406.49 33.3938 M1406.49 29.6901 Q1412.3 29.6901 1415.36 34.2966 Q1418.44 38.8799 1418.44 47.6298 Q1418.44 56.3566 1415.36 60.9631 Q1412.3 65.5464 1406.49 65.5464 Q1400.68 65.5464 1397.6 60.9631 Q1394.55 56.3566 1394.55 47.6298 Q1394.55 38.8799 1397.6 34.2966 Q1400.68 29.6901 1406.49 29.6901 Z" fill="#000000" fill-rule="evenodd" fill-opacity="1" /><path clip-path="url(#clip230)" d="M1426.65 58.9955 L1431.54 58.9955 L1431.54 64.8751 L1426.65 64.8751 L1426.65 58.9955 Z" fill="#000000" fill-rule="evenodd" fill-opacity="1" /><path clip-path="url(#clip230)" d="M1445.75 60.9399 L1462.07 60.9399 L1462.07 64.8751 L1440.13 64.8751 L1440.13 60.9399 Q1442.79 58.1853 1447.37 53.5557 Q1451.98 48.903 1453.16 47.5604 Q1455.4 45.0372 1456.28 43.3011 Q1457.19 41.5419 1457.19 39.8521 Q1457.19 37.0975 1455.24 35.3614 Q1453.32 33.6253 1450.22 33.6253 Q1448.02 33.6253 1445.57 34.3892 Q1443.14 35.153 1440.36 36.704 L1440.36 31.9818 Q1443.18 30.8475 1445.64 30.2688 Q1448.09 29.6901 1450.13 29.6901 Q1455.5 29.6901 1458.69 32.3753 Q1461.89 35.0604 1461.89 39.5512 Q1461.89 41.6808 1461.07 43.6021 Q1460.29 45.5002 1458.18 48.0928 Q1457.6 48.7641 1454.5 51.9817 Q1451.4 55.1761 1445.75 60.9399 Z" fill="#000000" fill-rule="evenodd" fill-opacity="1" /><path clip-path="url(#clip230)" d="M1471.93 30.3151 L1490.29 30.3151 L1490.29 34.2503 L1476.21 34.2503 L1476.21 42.7224 Q1477.23 42.3752 1478.25 42.2132 Q1479.27 42.028 1480.29 42.028 Q1486.07 42.028 1489.45 45.1993 Q1492.83 48.3706 1492.83 53.7872 Q1492.83 59.3659 1489.36 62.4677 Q1485.89 65.5464 1479.57 65.5464 Q1477.39 65.5464 1475.13 65.176 Q1472.88 64.8057 1470.47 64.0649 L1470.47 59.3659 Q1472.56 60.5001 1474.78 61.0557 Q1477 61.6112 1479.48 61.6112 Q1483.48 61.6112 1485.82 59.5048 Q1488.16 57.3983 1488.16 53.7872 Q1488.16 50.1761 1485.82 48.0696 Q1483.48 45.9632 1479.48 45.9632 Q1477.6 45.9632 1475.73 46.3798 Q1473.88 46.7965 1471.93 47.6761 L1471.93 30.3151 Z" fill="#000000" fill-rule="evenodd" fill-opacity="1" /><polyline clip-path="url(#clip233)" style="stroke:#009af9; stroke-linecap:round; stroke-linejoin:round; stroke-width:4; stroke-opacity:1; fill:none" points="
  1861.38,817.947 1901.99,806.204 1942.59,721.625 1983.2,445.484 2023.81,130.726 2064.42,69.7026 2105.03,296.116 2145.64,584.7 2186.25,732.743 2226.86,786.177 
  2267.46,811.615 2308.07,816.751 2348.68,817.607 2389.29,818.294 2429.9,818.321 2470.51,818.32 2511.12,818.321 2551.73,818.32 2592.33,818.321 2632.94,818.32 
  2673.55,818.321 2714.16,818.32 2754.77,818.321 2795.38,818.32 2835.99,818.321 2876.59,818.32 2917.2,818.321 2957.81,818.32 2998.42,818.321 3039.03,818.319 
  3079.64,818.321 3120.25,818.303 3160.86,817.918 3201.46,818.047 3242.07,818.312 3282.68,818.321 3323.29,818.321 3363.9,818.321 3404.51,818.321 3445.12,818.321 
  3485.73,818.321 3526.33,818.321 3566.94,818.321 3607.55,818.321 3648.16,818.321 3688.77,818.321 3729.38,818.321 3769.99,818.321 3810.59,818.32 3851.2,818.321 
  3891.81,818.32 3932.42,818.321 3973.03,818.304 4013.64,817.94 4054.25,818.025 4094.86,818.31 4135.46,818.321 4176.07,818.32 4216.68,818.321 4257.29,818.321 
  4297.9,818.321 4338.51,818.321 4379.12,818.321 4419.72,818.321 4460.33,818.321 4500.94,818.321 4541.55,818.321 4582.16,818.321 4622.77,818.321 4663.38,818.321 
  4703.99,818.321 4744.59,818.321 4785.2,818.321 4825.81,818.321 4866.42,818.321 4907.03,818.321 4947.64,818.321 4988.25,818.321 5028.86,818.321 5069.46,818.321 
  5110.07,818.321 5150.68,818.321 5191.29,818.321 5231.9,818.321 5272.51,818.321 5313.12,818.321 5353.72,818.321 5394.33,818.321 5434.94,818.321 5475.55,818.321 
  5516.16,818.321 5556.77,818.321 5597.38,818.321 5637.99,818.321 5678.59,818.321 5719.2,818.321 5759.81,818.321 5800.42,818.321 5841.03,818.321 5881.64,818.321 
  5922.25,818.321 5962.85,818.321 6003.46,818.321 6044.07,818.321 6084.68,818.321 6125.29,818.321 6165.9,818.321 6206.51,818.321 6247.12,818.321 6287.72,818.321 
  6328.33,818.321 6368.94,818.321 6409.55,818.321 6450.16,818.321 6490.77,818.321 6531.38,818.321 6571.99,818.321 6612.59,818.321 6653.2,818.321 6693.81,818.321 
  6734.42,818.321 6775.03,818.321 6815.64,818.321 6856.25,818.321 6896.85,818.321 6937.46,818.321 6978.07,818.321 7018.68,818.321 7059.29,818.321 7099.9,818.321 
  7140.51,818.321 7181.12,818.321 7221.72,818.321 7262.33,818.321 7302.94,818.321 7343.55,818.321 7384.16,818.321 7424.77,818.321 7465.38,818.321 7505.99,818.321 
  7546.59,818.321 7587.2,818.321 7627.81,818.321 7668.42,818.321 7709.03,818.321 7749.64,818.321 7790.25,818.321 7830.85,818.321 7871.46,818.321 7912.07,818.321 
  7952.68,818.321 7993.29,818.321 8033.9,818.321 8074.51,818.321 8115.12,818.321 8155.72,818.321 8196.33,818.321 8236.94,818.321 8277.55,818.321 8318.16,818.321 
  8358.77,818.321 8399.38,818.321 8439.98,818.321 8480.59,818.321 8521.2,818.321 8561.81,818.321 8602.42,818.321 8643.03,818.321 8683.64,818.321 8724.25,818.321 
  8764.85,818.321 8805.46,818.321 8846.07,818.321 8886.68,818.321 8927.29,818.321 8967.9,818.321 9008.51,818.321 9049.12,818.321 9089.72,818.321 9130.33,818.321 
  9170.94,818.321 9211.55,818.321 9252.16,818.32 9292.77,818.321 9333.38,818.32 9373.98,818.321 9414.59,818.32 9455.2,818.321 9495.81,818.32 9536.42,818.321 
  9577.03,818.32 9617.64,818.321 9658.25,818.319 9698.85,818.321 9739.46,818.318 9780.07,818.321 9820.68,818.319 9861.29,818.301 9901.9,817.693 9942.51,818.295 
  
  "/>
<polyline clip-path="url(#clip233)" style="stroke:#e26f46; stroke-linecap:round; stroke-linejoin:round; stroke-width:4; stroke-opacity:1; fill:none" points="
  1720.93,651.479 1908.71,706.843 2096.49,749.564 2284.27,772.759 2472.05,786.149 2659.83,794.466 2847.61,799.955 3035.39,803.757 3223.17,806.495 3410.95,808.53 
  3598.73,810.084 3786.51,811.295 3974.29,812.259 4162.07,813.037 4349.85,813.675 4537.63,814.204 4913.18,815.023 5288.74,815.62 5664.3,816.069 6039.86,816.414 
  6415.42,816.686 6790.98,816.904 7166.54,817.081 7542.1,817.226 8293.22,817.45 9044.33,817.612 9795.45,817.732 10546.6,817.824 11297.7,817.896 12048.8,817.954 
  12799.9,818 13551,818.039 15053.3,818.097 16555.5,818.139 18057.7,818.17 19560,818.194 21062.2,818.213 22564.5,818.227 24066.7,818.239 25568.9,818.249 
  39459.3,818.292 53349.6,818.305 67240,818.311 81130.3,818.314 108911,818.317 136692,818.318 192253,818.32 247814,818.32 314595,818.32 381375,818.32 
  437836,818.321 494298,818.321 616965,818.321 730052,818.321 851294,818.321 991765,818.321 1.1166e+06,818.321 1.22607e+06,818.321 1.34542e+06,818.321 1.46548e+06,818.321 
  1.59822e+06,818.321 1.72451e+06,818.321 1.85584e+06,818.321 1.96638e+06,818.321 2.10134e+06,818.321 2.22498e+06,818.321 2.33917e+06,818.321 2.45483e+06,818.321 2.58446e+06,818.321 2.70193e+06,818.321 
  2.83642e+06,818.321 2.96094e+06,818.321 3.08371e+06,818.321 3.20291e+06,818.321 3.3251e+06,818.321 3.45898e+06,818.321 3.65346e+06,818.321 3.69335e+06,818.321 
  "/>
<path clip-path="url(#clip230)" d="
M2407.32 229.215 L2603.84 229.215 L2603.84 73.6953 L2407.32 73.6953  Z
  " fill="#ffffff" fill-rule="evenodd" fill-opacity="1"/>
<polyline clip-path="url(#clip230)" style="stroke:#000000; stroke-linecap:round; stroke-linejoin:round; stroke-width:4; stroke-opacity:1; fill:none" points="
  2407.32,229.215 2603.84,229.215 2603.84,73.6953 2407.32,73.6953 2407.32,229.215 
  "/>
<polyline clip-path="url(#clip230)" style="stroke:#009af9; stroke-linecap:round; stroke-linejoin:round; stroke-width:4; stroke-opacity:1; fill:none" points="
  2419.63,125.535 2493.47,125.535 
  "/>
<path clip-path="url(#clip230)" d="M2517.67 120.269 Q2514.15 120.269 2512.26 122.815 Q2510.26 125.477 2510.26 129.876 Q2510.26 134.528 2512.23 137.213 Q2514.22 139.875 2517.67 139.875 Q2521.07 139.875 2523.07 137.19 Q2525.06 134.505 2525.06 129.876 Q2525.06 125.639 2523.07 122.815 Q2521.24 120.269 2517.67 120.269 M2517.67 116.889 L2531.82 116.889 L2531.82 121.149 L2527.05 121.149 Q2529.57 124.76 2529.57 129.876 Q2529.57 136.241 2526.4 139.852 Q2523.23 143.487 2517.67 143.487 Q2512.09 143.487 2508.95 139.852 Q2505.77 136.241 2505.77 129.876 Q2505.77 123.464 2508.95 119.876 Q2511.56 116.889 2517.67 116.889 Z" fill="#000000" fill-rule="evenodd" fill-opacity="1" /><path clip-path="url(#clip230)" d="M2539.41 124.714 L2549.22 124.714 L2549.22 127.352 L2535.38 127.352 L2535.38 124.806 Q2536.17 124.089 2537.63 122.792 Q2545.59 115.732 2545.59 113.556 Q2545.59 112.028 2544.38 111.102 Q2543.18 110.153 2541.21 110.153 Q2540.01 110.153 2538.6 110.57 Q2537.19 110.964 2535.52 111.774 L2535.52 108.927 Q2537.3 108.278 2538.83 107.954 Q2540.38 107.63 2541.7 107.63 Q2545.06 107.63 2547.07 109.158 Q2549.08 110.686 2549.08 113.186 Q2549.08 116.403 2541.42 122.977 Q2540.13 124.089 2539.41 124.714 Z" fill="#000000" fill-rule="evenodd" fill-opacity="1" /><path clip-path="url(#clip230)" d="M2568.6 134.042 L2568.6 142.815 L2565.91 142.815 L2565.91 134.135 Q2565.91 132.075 2565.01 131.056 Q2564.11 130.014 2562.3 130.014 Q2560.13 130.014 2558.88 131.264 Q2557.63 132.491 2557.63 134.621 L2557.63 142.815 L2554.92 142.815 L2554.92 128.301 L2557.63 128.301 L2557.63 130.547 Q2558.57 129.251 2559.87 128.602 Q2561.19 127.954 2562.9 127.954 Q2565.7 127.954 2567.14 129.505 Q2568.6 131.056 2568.6 134.042 Z" fill="#000000" fill-rule="evenodd" fill-opacity="1" /><polyline clip-path="url(#clip230)" style="stroke:#e26f46; stroke-linecap:round; stroke-linejoin:round; stroke-width:4; stroke-opacity:1; fill:none" points="
  2419.63,177.375 2493.47,177.375 
  "/>
<path clip-path="url(#clip230)" d="M2517.67 172.109 Q2514.15 172.109 2512.26 174.655 Q2510.26 177.317 2510.26 181.716 Q2510.26 186.368 2512.23 189.053 Q2514.22 191.715 2517.67 191.715 Q2521.07 191.715 2523.07 189.03 Q2525.06 186.345 2525.06 181.716 Q2525.06 177.479 2523.07 174.655 Q2521.24 172.109 2517.67 172.109 M2517.67 168.729 L2531.82 168.729 L2531.82 172.989 L2527.05 172.989 Q2529.57 176.6 2529.57 181.716 Q2529.57 188.081 2526.4 191.692 Q2523.23 195.327 2517.67 195.327 Q2512.09 195.327 2508.95 191.692 Q2505.77 188.081 2505.77 181.716 Q2505.77 175.304 2508.95 171.716 Q2511.56 168.729 2517.67 168.729 Z" fill="#000000" fill-rule="evenodd" fill-opacity="1" /><path clip-path="url(#clip230)" d="M2539.41 176.554 L2549.22 176.554 L2549.22 179.192 L2535.38 179.192 L2535.38 176.646 Q2536.17 175.929 2537.63 174.632 Q2545.59 167.572 2545.59 165.396 Q2545.59 163.868 2544.38 162.942 Q2543.18 161.993 2541.21 161.993 Q2540.01 161.993 2538.6 162.41 Q2537.19 162.804 2535.52 163.614 L2535.52 160.767 Q2537.3 160.118 2538.83 159.794 Q2540.38 159.47 2541.7 159.47 Q2545.06 159.47 2547.07 160.998 Q2549.08 162.526 2549.08 165.026 Q2549.08 168.243 2541.42 174.817 Q2540.13 175.929 2539.41 176.554 Z" fill="#000000" fill-rule="evenodd" fill-opacity="1" /><path clip-path="url(#clip230)" d="M2567.28 163.174 Q2563.67 163.174 2561.84 166.739 Q2560.03 170.28 2560.03 177.41 Q2560.03 184.516 2561.84 188.081 Q2563.67 191.623 2567.28 191.623 Q2570.91 191.623 2572.72 188.081 Q2574.55 184.516 2574.55 177.41 Q2574.55 170.28 2572.72 166.739 Q2570.91 163.174 2567.28 163.174 M2567.28 159.47 Q2573.09 159.47 2576.14 164.077 Q2579.22 168.66 2579.22 177.41 Q2579.22 186.137 2576.14 190.743 Q2573.09 195.327 2567.28 195.327 Q2561.47 195.327 2558.39 190.743 Q2555.33 186.137 2555.33 177.41 Q2555.33 168.66 2558.39 164.077 Q2561.47 159.47 2567.28 159.47 Z" fill="#000000" fill-rule="evenodd" fill-opacity="1" /><path clip-path="url(#clip230)" d="
M189.154 1800.78 L1296.76 1800.78 L1296.76 1007.24 L189.154 1007.24  Z
  " fill="#ffffff" fill-rule="evenodd" fill-opacity="1"/>
<defs>
  <clipPath id="clip234">
    <rect x="189" y="1007" width="1109" height="795"/>
  </clipPath>
</defs>
<polyline clip-path="url(#clip234)" style="stroke:#000000; stroke-linecap:round; stroke-linejoin:round; stroke-width:2; stroke-opacity:0.1; fill:none" points="
  189.154,1800.78 189.154,1007.24 
  "/>
<polyline clip-path="url(#clip234)" style="stroke:#000000; stroke-linecap:round; stroke-linejoin:round; stroke-width:2; stroke-opacity:0.1; fill:none" points="
  558.355,1800.78 558.355,1007.24 
  "/>
<polyline clip-path="url(#clip234)" style="stroke:#000000; stroke-linecap:round; stroke-linejoin:round; stroke-width:2; stroke-opacity:0.1; fill:none" points="
  927.555,1800.78 927.555,1007.24 
  "/>
<polyline clip-path="url(#clip234)" style="stroke:#000000; stroke-linecap:round; stroke-linejoin:round; stroke-width:2; stroke-opacity:0.1; fill:none" points="
  1296.76,1800.78 1296.76,1007.24 
  "/>
<polyline clip-path="url(#clip230)" style="stroke:#000000; stroke-linecap:round; stroke-linejoin:round; stroke-width:4; stroke-opacity:1; fill:none" points="
  189.154,1800.78 1296.76,1800.78 
  "/>
<polyline clip-path="url(#clip230)" style="stroke:#000000; stroke-linecap:round; stroke-linejoin:round; stroke-width:4; stroke-opacity:1; fill:none" points="
  189.154,1800.78 189.154,1781.88 
  "/>
<polyline clip-path="url(#clip230)" style="stroke:#000000; stroke-linecap:round; stroke-linejoin:round; stroke-width:4; stroke-opacity:1; fill:none" points="
  558.355,1800.78 558.355,1781.88 
  "/>
<polyline clip-path="url(#clip230)" style="stroke:#000000; stroke-linecap:round; stroke-linejoin:round; stroke-width:4; stroke-opacity:1; fill:none" points="
  927.555,1800.78 927.555,1781.88 
  "/>
<polyline clip-path="url(#clip230)" style="stroke:#000000; stroke-linecap:round; stroke-linejoin:round; stroke-width:4; stroke-opacity:1; fill:none" points="
  1296.76,1800.78 1296.76,1781.88 
  "/>
<path clip-path="url(#clip230)" d="M189.154 1834 Q185.543 1834 183.714 1837.57 Q181.909 1841.11 181.909 1848.24 Q181.909 1855.34 183.714 1858.91 Q185.543 1862.45 189.154 1862.45 Q192.788 1862.45 194.594 1858.91 Q196.422 1855.34 196.422 1848.24 Q196.422 1841.11 194.594 1837.57 Q192.788 1834 189.154 1834 M189.154 1830.3 Q194.964 1830.3 198.02 1834.9 Q201.098 1839.49 201.098 1848.24 Q201.098 1856.96 198.02 1861.57 Q194.964 1866.15 189.154 1866.15 Q183.344 1866.15 180.265 1861.57 Q177.21 1856.96 177.21 1848.24 Q177.21 1839.49 180.265 1834.9 Q183.344 1830.3 189.154 1830.3 Z" fill="#000000" fill-rule="evenodd" fill-opacity="1" /><path clip-path="url(#clip230)" d="M533.042 1861.55 L540.681 1861.55 L540.681 1835.18 L532.371 1836.85 L532.371 1832.59 L540.635 1830.92 L545.311 1830.92 L545.311 1861.55 L552.95 1861.55 L552.95 1865.48 L533.042 1865.48 L533.042 1861.55 Z" fill="#000000" fill-rule="evenodd" fill-opacity="1" /><path clip-path="url(#clip230)" d="M572.394 1834 Q568.783 1834 566.954 1837.57 Q565.149 1841.11 565.149 1848.24 Q565.149 1855.34 566.954 1858.91 Q568.783 1862.45 572.394 1862.45 Q576.028 1862.45 577.834 1858.91 Q579.662 1855.34 579.662 1848.24 Q579.662 1841.11 577.834 1837.57 Q576.028 1834 572.394 1834 M572.394 1830.3 Q578.204 1830.3 581.26 1834.9 Q584.338 1839.49 584.338 1848.24 Q584.338 1856.96 581.26 1861.57 Q578.204 1866.15 572.394 1866.15 Q566.584 1866.15 563.505 1861.57 Q560.45 1856.96 560.45 1848.24 Q560.45 1839.49 563.505 1834.9 Q566.584 1830.3 572.394 1830.3 Z" fill="#000000" fill-rule="evenodd" fill-opacity="1" /><path clip-path="url(#clip230)" d="M906.329 1861.55 L922.648 1861.55 L922.648 1865.48 L900.704 1865.48 L900.704 1861.55 Q903.366 1858.79 907.949 1854.16 Q912.555 1849.51 913.736 1848.17 Q915.981 1845.65 916.861 1843.91 Q917.764 1842.15 917.764 1840.46 Q917.764 1837.71 915.819 1835.97 Q913.898 1834.23 910.796 1834.23 Q908.597 1834.23 906.143 1835 Q903.713 1835.76 900.935 1837.31 L900.935 1832.59 Q903.759 1831.46 906.213 1830.88 Q908.666 1830.3 910.704 1830.3 Q916.074 1830.3 919.268 1832.98 Q922.463 1835.67 922.463 1840.16 Q922.463 1842.29 921.653 1844.21 Q920.865 1846.11 918.759 1848.7 Q918.18 1849.37 915.078 1852.59 Q911.977 1855.78 906.329 1861.55 Z" fill="#000000" fill-rule="evenodd" fill-opacity="1" /><path clip-path="url(#clip230)" d="M942.463 1834 Q938.852 1834 937.023 1837.57 Q935.217 1841.11 935.217 1848.24 Q935.217 1855.34 937.023 1858.91 Q938.852 1862.45 942.463 1862.45 Q946.097 1862.45 947.902 1858.91 Q949.731 1855.34 949.731 1848.24 Q949.731 1841.11 947.902 1837.57 Q946.097 1834 942.463 1834 M942.463 1830.3 Q948.273 1830.3 951.328 1834.9 Q954.407 1839.49 954.407 1848.24 Q954.407 1856.96 951.328 1861.57 Q948.273 1866.15 942.463 1866.15 Q936.652 1866.15 933.574 1861.57 Q930.518 1856.96 930.518 1848.24 Q930.518 1839.49 933.574 1834.9 Q936.652 1830.3 942.463 1830.3 Z" fill="#000000" fill-rule="evenodd" fill-opacity="1" /><path clip-path="url(#clip230)" d="M1285.6 1846.85 Q1288.96 1847.57 1290.83 1849.84 Q1292.73 1852.1 1292.73 1855.44 Q1292.73 1860.55 1289.21 1863.35 Q1285.69 1866.15 1279.21 1866.15 Q1277.03 1866.15 1274.72 1865.71 Q1272.43 1865.3 1269.97 1864.44 L1269.97 1859.93 Q1271.92 1861.06 1274.23 1861.64 Q1276.55 1862.22 1279.07 1862.22 Q1283.47 1862.22 1285.76 1860.48 Q1288.08 1858.75 1288.08 1855.44 Q1288.08 1852.38 1285.92 1850.67 Q1283.79 1848.93 1279.97 1848.93 L1275.95 1848.93 L1275.95 1845.09 L1280.16 1845.09 Q1283.61 1845.09 1285.44 1843.72 Q1287.27 1842.34 1287.27 1839.74 Q1287.27 1837.08 1285.37 1835.67 Q1283.49 1834.23 1279.97 1834.23 Q1278.05 1834.23 1275.85 1834.65 Q1273.65 1835.07 1271.02 1835.95 L1271.02 1831.78 Q1273.68 1831.04 1275.99 1830.67 Q1278.33 1830.3 1280.39 1830.3 Q1285.71 1830.3 1288.82 1832.73 Q1291.92 1835.14 1291.92 1839.26 Q1291.92 1842.13 1290.27 1844.12 Q1288.63 1846.09 1285.6 1846.85 Z" fill="#000000" fill-rule="evenodd" fill-opacity="1" /><path clip-path="url(#clip230)" d="M1311.59 1834 Q1307.98 1834 1306.15 1837.57 Q1304.35 1841.11 1304.35 1848.24 Q1304.35 1855.34 1306.15 1858.91 Q1307.98 1862.45 1311.59 1862.45 Q1315.23 1862.45 1317.03 1858.91 Q1318.86 1855.34 1318.86 1848.24 Q1318.86 1841.11 1317.03 1837.57 Q1315.23 1834 1311.59 1834 M1311.59 1830.3 Q1317.4 1830.3 1320.46 1834.9 Q1323.54 1839.49 1323.54 1848.24 Q1323.54 1856.96 1320.46 1861.57 Q1317.4 1866.15 1311.59 1866.15 Q1305.78 1866.15 1302.7 1861.57 Q1299.65 1856.96 1299.65 1848.24 Q1299.65 1839.49 1302.7 1834.9 Q1305.78 1830.3 1311.59 1830.3 Z" fill="#000000" fill-rule="evenodd" fill-opacity="1" /><polyline clip-path="url(#clip234)" style="stroke:#000000; stroke-linecap:round; stroke-linejoin:round; stroke-width:2; stroke-opacity:0.1; fill:none" points="
  189.154,1778.32 1296.76,1778.32 
  "/>
<polyline clip-path="url(#clip234)" style="stroke:#000000; stroke-linecap:round; stroke-linejoin:round; stroke-width:2; stroke-opacity:0.1; fill:none" points="
  189.154,1586.86 1296.76,1586.86 
  "/>
<polyline clip-path="url(#clip234)" style="stroke:#000000; stroke-linecap:round; stroke-linejoin:round; stroke-width:2; stroke-opacity:0.1; fill:none" points="
  189.154,1395.39 1296.76,1395.39 
  "/>
<polyline clip-path="url(#clip234)" style="stroke:#000000; stroke-linecap:round; stroke-linejoin:round; stroke-width:2; stroke-opacity:0.1; fill:none" points="
  189.154,1203.93 1296.76,1203.93 
  "/>
<polyline clip-path="url(#clip234)" style="stroke:#000000; stroke-linecap:round; stroke-linejoin:round; stroke-width:2; stroke-opacity:0.1; fill:none" points="
  189.154,1012.47 1296.76,1012.47 
  "/>
<polyline clip-path="url(#clip230)" style="stroke:#000000; stroke-linecap:round; stroke-linejoin:round; stroke-width:4; stroke-opacity:1; fill:none" points="
  189.154,1800.78 189.154,1007.24 
  "/>
<polyline clip-path="url(#clip230)" style="stroke:#000000; stroke-linecap:round; stroke-linejoin:round; stroke-width:4; stroke-opacity:1; fill:none" points="
  189.154,1778.32 208.052,1778.32 
  "/>
<polyline clip-path="url(#clip230)" style="stroke:#000000; stroke-linecap:round; stroke-linejoin:round; stroke-width:4; stroke-opacity:1; fill:none" points="
  189.154,1586.86 208.052,1586.86 
  "/>
<polyline clip-path="url(#clip230)" style="stroke:#000000; stroke-linecap:round; stroke-linejoin:round; stroke-width:4; stroke-opacity:1; fill:none" points="
  189.154,1395.39 208.052,1395.39 
  "/>
<polyline clip-path="url(#clip230)" style="stroke:#000000; stroke-linecap:round; stroke-linejoin:round; stroke-width:4; stroke-opacity:1; fill:none" points="
  189.154,1203.93 208.052,1203.93 
  "/>
<polyline clip-path="url(#clip230)" style="stroke:#000000; stroke-linecap:round; stroke-linejoin:round; stroke-width:4; stroke-opacity:1; fill:none" points="
  189.154,1012.47 208.052,1012.47 
  "/>
<path clip-path="url(#clip230)" d="M61.4965 1764.12 Q57.8854 1764.12 56.0567 1767.68 Q54.2512 1771.23 54.2512 1778.36 Q54.2512 1785.46 56.0567 1789.03 Q57.8854 1792.57 61.4965 1792.57 Q65.1307 1792.57 66.9363 1789.03 Q68.765 1785.46 68.765 1778.36 Q68.765 1771.23 66.9363 1767.68 Q65.1307 1764.12 61.4965 1764.12 M61.4965 1760.42 Q67.3067 1760.42 70.3622 1765.02 Q73.4409 1769.61 73.4409 1778.36 Q73.4409 1787.08 70.3622 1791.69 Q67.3067 1796.27 61.4965 1796.27 Q55.6864 1796.27 52.6077 1791.69 Q49.5521 1787.08 49.5521 1778.36 Q49.5521 1769.61 52.6077 1765.02 Q55.6864 1760.42 61.4965 1760.42 Z" fill="#000000" fill-rule="evenodd" fill-opacity="1" /><path clip-path="url(#clip230)" d="M81.6584 1789.72 L86.5427 1789.72 L86.5427 1795.6 L81.6584 1795.6 L81.6584 1789.72 Z" fill="#000000" fill-rule="evenodd" fill-opacity="1" /><path clip-path="url(#clip230)" d="M106.728 1764.12 Q103.117 1764.12 101.288 1767.68 Q99.4824 1771.23 99.4824 1778.36 Q99.4824 1785.46 101.288 1789.03 Q103.117 1792.57 106.728 1792.57 Q110.362 1792.57 112.168 1789.03 Q113.996 1785.46 113.996 1778.36 Q113.996 1771.23 112.168 1767.68 Q110.362 1764.12 106.728 1764.12 M106.728 1760.42 Q112.538 1760.42 115.593 1765.02 Q118.672 1769.61 118.672 1778.36 Q118.672 1787.08 115.593 1791.69 Q112.538 1796.27 106.728 1796.27 Q100.918 1796.27 97.8389 1791.69 Q94.7834 1787.08 94.7834 1778.36 Q94.7834 1769.61 97.8389 1765.02 Q100.918 1760.42 106.728 1760.42 Z" fill="#000000" fill-rule="evenodd" fill-opacity="1" /><path clip-path="url(#clip230)" d="M136.89 1764.12 Q133.279 1764.12 131.45 1767.68 Q129.644 1771.23 129.644 1778.36 Q129.644 1785.46 131.45 1789.03 Q133.279 1792.57 136.89 1792.57 Q140.524 1792.57 142.329 1789.03 Q144.158 1785.46 144.158 1778.36 Q144.158 1771.23 142.329 1767.68 Q140.524 1764.12 136.89 1764.12 M136.89 1760.42 Q142.7 1760.42 145.755 1765.02 Q148.834 1769.61 148.834 1778.36 Q148.834 1787.08 145.755 1791.69 Q142.7 1796.27 136.89 1796.27 Q131.079 1796.27 128.001 1791.69 Q124.945 1787.08 124.945 1778.36 Q124.945 1769.61 128.001 1765.02 Q131.079 1760.42 136.89 1760.42 Z" fill="#000000" fill-rule="evenodd" fill-opacity="1" /><path clip-path="url(#clip230)" d="M62.4919 1572.66 Q58.8808 1572.66 57.0521 1576.22 Q55.2465 1579.76 55.2465 1586.89 Q55.2465 1594 57.0521 1597.56 Q58.8808 1601.1 62.4919 1601.1 Q66.1261 1601.1 67.9317 1597.56 Q69.7604 1594 69.7604 1586.89 Q69.7604 1579.76 67.9317 1576.22 Q66.1261 1572.66 62.4919 1572.66 M62.4919 1568.95 Q68.302 1568.95 71.3576 1573.56 Q74.4363 1578.14 74.4363 1586.89 Q74.4363 1595.62 71.3576 1600.22 Q68.302 1604.81 62.4919 1604.81 Q56.6817 1604.81 53.603 1600.22 Q50.5475 1595.62 50.5475 1586.89 Q50.5475 1578.14 53.603 1573.56 Q56.6817 1568.95 62.4919 1568.95 Z" fill="#000000" fill-rule="evenodd" fill-opacity="1" /><path clip-path="url(#clip230)" d="M82.6538 1598.26 L87.538 1598.26 L87.538 1604.14 L82.6538 1604.14 L82.6538 1598.26 Z" fill="#000000" fill-rule="evenodd" fill-opacity="1" /><path clip-path="url(#clip230)" d="M107.723 1572.66 Q104.112 1572.66 102.283 1576.22 Q100.478 1579.76 100.478 1586.89 Q100.478 1594 102.283 1597.56 Q104.112 1601.1 107.723 1601.1 Q111.357 1601.1 113.163 1597.56 Q114.992 1594 114.992 1586.89 Q114.992 1579.76 113.163 1576.22 Q111.357 1572.66 107.723 1572.66 M107.723 1568.95 Q113.533 1568.95 116.589 1573.56 Q119.667 1578.14 119.667 1586.89 Q119.667 1595.62 116.589 1600.22 Q113.533 1604.81 107.723 1604.81 Q101.913 1604.81 98.8343 1600.22 Q95.7787 1595.62 95.7787 1586.89 Q95.7787 1578.14 98.8343 1573.56 Q101.913 1568.95 107.723 1568.95 Z" fill="#000000" fill-rule="evenodd" fill-opacity="1" /><path clip-path="url(#clip230)" d="M127.931 1569.58 L146.288 1569.58 L146.288 1573.51 L132.214 1573.51 L132.214 1581.98 Q133.232 1581.64 134.251 1581.48 Q135.269 1581.29 136.288 1581.29 Q142.075 1581.29 145.454 1584.46 Q148.834 1587.63 148.834 1593.05 Q148.834 1598.63 145.362 1601.73 Q141.89 1604.81 135.57 1604.81 Q133.394 1604.81 131.126 1604.44 Q128.88 1604.07 126.473 1603.33 L126.473 1598.63 Q128.556 1599.76 130.779 1600.32 Q133.001 1600.87 135.478 1600.87 Q139.482 1600.87 141.82 1598.77 Q144.158 1596.66 144.158 1593.05 Q144.158 1589.44 141.82 1587.33 Q139.482 1585.23 135.478 1585.23 Q133.603 1585.23 131.728 1585.64 Q129.876 1586.06 127.931 1586.94 L127.931 1569.58 Z" fill="#000000" fill-rule="evenodd" fill-opacity="1" /><path clip-path="url(#clip230)" d="M61.4965 1381.19 Q57.8854 1381.19 56.0567 1384.76 Q54.2512 1388.3 54.2512 1395.43 Q54.2512 1402.53 56.0567 1406.1 Q57.8854 1409.64 61.4965 1409.64 Q65.1307 1409.64 66.9363 1406.1 Q68.765 1402.53 68.765 1395.43 Q68.765 1388.3 66.9363 1384.76 Q65.1307 1381.19 61.4965 1381.19 M61.4965 1377.49 Q67.3067 1377.49 70.3622 1382.09 Q73.4409 1386.68 73.4409 1395.43 Q73.4409 1404.15 70.3622 1408.76 Q67.3067 1413.34 61.4965 1413.34 Q55.6864 1413.34 52.6077 1408.76 Q49.5521 1404.15 49.5521 1395.43 Q49.5521 1386.68 52.6077 1382.09 Q55.6864 1377.49 61.4965 1377.49 Z" fill="#000000" fill-rule="evenodd" fill-opacity="1" /><path clip-path="url(#clip230)" d="M81.6584 1406.79 L86.5427 1406.79 L86.5427 1412.67 L81.6584 1412.67 L81.6584 1406.79 Z" fill="#000000" fill-rule="evenodd" fill-opacity="1" /><path clip-path="url(#clip230)" d="M97.538 1408.74 L105.177 1408.74 L105.177 1382.37 L96.8667 1384.04 L96.8667 1379.78 L105.131 1378.11 L109.806 1378.11 L109.806 1408.74 L117.445 1408.74 L117.445 1412.67 L97.538 1412.67 L97.538 1408.74 Z" fill="#000000" fill-rule="evenodd" fill-opacity="1" /><path clip-path="url(#clip230)" d="M136.89 1381.19 Q133.279 1381.19 131.45 1384.76 Q129.644 1388.3 129.644 1395.43 Q129.644 1402.53 131.45 1406.1 Q133.279 1409.64 136.89 1409.64 Q140.524 1409.64 142.329 1406.1 Q144.158 1402.53 144.158 1395.43 Q144.158 1388.3 142.329 1384.76 Q140.524 1381.19 136.89 1381.19 M136.89 1377.49 Q142.7 1377.49 145.755 1382.09 Q148.834 1386.68 148.834 1395.43 Q148.834 1404.15 145.755 1408.76 Q142.7 1413.34 136.89 1413.34 Q131.079 1413.34 128.001 1408.76 Q124.945 1404.15 124.945 1395.43 Q124.945 1386.68 128.001 1382.09 Q131.079 1377.49 136.89 1377.49 Z" fill="#000000" fill-rule="evenodd" fill-opacity="1" /><path clip-path="url(#clip230)" d="M62.4919 1189.73 Q58.8808 1189.73 57.0521 1193.29 Q55.2465 1196.83 55.2465 1203.96 Q55.2465 1211.07 57.0521 1214.64 Q58.8808 1218.18 62.4919 1218.18 Q66.1261 1218.18 67.9317 1214.64 Q69.7604 1211.07 69.7604 1203.96 Q69.7604 1196.83 67.9317 1193.29 Q66.1261 1189.73 62.4919 1189.73 M62.4919 1186.02 Q68.302 1186.02 71.3576 1190.63 Q74.4363 1195.21 74.4363 1203.96 Q74.4363 1212.69 71.3576 1217.3 Q68.302 1221.88 62.4919 1221.88 Q56.6817 1221.88 53.603 1217.3 Q50.5475 1212.69 50.5475 1203.96 Q50.5475 1195.21 53.603 1190.63 Q56.6817 1186.02 62.4919 1186.02 Z" fill="#000000" fill-rule="evenodd" fill-opacity="1" /><path clip-path="url(#clip230)" d="M82.6538 1215.33 L87.538 1215.33 L87.538 1221.21 L82.6538 1221.21 L82.6538 1215.33 Z" fill="#000000" fill-rule="evenodd" fill-opacity="1" /><path clip-path="url(#clip230)" d="M98.5333 1217.27 L106.172 1217.27 L106.172 1190.91 L97.8621 1192.58 L97.8621 1188.32 L106.126 1186.65 L110.802 1186.65 L110.802 1217.27 L118.441 1217.27 L118.441 1221.21 L98.5333 1221.21 L98.5333 1217.27 Z" fill="#000000" fill-rule="evenodd" fill-opacity="1" /><path clip-path="url(#clip230)" d="M127.931 1186.65 L146.288 1186.65 L146.288 1190.58 L132.214 1190.58 L132.214 1199.06 Q133.232 1198.71 134.251 1198.55 Q135.269 1198.36 136.288 1198.36 Q142.075 1198.36 145.454 1201.53 Q148.834 1204.7 148.834 1210.12 Q148.834 1215.7 145.362 1218.8 Q141.89 1221.88 135.57 1221.88 Q133.394 1221.88 131.126 1221.51 Q128.88 1221.14 126.473 1220.4 L126.473 1215.7 Q128.556 1216.83 130.779 1217.39 Q133.001 1217.95 135.478 1217.95 Q139.482 1217.95 141.82 1215.84 Q144.158 1213.73 144.158 1210.12 Q144.158 1206.51 141.82 1204.4 Q139.482 1202.3 135.478 1202.3 Q133.603 1202.3 131.728 1202.71 Q129.876 1203.13 127.931 1204.01 L127.931 1186.65 Z" fill="#000000" fill-rule="evenodd" fill-opacity="1" /><path clip-path="url(#clip230)" d="M61.4965 998.264 Q57.8854 998.264 56.0567 1001.83 Q54.2512 1005.37 54.2512 1012.5 Q54.2512 1019.61 56.0567 1023.17 Q57.8854 1026.71 61.4965 1026.71 Q65.1307 1026.71 66.9363 1023.17 Q68.765 1019.61 68.765 1012.5 Q68.765 1005.37 66.9363 1001.83 Q65.1307 998.264 61.4965 998.264 M61.4965 994.561 Q67.3067 994.561 70.3622 999.167 Q73.4409 1003.75 73.4409 1012.5 Q73.4409 1021.23 70.3622 1025.83 Q67.3067 1030.42 61.4965 1030.42 Q55.6864 1030.42 52.6077 1025.83 Q49.5521 1021.23 49.5521 1012.5 Q49.5521 1003.75 52.6077 999.167 Q55.6864 994.561 61.4965 994.561 Z" fill="#000000" fill-rule="evenodd" fill-opacity="1" /><path clip-path="url(#clip230)" d="M81.6584 1023.87 L86.5427 1023.87 L86.5427 1029.75 L81.6584 1029.75 L81.6584 1023.87 Z" fill="#000000" fill-rule="evenodd" fill-opacity="1" /><path clip-path="url(#clip230)" d="M100.756 1025.81 L117.075 1025.81 L117.075 1029.75 L95.1306 1029.75 L95.1306 1025.81 Q97.7926 1023.06 102.376 1018.43 Q106.982 1013.77 108.163 1012.43 Q110.408 1009.91 111.288 1008.17 Q112.191 1006.41 112.191 1004.72 Q112.191 1001.97 110.246 1000.23 Q108.325 998.496 105.223 998.496 Q103.024 998.496 100.57 999.26 Q98.1398 1000.02 95.3621 1001.57 L95.3621 996.852 Q98.1861 995.718 100.64 995.139 Q103.094 994.561 105.131 994.561 Q110.501 994.561 113.695 997.246 Q116.89 999.931 116.89 1004.42 Q116.89 1006.55 116.08 1008.47 Q115.293 1010.37 113.186 1012.96 Q112.607 1013.63 109.506 1016.85 Q106.404 1020.05 100.756 1025.81 Z" fill="#000000" fill-rule="evenodd" fill-opacity="1" /><path clip-path="url(#clip230)" d="M136.89 998.264 Q133.279 998.264 131.45 1001.83 Q129.644 1005.37 129.644 1012.5 Q129.644 1019.61 131.45 1023.17 Q133.279 1026.71 136.89 1026.71 Q140.524 1026.71 142.329 1023.17 Q144.158 1019.61 144.158 1012.5 Q144.158 1005.37 142.329 1001.83 Q140.524 998.264 136.89 998.264 M136.89 994.561 Q142.7 994.561 145.755 999.167 Q148.834 1003.75 148.834 1012.5 Q148.834 1021.23 145.755 1025.83 Q142.7 1030.42 136.89 1030.42 Q131.079 1030.42 128.001 1025.83 Q124.945 1021.23 124.945 1012.5 Q124.945 1003.75 128.001 999.167 Q131.079 994.561 136.89 994.561 Z" fill="#000000" fill-rule="evenodd" fill-opacity="1" /><polyline clip-path="url(#clip234)" style="stroke:#009af9; stroke-linecap:round; stroke-linejoin:round; stroke-width:4; stroke-opacity:1; fill:none" points="
  168.346,1778.15 202.041,1771.63 235.737,1666.11 269.432,1324.87 303.127,1029.7 336.822,1039.23 370.518,1188.81 404.213,1355.73 437.908,1495.05 471.603,1574.27 
  505.299,1636.65 538.994,1670.09 572.689,1701.75 606.384,1723.95 640.079,1726.07 673.775,1737.71 707.47,1748.97 741.165,1756.48 774.86,1757.24 808.556,1762.69 
  842.251,1768.51 875.946,1770.89 909.641,1770.76 943.336,1772.45 977.032,1772.58 1010.73,1773.22 1044.42,1776.58 1078.12,1776.35 1111.81,1775.12 1145.51,1775.64 
  1179.2,1776.92 1212.9,1776.37 1246.59,1775.85 1280.29,1776.31 1313.98,1777.39 1347.68,1777.55 1381.37,1777.14 1415.07,1777.91 1448.76,1777.63 1482.46,1778.2 
  1516.16,1778.22 1549.85,1777.66 1583.55,1778.05 1617.24,1778.32 1650.94,1778.15 1684.63,1777.2 1718.33,1777.24 1752.02,1777.27 1785.72,1777.54 1819.41,1777.69 
  1853.11,1777.92 1886.8,1777.97 1920.5,1777.7 1954.19,1778.22 1987.89,1778.32 2021.58,1778.3 2055.28,1778.06 2088.97,1777.59 2122.67,1777.75 2156.36,1777.85 
  2190.06,1778.25 2223.76,1778.32 2257.45,1778.32 2291.15,1778.18 2324.84,1777.54 2358.54,1778.17 2392.23,1778.32 2425.93,1778.31 2459.62,1778.32 2493.32,1778.32 
  2527.01,1778.32 2560.71,1778.32 2594.4,1778.32 2628.1,1778.32 2661.79,1778.32 2695.49,1778.32 2729.18,1778.32 2762.88,1778.32 2796.57,1778.32 2830.27,1778.32 
  2863.96,1778.32 2897.66,1778.32 2931.35,1778.32 2965.05,1778.32 2998.75,1778.32 3032.44,1778.32 3066.14,1778.32 3099.83,1778.32 3133.53,1778.32 3167.22,1778.32 
  3200.92,1778.32 3234.61,1778.32 3268.31,1778.32 3302,1778.32 3335.7,1778.32 3369.39,1778.32 3403.09,1778.32 3436.78,1778.32 3470.48,1778.32 3504.17,1778.32 
  3537.87,1778.32 3571.56,1778.32 3605.26,1778.32 3638.95,1778.32 3672.65,1778.32 3706.35,1778.32 3740.04,1778.32 3773.74,1778.32 3807.43,1778.32 3841.13,1778.32 
  3874.82,1778.32 3908.52,1778.32 3942.21,1778.32 3975.91,1778.32 4009.6,1778.32 4043.3,1778.32 4076.99,1778.32 4110.69,1778.32 4144.38,1778.32 4178.08,1778.32 
  4211.77,1778.32 4245.47,1778.32 4279.16,1778.32 4312.86,1778.32 4346.55,1778.32 4380.25,1778.32 4413.94,1778.32 4447.64,1778.32 4481.34,1778.32 4515.03,1778.32 
  4548.73,1778.32 4582.42,1778.32 4616.12,1778.32 4649.81,1778.32 4683.51,1778.32 4717.2,1778.32 4750.9,1778.32 4784.59,1778.32 4818.29,1778.32 4851.98,1778.32 
  4885.68,1778.32 4919.37,1778.32 4953.07,1778.32 4986.76,1778.32 5020.46,1778.32 5054.15,1778.32 5087.85,1778.32 5121.54,1778.32 5155.24,1778.32 5188.94,1778.32 
  5222.63,1778.32 5256.33,1778.32 5290.02,1778.32 5323.72,1778.32 5357.41,1778.32 5391.11,1778.32 5424.8,1778.32 5458.5,1778.32 5492.19,1778.32 5525.89,1778.32 
  5559.58,1778.32 5593.28,1778.32 5626.97,1778.32 5660.67,1778.32 5694.36,1778.32 5728.06,1778.32 5761.75,1778.32 5795.45,1778.32 5829.14,1778.32 5862.84,1778.32 
  5896.53,1778.32 5930.23,1778.32 5963.93,1778.32 5997.62,1778.32 6031.32,1778.32 6065.01,1778.32 6098.71,1778.32 6132.4,1778.32 6166.1,1778.32 6199.79,1778.32 
  6233.49,1778.32 6267.18,1778.32 6300.88,1778.32 6334.57,1778.32 6368.27,1778.32 6401.96,1778.32 6435.66,1778.31 6469.35,1778.32 6503.05,1778.31 6536.74,1778.32 
  6570.44,1778.31 6604.13,1778.32 6637.83,1778.3 6671.53,1778.32 6705.22,1778.29 6738.92,1778.32 6772.61,1778.16 6806.31,1777.72 6840,1777.96 6873.7,1778.32 
  
  "/>
<polyline clip-path="url(#clip234)" style="stroke:#e26f46; stroke-linecap:round; stroke-linejoin:round; stroke-width:4; stroke-opacity:1; fill:none" points="
  470.823,1640.16 752.492,1686.01 1034.16,1721.39 1315.83,1740.59 1597.5,1751.68 1879.17,1758.57 2160.84,1763.11 2442.51,1766.26 2724.18,1768.53 3005.85,1770.21 
  3287.52,1771.5 3569.18,1772.5 3850.85,1773.3 4132.52,1773.95 4414.19,1774.47 4695.86,1774.91 5259.2,1775.59 5822.54,1776.08 6385.88,1776.46 6949.22,1776.74 
  7512.55,1776.97 8075.89,1777.15 8639.23,1777.29 9202.57,1777.41 10329.2,1777.6 11455.9,1777.73 12582.6,1777.83 13709.3,1777.91 14836,1777.97 15962.6,1778.02 
  17089.3,1778.06 18216,1778.09 20469.3,1778.14 22722.7,1778.17 24976,1778.2 27229.4,1778.22 29482.8,1778.23 31736.1,1778.24 33989.5,1778.25 36242.8,1778.26 
  57078.3,1778.3 77913.8,1778.31 98749.3,1778.31 119585,1778.32 161256,1778.32 202927,1778.32 286269,1778.32 369611,1778.32 469781,1778.32 569951,1778.32 
  654644,1778.32 739337,1778.32 923336,1778.32 1.09297e+06,1778.32 1.27483e+06,1778.32 1.48554e+06,1778.32 1.67279e+06,1778.32 1.83699e+06,1778.32 2.01601e+06,1778.32 2.1961e+06,1778.32 
  2.39521e+06,1778.32 2.58466e+06,1778.32 2.78164e+06,1778.32 2.94746e+06,1778.32 3.14991e+06,1778.32 3.33536e+06,1778.32 3.50664e+06,1778.32 3.68014e+06,1778.32 3.87458e+06,1778.32 4.05078e+06,1778.32 
  4.1943e+06,1778.32 4.1943e+06,1778.32 4.1943e+06,1778.32 4.1943e+06,1778.32 4.1943e+06,1778.32 4.1943e+06,1778.32 4.1943e+06,1778.32 4.1943e+06,1778.32 
  "/>
<path clip-path="url(#clip230)" d="
M1064.52 1189.22 L1259.84 1189.22 L1259.84 1033.7 L1064.52 1033.7  Z
  " fill="#ffffff" fill-rule="evenodd" fill-opacity="1"/>
<polyline clip-path="url(#clip230)" style="stroke:#000000; stroke-linecap:round; stroke-linejoin:round; stroke-width:4; stroke-opacity:1; fill:none" points="
  1064.52,1189.22 1259.84,1189.22 1259.84,1033.7 1064.52,1033.7 1064.52,1189.22 
  "/>
<polyline clip-path="url(#clip230)" style="stroke:#009af9; stroke-linecap:round; stroke-linejoin:round; stroke-width:4; stroke-opacity:1; fill:none" points="
  1076.83,1085.54 1150.67,1085.54 
  "/>
<path clip-path="url(#clip230)" d="M1177.84 1098.09 Q1178.67 1099.2 1181.17 1099.2 L1183.23 1099.2 L1183.23 1102.82 L1180.66 1102.82 Q1176.5 1102.82 1174.6 1100.59 Q1172.7 1098.32 1172.7 1093.42 L1172.7 1081.15 L1162.98 1081.15 L1162.98 1076.89 L1186.89 1076.89 L1186.89 1081.15 L1177.05 1081.15 L1177.05 1093.67 Q1177.05 1097.03 1177.84 1098.09 Z" fill="#000000" fill-rule="evenodd" fill-opacity="1" /><path clip-path="url(#clip230)" d="M1195.41 1084.71 L1205.22 1084.71 L1205.22 1087.35 L1191.38 1087.35 L1191.38 1084.81 Q1192.17 1084.09 1193.63 1082.79 Q1201.59 1075.73 1201.59 1073.56 Q1201.59 1072.03 1200.38 1071.1 Q1199.18 1070.15 1197.21 1070.15 Q1196.01 1070.15 1194.6 1070.57 Q1193.19 1070.96 1191.52 1071.77 L1191.52 1068.93 Q1193.3 1068.28 1194.83 1067.95 Q1196.38 1067.63 1197.7 1067.63 Q1201.06 1067.63 1203.07 1069.16 Q1205.08 1070.69 1205.08 1073.19 Q1205.08 1076.4 1197.42 1082.98 Q1196.13 1084.09 1195.41 1084.71 Z" fill="#000000" fill-rule="evenodd" fill-opacity="1" /><path clip-path="url(#clip230)" d="M1224.6 1094.04 L1224.6 1102.82 L1221.91 1102.82 L1221.91 1094.13 Q1221.91 1092.07 1221.01 1091.06 Q1220.11 1090.01 1218.3 1090.01 Q1216.13 1090.01 1214.88 1091.26 Q1213.63 1092.49 1213.63 1094.62 L1213.63 1102.82 L1210.92 1102.82 L1210.92 1088.3 L1213.63 1088.3 L1213.63 1090.55 Q1214.57 1089.25 1215.87 1088.6 Q1217.19 1087.95 1218.9 1087.95 Q1221.7 1087.95 1223.14 1089.51 Q1224.6 1091.06 1224.6 1094.04 Z" fill="#000000" fill-rule="evenodd" fill-opacity="1" /><polyline clip-path="url(#clip230)" style="stroke:#e26f46; stroke-linecap:round; stroke-linejoin:round; stroke-width:4; stroke-opacity:1; fill:none" points="
  1076.83,1137.38 1150.67,1137.38 
  "/>
<path clip-path="url(#clip230)" d="M1177.84 1149.93 Q1178.67 1151.04 1181.17 1151.04 L1183.23 1151.04 L1183.23 1154.66 L1180.66 1154.66 Q1176.5 1154.66 1174.6 1152.43 Q1172.7 1150.16 1172.7 1145.26 L1172.7 1132.99 L1162.98 1132.99 L1162.98 1128.73 L1186.89 1128.73 L1186.89 1132.99 L1177.05 1132.99 L1177.05 1145.51 Q1177.05 1148.87 1177.84 1149.93 Z" fill="#000000" fill-rule="evenodd" fill-opacity="1" /><path clip-path="url(#clip230)" d="M1195.41 1136.55 L1205.22 1136.55 L1205.22 1139.19 L1191.38 1139.19 L1191.38 1136.65 Q1192.17 1135.93 1193.63 1134.63 Q1201.59 1127.57 1201.59 1125.4 Q1201.59 1123.87 1200.38 1122.94 Q1199.18 1121.99 1197.21 1121.99 Q1196.01 1121.99 1194.6 1122.41 Q1193.19 1122.8 1191.52 1123.61 L1191.52 1120.77 Q1193.3 1120.12 1194.83 1119.79 Q1196.38 1119.47 1197.7 1119.47 Q1201.06 1119.47 1203.07 1121 Q1205.08 1122.53 1205.08 1125.03 Q1205.08 1128.24 1197.42 1134.82 Q1196.13 1135.93 1195.41 1136.55 Z" fill="#000000" fill-rule="evenodd" fill-opacity="1" /><path clip-path="url(#clip230)" d="M1223.28 1123.17 Q1219.67 1123.17 1217.84 1126.74 Q1216.03 1130.28 1216.03 1137.41 Q1216.03 1144.52 1217.84 1148.08 Q1219.67 1151.62 1223.28 1151.62 Q1226.91 1151.62 1228.72 1148.08 Q1230.55 1144.52 1230.55 1137.41 Q1230.55 1130.28 1228.72 1126.74 Q1226.91 1123.17 1223.28 1123.17 M1223.28 1119.47 Q1229.09 1119.47 1232.14 1124.08 Q1235.22 1128.66 1235.22 1137.41 Q1235.22 1146.14 1232.14 1150.74 Q1229.09 1155.33 1223.28 1155.33 Q1217.47 1155.33 1214.39 1150.74 Q1211.33 1146.14 1211.33 1137.41 Q1211.33 1128.66 1214.39 1124.08 Q1217.47 1119.47 1223.28 1119.47 Z" fill="#000000" fill-rule="evenodd" fill-opacity="1" /></svg>
