<?xml version="1.0" encoding="utf-8"?>
<svg xmlns="http://www.w3.org/2000/svg" xmlns:xlink="http://www.w3.org/1999/xlink" width="672" height="480" viewBox="0 0 2688 1920">
<defs>
  <clipPath id="clip310">
    <rect x="0" y="0" width="2688" height="1920"/>
  </clipPath>
</defs>
<path clip-path="url(#clip310)" d="
M0 1920 L2688 1920 L2688 0 L0 0  Z
  " fill="#ffffff" fill-rule="evenodd" fill-opacity="1"/>
<defs>
  <clipPath id="clip311">
    <rect x="537" y="0" width="1883" height="1883"/>
  </clipPath>
</defs>
<path clip-path="url(#clip310)" d="
M208.502 1734.12 L2640.76 1734.12 L2640.76 47.2441 L208.502 47.2441  Z
  " fill="#ffffff" fill-rule="evenodd" fill-opacity="1"/>
<defs>
  <clipPath id="clip312">
    <rect x="208" y="47" width="2433" height="1688"/>
  </clipPath>
</defs>
<polyline clip-path="url(#clip312)" style="stroke:#000000; stroke-linecap:round; stroke-linejoin:round; stroke-width:2; stroke-opacity:0.1; fill:none" points="
  211.605,1734.12 211.605,47.2441 
  "/>
<polyline clip-path="url(#clip312)" style="stroke:#000000; stroke-linecap:round; stroke-linejoin:round; stroke-width:2; stroke-opacity:0.1; fill:none" points="
  706.862,1734.12 706.862,47.2441 
  "/>
<polyline clip-path="url(#clip312)" style="stroke:#000000; stroke-linecap:round; stroke-linejoin:round; stroke-width:2; stroke-opacity:0.1; fill:none" points="
  1202.12,1734.12 1202.12,47.2441 
  "/>
<polyline clip-path="url(#clip312)" style="stroke:#000000; stroke-linecap:round; stroke-linejoin:round; stroke-width:2; stroke-opacity:0.1; fill:none" points="
  1697.38,1734.12 1697.38,47.2441 
  "/>
<polyline clip-path="url(#clip312)" style="stroke:#000000; stroke-linecap:round; stroke-linejoin:round; stroke-width:2; stroke-opacity:0.1; fill:none" points="
  2192.63,1734.12 2192.63,47.2441 
  "/>
<polyline clip-path="url(#clip310)" style="stroke:#000000; stroke-linecap:round; stroke-linejoin:round; stroke-width:4; stroke-opacity:1; fill:none" points="
  208.502,1734.12 2640.76,1734.12 
  "/>
<polyline clip-path="url(#clip310)" style="stroke:#000000; stroke-linecap:round; stroke-linejoin:round; stroke-width:4; stroke-opacity:1; fill:none" points="
  211.605,1734.12 211.605,1715.22 
  "/>
<polyline clip-path="url(#clip310)" style="stroke:#000000; stroke-linecap:round; stroke-linejoin:round; stroke-width:4; stroke-opacity:1; fill:none" points="
  706.862,1734.12 706.862,1715.22 
  "/>
<polyline clip-path="url(#clip310)" style="stroke:#000000; stroke-linecap:round; stroke-linejoin:round; stroke-width:4; stroke-opacity:1; fill:none" points="
  1202.12,1734.12 1202.12,1715.22 
  "/>
<polyline clip-path="url(#clip310)" style="stroke:#000000; stroke-linecap:round; stroke-linejoin:round; stroke-width:4; stroke-opacity:1; fill:none" points="
  1697.38,1734.12 1697.38,1715.22 
  "/>
<polyline clip-path="url(#clip310)" style="stroke:#000000; stroke-linecap:round; stroke-linejoin:round; stroke-width:4; stroke-opacity:1; fill:none" points="
  2192.63,1734.12 2192.63,1715.22 
  "/>
<path clip-path="url(#clip310)" d="M212.01 1779.68 Q208.862 1779.68 207.01 1781.83 Q205.181 1783.98 205.181 1787.73 Q205.181 1791.46 207.01 1793.64 Q208.862 1795.79 212.01 1795.79 Q215.158 1795.79 216.987 1793.64 Q218.839 1791.46 218.839 1787.73 Q218.839 1783.98 216.987 1781.83 Q215.158 1779.68 212.01 1779.68 M221.292 1765.02 L221.292 1769.28 Q219.533 1768.45 217.728 1768.01 Q215.945 1767.57 214.186 1767.57 Q209.556 1767.57 207.103 1770.7 Q204.672 1773.82 204.325 1780.14 Q205.691 1778.13 207.751 1777.06 Q209.811 1775.97 212.288 1775.97 Q217.496 1775.97 220.505 1779.15 Q223.538 1782.29 223.538 1787.73 Q223.538 1793.06 220.39 1796.27 Q217.242 1799.49 212.01 1799.49 Q206.015 1799.49 202.843 1794.91 Q199.672 1790.3 199.672 1781.58 Q199.672 1773.38 203.561 1768.52 Q207.45 1763.64 214.001 1763.64 Q215.76 1763.64 217.542 1763.98 Q219.348 1764.33 221.292 1765.02 Z" fill="#000000" fill-rule="evenodd" fill-opacity="1" /><path clip-path="url(#clip310)" d="M695.751 1764.26 L717.973 1764.26 L717.973 1766.25 L705.427 1798.82 L700.543 1798.82 L712.348 1768.2 L695.751 1768.2 L695.751 1764.26 Z" fill="#000000" fill-rule="evenodd" fill-opacity="1" /><path clip-path="url(#clip310)" d="M1202.12 1782.41 Q1198.79 1782.41 1196.86 1784.19 Q1194.97 1785.97 1194.97 1789.1 Q1194.97 1792.22 1196.86 1794.01 Q1198.79 1795.79 1202.12 1795.79 Q1205.45 1795.79 1207.37 1794.01 Q1209.3 1792.2 1209.3 1789.1 Q1209.3 1785.97 1207.37 1784.19 Q1205.48 1782.41 1202.12 1782.41 M1197.44 1780.42 Q1194.43 1779.68 1192.74 1777.62 Q1191.08 1775.56 1191.08 1772.59 Q1191.08 1768.45 1194.02 1766.04 Q1196.98 1763.64 1202.12 1763.64 Q1207.28 1763.64 1210.22 1766.04 Q1213.16 1768.45 1213.16 1772.59 Q1213.16 1775.56 1211.47 1777.62 Q1209.8 1779.68 1206.82 1780.42 Q1210.2 1781.21 1212.07 1783.5 Q1213.97 1785.79 1213.97 1789.1 Q1213.97 1794.12 1210.89 1796.81 Q1207.84 1799.49 1202.12 1799.49 Q1196.4 1799.49 1193.32 1796.81 Q1190.27 1794.12 1190.27 1789.1 Q1190.27 1785.79 1192.17 1783.5 Q1194.06 1781.21 1197.44 1780.42 M1195.73 1773.03 Q1195.73 1775.72 1197.4 1777.22 Q1199.09 1778.73 1202.12 1778.73 Q1205.13 1778.73 1206.82 1777.22 Q1208.53 1775.72 1208.53 1773.03 Q1208.53 1770.35 1206.82 1768.84 Q1205.13 1767.34 1202.12 1767.34 Q1199.09 1767.34 1197.4 1768.84 Q1195.73 1770.35 1195.73 1773.03 Z" fill="#000000" fill-rule="evenodd" fill-opacity="1" /><path clip-path="url(#clip310)" d="M1687.68 1798.1 L1687.68 1793.84 Q1689.44 1794.68 1691.24 1795.12 Q1693.05 1795.56 1694.78 1795.56 Q1699.41 1795.56 1701.84 1792.46 Q1704.3 1789.33 1704.65 1782.99 Q1703.3 1784.98 1701.24 1786.04 Q1699.18 1787.11 1696.68 1787.11 Q1691.5 1787.11 1688.46 1783.98 Q1685.46 1780.83 1685.46 1775.4 Q1685.46 1770.07 1688.6 1766.85 Q1691.75 1763.64 1696.98 1763.64 Q1702.98 1763.64 1706.13 1768.24 Q1709.3 1772.83 1709.3 1781.58 Q1709.3 1789.75 1705.41 1794.63 Q1701.54 1799.49 1694.99 1799.49 Q1693.23 1799.49 1691.43 1799.15 Q1689.62 1798.8 1687.68 1798.1 M1696.98 1783.45 Q1700.13 1783.45 1701.96 1781.3 Q1703.81 1779.15 1703.81 1775.4 Q1703.81 1771.67 1701.96 1769.52 Q1700.13 1767.34 1696.98 1767.34 Q1693.84 1767.34 1691.98 1769.52 Q1690.15 1771.67 1690.15 1775.4 Q1690.15 1779.15 1691.98 1781.3 Q1693.84 1783.45 1696.98 1783.45 Z" fill="#000000" fill-rule="evenodd" fill-opacity="1" /><path clip-path="url(#clip310)" d="M2167.32 1794.89 L2174.96 1794.89 L2174.96 1768.52 L2166.65 1770.19 L2166.65 1765.93 L2174.91 1764.26 L2179.59 1764.26 L2179.59 1794.89 L2187.23 1794.89 L2187.23 1798.82 L2167.32 1798.82 L2167.32 1794.89 Z" fill="#000000" fill-rule="evenodd" fill-opacity="1" /><path clip-path="url(#clip310)" d="M2206.67 1767.34 Q2203.06 1767.34 2201.23 1770.9 Q2199.43 1774.45 2199.43 1781.58 Q2199.43 1788.68 2201.23 1792.25 Q2203.06 1795.79 2206.67 1795.79 Q2210.31 1795.79 2212.11 1792.25 Q2213.94 1788.68 2213.94 1781.58 Q2213.94 1774.45 2212.11 1770.9 Q2210.31 1767.34 2206.67 1767.34 M2206.67 1763.64 Q2212.48 1763.64 2215.54 1768.24 Q2218.62 1772.83 2218.62 1781.58 Q2218.62 1790.3 2215.54 1794.91 Q2212.48 1799.49 2206.67 1799.49 Q2200.86 1799.49 2197.78 1794.91 Q2194.73 1790.3 2194.73 1781.58 Q2194.73 1772.83 2197.78 1768.24 Q2200.86 1763.64 2206.67 1763.64 Z" fill="#000000" fill-rule="evenodd" fill-opacity="1" /><path clip-path="url(#clip310)" d="M1192.69 1837.34 L1192.69 1843.61 Q1189.03 1841.86 1185.79 1841 Q1182.54 1840.14 1179.52 1840.14 Q1174.27 1840.14 1171.4 1842.18 Q1168.57 1844.22 1168.57 1847.97 Q1168.57 1851.12 1170.45 1852.75 Q1172.36 1854.34 1177.64 1855.32 L1181.52 1856.12 Q1188.72 1857.49 1192.12 1860.96 Q1195.56 1864.39 1195.56 1870.19 Q1195.56 1877.09 1190.91 1880.66 Q1186.3 1884.22 1177.35 1884.22 Q1173.98 1884.22 1170.16 1883.46 Q1166.37 1882.7 1162.3 1881.2 L1162.3 1874.58 Q1166.21 1876.78 1169.97 1877.89 Q1173.72 1879 1177.35 1879 Q1182.86 1879 1185.85 1876.84 Q1188.84 1874.68 1188.84 1870.67 Q1188.84 1867.16 1186.68 1865.19 Q1184.55 1863.22 1179.64 1862.23 L1175.73 1861.47 Q1168.54 1860.03 1165.32 1856.98 Q1162.11 1853.92 1162.11 1848.48 Q1162.11 1842.18 1166.53 1838.55 Q1170.99 1834.92 1178.79 1834.92 Q1182.13 1834.92 1185.6 1835.53 Q1189.07 1836.13 1192.69 1837.34 Z" fill="#000000" fill-rule="evenodd" fill-opacity="1" /><path clip-path="url(#clip310)" d="M1221.53 1865.38 Q1214.43 1865.38 1211.7 1867 Q1208.96 1868.63 1208.96 1872.54 Q1208.96 1875.66 1211 1877.51 Q1213.06 1879.32 1216.6 1879.32 Q1221.47 1879.32 1224.4 1875.88 Q1227.36 1872.42 1227.36 1866.69 L1227.36 1865.38 L1221.53 1865.38 M1233.21 1862.96 L1233.21 1883.3 L1227.36 1883.3 L1227.36 1877.89 Q1225.35 1881.14 1222.36 1882.7 Q1219.37 1884.22 1215.04 1884.22 Q1209.56 1884.22 1206.32 1881.17 Q1203.1 1878.08 1203.1 1872.92 Q1203.1 1866.91 1207.11 1863.85 Q1211.15 1860.8 1219.14 1860.8 L1227.36 1860.8 L1227.36 1860.23 Q1227.36 1856.18 1224.68 1853.99 Q1222.04 1851.76 1217.23 1851.76 Q1214.18 1851.76 1211.28 1852.49 Q1208.39 1853.22 1205.71 1854.69 L1205.71 1849.28 Q1208.93 1848.03 1211.95 1847.43 Q1214.97 1846.79 1217.84 1846.79 Q1225.57 1846.79 1229.39 1850.8 Q1233.21 1854.81 1233.21 1862.96 Z" fill="#000000" fill-rule="evenodd" fill-opacity="1" /><path clip-path="url(#clip310)" d="M1273.03 1854.5 Q1275.23 1850.55 1278.28 1848.67 Q1281.34 1846.79 1285.47 1846.79 Q1291.04 1846.79 1294.07 1850.71 Q1297.09 1854.59 1297.09 1861.78 L1297.09 1883.3 L1291.2 1883.3 L1291.2 1861.98 Q1291.2 1856.85 1289.39 1854.37 Q1287.58 1851.89 1283.85 1851.89 Q1279.3 1851.89 1276.66 1854.91 Q1274.02 1857.93 1274.02 1863.15 L1274.02 1883.3 L1268.13 1883.3 L1268.13 1861.98 Q1268.13 1856.82 1266.31 1854.37 Q1264.5 1851.89 1260.71 1851.89 Q1256.22 1851.89 1253.58 1854.94 Q1250.94 1857.97 1250.94 1863.15 L1250.94 1883.3 L1245.05 1883.3 L1245.05 1847.65 L1250.94 1847.65 L1250.94 1853.19 Q1252.95 1849.91 1255.75 1848.35 Q1258.55 1846.79 1262.4 1846.79 Q1266.28 1846.79 1268.99 1848.77 Q1271.72 1850.74 1273.03 1854.5 Z" fill="#000000" fill-rule="evenodd" fill-opacity="1" /><path clip-path="url(#clip310)" d="M1314.44 1877.95 L1314.44 1896.86 L1308.55 1896.86 L1308.55 1847.65 L1314.44 1847.65 L1314.44 1853.06 Q1316.28 1849.88 1319.09 1848.35 Q1321.92 1846.79 1325.83 1846.79 Q1332.33 1846.79 1336.37 1851.95 Q1340.44 1857.11 1340.44 1865.51 Q1340.44 1873.91 1336.37 1879.07 Q1332.33 1884.22 1325.83 1884.22 Q1321.92 1884.22 1319.09 1882.7 Q1316.28 1881.14 1314.44 1877.95 M1334.36 1865.51 Q1334.36 1859.05 1331.69 1855.39 Q1329.05 1851.7 1324.4 1851.7 Q1319.75 1851.7 1317.08 1855.39 Q1314.44 1859.05 1314.44 1865.51 Q1314.44 1871.97 1317.08 1875.66 Q1319.75 1879.32 1324.4 1879.32 Q1329.05 1879.32 1331.69 1875.66 Q1334.36 1871.97 1334.36 1865.51 Z" fill="#000000" fill-rule="evenodd" fill-opacity="1" /><path clip-path="url(#clip310)" d="M1350.15 1833.78 L1356.01 1833.78 L1356.01 1883.3 L1350.15 1883.3 L1350.15 1833.78 Z" fill="#000000" fill-rule="evenodd" fill-opacity="1" /><path clip-path="url(#clip310)" d="M1398.75 1864.01 L1398.75 1866.88 L1371.83 1866.88 Q1372.21 1872.92 1375.45 1876.11 Q1378.73 1879.26 1384.56 1879.26 Q1387.93 1879.26 1391.08 1878.43 Q1394.26 1877.6 1397.38 1875.95 L1397.38 1881.49 Q1394.23 1882.82 1390.92 1883.52 Q1387.61 1884.22 1384.21 1884.22 Q1375.68 1884.22 1370.68 1879.26 Q1365.71 1874.29 1365.71 1865.83 Q1365.71 1857.07 1370.42 1851.95 Q1375.17 1846.79 1383.19 1846.79 Q1390.38 1846.79 1394.55 1851.44 Q1398.75 1856.06 1398.75 1864.01 M1392.9 1862.29 Q1392.83 1857.49 1390.19 1854.62 Q1387.58 1851.76 1383.25 1851.76 Q1378.35 1851.76 1375.39 1854.53 Q1372.46 1857.3 1372.02 1862.33 L1392.9 1862.29 Z" fill="#000000" fill-rule="evenodd" fill-opacity="1" /><path clip-path="url(#clip310)" d="M1445.22 1842.11 L1436.5 1865.76 L1453.97 1865.76 L1445.22 1842.11 M1441.59 1835.78 L1448.88 1835.78 L1466.99 1883.3 L1460.31 1883.3 L1455.98 1871.11 L1434.56 1871.11 L1430.23 1883.3 L1423.45 1883.3 L1441.59 1835.78 Z" fill="#000000" fill-rule="evenodd" fill-opacity="1" /><path clip-path="url(#clip310)" d="M1465.66 1847.65 L1471.86 1847.65 L1483 1877.57 L1494.14 1847.65 L1500.35 1847.65 L1486.98 1883.3 L1479.02 1883.3 L1465.66 1847.65 Z" fill="#000000" fill-rule="evenodd" fill-opacity="1" /><path clip-path="url(#clip310)" d="M1538.93 1864.01 L1538.93 1866.88 L1512 1866.88 Q1512.38 1872.92 1515.63 1876.11 Q1518.9 1879.26 1524.73 1879.26 Q1528.1 1879.26 1531.25 1878.43 Q1534.44 1877.6 1537.56 1875.95 L1537.56 1881.49 Q1534.41 1882.82 1531.1 1883.52 Q1527.79 1884.22 1524.38 1884.22 Q1515.85 1884.22 1510.85 1879.26 Q1505.89 1874.29 1505.89 1865.83 Q1505.89 1857.07 1510.6 1851.95 Q1515.34 1846.79 1523.36 1846.79 Q1530.55 1846.79 1534.72 1851.44 Q1538.93 1856.06 1538.93 1864.01 M1533.07 1862.29 Q1533 1857.49 1530.36 1854.62 Q1527.75 1851.76 1523.42 1851.76 Q1518.52 1851.76 1515.56 1854.53 Q1512.63 1857.3 1512.19 1862.33 L1533.07 1862.29 Z" fill="#000000" fill-rule="evenodd" fill-opacity="1" /><path clip-path="url(#clip310)" d="M1569.19 1853.13 Q1568.21 1852.55 1567.03 1852.3 Q1565.88 1852.01 1564.48 1852.01 Q1559.52 1852.01 1556.84 1855.26 Q1554.2 1858.47 1554.2 1864.52 L1554.2 1883.3 L1548.31 1883.3 L1548.31 1847.65 L1554.2 1847.65 L1554.2 1853.19 Q1556.05 1849.94 1559.01 1848.39 Q1561.97 1846.79 1566.2 1846.79 Q1566.81 1846.79 1567.54 1846.89 Q1568.27 1846.95 1569.16 1847.11 L1569.19 1853.13 Z" fill="#000000" fill-rule="evenodd" fill-opacity="1" /><path clip-path="url(#clip310)" d="M1591.54 1865.38 Q1584.44 1865.38 1581.7 1867 Q1578.97 1868.63 1578.97 1872.54 Q1578.97 1875.66 1581 1877.51 Q1583.07 1879.32 1586.6 1879.32 Q1591.47 1879.32 1594.4 1875.88 Q1597.36 1872.42 1597.36 1866.69 L1597.36 1865.38 L1591.54 1865.38 M1603.22 1862.96 L1603.22 1883.3 L1597.36 1883.3 L1597.36 1877.89 Q1595.36 1881.14 1592.37 1882.7 Q1589.37 1884.22 1585.04 1884.22 Q1579.57 1884.22 1576.32 1881.17 Q1573.11 1878.08 1573.11 1872.92 Q1573.11 1866.91 1577.12 1863.85 Q1581.16 1860.8 1589.15 1860.8 L1597.36 1860.8 L1597.36 1860.23 Q1597.36 1856.18 1594.69 1853.99 Q1592.05 1851.76 1587.24 1851.76 Q1584.19 1851.76 1581.29 1852.49 Q1578.39 1853.22 1575.72 1854.69 L1575.72 1849.28 Q1578.93 1848.03 1581.96 1847.43 Q1584.98 1846.79 1587.85 1846.79 Q1595.58 1846.79 1599.4 1850.8 Q1603.22 1854.81 1603.22 1862.96 Z" fill="#000000" fill-rule="evenodd" fill-opacity="1" /><path clip-path="url(#clip310)" d="M1638.74 1865.06 Q1638.74 1858.7 1636.1 1855.2 Q1633.49 1851.7 1628.75 1851.7 Q1624.03 1851.7 1621.39 1855.2 Q1618.78 1858.7 1618.78 1865.06 Q1618.78 1871.4 1621.39 1874.9 Q1624.03 1878.4 1628.75 1878.4 Q1633.49 1878.4 1636.1 1874.9 Q1638.74 1871.4 1638.74 1865.06 M1644.6 1878.88 Q1644.6 1887.98 1640.55 1892.4 Q1636.51 1896.86 1628.17 1896.86 Q1625.08 1896.86 1622.35 1896.38 Q1619.61 1895.94 1617.03 1894.98 L1617.03 1889.28 Q1619.61 1890.69 1622.12 1891.35 Q1624.64 1892.02 1627.25 1892.02 Q1633.01 1892.02 1635.87 1889 Q1638.74 1886.01 1638.74 1879.93 L1638.74 1877.03 Q1636.93 1880.18 1634.09 1881.74 Q1631.26 1883.3 1627.31 1883.3 Q1620.76 1883.3 1616.75 1878.3 Q1612.74 1873.31 1612.74 1865.06 Q1612.74 1856.79 1616.75 1851.79 Q1620.76 1846.79 1627.31 1846.79 Q1631.26 1846.79 1634.09 1848.35 Q1636.93 1849.91 1638.74 1853.06 L1638.74 1847.65 L1644.6 1847.65 L1644.6 1878.88 Z" fill="#000000" fill-rule="evenodd" fill-opacity="1" /><path clip-path="url(#clip310)" d="M1687.15 1864.01 L1687.15 1866.88 L1660.22 1866.88 Q1660.61 1872.92 1663.85 1876.11 Q1667.13 1879.26 1672.96 1879.26 Q1676.33 1879.26 1679.48 1878.43 Q1682.66 1877.6 1685.78 1875.95 L1685.78 1881.49 Q1682.63 1882.82 1679.32 1883.52 Q1676.01 1884.22 1672.6 1884.22 Q1664.07 1884.22 1659.08 1879.26 Q1654.11 1874.29 1654.11 1865.83 Q1654.11 1857.07 1658.82 1851.95 Q1663.57 1846.79 1671.59 1846.79 Q1678.78 1846.79 1682.95 1851.44 Q1687.15 1856.06 1687.15 1864.01 M1681.29 1862.29 Q1681.23 1857.49 1678.59 1854.62 Q1675.98 1851.76 1671.65 1851.76 Q1666.75 1851.76 1663.79 1854.53 Q1660.86 1857.3 1660.41 1862.33 L1681.29 1862.29 Z" fill="#000000" fill-rule="evenodd" fill-opacity="1" /><polyline clip-path="url(#clip312)" style="stroke:#000000; stroke-linecap:round; stroke-linejoin:round; stroke-width:2; stroke-opacity:0.1; fill:none" points="
  208.502,1418.96 2640.76,1418.96 
  "/>
<polyline clip-path="url(#clip312)" style="stroke:#000000; stroke-linecap:round; stroke-linejoin:round; stroke-width:2; stroke-opacity:0.1; fill:none" points="
  208.502,1025 2640.76,1025 
  "/>
<polyline clip-path="url(#clip312)" style="stroke:#000000; stroke-linecap:round; stroke-linejoin:round; stroke-width:2; stroke-opacity:0.1; fill:none" points="
  208.502,631.042 2640.76,631.042 
  "/>
<polyline clip-path="url(#clip312)" style="stroke:#000000; stroke-linecap:round; stroke-linejoin:round; stroke-width:2; stroke-opacity:0.1; fill:none" points="
  208.502,237.082 2640.76,237.082 
  "/>
<polyline clip-path="url(#clip310)" style="stroke:#000000; stroke-linecap:round; stroke-linejoin:round; stroke-width:4; stroke-opacity:1; fill:none" points="
  208.502,1734.12 208.502,47.2441 
  "/>
<polyline clip-path="url(#clip310)" style="stroke:#000000; stroke-linecap:round; stroke-linejoin:round; stroke-width:4; stroke-opacity:1; fill:none" points="
  208.502,1418.96 227.399,1418.96 
  "/>
<polyline clip-path="url(#clip310)" style="stroke:#000000; stroke-linecap:round; stroke-linejoin:round; stroke-width:4; stroke-opacity:1; fill:none" points="
  208.502,1025 227.399,1025 
  "/>
<polyline clip-path="url(#clip310)" style="stroke:#000000; stroke-linecap:round; stroke-linejoin:round; stroke-width:4; stroke-opacity:1; fill:none" points="
  208.502,631.042 227.399,631.042 
  "/>
<polyline clip-path="url(#clip310)" style="stroke:#000000; stroke-linecap:round; stroke-linejoin:round; stroke-width:4; stroke-opacity:1; fill:none" points="
  208.502,237.082 227.399,237.082 
  "/>
<path clip-path="url(#clip310)" d="M145.96 1401.68 L168.182 1401.68 L168.182 1403.67 L155.636 1436.24 L150.751 1436.24 L162.557 1405.62 L145.96 1405.62 L145.96 1401.68 Z" fill="#000000" fill-rule="evenodd" fill-opacity="1" /><path clip-path="url(#clip310)" d="M156.33 1025.87 Q152.997 1025.87 151.075 1027.65 Q149.177 1029.44 149.177 1032.56 Q149.177 1035.69 151.075 1037.47 Q152.997 1039.25 156.33 1039.25 Q159.663 1039.25 161.585 1037.47 Q163.506 1035.66 163.506 1032.56 Q163.506 1029.44 161.585 1027.65 Q159.686 1025.87 156.33 1025.87 M151.654 1023.88 Q148.645 1023.14 146.955 1021.08 Q145.288 1019.02 145.288 1016.06 Q145.288 1011.91 148.228 1009.51 Q151.191 1007.1 156.33 1007.1 Q161.492 1007.1 164.432 1009.51 Q167.372 1011.91 167.372 1016.06 Q167.372 1019.02 165.682 1021.08 Q164.015 1023.14 161.029 1023.88 Q164.409 1024.67 166.284 1026.96 Q168.182 1029.25 168.182 1032.56 Q168.182 1037.58 165.103 1040.27 Q162.048 1042.95 156.33 1042.95 Q150.612 1042.95 147.534 1040.27 Q144.478 1037.58 144.478 1032.56 Q144.478 1029.25 146.376 1026.96 Q148.274 1024.67 151.654 1023.88 M149.941 1016.5 Q149.941 1019.18 151.608 1020.69 Q153.298 1022.19 156.33 1022.19 Q159.339 1022.19 161.029 1020.69 Q162.742 1019.18 162.742 1016.5 Q162.742 1013.81 161.029 1012.31 Q159.339 1010.8 156.33 1010.8 Q153.298 1010.8 151.608 1012.31 Q149.941 1013.81 149.941 1016.5 Z" fill="#000000" fill-rule="evenodd" fill-opacity="1" /><path clip-path="url(#clip310)" d="M146.562 647.605 L146.562 643.345 Q148.321 644.179 150.126 644.619 Q151.932 645.058 153.668 645.058 Q158.298 645.058 160.728 641.956 Q163.182 638.832 163.529 632.489 Q162.186 634.48 160.126 635.544 Q158.066 636.609 155.566 636.609 Q150.381 636.609 147.349 633.484 Q144.339 630.336 144.339 624.896 Q144.339 619.572 147.487 616.355 Q150.636 613.137 155.867 613.137 Q161.862 613.137 165.01 617.744 Q168.182 622.327 168.182 631.077 Q168.182 639.248 164.293 644.132 Q160.427 648.993 153.876 648.993 Q152.117 648.993 150.311 648.646 Q148.506 648.299 146.562 647.605 M155.867 632.952 Q159.015 632.952 160.844 630.799 Q162.696 628.646 162.696 624.896 Q162.696 621.17 160.844 619.017 Q159.015 616.841 155.867 616.841 Q152.719 616.841 150.867 619.017 Q149.038 621.17 149.038 624.896 Q149.038 628.646 150.867 630.799 Q152.719 632.952 155.867 632.952 Z" fill="#000000" fill-rule="evenodd" fill-opacity="1" /><path clip-path="url(#clip310)" d="M116.886 250.426 L124.525 250.426 L124.525 224.061 L116.214 225.727 L116.214 221.468 L124.478 219.802 L129.154 219.802 L129.154 250.426 L136.793 250.426 L136.793 254.362 L116.886 254.362 L116.886 250.426 Z" fill="#000000" fill-rule="evenodd" fill-opacity="1" /><path clip-path="url(#clip310)" d="M156.237 222.88 Q152.626 222.88 150.798 226.445 Q148.992 229.987 148.992 237.116 Q148.992 244.223 150.798 247.788 Q152.626 251.329 156.237 251.329 Q159.872 251.329 161.677 247.788 Q163.506 244.223 163.506 237.116 Q163.506 229.987 161.677 226.445 Q159.872 222.88 156.237 222.88 M156.237 219.177 Q162.048 219.177 165.103 223.783 Q168.182 228.366 168.182 237.116 Q168.182 245.843 165.103 250.45 Q162.048 255.033 156.237 255.033 Q150.427 255.033 147.349 250.45 Q144.293 245.843 144.293 237.116 Q144.293 228.366 147.349 223.783 Q150.427 219.177 156.237 219.177 Z" fill="#000000" fill-rule="evenodd" fill-opacity="1" /><path clip-path="url(#clip310)" d="M19.402 1226.41 L37.2578 1226.41 L37.2578 1218.32 Q37.2578 1213.84 34.9343 1211.38 Q32.6108 1208.93 28.314 1208.93 Q24.0489 1208.93 21.7255 1211.38 Q19.402 1213.84 19.402 1218.32 L19.402 1226.41 M14.1184 1232.84 L14.1184 1218.32 Q14.1184 1210.33 17.7469 1206.26 Q21.3435 1202.15 28.314 1202.15 Q35.3481 1202.15 38.9447 1206.26 Q42.5413 1210.33 42.5413 1218.32 L42.5413 1226.41 L61.6384 1226.41 L61.6384 1232.84 L14.1184 1232.84 Z" fill="#000000" fill-rule="evenodd" fill-opacity="1" /><path clip-path="url(#clip310)" d="M30.0964 1182.29 Q30.0964 1187 33.7885 1189.74 Q37.4488 1192.48 43.8463 1192.48 Q50.2438 1192.48 53.9359 1189.77 Q57.5962 1187.04 57.5962 1182.29 Q57.5962 1177.61 53.9041 1174.88 Q50.212 1172.14 43.8463 1172.14 Q37.5124 1172.14 33.8203 1174.88 Q30.0964 1177.61 30.0964 1182.29 M25.1311 1182.29 Q25.1311 1174.65 30.0964 1170.29 Q35.0616 1165.93 43.8463 1165.93 Q52.5991 1165.93 57.5962 1170.29 Q62.5615 1174.65 62.5615 1182.29 Q62.5615 1189.96 57.5962 1194.32 Q52.5991 1198.65 43.8463 1198.65 Q35.0616 1198.65 30.0964 1194.32 Q25.1311 1189.96 25.1311 1182.29 Z" fill="#000000" fill-rule="evenodd" fill-opacity="1" /><path clip-path="url(#clip310)" d="M27.0408 1133.5 L32.579 1133.5 Q31.3059 1135.98 30.6693 1138.66 Q30.0327 1141.33 30.0327 1144.19 Q30.0327 1148.56 31.3695 1150.75 Q32.7063 1152.92 35.3799 1152.92 Q37.4169 1152.92 38.5946 1151.36 Q39.7404 1149.8 40.7908 1145.09 L41.2364 1143.08 Q42.5732 1136.84 45.0239 1134.23 Q47.4429 1131.59 51.8034 1131.59 Q56.7687 1131.59 59.6651 1135.54 Q62.5615 1139.45 62.5615 1146.33 Q62.5615 1149.19 61.9886 1152.31 Q61.4475 1155.4 60.3335 1158.84 L54.2861 1158.84 Q55.973 1155.59 56.8323 1152.44 Q57.6599 1149.29 57.6599 1146.2 Q57.6599 1142.06 56.2594 1139.83 Q54.8271 1137.61 52.249 1137.61 Q49.8619 1137.61 48.5887 1139.23 Q47.3156 1140.82 46.1379 1146.26 L45.6605 1148.3 Q44.5147 1153.74 42.1594 1156.16 Q39.7722 1158.58 35.6345 1158.58 Q30.6056 1158.58 27.8684 1155.02 Q25.1311 1151.45 25.1311 1144.9 Q25.1311 1141.65 25.6085 1138.78 Q26.086 1135.92 27.0408 1133.5 Z" fill="#000000" fill-rule="evenodd" fill-opacity="1" /><path clip-path="url(#clip310)" d="M15.869 1116.47 L25.9905 1116.47 L25.9905 1104.41 L30.542 1104.41 L30.542 1116.47 L49.8937 1116.47 Q54.2542 1116.47 55.4955 1115.29 Q56.7368 1114.09 56.7368 1110.42 L56.7368 1104.41 L61.6384 1104.41 L61.6384 1110.42 Q61.6384 1117.2 59.124 1119.78 Q56.5777 1122.36 49.8937 1122.36 L30.542 1122.36 L30.542 1126.66 L25.9905 1126.66 L25.9905 1122.36 L15.869 1122.36 L15.869 1116.47 Z" fill="#000000" fill-rule="evenodd" fill-opacity="1" /><path clip-path="url(#clip310)" d="M42.3504 1066.21 L45.2149 1066.21 L45.2149 1093.14 Q51.2623 1092.76 54.4452 1089.51 Q57.5962 1086.24 57.5962 1080.41 Q57.5962 1077.04 56.7687 1073.89 Q55.9411 1070.7 54.2861 1067.58 L59.8242 1067.58 Q61.161 1070.73 61.8612 1074.04 Q62.5615 1077.35 62.5615 1080.76 Q62.5615 1089.29 57.5962 1094.29 Q52.631 1099.25 44.1646 1099.25 Q35.4117 1099.25 30.2873 1094.54 Q25.1311 1089.8 25.1311 1081.78 Q25.1311 1074.59 29.7781 1070.42 Q34.3932 1066.21 42.3504 1066.21 M40.6316 1072.07 Q35.8255 1072.14 32.9609 1074.78 Q30.0964 1077.39 30.0964 1081.72 Q30.0964 1086.62 32.8654 1089.58 Q35.6345 1092.51 40.6634 1092.95 L40.6316 1072.07 Z" fill="#000000" fill-rule="evenodd" fill-opacity="1" /><path clip-path="url(#clip310)" d="M31.465 1035.95 Q30.8921 1036.93 30.6375 1038.11 Q30.351 1039.26 30.351 1040.66 Q30.351 1045.62 33.5975 1048.3 Q36.8122 1050.94 42.8596 1050.94 L61.6384 1050.94 L61.6384 1056.83 L25.9905 1056.83 L25.9905 1050.94 L31.5287 1050.94 Q28.2821 1049.09 26.7225 1046.13 Q25.1311 1043.17 25.1311 1038.94 Q25.1311 1038.33 25.2266 1037.6 Q25.2903 1036.87 25.4494 1035.98 L31.465 1035.95 Z" fill="#000000" fill-rule="evenodd" fill-opacity="1" /><path clip-path="url(#clip310)" d="M25.9905 1029.8 L25.9905 1023.95 L61.6384 1023.95 L61.6384 1029.8 L25.9905 1029.8 M12.1132 1029.8 L12.1132 1023.95 L19.5293 1023.95 L19.5293 1029.8 L12.1132 1029.8 Z" fill="#000000" fill-rule="evenodd" fill-opacity="1" /><path clip-path="url(#clip310)" d="M30.0964 997.879 Q30.0964 1002.59 33.7885 1005.33 Q37.4488 1008.06 43.8463 1008.06 Q50.2438 1008.06 53.9359 1005.36 Q57.5962 1002.62 57.5962 997.879 Q57.5962 993.2 53.9041 990.463 Q50.212 987.726 43.8463 987.726 Q37.5124 987.726 33.8203 990.463 Q30.0964 993.2 30.0964 997.879 M25.1311 997.879 Q25.1311 990.24 30.0964 985.88 Q35.0616 981.519 43.8463 981.519 Q52.5991 981.519 57.5962 985.88 Q62.5615 990.24 62.5615 997.879 Q62.5615 1005.55 57.5962 1009.91 Q52.5991 1014.24 43.8463 1014.24 Q35.0616 1014.24 30.0964 1009.91 Q25.1311 1005.55 25.1311 997.879 Z" fill="#000000" fill-rule="evenodd" fill-opacity="1" /><path clip-path="url(#clip310)" d="M31.465 951.155 Q30.8921 952.141 30.6375 953.319 Q30.351 954.465 30.351 955.865 Q30.351 960.831 33.5975 963.504 Q36.8122 966.146 42.8596 966.146 L61.6384 966.146 L61.6384 972.034 L25.9905 972.034 L25.9905 966.146 L31.5287 966.146 Q28.2821 964.3 26.7225 961.34 Q25.1311 958.38 25.1311 954.147 Q25.1311 953.542 25.2266 952.81 Q25.2903 952.078 25.4494 951.187 L31.465 951.155 Z" fill="#000000" fill-rule="evenodd" fill-opacity="1" /><path clip-path="url(#clip310)" d="M14.1184 924.037 L14.1184 893.991 L19.5293 893.991 L19.5293 917.607 L33.5975 917.607 L33.5975 894.977 L39.0084 894.977 L39.0084 917.607 L56.2276 917.607 L56.2276 893.418 L61.6384 893.418 L61.6384 924.037 L14.1184 924.037 Z" fill="#000000" fill-rule="evenodd" fill-opacity="1" /><path clip-path="url(#clip310)" d="M25.9905 853.473 L43.337 866.364 L61.6384 852.805 L61.6384 859.711 L47.6339 870.087 L61.6384 880.464 L61.6384 887.37 L42.9869 873.525 L25.9905 886.193 L25.9905 879.286 L38.6901 869.833 L25.9905 860.38 L25.9905 853.473 Z" fill="#000000" fill-rule="evenodd" fill-opacity="1" /><path clip-path="url(#clip310)" d="M56.2912 838.864 L75.1974 838.864 L75.1974 844.752 L25.9905 844.752 L25.9905 838.864 L31.4013 838.864 Q28.2185 837.018 26.6907 834.217 Q25.1311 831.384 25.1311 827.469 Q25.1311 820.976 30.2873 816.934 Q35.4436 812.86 43.8463 812.86 Q52.249 812.86 57.4052 816.934 Q62.5615 820.976 62.5615 827.469 Q62.5615 831.384 61.0337 834.217 Q59.4741 837.018 56.2912 838.864 M43.8463 818.939 Q37.3851 818.939 33.7248 821.613 Q30.0327 824.254 30.0327 828.901 Q30.0327 833.548 33.7248 836.222 Q37.3851 838.864 43.8463 838.864 Q50.3075 838.864 53.9996 836.222 Q57.6599 833.548 57.6599 828.901 Q57.6599 824.254 53.9996 821.613 Q50.3075 818.939 43.8463 818.939 Z" fill="#000000" fill-rule="evenodd" fill-opacity="1" /><path clip-path="url(#clip310)" d="M42.3504 772.66 L45.2149 772.66 L45.2149 799.587 Q51.2623 799.205 54.4452 795.959 Q57.5962 792.68 57.5962 786.856 Q57.5962 783.482 56.7687 780.331 Q55.9411 777.148 54.2861 774.029 L59.8242 774.029 Q61.161 777.18 61.8612 780.49 Q62.5615 783.8 62.5615 787.206 Q62.5615 795.736 57.5962 800.733 Q52.631 805.698 44.1646 805.698 Q35.4117 805.698 30.2873 800.988 Q25.1311 796.245 25.1311 788.224 Q25.1311 781.031 29.7781 776.862 Q34.3932 772.66 42.3504 772.66 M40.6316 778.517 Q35.8255 778.58 32.9609 781.222 Q30.0964 783.832 30.0964 788.161 Q30.0964 793.062 32.8654 796.022 Q35.6345 798.951 40.6634 799.396 L40.6316 778.517 Z" fill="#000000" fill-rule="evenodd" fill-opacity="1" /><path clip-path="url(#clip310)" d="M27.3591 737.394 L32.8336 737.394 Q31.465 739.877 30.7966 742.391 Q30.0964 744.874 30.0964 747.42 Q30.0964 753.118 33.7248 756.269 Q37.3214 759.42 43.8463 759.42 Q50.3711 759.42 53.9996 756.269 Q57.5962 753.118 57.5962 747.42 Q57.5962 744.874 56.9278 742.391 Q56.2276 739.877 54.859 737.394 L60.2698 737.394 Q61.4156 739.845 61.9886 742.487 Q62.5615 745.097 62.5615 748.057 Q62.5615 756.11 57.5007 760.852 Q52.44 765.594 43.8463 765.594 Q35.1253 765.594 30.1282 760.82 Q25.1311 756.014 25.1311 747.675 Q25.1311 744.97 25.704 742.391 Q26.2451 739.813 27.3591 737.394 Z" fill="#000000" fill-rule="evenodd" fill-opacity="1" /><path clip-path="url(#clip310)" d="M15.869 721.416 L25.9905 721.416 L25.9905 709.353 L30.542 709.353 L30.542 721.416 L49.8937 721.416 Q54.2542 721.416 55.4955 720.239 Q56.7368 719.029 56.7368 715.369 L56.7368 709.353 L61.6384 709.353 L61.6384 715.369 Q61.6384 722.148 59.124 724.727 Q56.5777 727.305 49.8937 727.305 L30.542 727.305 L30.542 731.602 L25.9905 731.602 L25.9905 727.305 L15.869 727.305 L15.869 721.416 Z" fill="#000000" fill-rule="evenodd" fill-opacity="1" /><path clip-path="url(#clip310)" d="M43.719 685.45 Q43.719 692.548 45.3422 695.285 Q46.9655 698.022 50.8804 698.022 Q53.9996 698.022 55.8457 695.985 Q57.6599 693.917 57.6599 690.384 Q57.6599 685.514 54.2224 682.586 Q50.7531 679.626 45.0239 679.626 L43.719 679.626 L43.719 685.45 M41.3 673.769 L61.6384 673.769 L61.6384 679.626 L56.2276 679.626 Q59.4741 681.631 61.0337 684.623 Q62.5615 687.614 62.5615 691.943 Q62.5615 697.418 59.5059 700.664 Q56.4186 703.879 51.2623 703.879 Q45.2467 703.879 42.1912 699.868 Q39.1357 695.826 39.1357 687.837 L39.1357 679.626 L38.5628 679.626 Q34.5205 679.626 32.3244 682.299 Q30.0964 684.941 30.0964 689.747 Q30.0964 692.803 30.8284 695.699 Q31.5605 698.595 33.0246 701.269 L27.6137 701.269 Q26.3724 698.054 25.7677 695.031 Q25.1311 692.007 25.1311 689.142 Q25.1311 681.408 29.1415 677.589 Q33.1519 673.769 41.3 673.769 Z" fill="#000000" fill-rule="evenodd" fill-opacity="1" /><path clip-path="url(#clip310)" d="M15.869 655.913 L25.9905 655.913 L25.9905 643.85 L30.542 643.85 L30.542 655.913 L49.8937 655.913 Q54.2542 655.913 55.4955 654.736 Q56.7368 653.526 56.7368 649.866 L56.7368 643.85 L61.6384 643.85 L61.6384 649.866 Q61.6384 656.645 59.124 659.223 Q56.5777 661.802 49.8937 661.802 L30.542 661.802 L30.542 666.098 L25.9905 666.098 L25.9905 661.802 L15.869 661.802 L15.869 655.913 Z" fill="#000000" fill-rule="evenodd" fill-opacity="1" /><path clip-path="url(#clip310)" d="M25.9905 636.148 L25.9905 630.291 L61.6384 630.291 L61.6384 636.148 L25.9905 636.148 M12.1132 636.148 L12.1132 630.291 L19.5293 630.291 L19.5293 636.148 L12.1132 636.148 Z" fill="#000000" fill-rule="evenodd" fill-opacity="1" /><path clip-path="url(#clip310)" d="M30.0964 604.224 Q30.0964 608.934 33.7885 611.672 Q37.4488 614.409 43.8463 614.409 Q50.2438 614.409 53.9359 611.703 Q57.5962 608.966 57.5962 604.224 Q57.5962 599.545 53.9041 596.808 Q50.212 594.07 43.8463 594.07 Q37.5124 594.07 33.8203 596.808 Q30.0964 599.545 30.0964 604.224 M25.1311 604.224 Q25.1311 596.585 30.0964 592.224 Q35.0616 587.864 43.8463 587.864 Q52.5991 587.864 57.5962 592.224 Q62.5615 596.585 62.5615 604.224 Q62.5615 611.894 57.5962 616.255 Q52.5991 620.584 43.8463 620.584 Q35.0616 620.584 30.0964 616.255 Q25.1311 611.894 25.1311 604.224 Z" fill="#000000" fill-rule="evenodd" fill-opacity="1" /><path clip-path="url(#clip310)" d="M40.1224 548.524 L61.6384 548.524 L61.6384 554.38 L40.3133 554.38 Q35.2526 554.38 32.7381 556.354 Q30.2237 558.327 30.2237 562.274 Q30.2237 567.016 33.2474 569.753 Q36.2711 572.491 41.491 572.491 L61.6384 572.491 L61.6384 578.379 L25.9905 578.379 L25.9905 572.491 L31.5287 572.491 Q28.314 570.39 26.7225 567.557 Q25.1311 564.693 25.1311 560.969 Q25.1311 554.826 28.9505 551.675 Q32.7381 548.524 40.1224 548.524 Z" fill="#000000" fill-rule="evenodd" fill-opacity="1" /><circle clip-path="url(#clip312)" cx="1927.18" cy="542.135" r="14.4" fill="#009af9" fill-rule="evenodd" fill-opacity="1" stroke="#000000" stroke-opacity="1" stroke-width="3.84"/>
<circle clip-path="url(#clip312)" cx="723.443" cy="1379.69" r="14.4" fill="#009af9" fill-rule="evenodd" fill-opacity="1" stroke="#000000" stroke-opacity="1" stroke-width="3.84"/>
<circle clip-path="url(#clip312)" cx="1178.84" cy="1069.15" r="14.4" fill="#009af9" fill-rule="evenodd" fill-opacity="1" stroke="#000000" stroke-opacity="1" stroke-width="3.84"/>
<circle clip-path="url(#clip312)" cx="326.546" cy="1658.84" r="14.4" fill="#009af9" fill-rule="evenodd" fill-opacity="1" stroke="#000000" stroke-opacity="1" stroke-width="3.84"/>
<circle clip-path="url(#clip312)" cx="2571.92" cy="94.9858" r="14.4" fill="#009af9" fill-rule="evenodd" fill-opacity="1" stroke="#000000" stroke-opacity="1" stroke-width="3.84"/>
<circle clip-path="url(#clip312)" cx="313.133" cy="1669.86" r="14.4" fill="#009af9" fill-rule="evenodd" fill-opacity="1" stroke="#000000" stroke-opacity="1" stroke-width="3.84"/>
<circle clip-path="url(#clip312)" cx="277.339" cy="1686.38" r="14.4" fill="#009af9" fill-rule="evenodd" fill-opacity="1" stroke="#000000" stroke-opacity="1" stroke-width="3.84"/>
<circle clip-path="url(#clip312)" cx="895.555" cy="1258.06" r="14.4" fill="#009af9" fill-rule="evenodd" fill-opacity="1" stroke="#000000" stroke-opacity="1" stroke-width="3.84"/>
<polyline clip-path="url(#clip312)" style="stroke:#e26f46; stroke-linecap:round; stroke-linejoin:round; stroke-width:4; stroke-opacity:1; fill:none" points="
  -2223.75,1214 5073.01,1214 
  "/>
<polyline clip-path="url(#clip312)" style="stroke:#3da44d; stroke-linecap:round; stroke-linejoin:round; stroke-width:4; stroke-opacity:1; fill:none" points="
  -2223.75,1146.63 5073.01,1146.63 
  "/>
<path clip-path="url(#clip310)" d="
M1721.66 310.833 L2559.68 310.833 L2559.68 103.473 L1721.66 103.473  Z
  " fill="#ffffff" fill-rule="evenodd" fill-opacity="1"/>
<polyline clip-path="url(#clip310)" style="stroke:#000000; stroke-linecap:round; stroke-linejoin:round; stroke-width:4; stroke-opacity:1; fill:none" points="
  1721.66,310.833 2559.68,310.833 2559.68,103.473 1721.66,103.473 1721.66,310.833 
  "/>
<circle clip-path="url(#clip310)" cx="1829.76" cy="155.313" r="23.04" fill="#009af9" fill-rule="evenodd" fill-opacity="1" stroke="#000000" stroke-opacity="1" stroke-width="6.144"/>
<path clip-path="url(#clip310)" d="M1951.7 175.001 Q1949.89 179.63 1948.18 181.042 Q1946.47 182.454 1943.6 182.454 L1940.19 182.454 L1940.19 178.889 L1942.69 178.889 Q1944.45 178.889 1945.43 178.056 Q1946.4 177.223 1947.58 174.121 L1948.34 172.177 L1937.86 146.667 L1942.37 146.667 L1950.47 166.945 L1958.57 146.667 L1963.09 146.667 L1951.7 175.001 Z" fill="#000000" fill-rule="evenodd" fill-opacity="1" /><path clip-path="url(#clip310)" d="M1970.38 168.658 L1978.02 168.658 L1978.02 142.292 L1969.71 143.959 L1969.71 139.7 L1977.97 138.033 L1982.65 138.033 L1982.65 168.658 L1990.29 168.658 L1990.29 172.593 L1970.38 172.593 L1970.38 168.658 Z" fill="#000000" fill-rule="evenodd" fill-opacity="1" /><polyline clip-path="url(#clip310)" style="stroke:#e26f46; stroke-linecap:round; stroke-linejoin:round; stroke-width:4; stroke-opacity:1; fill:none" points="
  1748.68,207.153 1910.83,207.153 
  "/>
<path clip-path="url(#clip310)" d="M1942.14 220.544 L1942.14 234.294 L1937.86 234.294 L1937.86 198.507 L1942.14 198.507 L1942.14 202.443 Q1943.48 200.128 1945.52 199.017 Q1947.58 197.882 1950.43 197.882 Q1955.15 197.882 1958.09 201.632 Q1961.05 205.382 1961.05 211.493 Q1961.05 217.605 1958.09 221.355 Q1955.15 225.104 1950.43 225.104 Q1947.58 225.104 1945.52 223.993 Q1943.48 222.859 1942.14 220.544 M1956.63 211.493 Q1956.63 206.794 1954.68 204.132 Q1952.76 201.447 1949.38 201.447 Q1946 201.447 1944.06 204.132 Q1942.14 206.794 1942.14 211.493 Q1942.14 216.192 1944.06 218.878 Q1946 221.54 1949.38 221.54 Q1952.76 221.54 1954.68 218.878 Q1956.63 216.192 1956.63 211.493 Z" fill="#000000" fill-rule="evenodd" fill-opacity="1" /><path clip-path="url(#clip310)" d="M1978.16 201.493 Q1974.73 201.493 1972.74 204.179 Q1970.75 206.841 1970.75 211.493 Q1970.75 216.146 1972.72 218.831 Q1974.71 221.493 1978.16 221.493 Q1981.56 221.493 1983.55 218.808 Q1985.54 216.123 1985.54 211.493 Q1985.54 206.887 1983.55 204.202 Q1981.56 201.493 1978.16 201.493 M1978.16 197.882 Q1983.71 197.882 1986.88 201.493 Q1990.05 205.105 1990.05 211.493 Q1990.05 217.859 1986.88 221.493 Q1983.71 225.104 1978.16 225.104 Q1972.58 225.104 1969.41 221.493 Q1966.26 217.859 1966.26 211.493 Q1966.26 205.105 1969.41 201.493 Q1972.58 197.882 1978.16 197.882 Z" fill="#000000" fill-rule="evenodd" fill-opacity="1" /><path clip-path="url(#clip310)" d="M2013.64 199.271 L2013.64 203.299 Q2011.84 202.373 2009.89 201.91 Q2007.95 201.447 2005.86 201.447 Q2002.69 201.447 2001.1 202.419 Q1999.52 203.392 1999.52 205.336 Q1999.52 206.818 2000.66 207.674 Q2001.79 208.507 2005.22 209.271 L2006.68 209.595 Q2011.21 210.568 2013.11 212.35 Q2015.03 214.109 2015.03 217.28 Q2015.03 220.892 2012.16 222.998 Q2009.31 225.104 2004.31 225.104 Q2002.23 225.104 1999.96 224.688 Q1997.72 224.294 1995.22 223.484 L1995.22 219.086 Q1997.58 220.313 1999.87 220.938 Q2002.16 221.54 2004.41 221.54 Q2007.42 221.54 2009.04 220.521 Q2010.66 219.48 2010.66 217.605 Q2010.66 215.868 2009.48 214.943 Q2008.32 214.017 2004.36 213.16 L2002.88 212.813 Q1998.92 211.98 1997.16 210.267 Q1995.4 208.53 1995.4 205.521 Q1995.4 201.864 1997.99 199.873 Q2000.59 197.882 2005.36 197.882 Q2007.72 197.882 2009.8 198.23 Q2011.88 198.577 2013.64 199.271 Z" fill="#000000" fill-rule="evenodd" fill-opacity="1" /><path clip-path="url(#clip310)" d="M2026.03 191.146 L2026.03 198.507 L2034.8 198.507 L2034.8 201.818 L2026.03 201.818 L2026.03 215.892 Q2026.03 219.063 2026.88 219.966 Q2027.76 220.868 2030.42 220.868 L2034.8 220.868 L2034.8 224.433 L2030.42 224.433 Q2025.49 224.433 2023.62 222.604 Q2021.74 220.753 2021.74 215.892 L2021.74 201.818 L2018.62 201.818 L2018.62 198.507 L2021.74 198.507 L2021.74 191.146 L2026.03 191.146 Z" fill="#000000" fill-rule="evenodd" fill-opacity="1" /><path clip-path="url(#clip310)" d="M2062.58 210.405 L2062.58 212.489 L2042.99 212.489 Q2043.27 216.887 2045.63 219.202 Q2048.02 221.493 2052.25 221.493 Q2054.71 221.493 2057 220.892 Q2059.31 220.29 2061.58 219.086 L2061.58 223.114 Q2059.29 224.086 2056.88 224.595 Q2054.48 225.104 2052 225.104 Q2045.8 225.104 2042.16 221.493 Q2038.55 217.882 2038.55 211.725 Q2038.55 205.359 2041.98 201.632 Q2045.42 197.882 2051.26 197.882 Q2056.49 197.882 2059.52 201.262 Q2062.58 204.618 2062.58 210.405 M2058.32 209.155 Q2058.27 205.66 2056.35 203.577 Q2054.45 201.493 2051.3 201.493 Q2047.74 201.493 2045.59 203.507 Q2043.46 205.521 2043.13 209.179 L2058.32 209.155 Z" fill="#000000" fill-rule="evenodd" fill-opacity="1" /><path clip-path="url(#clip310)" d="M2084.59 202.489 Q2083.87 202.072 2083.02 201.887 Q2082.18 201.679 2081.17 201.679 Q2077.55 201.679 2075.61 204.04 Q2073.69 206.378 2073.69 210.776 L2073.69 224.433 L2069.41 224.433 L2069.41 198.507 L2073.69 198.507 L2073.69 202.535 Q2075.03 200.174 2077.18 199.04 Q2079.34 197.882 2082.42 197.882 Q2082.86 197.882 2083.39 197.952 Q2083.92 197.998 2084.57 198.114 L2084.59 202.489 Z" fill="#000000" fill-rule="evenodd" fill-opacity="1" /><path clip-path="url(#clip310)" d="M2089.06 198.507 L2093.32 198.507 L2093.32 224.433 L2089.06 224.433 L2089.06 198.507 M2089.06 188.415 L2093.32 188.415 L2093.32 193.808 L2089.06 193.808 L2089.06 188.415 Z" fill="#000000" fill-rule="evenodd" fill-opacity="1" /><path clip-path="url(#clip310)" d="M2112.28 201.493 Q2108.85 201.493 2106.86 204.179 Q2104.87 206.841 2104.87 211.493 Q2104.87 216.146 2106.84 218.831 Q2108.83 221.493 2112.28 221.493 Q2115.68 221.493 2117.67 218.808 Q2119.66 216.123 2119.66 211.493 Q2119.66 206.887 2117.67 204.202 Q2115.68 201.493 2112.28 201.493 M2112.28 197.882 Q2117.83 197.882 2121 201.493 Q2124.17 205.105 2124.17 211.493 Q2124.17 217.859 2121 221.493 Q2117.83 225.104 2112.28 225.104 Q2106.7 225.104 2103.53 221.493 Q2100.38 217.859 2100.38 211.493 Q2100.38 205.105 2103.53 201.493 Q2106.7 197.882 2112.28 197.882 Z" fill="#000000" fill-rule="evenodd" fill-opacity="1" /><path clip-path="url(#clip310)" d="M2146.26 202.489 Q2145.54 202.072 2144.68 201.887 Q2143.85 201.679 2142.83 201.679 Q2139.22 201.679 2137.28 204.04 Q2135.35 206.378 2135.35 210.776 L2135.35 224.433 L2131.07 224.433 L2131.07 198.507 L2135.35 198.507 L2135.35 202.535 Q2136.7 200.174 2138.85 199.04 Q2141 197.882 2144.08 197.882 Q2144.52 197.882 2145.05 197.952 Q2145.59 197.998 2146.23 198.114 L2146.26 202.489 Z" fill="#000000" fill-rule="evenodd" fill-opacity="1" /><path clip-path="url(#clip310)" d="M2185.98 203.484 Q2187.58 200.614 2189.8 199.248 Q2192.02 197.882 2195.03 197.882 Q2199.08 197.882 2201.28 200.73 Q2203.48 203.554 2203.48 208.785 L2203.48 224.433 L2199.2 224.433 L2199.2 208.924 Q2199.2 205.197 2197.88 203.392 Q2196.56 201.586 2193.85 201.586 Q2190.54 201.586 2188.62 203.785 Q2186.7 205.984 2186.7 209.78 L2186.7 224.433 L2182.41 224.433 L2182.41 208.924 Q2182.41 205.174 2181.1 203.392 Q2179.78 201.586 2177.02 201.586 Q2173.76 201.586 2171.84 203.808 Q2169.91 206.007 2169.91 209.78 L2169.91 224.433 L2165.63 224.433 L2165.63 198.507 L2169.91 198.507 L2169.91 202.535 Q2171.37 200.151 2173.41 199.017 Q2175.45 197.882 2178.25 197.882 Q2181.07 197.882 2183.04 199.318 Q2185.03 200.753 2185.98 203.484 Z" fill="#000000" fill-rule="evenodd" fill-opacity="1" /><path clip-path="url(#clip310)" d="M2234.15 210.405 L2234.15 212.489 L2214.57 212.489 Q2214.85 216.887 2217.21 219.202 Q2219.59 221.493 2223.83 221.493 Q2226.28 221.493 2228.57 220.892 Q2230.89 220.29 2233.16 219.086 L2233.16 223.114 Q2230.86 224.086 2228.46 224.595 Q2226.05 225.104 2223.57 225.104 Q2217.37 225.104 2213.73 221.493 Q2210.12 217.882 2210.12 211.725 Q2210.12 205.359 2213.55 201.632 Q2217 197.882 2222.83 197.882 Q2228.06 197.882 2231.1 201.262 Q2234.15 204.618 2234.15 210.405 M2229.89 209.155 Q2229.85 205.66 2227.92 203.577 Q2226.03 201.493 2222.88 201.493 Q2219.31 201.493 2217.16 203.507 Q2215.03 205.521 2214.71 209.179 L2229.89 209.155 Z" fill="#000000" fill-rule="evenodd" fill-opacity="1" /><path clip-path="url(#clip310)" d="M2252.92 211.401 Q2247.76 211.401 2245.77 212.581 Q2243.78 213.762 2243.78 216.609 Q2243.78 218.878 2245.26 220.22 Q2246.77 221.54 2249.34 221.54 Q2252.88 221.54 2255.01 219.04 Q2257.16 216.517 2257.16 212.35 L2257.16 211.401 L2252.92 211.401 M2261.42 209.642 L2261.42 224.433 L2257.16 224.433 L2257.16 220.498 Q2255.7 222.859 2253.53 223.993 Q2251.35 225.104 2248.2 225.104 Q2244.22 225.104 2241.86 222.882 Q2239.52 220.637 2239.52 216.887 Q2239.52 212.512 2242.44 210.29 Q2245.38 208.068 2251.19 208.068 L2257.16 208.068 L2257.16 207.651 Q2257.16 204.711 2255.22 203.114 Q2253.29 201.493 2249.8 201.493 Q2247.58 201.493 2245.47 202.026 Q2243.36 202.558 2241.42 203.623 L2241.42 199.688 Q2243.76 198.785 2245.96 198.345 Q2248.16 197.882 2250.24 197.882 Q2255.86 197.882 2258.64 200.799 Q2261.42 203.716 2261.42 209.642 Z" fill="#000000" fill-rule="evenodd" fill-opacity="1" /><path clip-path="url(#clip310)" d="M2291.74 208.785 L2291.74 224.433 L2287.48 224.433 L2287.48 208.924 Q2287.48 205.243 2286.05 203.415 Q2284.61 201.586 2281.74 201.586 Q2278.29 201.586 2276.3 203.785 Q2274.31 205.984 2274.31 209.78 L2274.31 224.433 L2270.03 224.433 L2270.03 198.507 L2274.31 198.507 L2274.31 202.535 Q2275.84 200.197 2277.9 199.04 Q2279.98 197.882 2282.69 197.882 Q2287.16 197.882 2289.45 200.66 Q2291.74 203.415 2291.74 208.785 Z" fill="#000000" fill-rule="evenodd" fill-opacity="1" /><path clip-path="url(#clip310)" d="M2325.54 188.461 Q2322.44 193.785 2320.93 198.994 Q2319.43 204.202 2319.43 209.549 Q2319.43 214.896 2320.93 220.151 Q2322.46 225.382 2325.54 230.683 L2321.84 230.683 Q2318.36 225.243 2316.63 219.989 Q2314.91 214.734 2314.91 209.549 Q2314.91 204.387 2316.63 199.156 Q2318.34 193.924 2321.84 188.461 L2325.54 188.461 Z" fill="#000000" fill-rule="evenodd" fill-opacity="1" /><path clip-path="url(#clip310)" d="M2333.36 234.294 L2333.36 198.507 L2337.62 198.507 L2337.62 214.618 Q2337.62 217.975 2339.22 219.688 Q2340.82 221.401 2343.94 221.401 Q2347.37 221.401 2349.08 219.456 Q2350.82 217.512 2350.82 213.623 L2350.82 198.507 L2355.08 198.507 L2355.08 218.461 Q2355.08 219.85 2355.47 220.521 Q2355.89 221.169 2356.74 221.169 Q2356.95 221.169 2357.32 221.054 Q2357.69 220.915 2358.34 220.637 L2358.34 224.063 Q2357.39 224.595 2356.53 224.85 Q2355.7 225.104 2354.89 225.104 Q2353.29 225.104 2352.34 224.202 Q2351.4 223.299 2351.05 221.447 Q2349.89 223.276 2348.2 224.202 Q2346.53 225.104 2344.27 225.104 Q2341.9 225.104 2340.24 224.202 Q2338.59 223.299 2337.62 221.493 L2337.62 234.294 L2333.36 234.294 Z" fill="#000000" fill-rule="evenodd" fill-opacity="1" /><path clip-path="url(#clip310)" d="M2385.52 208.785 L2385.52 224.433 L2381.26 224.433 L2381.26 208.924 Q2381.26 205.243 2379.82 203.415 Q2378.39 201.586 2375.52 201.586 Q2372.07 201.586 2370.08 203.785 Q2368.09 205.984 2368.09 209.78 L2368.09 224.433 L2363.8 224.433 L2363.8 198.507 L2368.09 198.507 L2368.09 202.535 Q2369.61 200.197 2371.67 199.04 Q2373.76 197.882 2376.46 197.882 Q2380.93 197.882 2383.22 200.66 Q2385.52 203.415 2385.52 208.785 Z" fill="#000000" fill-rule="evenodd" fill-opacity="1" /><path clip-path="url(#clip310)" d="M2393.34 188.461 L2397.04 188.461 Q2400.52 193.924 2402.23 199.156 Q2403.96 204.387 2403.96 209.549 Q2403.96 214.734 2402.23 219.989 Q2400.52 225.243 2397.04 230.683 L2393.34 230.683 Q2396.42 225.382 2397.92 220.151 Q2399.45 214.896 2399.45 209.549 Q2399.45 204.202 2397.92 198.994 Q2396.42 193.785 2393.34 188.461 Z" fill="#000000" fill-rule="evenodd" fill-opacity="1" /><polyline clip-path="url(#clip310)" style="stroke:#3da44d; stroke-linecap:round; stroke-linejoin:round; stroke-width:4; stroke-opacity:1; fill:none" points="
  1748.68,258.993 1910.83,258.993 
  "/>
<path clip-path="url(#clip310)" d="M1942.53 245.556 L1942.53 258.542 L1948.41 258.542 Q1951.68 258.542 1953.46 256.852 Q1955.24 255.162 1955.24 252.037 Q1955.24 248.935 1953.46 247.246 Q1951.68 245.556 1948.41 245.556 L1942.53 245.556 M1937.86 241.713 L1948.41 241.713 Q1954.22 241.713 1957.18 244.352 Q1960.17 246.968 1960.17 252.037 Q1960.17 257.153 1957.18 259.769 Q1954.22 262.384 1948.41 262.384 L1942.53 262.384 L1942.53 276.273 L1937.86 276.273 L1937.86 241.713 Z" fill="#000000" fill-rule="evenodd" fill-opacity="1" /><path clip-path="url(#clip310)" d="M1974.62 253.333 Q1971.19 253.333 1969.2 256.019 Q1967.21 258.681 1967.21 263.333 Q1967.21 267.986 1969.18 270.671 Q1971.17 273.333 1974.62 273.333 Q1978.02 273.333 1980.01 270.648 Q1982 267.963 1982 263.333 Q1982 258.727 1980.01 256.042 Q1978.02 253.333 1974.62 253.333 M1974.62 249.722 Q1980.17 249.722 1983.34 253.333 Q1986.51 256.945 1986.51 263.333 Q1986.51 269.699 1983.34 273.333 Q1980.17 276.944 1974.62 276.944 Q1969.04 276.944 1965.87 273.333 Q1962.72 269.699 1962.72 263.333 Q1962.72 256.945 1965.87 253.333 Q1969.04 249.722 1974.62 249.722 Z" fill="#000000" fill-rule="evenodd" fill-opacity="1" /><path clip-path="url(#clip310)" d="M2003.62 253.333 Q2000.19 253.333 1998.2 256.019 Q1996.21 258.681 1996.21 263.333 Q1996.21 267.986 1998.18 270.671 Q2000.17 273.333 2003.62 273.333 Q2007.02 273.333 2009.01 270.648 Q2011 267.963 2011 263.333 Q2011 258.727 2009.01 256.042 Q2007.02 253.333 2003.62 253.333 M2003.62 249.722 Q2009.18 249.722 2012.35 253.333 Q2015.52 256.945 2015.52 263.333 Q2015.52 269.699 2012.35 273.333 Q2009.18 276.944 2003.62 276.944 Q1998.04 276.944 1994.87 273.333 Q1991.72 269.699 1991.72 263.333 Q1991.72 256.945 1994.87 253.333 Q1998.04 249.722 2003.62 249.722 Z" fill="#000000" fill-rule="evenodd" fill-opacity="1" /><path clip-path="url(#clip310)" d="M2022.58 240.255 L2026.84 240.255 L2026.84 276.273 L2022.58 276.273 L2022.58 240.255 Z" fill="#000000" fill-rule="evenodd" fill-opacity="1" /><path clip-path="url(#clip310)" d="M2057.92 262.245 L2057.92 264.329 L2038.34 264.329 Q2038.62 268.727 2040.98 271.042 Q2043.36 273.333 2047.6 273.333 Q2050.05 273.333 2052.35 272.732 Q2054.66 272.13 2056.93 270.926 L2056.93 274.954 Q2054.64 275.926 2052.23 276.435 Q2049.82 276.944 2047.35 276.944 Q2041.14 276.944 2037.51 273.333 Q2033.9 269.722 2033.9 263.565 Q2033.9 257.199 2037.32 253.472 Q2040.77 249.722 2046.61 249.722 Q2051.84 249.722 2054.87 253.102 Q2057.92 256.458 2057.92 262.245 M2053.67 260.995 Q2053.62 257.5 2051.7 255.417 Q2049.8 253.333 2046.65 253.333 Q2043.09 253.333 2040.93 255.347 Q2038.8 257.361 2038.48 261.019 L2053.67 260.995 Z" fill="#000000" fill-rule="evenodd" fill-opacity="1" /><path clip-path="url(#clip310)" d="M2081.98 254.283 L2081.98 240.255 L2086.23 240.255 L2086.23 276.273 L2081.98 276.273 L2081.98 272.384 Q2080.63 274.699 2078.57 275.833 Q2076.54 276.944 2073.67 276.944 Q2068.97 276.944 2066 273.195 Q2063.06 269.445 2063.06 263.333 Q2063.06 257.222 2066 253.472 Q2068.97 249.722 2073.67 249.722 Q2076.54 249.722 2078.57 250.857 Q2080.63 251.968 2081.98 254.283 M2067.46 263.333 Q2067.46 268.032 2069.38 270.718 Q2071.33 273.38 2074.71 273.38 Q2078.09 273.38 2080.03 270.718 Q2081.98 268.032 2081.98 263.333 Q2081.98 258.634 2080.03 255.972 Q2078.09 253.287 2074.71 253.287 Q2071.33 253.287 2069.38 255.972 Q2067.46 258.634 2067.46 263.333 Z" fill="#000000" fill-rule="evenodd" fill-opacity="1" /><path clip-path="url(#clip310)" d="M2126.6 251.111 L2126.6 255.139 Q2124.8 254.213 2122.85 253.75 Q2120.91 253.287 2118.83 253.287 Q2115.66 253.287 2114.06 254.259 Q2112.48 255.232 2112.48 257.176 Q2112.48 258.658 2113.62 259.514 Q2114.75 260.347 2118.18 261.111 L2119.64 261.435 Q2124.17 262.408 2126.07 264.19 Q2127.99 265.949 2127.99 269.12 Q2127.99 272.732 2125.12 274.838 Q2122.28 276.944 2117.28 276.944 Q2115.19 276.944 2112.92 276.528 Q2110.68 276.134 2108.18 275.324 L2108.18 270.926 Q2110.54 272.153 2112.83 272.778 Q2115.12 273.38 2117.37 273.38 Q2120.38 273.38 2122 272.361 Q2123.62 271.32 2123.62 269.445 Q2123.62 267.708 2122.44 266.783 Q2121.28 265.857 2117.32 265 L2115.84 264.653 Q2111.88 263.82 2110.12 262.107 Q2108.36 260.37 2108.36 257.361 Q2108.36 253.704 2110.96 251.713 Q2113.55 249.722 2118.32 249.722 Q2120.68 249.722 2122.76 250.07 Q2124.85 250.417 2126.6 251.111 Z" fill="#000000" fill-rule="evenodd" fill-opacity="1" /><path clip-path="url(#clip310)" d="M2146.56 263.241 Q2141.4 263.241 2139.41 264.421 Q2137.42 265.602 2137.42 268.449 Q2137.42 270.718 2138.9 272.06 Q2140.4 273.38 2142.97 273.38 Q2146.51 273.38 2148.64 270.88 Q2150.79 268.357 2150.79 264.19 L2150.79 263.241 L2146.56 263.241 M2155.05 261.482 L2155.05 276.273 L2150.79 276.273 L2150.79 272.338 Q2149.34 274.699 2147.16 275.833 Q2144.98 276.944 2141.84 276.944 Q2137.85 276.944 2135.49 274.722 Q2133.16 272.477 2133.16 268.727 Q2133.16 264.352 2136.07 262.13 Q2139.01 259.908 2144.82 259.908 L2150.79 259.908 L2150.79 259.491 Q2150.79 256.551 2148.85 254.954 Q2146.93 253.333 2143.43 253.333 Q2141.21 253.333 2139.1 253.866 Q2137 254.398 2135.05 255.463 L2135.05 251.528 Q2137.39 250.625 2139.59 250.185 Q2141.79 249.722 2143.87 249.722 Q2149.5 249.722 2152.28 252.639 Q2155.05 255.556 2155.05 261.482 Z" fill="#000000" fill-rule="evenodd" fill-opacity="1" /><path clip-path="url(#clip310)" d="M2184.01 255.324 Q2185.61 252.454 2187.83 251.088 Q2190.05 249.722 2193.06 249.722 Q2197.11 249.722 2199.31 252.57 Q2201.51 255.394 2201.51 260.625 L2201.51 276.273 L2197.23 276.273 L2197.23 260.764 Q2197.23 257.037 2195.91 255.232 Q2194.59 253.426 2191.88 253.426 Q2188.57 253.426 2186.65 255.625 Q2184.73 257.824 2184.73 261.62 L2184.73 276.273 L2180.45 276.273 L2180.45 260.764 Q2180.45 257.014 2179.13 255.232 Q2177.81 253.426 2175.05 253.426 Q2171.79 253.426 2169.87 255.648 Q2167.95 257.847 2167.95 261.62 L2167.95 276.273 L2163.66 276.273 L2163.66 250.347 L2167.95 250.347 L2167.95 254.375 Q2169.41 251.991 2171.44 250.857 Q2173.48 249.722 2176.28 249.722 Q2179.1 249.722 2181.07 251.158 Q2183.06 252.593 2184.01 255.324 Z" fill="#000000" fill-rule="evenodd" fill-opacity="1" /><path clip-path="url(#clip310)" d="M2214.13 272.384 L2214.13 286.134 L2209.85 286.134 L2209.85 250.347 L2214.13 250.347 L2214.13 254.283 Q2215.47 251.968 2217.51 250.857 Q2219.57 249.722 2222.41 249.722 Q2227.14 249.722 2230.08 253.472 Q2233.04 257.222 2233.04 263.333 Q2233.04 269.445 2230.08 273.195 Q2227.14 276.944 2222.41 276.944 Q2219.57 276.944 2217.51 275.833 Q2215.47 274.699 2214.13 272.384 M2228.62 263.333 Q2228.62 258.634 2226.67 255.972 Q2224.75 253.287 2221.37 253.287 Q2217.99 253.287 2216.05 255.972 Q2214.13 258.634 2214.13 263.333 Q2214.13 268.032 2216.05 270.718 Q2217.99 273.38 2221.37 273.38 Q2224.75 273.38 2226.67 270.718 Q2228.62 268.032 2228.62 263.333 Z" fill="#000000" fill-rule="evenodd" fill-opacity="1" /><path clip-path="url(#clip310)" d="M2240.1 240.255 L2244.36 240.255 L2244.36 276.273 L2240.1 276.273 L2240.1 240.255 Z" fill="#000000" fill-rule="evenodd" fill-opacity="1" /><path clip-path="url(#clip310)" d="M2275.45 262.245 L2275.45 264.329 L2255.86 264.329 Q2256.14 268.727 2258.5 271.042 Q2260.89 273.333 2265.12 273.333 Q2267.58 273.333 2269.87 272.732 Q2272.18 272.13 2274.45 270.926 L2274.45 274.954 Q2272.16 275.926 2269.75 276.435 Q2267.34 276.944 2264.87 276.944 Q2258.66 276.944 2255.03 273.333 Q2251.42 269.722 2251.42 263.565 Q2251.42 257.199 2254.84 253.472 Q2258.29 249.722 2264.13 249.722 Q2269.36 249.722 2272.39 253.102 Q2275.45 256.458 2275.45 262.245 M2271.19 260.995 Q2271.14 257.5 2269.22 255.417 Q2267.32 253.333 2264.17 253.333 Q2260.61 253.333 2258.46 255.347 Q2256.33 257.361 2256 261.019 L2271.19 260.995 Z" fill="#000000" fill-rule="evenodd" fill-opacity="1" /><path clip-path="url(#clip310)" d="M2317.69 255.324 Q2319.29 252.454 2321.51 251.088 Q2323.73 249.722 2326.74 249.722 Q2330.79 249.722 2332.99 252.57 Q2335.19 255.394 2335.19 260.625 L2335.19 276.273 L2330.91 276.273 L2330.91 260.764 Q2330.91 257.037 2329.59 255.232 Q2328.27 253.426 2325.56 253.426 Q2322.25 253.426 2320.33 255.625 Q2318.41 257.824 2318.41 261.62 L2318.41 276.273 L2314.13 276.273 L2314.13 260.764 Q2314.13 257.014 2312.81 255.232 Q2311.49 253.426 2308.73 253.426 Q2305.47 253.426 2303.55 255.648 Q2301.63 257.847 2301.63 261.62 L2301.63 276.273 L2297.34 276.273 L2297.34 250.347 L2301.63 250.347 L2301.63 254.375 Q2303.09 251.991 2305.12 250.857 Q2307.16 249.722 2309.96 249.722 Q2312.78 249.722 2314.75 251.158 Q2316.74 252.593 2317.69 255.324 Z" fill="#000000" fill-rule="evenodd" fill-opacity="1" /><path clip-path="url(#clip310)" d="M2365.86 262.245 L2365.86 264.329 L2346.28 264.329 Q2346.56 268.727 2348.92 271.042 Q2351.3 273.333 2355.54 273.333 Q2357.99 273.333 2360.28 272.732 Q2362.6 272.13 2364.87 270.926 L2364.87 274.954 Q2362.58 275.926 2360.17 276.435 Q2357.76 276.944 2355.28 276.944 Q2349.08 276.944 2345.45 273.333 Q2341.84 269.722 2341.84 263.565 Q2341.84 257.199 2345.26 253.472 Q2348.71 249.722 2354.54 249.722 Q2359.77 249.722 2362.81 253.102 Q2365.86 256.458 2365.86 262.245 M2361.6 260.995 Q2361.56 257.5 2359.64 255.417 Q2357.74 253.333 2354.59 253.333 Q2351.03 253.333 2348.87 255.347 Q2346.74 257.361 2346.42 261.019 L2361.6 260.995 Z" fill="#000000" fill-rule="evenodd" fill-opacity="1" /><path clip-path="url(#clip310)" d="M2384.64 263.241 Q2379.47 263.241 2377.48 264.421 Q2375.49 265.602 2375.49 268.449 Q2375.49 270.718 2376.97 272.06 Q2378.48 273.38 2381.05 273.38 Q2384.59 273.38 2386.72 270.88 Q2388.87 268.357 2388.87 264.19 L2388.87 263.241 L2384.64 263.241 M2393.13 261.482 L2393.13 276.273 L2388.87 276.273 L2388.87 272.338 Q2387.41 274.699 2385.24 275.833 Q2383.06 276.944 2379.91 276.944 Q2375.93 276.944 2373.57 274.722 Q2371.23 272.477 2371.23 268.727 Q2371.23 264.352 2374.15 262.13 Q2377.09 259.908 2382.9 259.908 L2388.87 259.908 L2388.87 259.491 Q2388.87 256.551 2386.93 254.954 Q2385.01 253.333 2381.51 253.333 Q2379.29 253.333 2377.18 253.866 Q2375.08 254.398 2373.13 255.463 L2373.13 251.528 Q2375.47 250.625 2377.67 250.185 Q2379.87 249.722 2381.95 249.722 Q2387.58 249.722 2390.35 252.639 Q2393.13 255.556 2393.13 261.482 Z" fill="#000000" fill-rule="evenodd" fill-opacity="1" /><path clip-path="url(#clip310)" d="M2423.46 260.625 L2423.46 276.273 L2419.2 276.273 L2419.2 260.764 Q2419.2 257.083 2417.76 255.255 Q2416.33 253.426 2413.46 253.426 Q2410.01 253.426 2408.02 255.625 Q2406.02 257.824 2406.02 261.62 L2406.02 276.273 L2401.74 276.273 L2401.74 250.347 L2406.02 250.347 L2406.02 254.375 Q2407.55 252.037 2409.61 250.88 Q2411.7 249.722 2414.4 249.722 Q2418.87 249.722 2421.16 252.5 Q2423.46 255.255 2423.46 260.625 Z" fill="#000000" fill-rule="evenodd" fill-opacity="1" /><path clip-path="url(#clip310)" d="M2457.25 240.301 Q2454.15 245.625 2452.64 250.834 Q2451.14 256.042 2451.14 261.389 Q2451.14 266.736 2452.64 271.991 Q2454.17 277.222 2457.25 282.523 L2453.55 282.523 Q2450.08 277.083 2448.34 271.829 Q2446.63 266.574 2446.63 261.389 Q2446.63 256.227 2448.34 250.996 Q2450.05 245.764 2453.55 240.301 L2457.25 240.301 Z" fill="#000000" fill-rule="evenodd" fill-opacity="1" /><path clip-path="url(#clip310)" d="M2465.08 286.134 L2465.08 250.347 L2469.33 250.347 L2469.33 266.458 Q2469.33 269.815 2470.93 271.528 Q2472.53 273.241 2475.65 273.241 Q2479.08 273.241 2480.79 271.296 Q2482.53 269.352 2482.53 265.463 L2482.53 250.347 L2486.79 250.347 L2486.79 270.301 Q2486.79 271.69 2487.18 272.361 Q2487.6 273.009 2488.45 273.009 Q2488.66 273.009 2489.03 272.894 Q2489.4 272.755 2490.05 272.477 L2490.05 275.903 Q2489.1 276.435 2488.25 276.69 Q2487.41 276.944 2486.6 276.944 Q2485.01 276.944 2484.06 276.042 Q2483.11 275.139 2482.76 273.287 Q2481.6 275.116 2479.91 276.042 Q2478.25 276.944 2475.98 276.944 Q2473.62 276.944 2471.95 276.042 Q2470.31 275.139 2469.33 273.333 L2469.33 286.134 L2465.08 286.134 Z" fill="#000000" fill-rule="evenodd" fill-opacity="1" /><path clip-path="url(#clip310)" d="M2495.01 240.301 L2498.71 240.301 Q2502.18 245.764 2503.89 250.996 Q2505.63 256.227 2505.63 261.389 Q2505.63 266.574 2503.89 271.829 Q2502.18 277.083 2498.71 282.523 L2495.01 282.523 Q2498.08 277.222 2499.59 271.991 Q2501.12 266.736 2501.12 261.389 Q2501.12 256.042 2499.59 250.834 Q2498.08 245.625 2495.01 240.301 Z" fill="#000000" fill-rule="evenodd" fill-opacity="1" /></svg>
