<?xml version="1.0" encoding="utf-8"?>
<svg xmlns="http://www.w3.org/2000/svg" xmlns:xlink="http://www.w3.org/1999/xlink" width="600" height="400" viewBox="0 0 2400 1600">
<defs>
  <clipPath id="clip070">
    <rect x="0" y="0" width="2400" height="1600"/>
  </clipPath>
</defs>
<path clip-path="url(#clip070)" d="
M0 1600 L2400 1600 L2400 0 L0 0  Z
  " fill="#ffffff" fill-rule="evenodd" fill-opacity="1"/>
<defs>
  <clipPath id="clip071">
    <rect x="480" y="0" width="1681" height="1600"/>
  </clipPath>
</defs>
<path clip-path="url(#clip070)" d="
M186.274 686.448 L1152.76 686.448 L1152.76 47.2441 L186.274 47.2441  Z
  " fill="#ffffff" fill-rule="evenodd" fill-opacity="1"/>
<defs>
  <clipPath id="clip072">
    <rect x="186" y="47" width="967" height="640"/>
  </clipPath>
</defs>
<polyline clip-path="url(#clip072)" style="stroke:#000000; stroke-linecap:round; stroke-linejoin:round; stroke-width:2; stroke-opacity:0.1; fill:none" points="
  252.733,686.448 252.733,47.2441 
  "/>
<polyline clip-path="url(#clip072)" style="stroke:#000000; stroke-linecap:round; stroke-linejoin:round; stroke-width:2; stroke-opacity:0.1; fill:none" points="
  497.899,686.448 497.899,47.2441 
  "/>
<polyline clip-path="url(#clip072)" style="stroke:#000000; stroke-linecap:round; stroke-linejoin:round; stroke-width:2; stroke-opacity:0.1; fill:none" points="
  743.065,686.448 743.065,47.2441 
  "/>
<polyline clip-path="url(#clip072)" style="stroke:#000000; stroke-linecap:round; stroke-linejoin:round; stroke-width:2; stroke-opacity:0.1; fill:none" points="
  988.23,686.448 988.23,47.2441 
  "/>
<polyline clip-path="url(#clip070)" style="stroke:#000000; stroke-linecap:round; stroke-linejoin:round; stroke-width:4; stroke-opacity:1; fill:none" points="
  186.274,686.448 1152.76,686.448 
  "/>
<polyline clip-path="url(#clip070)" style="stroke:#000000; stroke-linecap:round; stroke-linejoin:round; stroke-width:4; stroke-opacity:1; fill:none" points="
  252.733,686.448 252.733,667.55 
  "/>
<polyline clip-path="url(#clip070)" style="stroke:#000000; stroke-linecap:round; stroke-linejoin:round; stroke-width:4; stroke-opacity:1; fill:none" points="
  497.899,686.448 497.899,667.55 
  "/>
<polyline clip-path="url(#clip070)" style="stroke:#000000; stroke-linecap:round; stroke-linejoin:round; stroke-width:4; stroke-opacity:1; fill:none" points="
  743.065,686.448 743.065,667.55 
  "/>
<polyline clip-path="url(#clip070)" style="stroke:#000000; stroke-linecap:round; stroke-linejoin:round; stroke-width:4; stroke-opacity:1; fill:none" points="
  988.23,686.448 988.23,667.55 
  "/>
<path clip-path="url(#clip070)" d="M206.796 732.019 L236.472 732.019 L236.472 735.954 L206.796 735.954 L206.796 732.019 Z" fill="#000000" fill-rule="evenodd" fill-opacity="1" /><path clip-path="url(#clip070)" d="M247.374 744.913 L255.013 744.913 L255.013 718.547 L246.703 720.214 L246.703 715.955 L254.967 714.288 L259.643 714.288 L259.643 744.913 L267.282 744.913 L267.282 748.848 L247.374 748.848 L247.374 744.913 Z" fill="#000000" fill-rule="evenodd" fill-opacity="1" /><path clip-path="url(#clip070)" d="M286.726 717.367 Q283.115 717.367 281.286 720.931 Q279.481 724.473 279.481 731.603 Q279.481 738.709 281.286 742.274 Q283.115 745.815 286.726 745.815 Q290.36 745.815 292.166 742.274 Q293.995 738.709 293.995 731.603 Q293.995 724.473 292.166 720.931 Q290.36 717.367 286.726 717.367 M286.726 713.663 Q292.536 713.663 295.592 718.269 Q298.67 722.853 298.67 731.603 Q298.67 740.329 295.592 744.936 Q292.536 749.519 286.726 749.519 Q280.916 749.519 277.837 744.936 Q274.782 740.329 274.782 731.603 Q274.782 722.853 277.837 718.269 Q280.916 713.663 286.726 713.663 Z" fill="#000000" fill-rule="evenodd" fill-opacity="1" /><path clip-path="url(#clip070)" d="M497.899 717.367 Q494.288 717.367 492.459 720.931 Q490.654 724.473 490.654 731.603 Q490.654 738.709 492.459 742.274 Q494.288 745.815 497.899 745.815 Q501.533 745.815 503.339 742.274 Q505.167 738.709 505.167 731.603 Q505.167 724.473 503.339 720.931 Q501.533 717.367 497.899 717.367 M497.899 713.663 Q503.709 713.663 506.765 718.269 Q509.843 722.853 509.843 731.603 Q509.843 740.329 506.765 744.936 Q503.709 749.519 497.899 749.519 Q492.089 749.519 489.01 744.936 Q485.955 740.329 485.955 731.603 Q485.955 722.853 489.01 718.269 Q492.089 713.663 497.899 713.663 Z" fill="#000000" fill-rule="evenodd" fill-opacity="1" /><path clip-path="url(#clip070)" d="M717.752 744.913 L725.391 744.913 L725.391 718.547 L717.081 720.214 L717.081 715.955 L725.345 714.288 L730.021 714.288 L730.021 744.913 L737.66 744.913 L737.66 748.848 L717.752 748.848 L717.752 744.913 Z" fill="#000000" fill-rule="evenodd" fill-opacity="1" /><path clip-path="url(#clip070)" d="M757.104 717.367 Q753.493 717.367 751.664 720.931 Q749.859 724.473 749.859 731.603 Q749.859 738.709 751.664 742.274 Q753.493 745.815 757.104 745.815 Q760.738 745.815 762.544 742.274 Q764.372 738.709 764.372 731.603 Q764.372 724.473 762.544 720.931 Q760.738 717.367 757.104 717.367 M757.104 713.663 Q762.914 713.663 765.97 718.269 Q769.048 722.853 769.048 731.603 Q769.048 740.329 765.97 744.936 Q762.914 749.519 757.104 749.519 Q751.294 749.519 748.215 744.936 Q745.16 740.329 745.16 731.603 Q745.16 722.853 748.215 718.269 Q751.294 713.663 757.104 713.663 Z" fill="#000000" fill-rule="evenodd" fill-opacity="1" /><path clip-path="url(#clip070)" d="M967.004 744.913 L983.323 744.913 L983.323 748.848 L961.379 748.848 L961.379 744.913 Q964.041 742.158 968.624 737.528 Q973.23 732.876 974.411 731.533 Q976.656 729.01 977.536 727.274 Q978.439 725.515 978.439 723.825 Q978.439 721.07 976.494 719.334 Q974.573 717.598 971.471 717.598 Q969.272 717.598 966.818 718.362 Q964.388 719.126 961.61 720.677 L961.61 715.955 Q964.434 714.82 966.888 714.242 Q969.342 713.663 971.379 713.663 Q976.749 713.663 979.943 716.348 Q983.138 719.033 983.138 723.524 Q983.138 725.654 982.328 727.575 Q981.541 729.473 979.434 732.066 Q978.855 732.737 975.754 735.954 Q972.652 739.149 967.004 744.913 Z" fill="#000000" fill-rule="evenodd" fill-opacity="1" /><path clip-path="url(#clip070)" d="M1003.14 717.367 Q999.527 717.367 997.698 720.931 Q995.892 724.473 995.892 731.603 Q995.892 738.709 997.698 742.274 Q999.527 745.815 1003.14 745.815 Q1006.77 745.815 1008.58 742.274 Q1010.41 738.709 1010.41 731.603 Q1010.41 724.473 1008.58 720.931 Q1006.77 717.367 1003.14 717.367 M1003.14 713.663 Q1008.95 713.663 1012 718.269 Q1015.08 722.853 1015.08 731.603 Q1015.08 740.329 1012 744.936 Q1008.95 749.519 1003.14 749.519 Q997.328 749.519 994.249 744.936 Q991.193 740.329 991.193 731.603 Q991.193 722.853 994.249 718.269 Q997.328 713.663 1003.14 713.663 Z" fill="#000000" fill-rule="evenodd" fill-opacity="1" /><polyline clip-path="url(#clip072)" style="stroke:#000000; stroke-linecap:round; stroke-linejoin:round; stroke-width:2; stroke-opacity:0.1; fill:none" points="
  186.274,668.357 1152.76,668.357 
  "/>
<polyline clip-path="url(#clip072)" style="stroke:#000000; stroke-linecap:round; stroke-linejoin:round; stroke-width:2; stroke-opacity:0.1; fill:none" points="
  186.274,574.036 1152.76,574.036 
  "/>
<polyline clip-path="url(#clip072)" style="stroke:#000000; stroke-linecap:round; stroke-linejoin:round; stroke-width:2; stroke-opacity:0.1; fill:none" points="
  186.274,479.714 1152.76,479.714 
  "/>
<polyline clip-path="url(#clip072)" style="stroke:#000000; stroke-linecap:round; stroke-linejoin:round; stroke-width:2; stroke-opacity:0.1; fill:none" points="
  186.274,385.393 1152.76,385.393 
  "/>
<polyline clip-path="url(#clip072)" style="stroke:#000000; stroke-linecap:round; stroke-linejoin:round; stroke-width:2; stroke-opacity:0.1; fill:none" points="
  186.274,291.071 1152.76,291.071 
  "/>
<polyline clip-path="url(#clip072)" style="stroke:#000000; stroke-linecap:round; stroke-linejoin:round; stroke-width:2; stroke-opacity:0.1; fill:none" points="
  186.274,196.75 1152.76,196.75 
  "/>
<polyline clip-path="url(#clip072)" style="stroke:#000000; stroke-linecap:round; stroke-linejoin:round; stroke-width:2; stroke-opacity:0.1; fill:none" points="
  186.274,102.428 1152.76,102.428 
  "/>
<polyline clip-path="url(#clip070)" style="stroke:#000000; stroke-linecap:round; stroke-linejoin:round; stroke-width:4; stroke-opacity:1; fill:none" points="
  186.274,686.448 186.274,47.2441 
  "/>
<polyline clip-path="url(#clip070)" style="stroke:#000000; stroke-linecap:round; stroke-linejoin:round; stroke-width:4; stroke-opacity:1; fill:none" points="
  186.274,668.357 205.172,668.357 
  "/>
<polyline clip-path="url(#clip070)" style="stroke:#000000; stroke-linecap:round; stroke-linejoin:round; stroke-width:4; stroke-opacity:1; fill:none" points="
  186.274,574.036 205.172,574.036 
  "/>
<polyline clip-path="url(#clip070)" style="stroke:#000000; stroke-linecap:round; stroke-linejoin:round; stroke-width:4; stroke-opacity:1; fill:none" points="
  186.274,479.714 205.172,479.714 
  "/>
<polyline clip-path="url(#clip070)" style="stroke:#000000; stroke-linecap:round; stroke-linejoin:round; stroke-width:4; stroke-opacity:1; fill:none" points="
  186.274,385.393 205.172,385.393 
  "/>
<polyline clip-path="url(#clip070)" style="stroke:#000000; stroke-linecap:round; stroke-linejoin:round; stroke-width:4; stroke-opacity:1; fill:none" points="
  186.274,291.071 205.172,291.071 
  "/>
<polyline clip-path="url(#clip070)" style="stroke:#000000; stroke-linecap:round; stroke-linejoin:round; stroke-width:4; stroke-opacity:1; fill:none" points="
  186.274,196.75 205.172,196.75 
  "/>
<polyline clip-path="url(#clip070)" style="stroke:#000000; stroke-linecap:round; stroke-linejoin:round; stroke-width:4; stroke-opacity:1; fill:none" points="
  186.274,102.428 205.172,102.428 
  "/>
<path clip-path="url(#clip070)" d="M93.0984 654.156 Q89.4873 654.156 87.6586 657.721 Q85.8531 661.262 85.8531 668.392 Q85.8531 675.498 87.6586 679.063 Q89.4873 682.605 93.0984 682.605 Q96.7326 682.605 98.5382 679.063 Q100.367 675.498 100.367 668.392 Q100.367 661.262 98.5382 657.721 Q96.7326 654.156 93.0984 654.156 M93.0984 650.452 Q98.9085 650.452 101.964 655.059 Q105.043 659.642 105.043 668.392 Q105.043 677.119 101.964 681.725 Q98.9085 686.309 93.0984 686.309 Q87.2882 686.309 84.2095 681.725 Q81.154 677.119 81.154 668.392 Q81.154 659.642 84.2095 655.059 Q87.2882 650.452 93.0984 650.452 Z" fill="#000000" fill-rule="evenodd" fill-opacity="1" /><path clip-path="url(#clip070)" d="M113.26 679.758 L118.145 679.758 L118.145 685.637 L113.26 685.637 L113.26 679.758 Z" fill="#000000" fill-rule="evenodd" fill-opacity="1" /><path clip-path="url(#clip070)" d="M138.33 654.156 Q134.719 654.156 132.89 657.721 Q131.084 661.262 131.084 668.392 Q131.084 675.498 132.89 679.063 Q134.719 682.605 138.33 682.605 Q141.964 682.605 143.769 679.063 Q145.598 675.498 145.598 668.392 Q145.598 661.262 143.769 657.721 Q141.964 654.156 138.33 654.156 M138.33 650.452 Q144.14 650.452 147.195 655.059 Q150.274 659.642 150.274 668.392 Q150.274 677.119 147.195 681.725 Q144.14 686.309 138.33 686.309 Q132.519 686.309 129.441 681.725 Q126.385 677.119 126.385 668.392 Q126.385 659.642 129.441 655.059 Q132.519 650.452 138.33 650.452 Z" fill="#000000" fill-rule="evenodd" fill-opacity="1" /><path clip-path="url(#clip070)" d="M94.3252 559.834 Q90.7141 559.834 88.8854 563.399 Q87.0799 566.941 87.0799 574.07 Q87.0799 581.177 88.8854 584.742 Q90.7141 588.283 94.3252 588.283 Q97.9595 588.283 99.765 584.742 Q101.594 581.177 101.594 574.07 Q101.594 566.941 99.765 563.399 Q97.9595 559.834 94.3252 559.834 M94.3252 556.131 Q100.135 556.131 103.191 560.737 Q106.27 565.32 106.27 574.07 Q106.27 582.797 103.191 587.404 Q100.135 591.987 94.3252 591.987 Q88.5151 591.987 85.4364 587.404 Q82.3808 582.797 82.3808 574.07 Q82.3808 565.32 85.4364 560.737 Q88.5151 556.131 94.3252 556.131 Z" fill="#000000" fill-rule="evenodd" fill-opacity="1" /><path clip-path="url(#clip070)" d="M114.487 585.436 L119.371 585.436 L119.371 591.316 L114.487 591.316 L114.487 585.436 Z" fill="#000000" fill-rule="evenodd" fill-opacity="1" /><path clip-path="url(#clip070)" d="M130.367 587.381 L138.006 587.381 L138.006 561.015 L129.695 562.682 L129.695 558.422 L137.959 556.756 L142.635 556.756 L142.635 587.381 L150.274 587.381 L150.274 591.316 L130.367 591.316 L130.367 587.381 Z" fill="#000000" fill-rule="evenodd" fill-opacity="1" /><path clip-path="url(#clip070)" d="M94.6956 465.513 Q91.0845 465.513 89.2558 469.078 Q87.4503 472.619 87.4503 479.749 Q87.4503 486.855 89.2558 490.42 Q91.0845 493.962 94.6956 493.962 Q98.3298 493.962 100.135 490.42 Q101.964 486.855 101.964 479.749 Q101.964 472.619 100.135 469.078 Q98.3298 465.513 94.6956 465.513 M94.6956 461.809 Q100.506 461.809 103.561 466.416 Q106.64 470.999 106.64 479.749 Q106.64 488.476 103.561 493.082 Q100.506 497.665 94.6956 497.665 Q88.8854 497.665 85.8068 493.082 Q82.7512 488.476 82.7512 479.749 Q82.7512 470.999 85.8068 466.416 Q88.8854 461.809 94.6956 461.809 Z" fill="#000000" fill-rule="evenodd" fill-opacity="1" /><path clip-path="url(#clip070)" d="M114.858 491.115 L119.742 491.115 L119.742 496.994 L114.858 496.994 L114.858 491.115 Z" fill="#000000" fill-rule="evenodd" fill-opacity="1" /><path clip-path="url(#clip070)" d="M133.955 493.059 L150.274 493.059 L150.274 496.994 L128.33 496.994 L128.33 493.059 Q130.992 490.304 135.575 485.675 Q140.181 481.022 141.362 479.679 Q143.607 477.156 144.487 475.42 Q145.39 473.661 145.39 471.971 Q145.39 469.217 143.445 467.48 Q141.524 465.744 138.422 465.744 Q136.223 465.744 133.769 466.508 Q131.339 467.272 128.561 468.823 L128.561 464.101 Q131.385 462.967 133.839 462.388 Q136.293 461.809 138.33 461.809 Q143.7 461.809 146.894 464.494 Q150.089 467.18 150.089 471.67 Q150.089 473.8 149.279 475.721 Q148.492 477.619 146.385 480.212 Q145.806 480.883 142.705 484.101 Q139.603 487.295 133.955 493.059 Z" fill="#000000" fill-rule="evenodd" fill-opacity="1" /><path clip-path="url(#clip070)" d="M93.7465 371.191 Q90.1354 371.191 88.3067 374.756 Q86.5012 378.298 86.5012 385.427 Q86.5012 392.534 88.3067 396.099 Q90.1354 399.64 93.7465 399.64 Q97.3808 399.64 99.1863 396.099 Q101.015 392.534 101.015 385.427 Q101.015 378.298 99.1863 374.756 Q97.3808 371.191 93.7465 371.191 M93.7465 367.488 Q99.5567 367.488 102.612 372.094 Q105.691 376.677 105.691 385.427 Q105.691 394.154 102.612 398.761 Q99.5567 403.344 93.7465 403.344 Q87.9364 403.344 84.8577 398.761 Q81.8021 394.154 81.8021 385.427 Q81.8021 376.677 84.8577 372.094 Q87.9364 367.488 93.7465 367.488 Z" fill="#000000" fill-rule="evenodd" fill-opacity="1" /><path clip-path="url(#clip070)" d="M113.908 396.793 L118.793 396.793 L118.793 402.673 L113.908 402.673 L113.908 396.793 Z" fill="#000000" fill-rule="evenodd" fill-opacity="1" /><path clip-path="url(#clip070)" d="M143.144 384.038 Q146.501 384.756 148.376 387.025 Q150.274 389.293 150.274 392.626 Q150.274 397.742 146.756 400.543 Q143.237 403.344 136.756 403.344 Q134.58 403.344 132.265 402.904 Q129.973 402.487 127.519 401.631 L127.519 397.117 Q129.464 398.251 131.779 398.83 Q134.094 399.409 136.617 399.409 Q141.015 399.409 143.306 397.673 Q145.621 395.937 145.621 392.626 Q145.621 389.571 143.468 387.858 Q141.339 386.122 137.519 386.122 L133.492 386.122 L133.492 382.279 L137.705 382.279 Q141.154 382.279 142.982 380.913 Q144.811 379.525 144.811 376.932 Q144.811 374.27 142.913 372.858 Q141.038 371.423 137.519 371.423 Q135.598 371.423 133.399 371.839 Q131.2 372.256 128.561 373.136 L128.561 368.969 Q131.223 368.228 133.538 367.858 Q135.876 367.488 137.936 367.488 Q143.26 367.488 146.362 369.918 Q149.464 372.326 149.464 376.446 Q149.464 379.316 147.82 381.307 Q146.177 383.275 143.144 384.038 Z" fill="#000000" fill-rule="evenodd" fill-opacity="1" /><path clip-path="url(#clip070)" d="M92.6123 276.87 Q89.0012 276.87 87.1725 280.435 Q85.3669 283.976 85.3669 291.106 Q85.3669 298.212 87.1725 301.777 Q89.0012 305.319 92.6123 305.319 Q96.2465 305.319 98.0521 301.777 Q99.8808 298.212 99.8808 291.106 Q99.8808 283.976 98.0521 280.435 Q96.2465 276.87 92.6123 276.87 M92.6123 273.166 Q98.4224 273.166 101.478 277.773 Q104.557 282.356 104.557 291.106 Q104.557 299.833 101.478 304.439 Q98.4224 309.022 92.6123 309.022 Q86.8021 309.022 83.7234 304.439 Q80.6679 299.833 80.6679 291.106 Q80.6679 282.356 83.7234 277.773 Q86.8021 273.166 92.6123 273.166 Z" fill="#000000" fill-rule="evenodd" fill-opacity="1" /><path clip-path="url(#clip070)" d="M112.774 302.472 L117.658 302.472 L117.658 308.351 L112.774 308.351 L112.774 302.472 Z" fill="#000000" fill-rule="evenodd" fill-opacity="1" /><path clip-path="url(#clip070)" d="M140.691 277.865 L128.885 296.314 L140.691 296.314 L140.691 277.865 M139.464 273.791 L145.343 273.791 L145.343 296.314 L150.274 296.314 L150.274 300.203 L145.343 300.203 L145.343 308.351 L140.691 308.351 L140.691 300.203 L125.089 300.203 L125.089 295.689 L139.464 273.791 Z" fill="#000000" fill-rule="evenodd" fill-opacity="1" /><path clip-path="url(#clip070)" d="M94.0937 182.548 Q90.4827 182.548 88.654 186.113 Q86.8484 189.655 86.8484 196.784 Q86.8484 203.891 88.654 207.456 Q90.4827 210.997 94.0937 210.997 Q97.728 210.997 99.5335 207.456 Q101.362 203.891 101.362 196.784 Q101.362 189.655 99.5335 186.113 Q97.728 182.548 94.0937 182.548 M94.0937 178.845 Q99.9039 178.845 102.959 183.451 Q106.038 188.034 106.038 196.784 Q106.038 205.511 102.959 210.118 Q99.9039 214.701 94.0937 214.701 Q88.2836 214.701 85.2049 210.118 Q82.1494 205.511 82.1494 196.784 Q82.1494 188.034 85.2049 183.451 Q88.2836 178.845 94.0937 178.845 Z" fill="#000000" fill-rule="evenodd" fill-opacity="1" /><path clip-path="url(#clip070)" d="M114.256 208.15 L119.14 208.15 L119.14 214.03 L114.256 214.03 L114.256 208.15 Z" fill="#000000" fill-rule="evenodd" fill-opacity="1" /><path clip-path="url(#clip070)" d="M129.371 179.47 L147.728 179.47 L147.728 183.405 L133.654 183.405 L133.654 191.877 Q134.672 191.53 135.691 191.368 Q136.709 191.182 137.728 191.182 Q143.515 191.182 146.894 194.354 Q150.274 197.525 150.274 202.942 Q150.274 208.52 146.802 211.622 Q143.33 214.701 137.01 214.701 Q134.834 214.701 132.566 214.331 Q130.32 213.96 127.913 213.219 L127.913 208.52 Q129.996 209.655 132.219 210.21 Q134.441 210.766 136.918 210.766 Q140.922 210.766 143.26 208.659 Q145.598 206.553 145.598 202.942 Q145.598 199.331 143.26 197.224 Q140.922 195.118 136.918 195.118 Q135.043 195.118 133.168 195.534 Q131.316 195.951 129.371 196.831 L129.371 179.47 Z" fill="#000000" fill-rule="evenodd" fill-opacity="1" /><path clip-path="url(#clip070)" d="M92.9363 88.2267 Q89.3253 88.2267 87.4966 91.7915 Q85.691 95.3332 85.691 102.463 Q85.691 109.569 87.4966 113.134 Q89.3253 116.676 92.9363 116.676 Q96.5706 116.676 98.3761 113.134 Q100.205 109.569 100.205 102.463 Q100.205 95.3332 98.3761 91.7915 Q96.5706 88.2267 92.9363 88.2267 M92.9363 84.5231 Q98.7465 84.5231 101.802 89.1295 Q104.881 93.7128 104.881 102.463 Q104.881 111.19 101.802 115.796 Q98.7465 120.379 92.9363 120.379 Q87.1262 120.379 84.0475 115.796 Q80.992 111.19 80.992 102.463 Q80.992 93.7128 84.0475 89.1295 Q87.1262 84.5231 92.9363 84.5231 Z" fill="#000000" fill-rule="evenodd" fill-opacity="1" /><path clip-path="url(#clip070)" d="M113.098 113.828 L117.983 113.828 L117.983 119.708 L113.098 119.708 L113.098 113.828 Z" fill="#000000" fill-rule="evenodd" fill-opacity="1" /><path clip-path="url(#clip070)" d="M138.746 100.565 Q135.598 100.565 133.746 102.717 Q131.918 104.87 131.918 108.62 Q131.918 112.347 133.746 114.523 Q135.598 116.676 138.746 116.676 Q141.894 116.676 143.723 114.523 Q145.575 112.347 145.575 108.62 Q145.575 104.87 143.723 102.717 Q141.894 100.565 138.746 100.565 M148.029 85.9119 L148.029 90.1712 Q146.269 89.3378 144.464 88.898 Q142.681 88.4582 140.922 88.4582 Q136.293 88.4582 133.839 91.5832 Q131.408 94.7082 131.061 101.028 Q132.427 99.0137 134.487 97.9489 Q136.547 96.861 139.024 96.861 Q144.232 96.861 147.242 100.032 Q150.274 103.18 150.274 108.62 Q150.274 113.944 147.126 117.162 Q143.978 120.379 138.746 120.379 Q132.751 120.379 129.58 115.796 Q126.408 111.19 126.408 102.463 Q126.408 94.2684 130.297 89.4073 Q134.186 84.5231 140.737 84.5231 Q142.496 84.5231 144.279 84.8703 Q146.084 85.2175 148.029 85.9119 Z" fill="#000000" fill-rule="evenodd" fill-opacity="1" /><polyline clip-path="url(#clip072)" style="stroke:#009af9; stroke-linecap:round; stroke-linejoin:round; stroke-width:4; stroke-opacity:1; fill:none" points="
  454.696,668.357 456.193,668.354 457.69,668.344 459.186,668.306 460.683,668.209 462.18,668.027 463.677,667.79 465.174,667.606 466.67,667.588 468.167,667.751 
  469.664,667.989 471.161,668.185 472.658,668.295 474.155,668.337 475.651,668.339 477.148,668.303 478.645,668.204 480.142,668.019 481.639,667.782 483.135,667.602 
  484.632,667.592 486.129,667.759 487.626,667.997 489.123,668.19 490.619,668.298 492.116,668.341 493.613,668.354 495.11,668.357 496.607,668.357 498.104,668.357 
  499.6,668.357 501.097,668.357 502.594,668.356 504.091,668.352 505.588,668.334 507.084,668.274 508.581,668.135 510.078,667.908 511.575,667.667 513.072,667.552 
  514.569,667.642 516.065,667.874 517.562,668.108 519.059,668.259 520.556,668.328 522.053,668.35 523.549,668.356 525.046,668.357 526.543,668.355 528.04,668.345 
  529.537,668.309 531.033,668.215 532.53,668.023 534.027,667.735 535.524,667.412 537.021,667.142 538.518,666.96 540.014,666.825 541.511,666.672 543.008,666.509 
  544.505,666.449 546.002,666.583 547.498,666.815 548.995,666.918 550.492,666.779 551.989,666.517 553.486,666.349 554.983,666.385 556.479,666.564 557.976,666.738 
  559.473,666.808 560.97,666.797 562.467,666.808 563.963,666.895 565.46,667.025 566.957,667.153 568.454,667.302 569.951,667.492 571.447,667.614 572.944,667.457 
  574.441,666.908 575.938,666.111 577.435,665.383 578.932,664.932 580.428,664.724 581.925,664.635 583.422,664.552 584.919,664.314 586.416,663.766 587.912,662.975 
  589.409,662.275 590.906,661.962 592.403,661.99 593.9,662.074 595.397,662.007 596.893,661.741 598.39,661.311 599.887,660.871 601.384,660.608 602.881,660.516 
  604.377,660.378 605.874,660.042 607.371,659.581 608.868,659.084 610.365,658.331 611.861,656.913 613.358,654.809 614.855,652.752 616.352,651.698 617.849,651.802 
  619.346,652.116 620.842,651.538 622.339,649.928 623.836,648.034 625.333,646.438 626.83,644.97 628.326,643.127 629.823,640.634 631.32,637.45 632.817,633.637 
  634.314,629.435 635.811,625.212 637.307,621.074 638.804,616.7 640.301,611.876 641.798,607.039 643.295,602.913 644.791,599.74 646.288,597.155 647.785,594.498 
  649.282,591.101 650.779,586.624 652.276,581.113 653.772,574.589 655.269,566.886 656.766,557.844 658.263,547.05 659.76,533.391 661.256,515.871 662.753,495.377 
  664.25,474.921 665.747,457.265 667.244,442.323 668.74,427.233 670.237,408.832 671.734,385.664 673.231,357.712 674.728,325.292 676.225,289.319 677.721,252.256 
  679.218,217.557 680.715,187.717 682.212,163.284 683.709,143.533 685.205,126.953 686.702,111.078 688.199,93.9075 689.696,76.8646 691.193,65.348 692.69,65.3348 
  694.186,79.4798 695.683,105.988 697.18,140.341 698.677,178.223 700.174,217.827 701.67,260.281 703.167,307.683 704.664,359.935 706.161,413.243 707.658,462.082 
  709.154,502.854 710.651,535.605 712.148,562.305 713.645,584.186 715.142,601.366 716.639,614.4 718.135,624.996 719.632,634.869 721.129,644.323 722.626,652.333 
  724.123,657.873 725.619,660.95 727.116,662.446 728.613,663.317 730.11,664.052 731.607,664.724 733.104,665.316 734.6,665.9 736.097,666.504 737.594,667.008 
  739.091,667.295 740.588,667.423 742.084,667.56 743.581,667.78 745.078,668.026 746.575,668.209 748.072,668.306 749.568,668.344 751.065,668.354 752.562,668.357 
  
  "/>
<polyline clip-path="url(#clip072)" style="stroke:#e26f46; stroke-linecap:round; stroke-linejoin:round; stroke-width:4; stroke-opacity:1; fill:none" points="
  213.627,668.283 216.595,668.276 219.563,668.268 247.008,668.159 274.452,667.939 290.945,667.718 307.437,667.398 321.382,667.023 335.326,666.526 342.9,666.195 
  350.474,665.813 358.048,665.374 365.621,664.874 372.604,664.352 379.586,663.767 386.569,663.114 393.551,662.386 401.037,661.519 408.523,660.555 416.008,659.489 
  423.494,658.314 432.167,656.81 440.84,655.148 449.513,653.322 458.187,651.329 465.894,649.417 473.602,647.373 481.309,645.2 489.017,642.904 495.776,640.793 
  502.535,638.598 509.294,636.325 516.052,633.984 530.79,628.688 545.528,623.234 560.354,617.734 575.179,612.388 579.277,610.961 583.375,609.564 587.473,608.201 
  591.571,606.874 595.669,605.588 599.767,604.347 603.865,603.154 607.963,602.013 611.862,600.979 615.761,599.998 619.66,599.073 623.559,598.207 627.458,597.401 
  631.357,596.659 635.256,595.982 639.155,595.373 643.209,594.813 647.263,594.329 651.317,593.924 655.371,593.599 659.425,593.354 663.479,593.191 667.534,593.109 
  671.588,593.11 675,593.175 678.413,593.298 681.826,593.478 685.238,593.716 688.651,594.011 692.064,594.362 695.476,594.769 698.889,595.229 703.056,595.865 
  707.222,596.577 711.389,597.365 715.555,598.225 719.722,599.154 723.888,600.15 728.055,601.21 732.221,602.329 739.855,604.523 747.488,606.883 751.305,608.118 
  755.122,609.385 758.939,610.682 762.755,612.004 776.856,617.066 790.956,622.286 805.239,627.586 819.523,632.764 827.526,635.567 835.53,638.278 843.534,640.882 
  851.538,643.368 858.79,645.509 866.043,647.541 873.296,649.458 880.548,651.258 888.852,653.175 897.156,654.939 905.46,656.552 913.764,658.019 921.452,659.251 
  929.141,660.368 936.829,661.376 944.518,662.28 952.098,663.078 959.678,663.788 967.258,664.418 974.838,664.973 982.198,665.449 989.558,665.866 996.917,666.231 
  1004.28,666.55 1019.37,667.075 1034.45,667.462 1050.99,667.763 1067.52,667.97 1091.53,668.156 1115.55,668.257 1120.48,668.271 1125.4,668.283 
  "/>
<path clip-path="url(#clip070)" d="
M960.005 224.071 L1120.54 224.071 L1120.54 68.5509 L960.005 68.5509  Z
  " fill="#ffffff" fill-rule="evenodd" fill-opacity="1"/>
<polyline clip-path="url(#clip070)" style="stroke:#000000; stroke-linecap:round; stroke-linejoin:round; stroke-width:4; stroke-opacity:1; fill:none" points="
  960.005,224.071 1120.54,224.071 1120.54,68.5509 960.005,68.5509 960.005,224.071 
  "/>
<polyline clip-path="url(#clip070)" style="stroke:#009af9; stroke-linecap:round; stroke-linejoin:round; stroke-width:4; stroke-opacity:1; fill:none" points="
  970.744,120.391 1035.18,120.391 
  "/>
<path clip-path="url(#clip070)" d="M1045.91 147.532 L1045.91 111.745 L1050.17 111.745 L1050.17 127.856 Q1050.17 131.213 1051.77 132.926 Q1053.37 134.638 1056.49 134.638 Q1059.92 134.638 1061.63 132.694 Q1063.37 130.75 1063.37 126.861 L1063.37 111.745 L1067.63 111.745 L1067.63 131.699 Q1067.63 133.088 1068.02 133.759 Q1068.44 134.407 1069.29 134.407 Q1069.5 134.407 1069.87 134.291 Q1070.24 134.152 1070.89 133.875 L1070.89 137.301 Q1069.94 137.833 1069.09 138.088 Q1068.25 138.342 1067.44 138.342 Q1065.85 138.342 1064.9 137.439 Q1063.95 136.537 1063.6 134.685 Q1062.44 136.513 1060.75 137.439 Q1059.09 138.342 1056.82 138.342 Q1054.46 138.342 1052.79 137.439 Q1051.15 136.537 1050.17 134.731 L1050.17 147.532 L1045.91 147.532 Z" fill="#000000" fill-rule="evenodd" fill-opacity="1" /><path clip-path="url(#clip070)" d="M1088.44 128.898 L1088.44 137.671 L1085.75 137.671 L1085.75 128.99 Q1085.75 126.93 1084.85 125.912 Q1083.95 124.87 1082.14 124.87 Q1079.97 124.87 1078.72 126.12 Q1077.47 127.347 1077.47 129.476 L1077.47 137.671 L1074.76 137.671 L1074.76 123.157 L1077.47 123.157 L1077.47 125.402 Q1078.41 124.106 1079.71 123.458 Q1081.03 122.81 1082.74 122.81 Q1085.54 122.81 1086.98 124.361 Q1088.44 125.912 1088.44 128.898 Z" fill="#000000" fill-rule="evenodd" fill-opacity="1" /><polyline clip-path="url(#clip070)" style="stroke:#e26f46; stroke-linecap:round; stroke-linejoin:round; stroke-width:4; stroke-opacity:1; fill:none" points="
  970.744,172.231 1035.18,172.231 
  "/>
<path clip-path="url(#clip070)" d="M1045.91 199.372 L1045.91 163.585 L1050.17 163.585 L1050.17 179.696 Q1050.17 183.053 1051.77 184.766 Q1053.37 186.478 1056.49 186.478 Q1059.92 186.478 1061.63 184.534 Q1063.37 182.59 1063.37 178.701 L1063.37 163.585 L1067.63 163.585 L1067.63 183.539 Q1067.63 184.928 1068.02 185.599 Q1068.44 186.247 1069.29 186.247 Q1069.5 186.247 1069.87 186.131 Q1070.24 185.992 1070.89 185.715 L1070.89 189.141 Q1069.94 189.673 1069.09 189.928 Q1068.25 190.182 1067.44 190.182 Q1065.85 190.182 1064.9 189.279 Q1063.95 188.377 1063.6 186.525 Q1062.44 188.353 1060.75 189.279 Q1059.09 190.182 1056.82 190.182 Q1054.46 190.182 1052.79 189.279 Q1051.15 188.377 1050.17 186.571 L1050.17 199.372 L1045.91 199.372 Z" fill="#000000" fill-rule="evenodd" fill-opacity="1" /><path clip-path="url(#clip070)" d="M1087.12 158.03 Q1083.51 158.03 1081.68 161.594 Q1079.87 165.136 1079.87 172.266 Q1079.87 179.372 1081.68 182.937 Q1083.51 186.478 1087.12 186.478 Q1090.75 186.478 1092.56 182.937 Q1094.39 179.372 1094.39 172.266 Q1094.39 165.136 1092.56 161.594 Q1090.75 158.03 1087.12 158.03 M1087.12 154.326 Q1092.93 154.326 1095.98 158.932 Q1099.06 163.516 1099.06 172.266 Q1099.06 180.992 1095.98 185.599 Q1092.93 190.182 1087.12 190.182 Q1081.31 190.182 1078.23 185.599 Q1075.17 180.992 1075.17 172.266 Q1075.17 163.516 1078.23 158.932 Q1081.31 154.326 1087.12 154.326 Z" fill="#000000" fill-rule="evenodd" fill-opacity="1" /><path clip-path="url(#clip070)" d="
M1386.27 686.448 L2352.76 686.448 L2352.76 47.2441 L1386.27 47.2441  Z
  " fill="#ffffff" fill-rule="evenodd" fill-opacity="1"/>
<defs>
  <clipPath id="clip073">
    <rect x="1386" y="47" width="967" height="640"/>
  </clipPath>
</defs>
<polyline clip-path="url(#clip073)" style="stroke:#000000; stroke-linecap:round; stroke-linejoin:round; stroke-width:2; stroke-opacity:0.1; fill:none" points="
  1386.27,686.448 1386.27,47.2441 
  "/>
<polyline clip-path="url(#clip073)" style="stroke:#000000; stroke-linecap:round; stroke-linejoin:round; stroke-width:2; stroke-opacity:0.1; fill:none" points="
  1708.43,686.448 1708.43,47.2441 
  "/>
<polyline clip-path="url(#clip073)" style="stroke:#000000; stroke-linecap:round; stroke-linejoin:round; stroke-width:2; stroke-opacity:0.1; fill:none" points="
  2030.6,686.448 2030.6,47.2441 
  "/>
<polyline clip-path="url(#clip073)" style="stroke:#000000; stroke-linecap:round; stroke-linejoin:round; stroke-width:2; stroke-opacity:0.1; fill:none" points="
  2352.76,686.448 2352.76,47.2441 
  "/>
<polyline clip-path="url(#clip070)" style="stroke:#000000; stroke-linecap:round; stroke-linejoin:round; stroke-width:4; stroke-opacity:1; fill:none" points="
  1386.27,686.448 2352.76,686.448 
  "/>
<polyline clip-path="url(#clip070)" style="stroke:#000000; stroke-linecap:round; stroke-linejoin:round; stroke-width:4; stroke-opacity:1; fill:none" points="
  1386.27,686.448 1386.27,667.55 
  "/>
<polyline clip-path="url(#clip070)" style="stroke:#000000; stroke-linecap:round; stroke-linejoin:round; stroke-width:4; stroke-opacity:1; fill:none" points="
  1708.43,686.448 1708.43,667.55 
  "/>
<polyline clip-path="url(#clip070)" style="stroke:#000000; stroke-linecap:round; stroke-linejoin:round; stroke-width:4; stroke-opacity:1; fill:none" points="
  2030.6,686.448 2030.6,667.55 
  "/>
<polyline clip-path="url(#clip070)" style="stroke:#000000; stroke-linecap:round; stroke-linejoin:round; stroke-width:4; stroke-opacity:1; fill:none" points="
  2352.76,686.448 2352.76,667.55 
  "/>
<path clip-path="url(#clip070)" d="M1386.27 717.367 Q1382.66 717.367 1380.83 720.931 Q1379.03 724.473 1379.03 731.603 Q1379.03 738.709 1380.83 742.274 Q1382.66 745.815 1386.27 745.815 Q1389.91 745.815 1391.71 742.274 Q1393.54 738.709 1393.54 731.603 Q1393.54 724.473 1391.71 720.931 Q1389.91 717.367 1386.27 717.367 M1386.27 713.663 Q1392.08 713.663 1395.14 718.269 Q1398.22 722.853 1398.22 731.603 Q1398.22 740.329 1395.14 744.936 Q1392.08 749.519 1386.27 749.519 Q1380.46 749.519 1377.39 744.936 Q1374.33 740.329 1374.33 731.603 Q1374.33 722.853 1377.39 718.269 Q1380.46 713.663 1386.27 713.663 Z" fill="#000000" fill-rule="evenodd" fill-opacity="1" /><path clip-path="url(#clip070)" d="M1683.12 744.913 L1690.76 744.913 L1690.76 718.547 L1682.45 720.214 L1682.45 715.955 L1690.71 714.288 L1695.39 714.288 L1695.39 744.913 L1703.03 744.913 L1703.03 748.848 L1683.12 748.848 L1683.12 744.913 Z" fill="#000000" fill-rule="evenodd" fill-opacity="1" /><path clip-path="url(#clip070)" d="M1722.47 717.367 Q1718.86 717.367 1717.03 720.931 Q1715.23 724.473 1715.23 731.603 Q1715.23 738.709 1717.03 742.274 Q1718.86 745.815 1722.47 745.815 Q1726.11 745.815 1727.91 742.274 Q1729.74 738.709 1729.74 731.603 Q1729.74 724.473 1727.91 720.931 Q1726.11 717.367 1722.47 717.367 M1722.47 713.663 Q1728.28 713.663 1731.34 718.269 Q1734.42 722.853 1734.42 731.603 Q1734.42 740.329 1731.34 744.936 Q1728.28 749.519 1722.47 749.519 Q1716.66 749.519 1713.59 744.936 Q1710.53 740.329 1710.53 731.603 Q1710.53 722.853 1713.59 718.269 Q1716.66 713.663 1722.47 713.663 Z" fill="#000000" fill-rule="evenodd" fill-opacity="1" /><path clip-path="url(#clip070)" d="M2009.37 744.913 L2025.69 744.913 L2025.69 748.848 L2003.74 748.848 L2003.74 744.913 Q2006.41 742.158 2010.99 737.528 Q2015.6 732.876 2016.78 731.533 Q2019.02 729.01 2019.9 727.274 Q2020.8 725.515 2020.8 723.825 Q2020.8 721.07 2018.86 719.334 Q2016.94 717.598 2013.84 717.598 Q2011.64 717.598 2009.18 718.362 Q2006.75 719.126 2003.98 720.677 L2003.98 715.955 Q2006.8 714.82 2009.25 714.242 Q2011.71 713.663 2013.74 713.663 Q2019.11 713.663 2022.31 716.348 Q2025.5 719.033 2025.5 723.524 Q2025.5 725.654 2024.69 727.575 Q2023.91 729.473 2021.8 732.066 Q2021.22 732.737 2018.12 735.954 Q2015.02 739.149 2009.37 744.913 Z" fill="#000000" fill-rule="evenodd" fill-opacity="1" /><path clip-path="url(#clip070)" d="M2045.5 717.367 Q2041.89 717.367 2040.06 720.931 Q2038.26 724.473 2038.26 731.603 Q2038.26 738.709 2040.06 742.274 Q2041.89 745.815 2045.5 745.815 Q2049.14 745.815 2050.94 742.274 Q2052.77 738.709 2052.77 731.603 Q2052.77 724.473 2050.94 720.931 Q2049.14 717.367 2045.5 717.367 M2045.5 713.663 Q2051.31 713.663 2054.37 718.269 Q2057.45 722.853 2057.45 731.603 Q2057.45 740.329 2054.37 744.936 Q2051.31 749.519 2045.5 749.519 Q2039.69 749.519 2036.61 744.936 Q2033.56 740.329 2033.56 731.603 Q2033.56 722.853 2036.61 718.269 Q2039.69 713.663 2045.5 713.663 Z" fill="#000000" fill-rule="evenodd" fill-opacity="1" /><path clip-path="url(#clip070)" d="M2341.6 730.214 Q2344.96 730.931 2346.83 733.2 Q2348.73 735.468 2348.73 738.802 Q2348.73 743.917 2345.21 746.718 Q2341.69 749.519 2335.21 749.519 Q2333.03 749.519 2330.72 749.079 Q2328.43 748.663 2325.97 747.806 L2325.97 743.292 Q2327.92 744.427 2330.23 745.005 Q2332.55 745.584 2335.07 745.584 Q2339.47 745.584 2341.76 743.848 Q2344.08 742.112 2344.08 738.802 Q2344.08 735.746 2341.92 734.033 Q2339.79 732.297 2335.97 732.297 L2331.95 732.297 L2331.95 728.454 L2336.16 728.454 Q2339.61 728.454 2341.44 727.089 Q2343.27 725.7 2343.27 723.107 Q2343.27 720.445 2341.37 719.033 Q2339.49 717.598 2335.97 717.598 Q2334.05 717.598 2331.85 718.015 Q2329.65 718.431 2327.02 719.311 L2327.02 715.144 Q2329.68 714.404 2331.99 714.033 Q2334.33 713.663 2336.39 713.663 Q2341.71 713.663 2344.82 716.093 Q2347.92 718.501 2347.92 722.621 Q2347.92 725.492 2346.27 727.482 Q2344.63 729.45 2341.6 730.214 Z" fill="#000000" fill-rule="evenodd" fill-opacity="1" /><path clip-path="url(#clip070)" d="M2367.59 717.367 Q2363.98 717.367 2362.15 720.931 Q2360.35 724.473 2360.35 731.603 Q2360.35 738.709 2362.15 742.274 Q2363.98 745.815 2367.59 745.815 Q2371.23 745.815 2373.03 742.274 Q2374.86 738.709 2374.86 731.603 Q2374.86 724.473 2373.03 720.931 Q2371.23 717.367 2367.59 717.367 M2367.59 713.663 Q2373.4 713.663 2376.46 718.269 Q2379.54 722.853 2379.54 731.603 Q2379.54 740.329 2376.46 744.936 Q2373.4 749.519 2367.59 749.519 Q2361.78 749.519 2358.7 744.936 Q2355.65 740.329 2355.65 731.603 Q2355.65 722.853 2358.7 718.269 Q2361.78 713.663 2367.59 713.663 Z" fill="#000000" fill-rule="evenodd" fill-opacity="1" /><polyline clip-path="url(#clip073)" style="stroke:#000000; stroke-linecap:round; stroke-linejoin:round; stroke-width:2; stroke-opacity:0.1; fill:none" points="
  1386.27,668.357 2352.76,668.357 
  "/>
<polyline clip-path="url(#clip073)" style="stroke:#000000; stroke-linecap:round; stroke-linejoin:round; stroke-width:2; stroke-opacity:0.1; fill:none" points="
  1386.27,544.191 2352.76,544.191 
  "/>
<polyline clip-path="url(#clip073)" style="stroke:#000000; stroke-linecap:round; stroke-linejoin:round; stroke-width:2; stroke-opacity:0.1; fill:none" points="
  1386.27,420.025 2352.76,420.025 
  "/>
<polyline clip-path="url(#clip073)" style="stroke:#000000; stroke-linecap:round; stroke-linejoin:round; stroke-width:2; stroke-opacity:0.1; fill:none" points="
  1386.27,295.859 2352.76,295.859 
  "/>
<polyline clip-path="url(#clip073)" style="stroke:#000000; stroke-linecap:round; stroke-linejoin:round; stroke-width:2; stroke-opacity:0.1; fill:none" points="
  1386.27,171.693 2352.76,171.693 
  "/>
<polyline clip-path="url(#clip073)" style="stroke:#000000; stroke-linecap:round; stroke-linejoin:round; stroke-width:2; stroke-opacity:0.1; fill:none" points="
  1386.27,47.5268 2352.76,47.5268 
  "/>
<polyline clip-path="url(#clip070)" style="stroke:#000000; stroke-linecap:round; stroke-linejoin:round; stroke-width:4; stroke-opacity:1; fill:none" points="
  1386.27,686.448 1386.27,47.2441 
  "/>
<polyline clip-path="url(#clip070)" style="stroke:#000000; stroke-linecap:round; stroke-linejoin:round; stroke-width:4; stroke-opacity:1; fill:none" points="
  1386.27,668.357 1405.17,668.357 
  "/>
<polyline clip-path="url(#clip070)" style="stroke:#000000; stroke-linecap:round; stroke-linejoin:round; stroke-width:4; stroke-opacity:1; fill:none" points="
  1386.27,544.191 1405.17,544.191 
  "/>
<polyline clip-path="url(#clip070)" style="stroke:#000000; stroke-linecap:round; stroke-linejoin:round; stroke-width:4; stroke-opacity:1; fill:none" points="
  1386.27,420.025 1405.17,420.025 
  "/>
<polyline clip-path="url(#clip070)" style="stroke:#000000; stroke-linecap:round; stroke-linejoin:round; stroke-width:4; stroke-opacity:1; fill:none" points="
  1386.27,295.859 1405.17,295.859 
  "/>
<polyline clip-path="url(#clip070)" style="stroke:#000000; stroke-linecap:round; stroke-linejoin:round; stroke-width:4; stroke-opacity:1; fill:none" points="
  1386.27,171.693 1405.17,171.693 
  "/>
<polyline clip-path="url(#clip070)" style="stroke:#000000; stroke-linecap:round; stroke-linejoin:round; stroke-width:4; stroke-opacity:1; fill:none" points="
  1386.27,47.5268 1405.17,47.5268 
  "/>
<path clip-path="url(#clip070)" d="M1262.94 654.156 Q1259.33 654.156 1257.5 657.721 Q1255.69 661.262 1255.69 668.392 Q1255.69 675.498 1257.5 679.063 Q1259.33 682.605 1262.94 682.605 Q1266.57 682.605 1268.38 679.063 Q1270.2 675.498 1270.2 668.392 Q1270.2 661.262 1268.38 657.721 Q1266.57 654.156 1262.94 654.156 M1262.94 650.452 Q1268.75 650.452 1271.8 655.059 Q1274.88 659.642 1274.88 668.392 Q1274.88 677.119 1271.8 681.725 Q1268.75 686.308 1262.94 686.308 Q1257.13 686.308 1254.05 681.725 Q1250.99 677.119 1250.99 668.392 Q1250.99 659.642 1254.05 655.059 Q1257.13 650.452 1262.94 650.452 Z" fill="#000000" fill-rule="evenodd" fill-opacity="1" /><path clip-path="url(#clip070)" d="M1283.1 679.758 L1287.98 679.758 L1287.98 685.637 L1283.1 685.637 L1283.1 679.758 Z" fill="#000000" fill-rule="evenodd" fill-opacity="1" /><path clip-path="url(#clip070)" d="M1308.17 654.156 Q1304.56 654.156 1302.73 657.721 Q1300.92 661.262 1300.92 668.392 Q1300.92 675.498 1302.73 679.063 Q1304.56 682.605 1308.17 682.605 Q1311.8 682.605 1313.61 679.063 Q1315.44 675.498 1315.44 668.392 Q1315.44 661.262 1313.61 657.721 Q1311.8 654.156 1308.17 654.156 M1308.17 650.452 Q1313.98 650.452 1317.03 655.059 Q1320.11 659.642 1320.11 668.392 Q1320.11 677.119 1317.03 681.725 Q1313.98 686.308 1308.17 686.308 Q1302.36 686.308 1299.28 681.725 Q1296.22 677.119 1296.22 668.392 Q1296.22 659.642 1299.28 655.059 Q1302.36 650.452 1308.17 650.452 Z" fill="#000000" fill-rule="evenodd" fill-opacity="1" /><path clip-path="url(#clip070)" d="M1338.33 654.156 Q1334.72 654.156 1332.89 657.721 Q1331.08 661.262 1331.08 668.392 Q1331.08 675.498 1332.89 679.063 Q1334.72 682.605 1338.33 682.605 Q1341.96 682.605 1343.77 679.063 Q1345.6 675.498 1345.6 668.392 Q1345.6 661.262 1343.77 657.721 Q1341.96 654.156 1338.33 654.156 M1338.33 650.452 Q1344.14 650.452 1347.2 655.059 Q1350.27 659.642 1350.27 668.392 Q1350.27 677.119 1347.2 681.725 Q1344.14 686.308 1338.33 686.308 Q1332.52 686.308 1329.44 681.725 Q1326.39 677.119 1326.39 668.392 Q1326.39 659.642 1329.44 655.059 Q1332.52 650.452 1338.33 650.452 Z" fill="#000000" fill-rule="evenodd" fill-opacity="1" /><path clip-path="url(#clip070)" d="M1263.93 529.99 Q1260.32 529.99 1258.49 533.555 Q1256.69 537.096 1256.69 544.226 Q1256.69 551.332 1258.49 554.897 Q1260.32 558.439 1263.93 558.439 Q1267.57 558.439 1269.37 554.897 Q1271.2 551.332 1271.2 544.226 Q1271.2 537.096 1269.37 533.555 Q1267.57 529.99 1263.93 529.99 M1263.93 526.286 Q1269.74 526.286 1272.8 530.893 Q1275.88 535.476 1275.88 544.226 Q1275.88 552.953 1272.8 557.559 Q1269.74 562.142 1263.93 562.142 Q1258.12 562.142 1255.04 557.559 Q1251.99 552.953 1251.99 544.226 Q1251.99 535.476 1255.04 530.893 Q1258.12 526.286 1263.93 526.286 Z" fill="#000000" fill-rule="evenodd" fill-opacity="1" /><path clip-path="url(#clip070)" d="M1284.09 555.592 L1288.98 555.592 L1288.98 561.471 L1284.09 561.471 L1284.09 555.592 Z" fill="#000000" fill-rule="evenodd" fill-opacity="1" /><path clip-path="url(#clip070)" d="M1309.16 529.99 Q1305.55 529.99 1303.72 533.555 Q1301.92 537.096 1301.92 544.226 Q1301.92 551.332 1303.72 554.897 Q1305.55 558.439 1309.16 558.439 Q1312.8 558.439 1314.6 554.897 Q1316.43 551.332 1316.43 544.226 Q1316.43 537.096 1314.6 533.555 Q1312.8 529.99 1309.16 529.99 M1309.16 526.286 Q1314.97 526.286 1318.03 530.893 Q1321.11 535.476 1321.11 544.226 Q1321.11 552.953 1318.03 557.559 Q1314.97 562.142 1309.16 562.142 Q1303.35 562.142 1300.27 557.559 Q1297.22 552.953 1297.22 544.226 Q1297.22 535.476 1300.27 530.893 Q1303.35 526.286 1309.16 526.286 Z" fill="#000000" fill-rule="evenodd" fill-opacity="1" /><path clip-path="url(#clip070)" d="M1329.37 526.911 L1347.73 526.911 L1347.73 530.846 L1333.65 530.846 L1333.65 539.318 Q1334.67 538.971 1335.69 538.809 Q1336.71 538.624 1337.73 538.624 Q1343.51 538.624 1346.89 541.795 Q1350.27 544.967 1350.27 550.383 Q1350.27 555.962 1346.8 559.064 Q1343.33 562.142 1337.01 562.142 Q1334.83 562.142 1332.57 561.772 Q1330.32 561.402 1327.91 560.661 L1327.91 555.962 Q1330 557.096 1332.22 557.652 Q1334.44 558.207 1336.92 558.207 Q1340.92 558.207 1343.26 556.101 Q1345.6 553.994 1345.6 550.383 Q1345.6 546.772 1343.26 544.666 Q1340.92 542.559 1336.92 542.559 Q1335.04 542.559 1333.17 542.976 Q1331.32 543.393 1329.37 544.272 L1329.37 526.911 Z" fill="#000000" fill-rule="evenodd" fill-opacity="1" /><path clip-path="url(#clip070)" d="M1262.94 405.824 Q1259.33 405.824 1257.5 409.389 Q1255.69 412.93 1255.69 420.06 Q1255.69 427.166 1257.5 430.731 Q1259.33 434.273 1262.94 434.273 Q1266.57 434.273 1268.38 430.731 Q1270.2 427.166 1270.2 420.06 Q1270.2 412.93 1268.38 409.389 Q1266.57 405.824 1262.94 405.824 M1262.94 402.12 Q1268.75 402.12 1271.8 406.727 Q1274.88 411.31 1274.88 420.06 Q1274.88 428.787 1271.8 433.393 Q1268.75 437.976 1262.94 437.976 Q1257.13 437.976 1254.05 433.393 Q1250.99 428.787 1250.99 420.06 Q1250.99 411.31 1254.05 406.727 Q1257.13 402.12 1262.94 402.12 Z" fill="#000000" fill-rule="evenodd" fill-opacity="1" /><path clip-path="url(#clip070)" d="M1283.1 431.425 L1287.98 431.425 L1287.98 437.305 L1283.1 437.305 L1283.1 431.425 Z" fill="#000000" fill-rule="evenodd" fill-opacity="1" /><path clip-path="url(#clip070)" d="M1298.98 433.37 L1306.62 433.37 L1306.62 407.004 L1298.31 408.671 L1298.31 404.412 L1306.57 402.745 L1311.25 402.745 L1311.25 433.37 L1318.89 433.37 L1318.89 437.305 L1298.98 437.305 L1298.98 433.37 Z" fill="#000000" fill-rule="evenodd" fill-opacity="1" /><path clip-path="url(#clip070)" d="M1338.33 405.824 Q1334.72 405.824 1332.89 409.389 Q1331.08 412.93 1331.08 420.06 Q1331.08 427.166 1332.89 430.731 Q1334.72 434.273 1338.33 434.273 Q1341.96 434.273 1343.77 430.731 Q1345.6 427.166 1345.6 420.06 Q1345.6 412.93 1343.77 409.389 Q1341.96 405.824 1338.33 405.824 M1338.33 402.12 Q1344.14 402.12 1347.2 406.727 Q1350.27 411.31 1350.27 420.06 Q1350.27 428.787 1347.2 433.393 Q1344.14 437.976 1338.33 437.976 Q1332.52 437.976 1329.44 433.393 Q1326.39 428.787 1326.39 420.06 Q1326.39 411.31 1329.44 406.727 Q1332.52 402.12 1338.33 402.12 Z" fill="#000000" fill-rule="evenodd" fill-opacity="1" /><path clip-path="url(#clip070)" d="M1263.93 281.658 Q1260.32 281.658 1258.49 285.222 Q1256.69 288.764 1256.69 295.894 Q1256.69 303 1258.49 306.565 Q1260.32 310.107 1263.93 310.107 Q1267.57 310.107 1269.37 306.565 Q1271.2 303 1271.2 295.894 Q1271.2 288.764 1269.37 285.222 Q1267.57 281.658 1263.93 281.658 M1263.93 277.954 Q1269.74 277.954 1272.8 282.56 Q1275.88 287.144 1275.88 295.894 Q1275.88 304.621 1272.8 309.227 Q1269.74 313.81 1263.93 313.81 Q1258.12 313.81 1255.04 309.227 Q1251.99 304.621 1251.99 295.894 Q1251.99 287.144 1255.04 282.56 Q1258.12 277.954 1263.93 277.954 Z" fill="#000000" fill-rule="evenodd" fill-opacity="1" /><path clip-path="url(#clip070)" d="M1284.09 307.259 L1288.98 307.259 L1288.98 313.139 L1284.09 313.139 L1284.09 307.259 Z" fill="#000000" fill-rule="evenodd" fill-opacity="1" /><path clip-path="url(#clip070)" d="M1299.97 309.204 L1307.61 309.204 L1307.61 282.838 L1299.3 284.505 L1299.3 280.246 L1307.57 278.579 L1312.24 278.579 L1312.24 309.204 L1319.88 309.204 L1319.88 313.139 L1299.97 313.139 L1299.97 309.204 Z" fill="#000000" fill-rule="evenodd" fill-opacity="1" /><path clip-path="url(#clip070)" d="M1329.37 278.579 L1347.73 278.579 L1347.73 282.514 L1333.65 282.514 L1333.65 290.986 Q1334.67 290.639 1335.69 290.477 Q1336.71 290.292 1337.73 290.292 Q1343.51 290.292 1346.89 293.463 Q1350.27 296.634 1350.27 302.051 Q1350.27 307.63 1346.8 310.732 Q1343.33 313.81 1337.01 313.81 Q1334.83 313.81 1332.57 313.44 Q1330.32 313.07 1327.91 312.329 L1327.91 307.63 Q1330 308.764 1332.22 309.32 Q1334.44 309.875 1336.92 309.875 Q1340.92 309.875 1343.26 307.769 Q1345.6 305.662 1345.6 302.051 Q1345.6 298.44 1343.26 296.334 Q1340.92 294.227 1336.92 294.227 Q1335.04 294.227 1333.17 294.644 Q1331.32 295.06 1329.37 295.94 L1329.37 278.579 Z" fill="#000000" fill-rule="evenodd" fill-opacity="1" /><path clip-path="url(#clip070)" d="M1262.94 157.492 Q1259.33 157.492 1257.5 161.056 Q1255.69 164.598 1255.69 171.728 Q1255.69 178.834 1257.5 182.399 Q1259.33 185.941 1262.94 185.941 Q1266.57 185.941 1268.38 182.399 Q1270.2 178.834 1270.2 171.728 Q1270.2 164.598 1268.38 161.056 Q1266.57 157.492 1262.94 157.492 M1262.94 153.788 Q1268.75 153.788 1271.8 158.394 Q1274.88 162.978 1274.88 171.728 Q1274.88 180.454 1271.8 185.061 Q1268.75 189.644 1262.94 189.644 Q1257.13 189.644 1254.05 185.061 Q1250.99 180.454 1250.99 171.728 Q1250.99 162.978 1254.05 158.394 Q1257.13 153.788 1262.94 153.788 Z" fill="#000000" fill-rule="evenodd" fill-opacity="1" /><path clip-path="url(#clip070)" d="M1283.1 183.093 L1287.98 183.093 L1287.98 188.973 L1283.1 188.973 L1283.1 183.093 Z" fill="#000000" fill-rule="evenodd" fill-opacity="1" /><path clip-path="url(#clip070)" d="M1302.2 185.038 L1318.51 185.038 L1318.51 188.973 L1296.57 188.973 L1296.57 185.038 Q1299.23 182.283 1303.82 177.654 Q1308.42 173.001 1309.6 171.658 Q1311.85 169.135 1312.73 167.399 Q1313.63 165.64 1313.63 163.95 Q1313.63 161.195 1311.69 159.459 Q1309.76 157.723 1306.66 157.723 Q1304.46 157.723 1302.01 158.487 Q1299.58 159.251 1296.8 160.802 L1296.8 156.08 Q1299.63 154.945 1302.08 154.367 Q1304.53 153.788 1306.57 153.788 Q1311.94 153.788 1315.14 156.473 Q1318.33 159.158 1318.33 163.649 Q1318.33 165.779 1317.52 167.7 Q1316.73 169.598 1314.63 172.191 Q1314.05 172.862 1310.95 176.079 Q1307.84 179.274 1302.2 185.038 Z" fill="#000000" fill-rule="evenodd" fill-opacity="1" /><path clip-path="url(#clip070)" d="M1338.33 157.492 Q1334.72 157.492 1332.89 161.056 Q1331.08 164.598 1331.08 171.728 Q1331.08 178.834 1332.89 182.399 Q1334.72 185.941 1338.33 185.941 Q1341.96 185.941 1343.77 182.399 Q1345.6 178.834 1345.6 171.728 Q1345.6 164.598 1343.77 161.056 Q1341.96 157.492 1338.33 157.492 M1338.33 153.788 Q1344.14 153.788 1347.2 158.394 Q1350.27 162.978 1350.27 171.728 Q1350.27 180.454 1347.2 185.061 Q1344.14 189.644 1338.33 189.644 Q1332.52 189.644 1329.44 185.061 Q1326.39 180.454 1326.39 171.728 Q1326.39 162.978 1329.44 158.394 Q1332.52 153.788 1338.33 153.788 Z" fill="#000000" fill-rule="evenodd" fill-opacity="1" /><path clip-path="url(#clip070)" d="M1263.93 33.3255 Q1260.32 33.3255 1258.49 36.8903 Q1256.69 40.432 1256.69 47.5616 Q1256.69 54.668 1258.49 58.2328 Q1260.32 61.7744 1263.93 61.7744 Q1267.57 61.7744 1269.37 58.2328 Q1271.2 54.668 1271.2 47.5616 Q1271.2 40.432 1269.37 36.8903 Q1267.57 33.3255 1263.93 33.3255 M1263.93 29.6218 Q1269.74 29.6218 1272.8 34.2283 Q1275.88 38.8116 1275.88 47.5616 Q1275.88 56.2884 1272.8 60.8948 Q1269.74 65.4781 1263.93 65.4781 Q1258.12 65.4781 1255.04 60.8948 Q1251.99 56.2884 1251.99 47.5616 Q1251.99 38.8116 1255.04 34.2283 Q1258.12 29.6218 1263.93 29.6218 Z" fill="#000000" fill-rule="evenodd" fill-opacity="1" /><path clip-path="url(#clip070)" d="M1284.09 58.9272 L1288.98 58.9272 L1288.98 64.8068 L1284.09 64.8068 L1284.09 58.9272 Z" fill="#000000" fill-rule="evenodd" fill-opacity="1" /><path clip-path="url(#clip070)" d="M1303.19 60.8717 L1319.51 60.8717 L1319.51 64.8068 L1297.57 64.8068 L1297.57 60.8717 Q1300.23 58.1171 1304.81 53.4875 Q1309.42 48.8347 1310.6 47.4921 Q1312.84 44.969 1313.72 43.2329 Q1314.63 41.4736 1314.63 39.7838 Q1314.63 37.0292 1312.68 35.2931 Q1310.76 33.557 1307.66 33.557 Q1305.46 33.557 1303.01 34.3209 Q1300.58 35.0848 1297.8 36.6357 L1297.8 31.9135 Q1300.62 30.7792 1303.08 30.2005 Q1305.53 29.6218 1307.57 29.6218 Q1312.94 29.6218 1316.13 32.307 Q1319.33 34.9922 1319.33 39.4829 Q1319.33 41.6125 1318.51 43.5338 Q1317.73 45.4319 1315.62 48.0245 Q1315.04 48.6958 1311.94 51.9134 Q1308.84 55.1078 1303.19 60.8717 Z" fill="#000000" fill-rule="evenodd" fill-opacity="1" /><path clip-path="url(#clip070)" d="M1329.37 30.2468 L1347.73 30.2468 L1347.73 34.182 L1333.65 34.182 L1333.65 42.6542 Q1334.67 42.307 1335.69 42.1449 Q1336.71 41.9597 1337.73 41.9597 Q1343.51 41.9597 1346.89 45.131 Q1350.27 48.3023 1350.27 53.7189 Q1350.27 59.2976 1346.8 62.3994 Q1343.33 65.4781 1337.01 65.4781 Q1334.83 65.4781 1332.57 65.1078 Q1330.32 64.7374 1327.91 63.9967 L1327.91 59.2976 Q1330 60.4319 1332.22 60.9874 Q1334.44 61.543 1336.92 61.543 Q1340.92 61.543 1343.26 59.4365 Q1345.6 57.33 1345.6 53.7189 Q1345.6 50.1078 1343.26 48.0014 Q1340.92 45.8949 1336.92 45.8949 Q1335.04 45.8949 1333.17 46.3116 Q1331.32 46.7282 1329.37 47.6079 L1329.37 30.2468 Z" fill="#000000" fill-rule="evenodd" fill-opacity="1" /><polyline clip-path="url(#clip073)" style="stroke:#009af9; stroke-linecap:round; stroke-linejoin:round; stroke-width:4; stroke-opacity:1; fill:none" points="
  1672.68,668.057 1708.11,658.597 1743.55,590.467 1778.98,368.032 1814.42,114.49 1849.85,65.3348 1885.29,247.714 1920.72,480.173 1956.16,599.423 1991.59,642.465 
  2027.03,662.955 2062.46,667.092 2097.9,667.782 2133.33,668.336 2168.76,668.357 2204.2,668.357 2239.63,668.357 2275.07,668.357 2310.5,668.357 2345.94,668.357 
  2381.37,668.357 2416.81,668.357 2452.24,668.357 2487.68,668.357 2523.11,668.357 2558.55,668.357 2593.98,668.357 2629.42,668.357 2664.85,668.357 2700.29,668.356 
  2735.72,668.357 2771.15,668.343 2806.59,668.032 2842.02,668.137 2877.46,668.35 2912.89,668.357 2948.33,668.357 2983.76,668.357 3019.2,668.357 3054.63,668.357 
  3090.07,668.357 3125.5,668.357 3160.94,668.357 3196.37,668.357 3231.81,668.357 3267.24,668.357 3302.68,668.357 3338.11,668.357 3373.54,668.357 3408.98,668.357 
  3444.41,668.356 3479.85,668.357 3515.28,668.344 3550.72,668.051 3586.15,668.119 3621.59,668.349 3657.02,668.357 3692.46,668.357 3727.89,668.357 3763.33,668.357 
  3798.76,668.357 3834.2,668.357 3869.63,668.357 3905.07,668.357 3940.5,668.357 3975.94,668.357 4011.37,668.357 4046.8,668.357 4082.24,668.357 4117.67,668.357 
  4153.11,668.357 4188.54,668.357 4223.98,668.357 4259.41,668.357 4294.85,668.357 4330.28,668.357 4365.72,668.357 4401.15,668.357 4436.59,668.357 4472.02,668.357 
  4507.46,668.357 4542.89,668.357 4578.33,668.357 4613.76,668.357 4649.19,668.357 4684.63,668.357 4720.06,668.357 4755.5,668.357 4790.93,668.357 4826.37,668.357 
  4861.8,668.357 4897.24,668.357 4932.67,668.357 4968.11,668.357 5003.54,668.357 5038.98,668.357 5074.41,668.357 5109.85,668.357 5145.28,668.357 5180.72,668.357 
  5216.15,668.357 5251.58,668.357 5287.02,668.357 5322.45,668.357 5357.89,668.357 5393.32,668.357 5428.76,668.357 5464.19,668.357 5499.63,668.357 5535.06,668.357 
  5570.5,668.357 5605.93,668.357 5641.37,668.357 5676.8,668.357 5712.24,668.357 5747.67,668.357 5783.11,668.357 5818.54,668.357 5853.98,668.357 5889.41,668.357 
  5924.84,668.357 5960.28,668.357 5995.71,668.357 6031.15,668.357 6066.58,668.357 6102.02,668.357 6137.45,668.357 6172.89,668.357 6208.32,668.357 6243.76,668.357 
  6279.19,668.357 6314.63,668.357 6350.06,668.357 6385.5,668.357 6420.93,668.357 6456.37,668.357 6491.8,668.357 6527.23,668.357 6562.67,668.357 6598.1,668.357 
  6633.54,668.357 6668.97,668.357 6704.41,668.357 6739.84,668.357 6775.28,668.357 6810.71,668.357 6846.15,668.357 6881.58,668.357 6917.02,668.357 6952.45,668.357 
  6987.89,668.357 7023.32,668.357 7058.76,668.357 7094.19,668.357 7129.63,668.357 7165.06,668.357 7200.49,668.357 7235.93,668.357 7271.36,668.357 7306.8,668.357 
  7342.23,668.357 7377.67,668.357 7413.1,668.357 7448.54,668.357 7483.97,668.357 7519.41,668.357 7554.84,668.357 7590.28,668.357 7625.71,668.357 7661.15,668.357 
  7696.58,668.357 7732.02,668.357 7767.45,668.357 7802.88,668.357 7838.32,668.357 7873.75,668.357 7909.19,668.357 7944.62,668.357 7980.06,668.357 8015.49,668.357 
  8050.93,668.357 8086.36,668.357 8121.8,668.357 8157.23,668.357 8192.67,668.357 8228.1,668.357 8263.54,668.357 8298.97,668.357 8334.41,668.357 8369.84,668.357 
  8405.27,668.356 8440.71,668.357 8476.14,668.356 8511.58,668.357 8547.01,668.355 8582.45,668.357 8617.88,668.356 8653.32,668.342 8688.75,667.851 8724.19,668.337 
  
  "/>
<polyline clip-path="url(#clip073)" style="stroke:#e26f46; stroke-linecap:round; stroke-linejoin:round; stroke-width:4; stroke-opacity:1; fill:none" points="
  1550.13,533.964 1713.98,578.561 1877.84,612.972 2041.69,631.657 2205.55,642.443 2369.4,649.142 2533.26,653.563 2697.11,656.626 2860.96,658.831 3024.82,660.471 
  3188.67,661.722 3352.53,662.698 3516.38,663.474 3680.24,664.101 3844.09,664.615 4007.94,665.041 4335.65,665.701 4663.36,666.182 4991.07,666.543 5318.78,666.822 
  5646.49,667.041 5974.2,667.216 6301.91,667.358 6629.62,667.476 7285.03,667.656 7940.45,667.786 8595.87,667.883 9251.29,667.957 9906.7,668.015 10562.1,668.062 
  11217.5,668.099 11873,668.13 13183.8,668.177 14494.6,668.211 15805.5,668.236 17116.3,668.255 18427.1,668.27 19738,668.282 21048.8,668.292 22359.6,668.3 
  34480.2,668.334 46600.8,668.345 58721.3,668.349 70841.9,668.352 95083,668.354 119324,668.355 167806,668.356 216289,668.357 274560,668.357 332832,668.357 
  382100,668.357 431368,668.357 538405,668.357 637085,668.357 742879,668.357 865452,668.357 974381,668.357 1.0699e+06,668.357 1.17404e+06,668.357 1.27881e+06,668.357 
  1.39463e+06,668.357 1.50484e+06,668.357 1.61943e+06,668.357 1.71589e+06,668.357 1.83366e+06,668.357 1.94154e+06,668.357 2.04118e+06,668.357 2.14211e+06,668.357 2.25522e+06,668.357 2.35772e+06,668.357 
  2.47508e+06,668.357 2.58374e+06,668.357 2.69086e+06,668.357 2.79487e+06,668.357 2.9015e+06,668.357 3.01832e+06,668.357 3.18802e+06,668.357 3.22283e+06,668.357 
  "/>
<path clip-path="url(#clip070)" d="
M2139.7 224.071 L2320.54 224.071 L2320.54 68.5509 L2139.7 68.5509  Z
  " fill="#ffffff" fill-rule="evenodd" fill-opacity="1"/>
<polyline clip-path="url(#clip070)" style="stroke:#000000; stroke-linecap:round; stroke-linejoin:round; stroke-width:4; stroke-opacity:1; fill:none" points="
  2139.7,224.071 2320.54,224.071 2320.54,68.5509 2139.7,68.5509 2139.7,224.071 
  "/>
<polyline clip-path="url(#clip070)" style="stroke:#009af9; stroke-linecap:round; stroke-linejoin:round; stroke-width:4; stroke-opacity:1; fill:none" points="
  2150.44,120.391 2214.88,120.391 
  "/>
<path clip-path="url(#clip070)" d="M2237.51 115.125 Q2233.99 115.125 2232.1 117.671 Q2230.1 120.333 2230.1 124.731 Q2230.1 129.384 2232.07 132.069 Q2234.06 134.731 2237.51 134.731 Q2240.91 134.731 2242.91 132.046 Q2244.9 129.361 2244.9 124.731 Q2244.9 120.495 2242.91 117.671 Q2241.08 115.125 2237.51 115.125 M2237.51 111.745 L2251.66 111.745 L2251.66 116.004 L2246.89 116.004 Q2249.41 119.615 2249.41 124.731 Q2249.41 131.097 2246.24 134.708 Q2243.07 138.342 2237.51 138.342 Q2231.93 138.342 2228.79 134.708 Q2225.61 131.097 2225.61 124.731 Q2225.61 118.319 2228.79 114.731 Q2231.4 111.745 2237.51 111.745 Z" fill="#000000" fill-rule="evenodd" fill-opacity="1" /><path clip-path="url(#clip070)" d="M2259.25 119.569 L2269.06 119.569 L2269.06 122.208 L2255.22 122.208 L2255.22 119.662 Q2256.01 118.944 2257.47 117.648 Q2265.43 110.588 2265.43 108.412 Q2265.43 106.884 2264.22 105.958 Q2263.02 105.009 2261.05 105.009 Q2259.85 105.009 2258.44 105.426 Q2257.03 105.819 2255.36 106.629 L2255.36 103.782 Q2257.14 103.134 2258.67 102.81 Q2260.22 102.486 2261.54 102.486 Q2264.9 102.486 2266.91 104.014 Q2268.92 105.541 2268.92 108.041 Q2268.92 111.259 2261.26 117.833 Q2259.97 118.944 2259.25 119.569 Z" fill="#000000" fill-rule="evenodd" fill-opacity="1" /><path clip-path="url(#clip070)" d="M2288.44 128.898 L2288.44 137.671 L2285.75 137.671 L2285.75 128.99 Q2285.75 126.93 2284.85 125.912 Q2283.95 124.87 2282.14 124.87 Q2279.97 124.87 2278.72 126.12 Q2277.47 127.347 2277.47 129.476 L2277.47 137.671 L2274.76 137.671 L2274.76 123.157 L2277.47 123.157 L2277.47 125.402 Q2278.41 124.106 2279.71 123.458 Q2281.03 122.81 2282.74 122.81 Q2285.54 122.81 2286.98 124.361 Q2288.44 125.912 2288.44 128.898 Z" fill="#000000" fill-rule="evenodd" fill-opacity="1" /><polyline clip-path="url(#clip070)" style="stroke:#e26f46; stroke-linecap:round; stroke-linejoin:round; stroke-width:4; stroke-opacity:1; fill:none" points="
  2150.44,172.231 2214.88,172.231 
  "/>
<path clip-path="url(#clip070)" d="M2237.51 166.965 Q2233.99 166.965 2232.1 169.511 Q2230.1 172.173 2230.1 176.571 Q2230.1 181.224 2232.07 183.909 Q2234.06 186.571 2237.51 186.571 Q2240.91 186.571 2242.91 183.886 Q2244.9 181.201 2244.9 176.571 Q2244.9 172.335 2242.91 169.511 Q2241.08 166.965 2237.51 166.965 M2237.51 163.585 L2251.66 163.585 L2251.66 167.844 L2246.89 167.844 Q2249.41 171.455 2249.41 176.571 Q2249.41 182.937 2246.24 186.548 Q2243.07 190.182 2237.51 190.182 Q2231.93 190.182 2228.79 186.548 Q2225.61 182.937 2225.61 176.571 Q2225.61 170.159 2228.79 166.571 Q2231.4 163.585 2237.51 163.585 Z" fill="#000000" fill-rule="evenodd" fill-opacity="1" /><path clip-path="url(#clip070)" d="M2259.25 171.409 L2269.06 171.409 L2269.06 174.048 L2255.22 174.048 L2255.22 171.502 Q2256.01 170.784 2257.47 169.488 Q2265.43 162.428 2265.43 160.252 Q2265.43 158.724 2264.22 157.798 Q2263.02 156.849 2261.05 156.849 Q2259.85 156.849 2258.44 157.266 Q2257.03 157.659 2255.36 158.469 L2255.36 155.622 Q2257.14 154.974 2258.67 154.65 Q2260.22 154.326 2261.54 154.326 Q2264.9 154.326 2266.91 155.854 Q2268.92 157.381 2268.92 159.881 Q2268.92 163.099 2261.26 169.673 Q2259.97 170.784 2259.25 171.409 Z" fill="#000000" fill-rule="evenodd" fill-opacity="1" /><path clip-path="url(#clip070)" d="M2287.12 158.03 Q2283.51 158.03 2281.68 161.594 Q2279.87 165.136 2279.87 172.266 Q2279.87 179.372 2281.68 182.937 Q2283.51 186.478 2287.12 186.478 Q2290.75 186.478 2292.56 182.937 Q2294.39 179.372 2294.39 172.266 Q2294.39 165.136 2292.56 161.594 Q2290.75 158.03 2287.12 158.03 M2287.12 154.326 Q2292.93 154.326 2295.98 158.932 Q2299.06 163.516 2299.06 172.266 Q2299.06 180.992 2295.98 185.599 Q2292.93 190.182 2287.12 190.182 Q2281.31 190.182 2278.23 185.599 Q2275.17 180.992 2275.17 172.266 Q2275.17 163.516 2278.23 158.932 Q2281.31 154.326 2287.12 154.326 Z" fill="#000000" fill-rule="evenodd" fill-opacity="1" /><path clip-path="url(#clip070)" d="
M186.274 1486.45 L1152.76 1486.45 L1152.76 847.244 L186.274 847.244  Z
  " fill="#ffffff" fill-rule="evenodd" fill-opacity="1"/>
<defs>
  <clipPath id="clip074">
    <rect x="186" y="847" width="967" height="640"/>
  </clipPath>
</defs>
<polyline clip-path="url(#clip074)" style="stroke:#000000; stroke-linecap:round; stroke-linejoin:round; stroke-width:2; stroke-opacity:0.1; fill:none" points="
  186.274,1486.45 186.274,847.244 
  "/>
<polyline clip-path="url(#clip074)" style="stroke:#000000; stroke-linecap:round; stroke-linejoin:round; stroke-width:2; stroke-opacity:0.1; fill:none" points="
  508.435,1486.45 508.435,847.244 
  "/>
<polyline clip-path="url(#clip074)" style="stroke:#000000; stroke-linecap:round; stroke-linejoin:round; stroke-width:2; stroke-opacity:0.1; fill:none" points="
  830.595,1486.45 830.595,847.244 
  "/>
<polyline clip-path="url(#clip074)" style="stroke:#000000; stroke-linecap:round; stroke-linejoin:round; stroke-width:2; stroke-opacity:0.1; fill:none" points="
  1152.76,1486.45 1152.76,847.244 
  "/>
<polyline clip-path="url(#clip070)" style="stroke:#000000; stroke-linecap:round; stroke-linejoin:round; stroke-width:4; stroke-opacity:1; fill:none" points="
  186.274,1486.45 1152.76,1486.45 
  "/>
<polyline clip-path="url(#clip070)" style="stroke:#000000; stroke-linecap:round; stroke-linejoin:round; stroke-width:4; stroke-opacity:1; fill:none" points="
  186.274,1486.45 186.274,1467.55 
  "/>
<polyline clip-path="url(#clip070)" style="stroke:#000000; stroke-linecap:round; stroke-linejoin:round; stroke-width:4; stroke-opacity:1; fill:none" points="
  508.435,1486.45 508.435,1467.55 
  "/>
<polyline clip-path="url(#clip070)" style="stroke:#000000; stroke-linecap:round; stroke-linejoin:round; stroke-width:4; stroke-opacity:1; fill:none" points="
  830.595,1486.45 830.595,1467.55 
  "/>
<polyline clip-path="url(#clip070)" style="stroke:#000000; stroke-linecap:round; stroke-linejoin:round; stroke-width:4; stroke-opacity:1; fill:none" points="
  1152.76,1486.45 1152.76,1467.55 
  "/>
<path clip-path="url(#clip070)" d="M186.274 1517.37 Q182.663 1517.37 180.834 1520.93 Q179.029 1524.47 179.029 1531.6 Q179.029 1538.71 180.834 1542.27 Q182.663 1545.82 186.274 1545.82 Q189.908 1545.82 191.714 1542.27 Q193.542 1538.71 193.542 1531.6 Q193.542 1524.47 191.714 1520.93 Q189.908 1517.37 186.274 1517.37 M186.274 1513.66 Q192.084 1513.66 195.14 1518.27 Q198.218 1522.85 198.218 1531.6 Q198.218 1540.33 195.14 1544.94 Q192.084 1549.52 186.274 1549.52 Q180.464 1549.52 177.385 1544.94 Q174.33 1540.33 174.33 1531.6 Q174.33 1522.85 177.385 1518.27 Q180.464 1513.66 186.274 1513.66 Z" fill="#000000" fill-rule="evenodd" fill-opacity="1" /><path clip-path="url(#clip070)" d="M483.122 1544.91 L490.761 1544.91 L490.761 1518.55 L482.451 1520.21 L482.451 1515.95 L490.715 1514.29 L495.391 1514.29 L495.391 1544.91 L503.03 1544.91 L503.03 1548.85 L483.122 1548.85 L483.122 1544.91 Z" fill="#000000" fill-rule="evenodd" fill-opacity="1" /><path clip-path="url(#clip070)" d="M522.474 1517.37 Q518.863 1517.37 517.034 1520.93 Q515.229 1524.47 515.229 1531.6 Q515.229 1538.71 517.034 1542.27 Q518.863 1545.82 522.474 1545.82 Q526.108 1545.82 527.914 1542.27 Q529.742 1538.71 529.742 1531.6 Q529.742 1524.47 527.914 1520.93 Q526.108 1517.37 522.474 1517.37 M522.474 1513.66 Q528.284 1513.66 531.34 1518.27 Q534.418 1522.85 534.418 1531.6 Q534.418 1540.33 531.34 1544.94 Q528.284 1549.52 522.474 1549.52 Q516.664 1549.52 513.585 1544.94 Q510.53 1540.33 510.53 1531.6 Q510.53 1522.85 513.585 1518.27 Q516.664 1513.66 522.474 1513.66 Z" fill="#000000" fill-rule="evenodd" fill-opacity="1" /><path clip-path="url(#clip070)" d="M809.369 1544.91 L825.688 1544.91 L825.688 1548.85 L803.744 1548.85 L803.744 1544.91 Q806.406 1542.16 810.989 1537.53 Q815.595 1532.88 816.776 1531.53 Q819.021 1529.01 819.901 1527.27 Q820.804 1525.51 820.804 1523.82 Q820.804 1521.07 818.859 1519.33 Q816.938 1517.6 813.836 1517.6 Q811.637 1517.6 809.183 1518.36 Q806.753 1519.13 803.975 1520.68 L803.975 1515.95 Q806.799 1514.82 809.253 1514.24 Q811.706 1513.66 813.744 1513.66 Q819.114 1513.66 822.308 1516.35 Q825.503 1519.03 825.503 1523.52 Q825.503 1525.65 824.693 1527.57 Q823.905 1529.47 821.799 1532.07 Q821.22 1532.74 818.118 1535.95 Q815.017 1539.15 809.369 1544.91 Z" fill="#000000" fill-rule="evenodd" fill-opacity="1" /><path clip-path="url(#clip070)" d="M845.503 1517.37 Q841.892 1517.37 840.063 1520.93 Q838.257 1524.47 838.257 1531.6 Q838.257 1538.71 840.063 1542.27 Q841.892 1545.82 845.503 1545.82 Q849.137 1545.82 850.942 1542.27 Q852.771 1538.71 852.771 1531.6 Q852.771 1524.47 850.942 1520.93 Q849.137 1517.37 845.503 1517.37 M845.503 1513.66 Q851.313 1513.66 854.368 1518.27 Q857.447 1522.85 857.447 1531.6 Q857.447 1540.33 854.368 1544.94 Q851.313 1549.52 845.503 1549.52 Q839.692 1549.52 836.614 1544.94 Q833.558 1540.33 833.558 1531.6 Q833.558 1522.85 836.614 1518.27 Q839.692 1513.66 845.503 1513.66 Z" fill="#000000" fill-rule="evenodd" fill-opacity="1" /><path clip-path="url(#clip070)" d="M1141.6 1530.21 Q1144.96 1530.93 1146.83 1533.2 Q1148.73 1535.47 1148.73 1538.8 Q1148.73 1543.92 1145.21 1546.72 Q1141.69 1549.52 1135.21 1549.52 Q1133.03 1549.52 1130.72 1549.08 Q1128.43 1548.66 1125.97 1547.81 L1125.97 1543.29 Q1127.92 1544.43 1130.23 1545.01 Q1132.55 1545.58 1135.07 1545.58 Q1139.47 1545.58 1141.76 1543.85 Q1144.08 1542.11 1144.08 1538.8 Q1144.08 1535.75 1141.92 1534.03 Q1139.79 1532.3 1135.97 1532.3 L1131.95 1532.3 L1131.95 1528.45 L1136.16 1528.45 Q1139.61 1528.45 1141.44 1527.09 Q1143.27 1525.7 1143.27 1523.11 Q1143.27 1520.45 1141.37 1519.03 Q1139.49 1517.6 1135.97 1517.6 Q1134.05 1517.6 1131.85 1518.01 Q1129.65 1518.43 1127.02 1519.31 L1127.02 1515.14 Q1129.68 1514.4 1131.99 1514.03 Q1134.33 1513.66 1136.39 1513.66 Q1141.71 1513.66 1144.82 1516.09 Q1147.92 1518.5 1147.92 1522.62 Q1147.92 1525.49 1146.27 1527.48 Q1144.63 1529.45 1141.6 1530.21 Z" fill="#000000" fill-rule="evenodd" fill-opacity="1" /><path clip-path="url(#clip070)" d="M1167.59 1517.37 Q1163.98 1517.37 1162.15 1520.93 Q1160.35 1524.47 1160.35 1531.6 Q1160.35 1538.71 1162.15 1542.27 Q1163.98 1545.82 1167.59 1545.82 Q1171.23 1545.82 1173.03 1542.27 Q1174.86 1538.71 1174.86 1531.6 Q1174.86 1524.47 1173.03 1520.93 Q1171.23 1517.37 1167.59 1517.37 M1167.59 1513.66 Q1173.4 1513.66 1176.46 1518.27 Q1179.54 1522.85 1179.54 1531.6 Q1179.54 1540.33 1176.46 1544.94 Q1173.4 1549.52 1167.59 1549.52 Q1161.78 1549.52 1158.7 1544.94 Q1155.65 1540.33 1155.65 1531.6 Q1155.65 1522.85 1158.7 1518.27 Q1161.78 1513.66 1167.59 1513.66 Z" fill="#000000" fill-rule="evenodd" fill-opacity="1" /><polyline clip-path="url(#clip074)" style="stroke:#000000; stroke-linecap:round; stroke-linejoin:round; stroke-width:2; stroke-opacity:0.1; fill:none" points="
  186.274,1468.36 1152.76,1468.36 
  "/>
<polyline clip-path="url(#clip074)" style="stroke:#000000; stroke-linecap:round; stroke-linejoin:round; stroke-width:2; stroke-opacity:0.1; fill:none" points="
  186.274,1314.13 1152.76,1314.13 
  "/>
<polyline clip-path="url(#clip074)" style="stroke:#000000; stroke-linecap:round; stroke-linejoin:round; stroke-width:2; stroke-opacity:0.1; fill:none" points="
  186.274,1159.9 1152.76,1159.9 
  "/>
<polyline clip-path="url(#clip074)" style="stroke:#000000; stroke-linecap:round; stroke-linejoin:round; stroke-width:2; stroke-opacity:0.1; fill:none" points="
  186.274,1005.68 1152.76,1005.68 
  "/>
<polyline clip-path="url(#clip074)" style="stroke:#000000; stroke-linecap:round; stroke-linejoin:round; stroke-width:2; stroke-opacity:0.1; fill:none" points="
  186.274,851.45 1152.76,851.45 
  "/>
<polyline clip-path="url(#clip070)" style="stroke:#000000; stroke-linecap:round; stroke-linejoin:round; stroke-width:4; stroke-opacity:1; fill:none" points="
  186.274,1486.45 186.274,847.244 
  "/>
<polyline clip-path="url(#clip070)" style="stroke:#000000; stroke-linecap:round; stroke-linejoin:round; stroke-width:4; stroke-opacity:1; fill:none" points="
  186.274,1468.36 205.172,1468.36 
  "/>
<polyline clip-path="url(#clip070)" style="stroke:#000000; stroke-linecap:round; stroke-linejoin:round; stroke-width:4; stroke-opacity:1; fill:none" points="
  186.274,1314.13 205.172,1314.13 
  "/>
<polyline clip-path="url(#clip070)" style="stroke:#000000; stroke-linecap:round; stroke-linejoin:round; stroke-width:4; stroke-opacity:1; fill:none" points="
  186.274,1159.9 205.172,1159.9 
  "/>
<polyline clip-path="url(#clip070)" style="stroke:#000000; stroke-linecap:round; stroke-linejoin:round; stroke-width:4; stroke-opacity:1; fill:none" points="
  186.274,1005.68 205.172,1005.68 
  "/>
<polyline clip-path="url(#clip070)" style="stroke:#000000; stroke-linecap:round; stroke-linejoin:round; stroke-width:4; stroke-opacity:1; fill:none" points="
  186.274,851.45 205.172,851.45 
  "/>
<path clip-path="url(#clip070)" d="M62.9365 1454.16 Q59.3254 1454.16 57.4967 1457.72 Q55.6912 1461.26 55.6912 1468.39 Q55.6912 1475.5 57.4967 1479.06 Q59.3254 1482.6 62.9365 1482.6 Q66.5707 1482.6 68.3763 1479.06 Q70.205 1475.5 70.205 1468.39 Q70.205 1461.26 68.3763 1457.72 Q66.5707 1454.16 62.9365 1454.16 M62.9365 1450.45 Q68.7467 1450.45 71.8022 1455.06 Q74.8809 1459.64 74.8809 1468.39 Q74.8809 1477.12 71.8022 1481.73 Q68.7467 1486.31 62.9365 1486.31 Q57.1264 1486.31 54.0477 1481.73 Q50.9921 1477.12 50.9921 1468.39 Q50.9921 1459.64 54.0477 1455.06 Q57.1264 1450.45 62.9365 1450.45 Z" fill="#000000" fill-rule="evenodd" fill-opacity="1" /><path clip-path="url(#clip070)" d="M83.0984 1479.76 L87.9827 1479.76 L87.9827 1485.64 L83.0984 1485.64 L83.0984 1479.76 Z" fill="#000000" fill-rule="evenodd" fill-opacity="1" /><path clip-path="url(#clip070)" d="M108.168 1454.16 Q104.557 1454.16 102.728 1457.72 Q100.922 1461.26 100.922 1468.39 Q100.922 1475.5 102.728 1479.06 Q104.557 1482.6 108.168 1482.6 Q111.802 1482.6 113.608 1479.06 Q115.436 1475.5 115.436 1468.39 Q115.436 1461.26 113.608 1457.72 Q111.802 1454.16 108.168 1454.16 M108.168 1450.45 Q113.978 1450.45 117.033 1455.06 Q120.112 1459.64 120.112 1468.39 Q120.112 1477.12 117.033 1481.73 Q113.978 1486.31 108.168 1486.31 Q102.358 1486.31 99.2789 1481.73 Q96.2234 1477.12 96.2234 1468.39 Q96.2234 1459.64 99.2789 1455.06 Q102.358 1450.45 108.168 1450.45 Z" fill="#000000" fill-rule="evenodd" fill-opacity="1" /><path clip-path="url(#clip070)" d="M138.33 1454.16 Q134.719 1454.16 132.89 1457.72 Q131.084 1461.26 131.084 1468.39 Q131.084 1475.5 132.89 1479.06 Q134.719 1482.6 138.33 1482.6 Q141.964 1482.6 143.769 1479.06 Q145.598 1475.5 145.598 1468.39 Q145.598 1461.26 143.769 1457.72 Q141.964 1454.16 138.33 1454.16 M138.33 1450.45 Q144.14 1450.45 147.195 1455.06 Q150.274 1459.64 150.274 1468.39 Q150.274 1477.12 147.195 1481.73 Q144.14 1486.31 138.33 1486.31 Q132.519 1486.31 129.441 1481.73 Q126.385 1477.12 126.385 1468.39 Q126.385 1459.64 129.441 1455.06 Q132.519 1450.45 138.33 1450.45 Z" fill="#000000" fill-rule="evenodd" fill-opacity="1" /><path clip-path="url(#clip070)" d="M63.9319 1299.93 Q60.3208 1299.93 58.4921 1303.49 Q56.6865 1307.04 56.6865 1314.17 Q56.6865 1321.27 58.4921 1324.84 Q60.3208 1328.38 63.9319 1328.38 Q67.5661 1328.38 69.3717 1324.84 Q71.2004 1321.27 71.2004 1314.17 Q71.2004 1307.04 69.3717 1303.49 Q67.5661 1299.93 63.9319 1299.93 M63.9319 1296.23 Q69.742 1296.23 72.7976 1300.83 Q75.8763 1305.42 75.8763 1314.17 Q75.8763 1322.89 72.7976 1327.5 Q69.742 1332.08 63.9319 1332.08 Q58.1217 1332.08 55.043 1327.5 Q51.9875 1322.89 51.9875 1314.17 Q51.9875 1305.42 55.043 1300.83 Q58.1217 1296.23 63.9319 1296.23 Z" fill="#000000" fill-rule="evenodd" fill-opacity="1" /><path clip-path="url(#clip070)" d="M84.0938 1325.53 L88.978 1325.53 L88.978 1331.41 L84.0938 1331.41 L84.0938 1325.53 Z" fill="#000000" fill-rule="evenodd" fill-opacity="1" /><path clip-path="url(#clip070)" d="M109.163 1299.93 Q105.552 1299.93 103.723 1303.49 Q101.918 1307.04 101.918 1314.17 Q101.918 1321.27 103.723 1324.84 Q105.552 1328.38 109.163 1328.38 Q112.797 1328.38 114.603 1324.84 Q116.432 1321.27 116.432 1314.17 Q116.432 1307.04 114.603 1303.49 Q112.797 1299.93 109.163 1299.93 M109.163 1296.23 Q114.973 1296.23 118.029 1300.83 Q121.107 1305.42 121.107 1314.17 Q121.107 1322.89 118.029 1327.5 Q114.973 1332.08 109.163 1332.08 Q103.353 1332.08 100.274 1327.5 Q97.2187 1322.89 97.2187 1314.17 Q97.2187 1305.42 100.274 1300.83 Q103.353 1296.23 109.163 1296.23 Z" fill="#000000" fill-rule="evenodd" fill-opacity="1" /><path clip-path="url(#clip070)" d="M129.371 1296.85 L147.728 1296.85 L147.728 1300.79 L133.654 1300.79 L133.654 1309.26 Q134.672 1308.91 135.691 1308.75 Q136.709 1308.56 137.728 1308.56 Q143.515 1308.56 146.894 1311.73 Q150.274 1314.91 150.274 1320.32 Q150.274 1325.9 146.802 1329 Q143.33 1332.08 137.01 1332.08 Q134.834 1332.08 132.566 1331.71 Q130.32 1331.34 127.913 1330.6 L127.913 1325.9 Q129.996 1327.04 132.219 1327.59 Q134.441 1328.15 136.918 1328.15 Q140.922 1328.15 143.26 1326.04 Q145.598 1323.93 145.598 1320.32 Q145.598 1316.71 143.26 1314.6 Q140.922 1312.5 136.918 1312.5 Q135.043 1312.5 133.168 1312.92 Q131.316 1313.33 129.371 1314.21 L129.371 1296.85 Z" fill="#000000" fill-rule="evenodd" fill-opacity="1" /><path clip-path="url(#clip070)" d="M62.9365 1145.7 Q59.3254 1145.7 57.4967 1149.27 Q55.6912 1152.81 55.6912 1159.94 Q55.6912 1167.04 57.4967 1170.61 Q59.3254 1174.15 62.9365 1174.15 Q66.5707 1174.15 68.3763 1170.61 Q70.205 1167.04 70.205 1159.94 Q70.205 1152.81 68.3763 1149.27 Q66.5707 1145.7 62.9365 1145.7 M62.9365 1142 Q68.7467 1142 71.8022 1146.61 Q74.8809 1151.19 74.8809 1159.94 Q74.8809 1168.67 71.8022 1173.27 Q68.7467 1177.85 62.9365 1177.85 Q57.1264 1177.85 54.0477 1173.27 Q50.9921 1168.67 50.9921 1159.94 Q50.9921 1151.19 54.0477 1146.61 Q57.1264 1142 62.9365 1142 Z" fill="#000000" fill-rule="evenodd" fill-opacity="1" /><path clip-path="url(#clip070)" d="M83.0984 1171.3 L87.9827 1171.3 L87.9827 1177.18 L83.0984 1177.18 L83.0984 1171.3 Z" fill="#000000" fill-rule="evenodd" fill-opacity="1" /><path clip-path="url(#clip070)" d="M98.978 1173.25 L106.617 1173.25 L106.617 1146.88 L98.3067 1148.55 L98.3067 1144.29 L106.571 1142.62 L111.246 1142.62 L111.246 1173.25 L118.885 1173.25 L118.885 1177.18 L98.978 1177.18 L98.978 1173.25 Z" fill="#000000" fill-rule="evenodd" fill-opacity="1" /><path clip-path="url(#clip070)" d="M138.33 1145.7 Q134.719 1145.7 132.89 1149.27 Q131.084 1152.81 131.084 1159.94 Q131.084 1167.04 132.89 1170.61 Q134.719 1174.15 138.33 1174.15 Q141.964 1174.15 143.769 1170.61 Q145.598 1167.04 145.598 1159.94 Q145.598 1152.81 143.769 1149.27 Q141.964 1145.7 138.33 1145.7 M138.33 1142 Q144.14 1142 147.195 1146.61 Q150.274 1151.19 150.274 1159.94 Q150.274 1168.67 147.195 1173.27 Q144.14 1177.85 138.33 1177.85 Q132.519 1177.85 129.441 1173.27 Q126.385 1168.67 126.385 1159.94 Q126.385 1151.19 129.441 1146.61 Q132.519 1142 138.33 1142 Z" fill="#000000" fill-rule="evenodd" fill-opacity="1" /><path clip-path="url(#clip070)" d="M63.9319 991.476 Q60.3208 991.476 58.4921 995.04 Q56.6865 998.582 56.6865 1005.71 Q56.6865 1012.82 58.4921 1016.38 Q60.3208 1019.92 63.9319 1019.92 Q67.5661 1019.92 69.3717 1016.38 Q71.2004 1012.82 71.2004 1005.71 Q71.2004 998.582 69.3717 995.04 Q67.5661 991.476 63.9319 991.476 M63.9319 987.772 Q69.742 987.772 72.7976 992.378 Q75.8763 996.962 75.8763 1005.71 Q75.8763 1014.44 72.7976 1019.04 Q69.742 1023.63 63.9319 1023.63 Q58.1217 1023.63 55.043 1019.04 Q51.9875 1014.44 51.9875 1005.71 Q51.9875 996.962 55.043 992.378 Q58.1217 987.772 63.9319 987.772 Z" fill="#000000" fill-rule="evenodd" fill-opacity="1" /><path clip-path="url(#clip070)" d="M84.0938 1017.08 L88.978 1017.08 L88.978 1022.96 L84.0938 1022.96 L84.0938 1017.08 Z" fill="#000000" fill-rule="evenodd" fill-opacity="1" /><path clip-path="url(#clip070)" d="M99.9733 1019.02 L107.612 1019.02 L107.612 992.656 L99.3021 994.323 L99.3021 990.063 L107.566 988.397 L112.242 988.397 L112.242 1019.02 L119.881 1019.02 L119.881 1022.96 L99.9733 1022.96 L99.9733 1019.02 Z" fill="#000000" fill-rule="evenodd" fill-opacity="1" /><path clip-path="url(#clip070)" d="M129.371 988.397 L147.728 988.397 L147.728 992.332 L133.654 992.332 L133.654 1000.8 Q134.672 1000.46 135.691 1000.29 Q136.709 1000.11 137.728 1000.11 Q143.515 1000.11 146.894 1003.28 Q150.274 1006.45 150.274 1011.87 Q150.274 1017.45 146.802 1020.55 Q143.33 1023.63 137.01 1023.63 Q134.834 1023.63 132.566 1023.26 Q130.32 1022.89 127.913 1022.15 L127.913 1017.45 Q129.996 1018.58 132.219 1019.14 Q134.441 1019.69 136.918 1019.69 Q140.922 1019.69 143.26 1017.59 Q145.598 1015.48 145.598 1011.87 Q145.598 1008.26 143.26 1006.15 Q140.922 1004.04 136.918 1004.04 Q135.043 1004.04 133.168 1004.46 Q131.316 1004.88 129.371 1005.76 L129.371 988.397 Z" fill="#000000" fill-rule="evenodd" fill-opacity="1" /><path clip-path="url(#clip070)" d="M62.9365 837.249 Q59.3254 837.249 57.4967 840.814 Q55.6912 844.355 55.6912 851.485 Q55.6912 858.591 57.4967 862.156 Q59.3254 865.698 62.9365 865.698 Q66.5707 865.698 68.3763 862.156 Q70.205 858.591 70.205 851.485 Q70.205 844.355 68.3763 840.814 Q66.5707 837.249 62.9365 837.249 M62.9365 833.545 Q68.7467 833.545 71.8022 838.151 Q74.8809 842.735 74.8809 851.485 Q74.8809 860.212 71.8022 864.818 Q68.7467 869.401 62.9365 869.401 Q57.1264 869.401 54.0477 864.818 Q50.9921 860.212 50.9921 851.485 Q50.9921 842.735 54.0477 838.151 Q57.1264 833.545 62.9365 833.545 Z" fill="#000000" fill-rule="evenodd" fill-opacity="1" /><path clip-path="url(#clip070)" d="M83.0984 862.85 L87.9827 862.85 L87.9827 868.73 L83.0984 868.73 L83.0984 862.85 Z" fill="#000000" fill-rule="evenodd" fill-opacity="1" /><path clip-path="url(#clip070)" d="M102.196 864.795 L118.515 864.795 L118.515 868.73 L96.5706 868.73 L96.5706 864.795 Q99.2326 862.04 103.816 857.411 Q108.422 852.758 109.603 851.415 Q111.848 848.892 112.728 847.156 Q113.631 845.397 113.631 843.707 Q113.631 840.952 111.686 839.216 Q109.765 837.48 106.663 837.48 Q104.464 837.48 102.01 838.244 Q99.5798 839.008 96.8021 840.559 L96.8021 835.837 Q99.6261 834.702 102.08 834.124 Q104.534 833.545 106.571 833.545 Q111.941 833.545 115.135 836.23 Q118.33 838.915 118.33 843.406 Q118.33 845.536 117.52 847.457 Q116.733 849.355 114.626 851.948 Q114.047 852.619 110.946 855.837 Q107.844 859.031 102.196 864.795 Z" fill="#000000" fill-rule="evenodd" fill-opacity="1" /><path clip-path="url(#clip070)" d="M138.33 837.249 Q134.719 837.249 132.89 840.814 Q131.084 844.355 131.084 851.485 Q131.084 858.591 132.89 862.156 Q134.719 865.698 138.33 865.698 Q141.964 865.698 143.769 862.156 Q145.598 858.591 145.598 851.485 Q145.598 844.355 143.769 840.814 Q141.964 837.249 138.33 837.249 M138.33 833.545 Q144.14 833.545 147.195 838.151 Q150.274 842.735 150.274 851.485 Q150.274 860.212 147.195 864.818 Q144.14 869.401 138.33 869.401 Q132.519 869.401 129.441 864.818 Q126.385 860.212 126.385 851.485 Q126.385 842.735 129.441 838.151 Q132.519 833.545 138.33 833.545 Z" fill="#000000" fill-rule="evenodd" fill-opacity="1" /><polyline clip-path="url(#clip074)" style="stroke:#009af9; stroke-linecap:round; stroke-linejoin:round; stroke-width:4; stroke-opacity:1; fill:none" points="
  168.117,1468.22 197.519,1462.97 226.922,1377.97 256.324,1103.09 285.726,865.335 315.128,873.012 344.53,993.498 373.932,1127.95 403.334,1240.18 432.736,1303.99 
  462.138,1354.24 491.541,1381.18 520.943,1406.68 550.345,1424.56 579.747,1426.27 609.149,1435.65 638.551,1444.71 667.953,1450.76 697.355,1451.38 726.757,1455.77 
  756.159,1460.46 785.562,1462.37 814.964,1462.26 844.366,1463.62 873.768,1463.74 903.17,1464.25 932.572,1466.95 961.974,1466.77 991.376,1465.78 1020.78,1466.2 
  1050.18,1467.23 1079.58,1466.79 1108.98,1466.36 1138.39,1466.74 1167.79,1467.6 1197.19,1467.74 1226.59,1467.41 1256,1468.03 1285.4,1467.8 1314.8,1468.26 
  1344.2,1468.28 1373.6,1467.82 1403.01,1468.14 1432.41,1468.36 1461.81,1468.22 1491.21,1467.46 1520.61,1467.48 1550.02,1467.51 1579.42,1467.73 1608.82,1467.85 
  1638.22,1468.03 1667.62,1468.07 1697.03,1467.86 1726.43,1468.27 1755.83,1468.36 1785.23,1468.34 1814.64,1468.15 1844.04,1467.77 1873.44,1467.9 1902.84,1467.98 
  1932.24,1468.3 1961.65,1468.36 1991.05,1468.36 2020.45,1468.24 2049.85,1467.73 2079.25,1468.24 2108.66,1468.36 2138.06,1468.35 2167.46,1468.36 2196.86,1468.36 
  2226.26,1468.36 2255.67,1468.36 2285.07,1468.36 2314.47,1468.36 2343.87,1468.36 2373.28,1468.36 2402.68,1468.36 2432.08,1468.36 2461.48,1468.36 2490.88,1468.36 
  2520.29,1468.36 2549.69,1468.36 2579.09,1468.36 2608.49,1468.36 2637.89,1468.36 2667.3,1468.36 2696.7,1468.36 2726.1,1468.36 2755.5,1468.36 2784.9,1468.36 
  2814.31,1468.36 2843.71,1468.36 2873.11,1468.36 2902.51,1468.36 2931.92,1468.36 2961.32,1468.36 2990.72,1468.36 3020.12,1468.36 3049.52,1468.36 3078.93,1468.36 
  3108.33,1468.36 3137.73,1468.36 3167.13,1468.36 3196.53,1468.36 3225.94,1468.36 3255.34,1468.36 3284.74,1468.36 3314.14,1468.36 3343.54,1468.36 3372.95,1468.36 
  3402.35,1468.36 3431.75,1468.36 3461.15,1468.36 3490.56,1468.36 3519.96,1468.36 3549.36,1468.36 3578.76,1468.36 3608.16,1468.36 3637.57,1468.36 3666.97,1468.36 
  3696.37,1468.36 3725.77,1468.36 3755.17,1468.36 3784.58,1468.36 3813.98,1468.36 3843.38,1468.36 3872.78,1468.36 3902.18,1468.36 3931.59,1468.36 3960.99,1468.36 
  3990.39,1468.36 4019.79,1468.36 4049.2,1468.36 4078.6,1468.36 4108,1468.36 4137.4,1468.36 4166.8,1468.36 4196.21,1468.36 4225.61,1468.36 4255.01,1468.36 
  4284.41,1468.36 4313.81,1468.36 4343.22,1468.36 4372.62,1468.36 4402.02,1468.36 4431.42,1468.36 4460.82,1468.36 4490.23,1468.36 4519.63,1468.36 4549.03,1468.36 
  4578.43,1468.36 4607.84,1468.36 4637.24,1468.36 4666.64,1468.36 4696.04,1468.36 4725.44,1468.36 4754.85,1468.36 4784.25,1468.36 4813.65,1468.36 4843.05,1468.36 
  4872.45,1468.36 4901.86,1468.36 4931.26,1468.36 4960.66,1468.36 4990.06,1468.36 5019.46,1468.36 5048.87,1468.36 5078.27,1468.36 5107.67,1468.36 5137.07,1468.36 
  5166.48,1468.36 5195.88,1468.36 5225.28,1468.36 5254.68,1468.36 5284.08,1468.36 5313.49,1468.36 5342.89,1468.36 5372.29,1468.36 5401.69,1468.36 5431.09,1468.36 
  5460.5,1468.35 5489.9,1468.36 5519.3,1468.35 5548.7,1468.36 5578.1,1468.35 5607.51,1468.36 5636.91,1468.35 5666.31,1468.36 5695.71,1468.35 5725.12,1468.36 
  5754.52,1468.35 5783.92,1468.36 5813.32,1468.34 5842.72,1468.36 5872.13,1468.33 5901.53,1468.36 5930.93,1468.23 5960.33,1467.88 5989.73,1468.06 6019.14,1468.36 
  
  "/>
<polyline clip-path="url(#clip074)" style="stroke:#e26f46; stroke-linecap:round; stroke-linejoin:round; stroke-width:4; stroke-opacity:1; fill:none" points="
  432.056,1357.07 677.837,1394 923.619,1422.49 1169.4,1437.97 1415.18,1446.9 1660.96,1452.45 1906.75,1456.11 2152.53,1458.64 2398.31,1460.47 2644.09,1461.83 
  2889.87,1462.86 3135.65,1463.67 3381.44,1464.31 3627.22,1464.83 3873,1465.26 4118.78,1465.61 4610.34,1466.16 5101.91,1466.56 5593.47,1466.86 6085.03,1467.09 
  6576.6,1467.27 7068.16,1467.41 7559.72,1467.53 8051.29,1467.63 9034.41,1467.78 10017.5,1467.88 11000.7,1467.96 11983.8,1468.03 12966.9,1468.07 13950,1468.11 
  14933.2,1468.14 15916.3,1468.17 17882.6,1468.21 19848.8,1468.24 21815.1,1468.26 23781.3,1468.27 25747.6,1468.29 27713.8,1468.29 29680.1,1468.3 31646.3,1468.31 
  49827.2,1468.34 68008,1468.35 86188.9,1468.35 104370,1468.35 140731,1468.35 177093,1468.36 249817,1468.36 322540,1468.36 409947,1468.36 497355,1468.36 
  571257,1468.36 645159,1468.36 805715,1468.36 953734,1468.36 1.11243e+06,1468.36 1.29629e+06,1468.36 1.45968e+06,1468.36 1.60296e+06,1468.36 1.75917e+06,1468.36 1.91632e+06,1468.36 
  2.09006e+06,1468.36 2.25537e+06,1468.36 2.42726e+06,1468.36 2.57195e+06,1468.36 2.7486e+06,1468.36 2.91042e+06,1468.36 3.05988e+06,1468.36 3.21127e+06,1468.36 3.38094e+06,1468.36 3.53469e+06,1468.36 
  3.71072e+06,1468.36 3.87371e+06,1468.36 4.0344e+06,1468.36 4.19042e+06,1468.36 4.1943e+06,1468.36 4.1943e+06,1468.36 4.1943e+06,1468.36 4.1943e+06,1468.36 
  "/>
<path clip-path="url(#clip070)" d="
M940.908 1024.07 L1120.54 1024.07 L1120.54 868.551 L940.908 868.551  Z
  " fill="#ffffff" fill-rule="evenodd" fill-opacity="1"/>
<polyline clip-path="url(#clip070)" style="stroke:#000000; stroke-linecap:round; stroke-linejoin:round; stroke-width:4; stroke-opacity:1; fill:none" points="
  940.908,1024.07 1120.54,1024.07 1120.54,868.551 940.908,868.551 940.908,1024.07 
  "/>
<polyline clip-path="url(#clip070)" style="stroke:#009af9; stroke-linecap:round; stroke-linejoin:round; stroke-width:4; stroke-opacity:1; fill:none" points="
  951.647,920.391 1016.08,920.391 
  "/>
<path clip-path="url(#clip070)" d="M1041.68 932.949 Q1042.51 934.06 1045.01 934.06 L1047.07 934.06 L1047.07 937.671 L1044.5 937.671 Q1040.34 937.671 1038.44 935.449 Q1036.54 933.18 1036.54 928.273 L1036.54 916.004 L1026.82 916.004 L1026.82 911.745 L1050.73 911.745 L1050.73 916.004 L1040.89 916.004 L1040.89 928.527 Q1040.89 931.884 1041.68 932.949 Z" fill="#000000" fill-rule="evenodd" fill-opacity="1" /><path clip-path="url(#clip070)" d="M1059.25 919.569 L1069.06 919.569 L1069.06 922.208 L1055.22 922.208 L1055.22 919.662 Q1056.01 918.944 1057.47 917.648 Q1065.43 910.588 1065.43 908.412 Q1065.43 906.884 1064.22 905.958 Q1063.02 905.009 1061.05 905.009 Q1059.85 905.009 1058.44 905.426 Q1057.03 905.819 1055.36 906.629 L1055.36 903.782 Q1057.14 903.134 1058.67 902.81 Q1060.22 902.486 1061.54 902.486 Q1064.9 902.486 1066.91 904.014 Q1068.92 905.541 1068.92 908.041 Q1068.92 911.259 1061.26 917.833 Q1059.97 918.944 1059.25 919.569 Z" fill="#000000" fill-rule="evenodd" fill-opacity="1" /><path clip-path="url(#clip070)" d="M1088.44 928.898 L1088.44 937.671 L1085.75 937.671 L1085.75 928.99 Q1085.75 926.93 1084.85 925.912 Q1083.95 924.87 1082.14 924.87 Q1079.97 924.87 1078.72 926.12 Q1077.47 927.347 1077.47 929.476 L1077.47 937.671 L1074.76 937.671 L1074.76 923.157 L1077.47 923.157 L1077.47 925.402 Q1078.41 924.106 1079.71 923.458 Q1081.03 922.81 1082.74 922.81 Q1085.54 922.81 1086.98 924.361 Q1088.44 925.912 1088.44 928.898 Z" fill="#000000" fill-rule="evenodd" fill-opacity="1" /><polyline clip-path="url(#clip070)" style="stroke:#e26f46; stroke-linecap:round; stroke-linejoin:round; stroke-width:4; stroke-opacity:1; fill:none" points="
  951.647,972.231 1016.08,972.231 
  "/>
<path clip-path="url(#clip070)" d="M1041.68 984.789 Q1042.51 985.9 1045.01 985.9 L1047.07 985.9 L1047.07 989.511 L1044.5 989.511 Q1040.34 989.511 1038.44 987.289 Q1036.54 985.02 1036.54 980.113 L1036.54 967.844 L1026.82 967.844 L1026.82 963.585 L1050.73 963.585 L1050.73 967.844 L1040.89 967.844 L1040.89 980.367 Q1040.89 983.724 1041.68 984.789 Z" fill="#000000" fill-rule="evenodd" fill-opacity="1" /><path clip-path="url(#clip070)" d="M1059.25 971.409 L1069.06 971.409 L1069.06 974.048 L1055.22 974.048 L1055.22 971.502 Q1056.01 970.784 1057.47 969.488 Q1065.43 962.428 1065.43 960.252 Q1065.43 958.724 1064.22 957.798 Q1063.02 956.849 1061.05 956.849 Q1059.85 956.849 1058.44 957.266 Q1057.03 957.659 1055.36 958.469 L1055.36 955.622 Q1057.14 954.974 1058.67 954.65 Q1060.22 954.326 1061.54 954.326 Q1064.9 954.326 1066.91 955.854 Q1068.92 957.381 1068.92 959.881 Q1068.92 963.099 1061.26 969.673 Q1059.97 970.784 1059.25 971.409 Z" fill="#000000" fill-rule="evenodd" fill-opacity="1" /><path clip-path="url(#clip070)" d="M1087.12 958.03 Q1083.51 958.03 1081.68 961.594 Q1079.87 965.136 1079.87 972.266 Q1079.87 979.372 1081.68 982.937 Q1083.51 986.478 1087.12 986.478 Q1090.75 986.478 1092.56 982.937 Q1094.39 979.372 1094.39 972.266 Q1094.39 965.136 1092.56 961.594 Q1090.75 958.03 1087.12 958.03 M1087.12 954.326 Q1092.93 954.326 1095.98 958.932 Q1099.06 963.516 1099.06 972.266 Q1099.06 980.992 1095.98 985.599 Q1092.93 990.182 1087.12 990.182 Q1081.31 990.182 1078.23 985.599 Q1075.17 980.992 1075.17 972.266 Q1075.17 963.516 1078.23 958.932 Q1081.31 954.326 1087.12 954.326 Z" fill="#000000" fill-rule="evenodd" fill-opacity="1" /></svg>
