<?xml version="1.0" encoding="utf-8"?>
<svg xmlns="http://www.w3.org/2000/svg" xmlns:xlink="http://www.w3.org/1999/xlink" width="672" height="480" viewBox="0 0 2688 1920">
<defs>
  <clipPath id="clip310">
    <rect x="0" y="0" width="2688" height="1920"/>
  </clipPath>
</defs>
<path clip-path="url(#clip310)" d="
M0 1920 L2688 1920 L2688 0 L0 0  Z
  " fill="#ffffff" fill-rule="evenodd" fill-opacity="1"/>
<defs>
  <clipPath id="clip311">
    <rect x="537" y="0" width="1883" height="1883"/>
  </clipPath>
</defs>
<path clip-path="url(#clip310)" d="
M208.502 1734.12 L2640.76 1734.12 L2640.76 47.2441 L208.502 47.2441  Z
  " fill="#ffffff" fill-rule="evenodd" fill-opacity="1"/>
<defs>
  <clipPath id="clip312">
    <rect x="208" y="47" width="2433" height="1688"/>
  </clipPath>
</defs>
<polyline clip-path="url(#clip312)" style="stroke:#000000; stroke-linecap:round; stroke-linejoin:round; stroke-width:2; stroke-opacity:0.1; fill:none" points="
  211.605,1734.12 211.605,47.2441 
  "/>
<polyline clip-path="url(#clip312)" style="stroke:#000000; stroke-linecap:round; stroke-linejoin:round; stroke-width:2; stroke-opacity:0.1; fill:none" points="
  706.862,1734.12 706.862,47.2441 
  "/>
<polyline clip-path="url(#clip312)" style="stroke:#000000; stroke-linecap:round; stroke-linejoin:round; stroke-width:2; stroke-opacity:0.1; fill:none" points="
  1202.12,1734.12 1202.12,47.2441 
  "/>
<polyline clip-path="url(#clip312)" style="stroke:#000000; stroke-linecap:round; stroke-linejoin:round; stroke-width:2; stroke-opacity:0.1; fill:none" points="
  1697.38,1734.12 1697.38,47.2441 
  "/>
<polyline clip-path="url(#clip312)" style="stroke:#000000; stroke-linecap:round; stroke-linejoin:round; stroke-width:2; stroke-opacity:0.1; fill:none" points="
  2192.63,1734.12 2192.63,47.2441 
  "/>
<polyline clip-path="url(#clip310)" style="stroke:#000000; stroke-linecap:round; stroke-linejoin:round; stroke-width:4; stroke-opacity:1; fill:none" points="
  208.502,1734.12 2640.76,1734.12 
  "/>
<polyline clip-path="url(#clip310)" style="stroke:#000000; stroke-linecap:round; stroke-linejoin:round; stroke-width:4; stroke-opacity:1; fill:none" points="
  211.605,1734.12 211.605,1715.22 
  "/>
<polyline clip-path="url(#clip310)" style="stroke:#000000; stroke-linecap:round; stroke-linejoin:round; stroke-width:4; stroke-opacity:1; fill:none" points="
  706.862,1734.12 706.862,1715.22 
  "/>
<polyline clip-path="url(#clip310)" style="stroke:#000000; stroke-linecap:round; stroke-linejoin:round; stroke-width:4; stroke-opacity:1; fill:none" points="
  1202.12,1734.12 1202.12,1715.22 
  "/>
<polyline clip-path="url(#clip310)" style="stroke:#000000; stroke-linecap:round; stroke-linejoin:round; stroke-width:4; stroke-opacity:1; fill:none" points="
  1697.38,1734.12 1697.38,1715.22 
  "/>
<polyline clip-path="url(#clip310)" style="stroke:#000000; stroke-linecap:round; stroke-linejoin:round; stroke-width:4; stroke-opacity:1; fill:none" points="
  2192.63,1734.12 2192.63,1715.22 
  "/>
<path clip-path="url(#clip310)" d="M212.01 1779.68 Q208.862 1779.68 207.01 1781.83 Q205.181 1783.98 205.181 1787.73 Q205.181 1791.46 207.01 1793.64 Q208.862 1795.79 212.01 1795.79 Q215.158 1795.79 216.987 1793.64 Q218.839 1791.46 218.839 1787.73 Q218.839 1783.98 216.987 1781.83 Q215.158 1779.68 212.01 1779.68 M221.292 1765.02 L221.292 1769.28 Q219.533 1768.45 217.728 1768.01 Q215.945 1767.57 214.186 1767.57 Q209.556 1767.57 207.103 1770.7 Q204.672 1773.82 204.325 1780.14 Q205.691 1778.13 207.751 1777.06 Q209.811 1775.97 212.288 1775.97 Q217.496 1775.97 220.505 1779.15 Q223.538 1782.29 223.538 1787.73 Q223.538 1793.06 220.39 1796.27 Q217.242 1799.49 212.01 1799.49 Q206.015 1799.49 202.843 1794.91 Q199.672 1790.3 199.672 1781.58 Q199.672 1773.38 203.561 1768.52 Q207.45 1763.64 214.001 1763.64 Q215.76 1763.64 217.542 1763.98 Q219.348 1764.33 221.292 1765.02 Z" fill="#000000" fill-rule="evenodd" fill-opacity="1" /><path clip-path="url(#clip310)" d="M695.751 1764.26 L717.973 1764.26 L717.973 1766.25 L705.427 1798.82 L700.543 1798.82 L712.348 1768.2 L695.751 1768.2 L695.751 1764.26 Z" fill="#000000" fill-rule="evenodd" fill-opacity="1" /><path clip-path="url(#clip310)" d="M1202.12 1782.41 Q1198.79 1782.41 1196.86 1784.19 Q1194.97 1785.97 1194.97 1789.1 Q1194.97 1792.22 1196.86 1794.01 Q1198.79 1795.79 1202.12 1795.79 Q1205.45 1795.79 1207.37 1794.01 Q1209.3 1792.2 1209.3 1789.1 Q1209.3 1785.97 1207.37 1784.19 Q1205.48 1782.41 1202.12 1782.41 M1197.44 1780.42 Q1194.43 1779.68 1192.74 1777.62 Q1191.08 1775.56 1191.08 1772.59 Q1191.08 1768.45 1194.02 1766.04 Q1196.98 1763.64 1202.12 1763.64 Q1207.28 1763.64 1210.22 1766.04 Q1213.16 1768.45 1213.16 1772.59 Q1213.16 1775.56 1211.47 1777.62 Q1209.8 1779.68 1206.82 1780.42 Q1210.2 1781.21 1212.07 1783.5 Q1213.97 1785.79 1213.97 1789.1 Q1213.97 1794.12 1210.89 1796.81 Q1207.84 1799.49 1202.12 1799.49 Q1196.4 1799.49 1193.32 1796.81 Q1190.27 1794.12 1190.27 1789.1 Q1190.27 1785.79 1192.17 1783.5 Q1194.06 1781.21 1197.44 1780.42 M1195.73 1773.03 Q1195.73 1775.72 1197.4 1777.22 Q1199.09 1778.73 1202.12 1778.73 Q1205.13 1778.73 1206.82 1777.22 Q1208.53 1775.72 1208.53 1773.03 Q1208.53 1770.35 1206.82 1768.84 Q1205.13 1767.34 1202.12 1767.34 Q1199.09 1767.34 1197.4 1768.84 Q1195.73 1770.35 1195.73 1773.03 Z" fill="#000000" fill-rule="evenodd" fill-opacity="1" /><path clip-path="url(#clip310)" d="M1687.68 1798.1 L1687.68 1793.84 Q1689.44 1794.68 1691.24 1795.12 Q1693.05 1795.56 1694.78 1795.56 Q1699.41 1795.56 1701.84 1792.46 Q1704.3 1789.33 1704.65 1782.99 Q1703.3 1784.98 1701.24 1786.04 Q1699.18 1787.11 1696.68 1787.11 Q1691.5 1787.11 1688.46 1783.98 Q1685.46 1780.83 1685.46 1775.4 Q1685.46 1770.07 1688.6 1766.85 Q1691.75 1763.64 1696.98 1763.64 Q1702.98 1763.64 1706.13 1768.24 Q1709.3 1772.83 1709.3 1781.58 Q1709.3 1789.75 1705.41 1794.63 Q1701.54 1799.49 1694.99 1799.49 Q1693.23 1799.49 1691.43 1799.15 Q1689.62 1798.8 1687.68 1798.1 M1696.98 1783.45 Q1700.13 1783.45 1701.96 1781.3 Q1703.81 1779.15 1703.81 1775.4 Q1703.81 1771.67 1701.96 1769.52 Q1700.13 1767.34 1696.98 1767.34 Q1693.84 1767.34 1691.98 1769.52 Q1690.15 1771.67 1690.15 1775.4 Q1690.15 1779.15 1691.98 1781.3 Q1693.84 1783.45 1696.98 1783.45 Z" fill="#000000" fill-rule="evenodd" fill-opacity="1" /><path clip-path="url(#clip310)" d="M2167.32 1794.89 L2174.96 1794.89 L2174.96 1768.52 L2166.65 1770.19 L2166.65 1765.93 L2174.91 1764.26 L2179.59 1764.26 L2179.59 1794.89 L2187.23 1794.89 L2187.23 1798.82 L2167.32 1798.82 L2167.32 1794.89 Z" fill="#000000" fill-rule="evenodd" fill-opacity="1" /><path clip-path="url(#clip310)" d="M2206.67 1767.34 Q2203.06 1767.34 2201.23 1770.9 Q2199.43 1774.45 2199.43 1781.58 Q2199.43 1788.68 2201.23 1792.25 Q2203.06 1795.79 2206.67 1795.79 Q2210.31 1795.79 2212.11 1792.25 Q2213.94 1788.68 2213.94 1781.58 Q2213.94 1774.45 2212.11 1770.9 Q2210.31 1767.34 2206.67 1767.34 M2206.67 1763.64 Q2212.48 1763.64 2215.54 1768.24 Q2218.62 1772.83 2218.62 1781.58 Q2218.62 1790.3 2215.54 1794.91 Q2212.48 1799.49 2206.67 1799.49 Q2200.86 1799.49 2197.78 1794.91 Q2194.73 1790.3 2194.73 1781.58 Q2194.73 1772.83 2197.78 1768.24 Q2200.86 1763.64 2206.67 1763.64 Z" fill="#000000" fill-rule="evenodd" fill-opacity="1" /><path clip-path="url(#clip310)" d="M1192.69 1837.34 L1192.69 1843.61 Q1189.03 1841.86 1185.79 1841 Q1182.54 1840.14 1179.52 1840.14 Q1174.27 1840.14 1171.4 1842.18 Q1168.57 1844.22 1168.57 1847.97 Q1168.57 1851.12 1170.45 1852.75 Q1172.36 1854.34 1177.64 1855.32 L1181.52 1856.12 Q1188.72 1857.49 1192.12 1860.96 Q1195.56 1864.39 1195.56 1870.19 Q1195.56 1877.09 1190.91 1880.66 Q1186.3 1884.22 1177.35 1884.22 Q1173.98 1884.22 1170.16 1883.46 Q1166.37 1882.7 1162.3 1881.2 L1162.3 1874.58 Q1166.21 1876.78 1169.97 1877.89 Q1173.72 1879 1177.35 1879 Q1182.86 1879 1185.85 1876.84 Q1188.84 1874.68 1188.84 1870.67 Q1188.84 1867.16 1186.68 1865.19 Q1184.55 1863.22 1179.64 1862.23 L1175.73 1861.47 Q1168.54 1860.03 1165.32 1856.98 Q1162.11 1853.92 1162.11 1848.48 Q1162.11 1842.18 1166.53 1838.55 Q1170.99 1834.92 1178.79 1834.92 Q1182.13 1834.92 1185.6 1835.53 Q1189.07 1836.13 1192.69 1837.34 Z" fill="#000000" fill-rule="evenodd" fill-opacity="1" /><path clip-path="url(#clip310)" d="M1221.53 1865.38 Q1214.43 1865.38 1211.7 1867 Q1208.96 1868.63 1208.96 1872.54 Q1208.96 1875.66 1211 1877.51 Q1213.06 1879.32 1216.6 1879.32 Q1221.47 1879.32 1224.4 1875.88 Q1227.36 1872.42 1227.36 1866.69 L1227.36 1865.38 L1221.53 1865.38 M1233.21 1862.96 L1233.21 1883.3 L1227.36 1883.3 L1227.36 1877.89 Q1225.35 1881.14 1222.36 1882.7 Q1219.37 1884.22 1215.04 1884.22 Q1209.56 1884.22 1206.32 1881.17 Q1203.1 1878.08 1203.1 1872.92 Q1203.1 1866.91 1207.11 1863.85 Q1211.15 1860.8 1219.14 1860.8 L1227.36 1860.8 L1227.36 1860.23 Q1227.36 1856.18 1224.68 1853.99 Q1222.04 1851.76 1217.23 1851.76 Q1214.18 1851.76 1211.28 1852.49 Q1208.39 1853.22 1205.71 1854.69 L1205.71 1849.28 Q1208.93 1848.03 1211.95 1847.43 Q1214.97 1846.79 1217.84 1846.79 Q1225.57 1846.79 1229.39 1850.8 Q1233.21 1854.81 1233.21 1862.96 Z" fill="#000000" fill-rule="evenodd" fill-opacity="1" /><path clip-path="url(#clip310)" d="M1273.03 1854.5 Q1275.23 1850.55 1278.28 1848.67 Q1281.34 1846.79 1285.47 1846.79 Q1291.04 1846.79 1294.07 1850.71 Q1297.09 1854.59 1297.09 1861.78 L1297.09 1883.3 L1291.2 1883.3 L1291.2 1861.98 Q1291.2 1856.85 1289.39 1854.37 Q1287.58 1851.89 1283.85 1851.89 Q1279.3 1851.89 1276.66 1854.91 Q1274.02 1857.93 1274.02 1863.15 L1274.02 1883.3 L1268.13 1883.3 L1268.13 1861.98 Q1268.13 1856.82 1266.31 1854.37 Q1264.5 1851.89 1260.71 1851.89 Q1256.22 1851.89 1253.58 1854.94 Q1250.94 1857.97 1250.94 1863.15 L1250.94 1883.3 L1245.05 1883.3 L1245.05 1847.65 L1250.94 1847.65 L1250.94 1853.19 Q1252.95 1849.91 1255.75 1848.35 Q1258.55 1846.79 1262.4 1846.79 Q1266.28 1846.79 1268.99 1848.77 Q1271.72 1850.74 1273.03 1854.5 Z" fill="#000000" fill-rule="evenodd" fill-opacity="1" /><path clip-path="url(#clip310)" d="M1314.44 1877.95 L1314.44 1896.86 L1308.55 1896.86 L1308.55 1847.65 L1314.44 1847.65 L1314.44 1853.06 Q1316.28 1849.88 1319.09 1848.35 Q1321.92 1846.79 1325.83 1846.79 Q1332.33 1846.79 1336.37 1851.95 Q1340.44 1857.11 1340.44 1865.51 Q1340.44 1873.91 1336.37 1879.07 Q1332.33 1884.22 1325.83 1884.22 Q1321.92 1884.22 1319.09 1882.7 Q1316.28 1881.14 1314.44 1877.95 M1334.36 1865.51 Q1334.36 1859.05 1331.69 1855.39 Q1329.05 1851.7 1324.4 1851.7 Q1319.75 1851.7 1317.08 1855.39 Q1314.44 1859.05 1314.44 1865.51 Q1314.44 1871.97 1317.08 1875.66 Q1319.75 1879.32 1324.4 1879.32 Q1329.05 1879.32 1331.69 1875.66 Q1334.36 1871.97 1334.36 1865.51 Z" fill="#000000" fill-rule="evenodd" fill-opacity="1" /><path clip-path="url(#clip310)" d="M1350.15 1833.78 L1356.01 1833.78 L1356.01 1883.3 L1350.15 1883.3 L1350.15 1833.78 Z" fill="#000000" fill-rule="evenodd" fill-opacity="1" /><path clip-path="url(#clip310)" d="M1398.75 1864.01 L1398.75 1866.88 L1371.83 1866.88 Q1372.21 1872.92 1375.45 1876.11 Q1378.73 1879.26 1384.56 1879.26 Q1387.93 1879.26 1391.08 1878.43 Q1394.26 1877.6 1397.38 1875.95 L1397.38 1881.49 Q1394.23 1882.82 1390.92 1883.52 Q1387.61 1884.22 1384.21 1884.22 Q1375.68 1884.22 1370.68 1879.26 Q1365.71 1874.29 1365.71 1865.83 Q1365.71 1857.07 1370.42 1851.95 Q1375.17 1846.79 1383.19 1846.79 Q1390.38 1846.79 1394.55 1851.44 Q1398.75 1856.06 1398.75 1864.01 M1392.9 1862.29 Q1392.83 1857.49 1390.19 1854.62 Q1387.58 1851.76 1383.25 1851.76 Q1378.35 1851.76 1375.39 1854.53 Q1372.46 1857.3 1372.02 1862.33 L1392.9 1862.29 Z" fill="#000000" fill-rule="evenodd" fill-opacity="1" /><path clip-path="url(#clip310)" d="M1445.22 1842.11 L1436.5 1865.76 L1453.97 1865.76 L1445.22 1842.11 M1441.59 1835.78 L1448.88 1835.78 L1466.99 1883.3 L1460.31 1883.3 L1455.98 1871.11 L1434.56 1871.11 L1430.23 1883.3 L1423.45 1883.3 L1441.59 1835.78 Z" fill="#000000" fill-rule="evenodd" fill-opacity="1" /><path clip-path="url(#clip310)" d="M1465.66 1847.65 L1471.86 1847.65 L1483 1877.57 L1494.14 1847.65 L1500.35 1847.65 L1486.98 1883.3 L1479.02 1883.3 L1465.66 1847.65 Z" fill="#000000" fill-rule="evenodd" fill-opacity="1" /><path clip-path="url(#clip310)" d="M1538.93 1864.01 L1538.93 1866.88 L1512 1866.88 Q1512.38 1872.92 1515.63 1876.11 Q1518.9 1879.26 1524.73 1879.26 Q1528.1 1879.26 1531.25 1878.43 Q1534.44 1877.6 1537.56 1875.95 L1537.56 1881.49 Q1534.41 1882.82 1531.1 1883.52 Q1527.79 1884.22 1524.38 1884.22 Q1515.85 1884.22 1510.85 1879.26 Q1505.89 1874.29 1505.89 1865.83 Q1505.89 1857.07 1510.6 1851.95 Q1515.34 1846.79 1523.36 1846.79 Q1530.55 1846.79 1534.72 1851.44 Q1538.93 1856.06 1538.93 1864.01 M1533.07 1862.29 Q1533 1857.49 1530.36 1854.62 Q1527.75 1851.76 1523.42 1851.76 Q1518.52 1851.76 1515.56 1854.53 Q1512.63 1857.3 1512.19 1862.33 L1533.07 1862.29 Z" fill="#000000" fill-rule="evenodd" fill-opacity="1" /><path clip-path="url(#clip310)" d="M1569.19 1853.13 Q1568.21 1852.55 1567.03 1852.3 Q1565.88 1852.01 1564.48 1852.01 Q1559.52 1852.01 1556.84 1855.26 Q1554.2 1858.47 1554.2 1864.52 L1554.2 1883.3 L1548.31 1883.3 L1548.31 1847.65 L1554.2 1847.65 L1554.2 1853.19 Q1556.05 1849.94 1559.01 1848.39 Q1561.97 1846.79 1566.2 1846.79 Q1566.81 1846.79 1567.54 1846.89 Q1568.27 1846.95 1569.16 1847.11 L1569.19 1853.13 Z" fill="#000000" fill-rule="evenodd" fill-opacity="1" /><path clip-path="url(#clip310)" d="M1591.54 1865.38 Q1584.44 1865.38 1581.7 1867 Q1578.97 1868.63 1578.97 1872.54 Q1578.97 1875.66 1581 1877.51 Q1583.07 1879.32 1586.6 1879.32 Q1591.47 1879.32 1594.4 1875.88 Q1597.36 1872.42 1597.36 1866.69 L1597.36 1865.38 L1591.54 1865.38 M1603.22 1862.96 L1603.22 1883.3 L1597.36 1883.3 L1597.36 1877.89 Q1595.36 1881.14 1592.37 1882.7 Q1589.37 1884.22 1585.04 1884.22 Q1579.57 1884.22 1576.32 1881.17 Q1573.11 1878.08 1573.11 1872.92 Q1573.11 1866.91 1577.12 1863.85 Q1581.16 1860.8 1589.15 1860.8 L1597.36 1860.8 L1597.36 1860.23 Q1597.36 1856.18 1594.69 1853.99 Q1592.05 1851.76 1587.24 1851.76 Q1584.19 1851.76 1581.29 1852.49 Q1578.39 1853.22 1575.72 1854.69 L1575.72 1849.28 Q1578.93 1848.03 1581.96 1847.43 Q1584.98 1846.79 1587.85 1846.79 Q1595.58 1846.79 1599.4 1850.8 Q1603.22 1854.81 1603.22 1862.96 Z" fill="#000000" fill-rule="evenodd" fill-opacity="1" /><path clip-path="url(#clip310)" d="M1638.74 1865.06 Q1638.74 1858.7 1636.1 1855.2 Q1633.49 1851.7 1628.75 1851.7 Q1624.03 1851.7 1621.39 1855.2 Q1618.78 1858.7 1618.78 1865.06 Q1618.78 1871.4 1621.39 1874.9 Q1624.03 1878.4 1628.75 1878.4 Q1633.49 1878.4 1636.1 1874.9 Q1638.74 1871.4 1638.74 1865.06 M1644.6 1878.88 Q1644.6 1887.98 1640.55 1892.4 Q1636.51 1896.86 1628.17 1896.86 Q1625.08 1896.86 1622.35 1896.38 Q1619.61 1895.94 1617.03 1894.98 L1617.03 1889.28 Q1619.61 1890.69 1622.12 1891.35 Q1624.64 1892.02 1627.25 1892.02 Q1633.01 1892.02 1635.87 1889 Q1638.74 1886.01 1638.74 1879.93 L1638.74 1877.03 Q1636.93 1880.18 1634.09 1881.74 Q1631.26 1883.3 1627.31 1883.3 Q1620.76 1883.3 1616.75 1878.3 Q1612.74 1873.31 1612.74 1865.06 Q1612.74 1856.79 1616.75 1851.79 Q1620.76 1846.79 1627.31 1846.79 Q1631.26 1846.79 1634.09 1848.35 Q1636.93 1849.91 1638.74 1853.06 L1638.74 1847.65 L1644.6 1847.65 L1644.6 1878.88 Z" fill="#000000" fill-rule="evenodd" fill-opacity="1" /><path clip-path="url(#clip310)" d="M1687.15 1864.01 L1687.15 1866.88 L1660.22 1866.88 Q1660.61 1872.92 1663.85 1876.11 Q1667.13 1879.26 1672.96 1879.26 Q1676.33 1879.26 1679.48 1878.43 Q1682.66 1877.6 1685.78 1875.95 L1685.78 1881.49 Q1682.63 1882.82 1679.32 1883.52 Q1676.01 1884.22 1672.6 1884.22 Q1664.07 1884.22 1659.08 1879.26 Q1654.11 1874.29 1654.11 1865.83 Q1654.11 1857.07 1658.82 1851.95 Q1663.57 1846.79 1671.59 1846.79 Q1678.78 1846.79 1682.95 1851.44 Q1687.15 1856.06 1687.15 1864.01 M1681.29 1862.29 Q1681.23 1857.49 1678.59 1854.62 Q1675.98 1851.76 1671.65 1851.76 Q1666.75 1851.76 1663.79 1854.53 Q1660.86 1857.3 1660.41 1862.33 L1681.29 1862.29 Z" fill="#000000" fill-rule="evenodd" fill-opacity="1" /><polyline clip-path="url(#clip312)" style="stroke:#000000; stroke-linecap:round; stroke-linejoin:round; stroke-width:2; stroke-opacity:0.1; fill:none" points="
  208.502,1424.3 2640.76,1424.3 
  "/>
<polyline clip-path="url(#clip312)" style="stroke:#000000; stroke-linecap:round; stroke-linejoin:round; stroke-width:2; stroke-opacity:0.1; fill:none" points="
  208.502,1026.4 2640.76,1026.4 
  "/>
<polyline clip-path="url(#clip312)" style="stroke:#000000; stroke-linecap:round; stroke-linejoin:round; stroke-width:2; stroke-opacity:0.1; fill:none" points="
  208.502,628.506 2640.76,628.506 
  "/>
<polyline clip-path="url(#clip312)" style="stroke:#000000; stroke-linecap:round; stroke-linejoin:round; stroke-width:2; stroke-opacity:0.1; fill:none" points="
  208.502,230.607 2640.76,230.607 
  "/>
<polyline clip-path="url(#clip310)" style="stroke:#000000; stroke-linecap:round; stroke-linejoin:round; stroke-width:4; stroke-opacity:1; fill:none" points="
  208.502,1734.12 208.502,47.2441 
  "/>
<polyline clip-path="url(#clip310)" style="stroke:#000000; stroke-linecap:round; stroke-linejoin:round; stroke-width:4; stroke-opacity:1; fill:none" points="
  208.502,1424.3 227.399,1424.3 
  "/>
<polyline clip-path="url(#clip310)" style="stroke:#000000; stroke-linecap:round; stroke-linejoin:round; stroke-width:4; stroke-opacity:1; fill:none" points="
  208.502,1026.4 227.399,1026.4 
  "/>
<polyline clip-path="url(#clip310)" style="stroke:#000000; stroke-linecap:round; stroke-linejoin:round; stroke-width:4; stroke-opacity:1; fill:none" points="
  208.502,628.506 227.399,628.506 
  "/>
<polyline clip-path="url(#clip310)" style="stroke:#000000; stroke-linecap:round; stroke-linejoin:round; stroke-width:4; stroke-opacity:1; fill:none" points="
  208.502,230.607 227.399,230.607 
  "/>
<path clip-path="url(#clip310)" d="M145.96 1407.02 L168.182 1407.02 L168.182 1409.01 L155.636 1441.58 L150.751 1441.58 L162.557 1410.96 L145.96 1410.96 L145.96 1407.02 Z" fill="#000000" fill-rule="evenodd" fill-opacity="1" /><path clip-path="url(#clip310)" d="M156.33 1027.27 Q152.997 1027.27 151.075 1029.05 Q149.177 1030.84 149.177 1033.96 Q149.177 1037.09 151.075 1038.87 Q152.997 1040.65 156.33 1040.65 Q159.663 1040.65 161.585 1038.87 Q163.506 1037.06 163.506 1033.96 Q163.506 1030.84 161.585 1029.05 Q159.686 1027.27 156.33 1027.27 M151.654 1025.28 Q148.645 1024.54 146.955 1022.48 Q145.288 1020.42 145.288 1017.46 Q145.288 1013.31 148.228 1010.91 Q151.191 1008.5 156.33 1008.5 Q161.492 1008.5 164.432 1010.91 Q167.372 1013.31 167.372 1017.46 Q167.372 1020.42 165.682 1022.48 Q164.015 1024.54 161.029 1025.28 Q164.409 1026.07 166.284 1028.36 Q168.182 1030.65 168.182 1033.96 Q168.182 1038.98 165.103 1041.67 Q162.048 1044.35 156.33 1044.35 Q150.612 1044.35 147.534 1041.67 Q144.478 1038.98 144.478 1033.96 Q144.478 1030.65 146.376 1028.36 Q148.274 1026.07 151.654 1025.28 M149.941 1017.9 Q149.941 1020.58 151.608 1022.09 Q153.298 1023.59 156.33 1023.59 Q159.339 1023.59 161.029 1022.09 Q162.742 1020.58 162.742 1017.9 Q162.742 1015.21 161.029 1013.71 Q159.339 1012.2 156.33 1012.2 Q153.298 1012.2 151.608 1013.71 Q149.941 1015.21 149.941 1017.9 Z" fill="#000000" fill-rule="evenodd" fill-opacity="1" /><path clip-path="url(#clip310)" d="M146.562 645.068 L146.562 640.809 Q148.321 641.642 150.126 642.082 Q151.932 642.522 153.668 642.522 Q158.298 642.522 160.728 639.42 Q163.182 636.295 163.529 629.952 Q162.186 631.943 160.126 633.008 Q158.066 634.073 155.566 634.073 Q150.381 634.073 147.349 630.948 Q144.339 627.8 144.339 622.36 Q144.339 617.036 147.487 613.818 Q150.636 610.601 155.867 610.601 Q161.862 610.601 165.01 615.207 Q168.182 619.79 168.182 628.54 Q168.182 636.712 164.293 641.596 Q160.427 646.457 153.876 646.457 Q152.117 646.457 150.311 646.11 Q148.506 645.762 146.562 645.068 M155.867 630.415 Q159.015 630.415 160.844 628.262 Q162.696 626.11 162.696 622.36 Q162.696 618.633 160.844 616.48 Q159.015 614.304 155.867 614.304 Q152.719 614.304 150.867 616.48 Q149.038 618.633 149.038 622.36 Q149.038 626.11 150.867 628.262 Q152.719 630.415 155.867 630.415 Z" fill="#000000" fill-rule="evenodd" fill-opacity="1" /><path clip-path="url(#clip310)" d="M116.886 243.952 L124.525 243.952 L124.525 217.587 L116.214 219.253 L116.214 214.994 L124.478 213.327 L129.154 213.327 L129.154 243.952 L136.793 243.952 L136.793 247.887 L116.886 247.887 L116.886 243.952 Z" fill="#000000" fill-rule="evenodd" fill-opacity="1" /><path clip-path="url(#clip310)" d="M156.237 216.406 Q152.626 216.406 150.798 219.971 Q148.992 223.513 148.992 230.642 Q148.992 237.749 150.798 241.313 Q152.626 244.855 156.237 244.855 Q159.872 244.855 161.677 241.313 Q163.506 237.749 163.506 230.642 Q163.506 223.513 161.677 219.971 Q159.872 216.406 156.237 216.406 M156.237 212.702 Q162.048 212.702 165.103 217.309 Q168.182 221.892 168.182 230.642 Q168.182 239.369 165.103 243.975 Q162.048 248.559 156.237 248.559 Q150.427 248.559 147.349 243.975 Q144.293 239.369 144.293 230.642 Q144.293 221.892 147.349 217.309 Q150.427 212.702 156.237 212.702 Z" fill="#000000" fill-rule="evenodd" fill-opacity="1" /><path clip-path="url(#clip310)" d="M19.402 1226.41 L37.2578 1226.41 L37.2578 1218.32 Q37.2578 1213.84 34.9343 1211.38 Q32.6108 1208.93 28.314 1208.93 Q24.0489 1208.93 21.7255 1211.38 Q19.402 1213.84 19.402 1218.32 L19.402 1226.41 M14.1184 1232.84 L14.1184 1218.32 Q14.1184 1210.33 17.7469 1206.26 Q21.3435 1202.15 28.314 1202.15 Q35.3481 1202.15 38.9447 1206.26 Q42.5413 1210.33 42.5413 1218.32 L42.5413 1226.41 L61.6384 1226.41 L61.6384 1232.84 L14.1184 1232.84 Z" fill="#000000" fill-rule="evenodd" fill-opacity="1" /><path clip-path="url(#clip310)" d="M30.0964 1182.29 Q30.0964 1187 33.7885 1189.74 Q37.4488 1192.48 43.8463 1192.48 Q50.2438 1192.48 53.9359 1189.77 Q57.5962 1187.04 57.5962 1182.29 Q57.5962 1177.61 53.9041 1174.88 Q50.212 1172.14 43.8463 1172.14 Q37.5124 1172.14 33.8203 1174.88 Q30.0964 1177.61 30.0964 1182.29 M25.1311 1182.29 Q25.1311 1174.65 30.0964 1170.29 Q35.0616 1165.93 43.8463 1165.93 Q52.5991 1165.93 57.5962 1170.29 Q62.5615 1174.65 62.5615 1182.29 Q62.5615 1189.96 57.5962 1194.32 Q52.5991 1198.65 43.8463 1198.65 Q35.0616 1198.65 30.0964 1194.32 Q25.1311 1189.96 25.1311 1182.29 Z" fill="#000000" fill-rule="evenodd" fill-opacity="1" /><path clip-path="url(#clip310)" d="M27.0408 1133.5 L32.579 1133.5 Q31.3059 1135.98 30.6693 1138.66 Q30.0327 1141.33 30.0327 1144.19 Q30.0327 1148.56 31.3695 1150.75 Q32.7063 1152.92 35.3799 1152.92 Q37.4169 1152.92 38.5946 1151.36 Q39.7404 1149.8 40.7908 1145.09 L41.2364 1143.08 Q42.5732 1136.84 45.0239 1134.23 Q47.4429 1131.59 51.8034 1131.59 Q56.7687 1131.59 59.6651 1135.54 Q62.5615 1139.45 62.5615 1146.33 Q62.5615 1149.19 61.9886 1152.31 Q61.4475 1155.4 60.3335 1158.84 L54.2861 1158.84 Q55.973 1155.59 56.8323 1152.44 Q57.6599 1149.29 57.6599 1146.2 Q57.6599 1142.06 56.2594 1139.83 Q54.8271 1137.61 52.249 1137.61 Q49.8619 1137.61 48.5887 1139.23 Q47.3156 1140.82 46.1379 1146.26 L45.6605 1148.3 Q44.5147 1153.74 42.1594 1156.16 Q39.7722 1158.58 35.6345 1158.58 Q30.6056 1158.58 27.8684 1155.02 Q25.1311 1151.45 25.1311 1144.9 Q25.1311 1141.65 25.6085 1138.78 Q26.086 1135.92 27.0408 1133.5 Z" fill="#000000" fill-rule="evenodd" fill-opacity="1" /><path clip-path="url(#clip310)" d="M15.869 1116.47 L25.9905 1116.47 L25.9905 1104.41 L30.542 1104.41 L30.542 1116.47 L49.8937 1116.47 Q54.2542 1116.47 55.4955 1115.29 Q56.7368 1114.09 56.7368 1110.42 L56.7368 1104.41 L61.6384 1104.41 L61.6384 1110.42 Q61.6384 1117.2 59.124 1119.78 Q56.5777 1122.36 49.8937 1122.36 L30.542 1122.36 L30.542 1126.66 L25.9905 1126.66 L25.9905 1122.36 L15.869 1122.36 L15.869 1116.47 Z" fill="#000000" fill-rule="evenodd" fill-opacity="1" /><path clip-path="url(#clip310)" d="M42.3504 1066.21 L45.2149 1066.21 L45.2149 1093.14 Q51.2623 1092.76 54.4452 1089.51 Q57.5962 1086.24 57.5962 1080.41 Q57.5962 1077.04 56.7687 1073.89 Q55.9411 1070.7 54.2861 1067.58 L59.8242 1067.58 Q61.161 1070.73 61.8612 1074.04 Q62.5615 1077.35 62.5615 1080.76 Q62.5615 1089.29 57.5962 1094.29 Q52.631 1099.25 44.1646 1099.25 Q35.4117 1099.25 30.2873 1094.54 Q25.1311 1089.8 25.1311 1081.78 Q25.1311 1074.59 29.7781 1070.42 Q34.3932 1066.21 42.3504 1066.21 M40.6316 1072.07 Q35.8255 1072.14 32.9609 1074.78 Q30.0964 1077.39 30.0964 1081.72 Q30.0964 1086.62 32.8654 1089.58 Q35.6345 1092.51 40.6634 1092.95 L40.6316 1072.07 Z" fill="#000000" fill-rule="evenodd" fill-opacity="1" /><path clip-path="url(#clip310)" d="M31.465 1035.95 Q30.8921 1036.93 30.6375 1038.11 Q30.351 1039.26 30.351 1040.66 Q30.351 1045.62 33.5975 1048.3 Q36.8122 1050.94 42.8596 1050.94 L61.6384 1050.94 L61.6384 1056.83 L25.9905 1056.83 L25.9905 1050.94 L31.5287 1050.94 Q28.2821 1049.09 26.7225 1046.13 Q25.1311 1043.17 25.1311 1038.94 Q25.1311 1038.33 25.2266 1037.6 Q25.2903 1036.87 25.4494 1035.98 L31.465 1035.95 Z" fill="#000000" fill-rule="evenodd" fill-opacity="1" /><path clip-path="url(#clip310)" d="M25.9905 1029.8 L25.9905 1023.95 L61.6384 1023.95 L61.6384 1029.8 L25.9905 1029.8 M12.1132 1029.8 L12.1132 1023.95 L19.5293 1023.95 L19.5293 1029.8 L12.1132 1029.8 Z" fill="#000000" fill-rule="evenodd" fill-opacity="1" /><path clip-path="url(#clip310)" d="M30.0964 997.879 Q30.0964 1002.59 33.7885 1005.33 Q37.4488 1008.06 43.8463 1008.06 Q50.2438 1008.06 53.9359 1005.36 Q57.5962 1002.62 57.5962 997.879 Q57.5962 993.2 53.9041 990.463 Q50.212 987.726 43.8463 987.726 Q37.5124 987.726 33.8203 990.463 Q30.0964 993.2 30.0964 997.879 M25.1311 997.879 Q25.1311 990.24 30.0964 985.88 Q35.0616 981.519 43.8463 981.519 Q52.5991 981.519 57.5962 985.88 Q62.5615 990.24 62.5615 997.879 Q62.5615 1005.55 57.5962 1009.91 Q52.5991 1014.24 43.8463 1014.24 Q35.0616 1014.24 30.0964 1009.91 Q25.1311 1005.55 25.1311 997.879 Z" fill="#000000" fill-rule="evenodd" fill-opacity="1" /><path clip-path="url(#clip310)" d="M31.465 951.155 Q30.8921 952.141 30.6375 953.319 Q30.351 954.465 30.351 955.865 Q30.351 960.831 33.5975 963.504 Q36.8122 966.146 42.8596 966.146 L61.6384 966.146 L61.6384 972.034 L25.9905 972.034 L25.9905 966.146 L31.5287 966.146 Q28.2821 964.3 26.7225 961.34 Q25.1311 958.38 25.1311 954.147 Q25.1311 953.542 25.2266 952.81 Q25.2903 952.078 25.4494 951.187 L31.465 951.155 Z" fill="#000000" fill-rule="evenodd" fill-opacity="1" /><path clip-path="url(#clip310)" d="M14.1184 924.037 L14.1184 893.991 L19.5293 893.991 L19.5293 917.607 L33.5975 917.607 L33.5975 894.977 L39.0084 894.977 L39.0084 917.607 L56.2276 917.607 L56.2276 893.418 L61.6384 893.418 L61.6384 924.037 L14.1184 924.037 Z" fill="#000000" fill-rule="evenodd" fill-opacity="1" /><path clip-path="url(#clip310)" d="M25.9905 853.473 L43.337 866.364 L61.6384 852.805 L61.6384 859.711 L47.6339 870.087 L61.6384 880.464 L61.6384 887.37 L42.9869 873.525 L25.9905 886.193 L25.9905 879.286 L38.6901 869.833 L25.9905 860.38 L25.9905 853.473 Z" fill="#000000" fill-rule="evenodd" fill-opacity="1" /><path clip-path="url(#clip310)" d="M56.2912 838.864 L75.1974 838.864 L75.1974 844.752 L25.9905 844.752 L25.9905 838.864 L31.4013 838.864 Q28.2185 837.018 26.6907 834.217 Q25.1311 831.384 25.1311 827.469 Q25.1311 820.976 30.2873 816.934 Q35.4436 812.86 43.8463 812.86 Q52.249 812.86 57.4052 816.934 Q62.5615 820.976 62.5615 827.469 Q62.5615 831.384 61.0337 834.217 Q59.4741 837.018 56.2912 838.864 M43.8463 818.939 Q37.3851 818.939 33.7248 821.613 Q30.0327 824.254 30.0327 828.901 Q30.0327 833.548 33.7248 836.222 Q37.3851 838.864 43.8463 838.864 Q50.3075 838.864 53.9996 836.222 Q57.6599 833.548 57.6599 828.901 Q57.6599 824.254 53.9996 821.613 Q50.3075 818.939 43.8463 818.939 Z" fill="#000000" fill-rule="evenodd" fill-opacity="1" /><path clip-path="url(#clip310)" d="M42.3504 772.66 L45.2149 772.66 L45.2149 799.587 Q51.2623 799.205 54.4452 795.959 Q57.5962 792.68 57.5962 786.856 Q57.5962 783.482 56.7687 780.331 Q55.9411 777.148 54.2861 774.029 L59.8242 774.029 Q61.161 777.18 61.8612 780.49 Q62.5615 783.8 62.5615 787.206 Q62.5615 795.736 57.5962 800.733 Q52.631 805.698 44.1646 805.698 Q35.4117 805.698 30.2873 800.988 Q25.1311 796.245 25.1311 788.224 Q25.1311 781.031 29.7781 776.862 Q34.3932 772.66 42.3504 772.66 M40.6316 778.517 Q35.8255 778.58 32.9609 781.222 Q30.0964 783.832 30.0964 788.161 Q30.0964 793.062 32.8654 796.022 Q35.6345 798.951 40.6634 799.396 L40.6316 778.517 Z" fill="#000000" fill-rule="evenodd" fill-opacity="1" /><path clip-path="url(#clip310)" d="M27.3591 737.394 L32.8336 737.394 Q31.465 739.877 30.7966 742.391 Q30.0964 744.874 30.0964 747.42 Q30.0964 753.118 33.7248 756.269 Q37.3214 759.42 43.8463 759.42 Q50.3711 759.42 53.9996 756.269 Q57.5962 753.118 57.5962 747.42 Q57.5962 744.874 56.9278 742.391 Q56.2276 739.877 54.859 737.394 L60.2698 737.394 Q61.4156 739.845 61.9886 742.487 Q62.5615 745.097 62.5615 748.057 Q62.5615 756.11 57.5007 760.852 Q52.44 765.594 43.8463 765.594 Q35.1253 765.594 30.1282 760.82 Q25.1311 756.014 25.1311 747.675 Q25.1311 744.97 25.704 742.391 Q26.2451 739.813 27.3591 737.394 Z" fill="#000000" fill-rule="evenodd" fill-opacity="1" /><path clip-path="url(#clip310)" d="M15.869 721.416 L25.9905 721.416 L25.9905 709.353 L30.542 709.353 L30.542 721.416 L49.8937 721.416 Q54.2542 721.416 55.4955 720.239 Q56.7368 719.029 56.7368 715.369 L56.7368 709.353 L61.6384 709.353 L61.6384 715.369 Q61.6384 722.148 59.124 724.727 Q56.5777 727.305 49.8937 727.305 L30.542 727.305 L30.542 731.602 L25.9905 731.602 L25.9905 727.305 L15.869 727.305 L15.869 721.416 Z" fill="#000000" fill-rule="evenodd" fill-opacity="1" /><path clip-path="url(#clip310)" d="M43.719 685.45 Q43.719 692.548 45.3422 695.285 Q46.9655 698.022 50.8804 698.022 Q53.9996 698.022 55.8457 695.985 Q57.6599 693.917 57.6599 690.384 Q57.6599 685.514 54.2224 682.586 Q50.7531 679.626 45.0239 679.626 L43.719 679.626 L43.719 685.45 M41.3 673.769 L61.6384 673.769 L61.6384 679.626 L56.2276 679.626 Q59.4741 681.631 61.0337 684.623 Q62.5615 687.614 62.5615 691.943 Q62.5615 697.418 59.5059 700.664 Q56.4186 703.879 51.2623 703.879 Q45.2467 703.879 42.1912 699.868 Q39.1357 695.826 39.1357 687.837 L39.1357 679.626 L38.5628 679.626 Q34.5205 679.626 32.3244 682.299 Q30.0964 684.941 30.0964 689.747 Q30.0964 692.803 30.8284 695.699 Q31.5605 698.595 33.0246 701.269 L27.6137 701.269 Q26.3724 698.054 25.7677 695.031 Q25.1311 692.007 25.1311 689.142 Q25.1311 681.408 29.1415 677.589 Q33.1519 673.769 41.3 673.769 Z" fill="#000000" fill-rule="evenodd" fill-opacity="1" /><path clip-path="url(#clip310)" d="M15.869 655.913 L25.9905 655.913 L25.9905 643.85 L30.542 643.85 L30.542 655.913 L49.8937 655.913 Q54.2542 655.913 55.4955 654.736 Q56.7368 653.526 56.7368 649.866 L56.7368 643.85 L61.6384 643.85 L61.6384 649.866 Q61.6384 656.645 59.124 659.223 Q56.5777 661.802 49.8937 661.802 L30.542 661.802 L30.542 666.098 L25.9905 666.098 L25.9905 661.802 L15.869 661.802 L15.869 655.913 Z" fill="#000000" fill-rule="evenodd" fill-opacity="1" /><path clip-path="url(#clip310)" d="M25.9905 636.148 L25.9905 630.291 L61.6384 630.291 L61.6384 636.148 L25.9905 636.148 M12.1132 636.148 L12.1132 630.291 L19.5293 630.291 L19.5293 636.148 L12.1132 636.148 Z" fill="#000000" fill-rule="evenodd" fill-opacity="1" /><path clip-path="url(#clip310)" d="M30.0964 604.224 Q30.0964 608.934 33.7885 611.672 Q37.4488 614.409 43.8463 614.409 Q50.2438 614.409 53.9359 611.703 Q57.5962 608.966 57.5962 604.224 Q57.5962 599.545 53.9041 596.808 Q50.212 594.07 43.8463 594.07 Q37.5124 594.07 33.8203 596.808 Q30.0964 599.545 30.0964 604.224 M25.1311 604.224 Q25.1311 596.585 30.0964 592.224 Q35.0616 587.864 43.8463 587.864 Q52.5991 587.864 57.5962 592.224 Q62.5615 596.585 62.5615 604.224 Q62.5615 611.894 57.5962 616.255 Q52.5991 620.584 43.8463 620.584 Q35.0616 620.584 30.0964 616.255 Q25.1311 611.894 25.1311 604.224 Z" fill="#000000" fill-rule="evenodd" fill-opacity="1" /><path clip-path="url(#clip310)" d="M40.1224 548.524 L61.6384 548.524 L61.6384 554.38 L40.3133 554.38 Q35.2526 554.38 32.7381 556.354 Q30.2237 558.327 30.2237 562.274 Q30.2237 567.016 33.2474 569.753 Q36.2711 572.491 41.491 572.491 L61.6384 572.491 L61.6384 578.379 L25.9905 578.379 L25.9905 572.491 L31.5287 572.491 Q28.314 570.39 26.7225 567.557 Q25.1311 564.693 25.1311 560.969 Q25.1311 554.826 28.9505 551.675 Q32.7381 548.524 40.1224 548.524 Z" fill="#000000" fill-rule="evenodd" fill-opacity="1" /><circle clip-path="url(#clip312)" cx="1927.18" cy="527.134" r="14.4" fill="#009af9" fill-rule="evenodd" fill-opacity="1" stroke="#000000" stroke-opacity="1" stroke-width="3.84"/>
<circle clip-path="url(#clip312)" cx="723.443" cy="1379.7" r="14.4" fill="#009af9" fill-rule="evenodd" fill-opacity="1" stroke="#000000" stroke-opacity="1" stroke-width="3.84"/>
<circle clip-path="url(#clip312)" cx="1178.84" cy="1070.29" r="14.4" fill="#009af9" fill-rule="evenodd" fill-opacity="1" stroke="#000000" stroke-opacity="1" stroke-width="3.84"/>
<circle clip-path="url(#clip312)" cx="326.546" cy="1670.67" r="14.4" fill="#009af9" fill-rule="evenodd" fill-opacity="1" stroke="#000000" stroke-opacity="1" stroke-width="3.84"/>
<circle clip-path="url(#clip312)" cx="2571.92" cy="94.9858" r="14.4" fill="#009af9" fill-rule="evenodd" fill-opacity="1" stroke="#000000" stroke-opacity="1" stroke-width="3.84"/>
<circle clip-path="url(#clip312)" cx="313.133" cy="1667.86" r="14.4" fill="#009af9" fill-rule="evenodd" fill-opacity="1" stroke="#000000" stroke-opacity="1" stroke-width="3.84"/>
<circle clip-path="url(#clip312)" cx="277.339" cy="1686.38" r="14.4" fill="#009af9" fill-rule="evenodd" fill-opacity="1" stroke="#000000" stroke-opacity="1" stroke-width="3.84"/>
<circle clip-path="url(#clip312)" cx="895.555" cy="1261.23" r="14.4" fill="#009af9" fill-rule="evenodd" fill-opacity="1" stroke="#000000" stroke-opacity="1" stroke-width="3.84"/>
<polyline clip-path="url(#clip312)" style="stroke:#e26f46; stroke-linecap:round; stroke-linejoin:round; stroke-width:4; stroke-opacity:1; fill:none" points="
  -2223.75,1203.33 5073.01,1203.33 
  "/>
<polyline clip-path="url(#clip312)" style="stroke:#3da44d; stroke-linecap:round; stroke-linejoin:round; stroke-width:4; stroke-opacity:1; fill:none" points="
  -2223.75,1149.24 5073.01,1149.24 
  "/>
<path clip-path="url(#clip310)" d="
M2237 310.833 L2559.68 310.833 L2559.68 103.473 L2237 103.473  Z
  " fill="#ffffff" fill-rule="evenodd" fill-opacity="1"/>
<polyline clip-path="url(#clip310)" style="stroke:#000000; stroke-linecap:round; stroke-linejoin:round; stroke-width:4; stroke-opacity:1; fill:none" points="
  2237,310.833 2559.68,310.833 2559.68,103.473 2237,103.473 2237,310.833 
  "/>
<circle clip-path="url(#clip310)" cx="2345.1" cy="155.313" r="23.04" fill="#009af9" fill-rule="evenodd" fill-opacity="1" stroke="#000000" stroke-opacity="1" stroke-width="6.144"/>
<path clip-path="url(#clip310)" d="M2467.04 175.001 Q2465.24 179.63 2463.52 181.042 Q2461.81 182.454 2458.94 182.454 L2455.54 182.454 L2455.54 178.889 L2458.04 178.889 Q2459.8 178.889 2460.77 178.056 Q2461.74 177.223 2462.92 174.121 L2463.69 172.177 L2453.2 146.667 L2457.71 146.667 L2465.82 166.945 L2473.92 146.667 L2478.43 146.667 L2467.04 175.001 Z" fill="#000000" fill-rule="evenodd" fill-opacity="1" /><path clip-path="url(#clip310)" d="M2485.72 168.658 L2493.36 168.658 L2493.36 142.292 L2485.05 143.959 L2485.05 139.7 L2493.32 138.033 L2497.99 138.033 L2497.99 168.658 L2505.63 168.658 L2505.63 172.593 L2485.72 172.593 L2485.72 168.658 Z" fill="#000000" fill-rule="evenodd" fill-opacity="1" /><polyline clip-path="url(#clip310)" style="stroke:#e26f46; stroke-linecap:round; stroke-linejoin:round; stroke-width:4; stroke-opacity:1; fill:none" points="
  2264.03,207.153 2426.18,207.153 
  "/>
<path clip-path="url(#clip310)" d="M2453.2 234.294 L2453.2 198.507 L2457.46 198.507 L2457.46 214.618 Q2457.46 217.975 2459.06 219.688 Q2460.65 221.401 2463.78 221.401 Q2467.2 221.401 2468.92 219.456 Q2470.65 217.512 2470.65 213.623 L2470.65 198.507 L2474.91 198.507 L2474.91 218.461 Q2474.91 219.85 2475.31 220.521 Q2475.72 221.169 2476.58 221.169 Q2476.79 221.169 2477.16 221.054 Q2477.53 220.915 2478.18 220.637 L2478.18 224.063 Q2477.23 224.595 2476.37 224.85 Q2475.54 225.104 2474.73 225.104 Q2473.13 225.104 2472.18 224.202 Q2471.23 223.299 2470.89 221.447 Q2469.73 223.276 2468.04 224.202 Q2466.37 225.104 2464.1 225.104 Q2461.74 225.104 2460.08 224.202 Q2458.43 223.299 2457.46 221.493 L2457.46 234.294 L2453.2 234.294 Z" fill="#000000" fill-rule="evenodd" fill-opacity="1" /><path clip-path="url(#clip310)" d="M2505.35 208.785 L2505.35 224.433 L2501.09 224.433 L2501.09 208.924 Q2501.09 205.243 2499.66 203.415 Q2498.22 201.586 2495.35 201.586 Q2491.9 201.586 2489.91 203.785 Q2487.92 205.984 2487.92 209.78 L2487.92 224.433 L2483.64 224.433 L2483.64 198.507 L2487.92 198.507 L2487.92 202.535 Q2489.45 200.197 2491.51 199.04 Q2493.59 197.882 2496.3 197.882 Q2500.77 197.882 2503.06 200.66 Q2505.35 203.415 2505.35 208.785 Z" fill="#000000" fill-rule="evenodd" fill-opacity="1" /><polyline clip-path="url(#clip310)" style="stroke:#3da44d; stroke-linecap:round; stroke-linejoin:round; stroke-width:4; stroke-opacity:1; fill:none" points="
  2264.03,258.993 2426.18,258.993 
  "/>
<path clip-path="url(#clip310)" d="M2453.2 286.134 L2453.2 250.347 L2457.46 250.347 L2457.46 266.458 Q2457.46 269.815 2459.06 271.528 Q2460.65 273.241 2463.78 273.241 Q2467.2 273.241 2468.92 271.296 Q2470.65 269.352 2470.65 265.463 L2470.65 250.347 L2474.91 250.347 L2474.91 270.301 Q2474.91 271.69 2475.31 272.361 Q2475.72 273.009 2476.58 273.009 Q2476.79 273.009 2477.16 272.894 Q2477.53 272.755 2478.18 272.477 L2478.18 275.903 Q2477.23 276.435 2476.37 276.69 Q2475.54 276.944 2474.73 276.944 Q2473.13 276.944 2472.18 276.042 Q2471.23 275.139 2470.89 273.287 Q2469.73 275.116 2468.04 276.042 Q2466.37 276.944 2464.1 276.944 Q2461.74 276.944 2460.08 276.042 Q2458.43 275.139 2457.46 273.333 L2457.46 286.134 L2453.2 286.134 Z" fill="#000000" fill-rule="evenodd" fill-opacity="1" /></svg>
